<?xml version="1.0" encoding="UTF-8" standalone="no"?>
<!-- Created with Inkscape (http://www.inkscape.org/) -->
<svg id="svg3406" xmlns:rdf="http://www.w3.org/1999/02/22-rdf-syntax-ns#" xmlns="http://www.w3.org/2000/svg" height="751.25" viewBox="0 0 600.06927 751.25" width="600.07" version="1.1" xmlns:cc="http://creativecommons.org/ns#" xmlns:dc="http://purl.org/dc/elements/1.1/">
 <metadata id="metadata3412">
  <rdf:RDF>
   <cc:Work rdf:about="">
    <dc:format>image/svg+xml</dc:format>
    <dc:type rdf:resource="http://purl.org/dc/dcmitype/StillImage"/>
    <dc:title/>
   </cc:Work>
  </rdf:RDF>
 </metadata>
 <path id="path3416" d="m17.356 750.47c-0.9028-0.69975-0.75235-1.1602 1.4425-4.4152 2.9854-4.4273 17.361-25.598 33.51-49.348 6.5976-9.7034 16.671-24.533 22.386-32.955 5.7149-8.4219 12.704-18.688 15.532-22.812 11.93-17.404 30.339-44.306 35.285-51.562 2.9288-4.2969 7.0626-10.344 9.1863-13.438 2.1236-3.0938 6.5185-9.5647 9.7664-14.38l5.9052-8.7549-0.44872-5.6201c-0.2468-3.091-0.89966-12.933-1.4508-21.87-2.0277-32.881-2.8483-45.942-3.7503-59.688-0.50755-7.7344-1.217-18.984-1.5765-25-1.2071-20.198-5.4723-76.833-6.0015-79.69-0.32819-1.7716 0.31613-2.493 11.443-12.812 15.568-14.439 59.507-55.659 73.29-68.756 6.0156-5.7162 14.664-13.883 19.219-18.149 4.5547-4.2656 8.2812-7.9623 8.2812-8.2149 0-0.8829 2.559-1.8563 3.3212-1.2633 0.40772 0.31717 4.1163 0.9163 8.2413 1.3314s12.89 1.4296 19.477 2.2544c6.5876 0.82479 17.97 2.0948 25.293 2.8222 7.3236 0.72742 13.465 1.4146 13.648 1.5272 0.18252 0.11251 7.2225 0.95044 15.644 1.8621 8.4219 0.91162 22.484 2.5066 31.25 3.5444 8.7656 1.0378 18.75 2.1557 22.188 2.4842 3.4375 0.32853 14.125 1.5513 23.75 2.7173s19.328 2.3024 21.562 2.5253c2.2344 0.22288 10.672 1.2172 18.75 2.2095 8.0781 0.99234 18.625 2.2414 23.438 2.7756 4.8125 0.53425 15.5 1.8116 23.75 2.8386 17.958 2.2355 47.922 5.898 76.563 9.3583 11.516 1.3913 21.57 2.6711 22.344 2.844 1.3843 0.3095 1.4063 0.4659 1.4063 9.99 0 5.3216-0.2109 9.6701-0.4688 9.6634-1.2877-0.0335-17.204-1.9328-25.469-3.0392-5.1563-0.69029-13.734-1.7077-19.062-2.2608-5.3281-0.55317-15.031-1.6825-21.563-2.5096-6.5312-0.82708-16.094-1.9369-21.25-2.4662-5.1562-0.5293-14.016-1.5333-19.688-2.2312-5.6719-0.69783-15.656-1.8207-22.188-2.4953-6.5312-0.67458-19.047-2.0576-27.812-3.0734-8.7656-1.0158-19.031-2.1607-22.812-2.5442-3.7812-0.38348-15.312-1.6509-25.625-2.8166-34.737-3.9263-58.084-6.5111-64.933-7.1885-3.7441-0.37038-11.478-1.2213-17.188-1.891-5.709-0.66969-17.271-1.9203-25.692-2.7791-8.4219-0.85881-17.422-1.8354-20-2.1703-7.9377-1.031-8.0642-1.0024-11.875 2.6826-1.8906 1.8282-11.316 10.616-20.945 19.528-36.173 33.481-41.444 38.356-49.331 45.625-4.4488 4.1-9.9331 9.1163-12.188 11.147-2.2544 2.0311-6.2794 5.7614-8.9444 8.2895l-4.8456 4.5967 0.60668 7.023c0.70774 8.193 2.6262 42.094 4.394 77.648 1.4101 28.36 2.0266 40.244 4.0361 77.812 1.2018 22.468 1.2895 26.715 0.56884 27.549-0.4686 0.5427-0.852 1.2313-0.852 1.5302 0 0.71185-4.0272 6.7364-13.985 20.921-20.007 28.5-39.834 57.008-54.333 78.125-6.7268 9.7969-13.117 19.078-14.2 20.625-5.1026 7.2865-30.609 44.204-34.761 50.312-2.5702 3.7812-5.8712 8.5625-7.3356 10.625-6.7878 9.5602-7.3019 10.447-6.5674 11.332 0.59506 0.717-0.7485 0.85531-8.3097 0.85531-6.2614 0-9.3278-0.23888-10.028-0.78125zm38.894 0.15625c-0.69425-0.44869-0.28884-0.61631 1.5625-0.64619 2.4284-0.0394 2.6433-0.22893 7.5-6.6239 4.3698-5.7539 10-13.092 16.77-21.856 1.089-1.4098 4.23-5.4759 6.98-9.0359 2.75-3.5599 6.9688-9.0373 9.375-12.172 2.4063-3.1346 11.969-15.5 21.25-27.478 9.2812-11.978 19.9-25.738 23.598-30.577 3.6978-4.8391 9.1114-11.892 12.03-15.673 2.9188-3.7812 10.65-13.906 17.18-22.5 6.5305-8.5938 14.968-19.679 18.751-24.635 3.7826-4.9553 6.8775-9.243 6.8775-9.5281 0-0.5289-6.4421-38.866-10.328-61.462-1.1823-6.875-2.993-17.422-4.0238-23.438-1.0308-6.0156-2.7182-15.578-3.75-21.25-4.3266-23.785-6.4502-35.725-7.5591-42.5-0.64702-3.9531-1.888-10.671-2.7577-14.93-0.86973-4.2582-1.5734-8.3363-1.5637-9.0625 0.01-0.72616 1.9193-3.5703 4.2436-6.3203 5.1472-6.09 23.219-28.36 33.726-41.562 4.2407-5.3281 9.5204-11.938 11.733-14.688 2.2123-2.75 7.0154-8.7969 10.673-13.438 3.658-4.6406 7.3862-9.3059 8.2849-10.367 0.89866-1.0613 3.1808-3.9419 5.0714-6.4013 3.2343-4.2073 4.375-5.2299 4.375-3.9222 0 0.66025 2.0807 0.96609 15 2.2048 5.3281 0.51088 12.359 1.2109 15.625 1.5555 11.123 1.174 84.738 7.941 92.5 8.503 7.6956 0.55722 32.442 2.7071 39.375 3.4208 3.2656 0.33615 10.156 0.903 15.312 1.2597 9.2139 0.63733 38.046 3.0971 50.938 4.3456 3.6094 0.34957 10.5 0.93614 15.312 1.3035 4.8125 0.36736 15.781 1.3462 24.375 2.1752 8.5938 0.829 19.422 1.8087 24.062 2.1771 4.6406 0.36838 18.563 1.6471 30.938 2.8416s24.258 2.3308 26.406 2.525l3.9063 0.35328v9.3636 9.3636l-2.6563-0.35646c-3.018-0.405-40.828-3.7396-53.594-4.7266-4.6406-0.3588-17.578-1.4714-28.75-2.4726-11.172-1.0011-23.125-2.0005-26.562-2.2209-3.4375-0.2204-15.391-1.2093-26.562-2.1975-11.172-0.98822-27.906-2.3794-37.188-3.0915-9.2812-0.71212-24.75-1.9779-34.375-2.8128-9.625-0.83492-21.578-1.8223-26.562-2.1942-4.9844-0.37187-18.344-1.4969-29.688-2.5s-24.422-2.1306-29.062-2.5054c-4.6406-0.37484-12.516-1.0865-17.5-1.5814-15.54-1.54-29.91-2.79-32.15-2.79-2.0558 0-2.6781 0.65936-14.305 15.156-6.6856 8.3359-15.358 19.094-19.272 23.906-3.9138 4.8125-9.0512 11.141-11.416 14.062-2.3653 2.9219-5.3664 6.5781-6.6692 8.125-13.42 15.935-14.913 17.877-14.649 19.062 0.2903 1.3066 6.744 40.233 11.035 66.562 1.3727 8.4219 3.4503 21.078 4.6169 28.125 1.1666 7.0469 3.2868 20.406 4.7117 29.688 1.4249 9.2812 3.5031 22.728 4.6182 29.881 1.9714 12.646 1.9947 13.024 0.8414 13.641-0.96636 0.51719-1.113 1.068-0.79117 2.9727 0.37391 2.2132 0.10128 2.7166-5.1093 9.4352-3.0273 3.9035-7.0511 9.1166-8.9418 11.585-3.6164 4.7208-7.8974 10.212-22.083 28.323-4.7548 6.0708-10.785 13.85-13.4 17.288-2.615 3.4375-6.1779 7.9788-7.9175 10.092-1.7396 2.1129-4.8504 6.0374-6.9129 8.7211-2.0625 2.6836-6.9983 8.9705-10.968 13.971-3.9702 5.0003-13.533 17.208-21.25 27.129-7.7173 9.9206-17.915 22.999-22.662 29.062-4.747 6.0638-10.314 13.205-12.372 15.869-3.565 4.6159-3.859 4.8438-6.2497 4.8438-1.5134 0-2.3555 0.248-2.1225 0.625 0.51 0.82519-16.536 0.82519-17.812 0zm37.5 0c-0.64145-0.41456 0.95286-0.60888 5.0486-0.61544l5.9862-0.009 2.7638-3.3544c1.5201-1.8449 7.8264-9.1154 14.014-16.157 6.1875-7.0412 14.766-16.844 19.062-21.785 4.2969-4.9404 10.625-12.101 14.062-15.913 3.4375-3.8115 11.031-12.383 16.875-19.047 5.8438-6.6643 14.422-16.37 19.062-21.568 4.6406-5.1979 13.078-14.744 18.75-21.213 5.6719-6.469 10.604-12.075 10.96-12.457 7.6978-8.2609 29.675-33.433 30.056-34.425 0.15511-0.40422-1.3109-6.1991-3.2577-12.878-1.9469-6.6786-4.0364-13.971-4.6434-16.205-0.60698-2.2344-2.5576-8.9844-4.3348-15-4.3928-14.869-8.5987-29.285-10.303-35.312-0.77753-2.75-4.7098-16.531-8.7385-30.625-10.724-37.517-12.018-42.142-12.865-45.971l-0.76765-3.4709 4.1978-9.3416c2.3088-5.1379 4.8388-10.748 5.6223-12.467 0.78345-1.7188 2.8919-6.3594 4.6854-10.312 1.7936-3.9531 3.9718-8.7344 4.8406-10.625 0.86881-1.8906 2.4965-5.5469 3.6171-8.125s3.3583-7.5 4.9726-10.938c1.6143-3.4375 3.6538-8.0294 4.5323-10.204 1.0475-2.5935 2.0516-4.1092 2.9177-4.4043 2.3993-0.81755 33.746 0.42359 76.946 3.0466 5.5 0.33395 20.688 1.1771 33.75 1.8737 13.062 0.69661 32.469 1.8163 43.125 2.4882s27.672 1.6623 37.812 2.2009c10.141 0.53858 30.531 1.7951 45.312 2.7922 14.781 0.99715 29.969 1.9903 33.75 2.207 3.7812 0.21671 16.578 1.0918 28.438 1.9446 34.288 2.4657 56.424 3.9798 58.281 3.9866l1.7188 0.006v9.0505 9.0506l-2.6563-0.27967c-1.4609-0.15382-5.0468-0.4245-7.9687-0.60151-2.9219-0.177-12.906-0.87475-22.188-1.5506-9.2813-0.6758-21.938-1.5306-28.125-1.8996-28.157-1.6792-52.599-3.1931-60.625-3.755-4.8125-0.33692-14.656-0.91052-21.875-1.2746-20.24-1.021-44.842-2.4239-60-3.4213-7.5625-0.49766-20.219-1.1989-28.125-1.5584-7.9062-0.35944-21.547-1.0724-30.312-1.5843-29.647-1.7315-62.13-3.3926-73.75-3.7715l-11.562-0.377-5.118 11.142c-2.8149 6.1284-7.6972 16.767-10.85 23.642-3.1523 6.875-6.9964 15.216-8.5425 18.535l-2.8111 6.0353 1.0419 4.2772c0.57305 2.3524 2.1221 8.2147 3.4423 13.027 1.3202 4.8125 3.5717 13.109 5.0034 18.438 4.1669 15.507 11.531 42.322 14.505 52.812 1.0717 3.7812 2.5738 9.2656 3.338 12.188 0.76416 2.9219 4.1339 15.156 7.4884 27.188 9.5957 34.416 9.2262 32.26 6.1047 35.625-5.2987 5.7127-43.921 48.844-69.852 78.008-11.779 13.248-14.026 15.756-33.807 37.751-8.2813 9.2079-20.62 23-27.418 30.648l-12.361 13.906h-6.2123c-3.9824 0-6.0736 0.22437-5.826 0.625 0.50988 0.825-15.911 0.825-17.188 0zm37.5 0c-0.6297-0.40694 1.9745-0.609 7.9319-0.61544 5.2495-0.006 9.027 0.2455 9.2556 0.61544 0.50988 0.825-15.911 0.825-17.188 0zm41.25 0c-0.51563-0.33325-5.2333-0.61019-10.484-0.61544l-9.5463-0.009 5.1713-5.1971c92.42-92.88 135.56-136.62 142.68-144.67l2.376-2.6863-1.4088-2.6262c-0.77482-1.4444-2.9582-6.1418-4.8519-10.439-8.5302-19.355-13.063-29.56-15.961-35.938-7.8564-17.288-12.995-28.493-18.728-40.839-6.1568-13.258-6.8094-14.691-12.143-26.661-1.5317-3.4375-3.5036-7.7135-4.3821-9.5022l-1.5972-3.2522 1.0185-11.748c2.0411-23.542 2.7995-34.587 3.5317-51.435 0.41081-9.4531 0.97125-17.437 1.2454-17.742 0.2898-0.32229 11.832-0.25012 27.569 0.17239 14.889 0.39974 44.227 1.144 65.196 1.654 46.077 1.1205 80.379 2.0221 93.438 2.4558 5.3281 0.17698 22.766 0.61495 38.75 0.97328 15.984 0.35832 43.547 1.0614 61.25 1.5624 17.703 0.50102 38.797 1.0724 46.875 1.2697 8.0781 0.19731 15.32 0.48685 16.094 0.64343 1.3725 0.27784 1.4063 0.48181 1.4063 8.4899v8.2052l-22.656-0.43609c-12.461-0.23985-44.453-0.98138-71.094-1.6478-26.641-0.66646-64.75-1.6191-84.688-2.117-19.938-0.49789-46.234-1.0744-58.438-1.2811-12.203-0.20673-38.6-0.80399-58.66-1.3272-20.06-0.52327-36.609-0.81468-36.776-0.64757-0.16711 0.16711-0.56093 4.4734-0.87516 9.5695-0.31422 5.0961-1.4294 18.419-2.4782 29.606l-1.9069 20.34 5.7196 13.097c3.1458 7.2034 6.3728 14.503 7.1712 16.222 0.79833 1.7188 3.735 8.3281 6.5259 14.688 2.7909 6.3594 5.6648 12.828 6.3864 14.375 0.7216 1.5469 3.5317 7.875 6.2447 14.062 2.713 6.1875 5.194 11.812 5.5132 12.5 1.6772 3.6114 7.5099 17.162 7.5099 17.447 0 0.18229 0.68854 1.8157 1.5301 3.6298 1.7983 3.8765 5.5479 12.486 9.5297 21.881l2.8428 6.7074-14.098 14.543c-7.7541 7.9984-41.439 41.824-74.855 75.168l-60.757 60.625 8.7916 0.3125c4.8354 0.17187 9.0014 0.52344 9.2578 0.78125 0.69659 0.70025-16.153 0.54756-17.242-0.15625zm38.125 0c-0.51563-0.33325-2.625-0.61519-4.6875-0.62656l-3.75-0.0206 4.0635-3.8951c5.0369-4.8281 26.186-24.048 42.811-38.907 6.875-6.1443 14.328-12.899 16.562-15.011 2.2344-2.1121 5.467-5.0802 7.1835-6.5959 8.9024-7.8611 39.81-36.301 66.441-61.137 12.672-11.818 17.581-16.772 17.312-17.473-0.36763-0.958-15.558-23.667-26.603-39.771-3.065-4.4688-9.3901-13.75-14.056-20.625-4.6658-6.875-12.15-17.844-16.632-24.375-4.4819-6.5312-10.501-15.407-13.375-19.723l-5.2259-7.848-1.597-9.652c-0.87836-5.3087-2.4318-14.433-3.452-20.277-1.0202-5.8438-2.2664-13.297-2.7693-16.562-0.50288-3.2656-1.4888-9.1719-2.191-13.125-0.70214-3.9531-1.2785-7.8152-1.2808-8.5823l-0.004-1.3948 81.719-0.0643c44.945-0.0354 83.125-0.15481 84.844-0.26544 1.7188-0.11063 28.156-0.36921 58.75-0.57462 30.594-0.2054 66.805-0.555 80.469-0.77689l24.844-0.40344v8.1246 8.1247l-21.406 0.41278c-61.704 1.1899-174.01 2.2744-238.12 2.2994l-49.219 0.0192v1.8187c0 1.9836 1.9498 15.746 3.4993 24.7 0.53541 3.0938 1.4612 9 2.0574 13.125l1.0839 7.5 14.289 21.25c36.732 54.627 64.696 96.739 64.696 97.426 0 0.26944-19.527 18.576-29.086 27.268-2.0754 1.8872-10.499 9.6188-18.719 17.181-15.01 13.809-30.228 27.597-56.842 51.5-24.505 22.01-34.879 31.365-43.04 38.812l-7.8756 7.1875 3.0552 0.32625c5.9858 0.63912 3.8348 1.2361-4.4202 1.2267-4.612-0.005-8.8073-0.28219-9.3229-0.61544zm36.875 0c-0.69721-0.45056-0.33593-0.60831 1.4096-0.61544 2.422-0.01 3.5118-0.84287 20.153-15.406 2.0625-1.8049 9.1211-7.8682 15.686-13.474 10.956-9.3559 23.945-20.533 47.752-41.092 19.684-16.999 31.048-26.766 35.269-30.314 2.4303-2.0426 4.6999-4.0438 5.0437-4.4471 0.34375-0.40331 6.1094-5.4585 12.812-11.234 16.773-14.452 20-17.324 20-17.806 0-0.59448-7.7574-10.512-22.273-28.475-6.922-8.566-16.219-20.074-20.661-25.574-6.8651-8.5013-17.249-21.185-33.13-40.469-1.9109-2.3203-3.7893-4.227-4.1742-4.2371-0.38493-0.0101-1.9655-2.317-3.5124-5.1265-2.39-4.3407-7.1347-12.543-19.259-33.293-1.2051-2.0625-2.9912-5.1901-3.9692-6.9502l-1.778-3.2002 4.2218-0.39164c2.322-0.21539 13.503-0.67928 24.847-1.0309 20.155-0.62468 47.461-1.8812 67.5-3.106 5.5-0.33618 16.891-0.90461 25.312-1.2632 8.4219-0.35856 19.672-0.92281 25-1.2539 28.243-1.755 53.384-3.2507 68.438-4.0717 9.2812-0.50618 24.891-1.4818 34.688-2.1681 20.537-1.4386 48.121-3.1267 51.092-3.1267h2.0328v7.4467 7.4467l-4.5313 0.35316c-10.163 0.7921-110.38 7.4539-127.97 8.5062-11.764 0.70397-34.459 1.9557-67.5 3.7227-12.547 0.67103-34.203 1.6808-48.125 2.244-13.922 0.56318-25.424 1.132-25.56 1.2642-0.27713 0.26915 10.159 19.202 11.737 21.293 1.1883 1.5746 25.053 31.188 29.896 37.098 5.2232 6.3737 22.186 27.751 34.239 43.15 1.0312 1.3175 5.1094 6.5251 9.0625 11.572 3.9531 5.0473 8.9613 11.464 11.129 14.259l3.9419 5.0816-2.1481 1.875c-2.3555 2.056-26.365 22.805-41.675 36.015-5.329 4.5981-12.36 10.6-15.625 13.339-3.2648 2.7381-8.4838 7.2381-11.598 10-3.114 2.7619-10.005 8.673-15.312 13.136-5.3079 4.4628-12.899 10.932-16.869 14.375-3.9701 3.4435-11.545 9.9171-16.833 14.386-13.873 11.724-22.573 19.154-29.769 25.428-6.21 5.39-6.38 5.49-9.57 5.49-2.0058 0-3.0997 0.23894-2.8611 0.625 0.50976 0.82481-15.286 0.82481-16.562 0zm35.625 0c-0.70038-0.45263-0.36369-0.60825 1.3311-0.61544 1.9764-0.008 4.1096-1.4302 16.562-11.04 7.8616-6.0668 16.289-12.606 18.727-14.531 2.4383-1.9254 7.9027-6.1726 12.143-9.4382s11.808-9.0963 16.817-12.957c5.0088-3.8608 11.213-8.642 13.787-10.625 10.682-8.2297 36.795-28.477 39.695-30.779 4.3353-3.4405 27.412-21.218 35.103-27.043 3.4917-2.6443 8.0878-6.2552 10.213-8.0242l3.8649-3.2164-2.4686-2.5841c-1.3577-1.4213-6.5444-7.3654-11.526-13.209-4.9816-5.8438-11.14-13.031-13.685-15.972-2.5449-2.941-8.973-10.394-14.285-16.562-5.3117-6.1683-13.468-15.551-18.125-20.851-4.6571-5.2999-12.51-14.3-17.451-20-4.9409-5.7001-10.285-11.774-11.875-13.497-3.9302-4.2592-9.454-10.762-9.454-11.13 0-0.91226 4.7705-2.8821 7.9174-3.2692 2.0048-0.24665 3.8155-0.71298 4.0238-1.0363 0.20827-0.32332 1.4739-0.70452 2.8125-0.84713 10.436-1.1119 100.07-9.9755 109.62-10.84 3.6094-0.32676 14.859-1.4563 25-2.51s23.922-2.4815 30.625-3.1728c31.993-3.2993 49.161-5.0887 57.004-5.9415 4.7117-0.51227 9.0007-0.93139 9.5312-0.93139 0.8133 0 0.9645 1.1247 0.9645 7.1756 0 6.935-0.047 7.1857-1.4063 7.4783-0.7734 0.16647-7.1718 0.87732-14.219 1.5797-7.0469 0.70235-21.812 2.2438-32.812 3.4254s-24.5 2.6036-30 3.16c-5.5 0.55637-16.188 1.6818-23.75 2.5009-7.5625 0.81912-17.125 1.7908-21.25 2.1594-4.125 0.36854-13.688 1.3595-21.25 2.2021-7.5625 0.84265-17.406 1.8376-21.875 2.211-7.2297 0.60414-21.679 2.0629-37.188 3.7545-2.9219 0.3187-7.0703 0.76426-9.2188 0.99013-2.1484 0.22587-3.906 0.58277-3.9056 0.79311 0.00059 0.37465 4.547 5.736 28.454 33.555 11.453 13.327 17.866 20.879 30.17 35.531 3.1971 3.8069 10.51 12.508 16.25 19.336 8.082 9.6127 10.419 12.786 10.357 14.062-0.0441 0.90672-0.11443 2.5026-0.15625 3.5464-0.0597 1.4893-0.71518 2.3824-3.0448 4.1484-4.8331 3.6639-22.545 17.247-30.828 23.641-4.23 3.2656-13.351 10.438-20.269 15.938-23.62 18.779-30.252 23.891-63.747 49.138-12.719 9.5868-27.906 21.072-33.75 25.522l-10.625 8.0917-7.3438 0.03c-4.4589 0.0188-7.3438 0.27588-7.3438 0.65538 0 0.80168-6.8845 0.80168-8.125 0zm43.125 0.0287c0-0.32806-1.8974-0.67962-4.2165-0.78125l-4.2165-0.18481 16.248-11.325c15.94-11.11 26.919-18.65 44.373-30.471 4.8125-3.2594 12.969-8.8136 18.125-12.343 5.1562-3.5289 14.438-9.8615 20.625-14.072 6.1875-4.2109 16.117-10.977 22.065-15.035 5.9484-4.0585 12.351-8.3635 14.227-9.5666 1.8768-1.2031 9.3078-6.125 16.513-10.938 11.38-7.6001 13.062-8.9298 12.801-10.118-0.3616-1.6506-17.951-33.919-32.812-60.194-17.94-31.72-25.24-44.981-24.898-45.231 0.12541-0.0915 5.1499-0.80005 11.166-1.5745 13.402-1.7254 17.743-2.306 26.562-3.5523 3.7812-0.53435 13.062-1.7778 20.625-2.7633 7.5625-0.98548 17.969-2.3852 23.125-3.1104 5.1562-0.72521 13.594-1.886 18.75-2.5796 5.1562-0.69358 10.922-1.5244 12.812-1.8462 3.9777-0.67713 45.212-6.3952 55.156-7.6488l6.7188-0.84687v7.0483 7.0483l-2.0313 0.31712c-1.1171 0.17441-4.5625 0.61715-7.6562 0.98386-6.0087 0.71224-13.03 1.6947-26.562 3.7168-4.6406 0.69343-11.531 1.6616-15.312 2.1515-6.2188 0.8057-16.021 2.1845-42.813 6.0221-4.9844 0.71397-16.375 2.2719-25.312 3.4621-23.074 3.0727-29.19 3.9472-29.454 4.211-0.12735 0.12735 2.8969 5.9742 6.7206 12.993s9.4779 17.402 12.565 23.074c3.0871 5.6719 10.691 19.875 16.897 31.562 6.206 11.688 12.04 22.468 12.965 23.957 3.1269 5.0348 4.7242 3.5822-28.131 25.582-27.409 18.353-50.254 33.762-68.125 45.951-3.9531 2.6962-11.547 7.8526-16.875 11.458-5.3281 3.6059-12.359 8.414-15.625 10.685-3.2656 2.2706-11.984 8.2047-19.375 13.187-7.3906 4.9821-13.705 9.2967-14.031 9.5879-0.33314 0.29712 0.91745 0.5295 2.8493 0.5295 2.8096 0 4.0686-0.3845 6.8438-2.0899 1.8704-1.1495 7.7601-4.7584 13.088-8.02 10.169-6.2248 26.255-16.201 31.562-19.573 1.7188-1.0922 7.2031-4.5225 12.188-7.6228 23.281-14.48 32.685-20.285 38.75-23.92 3.6094-2.1628 12.75-7.7871 20.312-12.498 14.448-9.0013 19.404-12.04 35.469-21.75 6.6389-4.0126 9.8438-6.3027 9.8438-7.0339 0-0.59631-1.2636-7.5182-2.808-15.382-1.5444-7.8637-4.0902-20.907-5.6574-28.985-1.5672-8.0781-3.7999-19.469-4.9616-25.312-3.1353-15.772-5.323-27.497-5.323-28.528 0-0.69915 1.574-1.0829 6.7188-1.6381 3.6953-0.39879 9.8125-1.1684 13.594-1.7103 3.7812-0.54185 13.062-1.7911 20.625-2.776 15.058-1.9611 25.065-3.3358 48.75-6.6964 8.5937-1.2193 16.68-2.3658 17.969-2.5477l2.3438-0.3307v6.8331 6.8331l-8.5938 1.1064c-4.7265 0.60853-10.149 1.3686-12.049 1.6891-1.9004 0.32047-8.6504 1.2738-15 2.1185-6.3497 0.84471-16.326 2.232-22.17 3.0828-5.8438 0.85085-15.688 2.1762-21.875 2.9453-6.1875 0.76907-11.335 1.4577-11.438 1.5303-0.10363 0.0726 0.5069 3.8909 1.3567 8.4852 0.84982 4.5943 1.7224 9.4783 1.9391 10.853 0.2167 1.375 1.3485 7.5625 2.5151 13.75 2.7814 14.752 5.6988 30.749 7.2377 39.688 1.7449 10.134 3.125 16.25 3.6671 16.25 0.25538 0 1.7718-8.0859 3.3699-17.969 2.8652-17.719 5.1055-32.265 8.7356-56.719l0.74223-5 5.625-0.49806c3.0937-0.27393 15.328-1.5897 27.188-2.924 11.859-1.3343 23.18-2.5664 25.156-2.738l3.5938-0.31205v6.7439 6.7439l-5.4688 0.42051c-8.439 0.6489-12.299 1.0146-21.094 1.9984-4.4688 0.4999-10.938 1.2102-14.375 1.5785-3.4375 0.36825-6.4212 0.85348-6.6305 1.0783-0.3362 0.36106-4.2001 22.04-5.2528 29.471-0.3642 2.5705-4.2752 25.9-5.9722 35.625-0.38992 2.2344-1.5332 8.2488-2.5406 13.365-1.0074 5.1165-1.7392 9.3952-1.6262 9.5082 0.18305 0.18306 4.8942-9.7039 9.559-20.061 4.0537-9.0002 8.6883-18.853 16.023-34.062 3.0667-6.3594 6.8703-14.311 8.4523-17.67 2.0681-4.391 3.2433-6.1858 4.1821-6.3871 0.7181-0.15402 6.0869-0.86784 11.931-1.5863 5.8437-0.71844 11.047-1.3599 11.562-1.4254 0.7695-0.0978 0.9693 1.0155 1.1148 6.2142l0.1773 6.3334-6.4273 0.72313c-11.24 1.2646-9.8283 0.42174-13.438 8.0222-2.5652 5.4005-15.814 33.258-25.783 54.213-2.4175 5.0814-5.7613 12.365-9.4684 20.625-1.6971 3.7812-3.3426 7.3374-3.6567 7.9026-1.2404 2.2319-2.4409 5.5609-1.8804 5.2145 0.32636-0.20169 1.9336-2.2495 3.5715-4.5508 1.638-2.3012 5.5094-7.5943 8.6032-11.762 3.0937-4.1682 8.4375-11.448 11.875-16.178 3.4375-4.7299 8.2187-11.23 10.625-14.444 5.9963-8.0101 12.755-17.161 19.745-26.734l5.8799-8.0528 0.1713 10.376 0.1712 10.376-5.9636 7.9895c-3.2799 4.3942-8.6269 11.505-11.882 15.802-7.4497 9.8336-38.564 51.65-41.853 56.25-2.8199 3.9431-1.4464 2.9759 3.9742-2.7985 1.9289-2.0548 6.4711-6.8361 10.094-10.625 3.6226-3.7889 8.8243-9.2796 11.559-12.202 2.7349-2.9219 9.0632-9.5312 14.063-14.688 4.9998-5.1562 11.536-11.906 14.526-15l5.4352-5.625 0.01 8.4128 0.01 8.4128-11.463 11.587c-6.3048 6.3729-16.078 16.505-21.719 22.516-5.6405 6.0109-14.615 15.44-19.943 20.953-14.937 15.456-21.25 22.136-21.25 22.486 0 1.5295 4.9472-2.6521 20.298-17.157 10.443-9.8674 15.251-14.345 22.514-20.97 4.125-3.7624 9.6093-8.8435 12.188-11.291 2.5781-2.4479 7.9218-7.426 11.875-11.062l7.1875-6.6118 0.1896 7.3001 0.1897 7.3002-3.3147 3.0651c-1.8231 1.6858-5.971 5.4827-9.2176 8.4375-3.2467 2.9549-8.1686 7.5032-10.938 10.108-4.9745 4.6786-13.541 12.478-27.064 24.64-3.8222 3.4375-6.6746 6.3479-6.3386 6.4675 0.59199 0.21081 7.2917-5.0042 13.079-10.181 1.5598-1.3952 6.03-5.2086 9.9339-8.4742s7.4115-6.2188 7.7948-6.5625c0.864-0.77488 11.998-10.168 14.075-11.875 0.8368-0.6875 2.5258-2.1095 3.7533-3.16s3.5678-2.9828 5.2006-4.294l2.9688-2.3841-0.01 6.794-0.01 6.7941-7.2237 5.9375c-3.9731 3.2656-7.8568 6.5102-8.6305 7.2103-0.7737 0.7-2.793 2.3869-4.4873 3.7487s-6.0573 5.0078-9.6957 8.1022c-3.6383 3.0945-7.4351 6.2435-8.4375 6.9978-1.7724 1.334-1.7826 1.3725-0.3714 1.4062 0.9046 0.0219 3.7287-1.7833 7.5-4.7936 3.327-2.6556 6.1897-4.9994 6.3616-5.2084 0.1718-0.209 2.8437-2.2963 5.9375-4.6384 3.0937-2.3421 5.7656-4.4368 5.9375-4.6549 0.3894-0.49406 11.276-9.0028 12.344-9.6471 0.6043-0.36481 0.7813 0.93919 0.7813 5.7569v6.2286l-9.4343 7.4021c-5.1888 4.0712-10.04 7.8849-10.781 8.4751-1.3228 1.0537-1.2948 1.0734 1.5574 1.0938 2.7072 0.0194 3.439-0.37975 10.781-5.8806l7.8773-5.9014v6.5264 6.5264h-69.099c-45.907 0-68.97-0.20975-68.713-0.625 0.24128-0.39038-1.0352-0.625-3.4006-0.625-2.6077 0-3.7899 0.24325-3.7965 0.78125-0.006 0.52244-0.21346 0.47069-0.625-0.15625-0.54705-0.83331-0.68381-0.83331-1.2309 0-0.41154 0.62694-0.6186 0.67869-0.625 0.15625-0.005-0.42969-0.43145-0.78125-0.94707-0.78125-0.51563 0-0.9375 0.28125-0.9375 0.625 0 0.4065-8.9518 0.625-25.605 0.625-28.387 0-28.699-0.0544-20.464-3.5844 2.4789-1.0626 7.4602-3.2524 11.07-4.8664 20.603-9.2126 59.569-26.036 92.5-39.937 6.3594-2.6844 12.835-5.4182 14.39-6.0752 2.7957-1.1809 2.8731-1.2959 6.7946-10.084 2.1817-4.8894 4.528-10.015 5.2141-11.39 1.9093-3.8268 2.3922-5.3125 1.7265-5.3125-0.32641 0-1.0029 0.79181-1.5034 1.7596-0.6141 1.1875-2.6004 2.6382-6.1098 4.4624-2.8599 1.4865-8.6558 4.6322-12.88 6.9904-4.2239 2.3582-7.7948 4.2876-7.9353 4.2876-0.14051 0-1.8877 0.95044-3.8827 2.1121-5.6243 3.2749-19.737 10.88-35.502 19.131-4.8125 2.5188-9.4531 5.0587-10.312 5.6444-0.85937 0.58563-4.9375 2.8311-9.0625 4.9898-4.125 2.1588-8.3438 4.4199-9.375 5.0248-1.0312 0.60487-3.5625 2.0065-5.625 3.1148-2.0625 1.1082-12.266 6.6204-22.675 12.249-10.4 5.58-19.61 10.19-20.46 10.19-0.84897 0-1.5436 0.28125-1.5436 0.625 0 0.40844-10.938 0.625-31.562 0.625-19.618 0-31.562-0.22575-31.562-0.59644zm51.073-4.4919c4.0504-2.1111 8.9112-4.7519 10.802-5.8686 1.8906-1.1167 5.5319-3.0771 8.0917-4.3565s5.6536-2.957 6.875-3.728c2.3835-1.5046 15.599-8.8366 34.721-19.263 6.9489-3.789 7.9972-4.3676 18.125-10.004 3.0938-1.7217 7.1672-3.957 9.052-4.9674 1.8849-1.0104 6.3849-3.4594 10-5.4422 5.6832-3.1172 26.856-14.454 42.793-22.914l4.9704-2.6384 1.3123-7.2399c0.72177-3.9819 1.0753-7.2399 0.78564-7.2399-0.49792 0-21.362 12.439-39.851 23.759-4.6406 2.8411-9.7031 5.9259-11.25 6.8549-8.9825 5.3949-50.317 30.829-68.75 42.304-14.357 8.9374-17.707 11.006-30.113 18.6-10.469 6.4072-9.9554 5.9827-7.2341 5.9827 1.6082 0 4.5343-1.1614 9.6703-3.8383zm62.636 2.941c1.9132-0.49351 6.291-1.6072 9.7285-2.4749 3.4375-0.86769 11.594-2.9781 18.125-4.6898 6.5312-1.7118 15.391-3.9974 19.688-5.0792 4.2969-1.0818 12.304-3.0979 17.793-4.4804 6.0383-1.5207 10.301-2.9188 10.793-3.5397 0.44696-0.56444 1.8023-2.4325 3.0118-4.1512 1.2095-1.7188 5.1386-7.0625 8.7314-11.875 3.5927-4.8125 6.5353-8.9502 6.539-9.195 0.004-0.24475-2.1729 0.49193-4.837 1.6371-2.6641 1.1451-6.9531 2.9483-9.5312 4.0069-2.5781 1.0587-10.312 4.2977-17.188 7.1978-6.875 2.9001-16.016 6.7478-20.312 8.5504-4.2969 1.8026-14.562 6.2192-22.812 9.8146-23.207 10.114-27.217 11.852-31.25 13.548l-3.75 1.5766 5.8965 0.0256c3.2431 0.0144 7.4618-0.37813 9.375-0.87163zm74.96-4.1479c2.5334-2.7573 4.4686-5.1509 4.3004-5.319-0.16813-0.16813-2.944 0.39025-6.1686 1.2408-3.2246 0.85056-12.05 3.121-19.613 5.0453-7.5625 1.9243-14.031 3.6069-14.375 3.7391-0.34375 0.13219 6.5469 0.25531 15.312 0.27369l15.938 0.0331 4.6061-5.0133zm-120.53 5.66c-0.80119-0.51775-0.77847-0.60725 0.15625-0.61544 0.60156-0.006 1.0938 0.27169 1.0938 0.61544 0 0.76225-0.0705 0.76225-1.25 0zm-394.38-30.96l0.004-15.594 6.2998-10.625c3.4649-5.8438 7.1579-12.031 8.2066-13.75 1.0487-1.7188 2.391-3.9688 2.9829-5 0.59189-1.0312 4.5239-7.6406 8.7379-14.688 12.925-21.614 15.84-26.514 16.544-27.812 0.37281-0.6875 5.2867-8.9844 10.92-18.438 18.004-30.213 24.949-41.943 36.817-62.188 1.2092-2.0625 3.2652-5.5079 4.5689-7.6564l2.3704-3.9064 0.67232-13.594c0.36978-7.4765 1.0795-19.922 1.5771-27.656 1.4428-22.426 2.6741-42.203 3.7159-59.688 0.53253-8.9375 1.5155-25.25 2.1844-36.25 1.193-19.619 2.1375-36.337 2.8249-50 0.84743-16.843 2.2156-36.396 2.6567-37.967 0.37959-1.3525 4.3329-4.3809 18.604-14.252 25.196-17.427 39.759-27.554 48.04-33.406 3.8916-2.75 10.077-7.1094 13.746-9.6875 3.6685-2.5781 16.579-11.797 28.691-20.486 12.111-8.6892 23.99-17.188 26.396-18.887 2.4062-1.6986 6.5355-4.6385 9.1761-6.5332l4.8011-3.4448 6.9772 1.2564c3.8375 0.691 14.052 2.0865 22.699 3.101 8.6469 1.0146 22.331 2.6791 30.409 3.6989 17.156 2.166 31.056 3.8901 48.438 6.0081 6.875 0.83776 16.578 2.0875 21.562 2.7772 4.9844 0.68972 14.969 1.9681 22.188 2.8409 7.2188 0.87278 16.781 2.133 21.25 2.8005 4.4688 0.6675 11.922 1.6605 16.562 2.2066 4.6406 0.54616 13.922 1.7992 20.625 2.7846 6.7031 0.98534 13.734 1.9702 15.625 2.1886 1.8906 0.2184 10.047 1.3417 18.125 2.4963 8.0781 1.1546 22.844 3.2434 32.812 4.6418 24.805 3.4796 38.9 5.4845 45.938 6.534 3.2656 0.48703 7.625 1.0763 9.6875 1.3096 7.2494 0.81976 6.5625-0.37199 6.5625 11.386v10.294l-1.7188-0.34342c-0.9453-0.18888-5.2343-0.78817-9.5312-1.3318-8.4942-1.0746-28.751-3.8202-57.188-7.7512-9.9688-1.3781-19.531-2.6703-21.25-2.8716-1.7188-0.20131-9.0312-1.1898-16.25-2.1967s-15.797-2.1333-19.062-2.5032c-3.2656-0.3699-12.969-1.6247-21.562-2.7884-8.5938-1.1637-18.719-2.4284-22.5-2.8103-3.7812-0.38195-10.672-1.2312-15.312-1.8872-4.6406-0.656-12.234-1.6254-16.875-2.1541-7.4997-0.85451-27.197-3.2417-59.688-7.234-5.8438-0.71804-20.328-2.4142-32.188-3.7692-11.859-1.355-24.516-2.8666-28.125-3.3591-3.6094-0.49247-8.1599-1.0539-10.112-1.2475l-3.5499-0.35215-9.2626 6.6613c-5.0944 3.6637-10.528 7.5556-12.075 8.6487-5.4098 3.8228-30.349 21.349-34.375 24.157-2.2344 1.5586-6.5938 4.6087-9.6875 6.7782-14.116 9.8988-28.528 19.846-40.312 27.825-7.0469 4.7712-12.953 8.8361-13.125 9.033-0.17188 0.19693-3.6172 2.5715-7.6562 5.2769-5.5042 3.6867-7.3436 5.2493-7.3432 6.2383 0.00031 0.72573-0.83806 13.273-1.863 27.882-1.025 14.609-2.431 35-3.1245 45.312-0.69348 10.312-1.5264 22.125-1.851 26.25-0.63607 8.0836-2.1574 28.382-3.1853 42.5-0.35038 4.8125-1.0496 13.953-1.5539 20.312-1.7316 21.837-2.147 27.84-2.8112 40.625-0.75696 14.57-0.98688 16.25-2.2238 16.25-0.48831 0-0.88784 0.43228-0.88784 0.96063 0 0.52834-4.1114 7.7705-9.1365 16.094-5.0251 8.3232-14.968 24.836-22.096 36.696-7.1276 11.859-15.672 26-18.989 31.424-3.3161 5.4239-6.0293 10.01-6.0293 10.191 0 0.18106-1.3657 2.4933-3.0349 5.1383-2.9982 4.7511-10.216 16.539-13.468 21.997-0.92177 1.5469-2.825 4.6406-4.2294 6.875-2.8337 4.5085-4.6584 7.5331-14.705 24.375-3.7935 6.3594-8.3756 13.953-10.182 16.875-1.8069 2.9219-4.9794 8.125-7.05 11.562-2.0707 3.4375-4.0047 6.5172-4.2978 6.8438-0.29553 0.32925-0.5313-6.3527-0.52926-15zm-0.004-93v-19.247l7.8982-15.423c4.344-8.4828 8.1096-15.704 8.368-16.048 0.25845-0.34375 3.4479-6.5312 7.0876-13.75 6.0337-11.967 9.7389-19.122 19.501-37.659 3.3007-6.2678 3.4029-6.6198 4.6307-15.938 0.69053-5.2405 2.0862-14.591 3.1016-20.778 1.0153-6.1875 2.9729-18.422 4.3502-27.188 6.5452-41.657 7.7844-49.473 10.107-63.75 1.3702-8.4219 2.6065-16.156 2.7474-17.188 0.14092-1.0312 1.3938-9.0469 2.7842-17.812 5.2313-32.98 6.8784-43.527 7.2714-46.562 0.22257-1.7188 1.2032-8.1875 2.1792-14.375 0.97598-6.1875 2.5214-16.594 3.4342-23.125 0.91286-6.5312 1.8877-11.96 2.1662-12.064 0.27857-0.1039 4.1673-2.2836 8.6416-4.8438s8.4379-4.6549 8.8078-4.6549c0.36999 0 7.3526-3.4763 15.517-7.7252 8.1643-4.2488 21.032-10.894 28.594-14.768 14.507-7.4304 26.131-13.44 37.5-19.389 3.7812-1.9786 11.375-5.9139 16.875-8.7452 18.17-9.3534 30.541-15.749 36.875-19.064 3.4375-1.7989 12.156-6.3038 19.375-10.011 7.2188-3.7071 13.406-6.9426 13.75-7.19 0.34375-0.24737 2.875-1.5988 5.625-3.0033 4.5245-2.3107 5.2377-2.4995 7.5-1.9853 1.375 0.31252 8.4062 1.295 15.625 2.1833 12.594 1.5497 21.07 2.6707 56.875 7.5223 8.9375 1.211 19.484 2.624 23.438 3.1399 7.2085 0.94079 37.706 5.1473 50 6.8966 17.724 2.5219 29.693 4.254 42.812 6.1956 7.9062 1.1701 17.609 2.571 21.562 3.113 3.9531 0.54206 11.688 1.6693 17.188 2.505 5.5 0.83571 15.203 2.2421 21.562 3.1254 6.3594 0.88324 14.234 2.0246 17.5 2.5363 3.2656 0.51172 10.859 1.6274 16.875 2.4793 6.0156 0.85188 11.613 1.6839 12.439 1.8488 0.826 0.16498 4.9041 0.74117 9.0625 1.2804 4.1583 0.53924 8.1934 1.115 8.9668 1.2794 1.3933 0.29619 1.4063 0.39954 1.4063 11.225 0 6.0091-0.1038 10.926-0.2306 10.926-0.1269 0-2.5878-0.40896-5.4688-0.90879-2.8809-0.49984-10.722-1.6359-17.426-2.5246-6.7031-0.88873-16.688-2.3-22.188-3.136-5.5-0.8361-14.5-2.1099-20-2.8307s-12.672-1.7167-15.938-2.213c-3.2656-0.49638-10.297-1.4676-15.625-2.1582-5.3281-0.69063-14.328-1.9461-20-2.79-13.37-1.9891-44.969-6.3462-52.188-7.1958-3.0938-0.36416-11.531-1.4796-18.75-2.4786-13.035-1.804-35.915-4.854-49.688-6.6235-3.9531-0.50789-10.141-1.3441-13.75-1.8582-5.9734-0.85089-32.895-4.2925-54.548-6.9733l-8.6104-1.066-7.0146 3.5662c-8.6316 4.3883-46.31 23.805-65.14 33.568-11.459 5.9415-31.018 15.942-59.688 30.518-13.578 6.9035-30.027 15.306-36.552 18.672l-11.864 6.1201-0.49023 2.8125c-0.46553 2.6708-1.2127 7.2798-7.6493 47.188-2.6666 16.534-10.535 63.395-16.266 96.875-1.5887 9.2812-3.4341 20.25-4.1009 24.375-0.66674 4.125-1.6276 9.6094-2.1352 12.188-0.50766 2.5781-1.4966 8.3438-2.1976 12.812-0.70102 4.4688-1.6886 10.234-2.1945 12.812-1.1854 6.0401-4.4961 26.167-5.0375 30.625-0.22963 1.8906-0.91467 4.2812-1.5223 5.3125-0.60765 1.0312-5.8066 10.734-11.553 21.562-5.7467 10.828-11.72 22.078-13.273 25-6.0502 11.38-8.3145 15.707-13.9 26.562-3.1835 6.1875-5.9968 11.531-6.2517 11.875-0.25489 0.34375-4.1983 7.9375-8.7631 16.875-4.571 8.9-8.6881 16.77-9.1554 17.45-0.72438 1.05-0.84956-1.6-0.84956-18.01zm0-127.61v-26.159l3.4904-13.476c1.9197-7.4118 4.3267-16.71 5.3488-20.663 3.8455-14.872 6.1501-23.683 8.256-31.562 1.1943-4.4688 3.4367-12.906 4.9832-18.75 7.3884-27.919 9.208-34.809 10.648-40.312 0.85411-3.2656 3.1456-11.984 5.0921-19.375 3.241-12.306 16.666-65.817 22.736-90.625 3.4816-14.229 7.4019-31.119 7.837-33.764l0.36211-2.2013 46.092-15.436c25.351-8.4896 70.702-23.698 100.78-33.797 98.319-33.011 92.656-31.174 94.044-30.501 0.69774 0.33851 5.3467 1.2265 10.331 1.9734 22.346 3.3482 33.494 5.0903 51.875 8.1064 10.828 1.7768 23.766 3.8902 28.75 4.6964 8.1107 1.312 18.707 3.1025 63.125 10.666 7.0469 1.2 20.125 3.4225 29.062 4.9389 8.9375 1.5164 18.781 3.1885 21.875 3.7157 3.0938 0.52721 13.5 2.2282 23.125 3.7801 9.625 1.5518 22.422 3.656 28.438 4.6759 6.0156 1.0199 13.188 2.1557 15.938 2.5241 2.75 0.36836 6.4062 0.9326 8.125 1.2539 1.7187 0.32128 4.6016 0.76847 6.4062 0.99377l3.2813 0.40963v11.482c0 6.7938-0.2412 11.482-0.5907 11.482-0.6926 0-14.006-1.996-24.722-3.7063-4.125-0.6584-11.297-1.7866-15.938-2.5072-4.6406-0.72054-14.484-2.3022-21.875-3.5148-7.3906-1.2126-19.484-3.188-26.875-4.3899-7.3906-1.2019-20.188-3.2924-28.438-4.6457s-18.375-3.0085-22.5-3.6782c-4.125-0.66974-11.719-1.9303-16.875-2.8013-5.1562-0.87099-14.859-2.4607-21.562-3.5327-6.7031-1.072-17.109-2.7601-23.125-3.7514-6.0156-0.9913-16.703-2.6634-23.75-3.7158-7.0469-1.0524-17.031-2.5956-22.188-3.4294-9.2595-1.4973-31.114-4.8594-39.13-6.0199l-4.1297-0.59786-27.12 9.0968c-14.916 5.0032-39.073 13.05-53.683 17.881-14.609 4.8311-28.391 9.4361-30.625 10.233-2.2344 0.7971-26.703 8.9574-54.375 18.134-27.672 9.1767-51.201 17.056-52.288 17.51-1.7336 0.72416-2.0678 1.2719-2.7298 4.4741-0.41488 2.0069-1.598 6.8833-2.6291 10.836-1.0312 3.9531-2.2188 8.7344-2.6393 10.625-0.42046 1.8906-1.7718 7.2344-3.0029 11.875-1.2312 4.6406-3.0032 11.391-3.9378 15-8.32 32.13-10.14 39.052-11.829 45-0.82992 2.9219-2.4849 8.9688-3.6776 13.438-3.291 12.38-8.944 33.11-10.637 39.05-0.8323 2.9219-2.9486 10.516-4.703 16.875-1.7543 6.3594-4.0262 14.516-5.0486 18.125-1.0224 3.6094-2.7249 9.7969-3.7833 13.75s-2.8504 10.562-3.982 14.688c-1.1317 4.125-3.9307 14.531-6.2202 23.125-9.1913 34.501-10.609 39.241-11.838 39.562-1.2615 0.3299-1.4726 0.76774-8.3478 17.313-2.5711 6.1875-4.7907 11.367-4.9325 11.51-0.14096 0.15-0.25696-11.5-0.25696-25.89zm0-165.71v-33.119l3.4827-9.9541c1.9156-5.48 4.2914-12.35 5.2797-15.27 0.98829-2.9219 3.9506-11.5 6.583-19.062 2.6324-7.5625 5.8563-16.844 7.1643-20.625 1.308-3.7812 4.6226-13.344 7.3658-21.25 17.099-49.283 21.544-62.115 24.032-69.375 3.148-9.1863 2.7913-8.8263 11.717-11.824 4.9736-1.6702 11.721-3.0956 34.375-7.2613 23.49-4.3194 43.642-8.072 51.875-9.6596 4.2969-0.82861 11.328-2.0964 15.625-2.8174 4.2969-0.72099 11.328-1.9957 15.625-2.8328 4.2969-0.83705 11.188-2.069 15.312-2.7377 4.125-0.66867 9.6094-1.6505 12.188-2.1818 2.5781-0.53133 8.0625-1.5163 12.188-2.1889 4.125-0.67254 12.281-2.0882 18.125-3.1459 21.689-3.9256 31.458-5.6398 39.375-6.9092 4.4688-0.71655 12.484-2.1154 17.812-3.1085 5.3281-0.99311 10.953-1.9847 12.5-2.2034 1.5469-0.21878 7.0735-1.2234 12.281-2.2325 5.2078-1.0091 10.059-1.8347 10.781-1.8347 0.72184 0 1.3124-0.30597 1.3124-0.67994 0-0.42958 0.86297-0.55454 2.3438-0.33936 4.3156 0.6271 15.381 2.3357 24.844 3.836 16.258 2.5777 40.744 6.4656 55 8.7331 7.5625 1.2028 16.703 2.6296 20.312 3.1708 3.6094 0.54113 7.8281 1.2391 9.375 1.551 1.5469 0.31195 7.4531 1.2793 13.125 2.1496 5.6719 0.87033 12.703 2.0012 15.625 2.513 2.9219 0.51181 9.1094 1.5145 13.75 2.2282 4.6406 0.71368 12.656 2.0149 17.812 2.8915 5.1562 0.87668 10.219 1.7268 11.25 1.8892 24.444 3.8496 45.547 7.1371 47.5 7.3998 1.375 0.18487 4.3281 0.72822 6.5625 1.2074 2.2344 0.47922 9.3359 1.6475 15.781 2.5961l11.719 1.7248v12.064c0 6.6354-0.2109 12.054-0.4688 12.042-0.2578-0.0122-3-0.42647-6.0937-0.92062-3.0938-0.49414-7.7344-1.1977-10.312-1.5635-2.5781-0.36579-6.7969-1.0696-9.375-1.564-2.5781-0.49443-10.031-1.6218-16.562-2.5054-6.5313-0.88352-14.125-2.0158-16.875-2.5162s-7.9531-1.3312-11.562-1.8463c-3.6094-0.51505-9.0938-1.3438-12.188-1.8417-6.8373-1.1004-23.342-3.683-34.375-5.379-4.4688-0.68694-11.219-1.792-15-2.4558-3.7812-0.66373-11.094-1.7921-16.25-2.5076-5.1562-0.71544-11.625-1.7035-14.375-2.1957-2.75-0.49221-13.297-2.1842-23.438-3.7601-10.141-1.5758-24.344-3.8075-31.562-4.9593-7.2188-1.1518-14.531-2.2724-16.25-2.4902-1.7188-0.21781-8.3281-1.2538-14.688-2.3022l-11.562-1.9061-18.438 3.2517c-10.141 1.7884-24.766 4.3534-32.5 5.6999-7.7344 1.3465-15.469 2.7035-17.188 3.0156-4.3864 0.79635-18.742 3.3052-35.625 6.2262-7.9062 1.3678-22.953 4.0653-33.438 5.9943-10.484 1.929-23.141 4.1909-28.125 5.0264-4.9844 0.83552-11.312 1.948-14.062 2.4723-2.75 0.52423-7.2993 1.3516-10.11 1.8386-2.8102 0.48702-9.5602 1.7387-15 2.7815s-15.234 2.9077-21.765 4.1442c-14.313 2.7098-33.861 6.4668-35.721 6.8654-0.90565 0.19409-1.6572 1.1592-2.2956 2.9479-4.9796 13.951-8.4451 23.464-9.1656 25.159-0.29219 0.6875-1.8511 5.0469-3.4642 9.6875s-4.1961 11.953-5.74 16.25c-1.5439 4.2969-3.5911 10.062-4.5493 12.812-0.95825 2.75-3.0639 8.6562-4.6791 13.125-1.6153 4.4688-4.2838 11.922-5.93 16.562-8.0642 22.733-10.195 28.707-11.37 31.875-1.6996 4.5834-6.4666 17.845-8.6494 24.062-4.9241 14.025-8.464 23.944-14.388 40.312-1.4307 3.9531-3.4157 9.5517-4.4112 12.441-0.99551 2.8896-1.9536 5.3974-2.1292 5.5729-0.12633 0.16-0.26996-14.6-0.26996-32.81zm0.0493-106.89c-0.0337-23.596 0.16667-35.046 0.63449-36.25 0.37611-0.9677 2.3751-6.5407 4.4422-12.384 2.0671-5.8438 5.3007-14.984 7.1858-20.312 4.004-11.317 5.5826-15.839 13.308-38.125 3.1578-9.1094 7.9923-23.031 10.743-30.937 2.751-7.9062 5.6745-16.484 6.4967-19.062 0.82215-2.5781 1.818-5.3013 2.2131-6.0516 0.39504-0.75025 0.54909-1.8049 0.34232-2.3438-0.255-0.679-0.013-0.99 0.765-0.99 0.62679 0 4.6258-0.27194 8.8866-0.6043 4.2609-0.33237 13.372-0.89969 20.247-1.2607 11.771-0.61811 35.687-2.1361 44.688-2.8364 2.2344-0.17384 13.484-0.87304 25-1.5538 27.051-1.5991 37.227-2.2659 56.875-3.7264 7.4921-0.55695 15.624-1.0821 34.688-2.24 3.0938-0.18792 11.953-0.75527 19.688-1.2608 18.13-1.185 30.231-1.9502 43.438-2.7469 5.8438-0.35253 12.734-0.77573 15.312-0.94045 2.5781-0.16472 9.4688-0.59442 15.312-0.95489 27.342-1.6865 29.289-1.8555 29.736-2.5796 0.35197-0.56949 2.1062-0.57372 7.5848-0.01829 3.91 0.398 8.38 0.723 9.93 0.723 1.5439 0 3.0804 0.2733 3.4145 0.60734 0.61795 0.61796 3.7027 1.1487 16.518 2.8422 9.098 1.2023 32.487 4.7052 50.312 7.5353 7.5625 1.2007 15.578 2.4381 17.812 2.7499 6.577 0.91779 46.267 7.1285 72.188 11.296 6.1875 0.99483 15.188 2.3854 20 3.0902 4.8125 0.70479 12.688 1.9509 17.5 2.7692 4.8125 0.81828 11.703 1.9519 15.312 2.5191 3.6094 0.56721 7.1953 1.1625 7.9687 1.3229 1.4021 0.29072 1.4063 0.32918 1.4063 12.86v12.568l-2.6563-0.4434c-6.1727-1.0304-10.535-1.6984-16.7-2.5574-3.5989-0.50149-6.9739-1.0416-7.5-1.2004-0.5261-0.15873-4.7534-0.85235-9.394-1.5414-4.6406-0.68904-11.357-1.6951-14.926-2.2357-3.5686-0.54061-8.4905-1.2485-10.938-1.5732-2.447-0.32462-8.9492-1.314-14.449-2.1987-5.5-0.88464-12.475-1.8652-15.5-2.1789-3.025-0.31378-5.7344-0.71542-6.021-0.89254-0.28658-0.17712-2.5928-0.62742-5.125-1.0007-2.5322-0.37326-10.229-1.5071-17.104-2.5196s-13.203-1.9638-14.062-2.1138c-0.85938-0.1501-8.4531-1.2666-16.875-2.4812s-18.828-2.7614-23.125-3.4375c-4.2969-0.67603-9.2188-1.3992-10.938-1.6069-1.7188-0.20777-9.875-1.3614-18.125-2.5637-30.314-4.4176-22.015-4.4271-91.875 0.10464-13.062 0.84734-28.25 1.8079-33.75 2.1345-15.353 0.91184-38.39 2.4562-41.875 2.8073-1.7188 0.17315-5.7969 0.46829-9.0625 0.65586s-7.0625 0.46774-8.4375 0.62259-5.0312 0.4349-8.125 0.62232c-3.0938 0.18743-11.953 0.77176-19.688 1.2985-7.7344 0.52677-16.312 1.0918-19.062 1.2556-2.75 0.16382-8.2344 0.56136-12.188 0.88342-3.9531 0.32205-12.391 0.89387-18.75 1.2707-6.3594 0.37683-19.297 1.2163-28.75 1.8656-9.4531 0.64924-22.453 1.5155-28.889 1.9251l-11.702 0.74468-0.90966 2.566c-0.50032 1.4113-2.0782 5.941-3.5063 10.066s-3.3822 9.6094-4.3423 12.187c-0.96012 2.5781-2.2397 6.2344-2.8436 8.125-0.60386 1.8906-1.3032 3.7188-1.554 4.0625-0.25086 0.34375-0.65721 1.4688-0.903 2.5-0.24578 1.0312-0.82934 2.7188-1.2968 3.75-0.46747 1.0312-1.7421 4.4062-2.8326 7.5-1.0904 3.0938-2.8187 7.875-3.8406 10.625s-3.2153 8.7969-4.8742 13.438c-2.9293 8.1942-5.8179 16.038-8.9768 24.375-5.0069 13.215-6.6546 17.744-6.6546 18.292 0 0.33829-1.2386 3.6032-2.7524 7.2555-1.5138 3.6522-4.4852 11.422-6.6031 17.265-2.1179 5.8438-4.2405 11.609-4.7169 12.812-1.7416 4.3978-6.412 16.614-7.0489 18.438-0.47231 1.3523-0.66865-7.7409-0.70424-32.616zm0.14614-105.89c0.0791-25.166 0.33252-37.528 0.78162-38.121 0.36553-0.48228 1.4432-2.9862 2.3948-5.5644 0.9516-2.5781 1.9548-5.25 2.2293-5.9375 0.27454-0.6875 1.2667-3.3594 2.2048-5.9375 0.93808-2.5781 2.2056-5.8125 2.8167-7.1875 0.61112-1.375 1.7428-4.4688 2.5149-6.875 0.77208-2.4062 1.7179-4.7698 2.1018-5.2523 0.38394-0.48252 0.60959-0.9044 0.50147-0.9375-0.10813-0.03311-0.0379-0.48207 0.15598-0.99769 0.19392-0.51562 1.0188-2.9062 1.833-5.3125 0.81425-2.4062 4.3722-12.039 7.9066-21.406l6.427-17.031h216.75 216.75l9.5586 1.5725c5.2572 0.86486 12.512 2.1122 16.121 2.7718 3.6094 0.65961 11.203 2.0423 16.875 3.0726 5.6719 1.0303 13.406 2.4563 17.188 3.1688 6.433 1.2122 11.904 2.1868 33.75 6.0121 9.0598 1.5864 15.164 2.6877 31.406 5.6662l9.5313 1.7479v13.061c0 10.884-0.1446 13.005-0.8675 12.728-0.4771-0.18308-4.4849-0.92378-8.9062-1.646-10.577-1.7276-19.64-3.2502-35.226-5.9177-7.04-1.206-13.79-2.354-14.99-2.552-1.2-0.197-3.59-0.621-5.31-0.942s-6.08-1.026-9.69-1.568c-3.61-0.541-9.66-1.541-13.44-2.222-16.95-3.053-20.99-3.759-26.56-4.641-3.2656-0.5172-9.0312-1.4987-12.812-2.1811-3.7812-0.6824-9.125-1.5278-11.875-1.8787-6.154-0.78524-7.6023-1.0226-13.125-2.1509-4.3988-0.89867-10.187-1.8975-16.562-2.858-1.8906-0.28484-5.9688-0.97037-9.0625-1.5234-16.51-2.953-19.45-3.24-38.44-3.768-7.04-0.196-24.2-0.909-38.12-1.584-36.59-1.775-36.57-1.774-80-3.428-23.27-0.886-39.28-1.6084-41.25-1.8602-1.2-0.1541-5.84-0.4383-10.31-0.6316-4.47-0.1934-10.1-0.48-12.5-0.637-2.41-0.157-8.32-0.4371-13.13-0.6225s-17.33-0.7499-27.81-1.2546-25.53-1.1996-33.44-1.5444c-7.9-0.3447-16.48-0.7648-19.06-0.9335-5.27-0.3451-17.214-0.7846-36.492-1.3431l-13.054-0.3782 0.393 1.5627c0.23957 0.9545-0.1182 2.8669-0.91924 4.9138-0.7213 1.8431-1.5258 3.9136-1.7877 4.6011-0.26192 0.6875-1.0563 2.6562-1.7653 4.375-0.70899 1.7188-2.0314 5.2344-2.9387 7.8125s-1.9505 5.3906-2.3182 6.25c-0.36771 0.85938-1.4287 3.6719-2.3577 6.25-3.2186 8.932-11.328 30.321-12.203 32.188-0.85514 1.8234-3.6173 9.1977-7.2573 19.375-0.98355 2.75-2.2069 5.8438-2.7185 6.875-0.51164 1.0312-2.9302 7.2187-5.3745 13.75-5.4981 14.691-7.2829 19.301-8.7114 22.5-0.61396 1.375-1.9807 4.9598-3.0373 7.9661-1.731 4.9255-3.0294 8.2733-5.3943 13.909-0.43275 1.0312-0.94397 2.2969-1.136 2.8125-0.1934 0.51-0.29789-15.83-0.23352-36.32zm-0.19548-100.14v-20.417h8.379c8.3747 0 8.3788 0.000727 8.0347 1.4062-0.18934 0.77344-0.58112 1.7118-0.87062 2.0852-0.2895 0.37343-0.94162 1.8559-1.4491 3.2944-0.50753 1.4385-1.3343 3.5236-1.8374 4.6335-0.503 1.11-1.953 4.55-3.2218 7.643-1.2687 3.094-2.6965 6.514-3.1729 7.599s-1.8781 4.601-3.1148 7.813c-1.2368 3.211-2.3609 5.956-2.4981 6.099-0.13717 0.143-0.2494-8.927-0.2494-20.156z"/>
</svg>
