<?xml version="1.0" encoding="UTF-8" standalone="no"?>
<!-- Created with Inkscape (http://www.inkscape.org/) -->
<svg id="svg3676" xmlns:rdf="http://www.w3.org/1999/02/22-rdf-syntax-ns#" xmlns="http://www.w3.org/2000/svg" height="1202" viewBox="0 0 959.24854 1202.0406" width="959.25" version="1.1" xmlns:cc="http://creativecommons.org/ns#" xmlns:dc="http://purl.org/dc/elements/1.1/">
 <metadata id="metadata3682">
  <rdf:RDF>
   <cc:Work rdf:about="">
    <dc:format>image/svg+xml</dc:format>
    <dc:type rdf:resource="http://purl.org/dc/dcmitype/StillImage"/>
    <dc:title/>
   </cc:Work>
  </rdf:RDF>
 </metadata>
 <path id="path3686" d="m0.11093 1196.6v-5.3644l28.75-7.1568c15.812-3.9363 44.725-11.195 64.25-16.13 35.14-8.882 38.983-9.6931 39.018-8.2346 0.0306 1.2818 2.7434 18.31 4.4019 27.631 0.8691 4.8845 1.5802 10.172 1.5802 11.75v2.869h-11.879-11.879l-1.0537-7.0996c-0.57955-3.9048-1.3446-7.3905-1.7001-7.746-0.35551-0.3555-14.448 2.8485-31.317 7.1199l-30.671 7.7663-24.75-0.02-24.75-0.02v-5.3643zm158.05 1.6143c-1.6841-6.1398-8.9726-36.742-10.605-44.528-0.83292-3.9723-2.4489-11.212-3.5911-16.089l-2.0767-8.8666-4.6393 0.5472c-2.5516 0.301-13.864 2.1267-25.139 4.0573-18.71 3.2036-56.167 9.5864-94.428 16.091-8.1976 1.5-15.51 2.6-16.237 2.6-1.0102 0-1.3219-2.4251-1.3219-10.284v-10.284l25.75-4.2209c14.162-2.3215 33.625-5.5846 43.25-7.2513 9.625-1.6668 31.9-5.4755 49.5-8.464 17.6-2.9884 34.25-5.8604 36.999-6.3822 2.7496-0.5218 5.1297-0.8182 5.2892-0.6587s2.4972 10.135 5.195 22.167c2.6977 12.033 7.782 33.915 11.298 48.628l6.3935 26.75h-12.298-12.298l-1.0286-3.75zm29.54-58.5c-11.457-34.238-21.222-62.672-21.7-63.189-0.7986-0.8628-17.543 0.8201-123.89 12.452-14.575 1.5941-29.988 3.2054-34.25 3.5807l-7.75 0.6823v-9.5927-9.5926l3.25-0.5265c1.7875-0.2896 18.325-2.1113 36.75-4.0483 31.789-3.342 82.315-8.9511 121.25-13.46 9.7608-1.1305 18.783-2.0555 20.049-2.0555 2.0302 0 2.6723 1.1503 5.4427 9.75 1.7275 5.3625 5.9 17.625 9.2722 27.25s9.2276 26.725 13.012 38c3.7842 11.275 10.939 32.312 15.9 46.75l9.0198 26.25h-12.76-12.76l-20.831-62.25zm74.829 60c-0.39245-1.2375-2.3924-5.85-4.4442-10.25-2.0519-4.4-5.8676-12.95-8.4793-19s-6.3136-14.375-8.2263-18.5c-1.9128-4.125-6.0834-13.35-9.268-20.5-3.1847-7.15-7.6918-17.05-10.016-22-11.441-24.369-23.384-51.029-26.431-59-3.5618-9.3197-11.329-25.5-12.239-25.496-10.973 0.051-169.2 9.973-180.57 11.323l-2.75 0.3267v-9.8268-9.8268h2.8548c1.5701 0 8.4326-0.4429 15.25-0.9842 61.291-4.8663 181.7-11.639 182.98-10.291 0.80254 0.8462 15.998 35.292 24.384 55.276 2.8851 6.875 7.0708 16.325 9.3014 21 8.3887 17.581 19.648 41.959 25.402 55 3.2762 7.425 6.7704 15.091 7.7648 17.036 0.99443 1.9446 4.8477 10.495 8.5629 19 3.7152 8.5054 7.7644 17.489 8.9983 19.964s2.557 5.5125 2.9403 6.75l0.6969 2.25h-13c-12.603 0-13.022-0.069-13.714-2.25zm53.296-19.5c-18.026-31.609-39.372-68.681-44.193-76.75-6.9361-11.61-13.1-22.59-30.034-53.5-8.8891-16.225-20.354-37.15-25.477-46.5s-10.568-19.24-12.099-21.977l-2.7849-4.9773-15.815 0.2806c-8.698 0.1544-50.915 1.3812-93.815 2.7262-42.9 1.3451-81.038 2.4461-84.75 2.4467h-6.75v-9.9204-9.9204l6.25-0.5404c3.4375-0.2973 16.15-0.7903 28.25-1.0956 143.03-3.6097 181.02-4.3975 181.61-3.7663 0.38256 0.40868 5.2919 9.2931 10.91 19.743 5.6178 10.45 15.283 28 21.479 39 6.1956 11 16.901 30.125 23.789 42.5 6.8884 12.375 16.556 29.475 21.484 38 4.9281 8.525 14.686 25.4 21.685 37.5 24.08 41.632 37.417 65.006 38.086 66.751 0.61775 1.6099-0.36483 1.7487-12.376 1.7487h-13.047l-12.404-21.75zm89.011 20.5c-0.26727-0.6875-7.599-11.375-16.293-23.75-8.6938-12.375-19.861-28.35-24.816-35.5-4.9552-7.15-18.484-26.294-30.064-42.542s-24.205-34.157-28.055-39.797c-3.85-5.6408-12.336-17.772-18.858-26.959-15.427-21.729-39.701-56.804-42.19-60.963-3.8027-6.3536-29.734-43.185-31.582-44.858-1.7496-1.5834-9.0326-1.659-107.37-1.1152l-105.5 0.58341v-9.9249-9.9249h112.77 112.77l14.088 19.75c7.7484 10.862 18.503 26.275 23.899 34.25 15.238 22.521 48.363 69.674 113.45 161.5 3.1189 4.4 11.143 15.875 17.83 25.5 6.6878 9.625 16.471 23.528 21.741 30.895 5.2696 7.3674 11.122 15.805 13.006 18.75l3.4254 5.3548h-13.881c-10.179 0-14.01-0.3334-14.367-1.25zm113.27 0.6989c0-0.3031 2.5786-2.8906 5.7303-5.75 31.448-28.532 105.38-100.76 192.59-188.14 51.415-51.519 61.082-60.78 62.5-59.878 21.501 13.682 29.446 18.694 38.178 24.082 11.632 7.1783 17.1 10.733 47 30.553 11.275 7.4739 24.405 16.424 29.179 19.889 4.7732 3.4648 21.536 14.779 37.25 25.142l28.571 18.842v12.398c0 11.701-0.098 12.315-1.75 10.928-4.3209-3.6293-19.046-13.68-102.32-69.838-25.613-17.273-43.98-29.302-59.36-38.873l-14.073-8.7587-24.011 24.23c-13.206 13.326-31.656 32.107-41 41.736-22.549 23.236-97.358 97.099-135.96 134.24l-30.919 29.75h-15.803c-8.6917 0-15.803-0.248-15.803-0.5511zm78-0.4489c0-0.55 0.36457-1 0.81016-1s2.1331-1.26 3.75-2.8 14.865-12.977 29.44-25.415c49.865-42.555 113.79-98.778 167.76-147.55 11.058-9.9922 13.078-11.513 14.515-10.927 0.6713 0.2737 7.9706 6.1979 16.221 13.165 8.25 6.9669 20.85 17.451 28 23.297 11.632 9.5109 19.433 16.545 37.5 33.813 3.025 2.8911 7.3525 6.7557 9.6166 8.5878 9.4103 7.615 34.969 30.877 50.033 45.538l5.35 5.2066v12.043 12.043h-2.4054c-2.1531 0-8.5031-4.476-12.578-8.8656-0.8344-0.8989-3.7671-3.6111-6.5171-6.027-2.75-2.416-13.325-12.568-23.5-22.559-10.175-9.9917-21.696-21.065-25.603-24.607-3.9065-3.5424-10.837-9.8157-15.401-13.941-4.564-4.125-8.7928-7.9682-9.3974-8.5404-0.6045-0.5723-4.8121-4.1005-9.3502-7.8406-4.538-3.7401-8.588-7.379-9-8.0865-0.4119-0.7076-7.6442-6.9948-16.072-13.972-13.358-11.058-15.538-12.52-17-11.397-0.9226 0.7084-7.5274 6.4744-14.677 12.813-7.15 6.3389-16.6 14.666-21 18.505-9.2317 8.054-24.84 22.052-38.5 34.529-5.225 4.7723-15.125 13.583-22 19.579-6.875 5.9963-14.075 12.301-16 14.011-7.5354 6.6934-37.389 32.636-53.681 46.648l-17.149 14.75h-16.585c-10.39 0-16.585-0.3735-16.585-1zm94.5-1.514c1.65-1.3238 7.275-5.7184 12.5-9.7659 21.293-16.494 76.53-59.524 91.5-71.278 8.8-6.9097 21.551-16.924 28.336-22.253 6.785-5.3293 12.929-10.025 13.654-10.436 1.4548-0.8235 26.024 25.192 36.212 38.343 3.1886 4.116 7.8224 9.8845 10.297 12.819 7.5922 9.0011 13.035 15.536 13.815 16.584 1.4275 1.9212 12.682 16.004 13.185 16.5 0.2795 0.275 3.038 3.65 6.1299 7.5 3.092 3.85 8.8214 10.6 12.732 15s7.1165 8.3375 7.1241 8.75c0.01 0.4125-5.7236 0.7361-12.736 0.7192l-12.75-0.031-7-8.1303c-3.85-4.4716-9.25-10.908-12-14.302-2.75-3.3944-8.375-10.102-12.5-14.906-7.6591-8.9191-11.79-14.01-17.122-21.1-1.6543-2.2-6.4662-7.7875-10.693-12.417-4.2269-4.6292-9.2968-10.226-11.266-12.438l-3.5811-4.0217-6.4189 4.8818c-6.3397 4.8215-43.66 33.77-54.784 42.495-12.47 9.7804-37.036 28.819-44.204 34.257l-7.569 5.7429-17.931-0.054-17.931-0.053 3-2.4069zm111.5 2.1802c0-0.4797 44.24-29.857 52.679-34.981 1.1195-0.6798 4.9507 4.6715 18.668 26.075 2.5592 3.9932 4.653 7.7057 4.653 8.25 0 0.5998-4.8803 0.9898-12.385 0.9898-12.107 0-12.422-0.056-14.023-2.5-0.901-1.375-2.1983-2.5-2.8829-2.5-0.6847 0-2.9004 1.125-4.9239 2.5-3.6062 2.4505-4.0566 2.5-22.732 2.5-10.479 0-19.053-0.1502-19.053-0.3338zm-313.5-12.86c-2.2-2.8123-12.55-15.119-23-27.349s-21.892-25.708-25.426-29.951c-3.5344-4.2436-6.9145-8.231-7.5113-8.8609-0.59679-0.6298-5.2982-6.0952-10.448-12.145-5.1494-6.05-10.094-11.68-10.989-12.511-2.2695-2.1083-20.013-22.388-30.703-35.093-4.9075-5.8321-17.484-20.457-27.949-32.5-25.972-29.889-42.581-49.28-44.974-52.504-1.7682-2.3825-31.012-35.814-40.58-46.392-1.9901-2.2-8.697-9.625-14.904-16.5-6.2073-6.875-15.838-17.407-21.401-23.404-5.5631-5.9972-10.565-11.498-11.115-12.223-1.3678-1.8042-76.854-5.0804-171-7.4218-24.2-0.60183-45.012-1.2956-46.25-1.5418-2.1234-0.42238-2.25-0.92964-2.25-9.0122v-8.5647l14.25 0.57139c7.8375 0.31427 25.5 0.81344 39.25 1.1093 13.75 0.29584 40.75 1.1891 60 1.9849 19.25 0.79587 49.85 1.9185 68 2.4948 18.15 0.57625 36.678 1.3227 41.174 1.6587l8.1739 0.61101 5.6735 6.6187c3.1204 3.6403 10.929 12.019 17.353 18.619 6.4238 6.6 15.717 16.5 20.651 22 4.9344 5.5 9.1972 10.225 9.4729 10.5 6.9692 6.951 56.131 63.374 77.66 89.132 3.3874 4.0526 6.9882 8.2683 8.0018 9.3683 3.5588 3.8621 30.981 35.37 44.476 51.102 7.5003 8.7437 17.569 20.173 22.376 25.398 4.8064 5.225 10.37 11.532 12.363 14.015 1.9933 2.4832 13.053 15.452 24.578 28.819l20.954 24.304 3.9908-4.319c2.1949-2.3755 6.9418-7.469 10.549-11.319 15.365-16.4 30.348-32.666 38.653-41.96 4.8951-5.4781 14.091-15.603 20.435-22.5 11.216-12.193 17.158-18.922 48.465-54.879 8.25-9.4756 22.795-26.101 32.321-36.945 18.002-20.491 33.114-38.398 53.847-63.805 15.482-18.973 33.388-40.79 33.91-41.318 0.2216-0.22397 9.2941 3.826 20.161 9 23.834 11.348 154.14 76.559 155.9 78.021 0.6852 0.5687 11.285 6.1456 23.555 12.393l22.309 11.359 0.2828 11.067c0.1555 6.087-0.07 11.067-0.5 11.066-0.4305-0.0004-4.6078-2.3102-9.2828-5.1328-14.228-8.5905-22.266-12.88-54-28.821-16.775-8.4265-32.374-16.404-34.663-17.727-20.436-11.812-111.82-56.318-115.63-56.318-0.8358 0-3.7605 2.8125-6.4994 6.25-20.949 26.292-46.261 56.884-52.749 63.75-3.3779 3.575-15.717 17.75-27.42 31.5s-26.061 30.614-31.906 37.476c-5.8454 6.8618-12.925 14.962-15.732 18-2.8071 3.0381-8.8821 9.8354-13.5 15.105-18.454 21.059-29.359 33.444-29.864 33.919-0.29245 0.275-5.4791 5.9-11.526 12.5-6.0468 6.6-13.966 15.15-17.598 19-3.6322 3.85-9.2348 9.925-12.45 13.5-3.2155 3.575-8.1503 8.975-10.966 12-2.8159 3.025-8.4659 9.164-12.556 13.642-4.0896 4.4783-7.8856 8.1727-8.4356 8.2099-0.55 0.037-2.8-2.2333-5-5.0457zm5.5-110.99c-14.575-13.791-36.625-34.338-49-45.66-19.565-17.9-34.293-31.565-61-56.599-11.125-10.428-26.888-24.686-42.5-38.444-8.25-7.2699-19.696-17.358-25.436-22.418-9.2331-8.1396-25.965-22.528-36.281-31.2-1.9628-1.65-9.7642-8.4-17.336-15-7.5722-6.6-17.408-14.881-21.857-18.403-4.4492-3.5218-11.307-9.2591-15.239-12.75l-7.1492-6.3465-28.351-1.9874c-15.593-1.093-50.401-3.1163-77.351-4.4961-79.25-4.0575-105.8-5.5558-109.25-6.1656l-3.25-0.57408v-7.3887-7.3887l13.75 0.005c7.5625 0.003 20.95 0.44415 29.75 0.98133 8.8 0.53717 29.95 1.6733 47 2.5248 17.05 0.85146 36.625 1.9926 43.5 2.5359 6.875 0.54328 21.275 1.4123 32 1.9311 10.725 0.51883 29.206 1.4783 41.068 2.1322l21.568 1.1888 16.932 14.444c9.3126 7.9441 21.025 17.759 26.028 21.81 5.0029 4.0515 17.645 14.697 28.093 23.657 10.448 8.9597 22.758 19.44 27.355 23.29s11.093 9.475 14.435 12.5c3.3421 3.025 14.164 12.526 24.049 21.112 9.8847 8.5868 26.165 23.212 36.178 32.5 44.684 41.449 65.994 61.132 82.24 75.962 32.243 29.434 34.46 31.306 35.791 30.216 0.68001-0.557 8.33-10.482 17-22.055 17.227-22.996 24.247-32.304 49.692-65.89 9.3106-12.29 19.027-25.27 21.591-28.845 2.5646-3.575 10.653-14.825 17.973-25 14.374-19.978 36.936-52.317 46.047-66 4.2945-6.4498 22.187-31.123 24.586-33.904 0.1917-0.22208 6.9917 2.1212 15.111 5.2073 8.1196 3.0861 29.163 10.839 46.763 17.23 50.676 18.4 80.984 29.608 109.5 40.493 14.575 5.5636 37.3 14.142 50.5 19.062 13.2 4.9207 27.712 10.353 32.25 12.072l8.25 3.1256v10.44c0 5.7421-0.3378 10.29-0.7508 10.107-0.4129-0.18333-6.8254-2.7292-14.25-5.6574-7.4245-2.9282-14.849-5.9303-16.499-6.6711-1.65-0.74087-6.15-2.5118-10-3.9355-3.85-1.4236-7.9-3.0113-9-3.5281-5.6332-2.6466-19.125-7.993-38-15.058-11.55-4.3232-27.075-10.18-34.5-13.015-7.425-2.8351-24.525-9.1891-38-14.12-13.475-4.9308-27.875-10.272-32-11.869-27.5-10.646-59.41-21.959-60.03-21.283-1.6739 1.8258-20.047 27.492-25.988 36.303-10.957 16.252-48.878 69.8-59.941 84.642-5.7977 7.7782-15.491 20.779-21.541 28.891-6.05 8.1118-16.52 22.223-23.268 31.358-18.989 25.708-32.532 43.894-38.806 52.109-3.1505 4.125-7.4998 10.088-9.665 13.25-2.1652 3.1625-4.4597 5.7267-5.0989 5.6981-0.63919-0.029-13.087-11.336-27.662-25.127zm41.428-73.622c-7.5811-5.2541-10.624-7.4593-50.099-36.302-31.562-23.061-34.773-25.35-60.9-43.418-10.961-7.5796-22.854-15.823-26.429-18.319-10.044-7.0122-76.342-51.199-97.542-65.011-10.427-6.793-25.483-16.615-33.458-21.828-7.975-5.2123-16.525-10.559-19-11.883-2.475-1.3232-10.883-6.6325-18.684-11.798l-14.184-9.3927-9.8158-0.69212c-5.3987-0.38067-17.241-1.3218-26.316-2.0914s-32.475-2.537-52-3.9275c-39.849-2.8379-51.141-3.7006-85.5-6.5321-45.118-3.7181-41.333-2.6958-41.137-11.112l0.13719-5.8899 4-0.0718c3.2844-0.0589 3.6422-0.24099 2-1.0178-3.4757-1.6441 38.687 0.95579 107 6.5979 30.635 2.5302 82.942 6.3214 97 7.0306l13 0.6558 23 15.252c12.65 8.3889 25.25 16.537 28 18.107 2.75 1.5701 17.375 10.904 32.5 20.742 15.125 9.8381 32.848 21.333 39.385 25.544 44.863 28.902 109.67 73.212 163.11 111.52 13.75 9.8567 25.675 18.1 26.5 18.318 1.0398 0.2752 4.837-5.0612 12.377-17.394 29.134-47.654 42.433-69.65 47.635-78.791 12.124-21.302 20.498-36.472 26.496-48 3.4336-6.6 7.2583-13.8 8.4993-16 1.2411-2.2 4.3967-7.825 7.0125-12.5 4.2156-7.5342 14.612-25.417 16.703-28.732 0.59194-0.93827 3.7592-0.39628 13.277 2.2721 33.319 9.3407 47.464 13.131 150.69 40.383 10.555 2.7864 20.23 5.4981 21.5 6.0259 1.2701 0.52781 7.4843 2.3676 13.809 4.0884 6.325 1.7208 21.625 5.9747 34 9.453s32.625 9.0924 45 12.476c12.375 3.3833 23.288 6.3804 24.25 6.6603 1.4981 0.43568 1.75 1.7949 1.75 9.4416 0 4.9129-0.1776 8.9326-0.3946 8.9326-0.2171 0-3.2546-0.85686-6.75-1.9041-3.4955-1.0472-16.255-4.6202-28.355-7.94-65.522-17.976-119.83-33.031-134-37.149-23.868-6.9338-39.851-11.368-68-18.867-16.5-4.3956-34.916-9.3752-40.923-11.066-6.0079-1.6906-11.639-3.0737-12.514-3.0737-1.4667 0-14.578 21.861-21.29 35.5-8.6209 17.515-29.429 54.522-50.323 89.5-20.965 35.096-26.303 43.855-32.81 53.832-3.4677 5.3172-9.4176 14.943-13.222 21.391-3.8043 6.448-7.1743 11.735-7.4889 11.75-0.31456 0.014-3.6896-2.1342-7.5-4.775zm-5.4281-93.806c-16.561-9.4583-59.579-33.407-86.5-48.156-5.5-3.0132-23.275-12.237-39.5-20.498-16.225-8.2605-29.978-15.391-30.561-15.845-0.58362-0.45415-38.579-19.579-84.435-42.5l-83.374-41.675-15.565-1.8509c-8.5607-1.018-22.54-2.751-31.065-3.8512-8.525-1.1001-27.425-3.3844-42-5.0762s-35.725-4.1477-47-5.4576c-40.02-4.6495-59.489-7.5566-57.796-8.6303 0.93595-0.59372 0.74032-0.84855-0.70366-0.9166-1.1463-0.054-1.4486-0.31549-0.70826-0.61256 0.99193-0.398 1.0215-0.84388 0.12756-1.9211-0.86134-1.0378-0.86724-1.4028-0.0227-1.4028 0.69177 0 0.91408-0.90612 0.56426-2.2999-0.45001-1.793 0.0226-2.6195 2.1446-3.75 2.1173-1.1281 2.815-1.1725 3.1415-0.20012 0.23084 0.6875 1.8447 1.2431 3.5864 1.2347 2.4124-0.0117 2.8094-0.24622 1.6667-0.98469-1.1521-0.74456-0.80426-0.9725 1.5-0.98285 2.9104-0.0131 74.389 7.9595 89.5 9.9826 6.9073 0.92478 25.752 3.1095 81.735 9.4756l21.235 2.4147 18.765 9.5829c10.321 5.2706 38.565 19.41 62.765 31.42 54.267 26.933 117.22 58.795 140.5 71.116 9.625 5.093 24.475 12.948 33 17.456 8.525 4.5078 27.348 14.797 41.828 22.866 14.481 8.0684 26.647 14.67 27.035 14.67 0.38878 0 2.2267-3.0375 4.0842-6.75 4.4032-8.8004 20.741-44.458 23.024-50.25 1.578-4.0035 10.438-23.809 18.79-42 1.6412-3.575 4.8971-11 7.2352-16.5 4.6625-10.968 20.985-43.875 23.259-46.893 1.3939-1.8497 1.759-1.831 15.835 0.81128 7.9247 1.4876 22.509 4.2241 32.409 6.0812s30.6 5.6777 46 8.4903c33.253 6.0731 96.558 18.558 175 34.514 31.35 6.3768 60.712 12.336 65.25 13.242l8.25 1.6482v8.3029c0 4.5666-0.359 8.3029-0.7977 8.3029-0.4388 0-6.1763-1.1534-12.75-2.5631-6.5738-1.4097-16.227-3.4094-21.452-4.4438s-20.525-4.1737-34-6.9762c-49.933-10.385-111.71-22.567-175-34.507-63.051-11.896-78.374-14.659-82.246-14.83l-4.0467-0.17942-7.326 14.5c-4.0293 7.975-8.0863 16.525-9.0156 19-0.92928 2.475-4.378 10.35-7.6638 17.5s-7.4405 16.6-9.2326 21-4.8346 11.6-6.7611 16-5.145 11.825-7.1522 16.5c-5.56 12.95-8.256 18.816-18.379 39.995-5.1279 10.728-10.014 21.193-10.859 23.255-0.84431 2.0625-2.0488 3.7406-2.6765 3.729-0.62778-0.0116-9.4664-4.7755-19.641-10.587zm-4-73.967c-15.355-6.8027-36.975-15.967-105.5-44.719-37.066-15.552-109.24-45.057-140-57.231-14.85-5.8776-32.625-12.93-39.5-15.671-6.875-2.7416-18.43-7.1816-25.678-9.8667-7.2478-2.6851-17.598-6.7164-23-8.9584-10.476-4.3476-15.498-5.2324-107.82-18.996-37.43-5.5802-69.535-10.887-70.875-11.714-0.61824-0.38209-2.3172-0.56955-3.7755-0.41659-1.4583 0.15297-2.9588-0.21915-3.3344-0.82693-0.47144-0.76281 0.19468-0.8914 2.1508-0.41523l2.8338 0.68982-1.905-2.1497c-1.0477-1.1824-1.3994-2.1497-0.78138-2.1497 0.61798 0 0.89436-0.5974 0.61417-1.3276-0.28018-0.73015-0.0522-2.5302 0.50664-4 0.85223-2.2415 1.6213-2.6724 4.7699-2.6724 3.5475 0 26.895 3.1973 73.296 10.038 11.275 1.6621 27.925 4.0909 37 5.3974 54.106 7.7892 66.775 9.8824 70.566 11.659 2.2362 1.0482 4.3594 1.9059 4.7183 1.9059 0.35891 0 4.8293 1.7695 9.9343 3.9322 5.1049 2.1627 22.782 9.1744 39.282 15.582 65.274 25.347 142.95 56.584 186.5 74.998 11.275 4.7676 24.55 10.371 29.5 12.452s20.767 8.7906 35.148 14.91c14.382 6.1195 26.612 11.126 27.179 11.126 1.1504 0 11.024-24.702 23.304-58.304 4.4616-12.208 10.259-28.075 12.883-35.261 7.5352-20.633 15.152-38.562 16.623-39.126 0.74199-0.28473 23.514 2.6992 50.605 6.6309s72.431 10.518 100.76 14.636c28.325 4.1182 63.65 9.252 78.5 11.409 14.85 2.1565 39.825 5.7974 55.5 8.0908s42.9 6.2523 60.5 8.7975l32 4.6276 0.2918 8.3306c0.2677 7.6455 0.1432 8.2835-1.5137 7.7576-0.993-0.31516-15.749-2.5803-32.792-5.0336-32.476-4.675-58.406-8.4619-109.99-16.063-17.05-2.5124-43.15-6.3479-58-8.5232-14.85-2.1754-42.3-6.2335-61-9.0182-74.209-11.051-100.93-14.803-101.76-14.292-0.47623 0.29432-1.3477 1.7289-1.9366 3.188-6.0875 15.082-22.77 60.134-31.347 84.653-6.046 17.284-15.377 41.838-18.527 48.75-0.68922 1.5125-1.7434 2.7417-2.3426 2.7316-0.59921-0.0101-6.7145-2.5105-13.589-5.5564zm-29.5-72.483c-67.631-24.091-154.67-53.367-245-82.405-21.45-6.8955-50.925-16.368-65.5-21.05-18.81-6.0426-31.143-9.3723-42.5-11.475-66.321-12.278-100.72-18.774-119.5-22.568-6.875-1.3889-13.683-2.7559-15.129-3.0377s-4.146-1.8687-6-3.5264c-3.0243-2.7042-3.191-3.1151-1.6208-3.9968 0.9625-0.54048 1.75-1.5729 1.75-2.2943 0-0.85985 0.86111-1.147 2.5-0.83373 2.5421 0.48595 3.5323-1.172 1.25-2.093-2.1449-0.86547 3.4907-0.69459 9.25 0.28048 11.708 1.9822 34.519 6.0809 58 10.421 13.475 2.4909 28.775 5.2131 34 6.0494 19.316 3.0915 62.627 11.547 66.5 12.983 6.3622 2.3584 69.196 22.604 70.144 22.601 0.47101-0.002 9.6314 2.8773 20.356 6.3974s24.675 8.0463 31 10.058c6.325 2.0119 22.3 7.2086 35.5 11.548 13.2 4.3396 34.35 11.254 47 15.365 22.528 7.3215 74.343 24.934 111.91 38.038 10.399 3.6277 19.249 6.5958 19.667 6.5958 1.1638 0 12.933-37 16.064-50.5 1.0654-4.5947 1.2887-5.3215 10.906-35.5 3.9435-12.375 7.6844-23.011 8.3132-23.637 0.85392-0.84884 4.9399-0.66406 16.143 0.73005 8.25 1.0266 36.6 4.1405 63 6.9198s60.375 6.3866 75.5 8.0162 36.05 3.8539 46.5 4.9429c27.83 2.9002 87.417 9.6438 115 13.015 13.2 1.6132 38.9 4.751 57.11 6.973s34.748 4.04 36.75 4.04h3.6399v7.5 7.5h-3.0115c-2.5071 0-32.055-3.4463-68.488-7.9881-43.29-5.3965-100.19-11.882-167-19.034-42.491-4.5487-97.209-10.451-135.27-14.592-15.55-1.6917-25.61-2.3908-26.157-1.8177-0.92674 0.97179-9.6332 28.737-13.026 41.54-10.332 38.989-21.432 73.952-23.436 73.815-0.61223-0.042-12.363-4.0837-26.113-8.9817zm-39-70.078c-50.264-14.267-80.733-22.721-101-28.025-8.25-2.159-21.3-5.6744-29-7.812-30.571-8.4865-88.106-23.628-140.5-36.975-21.725-5.5343-45.35-11.594-52.5-13.466s-24.925-5.9008-39.5-8.9529c-14.575-3.0522-32.8-6.9418-40.5-8.6436s-22.55-4.8751-33-7.0518c-10.45-2.1766-19.562-4.1642-20.25-4.4167-0.82487-0.30298-1.25-2.6719-1.25-6.9655v-6.5064l3.25 0.58562c1.7875 0.3221 16.075 3.272 31.75 6.5554s35.025 7.2981 43 8.9215c38.509 7.8392 60.211 12.739 91 20.545 18.425 4.6713 45.65 11.567 60.5 15.323 14.85 3.7566 32.4 8.2588 39 10.005 49.869 13.194 108.74 28.893 122.5 32.668 9.075 2.489 25.275 6.93 36 9.869 20.124 5.5146 53.565 14.887 56.955 15.963 1.2777 0.40553 2.2495 0.00007 2.8963-1.2085 1.0873-2.0317 4.2378-13.499 10.653-38.777 5.7702-22.736 8.1205-31.412 11.185-41.292l2.5719-8.2916 4.1192 0.56529c5.5605 0.76309 57.524 6.0339 113.62 11.525 11.825 1.1575 28.025 2.7457 36 3.5294 7.975 0.78369 27.1 2.5466 42.5 3.9175 42.777 3.8081 81.905 7.406 93 8.5515 46.616 4.8128 91.743 9.6235 121.84 12.988 19.709 2.2038 36.022 4.0068 36.25 4.0068 0.2282 0 0.4148 3.1388 0.4148 6.975v6.975l-2.75-0.47063c-3.5162-0.60177-66.16-7.5497-103.25-11.452-32.724-3.4426-55.063-5.579-162.5-15.541-65.94-6.1144-91.088-8.5309-108.5-10.426-10.175-1.1074-25.925-2.7128-35-3.5677s-17.696-1.7921-19.157-2.0828c-2.4748-0.49207-2.7654-0.1635-4.2288 4.7807-3.3406 11.286-21.614 85.834-21.614 88.176 0 0.89839-0.5625 1.5851-1.25 1.526s-20.15-5.4718-43.25-12.028zm5.5-50.052c-1.925-0.55422-12.05-2.9653-22.5-5.358-36.563-8.3716-72.275-16.504-105.5-24.026-18.425-4.1709-41.375-9.3891-51-11.596-9.625-2.207-20.2-4.6105-23.5-5.341-3.3-0.73048-15-3.3619-26-5.8476-46.714-10.556-55.634-12.551-67.5-15.1-20.587-4.4221-49.949-11.137-97.5-22.297-24.75-5.8087-49.725-11.623-55.5-12.92-15.321-3.4414-14-2.5163-14-9.8009 0-5.5177 0.22672-6.2889 1.75-5.9524 37.23 8.2245 73.446 16.36 93.25 20.947 32.896 7.6198 90.763 20.537 141 31.474 43.823 9.5405 64.353 14.125 103 22.998 4.675 1.0734 12.775 2.8772 18 4.0085 9.5438 2.0664 15.353 3.3828 68.172 15.449 15.77 3.6024 29.495 6.5429 30.5 6.5343 1.4843-0.0127 2.6588-2.784 6.2512-14.75 6.9965-23.305 17.206-55.583 18.132-57.326 0.71332-1.3427 1.821-1.4579 7.0896-0.73734 5.6191 0.76846 100.36 10.334 141.86 14.323 9.075 0.87233 22.8 2.246 30.5 3.0526 13.84 1.4498 42.925 4.3237 111 10.968 19.25 1.8788 50.975 4.9763 70.5 6.8832 19.525 1.907 51.822 5.1554 71.771 7.2187 34.628 3.5817 36.496 3.6794 41.25 2.1592l4.9794-1.5923v8.4081 8.4081l-2.75 0.003c-1.5125 0.002-17.15-1.5654-34.75-3.4823-29.702-3.2349-92.211-9.538-128.5-12.957-8.525-0.80327-24.5-2.3841-35.5-3.513s-31.7-3.1621-46-4.5182-35-3.3811-46-4.5001c-11-1.1189-45.2-4.5235-76-7.5656-30.8-3.0422-63.862-6.4166-73.471-7.4988-24.94-2.8087-22.333-3.4549-25.346 6.2825-4.5471 14.693-9.7054 32.725-12.186 42.602-6.7392 26.826-6.4985 26.157-9.3698 26.058-1.4445-0.0496-4.2013-0.54364-6.1263-1.0979zm-29-53.974c-2.475-0.52118-12.375-2.4612-22-4.3112-78.918-15.168-296.1-58.084-366.86-72.493-24.4-4.9684-44.538-9.0335-44.75-9.0335-0.21214 0-0.38571-2.7488-0.38571-6.1084 0-5.8275 0.10346-6.0836 2.25-5.5699 5.1358 1.2291 69.358 13.764 82.75 16.151 15.486 2.7601 15.997 2.8597 128 24.914 40.425 7.9599 78.675 15.442 85 16.627s19.15 3.6761 28.5 5.5358c25.415 5.055 100.47 19.451 101.4 19.451 1.2753 0 9.0438-17.656 23.319-53 1.6661-4.125 3.5418-8.0533 4.1683-8.7296 0.90031-0.97186 3.651-0.92022 13.124 0.24638 12.116 1.4921 68.709 7.9879 99.985 11.476 9.35 1.0429 29.15 3.2584 44 4.9234s47.925 5.2821 73.5 8.038 52.125 5.6967 59 6.5352c6.875 0.83847 26.675 3.121 44 5.0722 92.546 10.423 110.31 12.435 119 13.478l9.5 1.1405 17-7.013c9.35-3.8572 18.688-7.7289 20.75-8.6039l3.75-1.5909v8.3462 8.3462l-16.806 7.1932-16.806 7.1932-20.444-2.4692c-11.244-1.3581-34.619-4.0814-51.944-6.0518s-41.175-4.722-53-6.1145c-27.411-3.228-78.219-8.9701-140.5-15.879-83.145-9.223-94.326-10.475-116-12.994-11.55-1.3423-32-3.8137-45.444-5.492s-25.872-3.0515-27.617-3.0515c-3.1446 0-3.2244 0.12679-8.96 14.25-13.959 34.371-21.162 50.791-22.216 50.643-0.41944-0.0589-2.7876-0.53351-5.2626-1.0547zm-43-45.911c-7.975-1.5632-23.05-4.4498-33.5-6.4148s-26.875-5.1088-36.5-6.9863-30.775-5.9166-47-8.9757-36.25-6.869-44.5-8.4663c-20.838-4.0346-39.442-7.3929-64-11.553-11.55-1.9566-23.25-3.9855-26-4.5087s-19.625-3.6946-37.5-7.0475c-36.531-6.8523-66.627-12.579-87.749-16.697l-14.249-2.7778-0.00093-5.25c-0.00078-4.3396 0.30253-5.2473 1.7491-5.2344 2.0092 0.0178 21.315 3.5239 62.75 11.396 15.95 3.0303 30.35 5.749 32 6.0415 1.65 0.29251 11.325 2.0689 21.5 3.9476s20.97 3.7118 23.989 4.0737c3.0192 0.36184 14.494 2.4012 25.5 4.532s31.261 5.9543 45.011 8.4968c13.75 2.5424 35.35 6.5891 48 8.9925 20.952 3.9808 62.011 11.428 107.5 19.499 9.625 1.7076 20.561 3.707 24.301 4.443l6.8013 1.3382 3.7898-5.1378c2.0844-2.8258 9.5708-13.688 16.636-24.138 12.327-18.232 20.364-29.786 22.311-32.077 0.64947-0.76407 4.3641-0.56557 12.788 0.68332 6.5298 0.96811 18.172 2.6962 25.872 3.8402s27.275 3.8915 43.5 6.1055c30.558 4.1699 78.435 10.865 114 15.942 11.275 1.6095 38.5 5.4408 60.5 8.514s47.425 6.6829 56.5 8.0215 34.725 4.9342 57 7.9901 46.694 6.4369 54.264 7.5133l13.764 1.9571 21.736-9.5748c11.955-5.2661 29.456-13.364 38.891-17.995 9.4354-4.6312 17.423-8.4203 17.75-8.4203 0.3272 0 0.5833 3.9375 0.5692 8.75l-0.026 8.75-20.224 8.9299c-11.123 4.9115-26.974 12.077-35.224 15.922l-15 6.9925-29.5-4.1213c-16.225-2.2667-68.65-9.7813-116.5-16.699-47.85-6.9178-94.875-13.672-104.5-15.009s-34.6-4.9268-55.5-7.9773-48.125-6.9071-60.5-8.5702-23.175-3.2213-24-3.4627-10.275-1.5767-21-2.9673-20.886-2.7618-22.581-3.047c-3.4117-0.57431-2.6171-1.649-33.835 45.758-7.9078 12.009-12.238 17.713-13.386 17.634-0.93385-0.0635-8.2229-1.3944-16.198-2.9576zm453-33.042c-5.4602-0.97136-24.031-4.0017-60.5-9.872-36.844-5.9308-61.31-9.9607-90.5-14.907-77.722-13.17-181.64-30.552-209.81-35.093-25.945-4.183-31.613-4.8302-33.099-3.7799-0.98588 0.69708-16.523 15.105-34.528 32.017s-33.464 30.75-34.355 30.75c-1.426 0-89.099-17.112-143.21-27.951-10.725-2.1484-29.175-5.7564-41-8.0178s-28.25-5.4277-36.5-7.0364c-8.25-1.6086-20.496-3.8192-27.212-4.9123-6.7168-1.0931-19.317-3.3417-28-4.9969-8.6832-1.6552-26.813-5.0761-40.288-7.6021-28.919-5.421-59.58-11.289-62.75-12.01-1.9637-0.44638-2.25-1.1452-2.25-5.4924 0-2.7395 0.42716-4.981 0.94924-4.981s5.5846 0.88513 11.25 1.967c5.6654 1.0818 26.276 4.8853 45.801 8.4522s44.275 8.1123 55 10.101c10.725 1.9886 25.125 4.4874 32 5.5529s18.125 3.0416 25 4.3913 23.975 4.5161 38 7.0365c25.327 4.5513 32.371 5.9072 114 21.941 54.419 10.689 53.295 10.49 54.654 9.7156 1.4016-0.79876 19.845-17.575 30.846-28.057 4.4-4.1926 13.38-12.568 19.956-18.612 6.5758-6.0438 12.763-11.776 13.75-12.739 0.98672-0.9625 2.8065-1.7482 4.044-1.7459 3.7737 0.007 35.069 4.7302 79.25 11.961 23.1 3.7807 57.75 9.4188 77 12.529s38.6 6.3206 43 7.1342c24.937 4.611 136.47 23.145 173.5 28.831 9.075 1.3936 19.337 3.0408 22.804 3.6605 6.1225 1.0944 6.5104 1.0322 13.5-2.1618 16.896-7.7207 38.24-18.134 39.66-19.35 0.8448-0.72291 9.6359-5.4668 19.536-10.542 9.9-5.0751 18.675-9.8177 19.5-10.539 0.825-0.72132 7.0125-4.0635 13.75-7.427l12.25-6.1156-0.029 8.2577-0.029 8.2577-12.079 6c-6.6435 3.3-16.193 8.4357-21.221 11.413-5.0279 2.977-22.412 11.932-38.631 19.9-31.239 15.347-32.862 15.878-43.011 14.073zm-19.083-30.27c-0.2292-0.21184-13.017-2.7063-28.417-5.5433s-34.975-6.4743-43.5-8.0828c-8.525-1.6086-20.9-3.8635-27.5-5.0109s-17.85-3.1694-25-4.4934-34.6-6.2837-61-11.022c-26.4-4.738-57.45-10.404-69-12.592-42.267-8.006-98.451-18.508-111.76-20.89-3.7167-0.66529-7.5583-1.0002-8.5369-0.7443-0.97866 0.25592-19.088 13.492-40.242 29.413-21.155 15.921-40.517 30.405-43.028 32.186l-4.5648 3.2386-54.935-10.966c-94.6-18.883-136.92-27.108-139.48-27.108-3.5215 0-115.17-22.605-165.7-33.551-1.9712-0.42694-2.25-1.1117-2.25-5.5273 0-2.772 0.3375-4.8327 0.75-4.5794 0.90053 0.55298 91.892 18.816 122.25 24.538 11.825 2.2285 31.4 5.8976 43.5 8.1536s25.281 4.7541 29.291 5.5513c4.0102 0.79718 17.735 3.4359 30.5 5.8638 38.817 7.3831 95.201 18.252 113.7 21.918l17.491 3.4657 6.5094-4.6282c3.5801-2.5455 16.859-12.324 29.509-21.731 39.771-29.574 50.937-37.453 53.09-37.463 1.1497-0.005 7.6747 1.0909 14.5 2.4362 25.498 5.0257 111.59 20.524 211.41 38.06 11 1.9324 32.825 5.7672 48.5 8.5219s33.225 5.8936 39 6.9752c5.775 1.0817 21.798 4.0351 35.606 6.5632l25.106 4.5965 9.8939-4.9659c7.8253-3.9276 36.631-19.344 47.894-25.632 3.3945-1.8951 10.795-6.6088 15.164-9.6587 2.2899-1.5986 4.3875-2.9066 4.6613-2.9066 0.7376 0 23.927-14.007 25.675-15.509 1.638-1.4069 33.626-19.491 34.476-19.491 0.2879 0 0.5235 3.5884 0.5235 7.9743v7.9743l-3.25 1.6504c-6.0901 3.0927-34.228 19.728-41.25 24.388-3.85 2.5546-10.15 6.3724-14 8.484s-11.328 6.6763-16.617 10.144c-10.736 7.0375-54.498 30.378-56.966 30.383-0.8709 0.002-1.7709-0.17039-2-0.38223zm-41.417-34.201c-29.561-6.3345-73.469-15.377-116-23.89-51.317-10.271-207.4-41.221-211.63-41.964-2.6155-0.45954-12.838 5.1486-56.373 30.926-34.611 20.493-62.855 36.514-64.372 36.514-2.6863 0-38.881-7.9983-79.128-17.486-10.725-2.5282-23.55-5.503-28.5-6.6106-45.128-10.098-122.19-27.842-164.5-37.881-33.451-7.9356-50.655-11.9-56.75-13.077l-6.25-1.2066v-4.8385c0-3.4254 0.36508-4.7174 1.25-4.4237 0.6875 0.22814 9.575 2.2876 19.75 4.5767 18.259 4.1076 28.251 6.3898 67.5 15.416 11 2.5298 26.3 5.9621 34 7.6273 21.358 4.6189 47.905 10.541 69.5 15.504 10.725 2.465 27.375 6.253 37 8.4178 9.625 2.1647 25.375 5.7551 35 7.9785s24.925 5.6136 34 7.5337 20.654 4.4208 25.732 5.5572l9.2317 2.0662 27.268-15.722c14.998-8.6469 33.118-19.181 40.268-23.409 7.15-4.2283 21.171-12.286 31.157-17.906l18.157-10.218 16.343 3.1114c8.9885 1.7112 21.743 4.1969 28.343 5.5237s23.925 4.6926 38.5 7.4796 33.25 6.374 41.5 7.9711 26.025 5.0103 39.5 7.5848c32.521 6.2135 122.35 24.066 152.82 30.371l24.324 5.0329 20.713-11.824c11.392-6.5033 30.243-18.085 41.891-25.737 38.366-25.205 82.894-52.413 85.78-52.413 0.8503 0 5.5787 2.7116 10.508 6.0258l8.9616 6.0258v4.9742c0 2.7358-0.3881 4.9742-0.8625 4.9742s-2.5699-1.3569-4.6569-3.0154c-2.0869-1.6585-5.3487-3.976-7.2484-5.1501-3.3641-2.0792-3.5357-2.0882-6.5931-0.3471-11.993 6.8295-48.892 30.756-58.555 37.97-2.979 2.2236-10.941 7.418-17.693 11.543-6.7521 4.125-18.94 11.582-27.084 16.572-23.904 14.646-37.829 22.436-39.886 22.313-1.0569-0.0629-6.8716-1.1751-12.922-2.4715zm-513.5-36.53c-76.815-19.203-103.59-25.798-111.5-27.463-4.4-0.92583-12.275-2.7874-17.5-4.1369s-13.775-3.267-19-4.2612c-12.081-2.2987-33.521-7.4323-82.5-19.754l-39-9.8111-0.30479-4.7313c-0.18673-2.8986 0.11192-4.7313 0.77098-4.7313 0.59168 0 20.754 4.9155 44.805 10.923 24.051 6.0078 53.179 13.23 64.729 16.049 11.55 2.8192 26.33 6.4537 32.844 8.0767 6.5141 1.623 12.889 2.951 14.167 2.951 1.2775 0 22.948 5.1308 48.156 11.402 25.208 6.271 47.408 11.717 49.333 12.101 1.925 0.38483 15.296 3.576 29.712 7.0915l26.212 6.3918 17.288-8.1026c9.5082-4.4565 31.463-14.624 48.788-22.595s38.161-17.597 46.303-21.391c8.1417-3.7938 14.987-6.8978 15.212-6.8978 0.2247 0 4.8133-2.0692 10.197-4.5982l9.7883-4.5982 10 2.1562c5.5 1.1859 26.425 5.5184 46.5 9.6278 35.462 7.2592 42.849 8.7936 76.5 15.891 8.8 1.856 19.375 4.057 23.5 4.8911 20.429 4.1309 71.679 14.889 115 24.14 11.825 2.5252 23.844 5.077 26.708 5.6705l5.2084 1.0792 14.375-8.0745c7.9061-4.441 19.962-11.598 26.792-15.904 6.8292-4.3065 16.017-9.9842 20.417-12.617 4.4-2.633 11.715-7.1218 16.256-9.9752 29.267-18.391 38.659-24.223 54.529-33.86l17.785-10.799 23.465 12.627 23.465 12.627v4.9735 4.9735l-2.75-1.8158c-1.5125-0.99871-5.675-3.4496-9.25-5.4463-3.575-1.9968-8.075-4.5285-10-5.626s-7.3585-4.0918-12.075-6.654l-8.5745-4.6585-14.778 8.9932c-8.1277 4.9463-17.319 10.74-20.425 12.876-3.1063 2.1355-11.948 7.8254-19.648 12.644-7.7 4.8188-18.5 11.788-24 15.487-5.5 3.6993-12.475 8.1572-15.5 9.9066-3.025 1.7493-8.2 4.9167-11.5 7.0385s-14.152 8.5738-24.117 14.338l-18.117 10.48-15.883-3.4478c-31.065-6.7433-42.443-9.1989-88.883-19.182-25.85-5.5571-54.425-11.709-63.5-13.67-18.781-4.0594-49.573-10.549-81-17.071-11.825-2.454-28.848-6.0277-37.828-7.9416-8.9805-1.9139-17.457-3.4799-18.837-3.4799-2.5284 0-25.037 10.162-100.83 45.523-40.841 19.053-48.54 22.477-50.273 22.358-0.95005-0.0652-19.502-4.5622-41.227-9.9933zm5-18.486c-6.875-1.9034-23.525-6.5637-37-10.356-50.409-14.188-108.7-29.995-137-37.151-12.925-3.2684-40.938-10.731-62.25-16.583l-38.75-10.64v-4.7656-4.7656l11.25 2.9968c6.1875 1.6483 18.225 4.9628 26.75 7.3657 28.888 8.1425 83.737 22.768 110.5 29.464 15.297 3.8276 73.306 19.466 111.5 30.059l29.5 8.1817 5-1.7194c2.75-0.94567 22.325-8.3811 43.5-16.523 21.175-8.1421 48.625-18.689 61-23.438 12.375-4.7487 27-10.382 32.5-12.518 5.5-2.1361 16.112-6.1636 23.583-8.9501l13.583-5.0663 10.917 2.4376c6.0043 1.3407 19.017 4.2925 28.917 6.5596s23.85 5.4276 31 7.0233 22 4.962 33 7.4805c36.234 8.2962 90.428 20.53 126.5 28.557l35.5 7.8996 17-10.123c32.546-19.381 62.299-37.71 93.26-57.451 21.536-13.732 36.037-22.376 37.538-22.376 0.788 0 14.431 5.64 30.317 12.533 15.886 6.8933 32.812 14.206 37.612 16.25l8.7272 3.7167 0.023 4.2145 0.023 4.2145-4.25-1.844c-2.3375-1.0142-6.95-3.061-10.25-4.5485-24.655-11.113-55.847-24.536-57.016-24.536-1.8829 0-20.599 11.435-50.984 31.149-20.853 13.53-80.78 50.552-92.593 57.204l-3.5931 2.0231-27.907-6.2738c-29.09-6.5397-73.775-16.714-88.407-20.128-4.675-1.0911-28.3-6.4903-52.5-11.998-24.2-5.508-46.7-10.675-50-11.483-3.3-0.80764-15.9-3.7668-28-6.576-25.155-5.8401-20.799-6.0977-43 2.5419-6.6 2.5684-20.55 7.9537-31 11.967-10.45 4.0136-29.575 11.436-42.5 16.495-77.013 30.141-84.819 33.091-87.347 33.01-1.1839-0.0378-7.7776-1.6261-14.653-3.5294zm-20.5-26.027c-7.7-2.4184-22.325-6.8889-32.5-9.9344s-23.225-7.0561-29-8.9124c-12.375-3.9779-55.408-17.09-69-21.024-5.225-1.5123-19.175-5.6559-31-9.2079s-27.35-8.2004-34.5-10.33c-7.15-2.1293-23.125-6.9672-35.5-10.751l-22.5-6.8795-0.29778-5.0392-0.29779-5.0392 11.298 3.7251c11.155 3.678 45.218 14.074 78.298 23.896 9.35 2.7763 25.775 7.7409 36.5 11.032 10.725 3.2915 25.125 7.5267 32 9.4115s17.9 5.1111 24.5 7.1696 22.125 6.7967 34.5 10.529c12.375 3.7327 29.311 8.8547 37.635 11.382 8.3242 2.5276 16.254 4.5956 17.623 4.5956 1.3683 0 8.0576-1.7638 14.865-3.9197 6.8076-2.1558 15.302-4.8103 18.877-5.8989 10.136-3.0865 40.417-12.669 57.765-18.28 22.327-7.2211 83.702-26.727 103.23-32.809l16.5-5.138 18.5 5.0305c22.019 5.9873 116.06 29.711 162.5 40.994 18.15 4.4096 36.433 8.853 40.629 9.8741l7.6287 1.8566 17.487-10.605c9.6179-5.8327 23.96-14.801 31.871-19.929 7.9113-5.128 31.934-20.582 53.384-34.341l39-25.018 4.5 1.4898c8.551 2.831 71.506 26.685 73.491 27.846 1.7389 1.0172 19.936 8.0234 24.759 9.5324 1.2708 0.39762 1.75 1.6071 1.75 4.4164v3.8688l-5.25-2.0696c-2.8875-1.1383-14.25-5.4577-25.25-9.5986s-30.49-11.528-43.311-16.416c-12.821-4.8877-24.087-8.8868-25.036-8.8868-0.9492 0-8.6844 4.5554-17.189 10.123-8.505 5.5678-25.364 16.475-37.464 24.239-12.1 7.7638-26.05 16.906-31 20.316-13.957 9.6155-54.823 34.713-56.5 34.699-3.6169-0.0305-170.46-41.839-225.5-56.507l-8-2.132-23 7.2099c-12.65 3.9655-44.6 14.108-71 22.54-49.427 15.786-73.062 23.248-96.5 30.468-7.425 2.2872-15.493 4.8079-17.928 5.6015-5.7407 1.8705-5.2565 1.9419-21.572-3.1824zm-41-32.263c-20.9-7.0464-46.775-15.615-57.5-19.042-31.093-9.9343-104.85-35.314-133.63-45.979-10.522-3.8998-19.859-7.0906-20.75-7.0906-1.1838 0-1.6191-0.9411-1.6191-3.5v-3.5h4.8919c3.4344 0 8.7873 1.4737 17.966 4.9463 17.74 6.7115 45.104 16.454 53.642 19.099 3.85 1.1925 29.05 9.5354 56 18.54 83.951 28.049 119.9 39.654 122.68 39.603 2.6206-0.0485 9.3249-1.7439 81.822-20.692 108.4-28.331 157.01-40.496 161.82-40.496 1.595 0 9.1497 1.7625 16.788 3.9167 21.357 6.023 77.081 21.418 94.388 26.078 19.88 5.3518 57.269 16.119 71.769 20.668l11.269 3.5355 11.231-7.0976c6.1768-3.9037 14.434-9.2357 18.35-11.849 16.921-11.293 45.657-30.398 54.881-36.489 5.5-3.6317 17.875-11.964 27.5-18.516 9.625-6.5519 18.426-12.407 19.557-13.011 1.6306-0.87116 4.4268-0.41328 13.5 2.2106 18.72 5.4135 86.364 26.428 111.69 34.699l9.25 3.0204v3.4175c0 1.8796-0.1125 3.4093-0.25 3.3991-0.1375-0.0101-4.975-1.5354-10.75-3.3896s-21.975-7.0547-36-11.557c-39.74-12.757-76.704-24.035-78.772-24.035-2.022 0-3.571 1.0067-48.228 31.346-44.734 30.391-64.413 43.523-76.342 50.94l-10.842 6.7415-15.658-4.9283c-24.619-7.7487-40.8-12.505-66.658-19.595-13.2-3.6191-27.825-7.6643-32.5-8.9893-4.675-1.3251-20.875-5.8453-36-10.045s-32.095-8.9615-37.712-10.582l-10.212-2.946-41.788 10.575c-22.984 5.8164-48.538 12.371-56.788 14.567-8.25 2.1953-23.325 6.2092-33.5 8.9199-29.791 7.9366-111.32 29.171-113.5 29.561-1.1 0.19699-19.1-5.407-40-12.453zm8-15.511c-6.05-2.348-18.425-7.0146-27.5-10.37-9.075-3.3557-29.1-10.891-44.5-16.744-15.4-5.8538-31.825-11.913-36.5-13.465-14.183-4.7086-36.852-13.188-70.721-26.454-22.377-8.7647-32.993-12.459-34.75-12.094-8.1692 1.7002-7.5295 1.8646-7.5295-1.9354 0-3.8825-0.0613-3.8508 10.445-5.4128 5.5764-0.82902 6.5385-0.64784 15.5 2.9191 5.255 2.0916 14.955 5.8969 21.555 8.4561s14.7 5.7016 18 6.9831c32.341 12.559 45.829 17.672 69.5 26.349 15.125 5.5442 32.45 11.853 38.5 14.019 6.05 2.1662 22.7 8.3126 37 13.659l26 9.7202 15.5-3.0617c8.525-1.6839 24.275-4.9117 35-7.1729 29.532-6.2264 60.37-12.663 81.5-17.01 10.45-2.1501 28.9-5.9698 41-8.4882s29.875-6.158 39.5-8.0882c15.623-3.1329 61.351-12.695 66.5-13.906 1.1-0.25862 37.444 11.291 80.765 25.666l78.765 26.136 24.735-16.727c13.604-9.1998 32.835-22.493 42.735-29.54 9.9-7.0471 26.675-18.748 37.278-26.002l19.278-13.189 19.222 4.9969c10.572 2.7483 31.147 8.0019 45.722 11.675 14.575 3.6728 41.8 10.587 60.5 15.364l34 8.6866 0.3183 3.8485c0.2609 3.154 0.036 3.7401-1.2467 3.2479-0.8608-0.33031-10.454-2.8965-21.318-5.7027-35.704-9.2223-53.304-13.763-88.753-22.897-19.25-4.9602-36.575-9.4769-38.5-10.037-4.1233-1.2-3.1027-1.8364-49.5 30.865-15.95 11.242-34.938 24.527-42.195 29.523-7.257 4.9956-18.681 12.864-25.388 17.485l-12.193 8.402-28.612-9.5936c-15.71-5.28-52.12-17.56-80.88-27.3l-52.289-17.709-7.7111 1.5708c-4.2411 0.86393-17.611 3.6506-29.711 6.1926s-37.075 7.7328-55.5 11.535c-45.496 9.3886-72.811 15.077-96 19.992-10.725 2.2733-24.892 5.2469-31.482 6.6081-6.5898 1.3611-16.715 3.556-22.5 4.8776-12.144 2.7741-40.699 8.5548-41.784 8.4588-0.404-0.0357-5.6846-1.986-11.735-4.334zm-18-24.483c-7.15-3.1655-18.85-8.1719-26-11.125-7.15-2.9533-30.246-12.71-51.325-21.681-21.079-8.9715-38.52-16.312-38.759-16.312-0.23882 0-5.2676-2.0666-11.175-4.5924-5.9075-2.5258-12.727-5.2687-15.155-6.0954-2.4278-0.8267-11.862-4.8351-20.964-8.9076-9.1024-4.0725-17.691-7.4045-19.086-7.4044-1.3948 0.0001-6.063 0.6751-10.374 1.5-10.684 2.0445-10.662 2.0482-10.662-1.7708v-3.2707l14.034-2.288 14.034-2.288 24.716 10.952c13.594 6.0238 26.966 11.843 29.716 12.931 2.75 1.0881 11.075 4.5114 18.5 7.6074s13.867 5.6286 14.315 5.628c0.8186-0.001 23.795 9.6938 46.185 19.488 6.6 2.887 19.65 8.422 29 12.3 9.35 3.8779 20.15 8.4795 24 10.226 6.7651 3.0684 7.2181 3.1382 13.5 2.079 3.575-0.60277 14.6-2.4159 24.5-4.0293 9.9-1.6133 28.8-4.7804 42-7.0379s35.925-6.1292 50.5-8.6038 29.875-5.1334 34-5.9084c4.125-0.77504 20.55-3.5 36.5-6.0554s49.423-8.0218 74.384-12.147l45.384-7.5011 17.116 6.7009c73.445 28.755 101.5 39.489 103.21 39.489 1.4442 0 10.332-5.9458 29.075-19.452 32.946-23.74 81.873-58.622 83.883-59.804 0.579-0.34043 7.329 0.73186 15 2.3829s20.022 4.2783 27.447 5.8384 20.025 4.2073 28 5.8827 27.325 5.7512 43 9.0573 35.025 7.3852 43 9.0647c35.499 7.4761 34 7.0266 34 10.195 0 1.5591-0.5083 2.8347-1.1296 2.8347s-6.1338-1.0924-12.25-2.4276c-23.2-5.0646-39.523-8.5647-51.12-10.961-6.6-1.3639-20.55-4.2898-31-6.5021-55.916-11.837-66.786-14.155-75.239-16.044-5.0817-1.1356-10.271-2.0647-11.531-2.0647-2.3293 0-29.36 18.98-64.729 45.45-24.239 18.141-24.495 18.327-38.682 28.131-6.7 4.6303-12.672 8.4188-13.271 8.4188-0.59926 0-5.0174-1.5275-9.818-3.3944-4.8007-1.8669-16.378-6.3259-25.728-9.9088-9.35-3.583-32.975-12.855-52.5-20.605-19.525-7.7498-36.625-14.095-38-14.101s-10.6 1.3309-20.5 2.9706-29.025 4.7768-42.5 6.9712c-59.195 9.64-69.335 11.302-83.5 13.685-8.25 1.3881-24.225 4.0398-35.5 5.8926s-46.15 7.6704-77.5 12.928c-31.35 5.2575-57.225 9.5314-57.5 9.4975-0.275-0.0338-6.35-2.6515-13.5-5.817zm-16.04-24.99c-8.7796-4.362-27.438-13.418-41.463-20.126-14.025-6.7072-44.175-21.38-67-32.606s-42.34-20.409-43.368-20.407c-1.5356 0.003-25.074 4.6015-33.382 6.5217-1.9489 0.45041-2.25 0.11853-2.25-2.48 0-2.2878 0.53418-3.1255 2.25-3.5288 7.4574-1.7527 37.03-7.5093 38.577-7.5093 1.0205 0 15.09 6.4677 31.264 14.373 52.307 25.563 67.268 32.779 74.909 36.128 4.125 1.808 19.65 9.2497 34.5 16.537l27 13.25 18.5-2.2218c10.175-1.222 34.475-4.1884 54-6.592 19.525-2.4037 40-4.868 45.5-5.4763 5.5-0.60829 18.775-2.1913 29.5-3.5178s27.825-3.3285 38-4.449c16.929-1.8642 27.419-3.3864 73-10.593 18.545-2.9322 41.939-6.4925 66.65-10.143l18.15-2.6815 38.35 18.351c21.092 10.093 40.664 19.378 43.492 20.634l5.1427 2.2831 14.374-10.19c13.127-9.3059 22.002-15.803 71.111-52.06l16.078-11.87 12.575 2.2164c40.442 7.128 60.302 10.59 83.075 14.48 14.025 2.396 47.437 8.1076 74.25 12.692l48.75 8.3361v3.1236 3.1236l-21.75-3.7653c-11.962-2.0709-32.55-5.6492-45.75-7.9518s-34.125-5.9296-46.5-8.0601c-28.739-4.9478-63.267-11.011-82.754-14.532l-15.254-2.7561-4.7463 3.3789c-2.6104 1.8584-19.596 14.46-37.746 28.004-41.243 30.775-58.288 43.038-61.53 44.266-2.7482 1.0406-8.572-1.5651-65.853-29.464-14.511-7.0675-27.336-12.846-28.5-12.84-1.1644 0.005-21.017 2.9436-44.117 6.5296-78.929 12.253-93.011 14.342-107.5 15.95-20.982 2.3288-85.887 10.006-119 14.076-15.675 1.9265-37.725 4.6263-49 5.9996s-21.642 2.7228-23.037 2.9988c-1.824 0.3608-7.0243-1.7275-18.5-7.4289zm-11.963-22.712c-21.194-12.1-22.309-12.731-29-16.429-3.3-1.8238-9.6-5.4172-14-7.9854-4.4-2.5681-15.875-9.0956-25.5-14.505-9.625-5.4099-24.25-13.732-32.5-18.494s-16.861-9.691-19.137-10.953l-4.1366-2.2952-9.8634 2.2142c-5.4249 1.2178-16.976 3.6994-25.669 5.5146l-15.801 3.31 0.30546-3.0894 0.30547-3.0894 13.5-2.8415c7.425-1.5628 20.141-4.3395 28.259-6.1704l14.759-3.3289 20.241 11.73c19.5 11.3 69.503 39.739 103.68 58.963l16.434 9.2453 12.566-1.0972c6.9112-0.60345 22.916-2.0029 35.566-3.1099 26.082-2.2824 116.09-9.3327 165.5-12.964 6.875-0.50521 22.85-2.7172 35.5-4.9155 36.917-6.4154 94.181-16.177 104.67-17.843l9.6726-1.5361 6.3274 3.5053c3.4801 1.9279 9.7024 5.2955 13.827 7.4836 4.125 2.1881 15.674 8.3189 25.665 13.624 9.9907 5.3052 18.66 9.6458 19.265 9.6458 0.60522 0 7.956-5.0929 16.335-11.318 19.554-14.526 70.861-52.082 72.449-53.031 0.6679-0.39913 5.1679-0.0464 10 0.78379 7.6285 1.3107 37.748 5.7418 143.29 21.08 61.16 8.8884 85.723 12.523 88.25 13.06 2.0818 0.44197 2.75 1.172 2.75 3.0044 0 1.6517-0.5638 2.4205-1.7752 2.4205-0.9763 0-12.564-1.5808-25.75-3.5129-41.19-6.0353-63.261-9.2954-84.475-12.478-11.275-1.6914-23.425-3.4771-27-3.9682-9.6248-1.3222-52.688-7.6929-74.906-11.081-10.674-1.6279-20.574-2.9541-22-2.9471-2.4932 0.0122-21.217 13.531-74.449 53.752-9.6552 7.2953-18.216 13.518-19.024 13.828-0.8077 0.30994-8.3654-3.1304-16.795-7.6452-8.4295-4.5148-18.701-10.015-22.826-12.223-4.125-2.2078-12.892-6.9629-19.482-10.567l-11.982-6.5524-16.518 2.7798c-9.0851 1.5289-30.693 5.2034-48.018 8.1655s-40.725 6.963-52 8.8909c-14.685 2.511-27.449 3.9451-45 5.056-22.333 1.4136-96.157 7.0244-125.5 9.5383-6.6 0.56543-27.474 2.3638-46.387 3.9964s-34.438 2.9651-34.5 2.9612c-0.0622-0.004-6.863-3.8607-15.113-8.5706zm-13-27.334c-11.55-7.7121-28.875-19.098-38.5-25.302-9.625-6.2041-26.95-17.549-38.5-25.211-11.55-7.6621-21.709-13.885-22.576-13.828-0.86676 0.0567-15.112 3.062-31.655 6.6784-16.544 3.6164-30.347 6.5753-30.674 6.5753-0.32718 0-0.59488-1.3051-0.59488-2.9003 0-3.1769-1.5012-2.5911 17-6.6334 17.815-3.8925 50.376-10.616 51.84-10.704 0.91294-0.0552 14.26 8.2487 29.66 18.453s42.764 28.043 60.809 39.64l32.809 21.087 15.691-0.94288c8.6303-0.51859 26.266-1.4058 39.191-1.9715 12.925-0.56575 48.7-2.153 79.5-3.5271 30.8-1.3742 67.25-2.9098 81-3.4126l25-0.91408 34.5-7.0298c18.975-3.8664 47.82-9.7556 64.1-13.087 16.28-3.3315 30.607-6.0573 31.839-6.0573 1.2315 0 13.683 6.3447 27.67 14.099 13.987 7.7546 25.985 13.88 26.661 13.612 0.67647-0.2681 6.855-4.7285 13.73-9.912s20.825-15.659 31-23.279c33.576-25.145 29.899-22.816 34.996-22.17 84.949 10.76 143.79 18.178 156 19.669 8.525 1.0407 35.21 4.3871 59.301 7.4363 24.09 3.0493 44.453 5.5441 45.25 5.5441 0.9408 0 1.4491 1.0436 1.4491 2.975 0 2.6967-0.2572 2.9295-2.75 2.4885-3.5446-0.62708-125.96-16.132-141.75-17.954-6.6-0.76153-35.32-4.339-63.823-7.9499l-51.823-6.5653-15.677 11.791c-8.6223 6.4851-25.577 19.238-37.677 28.34-12.1 9.1017-23.125 17.269-24.5 18.149-2.8041 1.7946 1.8557 4.058-40.769-19.802l-18.269-10.226-33.731 6.9016c-18.552 3.7959-47.906 9.7617-65.231 13.257l-31.5 6.3558-24 0.64424c-24.108 0.64713-73.888 2.6689-113 4.5894-26.432 1.2979-80.884 3.8329-98 4.5624l-13 0.55407-21-14.022zm8.8079-14.887c-39.072-30.373-54.644-42.695-69.808-55.238-7.7-6.369-15.407-12.61-17.126-13.868-3.6376-2.662 1.1822-3.3565-45.006 6.485-16.572 3.5312-31.197 6.4169-32.5 6.4127-3.9978-0.013-6.8708-6.3789-6.8556-15.19l0.0126-7.3019 4.3633 8c2.3998 4.4 5.0884 8.1444 5.9746 8.3209 0.88624 0.17648 8.9296-1.2502 17.874-3.1704 8.9445-1.9202 25.263-5.3485 36.263-7.6185s20.708-4.3358 21.573-4.5908c1.6385-0.48285 7.8991 4.1965 30.439 22.751 7.1436 5.8805 26.713 21.283 43.488 34.227l30.5 23.535 12.5 0.0127c6.875 0.007 43.55-0.63167 81.5-1.4192s87.675-1.7275 110.5-2.0889l41.5-0.65701 39.5-9.896c45.778-11.469 75.937-19.215 83.144-21.355l5.0704-1.5057 18.643 10.601c10.254 5.8304 20.136 11.449 21.962 12.485l3.3188 1.884 16.181-12.348c34.551-26.367 45.975-34.665 47.722-34.665 0.998 0 5.1097 0.44327 9.137 0.98504s15.872 1.88 26.322 2.9738c19.853 2.0781 41.494 4.4674 100 11.041 19.25 2.1629 41.3 4.6147 49 5.4486 22.856 2.4751 84.312 9.4847 93.75 10.693 8.2226 1.0527 8.75 1.263 8.75 3.4894 0 1.3157-0.5969 2.3692-1.3425 2.3692-0.7384 0-13.001-1.3593-27.25-3.0208-14.249-1.6614-34.008-3.9163-43.908-5.0108-16.027-1.772-35.145-3.9206-98-11.014-61.176-6.9043-107.36-11.935-109.64-11.944-2.6022-0.01-10.543 5.8016-52.364 38.324-8.25 6.4156-15.24 11.665-15.534 11.665-0.29391 0.00034-10.768-5.8494-23.275-12.999-12.507-7.15-23.5-13-24.428-13-0.92796 0-29.379 6.9296-63.225 15.399l-61.538 15.399-47.5 0.64856c-26.125 0.35671-75.85 1.2959-110.5 2.0871-34.65 0.79119-70.875 1.4224-80.5 1.4027l-17.5-0.0359-11.192-8.7004zm206.69-9.2408c-15.125-0.37706-65.075-1.0372-111-1.4669l-83.5-0.78138-22.323-21.606c-32.45-31.4-62.131-59.1-63.333-59.1-0.5742 0-18.241 3.825-39.259 8.5s-38.693 8.5-39.277 8.5c-0.58411 0-2.7538-3.2625-4.8216-7.25-2.068-3.99-6.1734-11.59-9.1238-16.9-5.0344-9.056-5.3633-10.071-5.3491-16.5l0.0152-6.8503 5.6423 10.5c3.1033 5.775 7.5148 13.996 9.8034 18.268 2.2886 4.2727 5.0302 8.8723 6.0925 10.221l1.9314 2.4528 16-3.5071c38.245-8.3832 58.271-12.609 62-13.084 3.9045-0.49737 4.2506-0.27731 14.5 9.2211 5.775 5.3518 12.525 11.554 15 13.782 4.1973 3.7788 21.298 19.97 48.837 46.238l11.628 11.092 55.017 0.6511c30.26 0.3581 84.942 1.17 121.52 1.8042l66.5 1.153 20.5-6.2314c11.275-3.4273 28.6-8.6484 38.5-11.602 9.9-2.9541 28.8-8.6072 42-12.563 13.2-3.9554 25.125-7.3665 26.5-7.5803 1.7661-0.27457 7.7838 2.5522 20.5 9.6299 9.9 5.5102 18.533 10.027 19.184 10.037 0.65147 0.01 4.4765-2.5918 8.5-5.7818s15.426-11.936 25.339-19.435l18.024-13.635 6.976 0.87192c3.8368 0.47956 14.176 1.5624 22.976 2.4063 8.8 0.84392 22.525 2.2344 30.5 3.09 7.975 0.85554 24.85 2.655 37.5 3.9989s39.65 4.2305 60 6.4147c35.349 3.794 64.239 6.5266 117 11.066 31.462 2.707 30.5 2.5293 30.5 5.6343 0 1.9216-0.4166 2.4056-1.75 2.033-0.9625-0.26897-5.8-0.78087-10.75-1.1376-23.057-1.6614-111.19-9.904-139-13-62.896-7.0017-95.409-10.498-111.5-11.99-9.075-0.84131-21.052-2.0511-26.615-2.6885l-10.115-1.1588-10.385 7.9638c-5.7116 4.3801-17.503 13.567-26.204 20.414-8.7005 6.8478-16.352 12.829-17.004 13.291-1.0601 0.75126-9.1541-3.3552-37.676-19.115l-5.5-3.039-16.5 4.9566c-9.075 2.7261-37.307 11.234-62.738 18.907l-46.238 13.95-15.762-0.17745c-8.669-0.0976-28.137-0.48595-43.262-0.86301zm-2-14.527c-46.809-2.1365-179.09-7.4493-185.18-7.4375-2.234 0.004-5.4643-3.1919-19.451-19.245-16.508-18.947-35.604-40.197-49.034-54.564l-6.8368-7.3139-41.49 9.091c-22.822 4.999-42.096 8.969-42.835 8.819-1.276-0.27-17.079-29.623-26.694-49.59-3.5203-7.311-4.4831-10.413-4.4831-14.446v-5.1357l2.8172 4.4458c1.5495 2.4452 8.7906 16.146 16.091 30.446 7.3008 14.3 13.905 26.656 14.675 27.457 1.4526 1.5104 10.32-0.17407 68.66-13.043 9.7594-2.1527 18.331-3.9141 19.047-3.9141 1.4727 0 25.863 25.977 51.117 54.442 9.2995 10.482 18.465 20.805 20.367 22.94l3.4585 3.8821 30.01 1.3282c16.506 0.73052 52.566 2.2572 80.133 3.3925 27.568 1.1354 60.023 2.4847 72.123 2.9985 57.527 2.443 54.241 2.4596 62-0.31363 3.85-1.376 13.3-4.75 21-7.4978s18.95-6.7855 25-8.9728c29.177-10.548 38.296-13.802 54.5-19.448l17.5-6.0977 11 5.2439c6.05 2.8841 14.884 7.0526 19.631 9.2632l8.6312 4.0194 22.649-16.182 22.649-16.182 36.22 4.085c19.921 2.2468 43.42 4.7873 52.22 5.6456 8.8 0.85834 31.75 3.3436 51 5.5228 50.871 5.7588 50.432 5.7158 81.5 7.9653 15.675 1.1349 42.174 3.1666 58.886 4.5148s31.674 2.4513 33.25 2.4513c2.3887 0 2.8644 0.41518 2.8644 2.5 0 1.375-0.3375 2.4996-0.75 2.4991-0.4125-0.00047-30-2.2484-65.75-4.9954-59.24-4.5519-88.892-7.3101-108-10.046-6.6732-0.95544-31.366-3.6935-103.45-11.471l-32.447-3.5009-6.0531 4.227c-3.3292 2.3248-11.678 8.3038-18.553 13.287-6.875 4.9828-15.318 11.027-18.762 13.433l-6.2615 4.3732-19.917-9.653c-10.954-5.3091-20.764-9.653-21.801-9.653-1.8055 0-14.353 4.0369-22.76 7.3223-4.5549 1.7802-67.679 24.644-86.37 31.284-8.5119 3.0237-13.814 4.3532-17 4.2628-2.5466-0.0722-27.355-1.1686-55.13-2.4363zm51.5-12.088c-1.65-0.1847-18.75-1.2394-38-2.3438s-48.95-2.8863-66-3.9597c-32.882-2.0702-50.533-3.1067-94-5.5201-36.048-2.0014-34.377-1.7015-37.921-6.8098-4.5631-6.5786-28.653-39.422-42.902-58.491-9.3818-12.555-13.359-17.148-14.545-16.798-0.8979 0.26524-15.808 3.4386-33.133 7.052-17.325 3.6133-37.521 7.9099-44.879 9.5478-7.3585 1.638-13.724 2.9781-14.146 2.9781-0.42183 0-4.2584-7.0875-8.5256-15.75-4.2673-8.6625-8.2885-16.425-8.9361-17.25-0.644-0.825-2.194-3.975-3.44-7-1.247-3.025-4.515-10-7.263-15.5-6.7116-13.434-13.806-31.268-13.806-34.707v-2.7934h479.5 479.5v48.634c0 51.19-0.2464 54.37-4.5246 58.389-2.2185 2.0842-2.3939 2.0893-36.102 1.058-18.63-0.57-55.473-1.5358-81.873-2.1462-47.739-1.1038-48.144-1.1309-74.5-4.9811-29.818-4.356-117.71-17.498-125.73-18.799-5.1801-0.84085-5.4443-0.7522-29.803 9.9986-13.517 5.9658-25.565 10.862-26.774 10.881-1.2084 0.0188-13.946-2.2977-28.306-5.1478l-26.109-5.182-12.391 6.7859c-6.8151 3.7322-14.641 8.0202-17.391 9.5289-16.57 9.0903-42.107 22.766-48.727 26.095-8.9256 4.4877-9.4166 4.5246-32.335 2.4273-8.7656-0.80211-27.412-2.3935-41.437-3.5363-14.025-1.1429-35.4-2.9706-47.5-4.0615-12.1-1.091-36.175-3.0818-53.5-4.424-17.325-1.3423-37.855-2.9739-45.622-3.6258l-14.122-1.1853-3.2163-7.1043c-1.769-3.9074-5.9283-13.404-9.243-21.104s-6.383-14.45-6.8184-15c-0.43549-0.55-3.8248-8.65-7.5318-18s-7.115-17.419-7.5733-17.93c-0.51161-0.57105-3.2541-0.46759-7.1032 0.26798-3.4484 0.65899-19.77 3.6793-36.27 6.7118s-39.599 7.3254-51.331 9.5398-22.002 3.8877-22.822 3.7184c-0.869-0.185-3.906-6.177-7.254-14.314-3.168-7.7-6.27-14.9-6.893-16-1.825-3.222-7.694-16.478-10.293-23.25l-2.399-6.25h-5.255c-2.8903 0-5.2551 0.36467-5.2551 0.81039 0 1.2773 6.2573 16.467 10.994 26.69 2.8378 6.1238 16.199 36.66 18.049 41.25 0.49878 1.2375 1.4576 2.25 2.1308 2.25 1.5952 0 80.943-15.398 95.656-18.563 6.2315-1.3404 12.082-2.4292 13-2.4196 0.99345 0.01039 3.2732 2.7449 5.6274 6.75 2.1766 3.7029 6.7264 11.008 10.111 16.233 3.3844 5.225 7.2771 11.525 8.6504 14 3.8761 6.9857 17.636 30.852 21.475 37.249 2.103 3.504 4.3009 5.9315 5.6285 6.2164 1.198 0.25712 9.6032 0.95113 18.678 1.5422 9.075 0.59112 34.05 2.3896 55.5 3.9967s55.425 4.0799 75.5 5.4952 44.352 3.1833 53.948 3.929l17.448 1.3558 18.052-8.4875c18.98-8.9238 25.103-11.855 58.955-28.227 11.497-5.56 21.886-10.356 23.087-10.657 1.8526-0.46496 11.211 1.8972 43.972 11.099l4.9624 1.3938 15.538-8.5954c8.5456-4.7275 18.303-10.119 21.684-11.981l6.1462-3.3854 15.854 2.0742c8.7196 1.1408 30.479 4.0625 48.354 6.4926s39.925 5.3572 49 6.5045 17.4 2.2849 18.5 2.5279c5.3041 1.1717 42.222 5.4203 51.5 5.9266 5.775 0.3152 24.45 1.0094 41.5 1.5427 51.154 1.6 89.502 3.0066 98.25 3.6038 7.2575 0.49549 8.25 0.79305 8.25 2.4735 0 2.3661 0.7592 2.3581-41.5 0.43731-17.6-0.79995-50-1.9411-72-2.536-36.499-0.98683-42.188-1.3816-65-4.5101-13.75-1.8857-30.625-4.1386-37.5-5.0063-13.058-1.6481-46.386-6.1813-85.5-11.63-12.65-1.7621-24.125-2.9068-25.5-2.5438-1.375 0.36299-7.675 3.6191-14 7.2359s-16 8.9778-21.5 11.913l-10 5.3376-22.5-6.387c-12.375-3.5128-23.502-6.3902-24.726-6.3941-2.5232-0.008-9.5286 3.2508-55.274 25.713-17.875 8.7771-35.301 17.212-38.724 18.744l-6.2243 2.7857-27.776-2.1178c-15.277-1.1648-34.751-2.584-43.276-3.1538-8.525-0.56983-26.75-1.9005-40.5-2.957-13.75-1.0566-35.35-2.6367-48-3.5115-29.357-2.0301-61.086-4.386-69.739-5.1781-6.6176-0.60584-6.7808-0.69058-9.0939-4.7244-1.2954-2.2591-8.9902-15.807-17.099-30.107-13.86-24.448-24.09-41.532-26.44-44.165-0.74102-0.82993-2.2407-0.87971-5.3306-0.17694-2.3647 0.53784-20.949 4.3082-41.299 8.3785-20.35 4.0704-41.275 8.315-46.5 9.4326-14.756 3.1561-14.076 3.3911-18.002-6.2294-1.852-4.538-5.464-12.75-8.027-18.25-2.564-5.5-5.903-13.118-7.42-16.929-1.5175-3.8111-3.1537-7.6361-3.636-8.5-1.788-3.204-9.916-22.119-9.916-23.077 0-0.5482-2.692-0.994-6-0.994-3.3 0-6 0.14301-6 0.3178 0 0.70589 9.9888 24.65 13.008 31.182 10.436 22.577 12.218 26.324 14.03 29.5 1.0984 1.925 4.32 8.1125 7.1591 13.75 2.8392 5.6375 5.6436 10.25 6.2322 10.25 2.0215-0.00032 91.811-18.346 95.708-19.555 1.7174-0.53275 1.7679-0.4687 42.658 54.056 10.724 14.3 19.688 26.218 19.919 26.485 0.23145 0.26662 17.153 1.4734 37.603 2.6818s55.407 3.3309 77.682 4.7168c22.275 1.3858 57.6 3.5208 78.5 4.7444l38 2.2247 31.5-13.11c17.325-7.2106 34.425-14.24 38-15.621 3.575-1.3809 14.825-5.9101 25-10.065 10.175-4.1547 18.997-7.5546 19.604-7.5553 0.60726-0.00073 10.057 3.3647 21 7.4787l19.896 7.48 12-7.3381c6.6-4.0359 16.71-10.311 22.466-13.945 6.7507-4.2614 11.188-6.4494 12.5-6.1635 1.8922 0.41237 21.854 2.8863 84.034 10.414 13.75 1.6647 31.075 3.736 38.5 4.603 7.425 0.86697 21.825 2.6548 32 3.973s32 3.1026 48.5 3.9652c124.4 6.5039 118.5 6.0675 118.5 8.7711 0 2.3961 6.7341 2.553-74-1.7244-69.008-3.6561-68.132-3.5789-136.5-12.034-11-1.3605-38.675-4.7241-61.5-7.4748s-42.693-5.2074-44.152-5.4593c-2.0808-0.35945-6.2782 1.8534-19.5 10.28-23.615 15.051-28.884 18.172-30.677 18.172-1.338 0-17.835-6.1376-35.055-13.042-2.6858-1.0769-5.6403-1.958-6.5655-1.958-2.182 0-29.323 10.929-75.523 30.41-37.802 15.94-38.13 16.042-48.028 14.934zm14.775-36.963c3.9738-1.9902 23.559-12.389 43.523-23.109l36.298-19.491 26.202 5.116c14.411 2.8138 27.192 5.113 28.402 5.1093 2.1892-0.007 6.2023-1.677 34.8-14.484l15-6.7176 9 1.1412c4.95 0.62766 15.975 2.2489 24.5 3.6028s40.025 6.0859 70 10.516l54.5 8.054 37 0.90622c20.35 0.49843 56.663 1.408 80.696 2.0213 49.258 1.257 48.298 1.3623 50.671-5.5595 1.7271-5.0373 3.7847-35.255 4.7145-69.237l0.73-26.245h-3.9744-3.9743l-1.1245 30.75c-1.0954 29.953-1.2116 31.079-4.4824 43.458-1.8535 7.0147-4.2107 13.65-5.2614 14.811l-1.9035 2.1033-83.539-0.36825-83.54-0.36825-69-11.709-69-11.709-28.159 9.516c-19.141 6.4683-29.55 9.4989-32.5 9.4628-2.3873-0.0293-17.391-1.5418-33.341-3.3612-25.349-2.8916-29.343-3.1351-31.725-1.9339-1.4989 0.75576-13.424 7.987-26.5 16.069-45.565 28.164-43.948 27.275-48.615 26.731-19.814-2.3093-128.74-12.904-164.16-15.966-16.5-1.4268-33.325-2.9072-37.388-3.29l-7.3882-0.69583-4.4343-14.5c-2.4388-7.975-5.9264-19.675-7.7501-26-5.48-18.964-11.78-37.156-13.06-37.645-0.65-0.253-29.64 4.326-64.4 10.174-34.769 5.848-63.783 10.415-64.478 10.148-0.696-0.267-2.075-2.667-3.065-5.333s-2.393-6.198-3.119-7.848c-4.724-10.739-9.854-22.758-11.629-27.25l-2.076-5.25h-4.853-4.853l1.657 4.25c3.1863 8.1742 21.444 49.257 22.251 50.069 0.76893 0.77342 18.991-2.2912 88.076-14.813 16.225-2.9408 30.602-5.4953 31.949-5.6766 2.281-0.30702 2.9043 0.74001 9.0749 15.244 9.67 22.729 28.09 63.222 29.43 64.695 0.75512 0.82999 7.875 1.785 20.6 2.7631 20.987 1.6132 143.19 11.793 166.95 13.907 24.018 2.1372 25.025 2.075 33.275-2.0569zm10.15-22.009c10.491-6.3951 26.416-16.139 35.389-21.652l16.314-10.025 24.186 2.7771c13.302 1.5274 28.686 3.2124 34.186 3.7445l10 0.96745 28-9.664c22.546-7.7814 28.779-9.5712 32-9.1877 2.2 0.26196 17.354 2.7544 33.676 5.5389 16.322 2.7844 46.472 7.8571 67 11.273l37.324 6.2101 79.804 0.41753c43.892 0.22965 80.891 0.1445 82.221-0.18922 3.3067-0.82992 4.2544-2.9631 8.0103-18.03 3.1341-12.573 3.2809-14.074 3.9902-40.803l0.73-27.747h-3.49c-3.4652 0-3.4962 0.03949-4.1221 5.25-0.3468 2.8875-0.6345 11.194-0.6393 18.459-0.01 11.541-0.5038 15.54-3.9289 31.663-2.1562 10.15-4.6374 19.549-5.5139 20.886l-1.5936 2.4322-80.736 0.59804c-76.817 0.56902-81.27 0.50432-91.736-1.3329-6.05-1.062-33.275-6.0296-60.5-11.039-27.225-5.0095-51.75-9.332-54.5-9.6057-4.0384-0.40185-11.443 1.1274-38.5 7.9515l-33.5 8.4491-38.672-2.5339-38.672-2.5339-25.328 19.019c-13.93 10.461-26.499 19.774-27.93 20.696-2.4551 1.5818-3.8998 1.5289-25.5-0.93367-12.594-1.4357-26.047-3.0074-29.897-3.4925-6.9485-0.87559-106-10.9-129-13.055-6.6-0.61846-12.505-1.6317-13.121-2.2518-0.61669-0.62001-2.4819-6.5273-4.1448-13.127-1.663-6.6-5.9959-23.576-9.6287-37.726-3.6328-14.149-6.6052-26.013-6.6052-26.364 0-0.35089-2.1375-0.33464-4.75 0.0361-5.2431 0.74406-52.935 8.1735-77.25 12.034-34.22 5.436-56.265 8.617-57.699 8.327-0.913-0.184-3.203-4.858-5.785-11.805-7.985-21.492-7.003-20-13.167-20-5.2672 0-6.7061 1.1448-4.4619 3.55 1.063 1.1393 15.114 34.11 15.114 35.466 0 2.229 5.9207 1.8248 29.5-2.014 13.75-2.2385 34.675-5.6402 46.5-7.5594 11.825-1.9191 29.721-4.8737 39.768-6.5658 10.048-1.692 18.857-2.8505 19.577-2.5743 1.1965 0.45913 3.8719 8.2314 20.378 59.198 3.028 9.35 5.8862 17.724 6.3514 18.609 0.63134 1.2011 3.0754 1.785 9.636 2.3022 16.654 1.313 104.83 9.6077 123.79 11.645 32.381 3.4794 55.745 5.6716 61.925 5.8103 5.8823 0.13201 6.0638 0.0486 25-11.494zm-11.425-9.8877c6.325-4.6578 15.934-11.735 21.354-15.727 5.4196-3.9919 12.611-9.2314 15.98-11.643l6.1264-4.3852 10.02 0.6614c25.016 1.6513 60.183 3.6731 65.82 3.7842 4.7399 0.0934 13.851-1.8095 38.699-8.0825 17.875-4.5126 33.625-8.2381 35-8.279 1.375-0.04085 8.575 1.0873 16 2.507 13.219 2.5275 54.195 10.052 93 17.078l19.5 3.5306 79.242-0.62729c91.13-0.7214 81.342 0.67345 84.381-12.025 5.7138-23.881 6.2218-28.295 5.9878-52.026l-0.1-11.248h-3.5-3.5v8.7983c0 5.7823-1.1863 15.181-3.4607 27.419-5.1145 27.52-5.638 29.401-8.3968 30.179-0.9034 0.25459-37.868 0.7503-82.142 1.1016l-80.5 0.63871-45-9.053c-24.75-4.9792-48.963-9.8364-53.806-10.794l-8.8062-1.741-40.694 6.7431-40.694 6.7431-46.5 0.009-46.5 0.009-19 17.966c-15.014 14.197-19.571 17.968-21.72 17.974-1.4963 0.004-13.646-1.3306-27-2.9666-20.462-2.507-118.94-13.686-139.67-15.856-4.1384-0.43308-6.6676-1.1984-7.1689-2.1692-0.42602-0.825-1.5297-5.1-2.4527-9.5-2.8699-13.681-7.4919-32.322-12.238-49.357l-4.5572-16.357-6.0946 0.4886c-3.352 0.26873-34.274 4.5921-68.716 9.6076-34.442 5.0154-65.445 9.231-68.895 9.368l-6.274 0.24901-3.0122-9.75-3.0122-9.75h-4.3425c-2.3883 0-4.3424 0.45969-4.3424 1.0215 0 0.85515 3.0183 9.0729 8.1523 22.195 0.5846 1.4943 1.577 3.1358 2.2053 3.6479 0.71965 0.58649 7.0634 0.0406 17.142-1.4751 8.8-1.3234 23.65-3.528 33-4.899 9.35-1.3711 24.2-3.6235 33-5.0055 44.59-7.0022 61.059-9.3222 61.66-8.6855 0.36338 0.38526 2.1127 6.1005 3.8874 12.7 1.7747 6.6 4.7075 17.4 6.5172 24 1.8098 6.6 4.9152 18.024 6.9008 25.386 3.6324 13.468 4.9833 17.114 6.3419 17.114 4.116 0 123.35 12.408 162.69 16.93 8.8 1.0116 16.45 1.8806 17 1.9312s6.175-3.7189 12.5-8.3767zm3.401-23.158 18.901-17.631 46.099 0.65983 46.099 0.65983 21-3.4296c11.55-1.8863 30.9-5.0897 43-7.1187l22-3.6891 55.5 10.996 55.5 10.996 77-0.9148c42.35-0.50314 77.935-1.1157 79.079-1.3611 2.6457-0.56814 4.0768-3.7469 5.507-12.232 0.63-3.716 2.26-12.384 3.63-19.259 1.3657-6.875 2.7263-16.662 3.0235-21.75l0.5403-9.25h-3.9696-3.9697l-4.1986 25.625c-2.3092 14.094-4.6325 26.436-5.163 27.428-1.3428 2.509-5.3657 2.7953-48.972 3.4849-20.625 0.32616-53.109 0.98764-72.188 1.4699l-34.688 0.87692-26.812-5.8843c-14.74-3.237-36.03-7.936-47.3-10.443s-22.6-4.558-25.18-4.558c-2.5805 0-11.585 0.88328-20.011 1.9628-52.37 6.7101-78.194 8.9473-115.32 9.9906-20.35 0.57184-43.866 1.3138-52.257 1.6488l-15.257 0.60906-2.1714 3.1444c-7.0129 10.155-19.264 25.88-20.548 26.372-0.82696 0.31733-11.463-0.6253-23.635-2.0947s-30.907-3.5816-41.632-4.6937c-29.352-3.0436-81.147-8.896-84.121-9.505-2.4436-0.50037-2.806-1.3305-5.3411-12.236-2.84-12.236-9.63-38.945-12.18-47.948l-1.49-5.25h-5.43c-2.986 0-5.429 0.42677-5.429 0.94838s1.1034 4.4591 2.4519 8.75c2.1296 6.776 12.065 44.294 13.983 52.802 2.1256 9.4293 2.5719 10.343 5.3337 10.916 1.5025 0.31183 13.532 1.7152 26.732 3.1186s29.85 3.1804 37 3.949c19.105 2.0534 55.955 6.3822 72 8.4577 7.7 0.99604 16.25 1.8573 19 1.9138l5 0.10287 18.901-17.631zm-15.54-10.329c8.8784-11.957 10.802-14.009 13.5-14.404 1.7305-0.25358 28.346-1.1834 59.146-2.0663 39.51-1.1325 60.564-2.1547 71.5-3.4712 8.525-1.0263 29.45-3.512 46.5-5.5239l31-3.658 34 7.5034c18.7 4.1269 40.525 8.9293 48.5 10.672l14.5 3.1687 45.5-1.0839c25.025-0.59615 58.775-1.3587 75-1.6946 24.785-0.51312 29.78-0.86136 31.25-2.1788 0.9625-0.86244 1.7479-2.2858 1.7453-3.1631 0-0.87726 0.8703-6.32 1.9397-12.095 2.5846-13.957 5.065-30.045 5.065-32.851 0-2.0449-0.411-2.2341-4.25-1.9563l-4.25 0.307-0.71 6.5c-1.4175 13.007-5.0606 33.985-6.1622 35.485-1.3382 1.8211-0.97 1.8035-87.925 4.204l-61.796 1.706-22.204-5.2925c-12.212-2.9108-31.119-7.4753-42.015-10.143l-19.81-4.8508-14.69 1.3709c-76.757 7.1633-89.199 8.0127-190.69 13.018-6.05 0.29837-14.895 0.80302-19.655 1.1214l-8.6554 0.57894-2.5395 7.1513c-4.288 12.075-6.6085 16.651-8.4466 16.656-0.93677 0.003-20.153-1.8177-42.703-4.0451s-49.728-4.9048-60.395-5.9498c-10.67-1.044-19.76-2.262-20.21-2.706-0.44-0.444-2.62-7.781-4.85-16.305-2.22-8.524-5.46-20.786-7.21-27.248l-3.16-11.75h-5.84c-3.3606 0-5.8381 0.43964-5.8381 1.036 0 0.5698 1.7691 7.2073 3.9313 14.75s5.8175 21.003 8.1229 29.912c3.9612 15.307 4.336 16.226 6.8187 16.711 1.4449 0.28253 15.902 1.9416 32.127 3.6869s44.125 4.8625 62 6.9272 34.525 3.7904 37 3.8349l4.5 0.0809 10.354-13.943zm-15.34-10.995c2.047-5.225 4.0578-9.8645 4.4683-10.31 0.87702-0.95172 16.675-1.911 76.526-4.6469 50.985-2.3306 68.239-3.4131 96.5-6.0542 67.749-6.3314 66.522-6.2573 74.309-4.4932 3.9549 0.89592 23.002 5.4313 42.327 10.079l35.136 8.4496 32.864-1.0207c37.297-1.1584 102.99-2.9667 108.58-2.9885 2.6854-0.0105 4.0123-0.57038 4.7883-2.0203 1.03-1.932 5.95-32.139 5.98-36.745 0.01-1.9902-0.49-2.25-4.33-2.25h-4.3422l-1.7584 14.75c-0.9671 8.1125-2.3539 15.694-3.0817 16.849-1.2461 1.9761-2.4805 2.138-21.15 2.7729-10.904 0.37087-29.276 1.0988-40.826 1.6177-11.55 0.51885-32.978 1.4518-47.617 2.0732l-26.617 1.1299-40.512-10.117-40.512-10.117-26.87 2.0369c-14.779 1.1203-35.195 2.7004-45.37 3.5113-10.175 0.81094-39.2 2.6231-64.5 4.0269-66.358 3.6821-121.49 7.1192-121.97 7.6044-0.23089 0.23089-1.1542 4.0068-2.0518 8.3908-0.89762 4.3841-1.9346 8.2846-2.3044 8.6678-0.36978 0.38323-13.722-0.36511-29.672-1.663s-36.2-2.9118-45-3.5866c-8.8-0.67478-16.481-1.7264-17.069-2.337-0.6-0.611-1.86-3.811-2.82-7.111-0.95-3.3-4.06-13.312-6.89-22.25l-5.16-16.25h-4.78c-2.8819 0-4.7859 0.44811-4.7859 1.1264 0 0.61949 1.317 5.682 2.9267 11.25s4.8129 16.986 7.1182 25.374c3.2014 11.647 4.577 15.26 5.8233 15.291 0.89749 0.02246 25.257 2.4279 54.132 5.3453 38.144 3.854 52.812 5.005 53.642 4.2092 0.62-0.602 2.81-5.37 4.86-10.595zm-20.074-2.889c0.30218-0.48893 1.2409-4.1761 2.086-8.1936 0.84512-4.0176 1.7324-7.5005 1.9717-7.7398 0.58717-0.58717 18.262-1.7108 73.511-4.6733 68.324-3.6636 126.59-7.4342 179-11.583l14.5-1.148 40.846 10.142c39.897 9.9063 41.048 10.129 49.5 9.5864 4.7594-0.30566 29.128-1.4334 54.154-2.5061 67.701-2.902 67.887-2.9151 68.927-4.8589 0.8396-1.5688 4.0731-22.484 4.0731-26.346-0.01-1.3686-0.81-1.791-3.4-1.791-3.7535 0-3.6315-0.34289-5.2016 14.628-0.3534 3.3702-0.9609 6.6425-1.3499 7.2719-0.4716 0.7631-8.8457 1.47-25.135 2.1216-13.435 0.53748-25.552 1.1916-26.927 1.4537-1.375 0.26205-17.35 1.4038-35.5 2.5372l-33 2.0608-19-4.4817c-10.45-2.4649-29.276-6.9813-41.836-10.036-14.051-3.4178-25.015-5.5522-28.5-5.5482-3.1153 0.0036-30.414 1.5794-60.664 3.5019-30.25 1.9224-73.9 4.621-97 5.9968-56.009 3.3359-116.62 7.4528-117.47 7.9789-0.3778 0.23349-1.2454 2.9201-1.928 5.9702l-1.24 5.544-6.68-0.05c-9.0247-0.06812-49.09-2.5232-49.583-3.0384-0.21685-0.22618-3.1512-7.5503-6.5207-16.276-8.11-20.997-7.21-19.636-13.01-19.636h-4.8592l5.357 16.25c2.9464 8.9375 6.1614 18.725 7.1444 21.75l1.7874 5.5 36.5 3.119c20.075 1.7154 37.036 3.1779 37.691 3.25 0.65504 0.07205 1.4382-0.26903 1.7404-0.75796zm-16.43-18.361c1.6582-6.4778 1.8038-6.75 3.6119-6.75 0.92705 0 19.504-1.1133 41.281-2.4739 21.778-1.3606 65.696-4.0612 97.596-6.0013 69.982-4.2561 100.52-6.1648 126.96-7.934 19.656-1.3156 20.086-1.3018 28.5 0.91225 7.6745 2.0195 27.429 6.7784 64.173 15.46 9.7682 2.3079 14.074 2.8666 19 2.4656 27.489-2.2378 65.291-4.661 85.209-5.4621 13.112-0.52738 24.196-1.1793 24.632-1.4488 0.436-0.26943 1.0897-3.5336 1.4527-7.2538 0.37-3.72 0.91-8.0015 1.2-9.514 0.49-2.5038 0.27-2.75-2.43-2.75-3.2213 0-4.1865 1.3871-4.1865 6.0167 0 1.5692-0.4388 4.0074-0.9752 5.4182-0.9707 2.5531-1.0305 2.5651-12.75 2.5645-10.294-0.000537-27.063 1.3412-62.275 4.9827-28.074 2.9034-24.776 3.2418-72.5-7.4382-23.65-5.2937-44.54-10.04-46.41-10.55-2.38-0.6441-20.16 0.26-58.5 2.9761-58.244 4.1253-70.58 4.8392-139.08 8.0494-23.65 1.1083-54.925 2.6813-69.5 3.4956s-27.87 1.4813-29.543 1.4822c-2.6701 0.0015-3.2334 0.52288-4.5929 4.2517l-1.5496 4.25h-10.407-10.407l-6.4104-12.75-6.43-12.75h-5.34c-2.9368 0-5.3396 0.1536-5.3396 0.34134 0 0.60212 13.049 32.041 13.476 32.468 0.64527 0.64527 18.969 1.8847 30.235 2.0452l10.21 0.146 1.09-4.25zm-16.2-12.855 1.69-3.395l15-0.71445c8.25-0.39294 32.775-1.6245 54.5-2.7369 21.725-1.1123 48.95-2.4684 60.5-3.0134 49.737-2.3471 66.772-3.3161 96.5-5.4893l31.5-2.3027-38-0.11211c-20.9-0.06166-47.675 0.32545-59.5 0.86024-21.258 0.96141-36.918 1.5889-112 4.4874-21.175 0.81746-41.569 1.6614-45.321 1.8753l-6.8208 0.38903-2.5621-3.8715c-2.52-3.8103-2.66-3.8716-8.82-3.8716h-6.2601l5.643 10.95c4.6575 9.0377 6.0796 11.008 8.143 11.283 3.0617 0.408 3.6583-0.03786 5.8053-4.3384zm422.7-1.864c35.48-3.679 52.5-5.031 63.31-5.031 7.0539 0 11.199-0.41504 11.984-1.2 0.66-0.66 1.2-3.135 1.2-5.5 0-4.0725-0.1526-4.3-2.8834-4.3-1.9937 0-3.0369 0.58736-3.3812 1.9037-0.4541 1.7367-1.758 1.9374-14.867 2.2881-9.5419 0.25529-23.464 1.6925-41.442 4.2784l-27.074 3.894-30.926-6.1826c-29.931-5.9835-31.409-6.1803-45.926-6.1123l-15 0.07028 10.5 2.4593c5.775 1.3526 20.85 4.7085 33.5 7.4575s25.475 5.6111 28.5 6.3603c7.6461 1.8936 10.888 1.8551 32.505-0.38581zm-674.75-2.567c22.049-2.832 88.913-12.304 91.244-12.926 0.825-0.22007-7.725-0.26783-19-0.10613-17.194 0.24658-25.499 0.95858-51.5 4.415-37.793 5.024-37.271 5.005-38.073 1.403-1.381-6.2076-1.418-6.25-5.369-6.25h-3.8085l2.4078 6.75c1.3243 3.7125 2.6043 7.3125 2.8445 8 0.53936 1.5437-1.9457 1.6941 21.256-1.2859zm689.74-8.5328c12.1-1.7593 28.525-3.5088 36.5-3.8878 13.492-0.64121 12.693-0.7013-11.5-0.86472-22.551-0.15233-27.439 0.09734-36.848 1.8823-10.575 2.0062-11.078 2.0141-20 0.31181-5.836-1.1134-15.131-1.8377-25.652-1.9988l-16.5-0.25271 20 4.3596c23.158 5.048 22.42 5.0418 54 0.45028zm-685-1.4947c25.131-3.0342 25.235-3.1882 2.25-3.3158-20.468-0.11362-21.75-0.01269-21.75 1.7126 0 3.7705 0.9217 3.8462 19.5 1.6032zm305.75-0.9515c21.04-0.83323 40.055-1.6546 42.255-1.8253 2.2-0.17068-19.062-0.38895-47.25-0.48504s-51.25 0.18529-51.25 0.62529c0 2.2735 2.9517 3.2 10.195 3.2 4.2872 0 25.01-0.68173 46.05-1.515zm354-2.1473c-0.6875-0.27741-1.8125-0.27741-2.5 0s-0.125 0.50439 1.25 0.50439 1.9375-0.22697 1.25-0.50439z"/>
</svg>
