<?xml version="1.0" encoding="UTF-8" standalone="no"?>
<!-- Created with Inkscape (http://www.inkscape.org/) -->
<svg id="svg3515" xmlns:rdf="http://www.w3.org/1999/02/22-rdf-syntax-ns#" xmlns="http://www.w3.org/2000/svg" height="527.38" viewBox="0 0 887.06647 527.37561" width="887.07" version="1.1" xmlns:cc="http://creativecommons.org/ns#" xmlns:dc="http://purl.org/dc/elements/1.1/">
 <metadata id="metadata3521">
  <rdf:RDF>
   <cc:Work rdf:about="">
    <dc:format>image/svg+xml</dc:format>
    <dc:type rdf:resource="http://purl.org/dc/dcmitype/StillImage"/>
    <dc:title/>
   </cc:Work>
  </rdf:RDF>
 </metadata>
 <path id="path3525" d="m505.42 526.81c-16.5-0.50465-39-0.63132-50-0.2815-14.175 0.4508-25.097 0.0422-37.5-1.4026-9.625-1.1213-22-2.5325-27.5-3.1361-15.99-1.7548-37.461-5.8708-49.375-9.4651-3.7812-1.1408-9.6875-2.5394-13.125-3.108-3.4375-0.56865-9.0625-1.6064-12.5-2.3061-3.4375-0.69968-15.531-1.8608-26.875-2.5802-11.344-0.71942-22.031-1.5129-23.75-1.7633-15.214-2.2167-33.409-4.4887-40.625-5.0727-14.434-1.1682-45.061-7.3731-68.125-13.802-10.729-2.9905-39.951-14.46-46.875-18.399-13.852-7.8799-22.336-11.787-46.25-21.3-13.75-5.4697-27.36-11.015-30.244-12.323-2.8842-1.308-5.5235-2.3782-5.8653-2.3782-0.34176 0-4.1798-2.2312-8.5291-4.9581-8.9628-5.6197-14.637-13.699-17.335-24.683-1.3437-5.4707-1.2895-8.4798 0.3376-18.75 1.066-6.7284 2.7781-15.21 3.8047-18.847 1.8978-6.7246 6.2967-12.761 9.2991-12.761 1.2348 0 1.6571-2.4899 1.6571-9.7704 0-12.443 1.9361-22.925 5.699-30.855 5.6734-11.956 10.291-15.863 27.426-23.209 7.1584-3.0687 28.22-9.7102 33.125-10.446 16.962-2.5433 46.616-8.9646 59.375-12.857 5.5-1.6779 17.818-4.7145 27.373-6.7478 9.555-2.0334 17.817-3.9716 18.36-4.3071 0.54288-0.33553 6.2252-1.9548 12.627-3.5985 6.4022-1.6436 17.265-5.0659 24.14-7.605 15.197-5.6125 24.685-8.3031 41.875-11.874 7.2188-1.4998 15.627-3.5464 18.685-4.5481 3.0582-1.0017 9.2803-2.6038 13.827-3.5602 4.5466-0.95639 11.296-3.2606 14.999-5.1204 4.8733-2.4477 10.547-3.8588 20.548-5.1098 7.5986-0.95056 15.222-2.2363 16.941-2.8571 1.7188-0.62084 5.0938-1.5198 7.5-1.9976 5.1889-1.0304 46.359-17.48 59.161-23.637 23.684-11.392 30.411-16.425 40.13-30.025 11.082-15.507 13.408-20.885 13.925-32.194 0.99783-21.855 8.0452-54.304 13.68-62.988 0.957-1.4748 2.8644-5.8806 4.2386-9.7905 3.1525-8.9693 8.444-18.07 11.099-19.089 2.4147-0.92661 6.7859-5.6498 10.286-11.115 3.7384-5.8365 14.749-13.589 21.903-15.423 7.6819-1.9687 10.33-0.85143 26.831 11.322 2.4036 1.7732 10.839 7.8979 18.745 13.61 7.9062 5.7126 15 11.152 15.763 12.088 0.7633 0.93612 1.8074 1.702 2.3201 1.702 0.51277 0 3.063 1.6875 5.6671 3.75s5.2163 3.7564 5.8049 3.7642c1.1542 0.0153 17.775 17.709 19.794 21.072 0.67325 1.1214 1.2454 9.6326 1.2714 18.914l0.0472 16.875 9.9786-0.0804c13.263-0.10687 39.363-6.6521 51.229-12.847 9.081-4.7409 26.932-17.524 43.125-30.881 10.901-8.9918 21.346-15.81 27.374-17.867 6.1111-2.0859 22.965-1.785 31.009 0.55352 5.799 1.6858 8.519 3.6201 17.138 12.188 5.6348 5.601 16.682 17.951 24.549 27.444 7.8674 9.4932 17.02 20.462 20.339 24.375 10.912 12.864 11.291 14.126 11.695 38.99 0.19548 12.031 0.3795 26.756 0.40894 32.722 0.0535 10.837 0.35012 12.007 8.1854 32.278 0.93007 2.4062 1.7157 6.3823 1.7459 8.8356 0.0301 2.4533 0.88585 7.2589 1.9015 10.679 2.4775 8.3426 2.8389 63.582 0.44072 67.36-0.43639 0.6875-1.1435 4.9062-1.5714 9.375-1.1703 12.223-1.7574 17.552-2.6164 23.75-1.5639 11.284-2.1085 14.394-2.6847 15.333-0.32335 0.52696-0.86335 2.4957-1.2 4.375s-2.0185 7.3544-3.7374 12.167c-1.719 4.8125-3.2634 9.3125-3.4321 10-0.16871 0.6875-1.1818 2.9375-2.2514 5-1.0695 2.0625-2.2958 7.2656-2.7251 11.562-0.74217 7.4287-0.64691 7.8125 1.9392 7.8125 2.5699 0 2.5944 0.0916 0.44532 1.6631-2.1282 1.5562-1.6715 2.6636 7.107 17.23 14.666 24.337 17.115 29.831 18.672 41.893 1.5699 12.162 1.6784 11.94-8.3576 17.074-22.806 11.667-35.681 15.038-63.125 16.525-7.9062 0.42858-18.594 1.3013-23.75 1.9394-5.1562 0.63805-15.844 1.4459-23.75 1.7952-7.9062 0.34927-17.469 1.163-21.25 1.8082-3.7812 0.6452-9.6875 1.5055-13.125 1.9118-12.731 1.5048-21.537 3.3676-32.5 6.8753-11.246 3.5981-13.535 3.9751-38.125 6.2791-7.2188 0.67635-14.939 1.7545-17.156 2.3959s-9.2483 1.5248-15.625 1.963c-13.832 0.9507-34.661 3.9604-39.108 5.6509-5.0581 1.9231-27.545 4.7491-41.861 5.2609-7.2188 0.25804-26.625 0.0562-43.125-0.44839zm-58.125-3.4322c0-0.61297-1.4616-1.4813-3.248-1.9297-1.7864-0.44836-7.322-4.5875-12.301-9.198-4.9793-4.6106-11.533-10.667-14.565-13.46-10.326-9.512-26.293-31.878-36.847-51.614-9.3836-17.548-30.675-29.907-58.161-33.764-11.44-1.605-31.858-1.7464-41.23-0.28574-26.187 4.0818-33.82 3.1272-54.273-6.7875-9.5715-4.6398-21.282-9.8097-58.125-25.659-20.933-9.0055-63.722-18.672-91.477-20.666-12.456-0.89487-41.331-5.3587-48.373-7.478-6.3516-1.9116-13.487-0.77821-16.959 2.6936-1.7218 1.7218-1.7244 2.304-0.02509 5.5902 1.4207 2.7473 5.2276 5.3161 15.165 10.232 7.2974 3.6104 15.457 7.6978 18.133 9.0832 5.6405 2.9204 16.24 14.001 19.043 19.907 1.6998 3.582 14.365 20.008 18.566 24.079 0.85412 0.82765 7.3375 6.2391 14.407 12.026 13.846 11.332 29.275 19.783 45.017 24.656 10.174 3.1498 11.838 4.9903 12.015 13.297l0.113 5.2768 10 3.2305c11.897 3.8434 57.595 13.135 64.601 13.135 2.7062 0 8.6843 0.52354 13.285 1.1634 17.811 2.4774 31.284 3.9275 41.489 4.4656 16.897 0.89094 38.849 3.2206 42.141 4.472 1.662 0.6319 4.5745 1.1489 6.4721 1.1489s9.0329 1.6539 15.856 3.6754c6.8232 2.0215 16.343 4.2429 21.156 4.9364 4.8125 0.69355 12.125 1.8043 16.25 2.4682 4.125 0.66398 11.156 1.4956 15.625 1.8481 4.4688 0.3525 8.9957 0.9794 10.06 1.3931 5.5254 2.1482 36.19 3.8972 36.19 2.0642zm-81.941-31.492c-0.5373-0.86936-0.81267-4.998-0.61193-9.1748s0.43531-12.657 0.52126-18.844l0.15628-11.25 4.9824 0.4034c2.7403 0.22186 5.2965 0.91164 5.6804 1.5328 0.86251 1.3956 0.827 35.742-0.0379 36.597-1.679 1.6613-9.7742 2.218-10.691 0.7352zm7.4319-4.3711c1.2162-3.1692 0.83618-28.465-0.45835-30.512-2.4511-3.8769-3.6999 0.95224-3.8811 15.009-0.10175 7.8958-0.12138 15.059-0.0435 15.918 0.20307 2.2406 3.483 1.9302 4.3829-0.41474zm-49.241 1.994c-1.5917-1.0145-1.8387-5.6678-1.6345-30.8 0.18526-22.81 0.61565-29.843 1.875-30.642 0.899-0.57016 4.0252-1.0453 6.947-1.0558 4.1925-0.0151 5.3355 0.44204 5.4214 2.1684 0.2992 6.0093-0.30611 28.054-0.83928 30.566-0.33517 1.5791-0.58501 9.1992-0.55521 16.934l0.0541 14.062-4.6968-0.0191c-2.5832-0.01-5.5406-0.5569-6.5718-1.2142zm7.5611-5.9542c0.0336-1.8906 0.45094-7.9375 0.9274-13.438 0.47646-5.5 0.87084-16.469 0.8764-24.375l0.01-14.375-3.3497-0.38706c-3.0816-0.35608-3.4093 0.0441-4.094 5-0.40934 2.9629-0.87071 14.713-1.0253 26.112-0.21759 16.046 0.10624 21.196 1.4345 22.812 2.6347 3.2062 5.1511 2.5555 5.2206-1.3498zm12.845 5.625c-1.0551-1.6633-0.66719-40.883 0.4513-45.625 0.53008-2.2475 1.5329-2.8125 4.9921-2.8125 2.3808 0 4.9917 0.70312 5.802 1.5625 1.0203 1.0822 1.4317 7.903 1.3381 22.188-0.19055 29.08 0.46062 26.25-6.0411 26.25-3.079 0-5.9926-0.69585-6.5424-1.5625zm9.3113-23.75 0.34273-20.938h-3.0215c-1.6618 0-3.3524 0.86234-3.7568 1.9163-0.40444 1.054-0.72332 10.652-0.70862 21.328l0.0267 19.412 3.3874-0.3907 3.3874-0.39069 0.34272-20.938zm-50.984 20.298-3.1088-0.7442 0.44948-31.183c0.2472-17.151 0.97012-32.168 1.6065-33.371 1.209-2.2858 7.8369-3.0114 10.728-1.1745 1.8656 1.1852 2.3843 29.828 0.93609 51.685-0.95848 14.465-0.98979 14.576-4.2343 15.053-1.7978 0.26387-4.6676 0.14485-6.3774-0.26445zm6.7422-5.2984c1.1805-4.3259 2.5164-51.306 1.5665-55.09-1.0063-4.0093-5.0659-4.5402-7.0055-0.9161-0.75105 1.4033-1.4301 13.474-1.6065 28.554-0.24148 20.65 0.0539 26.557 1.4101 28.194 2.3929 2.889 4.7285 2.5818 5.6354-0.74126zm-32.171 3.1977c-0.6231-0.6156 0.27945-64.386 0.92034-65.027 0.40136-0.40135 3.313-0.98753 6.4703-1.3026l5.7405-0.57288-0.67357 27.321c-0.37045 15.027-0.69352 30.297-0.71793 33.934l-0.0444 6.6126-5.7262-0.36257c-3.1494-0.19941-5.8355-0.4705-5.969-0.60241zm8.7014-6.0879c0.40405-1.6098 0.48484-7.8759 0.17954-13.925-0.3053-6.0487-0.0708-16.904 0.52112-24.123 1.3132-16.015 0.82365-18.75-3.3557-18.75h-3.1012l-0.28911 20.312c-0.50162 35.243 0.0342 41.437 3.4709 40.118 1.0119-0.3883 2.1704-2.0232 2.5744-3.633zm-73.391 2.8902c-0.28921-3.3532 0.36931-40.144 0.7852-43.867 1.3092-11.722 2.9413-22.053 3.6703-23.232 0.95659-1.5478 6.834-1.7571 9.0904-0.32376 1.1662 0.74084 1.4511 8.9137 1.1833 33.941-0.33534 31.33-0.47347 33.012-2.7861 33.917-4.0286 1.5765-11.794 1.294-11.943-0.43458zm10.949-6.5625c0.104-2.0625 0.46117-15.746 0.79374-30.407 0.51135-22.543 0.32451-26.764-1.2106-27.353-2.713-1.0411-3.9621 0.87232-5.5025 8.4293-1.4555 7.1402-2.7721 50.834-1.5894 52.748 0.37444 0.60587 2.1746 0.9287 4.0003 0.71743 2.7176-0.31449 3.3537-1.064 3.5085-4.1341zm15.436 6.9195-3.125-0.78973 0.4603-19.315c0.25317-10.623 0.81567-24.096 1.25-29.939l0.7897-10.624 5 0.39627c7.5921 0.60171 8.502 2.5753 7.5962 16.477-0.42555 6.5312-1.0962 14.969-1.4902 18.75-0.39408 3.7812-1.0854 10.75-1.5362 15.486-0.89235 9.3733-2.5728 11.169-8.9448 9.5588zm5.1425-4.8658c0.0784-0.44206 0.32128-2.2901 0.53977-4.1068s0.9981-7.623 1.7325-12.903c0.73438-5.28 1.3352-15.184 1.3352-22.009 0-10.993-0.24978-12.407-2.1875-12.39-5.0406 0.0441-5.3363 1.3119-6.0769 26.05-0.39549 13.21-0.40658 24.833-0.0246 25.829 0.6509 1.6962 4.3636 1.3239 4.6816-0.46945zm11.575-2.1987c0.35485-4.7328 1.0333-17.324 1.5076-27.98 0.47433-10.656 1.0801-19.622 1.3462-19.923 0.26607-0.30149 3.1434-0.58274 6.3939-0.625l5.9102-0.0768-0.26149 7.5c-0.84435 24.217-1.9997 47.567-2.3747 47.993-0.23861 0.27134-3.2988 0.76864-6.8004 1.1051l-6.3665 0.61175 0.64517-8.6051zm9.9985-4.5426c0.37339-4.9844 1.1918-15.812 1.8188-24.062 0.62696-8.25 0.89876-15.422 0.604-15.938-0.29476-0.51563-1.848-0.9375-3.4516-0.9375-3.7852 0-4.099 1.4714-5.1093 23.954-0.92899 20.673-0.27605 26.046 3.1653 26.046 1.952 0 2.3952-1.3512 2.9729-9.0625zm-75.778 3.8012c-0.37863-0.98674-0.50478-5.1285-0.28032-9.2039 0.96039-17.437 2.172-44.222 2.3141-51.16l0.15367-7.5 4.1794-0.40041c2.664-0.25524 5.0422 0.38042 6.559 1.753 2.2564 2.042 2.343 3.7765 1.6728 33.525-0.38872 17.255-1.182 31.857-1.7628 32.451-0.5808 0.59332-3.5516 1.3601-6.6017 1.7039-4.0981 0.46192-5.7254 0.15678-6.2342-1.169zm9.7531-4.4262c1.5458-3.5293 1.9916-54.67 0.51049-58.566-1.1985-3.1522-1.4665-3.2668-3.3159-1.4174-1.5417 1.5417-2.1303 5.3183-2.5179 16.154-0.81992 22.922-1.0528 44.915-0.48171 45.486 1.3423 1.3423 4.9415 0.31528 5.8051-1.6564zm376.18 53.589c4.125-0.80959 10.875-2.2613 15-3.2259 13.579-3.1755 21.07-4.375 35.625-5.7037 7.9062-0.72178 18.031-1.8314 22.5-2.4658 4.4688-0.63441 15.438-1.7998 24.375-2.5898 12.433-1.099 19.087-2.4056 28.33-5.563 6.6439-2.2697 18.175-5.0372 25.625-6.1499 7.4498-1.1128 16.92-2.5492 21.045-3.1919 4.125-0.64276 14.25-1.4864 22.5-1.8747 8.25-0.38829 16.688-0.94274 18.75-1.2321 2.0625-0.28936 11.344-1.1116 20.625-1.8272 27.509-2.1211 32.907-2.7863 37.34-4.6016 2.3183-0.94938 5.176-1.7261 6.3504-1.7261s8.5588-3.2899 16.41-7.3109c11.484-5.8815 14.19-7.7756 13.843-9.6875-0.23723-1.3071-0.5527-2.5046-0.70102-2.661-0.14834-0.1564-6.7042 0.30566-14.569 1.0268-7.8644 0.72115-17.674 1.5296-21.799 1.7967-7.0924 0.45909-13.898 1.377-31.25 4.2146-4.125 0.67459-9.1875 1.4941-11.25 1.8211-2.0625 0.32702-3.75 0.68264-3.75 0.79027s-1.2844 0.43446-2.8542 0.72631-4.212 1.4203-5.8716 2.5077-3.3266 1.9353-3.7045 1.8843c-0.37791-0.051-4.2044 1.662-8.5034 3.8067s-10.348 4.1026-13.441 4.3508c-7.0225 0.56353-19.997 3.4755-23.256 5.2195-1.3491 0.72203-6.0904 1.5774-10.536 1.9009-4.4458 0.32348-8.927 0.91992-9.9583 1.3254-1.0312 0.40549-6.9047 1.5984-13.052 2.651-6.1474 1.0526-12.456 2.7516-14.019 3.7755-1.5628 1.024-5.0339 1.8618-7.7137 1.8618-2.6797 0-9.4476 1.1387-15.04 2.5305-5.5921 1.3918-12.279 2.4724-14.859 2.4014-5.2658-0.14492-23.632 1.099-30.317 2.0534-2.4062 0.34352-8.315 0.79189-13.131 0.9964-4.8155 0.2045-10.905 1.0812-13.532 1.9481-2.6269 0.86695-6.5327 1.3185-8.6795 1.0034-4.0214-0.59021-18.354 2.0361-22.783 4.175-1.375 0.66392-4.4688 1.1674-6.875 1.1188s-17.875 0.22973-34.375 0.61851c-16.5 0.38879-37.312 0.86691-46.25 1.0625-9.0648 0.19838-17.355 0.97973-18.75 1.7671-1.9416 1.0962 1.4834 1.3881 15.335 1.307 9.8091-0.0575 18.099 0.15996 18.422 0.48311 1.2747 1.2747 71.527 0.103 78.743-1.3134zm-113.12-5.1786c3.7812-0.63895 15.594-1.2125 26.25-1.2746 52.64-0.30661 69.11-1.0427 82.5-3.6871 9.6783-1.9114 14.077-2.4884 24.38-3.1978 5.4971-0.3785 15.901-1.5132 23.12-2.5214 7.2188-1.0083 19.594-2.1455 27.5-2.5272 7.9062-0.38165 15.831-1.2466 17.61-1.9222 1.779-0.67553 3.7478-1.0844 4.375-0.90863 2.4151 0.67685 16.533-1.6503 24.89-4.1028 12.415-3.6434 28.47-7.1571 39.237-8.5873 5.0801-0.67484 9.8614-1.7407 10.625-2.3686 0.76365-0.6279 4.201-1.5394 7.6385-2.0256 12.261-1.734 25.27-5.3607 32.578-9.0818 4.082-2.0785 9.3906-4.3892 11.797-5.1348 10.453-3.2391 39.809-7.9337 59.941-9.5858 22.384-1.8368 26.362-2.4962 27.711-4.5927 1.8745-2.9146-4.3224-17.109-14.199-32.522-4.7208-7.3674-5.6427-8.2145-7.2438-6.6559-1.9767 1.9242-15.516 6.9768-18.666 6.9662-1.6769-0.006-14.225 3.6728-32.543 9.5404-3.0938 0.99094-6.8038 1.9768-8.2444 2.1908-1.4407 0.21402-3.2595 0.7847-4.0417 1.2682-0.78226 0.48346-5.2285 1.7476-9.8806 2.8091-4.652 1.0616-11.833 2.7403-15.958 3.7305-8.0481 1.9319-29.313 5.3946-37.5 6.1062-8.5086 0.7396-22.047 1.7542-32.5 2.4357-11.396 0.74294-16.875 1.7233-16.875 3.0191 0 0.49217-16.453 0.81885-36.562 0.72597-28.363-0.131-37.529 0.21548-40.871 1.545-2.3699 0.94264-5.0926 1.4132-6.0503 1.0457-0.95777-0.36753-2.3838-0.27116-3.1691 0.21415-0.78525 0.4853-2.2814 1.0031-3.3247 1.1507-6.7951 0.96113-12.093 2.2257-13.309 3.1763-0.77637 0.60739-4.4326 1.4104-8.125 1.7844-3.6924 0.37404-8.6822 1.1782-11.088 1.787-2.4062 0.60879-18.719 1.4536-36.25 1.8773-41.715 1.0083-53.662 1.5569-65.058 2.9875-5.1882 0.65127-13.056 1.5548-17.484 2.0079-4.428 0.45307-8.4476 1.0689-8.9322 1.3684-0.48467 0.29954-7.945 0.57801-16.578 0.61883-8.6334 0.0408-15.697 0.33895-15.697 0.66255 0 1.0199 13.382 17.179 17.084 20.63 1.9474 1.8151 7.5671 7.1113 12.488 11.769 13.191 12.486 12.57 12.296 30.428 9.2786zm142.72-22.866c-7.5577-8.0448 2.3387-25.273 12.983-22.601 7.0596 1.7718 50.443-2.9214 64.166-6.9414 2.3329-0.68343 8.2391-1.5839 13.125-2.0011 8.3253-0.71084 9.0933-0.55848 12.224 2.4251 4.3419 4.1375 5.3598 7.6039 3.5301 12.021-1.7283 4.1725-10.33 8.7283-16.545 8.7632-2.2419 0.0126-9.9824 0.87034-17.201 1.9061-7.2188 1.0358-15.938 2.1879-19.375 2.5604-3.4375 0.37245-14.3 2.046-24.139 3.7189-22.452 3.8176-25.307 3.8323-28.768 0.14867zm21.397-2.6399c11.553-2.2862 21.754-3.8213 46.51-6.999 11-1.412 21.705-2.8287 23.79-3.1482 2.0845-0.3195 5.6248-2.2568 7.8674-4.305 3.6207-3.307 3.9103-4.0415 2.5854-6.557-0.8206-1.5581-2.1109-3.2461-2.8674-3.7512-2.1785-1.4546-9.3956-1.0727-18.875 0.9988-13.748 3.0041-21.992 4.4275-28.75 4.9638-15.583 1.2367-28.649 2.0655-35.509 2.2525-6.3966 0.17437-7.997 0.72384-11.285 3.8745-3.9686 3.8032-4.8091 7.7905-2.537 12.036 1.5876 2.9664 6.4682 3.1289 19.071 0.6349zm-476.24-17.27c-1.0018-6.3609-2.2225-7.6987-8.7084-9.543-13.97-3.97-33.16-13.67-42.306-21.39-17.936-15.13-22.109-19.4-32.584-33.36-16.45-21.93-19.738-24.8-39.604-34.6-9.453-4.66-17.187-8.99-17.187-9.63 0-0.63819-0.50191-1.1603-1.1154-1.1603-1.424 0-4.8553 14.658-5.6619 24.186-1.1617 13.723 5.4954 25.872 18.323 33.438 8.4985 5.0126 14.252 7.5311 47.205 20.663 16.446 6.5538 27.368 11.715 45.787 21.639 3.5266 1.9 7.4641 3.8046 8.75 4.2324s7.4004 2.7236 13.588 5.1017c14.171 5.4465 14.308 5.4509 13.517 0.42825zm291.81-4.7909c20.423-2.6837 33.388-3.7096 53.936-4.2678 54.16-1.4712 61.838-1.9818 76.982-5.1192 8.25-1.7092 16.969-3.631 19.375-4.2707 10.827-2.8781 24.743-4.0771 45-3.8769 18.711 0.18488 36.366-0.71548 58.125-2.9642 2.75-0.28421 8.375-0.80787 12.5-1.1637 37.864-3.2662 70.134-8.5103 89.375-14.524 4.4688-1.3967 18.531-5.5751 31.25-9.2854s25.437-7.7859 28.263-9.0569l5.138-2.3109-4.2264-6.5862c-2.3245-3.6224-4.6812-6.3051-5.2371-5.9616-0.55589 0.34357-3.7786-0.23741-7.1616-1.2911-15.975-4.9755-64.558-8.1906-74.718-4.9445-2.8508 0.91088-9.402 2.363-14.558 3.2269-5.1562 0.86392-10.485 2.3422-11.841 3.2852-1.3561 0.94291-4.6424 1.7144-7.3028 1.7144-2.9445 0-6.0808 0.97823-8.0154 2.5-1.748 1.375-4.2585 2.5-5.5788 2.5s-5.9491 1.8831-10.286 4.1847c-4.3371 2.3016-9.6002 4.5276-11.696 4.9467-2.0956 0.41911-5.2753 2.2272-7.066 4.0179-2.1547 2.1547-4.0499 3.0039-5.6034 2.5108-1.3362-0.42409-3.1735 0.081-4.2649 1.1724-1.0546 1.0546-3.0881 1.9174-4.519 1.9174-1.4308 0-3.5648 1.125-4.7421 2.5s-3.1546 2.5-4.394 2.5-5.4738 1.1661-9.4097 2.5912c-3.936 1.4252-10.813 3.1267-15.281 3.7812-4.4688 0.65446-9.5312 1.4602-11.25 1.7907-17.601 3.3837-33.509 2.3958-53.125-3.2993-6.875-1.996-18.688-5.2694-26.25-7.2745-7.5625-2.005-16.281-4.4517-19.375-5.4372-3.0938-0.98544-7.875-2.412-10.625-3.1701-2.75-0.75813-10.976-3.0892-18.28-5.1802-9.9613-2.8518-15.896-3.8092-23.75-3.8316-5.7587-0.0164-12.72-0.57505-15.47-1.2414-12.812-3.1047-44.962-2.3954-53.75 1.1858-10.162 4.1411-16.326 8.2281-25.191 16.704l-10.191 9.7431 4.0518 7.7569c2.2285 4.2663 6.6853 11.859 9.904 16.872l5.8522 9.1152 17.494-0.17625c9.6217-0.097 21.282-0.67405 25.912-1.2824zm190.32-33.136c10.765-1.5178 24.486-4.9488 38.094-9.5261 3.5656-1.1993 4.8946-2.299 4.6327-3.8332-0.22078-1.2932 0.43197-2.1514 1.6363-2.1514 1.102 0 1.6559 0.5625 1.231 1.25-0.96926 1.5683-0.63802 1.5602 4.1255-0.10038 2.6487-0.92335 4.6903-2.9985 6.4563-6.5625 2.3624-4.7676 19.441-29.571 32.741-47.549 2.9851-4.0352 7.9588-10.857 11.052-15.159 24.534-34.117 41.259-46.879 61.441-46.879 11.19 0 16.407 3.5811 32.065 22.012 5.7317 6.7466 13.833 23.06 15.325 30.859 1.4253 7.4524 1.7163 19.48 0.62617 25.879-1.591 9.3381-1.6844 9.099 4.2359 10.846 3.4616 1.0215 6.0109 1.2001 6.7389 0.4721 0.64407-0.64406 1.4241-4.1572 1.7334-7.8071 0.35241-4.1584 2.3348-10.37 5.3094-16.636 7.1677-15.099 10.058-26.765 8.1303-32.812-0.89619-2.8114-3.105-3.9229-3.105-1.5625 0 0.6875-0.84375 1.25-1.875 1.25-2.4684 0-2.3994-2.0823 0.11562-3.4898 1.7663-0.98849 1.634-1.8054-1.1745-7.2496-1.7408-3.3746-4.6827-11.479-6.5376-18.011-1.8548-6.5312-5.4664-16.656-8.0256-22.5-3.9896-9.1097-5.1238-10.681-7.9531-11.021-3.4593-0.41465-4.6677-2.7295-1.4249-2.7295 2.6211 0 2.4094-0.80363-2.1116-8.0156-18.045-28.785-24.396-36.436-36.939-44.501-8.9664-5.7652-29.074-6.5246-29.074-1.098 0 2.9442-1.1234 3.0154-3.1811 0.20141-1.499-2.05-1.8004-2.0488-5.7628 0.0215-2.2996 1.2015-6.7124 3.8646-9.8061 5.9179-3.0938 2.0533-7.2648 4.7155-9.269 5.916s-5.6604 3.8935-8.125 5.9845-6.1325 4.5172-8.1511 5.3917c-2.0186 0.87444-5.956 3.3502-8.75 5.5018s-5.3449 4.1153-5.6687 4.3638c-0.32384 0.24853 0.1701 0.92089 1.0976 1.4941 0.92754 0.57325 1.307 1.6562 0.84334 2.4064-0.60489 0.97872-1.491 0.95951-3.1364-0.068-1.8597-1.1614-2.9661-0.90292-5.8522 1.3673-4.9436 3.8887-7.8149 8.6352-7.0328 11.626 0.53963 2.0636 0.20668 2.3807-1.8231 1.7364-1.8034-0.57237-4.1637 0.66943-8.6205 4.5353-3.3754 2.9279-6.9699 6.453-7.9876 7.8334s-3.6896 4.5468-5.9375 7.0363c-4.46 4.9395-4.8941 5.9104-2.5246 5.6471 0.85938-0.0955 1.6904 0.38889 1.8468 1.0764 0.15635 0.6875-1.1207 1.25-2.8378 1.25-2.2033 0-4.4248 1.6438-7.5486 5.5856-3.9989 5.046-4.2259 5.7323-2.3495 7.1043 1.1424 0.83532 1.6836 2.1554 1.2028 2.9334-0.61985 1.0029-1.4972 0.8508-3.0151-0.5228-1.9621-1.7756-2.5493-1.5191-7.0332 3.0729-4.3908 4.4966-4.7265 5.2761-3.2735 7.6027 1.8842 3.017 1.0154 4.5853-1.4203 2.5639-1.3116-1.0885-2.6783-0.0776-6.2802 4.6456-5.3134 6.9674-5.4985 7.6395-2.1038 7.6395 1.375 0 2.5 0.50232 2.5 1.1163 0 1.8197-4.0984 2.8425-5.0728 1.2659-1.1911-1.9272-3.1303-0.6025-5.241 3.5802-0.94715 1.877-3.5215 6.63-5.7207 10.562-5.7004 10.192-7.0346 13.961-4.6138 13.032 1.0987-0.42161 1.8983-0.043 1.8983 0.89899 0 2.572-1.4933 3.3983-3.3527 1.8551-2.1116-1.7525-1.4206-2.6813-8.4785 11.397-3.2627 6.508-7.5604 13.808-9.5505 16.222-1.9901 2.4143-3.6183 4.8378-3.6183 5.3855 0 0.54771-2.25 4.5585-5 8.9128-5.3723 8.5064-6.082 11.339-3.125 12.474 1.0312 0.39572 1.875 1.5809 1.875 2.6337 0 2.1653-1.95 2.5654-3.1376 0.64383-0.99642-1.6122-3.1124-0.36504-3.1124 1.8345 0 1.0277 3.2346 2.4293 8.4375 3.6561 14.571 3.4359 23.175 3.7111 40.344 1.2905zm-37.52-19.95c0-1.0718 0.5625-1.6011 1.25-1.1762s1.25 1.3018 1.25 1.9488c0 0.64693-0.5625 1.1762-1.25 1.1762s-1.25-0.87695-1.25-1.9488zm88.333-7.6346c-1.4383-1.4383-0.9103-2.9167 1.0417-2.9167 1.0312 0 1.875 0.84375 1.875 1.875 0 1.952-1.4784 2.48-2.9167 1.0417zm-80.833-8.5417c0-1.1458 0.60469-1.8818 1.3438-1.6354 0.73906 0.24635 1.3438 0.98228 1.3438 1.6354s-0.60469 1.3891-1.3438 1.6354c-0.73906 0.24636-1.3438-0.48957-1.3438-1.6354zm88.993-5.882c-2.0128-2.0128-1.8822-3.493 0.30818-3.493 2.3234 0 3.2841 1.5895 2.1093 3.4902-0.71665 1.1596-1.2601 1.1602-2.4175 0.002zm155.56-4.3604c-1.4077-1.4077-0.85736-2.8827 1.0756-2.8827 1.0312 0 1.875 0.5293 1.875 1.1762 0 1.5762-1.952 2.7051-2.9506 1.7065zm-238.3-1.6327c0-0.6875 0.84375-1.25 1.875-1.25s1.875 0.5625 1.875 1.25-0.84375 1.25-1.875 1.25-1.875-0.5625-1.875-1.25zm90.625-10c-0.4249-0.6875 0.10437-1.25 1.1762-1.25s1.9488 0.5625 1.9488 1.25-0.5293 1.25-1.1762 1.25c-0.64693 0-1.5239-0.5625-1.9488-1.25zm146.88-7.5c0-0.6875 0.84375-1.25 1.875-1.25s1.875 0.5625 1.875 1.25-0.84375 1.25-1.875 1.25-1.875-0.5625-1.875-1.25zm-139.7-5.8304c-1.9695-0.79401-0.77255-2.9196 1.6441-2.9196 0.99067 0 1.8012 0.84375 1.8012 1.875 0 1.9275-0.71649 2.1447-3.4453 1.0446zm-79.505-8.7869c-1.4077-1.4077-0.85736-2.8827 1.0756-2.8827 1.0312 0 1.875 0.5293 1.875 1.1762 0 1.5762-1.952 2.7051-2.9506 1.7065zm221.04-0.44547c-1.1878-1.9218 0.43919-3.1618 2.0436-1.5575 0.89773 0.89773 0.91929 1.5969 0.0655 2.1246-0.6999 0.43256-1.649 0.17738-2.1091-0.56708zm-131.8-4.8884c-1.0113-0.63958-1.4575-1.5442-0.99141-2.0103 1.1439-1.1439 4.7052 0.31106 4.7052 1.9222 0 1.5876-1.2941 1.6183-3.7138 0.088zm8.2971-10.882c-1.4383-1.4383-0.9103-2.9167 1.0417-2.9167 1.0312 0 1.875 0.84375 1.875 1.875 0 1.952-1.4784 2.48-2.9167 1.0417zm117.29-0.41666c-0.4249-0.6875 0.0712-1.25 1.1025-1.25 1.0312 0 2.2226 0.5625 2.6475 1.25s-0.0712 1.25-1.1025 1.25c-1.0312 0-2.2226-0.5625-2.6475-1.25zm-110.62-12.5c0-0.6875 1.125-1.25 2.5-1.25s2.5 0.5625 2.5 1.25-1.125 1.25-2.5 1.25-2.5-0.5625-2.5-1.25zm123.75-1.25c0-0.6875 0.5625-1.25 1.25-1.25s1.25 0.5625 1.25 1.25-0.5625 1.25-1.25 1.25-1.25-0.5625-1.25-1.25zm-22.5-1.0417c0-1.7591 1.4072-2.5696 3.24-1.8662 0.96008 0.36842 1.4344 1.1734 1.054 1.7889-0.87246 1.4117-4.294 1.4733-4.294 0.0774zm-91.299-8.9888c-1.2965-0.80129-1.4232-1.4971-0.44984-2.4705 0.97338-0.97337 1.7797-0.84333 2.8628 0.46167 1.8091 2.1798 0.12816 3.5793-2.4129 2.0088zm81.873-2.5527c-0.45316-0.73324-0.52379-1.6333-0.15694-2.0002 0.8954-0.89539 3.3333 0.68229 3.3333 2.1571 0 1.5975-2.158 1.4908-3.1764-0.15693zm25.676-2.4168c0-0.6875 0.84375-1.25 1.875-1.25s1.875 0.5625 1.875 1.25-0.84375 1.25-1.875 1.25-1.875-0.5625-1.875-1.25zm-94.271-3.5822c-0.53847-0.87125-0.64145-1.9217-0.22887-2.3343 1.1187-1.1187 2.3385 0.52662 1.7342 2.3393-0.4234 1.2702-0.71783 1.2692-1.5054-0.005zm58.021-7.0428c0-2.1029 0.2296-2.1881 3.0156-1.119 2.2884 0.87812 1.4302 2.994-1.2144 2.994-0.99067 0-1.8012-0.84375-1.8012-1.875zm-45-0.625c0-0.6875 0.84375-1.25 1.875-1.25s1.875 0.5625 1.875 1.25-0.84375 1.25-1.875 1.25-1.875-0.5625-1.875-1.25zm15.574-3.8332c-1.1504-1.8614 0.18341-2.8735 2.5767-1.9551 1.1045 0.42383 1.658 1.3371 1.2302 2.0294-1.0132 1.6394-2.7689 1.6051-3.8069-0.0744zm15-3.75c-1.4658-2.3717 0.67203-2.9569 2.849-0.77994 1.9487 1.9487 1.9521 2.1131 0.044 2.1131-1.138 0-2.4398-0.59992-2.893-1.3332zm44.426 0.2915c0-1.7612 1.408-2.5692 3.2472-1.8635 2.6087 1.001 2.1189 2.9051-0.74721 2.9051-1.375 0-2.5-0.46875-2.5-1.0417zm-160-6.4583c0-0.6875 0.84375-1.25 1.875-1.25s1.875 0.5625 1.875 1.25-0.84375 1.25-1.875 1.25-1.875-0.5625-1.875-1.25zm145.24-23.844c0.24635-0.73906 0.98229-1.3438 1.6354-1.3438 0.65313 0 1.3891 0.60469 1.6354 1.3438 0.24636 0.73906-0.48957 1.3438-1.6354 1.3438s-1.8818-0.60469-1.6354-1.3438zm-7.7396-11.156c0-0.6875 0.81055-1.25 1.8012-1.25 0.99068 0 2.1489 0.5625 2.5738 1.25s-0.38565 1.25-1.8012 1.25-2.5738-0.5625-2.5738-1.25zm-95.572-1.1636c-1.2524-2.0265 1.4691-2.6423 3.083-0.69761 1.256 1.5133 1.1794 1.8612-0.4096 1.8612-1.0748 0-2.2779-0.52364-2.6734-1.1636zm16.158-8.8992c-1.1878-1.9218 0.43919-3.1618 2.0436-1.5575 0.89772 0.89772 0.91929 1.5969 0.0655 2.1246-0.6999 0.43256-1.649 0.17737-2.1091-0.56708zm68.75-5c-1.1878-1.9218 0.43919-3.1618 2.0436-1.5575 0.89772 0.89772 0.91929 1.5969 0.0655 2.1246-0.6999 0.43256-1.649 0.17737-2.1091-0.56708zm-56.003-4.5206c-1.1946-1.1946-1.0276-2.9167 0.28292-2.9167 0.61395 0 1.44 0.84375 1.8358 1.875 0.73115 1.9054-0.60038 2.56-2.1187 1.0417zm39.406-6.7604c0.24635-0.73906 0.85572-1.3016 1.3542-1.25 0.49844 0.0515 1.7832 0.0937 2.855 0.0937s1.6011 0.5625 1.1762 1.25c-1.0428 1.6874-5.9506 1.6019-5.3854-0.0937zm-12.166-3.7394c-1.4658-2.3717 0.67202-2.9569 2.849-0.77994 1.9487 1.9487 1.9521 2.1131 0.044 2.1131-1.138 0-2.4398-0.59992-2.893-1.3332zm-384.68 195.77 7.7661-5.2228-4.8962-3.7631c-6.8778-5.2861-29.003-25.884-37.372-34.791-11.692-12.445-26.715-26.997-32.137-31.13-2.8175-2.1476-8.2493-6.3232-12.071-9.2791-3.8213-2.956-11.647-7.2905-17.391-9.6322-8.5191-3.4732-11.708-4.1737-17.304-3.8013-11.537 0.76767-17.948 2.1796-21.644 4.767-3.3542 2.3476-3.4868 2.7986-2.6099 8.8821 1.1651 8.0832 1.2476 22.293 0.16955 29.218-0.45456 2.9199-3.0478 9.9512-5.7628 15.625-3.927 8.2069-6.1709 11.24-10.975 14.834-3.3212 2.4848-7.4447 4.851-9.1635 5.2582-1.7188 0.40723-4.1732 1.5071-5.4543 2.4441-2.1391 1.5646-1.6514 2.0275 5.9765 5.6711 15.178 7.2499 23.006 7.8149 54.478 3.932 18.58-2.2924 45.202 0.61447 59.722 6.5212 10.354 4.212 17.15 8.003 22.892 12.771l6.429 5.3388 5.791-6.2102c3.185-3.4156 9.2857-8.5605 13.557-11.433zm186.42 8.0539c1.3948-4.1303 6.4203-13.833 11.168-21.562 7.8609-12.798 11.722-19.754 26.882-48.428 2.7261-5.1562 6.7143-11.796 8.8626-14.755 2.1483-2.9592 5.5511-7.7404 7.5617-10.625s7.3824-9.7447 11.937-15.245c4.5549-5.5 12.109-14.653 16.788-20.34 10.375-12.612 31.164-33.896 41.477-42.465 4.1843-3.4765 10.523-7.7983 14.087-9.6041 3.5635-1.8058 10.363-6.2213 15.111-9.8123 20.514-15.517 24.603-17.636 36.32-18.818 12.839-1.2956 22.969 0.9138 31.825 6.9409 9.6547 6.5703 14.144 11.492 22.936 25.143 3.9124 6.0748 9.0282 13.95 11.368 17.5 8.1155 12.312 17.44 35.137 22.551 55.205 1.2281 4.8219 6.7662 14.622 8.2802 14.653 1.0732 0.0217 2.3195-6.6981 5.4995-29.653 0.66669-4.8125 1.2295-12.567 1.2508-17.231 0.0364-8.0033-0.0978-8.4085-2.3792-7.1875-3.2983 1.7652-9.186 1.6284-11.559-0.26852-2.6384-2.1093-5.0382-12.63-4.0648-17.819 0.92807-4.947 4.6173-8.7408 7.4448-7.6558 1.6944 0.65019 1.8941-0.0364 1.3196-4.5359-1.3185-10.327-1.9706-24.479-1.2183-26.44 0.41948-1.0931 1.8275-1.9875 3.1289-1.9875 2.9658 0 2.9587-1.6438-0.0541-12.516-1.3312-4.8038-2.1551-8.7342-1.831-8.7342 0.32414 0-0.0211-1.1408-0.76735-2.535-0.74618-1.3942-1.891-2.2048-2.544-1.8012-0.65302 0.40358-1.1873-0.35272-1.1873-1.6807 0-2.6218-10.639-16.647-16.035-21.138-5.9504-4.9527-15.666-7.8452-26.353-7.8452-10.825 0-13.544 0.89916-34.487 11.401-16.112 8.0796-17.655 8.9711-21.065 12.175-1.5654 1.4706-3.3142 2.6739-3.8863 2.6739-1.6326 0-14.933 9.0123-16.069 10.888-0.56098 0.92651-3.3067 3.1281-6.1016 4.8924-6.0791 3.8376-18.958 14.152-19.545 15.654-0.22918 0.58616-0.97013 1.0657-1.6466 1.0657-4.0799 0-47.359 41.198-64.672 61.562-5.6988 6.7031-10.874 12.188-11.501 12.188-0.62653 0-1.1391 1.0488-1.1391 2.3306s-1.6785 4.235-3.73 6.5625-3.739 4.6401-3.75 5.1391c-0.0113 0.49895-1.9887 2.6987-4.395 4.8884-2.4062 2.1896-4.375 4.382-4.375 4.872 0 0.48997-2.5818 5.1864-5.7374 10.437-3.1556 5.2501-5.8541 10.341-5.9968 11.313-0.14266 0.97201-2.6233 5.7305-5.5126 10.574-2.8893 4.8439-5.2532 9.1236-5.2532 9.5105 0 0.38685-0.81931 2.6643-1.8207 5.0609s-1.9652 4.7692-2.1419 5.2724c-0.17668 0.50315-2.3284 4.5711-4.7815 9.0398-9.7581 17.776-14.191 28.155-17.484 40.938-0.97074 3.7684-2.0206 5.3125-3.612 5.3125-3.1132 0-3.9635-1.1602-2.618-3.5723 0.62976-1.129 2.604-5.6431 4.3872-10.031 1.7832-4.3882 6.2973-13.936 10.031-21.218 3.7341-7.2817 6.7892-13.901 6.7892-14.71 0-1.066-2.838-0.8559-10.312 0.76354-5.6719 1.2289-17.062 3.2143-25.312 4.4121-19.151 2.7804-61.489 3.3804-73.125 1.0364-4.4688-0.90021-10.506-1.6465-13.417-1.6585-5.6658-0.0233-28.44-5.8266-38.635-9.8449-17.432-6.871-35.837-17.754-51.237-30.295-8.6549-7.0487-28.625-26.851-35.094-34.798-15.68-19.264-28.53-31.334-33.359-31.334-2.4679 0-17.258 4.8754-30.134 9.9333-5.5 2.1605-12.25 4.4087-15 4.996-18.178 3.8818-26.617 5.1848-29.652 4.5777-1.91-0.38198-3.4726-0.14608-3.4726 0.52423s-0.75658 1.2188-1.6813 1.2188c-2.5229 0-5.6912 4.0496-6.5576 8.3819-0.44213 2.2107 0.12533 6.9176 1.3361 11.083 2.5014 8.6043 3.3534 15.516 3.4035 27.61 0.0426 10.302-0.51044 11.676-4.6995 11.676-4.7636 0-3.5801 2.2976 1.6363 3.1765 13.093 2.206 13.753 1.3152 14.682-19.827 0.33762-7.6858 0.95986-17.447 1.3828-21.691 0.72067-7.2332 1.015-7.8082 4.696-9.1735 2.1599-0.8011 5.3472-2.2072 7.0828-3.1248 3.5006-1.8506 16.184-6.205 21.548-7.3975 3.3387-0.74236 27.263-2.3163 35.669-2.3466 5.5094-0.0199 10.213 3.7178 14.003 11.128 2.9834 5.8328 23.597 27.472 38.588 40.506 10.245 8.9081 25.445 24.07 29.522 29.448 4.3311 5.7128 10.165 11.779 13.816 14.368 1.4031 0.99473 3.8381 3.6452 5.411 5.89 4.5433 6.4838 7.9584 7.6142 20.788 6.8809 6.671-0.38128 18.118 0.16441 28.125 1.3407 9.2812 1.091 21.656 2.2836 27.5 2.6501 7.2566 0.45518 16.965 2.4791 30.625 6.3842 11 3.1448 25.062 7.0863 31.25 8.7589 6.1875 1.6726 14.344 4.1352 18.125 5.4724 3.7812 1.3372 8 2.6754 9.375 2.9738 1.375 0.29841 2.589 0.60782 2.6978 0.68757 0.10875 0.0797 1.339-3.2343 2.7338-7.3646zm136.44-19.13c21.837-8.2451 32.114-11.536 41.25-13.209 10.913-1.9982 37.239-4.2381 40.422-3.4392 1.5955 0.40044 7.9189 1.0702 14.052 1.4884 6.1331 0.41821 13.371 1.2404 16.084 1.827 2.713 0.58666 5.347 0.8106 5.8534 0.49764 0.50638-0.31297 1.6038-3.7936 2.4386-7.7347 2.4632-11.628-0.0874-27.836-6.3363-40.264-2.7419-5.4534-6.8198-11.81-9.0619-14.126-2.2421-2.3158-6.2723-6.9108-8.956-10.211-15.354-18.881-40.885-13.134-63.521 14.299-2.558 3.1-5.5305 6.6402-6.6056 7.867s-3.9963 5.4456-6.4916 9.375-4.8928 7.4257-5.3277 7.7694c-1.283 1.014-11.711 15.178-15.435 20.966-1.8903 2.9374-4.2287 6.3124-5.1966 7.5-4.2166 5.1738-20.667 27.721-20.667 28.327 0 0.36702 2.1094-0.40276 4.6875-1.7106s12.844-5.4575 22.812-9.2215zm-304.61 1.9694c0.55887-0.316-4.8069-6.5664-11.924-13.89-7.117-7.3233-14.23-15.425-15.806-18.003-1.576-2.5781-3.2792-4.6875-3.7849-4.6875-0.50567 0-4.8192-3.6949-9.5856-8.2108-32.345-30.645-49.291-47.174-49.291-48.077 0-2.2393-7.9453-13.679-9.855-14.19-7.4776-1.9986-9.3495-2.012-12.286-0.0879-2.2617 1.4819-3.5041 1.6705-4.4926 0.68204-2.1352-2.1352-15.663-1.6056-24.651 0.96492-7.873 2.2515-25.891 9.5734-27.746 11.275-0.49862 0.45733-1.1866 8.411-1.5289 17.675-0.68513 18.545-1.6226 26.958-3.3744 30.281-0.85494 1.6219-2.8387 2.2258-7.6716 2.3355-3.5852 0.0814-7.081 0.002-7.7685-0.17645-0.6875-0.17848-3.588-0.89031-6.4456-1.5819-3.5092-0.84925-5.6306-2.2121-6.5357-4.1985-1.4175-3.1111-3.2284-3.7788-4.5313-1.6708-0.43183 0.69871-1.3361 0.92989-2.0095 0.51372-0.75815-0.46857-0.61531-1.4905 0.37512-2.6839 1.3547-1.6323 0.8539-2.5717-3.2726-6.1387-2.6796-2.3164-5.6356-4.2115-6.5689-4.2115-0.93328 0-4.3655-1.8357-7.6273-4.0794-3.2617-2.2437-8.4513-4.8412-11.532-5.7724-3.0811-0.93115-6.4457-1.9929-7.477-2.3594-1.0312-0.36652-2.4375-0.81667-3.125-1.0003-0.6875-0.18366-6.875-1.8514-13.75-3.706-23.367-6.3036-32.295-8.0681-40.198-7.9449-5.3557 0.0835-6.5589 0.52518-7.1034 2.6072-0.38438 1.4699-1.2425 2.1439-2.0749 1.6295-0.78064-0.48248-1.1436-1.5959-0.80651-2.4742 1.0258-2.6731-9.2866-3.4732-11.285-0.8756-1.4788 1.922-1.683 1.8632-2.4023-0.69205-0.90698-3.2219-6.0684-5.084-17.225-6.2142-6.0401-0.61186-7.5503-0.37754-8.4996 1.3188-1.4146 2.5277-3.1492 2.6226-5.4725 0.29918-1.8485-1.8485-7.2813-1.2639-6.0949 0.65584 0.61732 0.99884-0.14124 1.2672-2.9003 1.0259-0.51563-0.0451-0.75411-0.9677-0.52996-2.0502 0.3254-1.5716-0.35773-1.8152-3.389-1.209-4.0974 0.81948-6.3209-0.98141-4.0346-3.2677 2.1622-2.1622 1.7181-7.1411-0.63697-7.1411-1.6533 0-1.7429-0.34356-0.48515-1.8591 1.6454-1.9825 0.9077-5.6409-1.1374-5.6409-2.2104 0-9.964 8.9311-12.75 14.686-3.5229 7.2773-6.0001 18.953-6.0555 28.54l-0.04391 7.6014 8.4375 2.6018c14.776 4.5564 30.245 7.159 50.313 8.4651 22.464 1.4621 35.682 3.8901 62.5 11.48 8.5938 2.4323 17.817 4.9395 20.497 5.5714 2.6796 0.63194 7.8994 2.5337 11.6 4.2262 3.7002 1.6925 6.9638 3.0772 7.2524 3.0772 0.28868 0 7.6062 3.3718 16.261 7.4929 19.54 9.3041 23.136 9.9734 33.439 6.2237 9.8557-3.5872 15.071-8.4034 20.327-18.773 5.3609-10.575 7.4848-21.383 6.3264-32.194-2.0249-18.898-1.9158-20.106 2.0698-22.944 4.5817-3.2624 23.078-6.1688 30.978-4.8676 3.0938 0.50959 7.875 1.921 10.625 3.1365s7.463 3.2987 10.473 4.6294c7.5407 3.3332 28.687 20.985 43.472 36.288 20.229 20.937 36.359 36.122 47.93 45.119 5.3202 4.1368 8.7722 4.7979 12.891 2.469zm-221.67-59.12c0-1.6112 3.5613-3.0661 4.7052-1.9222 0.46606 0.46607 0.0199 1.3707-0.99141 2.0103-2.4197 1.5303-3.7138 1.4996-3.7138-0.0881zm-10.504-4.7655c-0.43256-0.6999-0.17737-1.649 0.56708-2.1091 1.9218-1.1878 3.1618 0.43919 1.5575 2.0436-0.89772 0.89772-1.5969 0.91929-2.1246 0.0655zm-15.433-3.0078c0.28646-0.85938 1.2708-1.5625 2.1875-1.5625 0.91666 0 1.901 0.70312 2.1875 1.5625 0.30982 0.92949-0.57639 1.5625-2.1875 1.5625s-2.4973-0.63301-2.1875-1.5625zm-11.369-7.8775c0.23753-1.2253 1.1887-2.4799 2.1138-2.7879 1.0758-0.35823 1.5262 0.24281 1.25 1.6678-0.23753 1.2253-1.1887 2.4799-2.1138 2.7879-1.0758 0.35822-1.5262-0.24282-1.25-1.6678zm-11.678-2.6639c0.90234-0.36108 1.9805-0.31668 2.3958 0.0986 0.41537 0.41536-0.32292 0.7108-1.6406 0.65652-1.4562-0.06-1.7524-0.35617-0.75522-0.7552zm-16.016-4.0723c0-1.7419 2.2979-2.8462 3.8834-1.8663 0.96441 0.59604 0.86976 1.1805-0.3125 1.9296-2.2314 1.4139-3.571 1.3901-3.571-0.0633zm-14.294-2.4428c-0.38038-0.61545 0.0939-1.4204 1.054-1.7889 1.8329-0.70334 3.24 0.10713 3.24 1.8662 0 1.396-3.4216 1.3343-4.294-0.0774zm-41.956-7.4972c0-0.61395 0.84375-1.44 1.875-1.8358 1.1421-0.43827 1.875-0.002 1.875 1.1163 0 1.0097-0.84375 1.8358-1.875 1.8358s-1.875-0.50232-1.875-1.1163zm477.5 64.302c7.9344-1.0669 40.995-7.6863 43.838-8.7773 1.0522-0.40377 3.6995-4.3567 5.8828-8.7843l3.9697-8.0502-2.9364-10.349c-1.615-5.6921-4.1925-15.412-5.7277-21.599-1.5352-6.1875-3.2182-11.812-3.74-12.5-0.52175-0.6875-1.2615-3.7087-1.6438-6.7138-0.9011-7.0824-2.3676-8.5208-6.0544-5.9384-2.5796 1.8068-13.912 4.217-16.482 3.5053-0.56018-0.15515-2.4642 0.85508-4.2311 2.2449s-4.5799 2.527-6.2512 2.527c-1.6712 0-4.0846 0.55979-5.363 1.244-1.2784 0.68419-4.4758 1.4592-7.1053 1.7224-8.6442 0.86499-13.407 2.3794-24.57 7.8115-1.9463 0.94719-4.4333 1.7222-5.5266 1.7222s-2.8758 0.76845-3.9612 1.7076c-1.0854 0.93921-5.3484 2.7149-9.4734 3.946s-8.0344 2.7127-8.6875 3.2924c-0.65313 0.57967-2.65 1.054-4.4375 1.054s-3.7844 0.47479-4.4375 1.0551c-1.6867 1.4986-14.119 6.1188-19.312 7.1768-12.542 2.5552-35.198-0.53224-42.604-5.8059-4.9415-3.5187-8.7258-11.871-9.5303-21.034-0.50691-5.7734 0.18758-9.4532 3.9194-20.767 5.5204-16.736 15.376-32.145 31.711-49.576 6.0165-6.4205 13.95-15.438 17.631-20.039 7.4788-9.3489 8.5267-10.017 13.998-8.9225 3.1331 0.62663 3.7301 1.2589 3.2138 3.4035-1.2061 5.0097-4.6588 13.903-7.2362 18.638-1.4232 2.6147-2.7335 5.9897-2.9119 7.5-0.17838 1.5103-0.78968 5.8397-1.3584 9.621-1.761 11.707-0.94791 13.506 8.1988 18.141 7.2199 3.6586 23.297 5.1212 34.969 3.1812 4.4688-0.74277 12.625-1.9522 18.125-2.6875 15.823-2.1156 34.02-6.3208 38.107-8.8066 3.6668-2.2299 3.7097-2.3712 1.9357-6.3668-0.99786-2.2474-3.607-8.305-5.7982-13.461-10.408-24.493-18.742-39.563-31.725-57.367-2.9544-4.0515-20.203-20.946-22.146-21.692-1.1652-0.44711-3.0701-2.67-4.2332-4.9397-1.1631-2.2698-2.6147-4.4511-3.2258-4.8475-0.61107-0.39638-7.1867-0.79388-14.613-0.88333-7.4258-0.0895-15.875-0.69592-18.776-1.3477-5.1966-1.1676-5.32-1.1158-8.3901 3.5234l-3.1159 4.7084 4.4778 8.9224c2.4628 4.9073 4.9773 8.9224 5.5877 8.9224 0.61044 0 1.9943 0.88444 3.0753 1.9654 3.7792 3.7792-0.23373 11.915-7.3786 14.96-3.2935 1.4034-4.403 1.236-9.7423-1.4696-3.314-1.6794-8.7898-5.7178-12.168-8.9743l-6.1429-5.921-4.415 2.5323c-4.8863 2.8026-5.1537 3.9955-2.5285 11.282 0.99071 2.75 1.8098 6.4344 1.8201 8.1875 0.01 1.7531 0.63368 3.8024 1.3852 4.5539 2.1123 2.1123-1.8173 7.1123-8.2873 10.545-3.0685 1.6278-5.5791 3.3826-5.5791 3.8994 0 2.4213-3.9724 0.5588-5.3276-2.4978-0.83821-1.8906-2.7949-5.3441-4.3482-7.6744s-2.8637-5.7053-2.9121-7.5c-0.20048-7.4459-0.96835-7.7516-10.312-4.1051-7.9223 3.0918-8.4698 3.5484-7.7453 6.4595 1.8781 7.5464 3.0016 14.768 3.0707 19.739 0.041 2.9461 0.98027 6.7388 2.0873 8.4284 1.3406 2.046 1.7255 4.223 1.1526 6.5185-1.4229 5.7014-4.2194 7.8216-10.316 7.8216-8.1905 0-13.502-3.3391-12.164-7.6468 0.34546-1.112-0.72489-4.7682-2.3786-8.125s-3.6928-9.0563-4.5313-12.666c-0.83856-3.6094-2.0034-6.5625-2.5885-6.5625-0.58509 0-3.904 0.60911-7.3753 1.3536l-6.3115 1.3536-0.007 5.2089c-0.0113 8.1297-2.2676 19.919-4.0256 21.035-0.87569 0.55576-3.7136 1.0191-6.3065 1.0296-3.9524 0.016-4.9582-0.53639-6.2237-3.4184-0.83016-1.8906-2.1617-3.8522-2.9589-4.3592-0.79724-0.50692-2.9849-3.8819-4.8615-7.5-4.1813-8.0616-3.9589-7.8219-5.8989-6.3566-0.876 0.66164-4.124 1.9646-7.2177 2.8955-3.0938 0.93088-6.1594 2.1572-6.8125 2.7252-0.65313 0.56796-2.448 1.0326-3.9887 1.0326s-3.1263 0.52591-3.5235 1.1687c-2.8665 4.6381 14.298 46.629 19.63 48.023 1.3453 0.3518 2.0965 1.205 1.6694 1.896-0.42708 0.69101 1.7054 2.964 4.7389 5.0511 6.3512 4.3698 13.86 12.576 20.074 21.937 4.9158 7.4059 30.899 33.74 35.866 36.351 1.8034 0.94786 3.6316 1.3708 4.0625 0.9399 0.43091-0.43091 0.78348 0.11638 0.78348 1.2162 0 2.1321 9.9108 10.917 12.316 10.917 0.78858 0 1.4338 0.50747 1.4338 1.1277 0 0.62025 1.5469 1.7784 3.4375 2.5737 5.8698 2.4691 9.0625 4.3521 9.0625 5.345 0 0.52448 0.561 0.95359 1.2467 0.95359 1.2182 0 14.803 5.8932 21.489 9.3218 1.8482 0.94783 7.7544 2.6526 13.125 3.7884s10.89 2.5524 12.265 3.148c1.375 0.59564 6.8556 1.4476 12.179 1.8932 5.3235 0.44564 11.23 1.2319 13.125 1.7472 4.2782 1.1633 55.95 0.79685 65.321-0.46324zm47.5-30.685c0-0.6875 0.87695-1.25 1.9488-1.25s1.6011 0.5625 1.1762 1.25-1.3018 1.25-1.9488 1.25c-0.64692 0-1.1762-0.5625-1.1762-1.25zm-3.75-8.75c0-0.6875 0.84375-1.25 1.875-1.25s1.875 0.5625 1.875 1.25-0.84375 1.25-1.875 1.25-1.875-0.5625-1.875-1.25zm-1.25-7.5c0-0.6875 0.84375-1.25 1.875-1.25s1.875 0.5625 1.875 1.25-0.84375 1.25-1.875 1.25-1.875-0.5625-1.875-1.25zm-211.25-2.5c0-0.6875 0.84375-1.25 1.875-1.25s1.875 0.5625 1.875 1.25-0.84375 1.25-1.875 1.25-1.875-0.5625-1.875-1.25zm208.75-5.625c0-2.1029 0.2296-2.1881 3.0156-1.119 2.2884 0.87812 1.4302 2.994-1.2144 2.994-0.99068 0-1.8012-0.84375-1.8012-1.875zm-1.875-6.875c-0.4249-0.6875 0.41885-1.25 1.875-1.25s2.2999 0.5625 1.875 1.25-1.2686 1.25-1.875 1.25c-0.60635 0-1.4501-0.5625-1.875-1.25zm-208.75-3.75c-0.49894-0.80731-0.34468-2.0303 0.34283-2.7178 0.83333-0.83333 1.5524-0.76072 2.1572 0.21783 0.49894 0.80731 0.34467 2.0303-0.34283 2.7178-0.83333 0.83334-1.5524 0.76073-2.1572-0.21782zm206.42-3.3673c-1.4077-1.4077-0.85736-2.8827 1.0756-2.8827 1.0312 0 1.875 0.5293 1.875 1.1762 0 1.5762-1.952 2.7051-2.9506 1.7065zm-3.1118-9.0702c0.275-0.825 0.90781-1.4578 1.4062-1.4062 1.4946 0.15461 1.2052 1.8691-0.40625 2.4062-0.825 0.275-1.275-0.175-1-1zm-204.95-1.4062c0.24635-0.73906 0.98228-1.3438 1.6354-1.3438s1.3891 0.60469 1.6354 1.3438c0.24636 0.73906-0.48957 1.3438-1.6354 1.3438s-1.8818-0.60469-1.6354-1.3438zm-2.4531-13.891c0.77259-2.3178 3.4635-2.7022 3.4635-0.49478 0 1.0885-0.89063 1.9792-1.9792 1.9792s-1.7565-0.66798-1.4844-1.4844zm-0.28646-12.266c0-0.6875 0.84375-1.25 1.875-1.25s1.875 0.5625 1.875 1.25-0.84375 1.25-1.875 1.25-1.875-0.5625-1.875-1.25zm1.25-10.625c0-1.1458 0.60469-1.8818 1.3438-1.6354 0.73906 0.24635 1.3438 0.98228 1.3438 1.6354s-0.60469 1.3891-1.3438 1.6354c-0.73906 0.24636-1.3438-0.48957-1.3438-1.6354zm0.23959-8.2188c0.24635-0.73906 0.98228-1.3438 1.6354-1.3438s1.3891 0.60469 1.6354 1.3438c0.24636 0.73906-0.48957 1.3438-1.6354 1.3438s-1.8818-0.60469-1.6354-1.3438zm6.6354-6.1562c0.4249-0.6875 1.3018-1.25 1.9488-1.25 0.64693 0 1.1762 0.5625 1.1762 1.25s-0.87695 1.25-1.9488 1.25-1.6011-0.5625-1.1762-1.25zm10.088-4.8584c-0.81654-1.3212 2.7663-4.5795 3.8471-3.4987 1.0415 1.0415-0.46505 4.607-1.9466 4.607-0.6685 0-1.5237-0.49876-1.9005-1.1084zm14.287-9.6208c0-1.0886 0.66796-1.7565 1.4844-1.4844 2.3178 0.77259 2.7022 3.4635 0.49479 3.4635-1.0885 0-1.9792-0.89063-1.9792-1.9792zm147.12 1.1798c-0.43964-0.43964-0.51537-1.2588-0.1683-1.8204 0.77939-1.2611 4.301-0.03 4.301 1.5035 0 1.2826-2.9414 1.5082-4.1327 0.31691zm-8.1883-5.3135c-1.1823-0.74912-1.2769-1.3336-0.3125-1.9296 1.5855-0.97991 3.8834 0.12438 3.8834 1.8663 0 1.4534-1.3396 1.4772-3.571 0.0634zm-126.93-1.1918c-0.43256-0.6999-0.17738-1.649 0.56708-2.1091 1.9218-1.1878 3.1618 0.43919 1.5575 2.0436-0.89773 0.89772-1.5969 0.91929-2.1246 0.0655zm118.63-6.4453c-1.0194-1.6494 0.47526-3.9901 1.9614-3.0716 1.5183 0.93834 1.5084 4.3216-0.0126 4.3216-0.64693 0-1.5239-0.5625-1.9488-1.25zm-107.89-2.5938c0.24635-0.73906 0.98228-1.3438 1.6354-1.3438s1.3891 0.60469 1.6354 1.3438c0.24636 0.73906-0.48957 1.3438-1.6354 1.3438s-1.8818-0.60469-1.6354-1.3438zm97.885-1.1562c-1.0194-1.6494 0.47526-3.9901 1.9614-3.0716 1.5183 0.93834 1.5084 4.3216-0.0126 4.3216-0.64693 0-1.5239-0.5625-1.9488-1.25zm-86.875-5c0-0.6875 0.84375-1.25 1.875-1.25s1.875 0.5625 1.875 1.25-0.84375 1.25-1.875 1.25-1.875-0.5625-1.875-1.25zm76.824-3.8332c-1.1504-1.8614 0.18341-2.8735 2.5767-1.9551 1.1045 0.42383 1.658 1.3371 1.2302 2.0294-1.0132 1.6394-2.7689 1.6051-3.8069-0.0744zm-65.574-3.6668c0-0.6875 0.84375-1.25 1.875-1.25s1.875 0.5625 1.875 1.25-0.84375 1.25-1.875 1.25-1.875-0.5625-1.875-1.25zm57.048-4.375c-0.4894-1.2754 0.0675-1.875 1.7413-1.875 1.354 0 2.4608 0.8433 2.4608 1.875 0 1.0312-0.78358 1.875-1.7413 1.875-0.9577 0-2.065-0.84375-2.4608-1.875zm-45.798-2.6042c0-1.0886 0.66796-1.7565 1.4844-1.4844 2.3178 0.77259 2.7022 3.4635 0.49479 3.4635-1.0885 0-1.9792-0.89063-1.9792-1.9792zm37.693-2.6604c-1.0379-1.9393-1.0627-2.9479-0.0874-3.5507 2.0395-1.2605 3.4857 0.97613 2.4488 3.7874-0.88959 2.412-0.94703 2.4062-2.3614-0.23665zm-23.943-4.1105c0-0.6875 0.84375-1.25 1.875-1.25s1.875 0.5625 1.875 1.25-0.84375 1.25-1.875 1.25-1.875-0.5625-1.875-1.25zm9.4787-1.0822c-0.53847-0.87125-0.64145-1.9217-0.22887-2.3343 1.1187-1.1187 2.3385 0.52662 1.7342 2.3393-0.4234 1.2702-0.71784 1.2692-1.5054-0.005zm6.1997-2.5814c-0.85385-1.3815 1.118-2.8733 2.2723-1.7191 1.1885 1.1885 0.96699 2.8827-0.37687 2.8827-0.64693 0-1.4998-0.52364-1.8954-1.1636zm-267.72 159.5c0.89822-3.5788-1.2176-22.194-3.4321-30.196-1.8401-6.649-1.1885-15.292 1.5311-20.31 1.461-2.6957 1.3226-2.8125-3.3331-2.8125-6.3301 0-12.822-2.1744-15.462-5.1787-1.1584-1.3184-3.5726-7.0207-5.365-12.672-1.7924-5.651-4.4434-13.272-5.8912-16.935-2.2522-5.6984-3.0117-6.5514-5.26-5.9076-1.4453 0.4138-5.4403 1.3492-8.8778 2.0787-12.62 2.6782-32.717 7.5078-40.625 9.7627-4.4688 1.2743-12.625 3.2545-18.125 4.4004-5.5 1.146-13.656 2.8844-18.125 3.8632-4.4687 0.9788-11.507 2.3024-15.641 2.9414-10.094 1.5602-38.81 11.348-42.921 14.63-0.2404 0.19189 0.13096 2.2147 0.82523 4.4951 0.69428 2.2804 1.595 5.6543 2.0017 7.4974l0.73941 3.3512 15.935-0.12509c9.8156-0.0771 16.962 0.42433 18.608 1.3056 3.7484 2.0064 23.165 5.2422 31.456 5.2422 7.9337 0 25.714 3.051 33.996 5.8334 3.0938 1.0394 9 2.6503 13.125 3.5797 14.78 3.3302 21.133 5.5302 27.393 9.4851 3.4961 2.2087 8.6065 5.1056 11.357 6.4374 2.75 1.3318 7.25 4.5729 10 7.2024 6.8535 6.5532 14.706 7.5444 16.09 2.0309zm-11.715-47.069c0-0.6875 0.84375-1.25 1.875-1.25s1.875 0.5625 1.875 1.25-0.84375 1.25-1.875 1.25-1.875-0.5625-1.875-1.25zm-6.0625-1.1875c0.275-0.825 0.90781-1.4578 1.4062-1.4062 1.4946 0.15461 1.2052 1.8691-0.40625 2.4062-0.825 0.275-1.275-0.175-1-1zm-8.1382-3.4298c-1.4077-1.4077-0.85736-2.8827 1.0756-2.8827 1.0312 0 1.875 0.5293 1.875 1.1762 0 1.5762-1.952 2.7051-2.9506 1.7065zm-5.5598-10.476c0.24635-0.73906 0.98228-1.3438 1.6354-1.3438 0.65313 0 1.3891 0.60469 1.6354 1.3438 0.24636 0.73906-0.48957 1.3438-1.6354 1.3438s-1.8818-0.60469-1.6354-1.3438zm-2.5521-11.094c0.53714-1.6114 2.2516-1.9009 2.4062-0.40625 0.0516 0.49844-0.58125 1.1312-1.4062 1.4062-0.825 0.275-1.275-0.175-1-1zm-2.6875-11.312c0-0.6875 0.5625-1.25 1.25-1.25s1.25 0.5625 1.25 1.25-0.5625 1.25-1.25 1.25-1.25-0.5625-1.25-1.25zm422.89 73.438c2.5879-5.6719 8.0337-14.812 12.102-20.312 4.068-5.5 9.6718-13.094 12.453-16.875 4.7804-6.4996 11.22-14.327 23.614-28.703 4.6791-5.4274 5.074-6.2971 2.8588-6.2971-1.4136 0-5.5441 1.1872-9.1789 2.6383s-9.9838 3.724-14.109 5.0508c-4.125 1.3269-8.625 2.9181-10 3.536-3.2176 1.446-14.961 5.3133-26.875 8.8504-10.055 2.9853-13.051 5.3288-11.887 9.2995 1.3133 4.4802 5.7851 20.998 8.7986 32.5 4.441 16.951 5.619 20.625 6.612 20.625 0.49845 0 3.0237-4.6406 5.6116-10.312zm-147.75-6.4862c7.827-2.0387 36.81-12.164 55.494-19.387 6.875-2.6578 16.719-5.7769 21.875-6.9314 5.1562-1.1544 14.156-3.449 20-5.099 5.8438-1.65 12.875-3.5792 15.625-4.2871 9.991-2.5717 10.077-2.9199 4.4848-18.133-2.7188-7.3959-5.4102-13.914-5.9808-14.485-0.5707-0.5707-3.28-0.23911-6.0208 0.73685-2.7407 0.97596-6.2488 1.7992-7.7956 1.8294-1.5469 0.0301-2.8125 0.50635-2.8125 1.0582 0 0.55182-5.7656 1.713-12.812 2.5805-7.0469 0.86745-15.344 2.4602-18.438 3.5395-4.0123 1.3997-10.821 2.0038-23.75 2.107-17.167 0.13709-18.489-0.0295-25-3.1518-7.5333-3.6121-12.085-7.8314-12.625-11.704-0.50584-3.6236 1.253-16.321 3.463-25 1.0504-4.125 2.0819-8.3745 2.2923-9.4433 0.21039-1.0688 1.251-4.022 2.3125-6.5625s1.6448-4.6192 1.2963-4.6192c-0.71566 0-7.8035 7.3847-17.989 18.742-3.7812 4.2164-9.1808 10.021-11.999 12.9-2.8182 2.8783-7.5778 8.8895-10.577 13.358-2.9991 4.4688-5.7558 8.4062-6.126 8.75-3.3509 3.1113-13.798 32.457-13.798 38.758 0 4.4326 3.6177 15.067 6.0962 17.92 6.2913 7.2423 27.568 10.486 42.784 6.523zm114.87-43.201c0-0.6875 0.5293-1.25 1.1762-1.25 0.64692 0 1.5239 0.5625 1.9488 1.25s-0.10438 1.25-1.1762 1.25-1.9488-0.5625-1.9488-1.25zm-1.25-5c0-0.6875 0.84375-1.25 1.875-1.25s1.875 0.5625 1.875 1.25-0.84375 1.25-1.875 1.25-1.875-0.5625-1.875-1.25zm-1.875-5c-0.4249-0.6875-0.5041-1.25-0.176-1.25 0.32809 0 1.4927-0.34388 2.5879-0.76417 1.4576-0.55932 1.7842-0.22422 1.2185 1.25-0.87523 2.2808-2.4838 2.6194-3.6304 0.76417zm-2.2577-5.7994c-0.99866-0.99866 0.13024-2.9506 1.7065-2.9506 0.64693 0 1.1762 0.84375 1.1762 1.875 0 1.933-1.475 2.4834-2.8827 1.0756zm-2.1173-6.7006c0-0.6875 0.5625-1.25 1.25-1.25s1.25 0.5625 1.25 1.25-0.5625 1.25-1.25 1.25-1.25-0.5625-1.25-1.25zm-342.5 25c2.288-2.288 3.4432-6.25 1.8222-6.25-0.70623 0-1.2678 0.41885-7.4472 5.5544l-3.75 3.1166 3.4375 0.0395c1.8906 0.0217 4.5625-1.0855 5.9375-2.4605zm-7.1249-3.1282c3.9876-2.4045 7.7844-4.3718 8.4375-4.3718 0.65308 0 1.1874-0.84375 1.1874-1.875 0-3.1687-5.1975-2.1253-13.125 2.635-9.2529 5.5561-9.072 5.3765-6.8388 6.7889 2.5434 1.6085 2.2565 1.6966 10.339-3.177zm38.97 0.4453c6.8584-1.3637 13.046-2.9442 13.75-3.5122 0.70414-0.56803 3.8115-1.9222 6.9052-3.0092 19.474-6.8426 26.879-9.6747 27.859-10.655 0.64907-0.64907-0.9605-5.722-3.8673-12.189-2.7385-6.0924-6.4787-15.999-8.3115-22.014-1.9084-6.2639-4.0111-10.938-4.9208-10.938-0.87366 0-5.1988 1.1334-9.6115 2.5186l-8.023 2.5187-0.33331 13.419c-0.41805 16.83-1.7387 26.822-3.628 27.45-0.99383 0.33-1.6431-2.4362-2.0296-8.6477-0.7646-12.287-1.8125-18.119-5.2694-29.327-0.32761-1.0622-2.3983-0.9523-7.8284 0.41554-6.9084 1.7402-7.6441 2.2907-11.446 8.563-6.4936 10.714-10.104 23.843-9.9693 36.256 0.15949 14.752-0.42883 14.55 26.723 9.1514zm-19.761-9.4004c-0.45834-0.45832-0.83334-3.2564-0.83334-6.2179 0-4.6212 0.48736-5.63 3.4375-7.1153 1.8906-0.95193 5.4062-2.0435 7.8125-2.4258 2.4062-0.38225 5.3321-1.0738 6.5018-1.5368 1.8362-0.72679 2.0268-0.22507 1.3944 3.6719-0.52332 3.2249-0.1483 5.1593 1.3134 6.7744 2.6696 2.9499 1.5124 3.9229-4.7304 3.9771-2.8073 0.0244-6.5104 0.84817-8.2292 1.8307-3.474 1.9859-5.4186 2.2898-6.6667 1.0417zm12.23-5.4167c2.7079 0 3.1871-0.56386 3.1871-3.75 0-3.343-0.41177-3.75-3.794-3.75-5.6499 0-9.956 3.3199-9.956 7.6759 0 3.6266 0.0125 3.6322 3.6879 1.7312 2.0284-1.0489 5.1221-1.9071 6.875-1.9071zm25.937-4c-1.9762-1.9762-1.9308-8.4748 0.0625-8.9546 0.85937-0.20689 5.1426-1.5808 9.5182-3.0531 9.2244-3.1038 12.009-2.3439 13.322 3.6355 1.0954 4.9872-0.60544 6.546-9.1859 8.4189-8.4584 1.8463-11.836 1.8348-13.717-0.0467zm15.539-3.685c4.1995-1.0626 5.0467-1.7546 4.5366-3.7053-0.99868-3.819-2.3902-3.9584-10.98-1.0998-6.2978 2.0958-8.0954 3.2391-8.0954 5.1487 0 2.1358 0.60896 2.3578 4.6875 1.7089 2.5781-0.4102 7.0112-1.3338 9.8514-2.0525zm-79.069 17.575c4.21-2.123 8.189-4.373 8.8421-5 0.65313-0.62703 2.4812-1.14 4.0625-1.14 2.3734 0 2.875-0.66709 2.875-3.8238 0-2.1031-0.42188-3.5724-0.9375-3.2651-2.8753 1.7135-23.238 10.839-24.187 10.839-1.3026 0-1.5284 4.1808-0.29255 5.4167 1.2105 1.2105 1.2738 1.1906 9.637-3.0266zm389.53-1.7618c7.9062-2.5028 18.312-5.9217 23.125-7.5976 4.8125-1.6759 16.76-5.7459 26.55-9.0444l17.8-5.9973 20.044-18.671c11.024-10.269 19.431-18.876 18.682-19.125-0.74932-0.24977-5.1231 0.70925-9.7196 2.1312-4.5965 1.4219-10.326 3.1157-12.732 3.764-2.4062 0.64826-9.1562 2.9714-15 5.1626-10.205 3.8265-16.759 5.9655-21.093 6.8842-3.4412 0.72938-24.052 7.6686-33.282 11.205-8.2174 3.1487-19.784 6.3911-26.875 7.5333-1.7188 0.27689-5.5658 0.89335-8.5489 1.3699-6.0321 0.96367-6.0203 0.89914-2.1521 11.757 5.1331 14.409 6.0374 16.339 7.3905 15.776 0.78952-0.3286 7.9042-2.6452 15.81-5.148zm-386.25-8.4309c4.4688-2.0496 9.3035-4.1791 10.744-4.7324 1.9356-0.74343 2.9823-2.8154 4.0116-7.9405 1.3335-6.6402 4.011-13.238 7.7728-19.155 2.1065-3.3132 1.0852-4.7782-2.0941-3.0037-5.6713 3.1655-19.532 8.1652-30.434 10.978-12.672 3.2694-15.107 4.5495-12.883 6.7736 0.98963 0.98964 3.0437 0.61433 7.4375-1.359 5.3106-2.385 22.524-7.6174 31.695-9.6343 2.5476-0.56028 2.8386-0.38349 1.5752 0.95675-0.85241 0.9042-2.2587 1.7636-3.125 1.9098-4.3148 0.72815-24.128 6.9816-29.659 9.361-5.8144 2.5013-7.8202 5.056-5.2277 6.6582 0.92347 0.57073 16.328-4.8086 28.577-9.9792 2.486-1.0494 4.2999-1.2343 4.7627-0.48537 0.79733 1.2901-0.55392 1.9078-14.716 6.7272-4.9841 1.6961-11.146 4.1678-13.694 5.4927-4.1321 2.1489-4.4537 2.6527-2.9801 4.668 1.4789 2.0225 2.095 2.0844 5.882 0.59065 8.012-3.1601 15.485-6.3642 17.651-7.5675 2.6076-1.449 4.7045-1.5609 4.7045-0.25104 0 0.9411-9.0644 5.2949-11.024 5.2949-2.2627 0-11.049 4.9572-13.366 7.5417l-2.4848 2.7707 4.375-0.94426c2.4062-0.51935 8.0312-2.6212 12.5-4.6708zm656.15 0.81654c2.1938-1.8459 3.8459-4.443 3.8459-6.0454 0-2.4859-0.60761-2.7968-5.2789-2.7014-4.9147 0.1005-5.3252-0.15079-5.9498-3.6421-1.1501-6.4282-4.3404-4.7068-4.7658 2.5715-0.28774 4.9231 0.21625 7.0661 2.2782 9.6875 3.299 4.194 5.0136 4.2165 9.8703 0.12989zm3.8459-17.516c0-2.2553-0.5625-4.4482-1.25-4.8731s-1.25 0.33965-1.25 1.699c0 3.7949-1.3342 6.426-3.2587 6.426-0.95769 0-1.7413 0.46875-1.7413 1.0417 0 2.0989 1.5706 2.5087 4.4997 1.1741 2.2795-1.0386 3.0003-2.3521 3.0003-5.4676zm-277.14-4.2855c5.6447-1.411 15.551-4.5875 22.014-7.0591 6.463-2.4715 16.307-5.7753 21.875-7.3416 5.5682-1.5664 23.059-7.1148 38.868-12.33 15.809-5.2151 30.169-9.482 31.909-9.482 3.4461 0 4.8847-0.85214 18.409-10.904 4.9844-3.7048 9.0625-7.2492 9.0625-7.8764 0-3.8355-25.77-18.919-68.125-39.875-43.751-21.646-53.661-25.859-79.375-33.741-19.495-5.9756-28.343-9.595-34.65-14.174-6.1456-4.4612-23.454-10.93-29.245-10.93-2.298 0-4.9752 1.8314-9.0582 6.1965-3.1878 3.408-5.796 7.0041-5.796 7.9913 0 2.8025 3.5761 3.4839 6.8897 1.3127 3.9452-2.585 8.5083-1.5545 21.122 4.7704 15.718 7.8813 19.314 10.652 20.241 15.597 0.96215 5.1287-0.50482 8.7585-6.4932 16.066-7.6094 9.2863-8.9111 9.7199-18.844 6.2771-4.6977-1.6283-10.51-3.7876-12.916-4.7984-2.4062-1.0108-5.0781-1.5828-5.9375-1.2711-0.85938 0.31172-1.5625-0.0426-1.5625-0.78739 0-1.6558-6.175-1.7585-8.7265-0.14516-1.5908 1.0059-1.4859 1.6631 0.7455 4.6684 1.4283 1.9237 3.949 4.1821 5.6015 5.0187 1.6525 0.83659 3.0126 1.9616 3.0226 2.5 0.01 0.53842 3.6707 4.6352 8.135 9.1039 8.3915 8.3999 19.775 23.577 24.622 32.828 4.7332 9.0332 14.1 29.087 14.1 30.188 0 0.57542 1.4633 4.4916 3.2518 8.7025 1.7885 4.211 3.7806 8.9996 4.4269 10.641 1.1098 2.8193 1.5915 2.9416 8.6726 2.2015 4.1236-0.431 12.116-1.9381 17.761-3.349zm-2.1086-19.664c-6.024-16.091-14.493-32.77-20.6-40.571-11.415-14.58-13.402-17.824-13.678-22.332-0.24022-3.9155 0.70118-5.5444 7.4789-12.941 8.5225-9.3008 15.714-14.468 20.084-14.43 3.1799 0.0274 29.804 10.632 30.89 12.304 0.38338 0.59002 2.4763 1.9842 4.6509 3.0981 4.604 2.3584 28.25 18.148 29.171 19.48 0.34375 0.49667 4 3.9147 8.125 7.5956 8.1692 7.2897 11.854 11.995 11.867 15.154 0.0125 3.0076-17.127 19.617-27.013 26.179-17.257 11.454-29.586 16.184-42.102 16.151l-5.251-0.0135-3.6217-9.674zm32.66-0.22371c10.597-5.0848 20.262-11.332 26.857-17.359l3.3954-3.103-9.6532-7.6189c-5.3093-4.1904-13.144-10.431-17.411-13.869-4.2668-3.4375-11.789-9.3438-16.715-13.125-11.235-8.6235-19.763-17.14-20.551-20.524-0.33335-1.4306-0.46081-4.2338-0.28322-6.2296 0.27305-3.0686-0.24425-3.7851-3.3518-4.6428-2.7671-0.76375-4.6195-0.41482-7.5 1.4128-4.7871 3.0374-11.839 10.374-16.029 16.675-3.9857 5.9946-3.1815 9.0046 4.8203 18.042 5.9238 6.6904 15.5 20.202 15.505 21.878 0.001 0.54204 2.4872 6.4483 5.5234 13.125s6.415 14.327 7.5084 17l1.988 4.8603 7.5874-0.688c5.2948-0.48012 10.827-2.2424 18.309-5.8324zm38.87-29.873 3.2076-4.1728-10.723-10.205c-14.298-13.607-38.354-29.93-52.536-35.647-7.5152-3.0295-9.7318-2.7902-9.7318 1.0506 0 3.8749 5.9615 9.7733 25.62 25.349 10.315 8.1727 20.161 16.072 21.88 17.555 6.991 6.0295 14.511 10.753 16.725 10.506 1.2926-0.14436 3.7936-2.1402 5.5578-4.4353zm200.97 40.136c-1.2706-1.2706-2.3191 0.64236-1.2765 2.3292 0.78754 1.2743 1.082 1.2753 1.5054 0.005 0.2895-0.86848 0.18652-1.9189-0.22885-2.3343zm-600.76-4.8052c0-5.8129-0.34272-6.8997-2.0694-6.5625-2.6225 0.51217-3.0739 3.5497-1.3582 9.14 1.9782 6.4456 3.4276 5.3556 3.4276-2.5776zm118.94-1.0699c1.6177-3.5505-1.5622-28.745-4.2297-33.511-0.87038-1.5552-1.6465-2.9853-1.7248-3.1781-0.0782-0.19283-3.6532 1.172-7.9443 3.033l-7.802 3.3836 0.81964 6.1787c0.70512 5.3155 3.085 11.176 9.8706 24.308 2.1096 4.0824 9.1148 3.9461 11.01-0.21434zm486.71 0.0157c-0.4298-1.4323-1.1093-4.7272-1.51-7.3221-1.4595-9.4517-5.3406-6.871-5.372 3.5721-0.0189 6.2646 0.035 6.3542 3.8222 6.3542 3.3092 0 3.7331-0.3607 3.0598-2.6042zm-532.05-7.5327c0.76911-3.0544 1.3984-8.1795 1.3984-11.389v-5.8356l-4.0625 0.70102c-2.2344 0.38556-6.7512 1.0771-10.037 1.5367-5.3763 0.7519-5.8917 1.1026-5.1441 3.5006 1.7454 5.5988 11.4 17.04 14.38 17.04 1.4031 0 2.5167-1.7844 3.4658-5.5535zm80.83-21.265c2.2977-2.2977 3.0682-4.406 3.0682-8.3957 0-5.7155-3.3593-16.036-5.2196-16.036-1.8341 0-11.575 5.2142-12.574 6.7304-2.8744 4.3649 0.32946 13.724 6.1959 18.1 4.4327 3.3064 4.8433 3.2872 8.5293-0.39884zm327.96-16.472c3.1542-1.8099 7.1411-4.565 8.8598-6.1224 4.8912-4.4322 23.289-14.468 36.594-19.962 6.6601-2.75 12.12-5.4138 12.133-5.9195 0.0303-1.1914-12.837-7.6768-22.808-11.495-4.2866-1.6417-13.419-5.3664-20.294-8.2771-6.875-2.9106-21.781-8.5198-33.125-12.465-22.034-7.6629-44.792-16.883-51.513-20.869-2.2617-1.3416-4.034-3.3752-3.9385-4.5191 0.19495-2.3355-1.0535-2.6148-4.2531-0.9514-1.1938 0.62063-6.108 1.7903-10.921 2.5993-4.8125 0.80897-10.811 2.246-13.33 3.1934-3.2525 1.2233-7.6224 1.5078-15.079 0.98158-6.6546-0.46963-11.438-0.23813-13.065 0.63225-2.845 1.5226-9.6081 14.724-8.7238 17.028 0.30883 0.8048 3.0107 2.188 6.0041 3.0738 2.9934 0.88582 11.679 4.3674 19.302 7.7368 7.6228 3.3694 14.291 6.1263 14.819 6.1263 0.52755 0 3.2908 1.5717 6.1405 3.4926s7.6841 4.4925 10.743 5.7146c4.7756 1.9079 22.235 10.779 48.877 24.834 3.8161 2.0132 11.41 6.9667 16.875 11.008 5.4651 4.0411 10.168 7.3708 10.452 7.3994 0.28335 0.0285 3.0958-1.4289 6.25-3.2388zm-285.59-5.7374c2.4005-3.4271 2.503-5.9719 0.24071-5.9719-0.93785 0-2.6237-2.3906-3.7464-5.3125-1.1226-2.9219-3.183-7.1791-4.5785-9.4606l-2.5373-4.1481-6.3515 5.7106c-3.4933 3.1408-6.8532 5.7106-7.4663 5.7106-2.543 0-0.77381 3.2553 4.5321 8.3393 4.0278 3.8593 6.6947 5.4107 9.3012 5.4107 2.0099 0 4.0019 0.5625 4.4268 1.25 1.2976 2.0996 4.1286 1.3994 6.1791-1.5281zm395.89-20.972c-2.8143-19.537-2.9124-21.353-1.2599-23.344 0.89752-1.0814 1.5663-4.8568 1.5131-8.5413-0.10688-7.3921-3.3359-14.977-9.3079-21.865l-3.7936-4.375 0.275 8.125c0.15126 4.4688 0.97436 10.656 1.8291 13.75 1.3312 4.818 2.7226 14.165 6.2761 42.158 0.36886 2.9058 1.2098 5.6166 1.8688 6.0239 0.65899 0.40727 0.87455 1.2641 0.479 1.9041-0.39553 0.63999-0.29533 1.8494 0.22267 2.6875 2.0482 3.3141 3.249-7.1422 1.8976-16.524zm-6.4336 8.4375c0.0176-3.3241-2.8666-22.309-5.8285-38.366-1.7048-9.2417-3.2594-20.076-3.4547-24.075-0.31642-6.4798-0.92817-7.9517-5.6145-13.509-2.8927-3.4305-5.8609-6.2373-6.596-6.2373-1.4626 0-0.54611 10.317 1.4991 16.875 0.64326 2.0625 1.7091 7.6875 2.3686 12.5 1.7805 12.993 2.5928 18.139 3.8477 24.375 0.62256 3.0938 1.491 8.9095 1.9298 12.924 0.65552 5.9964 1.586 8.1712 5.2145 12.188 4.5386 5.0236 6.6195 6.067 6.634 3.3261zm-13.769-9.375c-0.0209-1.8043-3.705-31.007-4.8492-38.438-1.6871-10.957-6.2617-33.156-7.1179-34.542-0.4055-0.65611-0.0958-1.966 0.68843-2.9108 1.1233-1.3535-0.0809-3.5956-5.6766-10.57-3.9063-4.8688-7.5932-8.8524-8.1931-8.8524-1.5741 0-1.3525 3.6084 0.85833 13.981 1.072 5.0293 2.1496 10.64 2.3947 12.469 0.2451 1.8287 1.4008 8.0082 2.5683 13.732 1.1675 5.724 2.315 11.54 2.5501 12.925 0.23507 1.3848 0.97986 5.049 1.6551 8.1428 0.67521 3.0938 1.9115 9.5625 2.7473 14.375 0.83579 4.8125 2.1222 9.7203 2.8587 10.906 0.98278 1.5826 0.91616 2.5792-0.25043 3.7458-1.286 1.286-0.68332 1.9903 3.1563 3.6885 5.4592 2.4145 6.6251 2.6521 6.6099 1.3469zm-13.105-7.5c-0.90296-9.4303-7.8112-45.813-14.955-78.766-1.0825-4.9929-1.6417-10.379-1.2426-11.969 0.57359-2.2854-0.38937-3.8984-4.5961-7.699l-5.3217-4.8078-1.0292 3.0875c-0.92945 2.7883 0.97901 16.295 5.0997 36.091 1.6407 7.8822 2.7248 14.418 3.8356 23.125 1.1116 8.713 3.694 20.422 5.1 23.125 0.53648 1.0312 1.3278 4.0966 1.7584 6.8118 0.43066 2.7152 1.612 6.5985 2.6252 8.6296 1.0132 2.031 1.8422 4.4501 1.8422 5.3757 0 1.0281 1.4266 1.683 3.6663 1.683 3.4831 0 3.6439-0.23425 3.2175-4.6875zm-10.634 2.5714c0-0.47635-2.2226-10.179-4.939-21.562-6.1107-25.606-10.423-48.241-13.23-69.446-1.1832-8.9375-2.336-16.935-2.5617-17.773-0.38905-1.4437-8.2387-5.352-10.749-5.352-1.5611 0-0.27221 11.539 2.8623 25.625 4.7658 21.417 5.9266 27.535 6.7191 35.415 0.43781 4.3535 1.261 9.1348 1.8294 10.625 0.56834 1.4902 2.2745 7.4908 3.7915 13.335 5.1799 19.954 6.7788 24.301 9.9756 27.119 3.0967 2.7306 6.3021 3.7552 6.3021 2.0144zm-263.2-11.14c7.4678-9.1676 7.5389-12.597 0.38117-18.399-2.9219-2.3684-6.7188-4.7294-8.4375-5.2467-1.7188-0.51727-6.3433-2.5546-10.277-4.5275-7.0834-3.5526-11-4.3938-12.672-2.7218-0.47584 0.47584 0.69604 2.1129 2.6042 3.638 1.9081 1.525 3.0509 3.1948 2.5395 3.7105-0.51141 0.51574-1.9177 0.0693-3.125-0.99231-10.149-8.923-35.812-13.729-47.502-8.8961-3.8722 1.6009-4.0515 1.9753-3.9449 8.2384 0.11362 6.6735-1.356 11.249-5.6542 17.606-1.9587 2.8966-2.086 3.7362-0.69641 4.595 2.8461 1.759 22.194 2.8658 34.238 1.9585 14.908-1.123 21.01-2.5732 27.159-6.4548 2.7866-1.7591 5.3632-2.9018 5.7257-2.5393 0.82535 0.82534-5.8902 7.6316-8.4074 8.5209-2.8047 0.9909-1.1072 2.098 8.3149 5.4228 12.274 4.3312 13.186 4.1506 19.753-3.9119zm248.85-2.0729c-0.44611-2.9219-1.319-6.7188-1.9397-8.4375-1.7014-4.711-5.8919-22.375-6.8205-28.75-1.0671-7.3259-6.2983-33.824-9.5006-48.125-1.3856-6.1875-2.7838-12.516-3.1074-14.062-0.494-2.3623-1.4064-2.8125-5.6998-2.8125-4.6534 0-5.0555 0.25213-4.4848 2.8125 0.34481 1.5469 1.8447 9.2812 3.3331 17.188 1.4884 7.9062 3.2028 16.062 3.8099 18.125 0.60705 2.0625 1.7267 7.4062 2.4882 11.875 0.76147 4.4688 1.8824 9.8125 2.491 11.875 0.60856 2.0625 1.3526 6 1.6534 8.75 0.58605 5.3574 6.8004 25.296 8.6336 27.701 0.66267 0.86933 0.58071 1.776-0.20444 2.2613-0.72089 0.44552-1.3107 1.2091-1.3107 1.6968 0 1.3982 6.6327 5.1457 9.1724 5.1825 1.9996 0.029 2.1922-0.65542 1.4863-5.2792zm-12.522-4.375c-0.19396-2.5781-1.5723-7.9951-3.063-12.038-2.6805-7.2691-3.6794-11.136-6.3356-24.525-0.75016-3.7812-2.4296-11.938-3.732-18.125-4.1328-19.633-7.7069-38.675-7.684-40.938 0.0237-2.346-2.9205-3.0036-4.1975-0.9375-0.4249 0.6875-1.8644 1.25-3.1988 1.25-2.4832 0-2.8617 1.2362-2.4874 8.125 0.30685 5.6472 6.0497 28.588 8.1782 32.669 1.0271 1.9694 1.871 5.9693 1.8752 8.8886 0.009 6.1198 5.5995 33.599 7.2731 35.749 2.1185 2.7213 2.5151 6.885 0.72146 7.5732-1.1784 0.45218-1.7369-0.27664-1.7369-2.2666 0-1.6132-0.77402-4.8299-1.72-7.1483-0.94604-2.3183-2.695-9.8402-3.8865-16.715-2.6465-15.27-13.688-62.094-15.128-64.155-0.15555-0.22257-2.0984 0.53419-4.3174 1.6817l-4.0346 2.0864 0.7793 8.3183c0.42861 4.5751 1.9734 12.256 3.4328 17.068 1.4594 4.8125 2.9239 11.562 3.2544 15 0.33046 3.4375 1.1115 6.7844 1.7356 7.4375 0.62411 0.65313 1.1348 2.2527 1.1348 3.5546s1.7704 8.0655 3.9341 15.03c2.1638 6.9647 3.9919 13.762 4.0625 15.106 0.0774 1.4728 1.3694 2.7984 3.2534 3.3379 1.7188 0.49218 6.7812 2.616 11.25 4.7195 10.548 4.9651 11.064 4.9288 10.637-0.74816zm-28.708-11.25c-0.46698-2.5781-2.7431-12-5.0581-20.938-7.5284-29.065-11.871-47.787-11.871-51.179v-3.3236l-4.375 3.337c-5.4506 4.1574-5.7167 8.589-1.2709 21.165 1.7012 4.8125 3.105 10.261 3.1196 12.108 0.0332 4.241 4.0904 21.111 6.8578 28.517 2.2774 6.0938 2.4819 7.2338 1.765 9.8373-0.29812 1.0826 1.3672 2.2985 4.5285 3.3064 7.2249 2.3035 7.2335 2.2996 6.3042-2.8312zm-13.938-3.0292c-0.49856-0.8067-1.0368-2.9161-1.1961-4.6875-0.83169-9.2503-10.94-51.477-13.709-57.27-0.0788-0.16466-1.6243 0.39784-3.4346 1.25-3.0329 1.4277-3.2533 2.0484-2.8054 7.9031 0.26733 3.4945 1.5782 9.9633 2.9131 14.375 2.2027 7.2798 4.1188 14.73 8.0474 31.292 1.0368 4.3708 2.1514 6.0824 4.5937 7.0545 4.514 1.7966 6.6698 1.8286 5.5908 0.0828zm-136.39-11.356 4.2428-8.448-3.7374-1.8645c-2.0556-1.0254-5.4926-1.8644-7.6378-1.8644-2.3818 0-10.702-3.4923-21.37-8.9697-9.6085-4.9334-20.282-10.404-23.72-12.157-11.126-5.6735-21.837-3.693-35 6.4718-6.0964 4.7079-16.106 15.584-17.224 18.715-0.30734 0.86065-1.033 1.1207-1.6126 0.57796-3.1736-2.9719 11.787-19.627 24.751-27.555 7.5856-4.6388 8.1366-4.7755 17.267-4.284 8.2286 0.44288 10.7 1.1936 19.375 5.8852 5.4688 2.9576 11.35 6.36 13.068 7.5607 3.2902 2.2986 14.953 7.8082 19.632 9.2741 6.4644 2.0254 15.459 2.8459 16.306 1.4875 2.4598-3.9425 2.5248-15.33 0.1303-22.848-3.3552-10.533-9.5017-17.127-30.037-32.22-43.1-31.683-50.62-37.097-53.94-38.813-3.3701-1.745-3.8199-1.6279-9.375 2.4396-6.4334 4.7107-7.0232 5.2728-13.338 12.712-4.3709 5.1495-5.4768 7.9735-3.1225 7.9735 2.2281 0 1.3298 3.2644-2.2703 8.25-5.981 8.2826-12.432 24.123-14.713 36.125-0.26125 1.375-0.8746 4.1875-1.363 6.25s-0.94445 4.0312-1.0134 4.375c-1.9214 9.5747-3.7606 14.048-6.15 14.956-3.4335 1.3054-5.3239 3.5728-6.3339 7.597l-0.79411 3.164 15.381-0.046c8.4596-0.0252 17.134 0.43124 19.277 1.0145 3.4946 0.95119 3.9751 0.74581 4.6625-1.9931 1.0681-4.2557 12.518-14.7 16.075-14.663 7.4593 0.0776 25.437 6.8227 34.554 12.965 3.6785 2.478 7.4066 4.5054 8.2848 4.5054s3.7748 0.97079 6.4369 2.1573c5.895 2.6274 27.004 9.9835 28.205 9.829 0.47577-0.0611 2.7743-3.9129 5.1078-8.5593zm124.65 6.3492c0-0.8106-1.0939-5.17-2.4309-9.6875s-3.0916-11.589-3.8991-15.714-2.4908-10.312-3.7406-13.75c-1.2498-3.4375-2.5867-7.2743-2.9708-8.5263-0.6629-2.1609-0.88259-2.1451-4.3345 0.31288-3.2499 2.3142-3.5756 3.1534-3.0659 7.9013 0.31365 2.9217 1.3066 6.9996 2.2067 9.0621 1.908 4.3723 4.485 14.662 4.485 17.908 0 3.1079 4.6023 12.352 6.5373 13.131 3 1.2072 7.2127 0.8348 7.2127-0.63756zm-13.772-3.2137c-0.0585-5.8924-8.457-36.55-10.65-38.876-0.22721-0.241-1.6564 0.72011-3.176 2.1358-2.3888 2.2256-2.6703 3.4693-2.0794 9.1882 0.37591 3.6378 1.8633 9.9697 3.3052 14.071 1.442 4.1012 2.6217 8.3585 2.6217 9.4607s1.8281 2.9139 4.0625 4.0259c5.2709 2.6232 5.9419 2.6226 5.9158-0.006zm-13.224-7.5c-0.43648-1.8906-1.8534-6.7648-3.1488-10.831-1.2954-4.0667-2.3552-8.3323-2.3552-9.4792 0-3.1534-1.1876-3.7267-4.548-2.1956-1.705 0.77684-2.7717 2.1106-2.4204 3.0262 0.34553 0.90043 1.0046 4.5971 1.4646 8.2149 0.46001 3.6178 1.4042 7.2944 2.0982 8.1704 0.69399 0.87599 0.88711 1.9674 0.42916 2.4254-0.45795 0.45795 0.72751 1.5237 2.6344 2.3683 5.6079 2.4839 6.736 2.1561 5.846-1.6988zm-12.386-2.8019c0.42129-0.68166-0.21074-4.3379-1.4045-8.125-1.5695-4.9791-2.7908-6.8856-4.411-6.8856-1.8587 0-2.104 0.69225-1.4394 4.0625 1.809 9.1745 5.194 14.283 7.2549 10.948zm-9.3684-7.4368c0-4.5796-2.334-6.2013-4.5546-3.1646-1.4235 1.9468-1.3659 2.6331 0.38336 4.566 2.9322 3.2401 4.1712 2.8238 4.1712-1.4014zm-63.514-3.3014c1.2029-6.7681 1.3781-17.687 0.37774-23.549-0.95843-5.6166-12.785-19.706-21.239-25.302-2.75-1.8204-11.469-8.1342-19.375-14.031-20.58-15.349-45.022-31.525-46.373-30.69-0.63532 0.39264 2.3669 3.3313 6.6715 6.5304s8.1079 6.1308 8.4516 6.515c1.0422 1.1649 19.115 14.436 23.125 16.982 2.0625 1.3091 6.5625 4.5336 10 7.1656s9.1237 6.9541 12.636 9.6047c16.567 12.503 22.965 24.738 21.786 41.663-0.3749 5.3827-0.43336 10.035-0.12991 10.339 1.4873 1.4873 3.2867-0.8244 4.0694-5.228zm-142.96-5.2098c0.73197-1.8906 2.5403-8.7812 4.0184-15.312 1.4782-6.5312 3.2536-13.741 3.9454-16.021 2.1784-7.1811 0.28163-5.5888-3.0604 2.5692-3.3012 8.0583-8.4309 26.372-8.4309 30.1 0 3.2579 2.0497 2.4821 3.5276-1.3351zm15.911-50.439c1.7771-3.507 2.6262-6.0025 1.8868-5.5455-1.1065 0.68384-6.3259 10.198-6.3259 11.532 0 1.7015 1.7161-0.61266 4.439-5.9862zm5.561-8.6236c0-0.6875-0.24805-1.25-0.55123-1.25-0.30317 0-0.89887 0.5625-1.3238 1.25-0.4249 0.6875-0.17685 1.25 0.55123 1.25 0.72807 0 1.3238-0.5625 1.3238-1.25z"/>
</svg>
