<?xml version="1.0" encoding="UTF-8" standalone="no"?>
<!-- Created with Inkscape (http://www.inkscape.org/) -->
<svg id="svg3675" xmlns:rdf="http://www.w3.org/1999/02/22-rdf-syntax-ns#" xmlns="http://www.w3.org/2000/svg" height="514.88" viewBox="0 0 399.72559 514.8783" width="399.73" version="1.1" xmlns:cc="http://creativecommons.org/ns#" xmlns:dc="http://purl.org/dc/elements/1.1/">
 <metadata id="metadata3681">
  <rdf:RDF>
   <cc:Work rdf:about="">
    <dc:format>image/svg+xml</dc:format>
    <dc:type rdf:resource="http://purl.org/dc/dcmitype/StillImage"/>
    <dc:title/>
   </cc:Work>
  </rdf:RDF>
 </metadata>
 <path id="path3685" d="m99.472 512.39c-2.7498-3.9259-0.74707-11.043 4.3504-15.46 11.027-9.5543 14.769-14.043 20.665-24.788 6.879-12.535 12.838-29.647 12.838-36.864 0-5.3834-4.3333-12.896-7.4386-12.896-1.5397 0-3.2594 2.3629-5.5298 7.598-1.8123 4.1789-5.8261 11.145-8.9194 15.48-7.1662 10.042-9.9801 16.467-12.451 28.428-1.9755 9.5642-3.0875 12.407-7.3067 18.681-2.8212 4.195-6.3882 5.5039-19.605 7.1939-10.873 1.3903-22.273 0.41719-27.427-2.3411-3.6298-1.9426-4.4637-6.6929-1.9283-10.985 2.4849-4.2066 11.798-10.707 18.212-12.711 4.3673-1.3648 8.4749-5.0004 12.815-11.343 16.759-24.491 20.679-33.678 23.201-54.375 2.5456-20.892 1.847-33.355-2.9341-52.338-4.8876-19.406-10.634-35.8-12.533-35.759-0.70387 0.0151-3.7318 1.1401-6.7287 2.5-9.0897 4.1246-14.823 2.9482-18.288-3.7524-3.5888-6.94-2.1352-15.967 5.2274-32.462 7.6192-17.07 7.6589-12.258-0.3359-40.688-0.96665-3.4375-2.0278-9.9062-2.3581-14.375-1.5784-21.356-3.093-56.022-2.5941-59.375 0.3068-2.0625 1.154-10.219 1.8827-18.125 1.2729-13.811 1.92-18.922 3.382-26.715 0.64971-3.4629 0.52525-3.5672-3.5217-2.9504-2.3074 0.35163-8.8715 1.8264-14.587 3.2772-7.9277 2.0125-14.226 2.6379-26.562 2.6379-14.504 0-16.428-0.25766-18.671-2.5-3.2329-3.2329-3.1513-5.0281 0.58779-12.932 4.4107-9.3234 16.901-19.653 41.287-34.146 11.3-6.7156 31.546-15.276 41.25-17.441 2.1015-0.46893 5.3808-2.8192 7.4597-5.3463 13.904-16.902 35.523-34.32 51.132-41.197 11.331-4.9922 29.474-7.7114 56.408-8.4544 17.658-0.48714 25.918-1.1916 28.125-2.3986 10.855-5.9361 11.251-6.067 14.699-4.8562 2.0253 0.7112 4.4477 3.1579 5.9257 5.985 1.811 3.464 3.8148 5.2322 7.2702 6.4153 2.6236 0.89829 5.9896 2.6711 7.4799 3.9396 4.6295 3.9405 10.181 9.7547 11.778 12.336 11.724 18.945 14.097 23.042 14.097 24.337 0 0.83593 1.381 4.2695 3.069 7.6301 1.6879 3.3606 3.3925 8.94 3.788 12.399 0.39545 3.4587 1.2192 8.947 1.8306 12.196 0.61135 3.2493 1.1515 13.937 1.2003 23.751 0.0806 16.201-0.17784 18.396-2.8084 23.848-3.0112 6.2419-3.0847 7.0069-1.6012 16.661 0.85818 5.5844 1.0822 5.8487 4.898 5.7774 2.1993-0.041 4.8687-0.83003 5.9321-1.7533 2.7775-2.4116 19.087-5.7114 29.317-5.9316 6.3741-0.13718 9.5985 0.38303 11.875 1.9158 2.7422 1.8464 3.4222 1.8843 5.5514 0.30933 1.3345-0.98714 3.1626-1.7948 4.0625-1.7948 4.6069 0 11.561 12.35 11.613 20.625l0.0314 5 5.5534 0.0311c10.425 0.0584 15.023 8.1237 11.385 19.969-2.4856 8.0934-2.4812 8.125 1.1197 8.125 10.803 0 16.031 11.085 11.379 24.128-1.7147 4.8074-6.7913 13.067-10.98 17.866-2.2096 2.5311-1.9477 6.7568 0.4188 6.7568 2.8965 0-0.70498 15.334-4.7206 20.098-0.91474 1.0854-1.6632 2.497-1.6632 3.1368 0 2.7655-6.242 4.5846-18.63 5.4294-9.6711 0.65951-14.742 1.6362-18.792 3.6193-7.5771 3.7098-15.441 3.5362-23.582-0.52078-3.5724-1.7803-6.4954-3.7292-6.4954-4.331 0-0.60183-1.1332-1.7007-2.5182-2.4419-2.1324-1.1412-3.4902-0.52561-8.8633 4.0185-18.95 16.026-22.038 20.956-24.111 38.491-0.28458 2.4062-1.2018 8.5938-2.0384 13.75-1.8133 11.177-0.91413 40.45 1.7298 56.314 1.809 10.855 6.4387 28.762 8.362 32.344 0.58083 1.0817 1.9909 5.0605 3.1335 8.8418 2.4349 8.0581 16.749 37.18 21.778 44.306 1.914 2.7123 4.5313 5.3446 5.8162 5.8496 3.9117 1.5374 9.9793 1.1962 13.756-0.77341 4.9601-2.5869 9.5297-2.3456 13.412 0.70802 3.8601 3.0363 4.1698 6.6496 1.1404 13.304-5.8897 12.938-14.601 18.921-28.128 19.318-15.318 0.44989-23.314-3.9745-29.041-16.069-2.3383-4.9385-6.2486-9.8238-12.66-15.816-5.102-4.7688-10.426-10.53-11.83-12.803-2.5761-4.1683-14.058-12.24-15.442-10.856-2.1116 2.1116-0.52011 13.419 2.9261 20.79 4.5506 9.7332 5.6696 10.67 13.523 11.323 7.5371 0.62629 13.695 3.561 15.421 7.3497 1.5782 3.4636-1.0198 10.201-5.5818 14.475-3.143 2.9448-3.3287 2.9639-14.686 1.5073-9.463-1.2136-12.299-2.1061-15.988-5.0323-6.9726-5.5298-8.5519-7.7179-11.826-16.385-1.6773-4.4402-4.4423-10.886-6.1444-14.323-1.7021-3.4375-4.0409-10.598-5.1972-15.913-1.1564-5.3147-2.5801-9.9583-3.1639-10.319-0.58378-0.3608-1.4397-2.895-1.902-5.6316-0.89921-5.3224-6.55-12.511-9.8344-12.511-2.8803 0-4.5425 4.0291-4.5425 11.011 0 3.3963-0.89072 8.6364-1.9794 11.645-1.0887 3.0083-2.0444 9.7568-2.1239 14.997-0.17688 11.661 1.4354 14.571 11.091 20.02 8.6364 4.8741 11.078 8.3576 10.096 14.406-1.0188 6.2784-5.2082 10.422-10.538 10.422-5.3331 0-25.949-9.7433-30.728-14.523-1.928-1.928-4.3007-5.4089-5.2728-7.7355-2.1341-5.1076-2.4886-21.544-0.70605-32.742 1.8931-11.893 2.8319-24.991 1.9829-27.666-2.4288-7.6524-10.104 5.9547-14.901 26.416-1.8534 7.9062-4.665 18.031-6.2479 22.5-1.583 4.4688-3.5761 10.094-4.4292 12.5-2.9565 8.3392-5.5 12.69-8.787 15.03-3.9788 2.8331-17.501 5.6776-28.896 6.0782-7.2343 0.25436-8.5542-0.051-10.165-2.3514zm23.891-3.028c14.181-2.5373 15.042-3.5872 25.709-31.354 1.5847-4.125 3.2719-9.6094 3.7492-12.188l0.86793-4.6875h-9.9209-9.9209l-1.9761 4.6875c-6.3614 15.089-12.856 23.738-24.48 32.595-4.8818 3.7201-6.3028 8.7212-3.1359 11.037 2.8164 2.0594 7.2085 2.0387 19.107-0.0902zm90.718-4.3446c1.3325-4.6718 0.9262-5.167-11.746-14.318-7.1486-5.1623-8.7172-8.3674-8.74-17.858-0.0213-8.8307-0.48038-9.1618-12.747-9.1912-6.1291-0.0148-7.2177 0.34342-7.9375 2.6114-1.961 6.1785-0.31173 19.227 3.3412 26.435 3.9042 7.7036 22.137 17.409 31.659 16.852 4.4748-0.26167 5.0782-0.70478 6.1693-4.5303zm58.309 2.9333c1.2147-1.0993 2.8998-3.6676 3.7447-5.7073 1.3736-3.316 1.2303-4.0342-1.3537-6.7846-2.3584-2.5104-4.0964-3.0761-9.451-3.0761-7.4315 0-12.773-3.4088-15.443-9.8557-1.9107-4.6127-4.2285-5.2059-11.761-3.0096-4.8493 1.414-5.8456 2.1636-5.1458 3.8719 0.47728 1.1651 1.4283 4.0645 2.1134 6.4431 1.3751 4.7744 8.6464 14.319 11.981 15.727 2.827 1.1934 14.955 3.7476 19.492 4.1052 1.9881 0.15668 4.6086-0.61454 5.8233-1.7138zm59.279-3.2208c4.6629-3.1951 11.908-14.205 11.908-18.095 0-5.7312-5.3224-7.0237-12.681-3.0797-4.1315 2.2144-5.1273 2.2807-11.61 0.77378-6.8114-1.5834-9.7898-3.8098-11.386-8.5108-0.5672-1.6709-1.538-1.9919-4.0959-1.3543-3.2468 0.80935-10.518 4.3936-16.047 7.9099l-2.6949 1.7139 3.8543 6.9602c6.3345 11.439 8.1884 13.544 13.737 15.594 7.8964 2.9182 23.463 1.8924 29.015-1.9121zm-251.97-9.803c12.551-1.8144 16.749-7.2507 20.786-26.919 0.42329-2.0625 2.2187-6.9961 3.9898-10.963 1.7711-3.9674 2.9975-7.3854 2.7253-7.5954-2.8122-2.1706-9.9262-5.8161-11.35-5.8161-0.99539 0-3.1342 2.3906-4.7529 5.3125-9.6462 17.412-18.745 27.686-25.668 28.985-4.6057 0.86404-15.584 9.7896-15.594 12.679-0.005 1.2687 3.2389 3.3065 7.495 4.7086 3.1095 1.0244 13.881 0.83626 22.369-0.39076zm206.12-14.12c0.71484-0.86134 5.1263-3.5287 9.8033-5.9276 5.4306-2.7854 7.7032-4.5156 6.2888-4.788-2.4708-0.47584-19.586 9.2129-19.586 11.087 0 1.6895 1.9555 1.4814 3.4936-0.37189zm-45.704-4.7179c3.2531-0.84054 5.6106-2.0205 5.2387-2.6222-0.78332-1.2674-18.029-1.5112-18.029-0.25483 0 1.664 4.0174 5.2329 5.43 4.8238 0.79478-0.23021 4.1067-1.1063 7.3598-1.9468zm46.094-0.93275c13.727-8.1251 14.983-9.1901 14.139-11.992-0.44189-1.4667-1.1764-3.0747-1.6321-3.5733-1.1324-1.2389-9.5676 1.393-16.39 5.114-11.549 6.2989-11.621 6.4066-7.2821 11.025 3.4133 3.6333 4.119 3.597 11.165-0.57364zm-42.875-8.5947c0.3438-2.4119-0.51891-2.8476-8.4444-4.2639-4.855-0.86764-9.159-1.2459-9.5644-0.84049-0.40538 0.40537-0.35218 2.4893 0.11825 4.631l0.85526 3.894 8.3262-0.36707c7.4297-0.32755 8.3674-0.65633 8.7091-3.0535zm29.2 1.1239c0.44566-1.0028 17.703-9.762 21.354-10.839 3.8326-1.1303 2.4187-3.2073-1.6319-2.3972-4.2474 0.84948-9.2175 3.2574-17.013 8.2424-5.8756 3.7572-7.6975 5.9313-4.9705 5.9313 1.0145 0 2.0321-0.42187 2.2613-0.9375zm0.754-6.939c2.5645-1.582 8.1751-4.5352 12.468-6.5625 5.754-2.7173 7.5961-4.1788 7.0089-5.561-7.6004-17.892-15.534-43.101-17.932-56.978-5.7852-33.483-4.0282-65.697 5.5165-101.15 0.92552-3.4375 2.5992-11.312 3.7194-17.5 1.1201-6.1875 3.738-20.116 5.8176-30.952 6.0974-31.773 6.3412-70.611 0.61313-97.693-2.6046-12.314-8.4199-19.797-27.549-35.445-4.4344-3.6276-30.192-18.779-36.642-21.553-7.1273-3.0661-8.1721-2.7741-15.793 4.4129-4.4334 4.1812-4.687 4.7438-2.6515 5.8829 5.0211 2.8099 16.655 14.401 21.598 21.52 7.1919 10.356 10.696 24.095 10.863 42.597 0.11863 13.124-0.0654 14.155-3.9326 22.017-5.8347 11.863-13.029 20.402-19.306 22.913-2.8836 1.1538-6.6816 3.0834-8.44 4.2881-6.3186 4.3289-14.288 6.3312-26.322 6.6136-19.744 0.46333-29.071-1.1402-43.115-7.4127-27.973-12.493-38.414-24.962-41.837-49.963-1.6409-11.985-0.70915-24.833 2.393-32.998 2.2681-5.9692 2.2661-6.0071-0.40507-7.7574-4.6132-3.0227-13.723-6.8349-18.286-7.6525-4.0019-0.717-4.6164-0.40595-7.2062 3.6476-2.2902 3.5847-3.1913 7.9524-4.7158 22.858-1.0366 10.135-2.3868 21.802-3.0004 25.927-1.9704 13.245 0.51534 76.518 3.1756 80.831 0.28188 0.45695 1.9152 6.2226 3.6297 12.812 1.7144 6.5899 4.585 17.466 6.3789 24.169 1.794 6.7031 3.7159 14.156 4.271 16.562 0.55508 2.4062 2.2122 7.75 3.6824 11.875s3.5389 10.031 4.5971 13.125c1.0582 3.0938 3.2871 9.2812 4.9532 13.75 6.7047 17.984 8.4833 28.127 8.5484 48.75 0.0583 18.452-0.63957 27.089-2.4219 29.973-0.86932 1.4066 13.509 8.7747 17.127 8.7764 1.1789 0.00054 2.81-1.2646 3.6246-2.8115 1.653-3.1389 3.4934-4.6398 5.7246-4.6684 2.8038-0.036 7.9821 5.5987 9.6595 10.511 0.92119 2.6977 2.445 5.0175 3.3863 5.1551 0.94129 0.13765 5.7131 0.65176 10.604 1.1425l8.8927 0.89217 2.7718-4.4848c1.5245-2.4666 3.7637-4.4848 4.9761-4.4848 3.0836 0 6.0562 3.6876 6.5497 8.125 0.38465 3.4585 0.91912 3.8352 6.876 4.846 8.8657 1.5045 15.416 0.18306 15.416-3.1099 0-6.8845 6.2099-9.6263 12.239-5.4036 2.9382 2.058 7.7614 10.434 7.7614 13.479 0 4.3599 4.4287 7.0923 15.315 9.4488 6.1868 1.3392 11.242 1.8786 11.636 1.2413 1.7124-2.7706 10.826 0.92709 16.799 6.8163 2.7065 2.6683 5.6674 2.447 10.962-0.81954zm-124.71-190.85c-16.04-3.6099-21.828-5.6803-22.279-7.9688-0.52325-2.6558-0.018-2.6121 11.064 0.95628 13.794 4.4417 33.311 6.4863 44.969 4.7109 5.154-0.78493 11.542-2.0424 14.195-2.7944 4.5243-1.2822 4.7769-1.605 4.0599-5.1899-1.7134-8.567 3.9902-18.678 11.327-20.081 4.4356-0.84792 10.848 2.0216 13.957 6.2454l2.5582 3.476 7.5623-7.4492c5.5535-5.4704 7.9319-7.0797 8.9536-6.058 0.86751 0.86751 0.97487 2.1354 0.28517 3.3678-1.8521 3.3096-16.304 14.351-24.205 18.492-4.0964 2.1473-7.448 4.2906-7.448 4.7631 0 0.47242-2.3906 1.6093-5.3125 2.5264-2.9219 0.91709-5.8469 2.1321-6.5 2.7001-0.65313 0.56796-3.2884 1.0326-5.8561 1.0326-2.5678 0-6.0358 0.51981-7.7069 1.1551-1.671 0.63532-8.8795 1.4591-16.019 1.8307-10.141 0.52776-15.305 0.15237-23.606-1.7157zm67.174-13.14c7.2273-4.1359 8.4418-5.8932 6.535-9.456-1.6701-3.1206-6.8333-4.3608-10.742-2.5801-3.4995 1.5945-6.7179 8.218-6.7179 13.825 0 4.308 0.37746 4.2462 10.924-1.7894zm-22.17 202.52c-0.79483-1.5533-20-2.2702-20-0.74665 0 1.9348 2.8009 2.4555 11.875 2.2073 5.2168-0.14266 8.4976-0.73248 8.125-1.4607zm43.125-2.0006c-8.7866-2.7754-14.825-3.1361-14.069-0.84046 0.56773 1.7246 7.277 3.0485 15.944 3.1461l5.625 0.0634-7.5-2.369zm-81.876-0.21546c0.00065-0.51563-0.13943-1.1323-0.31131-1.3704-0.17188-0.23807 0.34029-1.2224 1.1381-2.1875 0.79786-0.96503 1.8374-3.8242 2.31-6.3538 0.84152-4.5036 0.77238-4.6075-3.3256-5-2.3018-0.22046-6.5394-0.20646-9.4169 0.0311-4.5509 0.37574-5.4058 0.93089-6.5681 4.2652-0.73495 2.1083-1.054 4.1156-0.70894 4.4606 0.34504 0.34504 4.2851 0.59781 8.7556 0.56172 4.4706-0.0361 8.1283 0.42343 8.1283 1.0212 0 1.2832-4.9929 2.6916-8.3021 2.342-6.3518-0.67119-10.448 0.11687-10.448 2.01 0 1.6512 1.5072 1.9025 9.3738 1.5625 5.1556-0.2228 9.3744-0.82697 9.375-1.3426zm42.07-2.6123c0.1065-0.11013 0.38777-1.3252 0.625-2.7002 0.39912-2.3132-0.35455-2.5274-10.087-2.8664-7.5708-0.26372-10.805 0.0865-11.543 1.25-1.6505 2.6017-1.2248 4.5207 1.1238 5.0658 1.9087 0.44297 19.364-0.21479 19.881-0.74916zm-86.388-10.735c-0.70708-1.1441-8.6208-5.09-10.208-5.09-1.9564 0 0.34294 2.9878 4.2152 5.4772 4.4276 2.8465 7.8548 2.6251 5.9931-0.38725zm85.036 1.125c1.8588-0.70674 3.1611-1.4757 2.8939-1.7089-0.26722-0.23316-5.4077-0.80926-11.423-1.2802-10.475-0.8201-10.938-0.74784-10.938 1.7089 0 2.3212 0.76517 2.5652 8.0436 2.5652 4.424 0 9.5645-0.57824 11.423-1.285zm-77.821-9.9458c-1.7674-1.5539-16.607-5.1905-17.906-4.388-2.132 1.3176-1.4121 5.6157 0.94763 5.6578 1.2031 0.0215 4.4375 1.4358 7.1875 3.143l5 3.104 2.8959-3.3096c1.5927-1.8203 2.4365-3.7135 1.875-4.2071zm36.43 3.811c0.95212-1.5406-9.9169-3.1457-12.049-1.7794-1.1408 0.731-0.29891 1.2995 2.7238 1.8391 6.7986 1.2137 8.5454 1.2025 9.3254-0.0596zm-33.075-8.6404c0-0.93615-4.0885-2.9284-13.496-6.5764-4.1206-1.5978-6.5037-1.3743-6.5037 0.60995 0 1.7634 3.4982 3.5089 11.25 5.6134 5.7 1.5475 8.75 1.6706 8.75 0.35307zm-43.284-112.04c3.8668-1.7101 7.0247-3.257 7.0176-3.4375-0.007-0.18055-1.9701-6.797-4.362-14.703-2.392-7.9062-4.3549-15.29-4.362-16.409-0.007-1.1189-0.85672-2.7347-1.888-3.5906-1.2906-1.0711-1.875-1.1198-1.875-0.15639 0 0.76984-1.59 4.9168-3.5333 9.2156-7.2633 16.067-8.1471 22.57-3.8816 28.56 3.1458 4.4178 3.9957 4.4522 12.884 0.52122zm212.23-31.56c0.23179-0.52349 2.3902-2.5539 4.7964-4.5121 14.968-12.18 22.338-22.559 20.688-29.133-1.4067-5.6049-7.3329-10.435-12.78-10.415-9.3306 0.0333-10.058 0.6496-11.56 9.788-3.3943 20.659-4.2081 24.913-5.7661 30.141-0.9132 3.0642-1.3838 6.0188-1.0457 6.5659 0.64597 1.0452 4.9432-0.8016 5.6665-2.4353zm51.409-6.7625c3.8399-1.9596 8.8111-2.9364 18.388-3.613 7.2188-0.51 14.124-1.3361 15.346-1.8358 2.6318-1.0767 8.4044-10.495 8.4044-13.713 0-2.6283-3.423-5.5562-6.5625-5.6132-1.5291-0.0278-2.1875 0.93221-2.1875 3.1894 0 3.8543-2.7374 3.5067-3.7155-0.47186-0.51467-2.0934-1.0712-2.3952-2.5345-1.3747-1.4102 0.98353-1.4877 1.4648-0.3125 1.9417 0.85937 0.34872 1.5625 1.2152 1.5625 1.9256 0 1.2547-2.0748 0.98061-6.5625-0.86687-1.6761-0.69003-2.1875-0.28487-2.1875 1.7332 0 1.4486-0.5625 2.6337-1.25 2.6337s-1.25-0.8158-1.25-1.8129c0-0.99709-0.84604-2.2864-1.8801-2.865-2.6613-1.4893 0.34277-8.0619 3.2661-7.1458 1.1061 0.3466 2.764-0.27705 3.6842-1.3859 1.5359-1.8506 1.8-1.8427 3.2183 0.097 2.1638 2.9592 4.6154 1.2257 2.6707-1.8884-1.8999-3.0422-0.40358-4.6313 2.2708-2.4117 1.7472 1.45 2.2906 1.3514 3.7802-0.68579 0.95686-1.3086 1.7397-2.8343 1.7397-3.3904s0.90393-1.0111 2.0087-1.0111c1.3191 0 1.748 0.67959 1.2492 1.9794-1.8158 4.7319 2.805 0.2897 8.615-8.282 5.771-8.5143 6.2493-9.7908 6.2507-16.684 0.001-7.0219-0.2279-7.5993-3.8679-9.7412-3.1575-1.8579-4.5765-2.0303-7.7123-0.93714-4.9864 1.7383-6.2766 4.9946-2.8746 7.2549 3.44 2.2855 3.5847 5.785 0.16343 3.954-4.4299-2.3708-7.5822-1.6096-7.5822 1.831 0 2.2917-0.66666 3.125-2.5 3.125-2.929 0-3.3339 1.9125-0.625 2.952 3.1154 1.1955 2.15 3.4146-1.1277 2.592-2.5795-0.64741-3.122-0.21035-3.8493 3.1012-0.94341 4.2953-3.148 5.2441-3.148 1.3548 0-1.375-0.5625-2.5-1.25-2.5s-1.25 0.47221-1.25 1.0494c0 0.57715-1.3862 1.6809-3.0804 2.4529-4.4179 2.0129-5.227-0.37335-1.346-3.9701 2.1978-2.0368 2.944-3.6834 2.3595-5.2064-0.70216-1.8298-0.3571-2.0974 1.9325-1.4986 1.8146 0.47454 2.9787 0.10837 3.3358-1.0491 1.8535-6.0078 1.7402-5.8825 3.7836-4.1866 1.6139 1.3394 2.1531 1.3094 3.0869-0.17172 0.77339-1.2267 0.44658-2.3344-1.0328-3.5006-1.5836-1.2483-1.739-1.8651-0.57935-2.2991 0.87165-0.32624 2.5154-1.5237 3.6528-2.6611s3.2032-2.634 4.5908-3.3259c1.5974-0.79647 3.3464-4.0093 4.7678-8.7579 3.0812-10.294 2.8914-13.876-0.93802-17.705-2.6491-2.6491-4.0001-3.0897-7.6549-2.4966-5.2794 0.85672-4.9592 0.59727-6.0372 4.8922-0.73616 2.9331-0.47705 3.4349 1.7734 3.4349 3.5724 0 3.3244 1.7848-0.48949 3.5226-3.2656 1.4879-3.9996 3.2894-1.875 4.6024 2.2635 1.3989 1.3024 3.3101-1.2562 2.498-3.3463-1.0621-4.9784 2.8828-2.0719 5.008 3.0404 2.2232 2.5453 3.2625-1.3594 2.8538-3.1065-0.32516-3.4223 0.007-3.2797 3.4593 0.14524 3.5141-0.1792 3.8287-4.0625 3.9388-4.1188 0.11675-5.8546-2.2254-2.9703-4.0079 2.1919-1.3547 1.3451-3.1205-1.5625-3.258-2.558-0.12087-2.4946-0.2583 0.70073-1.5179 2.4677-0.97278 3.3396-2.0489 2.9298-3.6158-0.73528-2.8117 1.5868-4.3848 3.0717-2.081 0.93133 1.445 1.3086 1.4205 2.3411-0.15235 1.964-2.9918 1.4696-5-1.2309-5-3.2913 0-3.222-2.5452 0.0929-3.4121 2.0223-0.52884 2.4264-1.3409 1.8368-3.6905-0.99768-3.975 0.25644-5.9641 2.5567-4.0551 0.97004 0.80506 1.7637 1.1136 1.7637 0.68569 0-0.42793 0.0499-0.91868 0.11075-1.0906 2.975-8.3983 0.82034-20.953-4.4449-25.899-2.6283-2.4692-2.844-2.4843-5.2444-0.36921-4.6822 4.1257-6.4514 8.4404-8.5178 20.772-2.5455 15.192-3.5334 17.872-8.4756 22.996-4.2025 4.3569-7.7762 5.0312-14.409 2.719-6.569-2.29-9.7844-9.1638-11.443-24.462-1.1931-11.006-4.8235-17.04-9.8985-16.452l-3.3026 0.3825-0.036 26.875c-0.0197 14.781-0.47689 28.66-1.0158 30.842-0.97404 3.9433-0.93516 3.9831 6.5683 6.719 4.9388 1.8008 9.9676 4.9668 14.547 9.1582 5.8462 5.3512 7.4671 7.8102 9.8432 14.934 3.1962 9.5822 2.6743 17.138-1.8247 26.417-1.8297 3.7736-2.0345 5.1752-0.86464 5.9184 2.9 1.8424 11.016 1.0075 16.27-1.6736zm-10.62-40.13c-4.0927-11.158-4.427-12.705-2.8581-13.222 1.782-0.5871 1.9591-0.17437 8.0849 18.847 0.79214 2.4596 0.67894 3.4375-0.3979 3.4375-0.82774 0-3.0008-4.0781-4.8289-9.0625zm4.7866-11.875c-3.3565-12.867-3.7086-15.312-2.205-15.312 1.4368 0 4.4575 9.5576 5.8271 18.438 1.287 8.3444-1.1872 6.2098-3.6222-3.125zm-16.799 47.445c-1.501-0.99665-2.7166-3.0091-2.7013-4.4721 0.0267-2.5561 0.12175-2.5379 2.4325 0.46496 2.6841 3.4881 4.3512 2.6975 5.6822-2.6946 0.65821-2.6667 0.3068-3.4823-1.7866-4.1467-3.7103-1.1776-3.2414-3.3657 0.51907-2.4219 2.9135 0.73124 3.125 0.46987 3.125-3.8617s-0.2115-4.5929-3.125-3.8617c-3.8045 0.95487-3.9213 0.32594-0.5267-2.8366 2.4636-2.2952 2.4946-2.6213 0.59659-6.2915-1.7833-3.4486-2.2772-3.7012-4.527-2.3155-1.7318 1.0666-2.287 2.3409-1.7669 4.0554 2.5676 8.4639 2.1777 12.939-1.6724 19.196l-3.8293 6.2234 3.9878 3.0929c2.1933 1.7011 4.5128 2.7754 5.1544 2.3872 0.64165-0.38815-0.0615-1.5212-1.5625-2.5178zm66.021-21.354c0-1.5984-3.6755-4.3942-4.5833-3.4864-0.90786 0.90786 1.888 4.5833 3.4864 4.5833 0.60332 0 1.097-0.49363 1.097-1.097zm-68.227-12.162c2.9308-1.1246 2.4003-3.5924-1.1846-5.511-2.7492-1.4713-3.4352-1.4189-5.2556 0.40155-1.9583 1.9583-1.9357 2.2132 0.34939 3.9412 2.7877 2.108 3.3572 2.2172 6.0909 1.1682zm-8.3404-6.9134c1.1693-3.0978 1.0741-3.8457-0.57002-4.4766-1.1376-0.43653-2.6408 0.15472-3.5481 1.3955-0.9123 1.2477-1.8961 1.6322-2.3396 0.91448-0.42096-0.68114-0.18454-1.5974 0.52539-2.0362 2.0406-1.2612 0.14701-3.125-3.175-3.125-2.2838 0-3.2153 0.84429-3.7924 3.4375-0.42075 1.8906-0.99517 4.3062-1.2765 5.368-0.41052 1.5494 0.79949 1.9612 6.1304 2.086 6.2774 0.14698 6.719-0.0486 8.0458-3.5636zm-100.46-27.945c13.931-7.041 18.665-11.668 24.904-24.342 3.675-7.4645 3.9703-8.9982 3.8506-20-0.23915-21.98-4.4062-35.457-14.513-46.939-6.0474-6.8702-16.701-15.602-19.036-15.602-3.5596 0-25.682 19.287-25.682 22.39 0 0.44156 1.6481 2.6073 3.6625 4.8128 2.0144 2.2054 5.5008 7.744 7.7476 12.308 3.5621 7.2356 4.069 9.4831 3.9589 17.553-0.13306 9.76-2.8664 17.8-7.4618 21.948-1.302 1.1753-5.5985 3.5659-9.5479 5.3125-6.2711 2.7734-8.9229 3.1756-20.935 3.1756-9.1268 0-15.2-0.604-18.051-1.7952-6.8762-2.8731-21.52-14.424-25.051-19.759-3.8642-5.8393-5.7769-16.273-4.8729-26.582 1.2677-14.457 1.2474-14.988-0.57318-14.988-5.6018 0-7.8918 31.286-3.3853 46.25 3.5464 11.776 14.003 24.282 24.712 29.554 25.769 12.687 28.726 13.411 53.547 13.117l14.375-0.17072 12.351-6.2426zm120.77-11.956c0-2.5619-3.0406-3.3353-4.4088-1.1215-0.99747 1.614 1.7781 5.1736 3.3005 4.2327 0.6096-0.37675 1.1084-1.7768 1.1084-3.1112zm6.1576 0.81007c1.0006-1.2057 1.0491-2.02 0.15306-2.5738-1.7454-1.0788-3.8107 0.29581-3.8107 2.5363 0 2.2951 1.769 2.3132 3.6576 0.0375zm-12.408-1.9863c0-0.6875-0.5625-1.25-1.25-1.25s-1.25 0.5625-1.25 1.25 0.5625 1.25 1.25 1.25 1.25-0.5625 1.25-1.25zm18.066-8.2527c0.4646-2.4765 0.49282-4.8546 0.0627-5.2847-1.0451-1.0451-20.72-1.0585-23.242-0.0159-1.3747 0.56821-1.823 1.9462-1.453 4.4668 0.52475 3.5753 0.69241 3.6494 8.7649 3.8718 4.5264 0.12475 8.5084 0.50529 8.8488 0.84572 0.34044 0.34043 1.8689 0.61896 3.3965 0.61896 2.1997 0 2.9533-0.93678 3.6223-4.5027zm-165.36-5.7097c10.338-5.5103 13.55-11.131 13.513-23.647-0.0191-6.4487-0.76378-10.887-2.4497-14.602-2.6856-5.9169-9.9482-15.231-11.904-15.266-0.69076-0.0125-4.0983 2.9306-7.5722 6.54-7.5356 7.8294-12.139 10.61-19.997 12.078-8.9773 1.6771-15.271-0.97193-28.543-12.014-2.6775-2.2276-5.3004-3.7831-5.8287-3.4566-1.8099 1.1186-2.6953 10.863-1.8281 20.118 1.1804 12.597 5.4281 18.876 18.705 27.65l9.9298 6.5625h14.27c13.629 0 14.604-0.17805 21.704-3.9624zm-57.71-21.05c-2.3126-4.3212-1.8856-13.939 0.70287-15.832 3.2436-2.3718 3.9974-2.1234 6.1417 2.0232 2.2773 4.4039 2.5057 12.713 0.4071 14.812-2.2773 2.2773-5.7534 1.7964-7.2517-1.0032zm5.0017-5.548c0-4.0788-1.675-6.8503-2.8898-4.7817-0.90804 1.5462 0.57033 9.0829 1.7817 9.0829 0.60946 0 1.1081-1.9356 1.1081-4.3012zm201.97 18.896c0.43824-4.1104-1.4943-5.1904-6.1322-3.4271-2.3172 0.88101-3.3406 2.173-3.3406 4.2177 0 3.9668 0.67289 4.4166 5.2176 3.4871 3.0916-0.63229 3.9596-1.5049 4.2552-4.2777zm6.7772-0.22011c0-5.1459-1.9462-5.708-4.0182-1.1605-1.1858 2.6024-1.1211 3.4318 0.3393 4.3559 3.0317 1.9181 3.6789 1.356 3.6789-3.1954zm11.019 0.98169c0.3004-2.1125-0.39766-2.9669-2.9467-3.6067-3.5846-0.89968-5.5183 0.80383-5.5528 4.8917-0.0306 3.6247 7.9734 2.4146 8.4995-1.285zm-12.269-8.0476c4.4688 0.20198 9.4646 0.46819 11.102 0.59157 2.4247 0.1827 3.3015-0.7011 4.7262-4.7641 1.5905-4.5356 1.5472-5.1428-0.47696-6.6884-3.0062-2.2956-26.681-1.082-33.363 1.7103l-4.7782 1.9965 2.6452 2.8156c1.4548 1.5486 2.6452 3.508 2.6452 4.3542 0 1.1154 1.2894 1.2743 4.6875 0.57788 2.5781-0.52839 8.3438-0.79544 12.812-0.59346zm-173.97-27.99c2.5297-1.8402 11.068-9.8923 18.974-17.894 7.9062-8.0014 15.5-15.4 16.875-16.442 6.4914-4.9166 23.124-19.212 23.116-19.868-0.0262-2.189-31.593-9.9822-43.523-10.745-4.5887-0.29335-12.128-0.98606-16.753-1.5394-4.6254-0.55331-9.3484-0.67679-10.496-0.27438-1.1472 0.4024-5.2378 0.32732-9.0902-0.16687s-12.067-1.2566-18.254-1.6943c-6.1875-0.43768-14.846-1.2415-19.242-1.7863-9.2903-1.1514-22.214 1.6839-30.98 6.797-2.8724 1.6753-6.129 3.046-7.2368 3.046s-4.9376 1.9688-8.5107 4.375-7.2071 4.375-8.0757 4.375c-0.86855 0-1.5792 0.46745-1.5792 1.0388 0 0.57133-1.5469 1.8337-3.4375 2.8053-11.332 5.8234-30.816 23.231-32.829 29.331-3.1892 9.6634 5.5033 10.492 20.016 1.909 11.119-6.5762 15.982-8.4494 27.707-10.674 13.017-2.4692 26.343-2.4288 34.878 0.10575 7.7408 2.2988 18.644 9.066 32.849 20.388 5.3947 4.3 11.582 8.6242 13.75 9.6094 5.9182 2.6897 16.178 1.4228 21.842-2.697zm-13.213-0.14458c-1.7284-0.6974-2.1482-2.9222-0.55141-2.9222 0.5561 0 2.103 0.82586 3.4375 1.8352 1.8081 1.3676 1.9486 1.8202 0.55141 1.7763-1.0312-0.0324-2.5781-0.34265-3.4375-0.68941zm9.9078-5.0182c0.23835-1.2376 1.4113-2.4386 2.6065-2.6688 2.9818-0.57424 2.7332 1.3137-0.43335 3.2912-2.2985 1.4354-2.5553 1.3619-2.1732-0.62247zm-22.167-0.92676c-1.3334-0.97504-1.9878-2.2094-1.4542-2.743 0.53363-0.53365 2.2046 0.26411 3.7133 1.7728 3.0578 3.0578 1.5067 3.7239-2.2591 0.97025zm-12.435-8.2349c-2.2877-2.5279-1.9178-4.6932 0.54205-3.1729 1.8953 1.1713 4.1398 5.6806 2.8276 5.6806-0.60514 0-2.1215-1.1284-3.3696-2.5077zm47.507-2.4923c0.4249-0.6875 1.7237-1.2414 2.8863-1.2309 1.8216 0.0165 1.8546 0.18661 0.23873 1.2309-2.448 1.582-4.1027 1.582-3.125 0zm-151.87-4.55c-0.007-2.842 2.8832-5.9829 4.8499-5.2712 0.65461 0.23688-0.16743 2.1182-1.8268 4.1807-2.7373 3.4024-3.0175 3.5035-3.0232 1.0906zm90.547-0.98835c-1.3334-0.97504-1.9878-2.2094-1.4542-2.743 0.53363-0.53365 2.2046 0.26411 3.7133 1.7728 3.0578 3.0578 1.5067 3.7239-2.2591 0.97025zm-78.053-0.79323c0-1.5208 3.1077-2.8564 5.1005-2.1921 0.78816 0.26271-0.037 1.1475-1.8338 1.9661-2.0501 0.93409-3.2668 1.0183-3.2668 0.22601zm148.75-2.39c0-1.3694 4.0639-3.794 6.3591-3.794 0.83788 0 0.2263 1.125-1.3591 2.5-3.1278 2.7127-5 3.1972-5 1.294zm-133.75-3.79c0-0.6875 1.1582-1.25 2.5738-1.25s2.2261 0.5625 1.8012 1.25-1.5831 1.25-2.5738 1.25c-0.99067 0-1.8012-0.5625-1.8012-1.25zm48.438-0.86166c-1.2031-0.3144-2.1875-1.0929-2.1875-1.73 0-1.8563 4.5474-1.3349 6.25 0.71665 1.6618 2.0023 0.66933 2.2499-4.0625 1.0133zm-64.688-1.3595c0-1.8636 4.7292-5.5774 6.3952-5.0221 0.89461 0.2982-0.12265 1.6971-2.4277 3.3384-2.1821 1.5538-3.9675 2.3115-3.9675 1.6837zm30-1.3951c0-1.6388 3.1086-2.5526 4.9057-1.442 1.158 0.71569 1.0234 1.164-0.52809 1.7594-2.8842 1.1068-4.3776 0.99852-4.3776-0.31731zm15-1.3837c0-0.6875 1.373-1.25 3.0512-1.25s3.3989 0.5625 3.8238 1.25c0.45072 0.72927-0.82035 1.25-3.0512 1.25-2.1031 0-3.8238-0.5625-3.8238-1.25zm118.21-4.064c0.85636-2.7441 2.7158-4.6298 4.6033-4.6684 1.7088-0.0349 0.97066 2.5466-0.9375 3.2788-1.0312 0.39574-1.875 1.5031-1.875 2.4608 0 0.95769-0.6004 1.7413-1.3342 1.7413-0.81037 0-0.98962-1.1043-0.45652-2.8125zm-149.93-3.073c-0.39228-0.39227-0.41407-1.1973-0.0484-1.7889 0.87756-1.4199 4.2672-1.3876 4.2672 0.0406 0 1.3797-3.2433 2.7237-4.2188 1.7483zm160.96-7.3418c0.41731-1.0875 0.75874-2.2125 0.75874-2.5 0-0.28751 1.2311-0.52276 2.7357-0.52276h2.7357l-2.6834 2.5c-3.2289 3.0082-4.5767 3.2068-3.5467 0.52276zm-149.64-1.002c-1.1624-3.0292 4.8519-6.4018 7.9746-4.4719 1.3711 0.8474 1.2191 1.2488-0.73836 1.9493-1.3557 0.48524-3.3798 1.6648-4.498 2.6212-1.7422 1.4902-2.134 1.476-2.7382-0.0986zm16.133-6.84c-0.31432-0.50856-0.14002-1.6228 0.38735-2.4761 1.1282-1.8255 7.4207-2.599 7.6433-0.93956 0.19647 1.4646-7.273 4.6415-8.0307 3.4156zm14.264-6.9532c0-1.9256 7.0979-4.889 8.0438-3.3584 0.3295 0.53314-1.3456 1.8967-3.7224 3.0301-3.5254 1.6812-4.3215 1.7416-4.3215 0.32827zm215.05 55.994c2.5788-7.8139-0.153-57.604-3.4051-62.062-0.61753-0.8464-1.8268-3.6147-2.6874-6.1518-2.8904-8.5213-14.148-27.456-15.919-26.777-2.0781 0.79742-7.775-3.6568-6.4182-5.0182 0.54689-0.54878 2.2344-0.22558 3.75 0.71822 2.6107 1.6257 2.6583 1.5904 0.90451-0.67232-6.0331-7.7839-12.356-11.694-21.119-13.062l-5.4703-0.85336 0.69197 7.6311c0.97317 10.732-1.0595 27.048-4.9236 39.52-1.8105 5.8438-3.7192 11.188-4.2418 11.875-0.52251 0.6875-1.8249 3.362-2.8942 5.9434l-1.9442 4.6934 5.1633 2.6341c19.107 9.7476 42.027 27.83 50.878 40.139 2.3588 3.2806 4.7058 5.9646 5.2156 5.9646 0.50974 0 1.5987-2.036 2.42-4.5244zm-3.7802-3.8393c-0.01-1.5063 0.54336-3.0864 1.2309-3.5113 1.5915-0.98359 1.5915 1.9124 0 4.375-0.98511 1.5244-1.2153 1.3628-1.2309-0.86373zm0.10546-13.199c-0.0685-2.5781 0.4379-4.6875 1.1254-4.6875 1.431 0 1.431 1.7818 0 6.25-0.89317 2.7889-1.0142 2.6209-1.1254-1.5625zm0.7368-15.147c-0.54069-1.9718-0.67445-3.8936-0.29724-4.2708 1.3039-1.3039 2.1224 0.76563 1.7021 4.3041l-0.42182 3.5518-0.98307-3.585zm-54.914-14.01c-1.0761-1.076 1.2169-5.5305 2.8468-5.5305 1.6593 0 1.5101 1.6064-0.39079 4.206-0.87824 1.2011-1.9834 1.7971-2.456 1.3246zm52.507-2.3984c-0.80123-4.1426-0.006-6.4349 1.6547-4.7736 0.59201 0.59201 0.62476 2.7504 0.0727 4.7964l-1.0036 3.72-0.7239-3.7429zm-46.173-7.5177c-0.94853-0.94852 0.29232-6.7622 1.6182-7.5816 1.3735-0.84886 1.4208 4.5277 0.0588 6.6735-0.55205 0.8697-1.3067 1.2784-1.6769 0.90812zm41.704-8.0638c-2.6953-3.6456-3.6284-7.5598-1.7976-7.541 0.89673 0.009 6.5625 9.1181 6.5625 10.551 0 1.7842-2.2902 0.33776-4.7649-3.0095zm-38.985-10.573c0-1.6625 0.34143-3.9125 0.75874-5 1.3963-3.6387 2.4373-2.0295 1.9555 3.0228-0.51273 5.3765-2.7142 6.9802-2.7142 1.9772zm29.625-6.6027c-2.4267-4.5692-2.6885-6.6246-0.84369-6.6246 1.6062 0 3.964 6.0102 3.3941 8.6515-0.29229 1.3546-1.0921 0.71895-2.5504-2.027zm-27.758-10.687c-1.1808-2.9222 0.29849-6.7726 1.9626-5.1084 0.79597 0.79597 0.82644 2.3412 0.0842 4.2715-1.0149 2.6395-1.2754 2.746-2.0468 0.8369zm10.217-9.2708c-1.0168-1.0168-1.1135-5.4167-0.11905-5.4167 1.2266 0 4.2857 3.5052 4.2857 4.9107 0 1.4763-2.8502 1.8224-4.1667 0.50596zm-8.7854-4.7917c-0.39572-1.0312-0.17465-1.875 0.49126-1.875 0.66593 0 1.2108 0.84375 1.2108 1.875s-0.22107 1.875-0.49126 1.875c-0.2702 0-0.81504-0.84375-1.2108-1.875zm-199.98 99.983c4.012-1.1164 9.5445-2.6454 12.295-3.3978 5.3217-1.4561 6.8251-2.811 6.8559-6.1783 0.038-4.1665-20.715-0.76771-32.776 5.3678-1.1938 0.60728-3.1782 1.1042-4.4097 1.1042-1.8895 0-6.5448 3.9299-6.5448 5.525 0 1.1926 17.946-0.57494 24.58-2.4209zm183.24-49.664c6.8961-16.259 10.372-36.115 8.9342-51.037-1.0224-10.611-2.4278-11.56-16.702-11.276-9.8884 0.19673-16.934 0.73222-16.934 1.287 0 0.127-6.4688 0.46703-14.375 0.75564-22.609 0.8253-28.747 1.6488-42.153 5.6554-7.905 2.3625-9.4244 3.1415-21.597 11.073-13.814 9.0004-36.628 30.237-34.1 31.741 1.4414 0.85702 14 1.9795 30.975 2.7686 49.786 2.3142 82.82 7.9327 95.491 16.241 2.4802 1.6263 4.8646 2.9901 5.2986 3.0305 0.43404 0.0405 2.7574-4.5671 5.1631-10.239zm-127.78-15.664c0.0699-1.5781 3.6587-5.7415 4.3518-5.0484 1.0572 1.0572-0.65887 4.5144-2.6132 5.2643-0.97809 0.37533-1.7605 0.27819-1.7386-0.21585zm9.9602-8.8054c0-0.56765 1.4062-2.3532 3.125-3.9679 3.6419-3.4214 4.1201-1.9175 0.69555 2.1875-2.4317 2.915-3.8206 3.5621-3.8206 1.7804zm12.5-12.634c0-1.4585 4.9026-3.0983 5.9955-2.0054 0.93682 0.93682-2.1391 3.1239-4.433 3.152-0.85938 0.01-1.5625-0.50546-1.5625-1.1466zm11.25-6.2856c0-1.4205 5.023-6.2987 6.4857-6.2987 1.6202 0 1.2106 0.90939-1.9415 4.3106-3.1121 3.358-4.5442 3.9846-4.5442 1.9881zm14.021-6.506c0.3023-0.91722 1.8338-1.8556 3.4034-2.0854 1.9391-0.28381 2.6776 0.11686 2.3042 1.25-0.3023 0.91722-1.8338 1.8556-3.4034 2.0854-1.9391 0.28381-2.6776-0.11686-2.3042-1.25zm14.729-3.5819c0-1.7387 3.2828-2.897 5.0736-1.7903 1.0532 0.65092 0.98491 1.1825-0.25265 1.9666-2.3263 1.474-4.821 1.3828-4.821-0.17634zm14.302-1.3294c-0.32587-0.52724-0.0158-1.315 0.68911-1.7507 1.529-0.94495 6.7754 0.51983 5.7029 1.5922-1.1314 1.1314-5.7204 1.2451-6.392 0.15844zm13.198 0.11863c0-0.6875 1.0918-1.25 2.4262-1.25s2.7739 0.5625 3.1988 1.25c0.43815 0.70895-0.61203 1.25-2.4262 1.25-1.7593 0-3.1988-0.5625-3.1988-1.25zm15-1.0348c0-1.6981 4.0058-2.488 6.895-1.3596 2.8157 1.0997 2.7292 1.1594-2.8325 1.9533-2.2344 0.31896-4.0625 0.0518-4.0625-0.59372zm19.062-1.6681c2.3017-0.84064 4.5733-0.84064 6.875 0 3.0258 1.1051 2.6142 1.2555-3.4375 1.2555s-6.4633-0.15035-3.4375-1.2555zm18.398-6.3596c-0.0656-2.6102-6.0017-6.1723-8.8037-5.283-3.5414 1.124-2.423 3.2621 2.6684 5.1018 5.6074 2.0261 6.1821 2.0431 6.1353 0.18121z"/>
</svg>
