<?xml version="1.0" encoding="UTF-8" standalone="no"?>
<!-- Created with Inkscape (http://www.inkscape.org/) -->
<svg id="svg3673" xmlns:rdf="http://www.w3.org/1999/02/22-rdf-syntax-ns#" xmlns="http://www.w3.org/2000/svg" height="758.71" viewBox="0 0 212.71172 758.7099" width="212.71" version="1.1" xmlns:cc="http://creativecommons.org/ns#" xmlns:dc="http://purl.org/dc/elements/1.1/">
 <metadata id="metadata3679">
  <rdf:RDF>
   <cc:Work rdf:about="">
    <dc:format>image/svg+xml</dc:format>
    <dc:type rdf:resource="http://purl.org/dc/dcmitype/StillImage"/>
    <dc:title/>
   </cc:Work>
  </rdf:RDF>
 </metadata>
 <path id="path3683" d="m20.204 757c-0.49205-1.5503-1.0804-1.693-3.7846-0.91741-3.6198 1.0381-11.1 1.1898-14.446 0.29293-2.062-0.55269-2.1976-1.0545-1.7879-6.6151 0.24381-3.3094 0.57285-6.1102 0.7312-6.2241 0.74936-0.53903 20.805 0.78091 20.252 1.3329-0.34817 0.34746-4.7574 0.63175-9.7984 0.63175h-9.1654l-0.3075 4.25-0.3075 4.25h10.164c8.9364 0 10.09 0.19468 9.5462 1.6113-0.45257 1.1794-0.19124 1.4474 0.9748 1 0.87622-0.33624 5.151-0.61134 9.4996-0.61134 7.6032 0 7.8973-0.0863 7.6682-2.25-0.22475-2.1229 0.16686-2.2665 6.931-2.5422 6.5514-0.267 7.2271-0.10995 7.8403 1.8223 0.40022 1.261 1.2316 1.8994 2.0598 1.5816 0.76377-0.29308 6.7463-0.59717 13.295-0.67576l11.906-0.14287 0.69862-5.1466c0.38424-2.8306 0.90024-7.6552 1.1467-10.721l0.44806-5.5747-5.0316 0.40111c-4.5144 0.35988-5.0316 0.1934-5.0316-1.6195 0-3.2862-4.0877-7.064-8.1524-7.5344-3.8673-0.44757-6.1125 0.63668-11.348 5.4801-2.8077 2.5976-7.1522 3.5156-14.25 3.0111-0.83552-0.0594-1.25-1.8882-1.25-5.5155 0-6.3525-0.96946-6.9467-8-4.903-2.475 0.71943-5.4672 1.3129-6.6493 1.3189-1.8256 0.009-2.2032 0.68853-2.5072 4.5108l-0.3579 4.5h3.7572c2.0665 0 3.7572 0.43248 3.7572 0.96107 0 0.52858-3.9297 1.0911-8.7328 1.25l-8.7328 0.28893 0.30923 4.25c0.17008 2.3375-0.0627 4.25-0.51724 4.25-0.45456 0-0.85897-1.0125-0.89869-2.25-0.0397-1.2375-0.26472-3.6-0.5-5.25-0.41558-2.9145-0.29994-3.0091 4.0558-3.3189 5.2867-0.37604 5.9792-1.204 6.0061-7.1811l0.0203-4.5 4.685-0.27328c2.5768-0.1503 4.8588-0.44709 5.0713-0.65953 0.43842-0.43842 0.32607-21.564-0.23703-44.567-0.20868-8.525-0.0756-23.808 0.29574-33.963l0.67515-18.463 3.2608-2.1943c1.7935-1.2069 5.506-2.5031 8.25-2.8805l4.9891-0.68619 0.0243-6.1562c0.0134-3.3859 0.28935-8.5191 0.61334-11.407 0.32398-2.888-0.19925-11.888-1.1627-20-1.4493-12.202-1.6348-19.066-1.0745-39.749 1.3859-51.158 1.6764-56.928 2.9062-57.722 1.739-1.1227 7.5597-2.7297 12.443-3.4354l4.25-0.61413 0.116-5.6141c0.0638-3.0878 0.31755-4.8486 0.56388-3.9131 0.36119 1.3717 0.93201 1.5169 2.9491 0.75 3.2546-1.2374 9.371-1.2259 9.371 0.0177 0 0.53273-0.67725 0.70873-1.505 0.39109-2.534-0.97241-10.495 1.8672-10.495 3.7434 0 1.4343 0.88676 1.5954 6.3632 1.1558 4.1551-0.33353 6.6046-0.12006 7.059 0.61515 0.48853 0.79046-1.2408 1.1259-5.8041 1.1259-3.575 0-6.7781 0.45-7.118 1-0.33992 0.55 0.42102 1.0557 1.691 1.1238 8.1201 0.4355 12.126 0.85937 12.6 1.3333 0.29857 0.29857-0.67298 0.54285-2.159 0.54285-2.4203 0-2.5867 0.21519-1.5968 2.0649 1.5728 2.9389 1.8581 5.0002 1.8985 13.717 0.0412 8.889-0.6089 41.219-1.3767 68.468l-0.52832 18.75h8.9237c8.3073 0 8.9133-0.13816 8.7731-2-0.0958-1.2722-0.892-2.0231-2.1878-2.0634-1.9085-0.0594-1.8951-0.1205 0.2128-0.96777 2.5312-1.0174 3.1276-4.9688 0.75-4.9688-0.825 0-1.5-0.45-1.5-1s0.70489-1 1.5664-1c1.1189 0 1.476-0.78573 1.25-2.75-0.17403-1.5125-0.84142-2.75-1.4831-2.75-0.64166 0-1.5042-0.3375-1.9167-0.75s0.225-0.75 1.4167-0.75c2.623 0 3.0067-3.4305 0.53825-4.8119-1.1133-0.62306-1.2715-1.1319-0.5-1.6087 1.7042-1.0533 1.4028-5.5794-0.37158-5.5794-0.825 0-1.5-0.45-1.5-1s0.675-1 1.5-1c1 0 1.5-1 1.5-3 0-1.6542-0.53432-3-1.1911-3-0.65512 0-0.37497-0.59679 0.62255-1.3262 2.1591-1.5788 1.3959-5.3028-1.2284-5.9935-1.327-0.34929-1.2444-0.47389 0.3738-0.56428 1.7216-0.0962 2.0015-0.62917 1.6365-3.116-0.24645-1.6791-1.0508-3-1.8268-3-0.76257 0-1.3865-0.45-1.3865-1s0.675-1 1.5-1c2.5595 0 1.8813-4.7875-0.75-5.2943l-2.25-0.43337 2.25-0.13618c1.7905-0.10837 2.25-0.73466 2.25-3.0666 0-2.2412-0.52922-3.0346-2.25-3.373-2.2091-0.43456-2.2122-0.45529-0.17239-1.1411 2.6222-0.88159 2.5446-4.9029-0.1045-5.4162-1.6594-0.32151-1.6047-0.49843 0.50201-1.6259l2.364-1.2652-2.7659-2.7659c-2.4446-2.4446-2.5224-2.7022-0.66954-2.2177 1.6241 0.42471 2.0964 0.0873 2.0964-1.4979 0-1.1254-0.7875-2.6439-1.75-3.3746-1.6667-1.2652-1.6667-1.33 0-1.3602 1.0576-0.0192 1.75-0.80345 1.75-1.9821 0-1.0727-0.7875-2.409-1.75-2.9696-1.6667-0.97075-1.6667-1.0207 0-1.0497 2.5971-0.0451 2.2106-3.9097-0.5-4.9992l-2.25-0.90439 2.25-0.0634c3.4468-0.0971 3.0205-3.8114-0.5-4.3559-2.6519-0.41016-2.6698-0.45236-0.5-1.183 1.2375-0.41675 2.25-1.1552 2.25-1.6411 0-0.48585 0.0266-1.2209 0.059-1.6334 0.0325-0.4125-0.98004-1.0426-2.25-1.4003-2.1704-0.61129-2.144-0.6563 0.44098-0.75 2.0501-0.0743 2.75-0.60869 2.75-2.0997 0-1.579-0.66667-2-3.1667-2-1.7417 0-2.826-0.3375-2.4096-0.75 0.41636-0.4125 1.7205-0.75 2.898-0.75 1.2092 0 2.2842-0.73214 2.4699-1.6822 0.24352-1.2455-0.53029-1.788-2.9814-2.09l-3.3103-0.40782 3.25-0.16003c2.53-0.12457 3.25-0.6031 3.25-2.16 0-1.4538-0.66667-2-2.441-2-1.3425 0-2.7431-0.48883-3.1124-1.0863-0.43715-0.70732 0.29676-0.96897 2.1037-0.75 4.2555 0.51568 4.1792-1.9362-0.0851-2.7362-2.5524-0.47883-3.2541-0.94413-2.3142-1.5345 0.74191-0.46603 2.1928-0.58439 3.2242-0.26302 1.1283 0.35157 1.6269 0.18251 1.2518-0.42443-1.5363-2.4858-25.627-2.596-25.627-0.1172 0 0.53792 2.3158 0.65696 5.5 0.28272 3.8225-0.44926 5.5-0.29943 5.5 0.49127 0 0.62572-1.2405 1.1377-2.7566 1.1377s-4.1942 0.4123-5.9513 0.91622l-3.1947 0.91623-0.75939-4.6662c-0.95816-5.8876-1.068-63.011-0.14922-77.616 0.79349-12.614 1.1386-13.122 10.923-16.084 3.3964-1.0284 5.8914-2.3908 6.1344-3.3497 0.22527-0.88903-0.0756-7.1058-0.66866-13.815-0.59303-6.7093-0.73378-13.684-0.31278-15.5 0.42099-1.8157 0.51544-15.226 0.20989-29.801-0.30556-14.575-0.62198-32.8-0.70315-40.5-0.16565-15.713 1.251-63.592 1.9158-64.75 0.2369-0.4125 1.4924-0.75 2.7899-0.75 5.4448 0 5.5228-0.20523 5.5228-14.53 0-12.558 0.1352-13.477 2.3758-16.143 2.2419-2.6675 2.3989-3.7386 2.786-19.012 0.33712-13.299 0.70714-16.513 2.075-18.024 1.4215-1.5707 1.6022-3.699 1.2368-14.565-0.408-12.189-0.339-12.76 1.55-12.76 1.8634 0 1.9772-0.71444 1.9772-12.418 0-6.83 0.27953-13.147 0.62118-14.037 0.34165-0.89032 1.8397-2.2489 3.3289-3.019l2.7078-1.4002 0.19291-14.758c0.15519-11.872 0.50284-15.101 1.7777-16.509 1.368-1.5117 1.4853-3.7416 0.85726-16.305l-0.74-14.554h2.5043c1.898 0 2.6238 0.62476 2.9976 2.5806 0.84773 4.4346 1.2519 23.113 0.94501 43.677l-0.29482 19.758 2.5448 0.96754c2.1446 0.81539 2.5448 1.6004 2.5448 4.9923 0 2.9173 0.41422 4.0248 1.5054 4.0248 1.2831 0 1.4957 2.4665 1.4398 16.7-0.0621 15.788 0.048 16.786 2.0156 18.27 1.5827 1.1938 1.9484 2.2836 1.527 4.5497-0.3048 1.6389-0.6687 10.067-0.80868 18.73l-0.25449 15.75h2.7168 2.7168l-0.42105 18.25c-1.0955 47.485-1.238 62.454-0.60408 63.48 0.37787 0.61141 2.0325 1.4344 3.677 1.8288 1.6445 0.39445 3.5239 1.1365 4.1764 1.649 0.89633 0.70395 1.0807 12.468 0.75395 48.112-0.23786 25.949-0.54674 60.343-0.68641 76.43l-0.25395 29.25 3 0.0766c4.2726 0.10916 6.6164 0.64007 7.7266 1.7502 1.3993 1.3993 2.1689 7.4678 2.178 17.173 0.01 10.419-1.3877 48.372-1.9331 52.5-0.21799 1.65-0.63666 16.275-0.93039 32.5-0.29372 16.225-0.81172 31.412-1.1511 33.75l-0.61707 4.25 4.3636 0.0805c2.4 0.0443 6.3885 0.61009 8.8635 1.2574 3.5848 0.93757 4.4529 1.5822 4.2685 3.1695-0.86337 7.4318-1.3013 27.16-1.3429 60.493-0.0264 21.175-0.35799 41.2-0.73682 44.5s-0.54912 7.6875-0.37841 9.75l0.31036 3.75h5.9044c4.6024 0 6.1095 0.38592 6.8344 1.75 0.51145 0.9625 0.7716 7.375 0.57811 14.25-0.48522 17.241-1.4255 40.735-1.811 45.25-0.18759 2.1972 0.13397 3.8044 0.77658 3.8815 0.60321 0.0723 3.3467 0.18481 6.0967 0.25l5 0.11854-0.24429 4.75-0.24429 4.75h8.0295c7.339 0 7.9489 0.15057 7.0924 1.751-0.51541 0.96306-1.0937 3.5506-1.2852 5.75l-0.34807 3.999 6.1974 0.29635 6.1974 0.29635-0.59826 5.0514c-0.42248 3.5672-0.22248 5.2836 0.68072 5.8418 2.6186 1.6184-0.004 2.6521-5.0765 2.0013-2.8574-0.36657-9.7414-0.21415-15.298 0.3387-7.602 0.75637-34.505 1.2073-42.86 0.71833-0.41634-0.0244-0.47052-3.1266-0.12039-6.8938 0.72902-7.844 0.48176-8.0772-7.8047-7.3633-6.3817 0.54981-5.5734 3.155 1.039 3.349 2.5536 0.0749 3.518 0.31338 2.143 0.52996-6.7442 1.0623-7 1.2366-7 4.7711 0 5.8613-0.30833 6.0701-8.8322 5.9822-4.2957-0.0443-8.2886-0.37613-8.8733-0.73745-0.58463-0.36132-3.6219-0.1839-6.7495 0.39426-3.2719 0.60484-6.1873 0.68105-6.8658 0.17949-0.6486-0.47945-2.3043-0.76211-3.6793-0.62815s-10.375 0.50429-20 0.82296c-9.625 0.31866-20.034 0.80264-23.13 1.0755-5.0682 0.44657-5.6845 0.28948-6.1716-1.573-0.46821-1.7904-1.1914-2.0276-5.3695-1.7611-3.4112 0.2176-4.868 0.74827-4.9631 1.808-0.0741 0.825-0.19082 1.95-0.25948 2.5-0.0727 0.58272-4.4851 1.0699-10.574 1.1674-9.3435 0.1497-10.511-0.0269-11.032-1.6683zm96.544-3.9881c1.2379-0.009 1.7956-2.4411 2.8124-12.267 0.69757-6.7406 1.0073-12.928 0.68825-13.75-0.41953-1.0808-2.2103-1.5108-6.4709-1.5536l-5.8908-0.0592 0.53278 9.0592c0.30238 5.1418 0.0725 10.713-0.53152 12.884-1.5426 5.5436-0.67218 7.0187 3.7137 6.2932 1.9811-0.3277 4.2969-0.60077 5.1461-0.60682zm-4.2799-1.761c-0.19461-0.4125-0.06-2.55 0.29908-4.75l0.65293-4 0.1419 4.75c0.13201 4.4187-0.24534 5.7986-1.0939 4zm2.488-2.75c0.0111-2.2 0.21589-2.9822 0.45508-1.7383s0.23011 3.0439-0.0202 4c-0.25029 0.95609-0.446-0.0617-0.4349-2.2617zm-4.26-11.5c0-0.55 0.45-1 1-1s1 0.45 1 1-0.45 1-1 1-1-0.45-1-1zm4.2522-2.5c0.0111-2.2 0.21589-2.9822 0.45508-1.7383s0.23011 3.0439-0.0202 4c-0.25029 0.95609-0.446-0.0617-0.4349-2.2617zm-3.0572-3c0.0204-1.65 0.2445-2.2039 0.49804-1.231 0.25354 0.97297 0.23687 2.323-0.0371 3-0.27393 0.67703-0.48137-0.11903-0.46099-1.769zm56.806 13.309c-0.00049-4.78 0.44912-8.9691 0.99912-9.309 0.63887-0.39484 1 2.6897 1 8.5413v9.1593l18.25-0.72892c11.614-0.46387 18.517-1.1367 18.985-1.8503 0.40408-0.61676 0.74158-2.5839 0.75-4.3714l0.0153-3.25-5.75 0.002-5.75 0.002 0.34566-6.1374 0.34565-6.1374-10.096 0.71575c-6.6256 0.46937-10.096 0.36695-10.096-0.29833 0-0.55755 1.2375-1.1561 2.75-1.3302 2.3875-0.27471 2.7909-0.81074 3.0604-4.0664l0.31036-3.75h-10.532-10.532l-0.84216 3.25c-0.46318 1.7875-1.151 3.1375-1.5286 3-0.37754-0.1375-3.1614-0.25-6.1864-0.25-5.4444 0-5.5-0.0303-5.5-3 0-3 0-3-6-3h-6v5.375c0 2.9562-0.26487 6.6993-0.58859 8.318l-0.5886 2.943 7.3386-0.068 7.3386-0.068-0.16597 7.5-0.16596 7.5h9.4168 9.4168l-0.00087-8.691zm6.5141 5.2153c-0.38878-0.62906 0.80457-1.0243 3.0926-1.0243 3.9687 0 3.9193 1.1943-0.0714 1.7288-1.3135 0.17589-2.673-0.14112-3.0212-0.70448zm13.735-1.7136c0.9625-0.25152 2.5375-0.25152 3.5 0 0.9625 0.25153 0.175 0.45733-1.75 0.45733s-2.7125-0.2058-1.75-0.45733zm11.76-2.32c0-0.55 1.3766-1 3.059-1 1.7847 0 2.8016 0.41658 2.441 1-0.33992 0.55-1.7165 1-3.059 1s-2.441-0.45-2.441-1zm-46-3c0-0.55 0.45-1 1-1s1 0.45 1 1-0.45 1-1 1-1-0.45-1-1zm21.738 0.21294c-0.96924-0.20037-1.5052-0.78025-1.191-1.2886 0.72967-1.1806 7.4532-1.2175 7.4532-0.0409 0 1.047-3.7637 1.846-6.2622 1.3295zm13.012-0.90227c-1.9979-0.5221-2.3887-2.3176-0.5-2.297 2.6731 0.0292 5.7009 1.2568 5.1797 2.1-0.57015 0.92252-1.7184 0.97086-4.6797 0.19698zm-12.75-6.31c0-0.55 1.6016-1 3.559-1 2.118 0 3.3088 0.40488 2.941 1-0.33992 0.55-1.9415 1-3.559 1s-2.941-0.45-2.941-1zm-20.238-2.7073c1.2439-0.23919 3.0439-0.23011 4 0.0202 0.95609 0.25029-0.0617 0.446-2.2617 0.4349s-2.9822-0.21589-1.7383-0.45508zm-15.26-1.29c-0.78687-1.2732 1.5299-1.2732 3.5 0 1.2195 0.78809 1.0902 0.97224-0.69098 0.98469-1.205 0.008-2.4691-0.43469-2.809-0.98469zm25.5-6.2c0-0.44 1.575-0.8 3.5-0.8s3.5 0.36 3.5 0.8-1.575 0.8-3.5 0.8-3.5-0.36-3.5-0.8zm-60.385 20.45c0.42554-3.7125 0.64906-7.1994 0.4967-7.7487-0.15237-0.54928-0.41374-4.1493-0.58082-8-0.16709-3.8507-0.35478-7.5988-0.41711-8.3291-0.0865-1.0131-1.5945-1.2-6.3633-0.78849-3.4375 0.29661-7.7125 0.55662-9.5 0.5778-3.1274 0.037-3.25 0.1918-3.25 4.1042 0 2.2362-0.39576 4.8237-0.87947 5.75-0.48371 0.92634-1.2007 6.0718-1.5933 11.434l-0.71385 9.75h11.014 11.014l0.77373-6.75zm-15.853 3.0427c1.2439-0.23919 3.0439-0.23011 4 0.0202 0.95609 0.25029-0.0617 0.446-2.2617 0.4349s-2.9822-0.21589-1.7383-0.45508zm-1.7617-4.387c0-1.4866 2.7146-2.1942 5.6202-1.4649 3.2234 0.80901 2.9132 1.1166-1.8702 1.8548-2.1504 0.33183-3.75 0.16553-3.75-0.38985zm-0.47073-4.803c1.3379-1.2938 8.4245-1.776 8.4657-0.57603 0.0184 0.5353-2.0973 1.0951-4.7015 1.244-2.9677 0.16969-4.3726-0.0796-3.7642-0.66797zm2.9707-3.8345c1.4159-1.4212 7.5-2.4298 7.5-1.2433 0 0.53625-0.7875 0.98114-1.75 0.98865-0.9625 0.008-2.875 0.29373-4.25 0.63605-1.6717 0.41618-2.1687 0.28981-1.5-0.38142zm-0.5-5.2899c0-0.5381 2.025-0.97836 4.5-0.97836s4.5 0.35213 4.5 0.78252c0 0.43038-2.025 0.87064-4.5 0.97836s-4.5-0.24441-4.5-0.78252zm3.75-3.7134c-2.6125-0.206-4.75-0.8234-4.75-1.372 0-1.4695 10.257-0.65209 10.755 0.85705 0.22657 0.6875 0.0369 1.1689-0.4214 1.0698-0.45833-0.0991-2.9708-0.34879-5.5833-0.55479zm40.435 15.23c0.10312-5.775 0.21562-11.738 0.25-13.25 0.0613-2.6956-0.0661-2.7557-6.4375-3.04-6.1584-0.27475-6.5073-0.16965-6.6392 2-0.0766 1.2595-0.45666 7.0906-0.84464 12.958-0.8024 12.135-1.346 11.407 8.7338 11.696l4.75 0.13618 0.1875-10.5zm-10.188 3.5c0-0.55 1.1516-1 2.559-1 1.4514 0 2.2915 0.43284 1.941 1-0.33992 0.55-1.4915 1-2.559 1s-1.941-0.45-1.941-1zm0.5-13c0.33992-0.55 1.7165-1 3.059-1s2.441 0.45 2.441 1-1.3766 1-3.059 1c-1.7847 0-2.8016-0.41658-2.441-1zm-41.446-2.9167c0.30497-0.0458 0.66655-1.9958 0.80351-4.3333 0.13695-2.3375 0.56243-4.5323 0.9455-4.8773 0.38308-0.34501 5.3615-0.86792 11.063-1.162 9.483-0.48918 10.408-0.37768 10.849 1.3081 0.56245 2.1508 2.9468 3.3372 3.8312 1.9062 0.33572-0.5432 0.86636-8.5537 1.1792-17.801 0.65278-19.295 1.0908-18.442-8.7558-17.046-3.0084 0.42675-6.2573 0.80877-7.2198 0.84892-0.9625 0.0401-1.75 0.70587-1.75 1.4794 0 0.91995 0.77822 1.2568 2.25 0.97388l2.25-0.4325-2.25 1.1789c-2.6877 1.4083-2.9252 2.8286-0.5 2.9893 1.6667 0.11048 1.6667 0.13778 0 0.57333-2.6493 0.69233-2.2391 4.2935 0.5 4.3896 2.0412 0.0716 1.9948 0.17217-0.5 1.0833-1.5125 0.55241-2.75 1.4028-2.75 1.8897s0.675 0.62626 1.5 0.30968c2.2122-0.84889 1.8234 0.548-0.75 2.6948l-2.25 1.877 2.5 0.0651c2.157 0.0562 2.2857 0.23223 0.93803 1.2833-2.496 1.9467-3.1696 4.7128-1.1566 4.75 1.5536 0.0288 1.5662 0.14877 0.13085 1.25-0.87327 0.67001-1.3983 1.7807-1.1667 2.4682 0.54433 1.6158-0.77349 1.5445-3.025-0.16354-1.5381-1.1669-1.572-1.4295-0.25-1.9368 0.84116-0.32281 1.5294-1.3242 1.5294-2.2253 0-1.0455-0.54281-1.4301-1.5-1.0628-0.825 0.31658-1.5 0.18787-1.5-0.28603 0-0.47389 0.675-1.1206 1.5-1.4372 2.3636-0.907 1.9039-3.9772-0.50138-3.3483-1.1008 0.28785-1.7492 0.11534-1.441-0.38337 0.30822-0.49871 1.4338-0.90674 2.5014-0.90674 1.2954 0 1.941-0.68762 1.941-2.0674 0-1.6529-0.42606-1.9322-2.1252-1.3929-1.4301 0.4539-1.9014 0.31241-1.441-0.43262 0.37633-0.60892 1.3327-1.1071 2.1252-1.1071 0.79254 0 1.441-0.66088 1.441-1.4686 0-0.93195-0.63949-1.2768-1.75-0.94378-1.2348 0.37034-1.0876 0.0308 0.5-1.1534 3.085-2.301 2.8559-4.4012-0.5-4.5841l-2.75-0.14983 2.75-0.41659c3.5147-0.53243 3.5199-2.0406 0.0116-3.3744-2.9652-1.1274-13.175-0.3466-14.675 1.1222-0.93438 0.91543-1.6776 33.698-0.85382 37.663 0.54643 2.6302 2.6655 3.2384 8.3213 2.3884zm-29.987-3.33c1.3806-1.8404 2.4957-4.768 2.571-6.75 0.0731-1.925 0.4561-9.6586 0.85111-17.186l0.71818-13.686-3.6902-0.69227c-3.5557-0.66707-14.609-0.13083-19.266 0.93469-6.3654 1.4563-4.7369 3.8679 1.7538 2.5972 5.7427-1.1243 9-1.1845 9-0.16632 0 0.441-1.543 0.84555-3.429 0.89901-5.5742 0.15801-10.571 2.2023-10.571 4.3247 0 1.5836 0.42175 1.7377 2.75 1.0051 4.1701-1.3122 14.25-2.162 14.25-1.2014 0 0.46569-1.6875 0.90938-3.75 0.98598-3.6336 0.13495-7.8956 0.81199-11.5 1.8268-1.2808 0.36062-1.75 1.5316-1.75 4.3672v3.8744l7.25-0.39994c6.4414-0.35534 6.6883-0.30817 2.2139 0.4229-7.8139 1.2767-9.4639 2.0208-9.4639 4.2678 0 1.4931 0.44675 1.8682 1.6673 1.3998 0.91702-0.3519 4.4045-0.84488 7.75-1.0955l6.0827-0.45572-6.5 1.2587c-7.4263 1.4381-9 2.2058-9 4.3906 0 1.6063 4.2191 1.5246 13-0.25155 1.925-0.38938 3.1495-0.33031 2.7211 0.13128-0.42842 0.46159-1.4761 0.94157-2.3281 1.0666-4.5545 0.66846-6.2104 3.3302-2.143 3.4448l2.25 0.0634-2.25 0.90439c-1.2375 0.49742-2.25 1.192-2.25 1.5436 0 0.35157 0.675 0.3802 1.5 0.0636 0.825-0.31658 1.5-0.13972 1.5 0.39301 0 0.53274-0.675 0.96862-1.5 0.96862-0.83333 0-1.5 0.88889-1.5 2 0 1.749 0.66667 2 5.3119 2 4.8262 0 5.5349-0.2972 7.75-3.25zm-21.062-22.624c0-0.59836 1.0125-1.2956 2.25-1.5494 6.5115-1.3354 9.75-1.5754 9.75-0.72268 0 0.51954-1.9125 1.1384-4.25 1.3752-2.3375 0.23683-5.0375 0.78029-6 1.2077-1.0705 0.47535-1.75 0.35465-1.75-0.31085zm128.19 18.664c0.31228-3.1989 0.33114-3.209 5.4618-2.9312 5.1361 0.27809 7.5787-1.0316 5.6049-3.0053-0.53476-0.53476-3.92-1.0542-7.5227-1.1543s-6.3144-0.56385-6.0259-1.0305c0.28843-0.4667 3.6228-0.53738 7.4098-0.15707 6.5056 0.65333 6.8854 0.57806 6.8854-1.3647 0-1.5621-0.84951-2.2155-3.5354-2.7194-1.9444-0.36478-4.8918-0.39195-6.5497-0.0604-1.8661 0.37322-2.7825 0.22768-2.4056-0.38208 0.3348-0.54172 3.238-0.98494 6.4515-0.98494h5.8428l0.70349-6.0614c0.38692-3.3338 0.41496-6.3499 0.0623-6.7026-0.35266-0.35266-4.1126-0.95103-8.3553-1.3297l-7.7141-0.68851 8.2524 0.14107 8.2524 0.14107-0.002-2.6724c-0.002-2.1551-0.66484-2.8911-3.4243-3.8018-3.8009-1.2544-13.355-1.5326-18.643-0.54285l-3.4348 0.64287 0.24372 13.687c0.13405 7.5279 0.76842 16.05 1.4097 18.937l1.166 5.25h4.7769c4.6454 0 4.7856-0.0884 5.0903-3.21zm-2.2-18.04c0.00021-0.4125 3.0004-0.75 6.667-0.75 3.6667 0 6.4029 0.26377 6.0805 0.58616-0.87861 0.87861-12.748 1.0312-12.748 0.16384zm10-3.8132c-1.375-0.40558-4.1875-0.78227-6.25-0.83709-2.0625-0.0548-3.75-0.4752-3.75-0.93417 0-0.8323 11.914 0.41512 12.844 1.3448 0.95435 0.95435-0.37706 1.154-2.8436 0.42651zm1-9.0949c-1.375-0.41356-4.975-1.1948-8-1.7361-5.1327-0.91842-4.9658-0.94812 2.5-0.44476 8.4123 0.56718 8.9227 0.69384 8.3542 2.0733-0.1948 0.47267-1.4792 0.52104-2.8542 0.10749zm-38.646 32.576c1.2856-0.49332 1.5308-3.7743 1.6048-21.475l0.0874-20.893-2.4662-0.61898c-3.0379-0.76247-4.5799 0.10007-4.5799 2.5619 0 1.2863 0.83882 1.9739 2.6729 2.191 1.4701 0.17403 2.8322 0.80276 3.0269 1.3972 0.22122 0.67532-0.78149 0.9141-2.6729 0.6365l-3.0269-0.44426-0.0997 15.364c-0.0548 8.4499-0.44484 16.488-0.8667 17.864-0.42186 1.375-0.53588-1.8875-0.25339-7.25 0.51309-9.7399 0.51114-9.7501-1.8833-9.8684-1.3183-0.0651-2.7545-0.0584-3.1916 0.0149-0.43709 0.0733-1.8996 0.22477-3.25 0.33653-2.1296 0.17625-2.4553 0.6956-2.4553 3.9153 0 3.5624 0.11093 3.6822 2.75 2.9718 2.9835-0.80315 6.25-0.40991 6.25 0.75241 0 0.39923-1.4625 0.57736-3.25 0.39584-4.4912-0.45609-5.3537 0.44967-6.1314 6.4391l-0.67619 5.2074 7.7788 0.34134c4.2783 0.18774 8.0795 0.4319 8.447 0.54259 0.36752 0.11068 1.351-0.0608 2.1856-0.38105zm-15.84-5.45c0.34-0.54 2.01-0.98 3.72-0.98 3.7774 0 3.3959 0.49907-1.0254 1.3413-2.0618 0.39276-3.0713 0.25906-2.691-0.35636zm-0.50931-3.1048c0-1.0573 4.2633-2.1693 6.5892-1.7187 0.98501 0.19085-0.0712 0.82332-2.4209 1.4496-2.2926 0.61109-4.1683 0.73216-4.1683 0.26905zm0.003-8.1111c-0.007-1.5501 5.1734-2.021 6.595-0.59951 1.2384 1.2385 0.89449 1.4223-2.5815 1.3796-2.2057-0.027-4.0117-0.37812-4.0135-0.78014zm-41.003 14.814c0-0.77916-0.5625-1.6229-1.25-1.875-1-0.36666-1-0.72333 0-1.7833 1.7946-1.9023 1.5397-3.9197-0.5-3.9568-1.6667-0.0303-1.6667-0.0951 0-1.3602 0.9625-0.73064 1.75-1.6163 1.75-1.9682 0-0.35187-0.7875-0.65407-1.75-0.67156-1.5622-0.0284-1.5354-0.196 0.25-1.5618 1.9763-1.5119 1.977-1.5471 0.0589-2.9682-1.682-1.24-1.715-1.43-0.242-1.43 0.93012 0 1.6911-0.675 1.6911-1.5s-0.675-1.5-1.5-1.5-1.5-0.49814-1.5-1.107c0-0.60884 0.675-0.84797 1.5-0.53138 1.0203 0.39152 1.5-0.054 1.5-1.393 0-1.1961-0.68674-1.9811-1.75-2.0004-1.6667-0.0303-1.6667-0.0951 0-1.3602 2.4215-1.8382 2.1887-3.5814-0.5-3.7441l-2.25-0.13618 2.25-0.43337c3.9161-0.75428 2.4374-1.9283-2.7255-2.1639-9.3652-0.42733-9.7929 0.4372-10.493 21.208-0.35805 10.627-0.19498 12.747 0.94681 12.309 3.8288-1.4693 8.2102-1.5795 10.521-0.26481 3.286 1.8692 4 1.9052 4 0.20156zm63.573-3.1911 2.4268-0.60909v-14.785c0-15.431-0.43619-16.92-4.5-15.36-1.259 0.48315-1.4814 3.3293-1.384 17.719 0.0638 9.4286 0.32174 16.356 0.57319 15.394 0.25146-0.96212 1.5493-2.0234 2.884-2.3584zm9.72-3.14c0.58679-4.065-0.0396-27.337-0.75508-28.053-0.24062-0.24061-1.6329-0.13744-3.0941 0.22927l-2.6566 0.66676 0.37953 14.203c0.20874 7.8118 0.7348 14.766 1.169 15.453 0.43422 0.6875 1.6054 1.25 2.6027 1.25 1.3323 0 1.9567-0.9945 2.3545-3.75zm-22.402-20.62c-0.0638-3.9215-0.30425-6.4336-0.53433-5.5824-0.29118 1.0772-1.6228 1.5331-4.3808 1.5-5.0382-0.0604-5.2313-1.514-0.21884-1.6472 3.224-0.0857 3.3993-0.19853 1.25-0.8044-1.375-0.38759-3.5125-0.51527-4.75-0.28374-1.9496 0.36477-2.25 1.0405-2.25 5.0616v4.6406l4.75-0.1812c2.6125-0.0997 3.625 0.0231 2.25 0.27275-5.8598 1.064-6.9999 1.4979-6.9982 2.6631 0.001 0.80934 1.885 1.2755 5.5 1.3609l5.4982 0.12996-0.116-7.13zm-9.884-0.74513c0-1.1918 5.0291-1.9679 6.6984-1.0337 1.2237 0.68483 0.59958 1.0058-2.5378 1.305-2.2884 0.21823-4.1606 0.0962-4.1606-0.27124zm-44.984-7.7119 3.9838 0.37991v-4.2764c0-3.394-0.3611-4.283-1.75-4.3082-1.6667-0.0303-1.6667-0.0951 0-1.3602 0.9625-0.73064 1.75-1.8413 1.75-2.4682 0-0.62687-0.7875-1.1541-1.75-1.1716-1.6667-0.0303-1.6667-0.0951 0-1.3602 2.0022-1.5199 2.3797-6.5682 0.5-6.6869-1-0.0632-1-0.17982 0-0.58333 0.6875-0.27741 1.25-1.3294 1.25-2.3377s-0.5625-2.0958-1.25-2.4167c-1-0.46666-1-0.7 0-1.1667 0.6875-0.32084 1.25-1.8958 1.25-3.5 0-1.6246-0.55376-2.9516-1.25-2.9956-1-0.0632-1-0.17982 0-0.58333 1.9778-0.79807 1.5576-5.3285-0.5-5.3902-1.504-0.0451-1.4488-0.26309 0.39305-1.551 2.4285-1.6981 2.1404-5.0269-0.49568-5.727-1.1164-0.29652-0.92215-0.47495 0.60263-0.55356 2.7994-0.14433 3.1592-4.4871 0.5-6.0359-1.6667-0.97075-1.6667-1.0207 0-1.0497 1.0581-0.0184 1.75-0.80153 1.75-1.9807 0-1.0727-0.7875-2.409-1.75-2.9696-1.6667-0.97075-1.6667-1.0207 0-1.0497 2.1756-0.0378 2.3798-3.8515 0.25-4.6688-0.825-0.31659-1.5-0.97746-1.5-1.4686 0-0.49115 0.675-0.89301 1.5-0.89301 0.92825 0 1.5-0.94096 1.5-2.4686 0-1.7835-0.41631-2.3089-1.5-1.893-0.825 0.31659-1.5 0.0775-1.5-0.53138 0-0.60885 0.62686-1.107 1.393-1.107 1.5632 0 2.9142-2.6939 2.0512-4.0902-0.314-0.49-1.216-0.9-2.008-0.9-0.79254 0-1.441-0.45-1.441-1s0.675-1 1.5-1c2.0751 0 1.8884-3.6744-0.25-4.9199-1.6667-0.97075-1.6667-1.0207 0-1.0497 0.9625-0.0167 1.75-0.70541 1.75-1.5304 0-0.825-0.36399-1.5-0.80887-1.5s-1.6824-0.6962-2.75-1.5471c-1.8313-1.4596-1.7573-1.5117 1.3089-0.92054 2.4711 0.4764 3.25 0.27597 3.25-0.83625 0-2.071-3.1227-2.6668-14.059-2.6824-7.1747-0.0102-10.043 0.37505-11.5 1.5448-1.8059 1.4498-1.6102 1.5152 2.8089 0.93873 5.863-0.76489 6.2867 0.77258 0.56793 2.0608-2.3002 0.51813-4.3626 1.5046-4.5833 2.1921-0.50694 1.5792 2.1565 1.5996 6.4438 0.0494 2.3696-0.85686 3.6284-0.8926 4.3962-0.12482 0.76778 0.76778-0.27084 1.2778-3.6272 1.7811-6.4248 0.96345-7.4473 1.4614-7.4473 3.6266 0 1.5922 0.37895 1.7242 2.5651 0.89301 3.3141-1.26 6.4349-1.248 6.4349 0.0248 0 0.55-1.0957 1-2.4349 1s-3.5892 0.43886-5 0.97525c-2.1511 0.81786-2.5651 1.6076-2.5651 4.8937v3.9185l4.2173-0.94757c4.2358-0.95173 8.7827-0.45699 8.7827 0.95564 0 0.41655-1.6875 0.60087-3.75 0.4096-2.0625-0.19128-4.8615 0.0684-6.22 0.57703-2.2405 0.83887-2.0238 0.99173 2.3318 1.6449 7.6337 1.1448 7.8668 2.2623 7.4692 35.813l-0.33088 27.917 5.9158-0.32824c3.8232-0.21214 6.0512 0.0771 6.2987 0.81775 0.25566 0.76529-1.4721 1.1682-5.201 1.2127-6.6361 0.0793-7.5135 0.5053-7.5135 3.6483 0 2.223 0.20954 2.3159 3.0162 1.3375 1.6589-0.5783 4.8089-0.8805 7-0.67155zm-20.016-77.024c2.2611-1.3451 9-2.364 9-1.3608 0 0.48326-0.5625 0.88052-1.25 0.88281-0.6875 0.002-3.05 0.31154-5.25 0.68723-2.4942 0.42592-3.4353 0.34715-2.5-0.20928zm-6 76.327c3.025-0.30654 7.602-0.15373 10.171 0.33956l4.671 0.89691 0.36319-6.6062c0.82155-14.943-0.006-55.212-1.1942-58.079-1.0546-2.5459-1.8699-2.9902-6.5652-3.5768-5.8225-0.72747-14.1 0.78923-17.114 3.136-1.6527 1.2865-1.5567 1.3275 0.98365 0.4198 3.6755-1.3133 9.9954-1.3173 9.1849-0.006-0.33992 0.55-1.8743 1-3.4098 1-3.6508 0-9.0902 1.9203-9.0902 3.2091 0 0.95169 2.2548 0.76711 10.368-0.8488 1.9917-0.39666 2.7453-0.20176 2.4655 0.6376-0.22163 0.66489-2.254 1.347-4.5164 1.5157-4.5675 0.34065-8.3176 1.9817-8.3176 3.6398 0 0.74977 2.6928 0.86159 8.75 0.36335 4.8125-0.39586 8.41-0.37158 7.9944 0.0539-0.41555 0.42552-3.0143 0.8879-5.775 1.0275-7.7457 0.3919-10.969 1.3444-10.969 3.2415 0 1.4655 0.9067 1.6132 7.0854 1.1542 7.3849-0.5487 8.9135-0.0676 6.4036 2.0155-0.90392 0.75018-1.489 0.82744-1.489 0.19661 0-0.89799-2.487-0.96879-10.75-0.30601-0.6875 0.0551-1.25 1.0003-1.25 2.1003 0 1.8095 0.66667 2 7 2 8.8594 0 9.2504 1.4516 0.44191 1.6408-7.2469 0.15564-6.9433 0.0428-7.8208 2.9068-0.59687 1.948-0.30458 2.027 6.0122 1.6248 4.5985-0.29281 6.434-0.0903 5.9711 0.65874-0.36763 0.59482-1.3345 0.82589-2.1487 0.51347-0.81414-0.31241-3.4997-0.26519-5.968 0.10495-4.1363 0.62027-4.4877 0.90117-4.4877 3.587 0 2.636 0.22162 2.8297 2.3236 2.0305 3.491-1.3273 12.644-1.7014 11.409-0.46633-0.3304 0.3304-2.5767 0.72511-4.9918 0.87713-7.7738 0.48931-8.7407 1.1353-8.7409 5.8395l-0.00015 4.1826 8.7502-0.35302c9.8285-0.39653 10.865 0.77849 1.2298 1.3943-8.1702 0.52215-9.9797 1.1812-9.9797 3.6346 0 1.6283 0.46343 1.9247 2.2918 1.4658 3.8295-0.96115 14.246-1.9606 13.655-1.3102-0.30454 0.33509-3.0045 0.90483-6 1.2661-8.3869 1.0114-9.9463 1.8617-9.9463 5.423 0 2.9117 0.16764 3.0412 3.25 2.5109 10.421-1.7931 22.75-1.2791 22.75 0.94844 0 0.91813-1.308 0.99117-5.3326 0.29778-7.3717-1.27-19.988 0.9344-20.498 3.5816-0.31112 1.6155 0.12779 1.7742 3.4874 1.261 2.1138-0.32289 6.3183-0.83788 9.3433-1.1444zm-11-8.2976c2.4076-1.5328 12-2.5496 12-1.272 0 0.60161-1.5188 1.0938-3.375 1.0938s-4.8938 0.25496-6.75 0.56657c-2.354 0.39518-2.9212 0.27769-1.875-0.38838zm0-15.043c0-0.49633 1.0125-1.1738 2.25-1.5054 3.2218-0.86342 13.75-0.77175 13.749 0.11971-0.00054 0.4125-2.363 0.77836-5.25 0.81303-2.887 0.0347-6.4865 0.38074-7.999 0.76905-1.5125 0.38832-2.75 0.29993-2.75-0.1964zm59.83 18.669c-1.3134-0.90125-14.262-0.27366-15.956 0.77336-0.48087 0.29719-0.87431 1.4719-0.87431 2.6105 0 1.977 0.35541 2.0391 7.9037 1.3807 6.0248-0.52555 8.1049-0.37796 8.75 0.62088 0.58811 0.91056 0.947 0.42818 1.1764-1.5812 0.18518-1.6223-0.25377-3.2921-1-3.8042zm32.15 1.94c-0.01-2.761-0.31651-3.7747-0.875-2.8932-0.5993 0.94581-1.0669 1.0215-1.5437 0.25-0.37621-0.60872-2.4575-1.1068-4.625-1.1068-3.8189 0-3.941 0.1058-3.941 3.4164 0 3.3726 0.0512 3.4123 3.9998 3.0951 2.1999-0.1767 4.2514 0.0859 4.559 0.58362 1.3213 2.138 2.4401 0.59525 2.4259-3.3451zm-13.161 1.6694c1.7446-0.54473 1.0974-3.6632-0.82391-3.9698-0.825-0.13164-1.95-0.33994-2.5-0.4629-0.55-0.12295-3.377-0.17026-6.2822-0.10513-4.5026 0.10094-5.4077 0.4505-6.1326 2.3684-0.4677 1.2375-0.65125 2.5881-0.40788 3.0014 0.41953 0.71245 13.331 0.0472 16.147-0.832zm28.176-0.46461c0-0.95746-0.7118-2.014-1.5818-2.3478-3.074-1.1796-4.4182-0.62402-4.4182 1.8261 0 2.0558 0.46529 2.4199 3 2.3478 2.1518-0.0612 3-0.5775 3-1.8261zm4.75 1.4149c2.3044-0.61755 3.0963-3.7286 1.241-4.8752-2.0108-1.2427-4.991 0.59219-4.991 3.0729 0 2.6028 0.27309 2.7341 3.75 1.8023zm28.806-7.0901c-0.58738-0.67119-4.351-1.5255-8.3635-1.8984-4.9992-0.46463-6.9718-1.0018-6.2669-1.7067 0.70487-0.70487 2.6337-0.65816 6.1279 0.14839 6.7601 1.5604 9.9467 1.4962 9.9467-0.20051 0-3.477-5.645-4.1507-17-2.0288-1.7578 0.32846-2.0885 0.193-1.114-0.45627 0.76228-0.50789 5.1956-1.2408 9.8518-1.6286 4.6887-0.39057 8.0842-1.0868 7.6105-1.5604-0.47039-0.47039-4.4537-1.0106-8.8518-1.2005l-7.9965-0.34526 8.8877-0.20125 8.8877-0.20124-0.66977-5.6988c-0.36838-3.1343-0.86264-5.8916-1.0984-6.1274-0.92212-0.92212-14.252-0.0586-18.507 1.1989-5.7772 1.7071-6.9666 4.0701-6.9853 13.877l-0.0147 7.75h9.9349c10.063 0 15.065 1.0235 15.065 3.0822 0 0.70427-0.66098 0.84114-1.75 0.36236-2.6664-1.1723-13.198-2.0059-18.25-1.4446-3.706 0.41177-4.5559 0.89306-4.8166 2.7276-0.313 2.2021-0.21017 2.2208 9 1.6355 5.1241-0.32565 10.892-0.16986 12.817 0.3462 3.3853 0.90754 3.5184 0.83757 4.0619-2.1355 0.30905-1.6906 0.0813-3.6229-0.50606-4.2941zm-16.34-15.44c1.6097-1.0216 14.779-1.1024 14.769-0.0906-0.004 0.4125-3.6156 0.78388-8.0263 0.82529-4.4454 0.0417-7.4506-0.2857-6.7431-0.73469zm-0.22239-5.0906c-0.00071-0.4125 3.5987-0.75 7.9987-0.75s8.0001 0.3375 8.0002 0.75c0.00012 0.4125-3.5993 0.75-7.9987 0.75s-7.9995-0.3375-8.0002-0.75zm-63.042 19.624c0.26558-0.26559-0.17909-0.90153-0.98816-1.4132-0.99621-0.63002-1.0676-0.93526-0.22104-0.94563 2.2663-0.0278 1.3196-3.0111-1-3.1515l-2.25-0.13618 2.25-0.43337c1.6283-0.31363 2.25-1.1345 2.25-2.9708 0-1.8447-0.40954-2.3803-1.5-1.9618-0.825 0.31658-1.5 0.13972-1.5-0.39301 0-0.53274 0.675-0.96862 1.5-0.96862 1.0115 0 1.5-1.0119 1.5-3.107 0-2.5245-0.32806-2.9927-1.75-2.4976-1.5663 0.54547-1.5571 0.45966 0.0879-0.8175 2.3051-1.7897 1.7862-5.1996-0.72447-4.7611-1.0846 0.18945-1.5489-0.11217-1.1547-0.75 0.36266-0.58678 1.3078-1.0669 2.1004-1.0669 2.193 0 1.7196-2.6914-0.78153-4.4433-1.7418-1.22-1.8646-1.5567-0.56738-1.5567 2.5382 0 3.4143-4.0702 1.2213-5.6738-1.6372-1.1972-1.6492-1.3262-0.12258-1.3262 1.2124 0 1.6911-0.84931 1.6911-3 0-2.1789-0.47898-3.0083-1.75-3.0304-1.6667-0.029-1.6667-0.0789 0-1.0497 0.9625-0.5606 1.75-1.8746 1.75-2.9199s-0.7875-2.3593-1.75-2.9199c-1.6667-0.97075-1.6667-1.0207 0-1.0497 2.5016-0.0435 2.2889-4.0767-0.25-4.7407-1.1-0.28766-2-0.92053-2-1.4064 0-0.48585 0.9-0.88337 2-0.88337 2.8785 0 2.6618-3.7307-0.25-4.3035l-2.25-0.4426 2.25-0.74358c2.6098-0.86249 3.2424-5.5103 0.75-5.5103-0.825 0-1.5-0.45-1.5-1s0.62252-1 1.3834-1c0.76085 0 1.6317-0.94974 1.9353-2.1105 0.39862-1.5243 0.0144-2.2511-1.3834-2.6166-2.5392-0.66402-2.4934-2.2728 0.0647-2.2728 1.3333 0 2-0.66667 2-2 0-1.3846-0.66667-2-2.1667-2-2.0111 0-1.8042-1.3449 0.25-1.625 2.2286-0.3039 2.3326-0.45995 0.91667-1.375-1.6749-1.0824-11.24-1.3103-14.814-0.35294-2.2094 0.59169-2.3066 1.0099-2.1469 9.2364 0.092 4.7391-0.15103 24.545-0.54008 44.013l-0.70738 35.396 8.8424-0.71746c4.8633-0.39461 9.0597-0.93477 9.3253-1.2004zm18.542-21.87c0.41793-12.65 0.81278-32.675 0.87746-44.5l0.11759-21.5-6.4291 0.18655c-3.536 0.10261-7.4735 0.44868-8.75 0.76906-2.7185 0.68229-3.1069 2.4923-0.57086 2.6604 1.6667 0.11048 1.6667 0.13778 0 0.57333-2.5034 0.65421-2.1625 3.9411 0.5 4.821l2.25 0.74358-2.25 0.4426c-1.7329 0.34088-2.25 1.1297-2.25 3.4321 0 1.6442 0.41891 2.7306 0.9309 2.4141 0.512-0.31644 1.2136-0.11799 1.559 0.44098 0.34546 0.55897-0.0734 1.0163-0.9309 1.0163-0.97187 0-1.559 0.88931-1.559 2.3613 0 1.998 0.42309 2.305 2.75 1.9954l2.75-0.36592-2.75 1.0879c-3.5907 1.4205-3.9691 5.9133-0.5 5.936l2.25 0.0147-2.3878 1.2353c-1.3133 0.67939-2.3258 1.5728-2.25 1.9853s0.1378 1.425 0.1378 2.25c0 0.87011 0.94484 1.5266 2.25 1.5634l2.25 0.0634-2.25 0.90439c-1.2375 0.49742-2.25 1.5939-2.25 2.4366 0 0.90225 0.92508 1.56 2.25 1.5999l2.25 0.0677-2.25 1.0851c-1.2375 0.59683-2.25 1.6546-2.25 2.3505 0 0.69597-0.27314 1.9772-0.60699 2.8472-0.39831 1.038-0.0545 1.5818 1 1.5818 0.88385 0 1.607 0.45 1.607 1s-0.675 1-1.5 1c-0.93636 0-1.5 0.94656-1.5 2.519 0 2.2198 0.32668 2.4512 2.75 1.9481l2.75-0.57096-2.75 1.5838c-1.7597 1.0135-2.75 2.4227-2.75 3.9132 0 1.9673 0.42751 2.2699 2.75 1.9467 2.4311-0.33833 2.5052-0.27395 0.63845 0.55523-1.1614 0.51587-2.3562 1.8734-2.6551 3.0166-0.47196 1.8048-0.19369 2.0066 2.1115 1.5315l2.6551-0.54715-2.6184 1.5149c-2.0584 1.1909-2.5113 2.0751-2.1177 4.134 0.37518 1.9627 0.96876 2.4966 2.3684 2.1306 1.0273-0.26863 1.8677-0.0806 1.8677 0.41796 0 0.49851-0.65917 0.90638-1.4648 0.90638-0.80565 0-1.9465 0.9-2.5352 2-0.92087 1.7206-0.75119 2.0162 1.2148 2.116 1.6938 0.086 1.8323 0.23435 0.53518 0.57333-2.6382 0.68943-2.2343 4.2814 0.5 4.4468l2.25 0.13618-2.25 0.43337c-1.2375 0.23836-2.25 1.0582-2.25 1.8218 0 1.1826 6.2565 1.9725 15.623 1.9725 0.0674 0 0.46448-10.35 0.8824-23zm19.982 7.6525c-0.34-8.61-1.08-19.25-1.64-23.65-0.62642-4.9015-0.74717-15.977-0.31178-28.596 0.60747-17.606 0.49829-20.678-0.75209-21.157-1.7362-0.66625-3.2645 0.18367-4.0525 2.2537-0.47593 1.2503-0.58414 1.2267-0.64994-0.14159-0.094-1.954-4.0798-3.1473-7.579-2.269-3.4049 0.85456-3.1612 2.4106 0.37756 2.4106 1.5826 0 3.3873 0.61424 4.0104 1.365 0.92413 1.1135 0.45918 1.3438-2.5238 1.25-2.1171-0.0666-3.8406 0.41128-4.0937 1.135-0.27463 0.78532 0.50127 1.25 2.0872 1.25 1.3884 0 2.821 0.4801 3.1837 1.0669 0.36265 0.58679 0.0517 0.98347-0.69099 0.88152-3.0857-0.42358-4.8504 0.14091-4.8504 1.5516 0 0.92366 0.93789 1.5 2.441 1.5 1.3425 0 2.7664 0.52647 3.164 1.1699 0.48618 0.78665 0.1779 0.96074-0.94099 0.53138-2.3506-0.90202-4.664 0.2053-4.664 2.2325 0 1.3264 0.65921 1.6231 2.8816 1.2969 1.5849-0.23261 3.1864 0.0703 3.559 0.67319 0.44275 0.7164-0.55549 1.0961-2.8816 1.0961-2.5649 0-3.559 0.4378-3.559 1.5674 0 1.107 0.58155 1.3828 1.9798 0.93901 1.0889-0.3456 2.7764-0.16461 3.75 0.40221 1.488 0.8663 1.2692 1.0354-1.3728 1.061-1.9469 0.0188-3.3783 0.64362-3.7613 1.6418-0.45926 1.1968-0.19327 1.4482 1.0339 0.97733 0.90872-0.34871 2.6013-0.30499 3.7613 0.0972 1.8003 0.62412 1.5966 0.81047-1.3909 1.2727l-3.5 0.54149-0.29541 6.1609-0.2954 6.1609 4.0454-0.54261c2.3755-0.31862 4.0454-0.13271 4.0454 0.4504 0 0.54615-1.0125 0.80411-2.25 0.57326-3.8267-0.71387-5.7913 1.6971-6.4306 7.8918l-0.58317 5.6503 4.1319-0.5542c2.917-0.39125 4.1319-0.18999 4.1319 0.68445 0 0.69336-0.66418 0.98379-1.5087 0.65972-2.1644-0.83057-6.4913 1.0462-6.4913 2.8154 0 1.138 0.54307 1.2971 2.25 0.6594 1.2375-0.46233 3.15-0.48282 4.25-0.0455 1.7627 0.70073 1.6834 0.80341-0.66821 0.86535-4.8215 0.12701-5.8318 1.0239-5.8318 5.1773 0 3.705 1.165 5.0531 2.5 2.893 0.84414-1.3658 4.2191-1.2635 5.0955 0.15451 0.42212 0.683 0.27629 0.88428-0.35707 0.49284-1.3018-0.80456-6.4075 1.0213-7.4528 2.6652-0.41527 0.65309-0.76193 2.4731-0.77035 4.0444-0.0125 2.337 0.30319 2.7231 1.7347 2.1214 3.4004-1.4293 6.0236-1.6537 6.6918-0.57256 0.41439 0.6705-0.21784 1.0995-1.6328 1.1078-5.6376 0.0333-6.809 0.97597-6.809 5.4791v4.2595l5.75 0.48805c3.6375 0.30874 6.0199 0.0787 6.4847-0.62617 0.47691-0.72328 0.74006-0.56974 0.75 0.43759 0.0108 1.0892 1.0745 1.5818 3.5684 1.6525l3.5531 0.10072-0.61931-15.653zm-15.072 10.782c1.603-0.46711 3.5139-0.51395 4.2462-0.10408 0.76384 0.42746-0.47892 0.78958-2.9146 0.84929-3.8817 0.0951-3.996 0.0312-1.3316-0.74521zm7.91-5.43c0.004-3.85 0.18518-5.3025 0.40166-3.2277 0.21647 2.0748 0.21284 5.2248-0.008 7-0.22091 1.7752-0.39803 0.0777-0.39359-3.7723zm-10.792 2.4408c0.32-0.52 2.21-0.94 4.19-0.94 4.4261 0 4.0235 0.52409-0.99809 1.2992-2.2493 0.34721-3.5377 0.20249-3.191-0.35845zm0.46339-9.0709c0-0.96366 4.413-2.2322 5.9653-1.7147 0.57812 0.19271-0.52757 0.8445-2.4571 1.4484-1.9295 0.60393-3.5082 0.72377-3.5082 0.26631zm10.24-5.87c0-1.925 0.2058-2.7125 0.45733-1.75 0.25152 0.9625 0.25152 2.5375 0 3.5-0.25153 0.9625-0.45733 0.175-0.45733-1.75zm-9.6084-3.2c0.27193-0.44 1.8179-0.8 3.4354-0.8s2.941 0.36 2.941 0.8-1.5459 0.8-3.4354 0.8-3.2129-0.36-2.941-0.8zm9.1264-15.208c-0.4125-7.6495-0.69162-17.999-0.62026-23l0.12973-9.0919 0.88124 7.5c0.48468 4.125 0.76379 14.475 0.62026 23l-0.26097 15.5-0.75-13.908zm-8.8776 2.0953c1.4901-1.8318 4.6582-2.2556 5.5902-0.74775 0.31934 0.51671-0.2166 0.90663-1.191 0.86648-0.97438-0.0401-2.6716 0.29634-3.7716 0.74775-1.7805 0.73069-1.8494 0.63561-0.62756-0.86648zm-0.37244-3.4693c1.5132-1.6289 6.5-2.6464 6.5-1.3264 0 0.60963-0.8632 1.1084-1.9182 1.1084s-2.7425 0.29123-3.75 0.64718c-1.2798 0.45215-1.5304 0.32281-0.83179-0.42924zm2.3304-11.448c0.76683-0.76683 1.7953-0.79607 3.365-0.0957 2.0922 0.93356 2.0099 1.0158-1.1044 1.1044-2.4554 0.0698-3.0665-0.20286-2.2606-1.0087zm-1.3072-3.8071c0.6972-1.1281 5.4778-1.3137 5.4749-0.21256-0.001 0.4125-1.3672 0.84565-3.0359 0.96256-1.7365 0.12166-2.7795-0.19906-2.439-0.75zm7.5558-17.546c0.048-1.165 0.28494-1.4019 0.60416-0.60417 0.28887 0.72187 0.25335 1.5844-0.0789 1.9167-0.3323 0.33229-0.56864-0.25834-0.52522-1.3125zm15.242 54.334c-0.1-11.68-0.45-26.19-0.78-32.24-1.2403-23.001-1.437-27.121-1.4921-31.25-0.0476-3.5644-0.37934-4.25-2.0567-4.25-1.1 0-2.0273 0.3375-2.0606 0.75-1.0908 13.49-1.4249 41.344-0.59082 49.25 0.75278 7.1355 1.5281 22.971 1.6033 32.75 0.0473 6.1398 0.0966 6.25 2.7981 6.2502l2.75 0.00023-0.17899-21.25zm6.0108 20.249c0.80056-0.00045 1.2098-3.0206 1.3003-9.5964 0.15325-11.131 0.66144-11.992 8.6365-14.639l5.2314-1.7362-4.2502 0.39111c-2.3823 0.21922-4.0044-0.007-3.691-0.51377 0.30758-0.49768 2.3327-0.90487 4.5002-0.90487 5.8818 0 4.6544-3.3604-1.563-4.2795-1.9058-0.28174-1.4397-0.39903 1.281-0.32235 5.5627 0.15678 5.3921-2.3028-0.28493-4.1077l-3.992-1.2692 4.2808 0.26874c3.391 0.21288 4.2206-0.0492 3.9911-1.2606-0.18849-0.99479-1.8596-1.7249-4.7808-2.0886-3.3066-0.41177-4.0282-0.77016-2.7362-1.3588 0.96516-0.43976 3.3277-0.61595 5.25-0.39152 2.4391 0.28474 3.4952 0.008 3.4952-0.91591 0-1.438-4.1506-3.378-7.7493-3.622-1.2371-0.0839-2.2496-0.54008-2.25-1.0138-0.00067-0.81507 5.4822-0.15809 8.5703 1.0269 1.0223 0.39231 1.429-0.22398 1.429-2.1656 0-2.0016-0.39374-2.5629-1.5-2.1384-0.825 0.31658-1.5 0.0925-1.5-0.49805 0-0.6495-1.5802-0.92295-4-0.69219-2.2 0.2098-4-0.01-4-0.48751 0-0.47794 2.4756-0.71483 5.5014-0.52643 4.4968 0.28 5.5011 0.0534 5.5-1.2408-0.00075-0.87084-0.56386-1.6224-1.2514-1.6701-0.6875-0.0477-3.275-0.56079-5.75-1.1401l-4.5-1.0533 5.75 0.4012c5.1318 0.35806 5.75 0.19598 5.75-1.5075 0-2.2095-3.4821-3.3966-8.0128-2.7316-1.643 0.24113-2.9872 0.0664-2.9872-0.38838 0-0.91874 1.6468-1.1074 7.3393-0.84079 3.2308 0.15132 3.7843-0.11068 3.4923-1.6531-0.25143-1.3282-1.8592-2.1505-5.8393-2.9865-5.1501-1.0817-5.2546-1.1596-1.6766-1.25 2.0987-0.053 4.6862 0.3694 5.75 0.93875 1.6813 0.89981 1.9343 0.69592 1.9343-1.559 0-1.4268-0.38926-2.3536-0.86502-2.0596-0.47576 0.29403-2.8383-0.12211-5.25-0.92477l-4.385-1.4594 5.25 0.51823c4.7555 0.46941 5.25 0.32991 5.25-1.481 0-2.5552-2.8411-4.0655-7.6843-4.0849-2.3734-0.01-3.3273-0.32518-2.5236-0.83507 0.71068-0.45087 3.2982-0.51532 5.75-0.14322 3.2351 0.49096 4.4578 0.33791 4.4578-0.55795 0-1.6907-2.3464-2.4484-7.5818-2.4484-2.6461 0-4.4182-0.45823-4.4182-1.1425 0-0.80055 1.8704-0.95782 6.25-0.5255 5.5641 0.54925 6.0431 0.45964 4.365-0.81652-1.0368-0.78841-3.8743-1.7318-6.3056-2.0964-4.5813-0.68701-13.919-0.14305-14.932 0.86985-0.88943 0.88943-0.42058 26.035 0.68717 36.854 0.54302 5.3036 0.80714 17.004 0.58694 26-0.48463 19.8-0.0318 25.217 2.0412 24.421 0.80884-0.31038 1.9963-0.56462 2.6388-0.56498zm16.668-89.868c0-1.4231-1.3857-2.257-5.8156-3.5-9.7197-2.7272-17.184-1.7918-17.185 2.1534-0.00013 1.5076 0.99657 1.6753 8.25 1.3875 4.5376-0.18002 9.3751 0.12895 10.75 0.68662 3.5659 1.4462 4 1.3672 4-0.72752zm-86-1.7151c0-1.1458-0.5625-2.1266-1.25-2.1794s-6.7625-0.39004-13.5-0.74934l-12.25-0.65327v2.8327 2.8327h13.5c13.013 0 13.5-0.0751 13.5-2.0833zm18.991-0.15c0.002-1.2375-0.33362-2.1786-0.74612-2.0912-0.4125 0.0873-1.4603-0.15621-2.3284-0.54116-0.86814-0.38495-4.4681-0.34389-8 0.0912-5.4375 0.66992-6.4672 1.1105-6.7193 2.8749-0.28367 1.9851 0.13028 2.0798 8.7461 2 8.6862-0.0804 9.044-0.17272 9.0478-2.3337zm12.432 1.4088c3.8153-0.0923 6.5666-0.59857 6.5684-1.2088 0.007-2.2968-2.6583-3.4494-7.9468-3.4364-7.986 0.0197-10.05 0.76351-10.05 3.622 0 2.0452 0.36155 2.3117 2.4316 1.7921 1.3374-0.33566 5.3859-0.68173 8.9968-0.76905zm29.896-0.061c0.67-1.76-0.13-2.6-2.49-2.6-2.0623 0-2.5098 2.5604-0.58333 3.3377 2.0658 0.83356 2.5115 0.72628 3.0741-0.73995zm-12.324-1.1568c0-0.85746-0.45-1.2809-1-0.94098s-1 0.11431-1-0.50135c0-1.9496-7.434-0.75922-7.815 1.2514-0.28052 1.4803 0.45028 1.75 4.7417 1.75 3.9283 0 5.0733-0.35186 5.0733-1.559zm6.0311 0.059c-0.0465-1.4958-4.2955-1.2068-4.8067 0.32694-0.30899 0.92699 0.35343 1.2284 2.1978 1 1.452-0.17982 2.6261-0.77694 2.609-1.3269zm30.969-7.9598c0-5.4588-0.00071-5.46-3.75-6.4931-2.0625-0.56827-5.1-1.1939-6.75-1.3903-2.2593-0.26892-1.9668-0.39408 1.1849-0.50692 2.3017-0.0824 5.3392 0.28903 6.75 0.82542 2.2004 0.83657 2.5651 0.70277 2.5651-0.94098 0-2.4247-1.2849-3.2386-7.5-4.7509l-5-1.2167 6.25 0.51633c5.6806 0.46929 6.25 0.34099 6.25-1.4083 0-1.9739-3.3253-3.1747-8.7917-3.1747-1.3979 0-2.2452-0.29649-1.8828-0.65888 0.36239-0.36238 2.9124-0.57911 5.6667-0.48163 4.4149 0.15626 5.0078-0.0617 5.0078-1.8411 0-2.0897-1.7738-2.5373-8.5-2.145-2.6442 0.15423-2.7784 0.0398-1.1318-0.96502 1.0275-0.627 3.615-0.9057 5.75-0.61934 3.3328 0.44702 3.8818 0.25123 3.8818-1.3842 0-1.9544-2.1516-2.4979-8.25-2.0839-1.5125 0.10268-2.75-0.30667-2.75-0.90966 0-0.7038 1.9698-0.97371 5.5014-0.75381 4.5923 0.28594 5.5011 0.0689 5.5-1.3136-0.001-1.2328-1.3034-1.8352-5.0947-2.3567-2.8013-0.38528-4.7138-1.0686-4.25-1.5184 0.46383-0.44985 2.7558-0.46227 5.0933-0.0276 7.4077 1.3775 4.6592-1.6094-3.25-3.532-2.1703-0.52753-2.5035-0.84593-1.2047-1.1512 0.9874-0.23212 3.209 0.0708 4.9369 0.67313 2.2032 0.76802 3.4567 0.78009 4.1964 0.0404 1.6539-1.6539-1.2745-2.9388-6.7375-2.9562-3.3066-0.0105-4.5916-0.36702-4.1132-1.1411 0.44971-0.72764 2.681-0.93571 6.309-0.58833 4.5964 0.44009 5.1603 0.34103 3.1132-0.54681-3.0071-1.3042-19.725-1.4164-20.994-0.14086-0.87782 0.88212-1.1771 11.163-1.063 36.513l0.0568 12.611 3.9343-1.0501c3.0438-0.81243 5.3639-0.69316 10.25 0.52692 9.243 2.308 8.8157 2.4854 8.8157-3.6588zm-4.0478-0.59081c-0.79874-0.50529-2.6898-0.9256-4.2022-0.93402-1.5125-0.008-2.75-0.40721-2.75-0.8862 0-0.80355 8.81 0.34759 9.7344 1.2719 0.92239 0.92239-1.4513 1.3902-2.7821 0.54832zm-32.952-11.054v-16.105l-4.0091 0.38233c-2.4656 0.23513-3.8674-0.0132-3.641-0.64497 0.20243-0.56501 2.0372-0.9247 4.0772-0.7993l3.7092 0.22798-0.31811-9.4325c-0.17495-5.1879 0.015-9.0973 0.42222-8.6877 0.40718 0.40968 0.78017 12.089 0.82886 25.955l0.0885 25.21h2.9042 2.9042l-0.51661-15.75c-0.28414-8.6625-0.94012-21.375-1.4577-28.25-1.3513-17.949-2.1664-42.53-2.0139-60.737 0.14762-17.625 0.32666-20.901 1.1893-21.763 0.32794-0.32795 0.64658 9.888 0.70807 22.702 0.14011 29.195 0.86467 54.085 1.7262 59.298 0.59981 3.6297 1.027 15.72 1.2986 36.75 0.0981 7.6009 0.14882 7.75 2.6334 7.75h2.5334l-0.68395-23.784c-0.76217-26.505-0.52605-27.882 4.8686-28.402 2.4512-0.23636 3.3246-0.84661 3.5581-2.4859 0.2279-1.6003-0.29901-2.2889-2-2.6138-2.0534-0.39224-2.0045-0.45626 0.44058-0.57734 1.5125-0.0749 2.75-0.58618 2.75-1.1362 0-0.55-0.3375-0.94671-0.75-0.88158-2.1927 0.34621-4.25-0.25162-4.25-1.235 0-0.65179 1.0406-0.91764 2.5-0.63867 3.4644 0.66227 3.2648-1.7987-0.25-3.0825l-2.75-1.0044 2.691-0.0789c3.8468-0.11286 4.3748-1.7958 0.80902-2.579-1.6596-0.36451-2.7612-1.0773-2.448-1.5841 0.34009-0.55027 1.3504-0.50333 2.5087 0.11656 1.5929 0.85247 1.9393 0.70879 1.9393-0.80425 0-1.0593-1.1687-2.3394-2.75-3.0123l-2.75-1.1701 2.7896 0.346c3.4181 0.42395 3.1227-1.5863-0.35369-2.4069-1.4919-0.35218-1.9761-0.84204-1.2661-1.2808 0.63232-0.3908 1.8653-0.43593 2.7399-0.10031 2.5205 0.96721 1.9142-2.1419-0.65976-3.3832l-2.25-1.0851 2.25-0.0677c3.0696-0.0923 2.8522-2.6997-0.2909-3.4886-1.3975-0.35075-2.2816-1.0573-1.9646-1.5702 0.34774-0.56264 1.5097-0.57759 2.9298-0.0377 2.0294 0.77157 2.2842 0.63015 1.8509-1.027-0.2764-1.057-0.90139-1.6752-1.3889-1.374-0.48747 0.30128-0.88631 0.10421-0.88631-0.43792s-0.5625-1.1856-1.25-1.4299c-0.6875-0.24433-0.0125-0.28858 1.5-0.0983 2.1885 0.27529 2.75-0.0573 2.75-1.6291 0-1.0862-0.3375-1.9217-0.75-1.8566-2.4455 0.38614-5.25-0.27808-5.25-1.2434 0-0.71667 1.0889-0.90722 3-0.525 3.7996 0.75992 4.268-1.9936 0.5-2.9394-1.375-0.3451-2.5-1.0372-2.5-1.5381 0-0.50085 1.125-0.62829 2.5-0.28318 1.9024 0.47747 2.5 0.23701 2.5-1.006 0-1.0149-1.136-1.8606-3-2.2334-1.65-0.33-3-0.9825-3-1.45s1.2837-0.59326 2.8527-0.27946c2.7504 0.55008 2.849 0.43373 2.75-3.2445-0.0803-2.9825-0.64824-4.1113-2.6027-5.1727l-2.5-1.3577 2.75 0.59626c2.3204 0.5031 2.75 0.2662 2.75-1.5164 0-1.2717-0.79615-2.3209-2-2.6357-1.1-0.28766-2-0.9291-2-1.4254 0-0.49633 1.125-0.62007 2.5-0.27496 1.8905 0.47449 2.5 0.23534 2.5-0.98095 0-1.487-1.679-2.0818-4.75-1.6831-0.6875 0.0893-1.25-0.3074-1.25-0.88151s1.35-1.0438 3-1.0438c4.0216 0 3.7926-1.3116-0.5-2.8638-1.925-0.69609-3.5-1.739-3.5-2.3175 0-1.0206 1.6452-0.80913 5.25 0.6749 0.96285 0.39638 1.75 0.28179 1.75-0.25478 0-1.118-10.419-4.2464-14.066-4.2234-3.5925 0.0226-4.842 1.1887-5.1152 4.774-0.13455 1.7659-0.57063 3.2107-0.96907 3.2107-0.39843 0-0.46883-1.575-0.15645-3.5 0.6085-3.7497-0.27555-4.3294-3.7594-2.4648-1.7528 0.93806-1.9343 2.1992-1.9343 13.441 0 7.1918 0.42028 12.666 1 13.024 0.62687 0.38743 1 10.733 1 27.726 0 14.909-0.18666 26.92-0.41479 26.691-0.22813-0.22917-0.62701-12.028-0.88638-26.22s-0.74772-26.079-1.0852-26.417c-0.33749-0.33753-0.61362-3.6226-0.61362-7.3003v-6.6866l-3.7355 0.10327c-2.7877 0.0771-3.826 0.57177-4.0919 1.9498-0.27382 1.4187 0.0826 1.7072 1.538 1.2453 1.0419-0.33069 2.7708 0.0553 3.8419 0.85777 1.7945 1.3444 1.6529 1.413-1.8025 0.87385l-3.75-0.58517v5.1308 5.1308h3.5c1.925 0 3.5 0.47656 3.5 1.059 0 0.58246-0.47558 0.76509-1.0568 0.40585-2.0338-1.257-5.8259 0.44133-5.668 2.5384 0.10745 1.4264 0.6549 1.8363 1.9174 1.4356 0.97187-0.30846 2.5636-0.0971 3.5372 0.46974 1.4483 0.84315 1.0995 1.0361-1.9177 1.061-3.0624 0.0253-3.6623 0.3696-3.5372 2.0304 0.1178 1.5638 0.86754 2 3.4378 2 1.808 0 3.2872 0.34185 3.2872 0.75967 0 0.41781-1.4512 0.75531-3.225 0.75-2.3292-0.007-3.3259 0.49801-3.5883 1.8182-0.25548 1.2853 0.18234 1.7705 1.475 1.6348 3.3155-0.34804 5.3383 0.0212 5.3383 0.97447 0 0.51542-1.575 0.68154-3.5 0.36916-3.0827-0.50025-3.5-0.3139-3.5 1.5629 0 1.7686 0.59503 2.1308 3.5 2.1308 1.925 0 3.5 0.49814 3.5 1.107 0 0.61539-0.7287 0.82736-1.6409 0.47732-2.5588-0.98191-5.3591 0.34641-5.3591 2.5421 0 1.1047 0.45618 1.7097 1.0244 1.3585 1.2233-0.75603 6.9756 0.37451 6.9756 1.371 0 0.38333-1.8 0.52531-4 0.31551-3.4398-0.32804-4-0.1061-4 1.5849 0 1.5389 0.52416 1.8662 2.4109 1.5055 1.326-0.25348 3.2385 0.0613 4.25 0.6995 1.5919 1.0044 1.4444 1.0988-1.0975 0.70255-3.6222-0.56472-5.5634 0.11328-5.5634 1.9432 0 0.92079 1.1665 1.393 3.441 1.393 1.8925 0 3.7489 0.49821 4.1252 1.1071 0.46045 0.74503-0.0108 0.88652-1.441 0.43262-2.7878-0.88481-6.1252 0.22-6.1252 2.0276 0 1.0047 1.1947 1.4326 4 1.4326 2.2 0 4 0.48032 4 1.0674 0 0.61231-0.85269 0.79675-2 0.43261-1.1-0.34913-2.9-0.34913-4 0-2.7718 0.87973-2.5472 3.5 0.3 3.5 2.3909 0 4.7 1.6704 4.7 3.4 0 0.55556-0.53333 0.46667-1.2-0.2-2.048-2.048-5.8-1.4869-5.8 0.86739 0 1.6123 0.44024 1.9277 2 1.4326 2.1929-0.69599 6 0.18866 6 1.3942 0 0.41769-1.3998 0.55397-3.1108 0.30286-3.1037-0.45554-4.8411 0.82714-4.8739 3.5983-0.0111 0.93993 0.94495 1.1152 3.4847 0.63871 2.2942-0.4304 3.5-0.27376 3.5 0.45469 0 0.61121-1.35 1.1113-3 1.1113-2.2385 0-3 0.46369-3 1.8268 0 1.461 0.60079 1.7386 3 1.3865 1.8589-0.27282 3-0.00008 3 0.71703 0 0.63653-0.5625 1.0843-1.25 0.99501-4.5945-0.59661-4.4835-1.0765-4.6291 20.017l-0.13769 19.942 4.2584 0.3832c2.3421 0.21076 4.5959 0.46182 5.0084 0.55791 0.4125 0.0961 0.75-7.0726 0.75-15.93zm-8 9.855c0-0.4125 1.125-0.75 2.5-0.75s2.5 0.3375 2.5 0.75-1.125 0.75-2.5 0.75-2.5-0.3375-2.5-0.75zm-0.99706-4c-0.004-1.0218 5.7516-0.95611 6.3876 0.0729 0.27973 0.45261-1.0424 0.79011-2.938 0.75-1.8956-0.0401-3.448-0.41042-3.4496-0.82292zm3.0071-3.6424c-1.3694-0.38116-2.0444-0.95847-1.5-1.2829 1.0338-0.61605 5.4899 0.71761 5.4899 1.6431 0 0.62802-0.6505 0.5693-3.9899-0.36017zm-2.5127-5.1034c0.7145-1.1561 6.5036-1.3825 6.5006-0.25425-0.001 0.4125-1.6038 0.86441-3.5616 1.0042-2.1842 0.156-3.3198-0.1338-2.939-0.75zm0.50262-4.1792c0-0.45377 1.575-0.82503 3.5-0.82503 4.5669 0 4.5641 1.477-0.003 1.575-1.9234 0.0413-3.4971-0.29624-3.4971-0.75zm-1-3.7225c0-1.604 4.0988-2.4124 5.3507-1.0552 0.8728 0.94623 0.85355 1.0793-0.08 0.55309-0.67614-0.38112-2.1386-0.20631-3.25 0.38848-1.224 0.65507-2.0207 0.69987-2.0207 0.11363zm1.1518-10.577c1.3469-1.4335 2.1775-1.5666 4.5-0.72092l2.8482 1.0371-2.6682 0.0789c-1.4675 0.0434-3.4925 0.36784-4.5 0.72092-1.7096 0.59916-1.7216 0.52472-0.18-1.1161zm-0.66-71.54c-1.9282-0.82859-1.9214-0.86195 0.19098-0.92971 1.205-0.0387 2.4691 0.37971 2.809 0.92971 0.731 1.1828-0.24752 1.1828-3 0zm27.238-1.6917c-0.96924-0.25283-1.5313-0.83338-1.249-1.2901 0.64318-1.0407 4.5112-0.0989 4.5112 1.0984 0 0.92438-0.37002 0.94612-3.2622 0.19169zm-67.738 108.2c0-0.89499-0.35899-1.4054-0.79775-1.1342-0.43876 0.27117-1.4513 0.0796-2.25-0.42567-1.126-0.71232-0.93032-0.92214 0.87107-0.93402 1.6799-0.0111 2.2232-0.49997 1.9617-1.7653-0.1989-0.9625-1.1319-1.6875-2.0733-1.6111-0.94143 0.0764-1.7117-0.26111-1.7117-0.75s0.9-0.88889 2-0.88889 2-0.45 2-1c0-0.92036-1.4167-1.4079-3.25-1.1184-0.4125 0.0651-0.75-0.33158-0.75-0.88158s0.9-1 2-1c1.479 0 2-0.66667 2-2.559 0-1.4378-0.43469-2.2904-0.99208-1.9459-0.54564 0.33722-1.7831 0.15246-2.75-0.41058-1.508-0.87815-1.3669-1.028 0.99208-1.0541 3.5205-0.0389 3.9379-3.6576 0.5-4.3339l-2.25-0.4426 2.25-0.74358c2.821-0.93 2.961-3.51 0.194-3.51-1.2056 0-1.7854-0.44271-1.3988-1.0682 0.3631-0.5875 1.3207-0.81472 2.1279-0.50495 1.068 0.40982 1.3809-0.0483 1.1488-1.6818-0.21273-1.4976-0.90153-2.1472-2.0689-1.9512-0.9625 0.16161-1.75-0.17589-1.75-0.75s1.125-1.0438 2.5-1.0438c1.8333 0 2.5-0.53333 2.5-2 0-1.1111-0.66667-2-1.5-2-0.825 0-1.5-0.45-1.5-1s0.675-1 1.5-1c0.8951 0 1.5-0.92021 1.5-2.2819 0-1.7508-0.62129-2.3333-2.6695-2.5028-3.811-0.32-4.248-1.22-0.592-1.22 2.5807 0 2.9893-0.32042 2.55-2-0.34292-1.3113-1.364-2-2.9654-2-1.4957 0-2.1834-0.41903-1.7743-1.081 0.36746-0.59456 1.744-0.81099 3.059-0.48095 1.5836 0.39747 2.3857 0.17159 2.3756-0.66897-0.0241-2.0007-1.3139-3.495-3.4847-4.0374-1.8156-0.45362-1.7926-0.51037 0.25-0.61568 2.5993-0.13401 3.1712-3.5485 0.75-4.4776-0.825-0.31658-1.5-1.0948-1.5-1.7294 0-0.8313 0.41929-0.80585 1.5 0.0911 0.825 0.68469 1.5344 1.0773 1.5765 0.87244 0.75233-3.6622 0.59871-3.9874-2.1427-4.5357-1.5958-0.31915-2.6346-1.012-2.3085-1.5396 0.32607-0.5276 1.6688-0.68924 2.9838-0.3592 2.0473 0.5138 2.3909 0.23799 2.3909-1.919 0-2.0358-0.4909-2.519-2.559-2.519-1.5881 0-2.3041-0.41247-1.8871-1.0871 0.36953-0.59791 1.5211-0.86504 2.559-0.59362 1.4634 0.3827 1.8871-0.0468 1.8871-1.9129 0-1.7397-0.55408-2.4064-2-2.4064-1.1 0-2-0.45-2-1s0.9-1 2-1c1.6542 0 2-0.66667 2-3.8553 0-3.4535-0.33877-3.972-3.25-4.974l-3.25-1.1187 3.25 0.30085c2.5904 0.2398 3.25-0.0699 3.25-1.526 0-1.3631-0.76147-1.8268-3-1.8268-1.65 0-3-0.50625-3-1.125 0-0.71667 1.0889-0.90722 3-0.525 3.3818 0.67636 3.6757 0.0597 1.4713-3.0876-2.1097-3.0121-7.2477-3.7324-16.296-2.2846-8.7713 1.4035-13.455 3.3331-5.6758 2.3385 7.1241-0.91091 6.9773-0.91464 7.2306 0.18373 0.12685 0.55-0.54815 1.016-1.5 1.0356-3.6522 0.0751-10.248 1.6833-10.841 2.6434-0.40603 0.65697 1.7564 0.80152 6.2448 0.41741 6.9999-0.59905 5.8751 0.5717-1.7739 1.8463-2.5059 0.41758-3.8041 1.2347-4.1671 2.623-0.39881 1.5251-0.12106 1.9059 1.1398 1.5627 4.5314-1.2334 8.8182-1.4978 10.167-0.62718 1.1131 0.71841 0.51984 0.9721-2.2997 0.98347-5.0288 0.0203-9.8365 2.4969-9.013 4.6429 0.50787 1.3235 1.5874 1.498 6.035 0.97522 3.5683-0.41939 5.2021-0.28963 4.788 0.38029-0.34566 0.5593-2.0644 1.023-3.8195 1.0306-4.7376 0.0203-7.691 1.0381-7.691 2.6507 0 1.137 1.3358 1.3462 6.5 1.0182 3.575-0.22705 6.5-0.0235 6.5 0.45232s-2.2132 0.86513-4.9182 0.86513c-5.6257 0-8.0812 0.716-8.0832 2.357-0.00091 0.76045 1.8399 1.0284 5.5 0.80046 3.3625-0.20937 5.5014 0.0619 5.5014 0.69774 0 0.57216-2.3625 1.1763-5.25 1.3426-4.5909 0.26431-5.2905 0.58768-5.5726 2.5757-0.3012 2.1225-0.0594 2.2313 3.6414 1.6396 2.2509-0.35994 4.7673-0.16712 5.8226 0.44616 1.4891 0.86536 0.71561 1.0861-3.8914 1.1104-4.7974 0.0254-5.7502 0.32033-5.7514 1.7804-0.001 1.4962 0.79638 1.7003 5.5 1.4074 3.6819-0.22926 5.5014 0.0383 5.5014 0.80902 0 0.63336-0.48195 0.8537-1.071 0.48965s-3.0169-0.3701-5.3953-0.0135c-3.1606 0.47396-4.4647 1.1853-4.8459 2.6432-0.49044 1.8754-0.17568 1.9555 5.2655 1.3399 3.1829-0.36011 6.0274-0.26572 6.321 0.20975 0.29364 0.47546-1.9347 0.97316-4.952 1.106-3.0172 0.13283-5.8991 0.49689-6.4041 0.80902-0.50504 0.31213-0.91826 6.8891-0.91826 14.615 0 11.782 0.23107 13.959 1.4325 13.498 0.78786-0.30233 4.1629-0.8586 7.5-1.2362 4.5213-0.51153 6.0675-0.37145 6.0675 0.54969 0 0.68631-0.6652 0.98089-1.4955 0.66229-2.0652-0.79251-12.849 1.3021-13.689 2.6587-0.97807 1.581 0.14395 2.9698 1.523 1.8852 1.6304-1.2823 12.661-2.2509 12.661-1.1118 0 1.004-1.227 1.2526-4.763 0.96517-3.3305-0.27073-8.9716 1.8286-9.6477 3.5904-0.52041 1.3562-0.29096 4.1158 0.90394 10.872 0.19455 1.1 0.38815 2.5001 0.43023 3.1113 0.0421 0.61123 1.089 0.96945 2.3265 0.79604 6.3157-0.885 11.75-1.0803 11.75-0.42221 0 0.40671-2.4367 1.0259-5.4149 1.3759-12.891 1.5151-9.1495 2.6736 11.165 3.4572 7.0838 0.27325 8.25 0.0882 8.25-1.309zm-26.597-7.3518c0.32976-0.53355 2.9616-1.295 5.8484-1.692 6.1776-0.84963 6.1202-0.85149 6.4739 0.20954 0.15125 0.45375-0.9625 0.83894-2.475 0.85598-1.5125 0.017-4.4818 0.38324-6.5984 0.81378-2.4303 0.49434-3.6275 0.42532-3.2489-0.1873zm-0.40268-3.9255c0-1.1494 4.7491-2.232 9.7917-2.232 4.8862 0 3.3087 1.1621-1.9839 1.4615-2.3693 0.13402-5.0952 0.58315-6.0577 0.99806-0.99075 0.42709-1.75 0.32834-1.75-0.2276zm0.5-5.0786c3.5722-1.6044 10.5-2.4234 10.5-1.2413 0 0.59835-1.0125 1.0928-2.25 1.0989-1.2375 0.006-4.05 0.24267-6.25 0.52582-2.8539 0.3673-3.427 0.25743-2-0.38345zm-0.83043-14.126c1.3965-1.5125 9.1718-3.0932 9.8464-2.0018 0.2601 0.42084-1.2121 0.96436-3.2715 1.2078-2.0594 0.24346-4.6444 0.80672-5.7444 1.2517-1.5846 0.64099-1.7571 0.54592-0.83043-0.45773zm0.15061-4.2478c1.5471-1.5471 13.709-2.4443 12.781-0.94286-0.37827 0.61206-1.9157 0.85005-3.4757 0.53805-1.5386-0.30772-4.5203-0.0838-6.6262 0.49769-2.8855 0.79673-3.5454 0.77385-2.6787-0.0929zm0.17982-5.7866c1.7666-1.1336 10.004-1.3341 9.9915-0.24317-0.005 0.4125-2.5922 0.85254-5.75 0.97786-3.9816 0.15801-5.2818-0.0672-4.2415-0.73469zm0.0907-5.0704c1.7231-1.0908 10.909-1.223 10.909-0.15691 0 0.42125-2.7717 0.82962-6.1593 0.90749-3.9474 0.0907-5.6532-0.17881-4.75-0.75058zm-0.5907-3.7145c1.4481-1.4517 9.1804-2.5344 9.8908-1.385 0.3278 0.5304-0.41352 0.92606-1.6474 0.87924-1.2339-0.0468-3.8184 0.27338-5.7434 0.71155-2.3386 0.53231-3.1682 0.46403-2.5-0.20576zm23.5-35.421c0-0.43296 0.9-0.7872 2-0.7872s2 0.42203 2 0.93785-0.9 0.87006-2 0.7872c-1.1-0.0829-2-0.5049-2-0.93785zm-2-13.787c0-0.55 0.9-1 2-1s2 0.45 2 1-0.9 1-2 1-2-0.45-2-1zm43.394 34c-0.3091-36.025-0.73517-66.062-0.94683-66.75-0.77419-2.5148-14.756-0.99894-17.948 1.9457-0.6293 0.58069-0.38877 0.69018 0.64885 0.29534 0.90687-0.34508 1.9143-0.1979 2.2388 0.32707 0.32445 0.52496-0.30503 1.1885-1.3988 1.4746-2.6524 0.69361-2.5221 2.2978 0.26125 3.2176l2.25 0.74358-2.25 0.4426c-1.3408 0.26374-2.25 1.1734-2.25 2.2511 0 0.99466 1.0125 2.5508 2.25 3.4582l2.25 1.6497-2.25-0.59513c-1.2997-0.34378-2.25-0.14433-2.25 0.47226 0 0.58707 1.125 1.0674 2.5 1.0674 3.1054 0 3.3136 1.7448 0.26022 2.1804-1.2452 0.17765-2.4004 1.1614-2.6014 2.2155-0.25165 1.3193 0.077 1.7276 1.0805 1.3425 0.79316-0.30436 2.0763-0.15191 2.8514 0.33878 1.0761 0.6812 0.89123 0.89579-0.78166 0.90748-3.3759 0.0236-3.6732 1.755-0.58869 3.4278 2.6074 1.414 2.6402 1.5099 0.52967 1.5475-1.7227 0.0307-2.25 0.62598-2.25 2.54 0 2.057 0.48726 2.5026 2.75 2.5147l2.75 0.0147-2.4911 1.2604c-2.877 1.47-3.971 4.72-1.583 4.72 0.86532 0 1.5733 0.45 1.5733 1s-0.675 1-1.5 1c-2.054 0-1.8922 2.9818 0.25 4.608 1.6667 1.2652 1.6667 1.33 0 1.3602-1.0727 0.0195-1.75 0.80582-1.75 2.0318 0 1.1939 0.70533 2.0468 1.75 2.116 1.6667 0.11048 1.6667 0.13778 0 0.57333-2.0281 0.53-2.4043 4.8387-0.5 5.7273 1 0.46666 1 0.7 0 1.1667-2.0646 0.96347-1.4213 4.2275 0.98358 4.9908l2.2336 0.70891-2.2703 0.83984c-1.7149 0.63437-2.1854 1.474-1.9231 3.4323 0.19095 1.4259 0.99497 3.0024 1.7867 3.5033 1.1668 0.73829 1.0878 0.91374-0.41746 0.92615-1.2798 0.0105-1.6683 0.50694-1.25 1.5971 0.33385 0.86998 0.60699 1.995 0.60699 2.5 0 0.50501 0.7875 0.93252 1.75 0.95001 1.6667 0.0303 1.6667 0.0951 0 1.3602-2.6031 1.976-2.2842 5.5929 0.5 5.6713l2.25 0.0634-2.25 0.90439c-1.5029 0.60408-2.25 1.7452-2.25 3.4366 0 1.919 0.54488 2.5652 2.25 2.6684l2.25 0.13618-2.25 0.43337c-1.8118 0.34898-2.25 1.1014-2.25 3.8638 0 2.5883 0.42961 3.4383 1.75 3.4622 1.6667 0.0303 1.6667 0.0951 0 1.3602-2.512 1.9068-2.2243 4.5946 0.5 4.6713l2.25 0.0634-2.25 0.90439c-1.5394 0.61878-2.25 1.7409-2.25 3.5532 0 2.2075 0.35367 2.5564 2.1224 2.0938l2.1224-0.55503-2.1224 1.9774c-2.8731 2.6767-2.8045 5.8802 0.12756 5.9628l2.25 0.0634-2.25 0.90439c-2.5312 1.0174-3.1276 4.9688-0.75 4.9688 0.825 0 1.5 0.45 1.5 1s-0.675 1-1.5 1-1.5 0.84825-1.5 1.885c0 1.7167 0.80151 1.8729 8.9782 1.75l8.9782-0.135-0.56201-65.5zm8.6056-60.554c0-7.0774-0.87488-8.1959-5.5022-7.0345-3.4662 0.86997-3.1328 2.5888 0.50224 2.5888 1.65 0 3 0.49814 3 1.107 0 0.60884-0.675 0.84797-1.5 0.53138-0.825-0.31658-2.175-0.31658-3 0-1.8073 0.69353-2.022 3.5171-0.25 3.287 2.8487-0.36992 4.828 0.13938 4.2399 1.091-0.34546 0.55897-1.0064 0.78251-1.4688 0.49676-1.438-0.88876-4.0214 0.61902-4.016 2.3439 0.004 1.2109 1.0558 1.7027 4 1.8701l3.9948 0.22708v-6.5085zm-30.005-10.4c0-3.7823-2.291-5.0369-9.1843-5.0294-5.3694 0.006-16.704 1.5491-17.544 2.3886-0.25018 0.25017-0.15836 1.3891 0.20403 2.5309 0.61723 1.9447 1.1764 2.0391 8.8413 1.4922 4.5003-0.32108 9.9824-0.14157 12.182 0.39891 2.2 0.54048 4.3375 1.0279 4.75 1.0832s0.75-1.2337 0.75-2.8644zm13.75 1.2613c6.1601-0.47539 7.25-0.83509 7.25-2.3928 0-3.4436-6.5-5.0811-13.758-3.4661-3.2851 0.73094-5.2417 3.0129-5.2417 6.1133 0 1.2821 0.53538 1.5185 2.25 0.99373 1.2375-0.37875 5.5125-0.94041 9.5-1.2481zm44.25-1.6879c0-3.0261-0.43307-3.5647-4.0202-5-4.5616-1.8252-9.6482-2.0653-13.415-0.63333-1.9026 0.72336-2.5653 1.6919-2.5657 3.75-0.0006 2.6852 0.15275 2.7652 4.75 2.4791 2.6128-0.16259 6.7756 0.35542 9.2506 1.1511 6.1876 1.9893 6 2.044 6-1.7469zm-28-1.3586c0-2.9359-0.28656-3.25-2.9648-3.25-1.9078 0-3.3339 0.68962-4 1.9343-1.9076 3.5643-1.2573 4.5657 2.9648 4.5657 3.8462 0 4-0.125 4-3.25zm5.5818 2.75c0.95415 0 1.4182-1.1453 1.4182-3.5 0-3.9239 0.0836-3.8625-3.4349-2.5248-1.9998 0.76033-2.5651 1.6654-2.5651 4.107 0 2.4449 0.34691 2.9986 1.5818 2.5248 0.86998-0.33385 2.22-0.60699 3-0.60699zm-44.582-7.7692c3.575 0.19598 7.1483 0.56173 7.9406 0.81278 0.81038 0.25677 1.608-0.30912 1.8233-1.2935 0.28876-1.3204-0.2635-1.75-2.2496-1.75-1.5002 0-2.3666-0.43007-2.0143-1 0.33992-0.55 1.4915-1 2.559-1 2.8278 0 2.5593-3.7393-0.30902-4.3035l-2.25-0.4426 2.25-0.74358c2.8649-0.94678 3.0992-3.9657 0.25-3.2206-1.1 0.28766-2 0.16762-2-0.26674s0.9-1.0251 2-1.3128c2.7615-0.72215 2.5695-3.6758-0.25-3.8464l-2.25-0.13618 2.25-0.43337c1.4066-0.27094 2.25-1.157 2.25-2.3638 0-1.2949-0.74072-1.9753-2.25-2.0666l-2.25-0.13618 2.25-0.43337c2.816-0.54 2.975-3.29 0.188-3.29-1.2056 0-1.7854-0.44271-1.3988-1.0682 0.3631-0.5875 1.2453-0.84364 1.9605-0.5692 0.72324 0.27753 1.5292-0.37615 1.816-1.4729 0.41336-1.5807 0.13533-1.8512-1.4015-1.3634-1.0544 0.33466-1.9171 0.18064-1.9171-0.34228s0.9-1.1861 2-1.4738c3.2291-0.84444 2.2921-2.3909-1.25-2.063l-3.25 0.30085 3.25-1.1187c3.9838-1.3713 4.2855-3.773 0.5-3.9792l-2.75-0.14983 2.8094-0.42233c1.9762-0.29708 2.7128-0.91992 2.4836-2.1002-0.17918-0.92281-1.0742-1.6836-1.9888-1.6906-2.0984-0.0161-3.6309-1.446-1.7209-1.6057 0.77917-0.0652 1.9792-0.0454 2.6667 0.0438 0.6875 0.0893 1.25-0.695 1.25-1.7428 0-1.4937-0.59387-1.8321-2.75-1.5667l-2.75 0.33842 2.75-1.1701c3.3199-1.4126 3.6157-3.7316 0.5-3.9202l-2.25-0.13618 2.25-0.43337c1.2375-0.23836 2.25-0.86657 2.25-1.396 0-0.52947-1.0125-1.3696-2.25-1.8671l-2.25-0.90439 2.25-0.0634c1.3793-0.0389 2.25-0.68896 2.25-1.68 0-1.1243-0.60908-1.4574-2-1.0936-1.1 0.28766-2 0.11514-2-0.38337s0.9-0.90638 2-0.90638c1.1493 0 2-0.66667 2-1.5674 0-1.1431-0.5753-1.3848-2.1252-0.89286-1.4301 0.4539-1.9014 0.31241-1.441-0.43262 0.37633-0.60892 1.2845-1.1071 2.0182-1.1071s1.6138-0.72923 1.9558-1.6205c0.4782-1.2462 0.15639-1.4988-1.393-1.0936-2.7246 0.71251-2.5605-0.13935 0.23514-1.2202l2.25-0.86993-2.5-1.0345c-1.769-0.73201-1.9883-1.053-0.75-1.0978 2.4434-0.0885 2.2042-2.0633-0.25-2.0633-1.1 0-2-0.45-2-1s0.9-1 2-1 2-0.50248 2-1.1166c0-0.6243-0.88181-0.88603-2-0.59362-1.1 0.28766-2 0.11514-2-0.38337s0.675-0.90638 1.5-0.90638 1.5-0.51462 1.5-1.1436c0-1.7228-12.84-0.26239-19.456 2.213-7.1959 2.6923-7.9915 4.1349-1.2978 2.3529 2.8895-0.76923 6.8287-1.3718 8.7537-1.3392 2.7532 0.0468 1.7652 0.54925-4.63 2.3549-9.3402 2.6372-10.37 3.1457-10.37 5.1209 0 1.8225-0.0551 1.8277 6-0.55902 2.7907-1.1 6.2949-1.9897 7.787-1.977 1.7318 0.0146-0.18037 1.0355-5.287 2.8226-7.0839 2.4791-8.0362 3.1062-8.3164 5.477-0.37699 3.1899-0.55677 3.1613 4.9393 0.78437 6.489-2.8064 8.8771-3.3913 8.8771-2.1744 0 0.58707-0.63769 1.0674-1.4171 1.0674-2.2106 0-10.023 3.5829-11.896 5.4556-0.92797 0.92797-1.6872 2.3099-1.6872 3.071 0 1.0688 1.4845 0.825 6.5228-1.0714 7.351-2.7669 7.4772-2.7933 7.4772-1.5636 0 0.49038-1.1747 1.1864-2.6104 1.5468-5.9993 1.5057-11.18 4.6838-11.651 7.1473-0.40787 2.1336-0.18725 2.3734 1.645 1.7875 6.3518-2.0308 12.075-3.2077 12.955-2.6639 1.13 0.69834-6.6805 3.2523-10.017 3.2755-3.7221 0.0259-5.3214 2.6388-5.3214 8.6936 0 4.88 0.20725 5.4502 1.75 4.8145 3.7019-1.5253 12.491-3.5851 13.024-3.0521 0.80991 0.80992 0.43952 0.9687-7.2741 3.1183l-7 1.9507-0.21003 10.107-0.21004 10.107 6.5055-2.3614c7.2365-2.6267 8.4145-2.8173 8.4145-1.3614 0 0.55-0.7413 1-1.6473 1-0.90603 0-4.281 0.9603-7.5 2.134-4.9839 1.8172-5.8527 2.5011-5.8527 4.607 0 1.5669 0.45802 2.2977 1.25 1.9946 9.3053-3.561 11.762-4.1238 12.924-2.9612 0.96749 0.96749 0.66124 1.2256-1.4541 1.2256-3.7725 0-10.601 2.9079-11.714 4.9888-1.4506 2.7104-0.4829 2.8224 6.0063 0.69476 4.6575-1.5271 6.527-1.7301 8.2545-0.89654 2.0615 0.99478 1.9641 1.0825-1.2668 1.1404-3.6974 0.0663-13 3.0136-13 4.1188 0 0.35808 2.5875 0.24094 5.75-0.26032 3.1625-0.50127 8.675-0.75105 12.25-0.55508zm-18-19.67c0-0.97648 10.207-5.54 12.417-5.5512 2.7636-0.0141 1.2851 1.0653-4.1636 3.0398-2.6142 0.9473-5.5406 2.0468-6.5031 2.4434-0.9625 0.39658-1.75 0.4272-1.75 0.068zm0-8.0407c0-0.95985 7.6916-4.3718 11.441-5.0752 2.7719-0.52001 3.6513-0.40353 3.1445 0.41651-0.38696 0.62613-1.5397 1.1384-2.5616 1.1384s-3.9577 0.9-6.5239 2c-4.9623 2.1271-5.5 2.2757-5.5 1.5203zm1-14.571c0-1.2732 5.1264-3.5082 10.25-4.4686 2.5054-0.46965 3.75-0.33412 3.75 0.40834 0 0.61121-1.0125 1.1212-2.25 1.1332-1.2375 0.0121-4.2116 0.91208-6.6092 2-5.0649 2.2983-5.1408 2.312-5.1408 0.92701zm40.545 42.235 6.4547 0.41101 0.116-3.5474c0.0638-1.9511 0.30629-2.8404 0.53887-1.9763 0.29609 1.1 1.3856 1.4826 3.634 1.276l3.2111-0.29515-3.25 1.1187c-4.4315 1.5254-4.0859 2.8294 0.75 2.8294h4l0.11765-10c0.0647-5.5 0.17059-11.912 0.23529-14.25l0.11765-4.25h-3.9716c-3.1039 0-4.0514 0.41423-4.3367 1.8959-0.26878 1.3957 0.0571 1.7339 1.2352 1.2818 0.88017-0.33775 2.6133-0.20693 3.8514 0.29071l2.2511 0.9048-2.1682 0.0634c-3.3268 0.0973-5.3318 1.1268-5.3318 2.7378 0 1.0031 0.62341 1.2625 1.991 0.82846 1.0951-0.34756 2.5576-0.27493 3.25 0.16141 0.835 0.52619 0.24871 0.97374-1.741 1.329-3.1393 0.56057-3.1279 0.52893-3.4081 9.4234-0.14365 4.5594-1.2659 2.2636-1.7653-3.6112-0.69804-8.2115 1.7757-46.187 3.0642-47.04 1.6707-1.1066 5.6092-0.91104 5.6092 0.27853 0 0.57411-0.5625 0.97079-1.25 0.88151-3.5679-0.46331-4.75 0.17741-4.75 2.5746 0 2 0.5 2.5 2.5 2.5 1.375 0 2.5 0.47656 2.5 1.059 0 0.58246-0.40939 0.806-0.90976 0.49675-1.7619-1.0889-4.0902 0.68636-4.0902 3.1186 0 2.0016 0.37125 2.3426 1.991 1.8285 1.0951-0.34756 2.5576-0.27493 3.25 0.16141 0.84007 0.52938 0.29636 0.96676-1.6341 1.3146-2.6421 0.47599-5.6846 3.3586-4.5716 4.3313 0.25555 0.22333 2.1521 0.19568 4.2146-0.0614l3.75-0.46748v-11.274c0-10.606-0.12424-11.306-2.0964-11.822-3.0342-0.79346-4.8991 0.21649-4.934 2.672-0.0252 1.7783-0.18667 1.8759-0.94862 0.57361-1.0209-1.7449-1.5909-27.694-0.62943-28.655 0.33465-0.33466 0.60846 0.9636 0.60846 2.885 0 3.3128 0.15514 3.4707 3 3.0532 1.65-0.24217 3 0.0108 3 0.56208 0 0.55131-0.5625 0.9815-1.25 0.95596-3.8934-0.14459-4.75 0.37676-4.75 2.8911 0 2.2077 0.23521 2.4272 1.4873 1.3881 0.81799-0.67888 2.168-0.9731 3-0.65383 2.457 0.94284 1.7301 2.2252-1.2373 2.1827-2.6386-0.0378-2.75 0.16314-2.75 4.9606v5l3.8066 0.15124c3.3582 0.13343 3.7705-0.10142 3.5-1.9936-0.21094-1.4756-1.2426-2.3318-3.3066-2.7442-2.2432-0.44814-2.5962-0.77764-1.3992-1.3062 0.88044-0.38876 2.2304-0.57195 3-0.40709 1.0426 0.22334 1.5464-1.3568 1.9766-6.2003l0.5774-6.5 0.19336 7c0.10635 3.85 0.27724 23.312 0.37975 43.25l0.1864 36.25h2.2338c1.2286 0 2.5102-0.44712 2.8479-0.9936 0.33775-0.54648 0.5859-7.859 0.55145-16.25-0.0345-8.391 0.21931-18.425 0.56391-22.297 0.60309-6.7773 0.76242-7.1218 4.2576-9.2057l3.631-2.165-5.5-0.11455c-4.0233-0.0838-4.963-0.34531-3.5-0.97398 1.1-0.47269 3.4144-0.89106 5.143-0.92971 1.8197-0.0407 3.3854-0.70183 3.7186-1.5703 0.46968-1.224-0.46138-1.5-5.0597-1.5-6.7511 0-6.5641-0.88444 0.30051-1.4212 3.4771-0.2719 4.9913-0.84643 5.2209-1.9809 0.25829-1.2765-0.6469-1.6199-4.5-1.7075l-4.8233-0.10956 4.3881-0.86186c5.4661-1.0736 6.1248-1.7052 3.6589-3.5083-1.2581-0.91994-3.2088-1.2253-5.4984-0.86078-2.955 0.47048-3.2411 0.37153-1.7103-0.59158 1.0111-0.6361 3.3895-0.97545 5.2854-0.75411 2.7156 0.31703 3.3787 0.0728 3.1247-1.1509-0.23796-1.1462-1.4267-1.5037-4.5354-1.364-2.3171 0.10413-4.213-0.23337-4.213-0.75s2.025-0.93933 4.5-0.93933c3.7474 0 4.5-0.31637 4.5-1.8916 0-2.3581-3.8979-3.4779-7.4306-2.1348-2.0395 0.77544-2.5694 0.67266-2.5694-0.49836 0-1.1036 1.2595-1.4752 5-1.4752h5v-4.5c0-2.475-0.3375-4.4082-0.75-4.2959-0.4125 0.11224-3.2063-0.14071-6.2085-0.5621-3.8407-0.53909-5.0287-1.0318-4.0083-1.6625 0.79763-0.49295 2.4665-0.69001 3.7085-0.43789 1.2421 0.25211 3.3833 0.69196 4.7583 0.97744 2.2292 0.46284 2.5 0.19207 2.5-2.5 0-1.6605-0.3375-2.9658-0.75-2.9006-0.4125 0.0651-3 0.0265-5.75-0.086-4.697-0.19199-4.8182-0.2615-2-1.1468 1.65-0.51834 4.2375-0.71591 5.75-0.43904 1.812 0.33169 2.75 0.0734 2.75-0.75732 0-1.2097-1.2172-1.4987-7.25-1.7215-1.5125-0.0559-2.75-0.58415-2.75-1.174 0-0.69918 1.7401-0.86632 5-0.48024l5 0.59218v-5.0203c0-4.3023-0.25029-4.9498-1.75-4.5275-4.2521 1.1972-8.6877 1.8105-8.0162 1.1084 0.4036-0.42201 2.8558-1.3061 5.4493-1.9646 4.3886-1.1143 7.6248-3.7802 3.624-2.9854-5.3458 1.062-9.2903 1.2655-8.7884 0.45339 0.30993-0.50148 2.795-1.2078 5.5224-1.5696 4.9508-0.65675 4.9589-0.66398 4.9589-4.4234v-3.7655l-6.2437 0.32046c-4.5956 0.23588-5.7675 0.054-4.4399-0.68897 0.99208-0.5552 3.8017-1.0094 6.2437-1.0094 3.7089 0 4.4399-0.31557 4.4399-1.9167 0-1.6647-0.74928-1.9166-5.7-1.9166-4.1704 0-5.4027-0.29733-4.592-1.108 0.61089-0.61089 3.1682-0.94415 5.7-0.74279 4.7826 0.38037 5.9371-0.78799 3.103-3.1401-0.97211-0.80678-2.7947-0.99585-5.25-0.54463-2.9016 0.53324-3.4952 0.41901-2.5977-0.49996 0.6691-0.6851 2.8994-1.0256 5.25-0.80139 3.628 0.34599 4.0867 0.15007 4.0867-1.7455 0-1.953-0.43409-2.101-5.0851-1.7342-3.3626 0.26518-4.8669 0.048-4.441-0.64118 0.35426-0.5732 2.6426-1.0422 5.0851-1.0422 4.5266 0 5.0437-0.57582 4.4903-5-0.49507-3.9576-7.2299-5.2049-13.641-2.5262l-3.5273 1.4738 0.68721 18.63 0.6872 18.63-2.1072-1.1278c-2.7257-1.4587-7.1483-0.35207-7.1483 1.7887 0 1.1983 0.89156 1.6486 3.25 1.6416 1.7875-0.005 3.6265-0.45967 4.0868-1.0097 0.47745-0.57061 0.63038-0.0545 0.35615 1.202-0.26432 1.2111 0.0341 2.4131 0.66326 2.6711 0.82577 0.33858 0.81266 0.49095-0.0471 0.54794-0.65504 0.0434-1.4691-0.37105-1.809-0.92105-0.33992-0.55-2.1244-1-3.9654-1-2.6968 0-3.2578 0.34012-2.8867 1.75 0.32038 1.217 1.5075 1.7727 3.8977 1.8247 1.8904 0.0411 3.6945 0.33212 4.0091 0.64679 0.31467 0.31467 0.66972 3.1281 0.789 6.2521 0.21174 5.5457-0.52024 7.668-1.8838 5.4617-0.38117-0.61674-1.762-0.82531-3.1529-0.47623-1.592 0.39956-2.2454 0.25011-1.8319-0.41897 0.35-0.56 1.77-1.03 3.16-1.03 1.8616 0 2.4232-0.45433 2.1635-1.75-0.23414-1.1681-1.2606-1.7365-3.0868-1.7095-1.5048 0.0223-2.5683-0.42774-2.3633-1 0.20499-0.57226 1.5611-0.95575 3.0135-0.85221 2.0108 0.14336 2.6408-0.2741 2.6408-1.75-0.00004-1.5485-0.70387-1.9383-3.5-1.9383-3.3333 0-3.5 0.16667-3.5 3.5 0 1.925-0.40212 3.5-0.89361 3.5-0.49148 0-0.88175-3.9739-0.86725-8.8309 0.0262-8.7858 0.0409-8.8364 2.883-9.9091 1.5712-0.59306 3.7614-0.84168 4.8673-0.5525 2.1443 0.56075 2.5282-0.34185 1.1026-2.5928-0.60063-0.9484-1.7548-1.1651-3.6593-0.68712-2.4912 0.62525-2.6404 0.52761-1.4272-0.93417 0.74513-0.89782 2.1737-1.4182 3.1746-1.1565 1.305 0.34125 1.8199-0.0814 1.8199-1.4938 0-1.6199-0.57725-1.9141-3.25-1.6564-3.0505 0.29413-3.2689 0.57421-3.5575 4.5634-0.16912 2.3375-0.61912 4.2493-1 4.2485-0.38087-0.00083-0.67038-7.0606-0.64334-15.688 0.0638-20.375 0.003-20.717-3.8879-22.077-8.1152-2.8352-25.861-2.188-26.463 0.96521-0.28069 1.4684 0.12305 1.57 2.9821 0.75 6.1784-1.7719 18.82-0.94755 18.82 1.2273 0 0.51831-0.47431 0.64924-1.054 0.29096-1.7625-1.0893-15.606-0.57875-18.362 0.67718-4.748 2.1633-3.0553 3.481 3.9024 3.038 7.2523-0.46179 15.813 0.52579 15.064 1.7378-0.26897 0.4352-2.7972 0.42641-5.6182-0.0195-2.9146-0.46073-7.3042-0.39832-10.167 0.14455-2.7707 0.52542-5.2012 0.95533-5.4011 0.95533-0.19993 0-0.36351 1.0646-0.36351 2.3657 0 2.2438 0.21899 2.3239 4.25 1.5543 4.4819-0.85572 14.494-0.14308 15.254 1.0857 0.24601 0.39805-2.6554 0.50173-6.4476 0.2304s-8.0562-0.20188-9.4754 0.15433c-2.3888 0.59957-2.5805 1.0626-2.5805 6.2356 0 4.9449 0.20138 5.5004 1.75 4.8274 2.7519-1.196 15.314-1.789 16.332-0.771 0.55656 0.55656-1.7376 0.96306-5.8325 1.0334-8.409 0.14455-11.847 1.3982-12.448 4.5385l-0.45943 2.4034 5.5786-1.3133c6.5952-1.5526 13.079-1.7389 13.079-0.37588 0 0.53273-0.71305 0.69499-1.5846 0.36056-1.4157-0.54325-8.7032 0.68766-15.337 2.5905-1.5191 0.43574-2.4809 1.503-2.5812 2.8641-0.17553 2.3826 0.9272 2.3284 8.8782-0.43619 3.8478-1.3379 13.522-1.9116 12.342-0.73192-0.33863 0.33862-2.4112 0.74959-4.6058 0.91327-3.6809 0.27453-8.2327 1.4493-13.862 3.5775-1.9635 0.74234-2.25 1.5624-2.25 6.4395 0 4.858 0.22883 5.5195 1.75 5.0586 8.549-2.5902 18.25-3.3828 18.25-1.491 0 0.66927-1.2011 0.93722-3.0106 0.67164-3.391-0.4977-14.778 1.6034-16.156 2.981-1.4698 1.4698 0.19439 4.4466 2.0452 3.6585 2.87-1.2221 18.121-1.7639 18.121-0.64373 0 0.56748-0.90606 0.79484-2.0135 0.50525-1.1074-0.2896-5.6074 0.0325-10 0.71587-7.1558 1.1132-7.9865 1.4688-7.9865 3.4194 0 1.9009 0.44573 2.1249 3.5155 1.7665 4.4178-0.51576 12.484 0.64849 12.484 1.8019 0 0.47702-0.675 1.5423-1.5 2.3673-2.0496 2.0496-1.8882 2.6319 0.75 2.7062l2.25 0.0634-2.25 0.90439c-1.2985 0.52195-2.25 1.7638-2.25 2.9366 0 1.422 0.67557 2.0512 2.25 2.0956l2.25 0.0634-2.25 0.90439c-2.5399 1.0209-3.032 2.9688-0.75 2.9688 0.825 0 1.5 0.45 1.5 1s-0.675 1-1.5 1c-2.4176 0-1.7201 1.9867 0.75 2.1362l2.25 0.13618-2.25 0.43337c-2.258 0.43-3.236 3.29-1.129 3.29 0.72969 0 0.64221 0.58178-0.25 1.6626-1.07 1.2962-1.097 1.7553-0.12244 2.0833 1.8449 0.62094 1.5189 2.254-0.45 2.254-2.1339 0-0.57636 1.6191 2.2 2.2869 1.8558 0.44637 1.8426 0.48943-0.18261 0.59707-3.0003 0.15946-4.0749 3.8263-1.6581 5.6576 1.7093 1.2952 1.7158 1.397 0.0907 1.4266-2.7547 0.0501-2.2703 4.0171 0.5 4.0952l2.25 0.0634-2.25 0.90439c-3.0775 1.237-2.8344 2.9688 0.41667 2.9688 2.374 0 2.5753 1.3079 0.25 1.625-0.50417 0.0688-1.3667 0.18125-1.9167 0.25-1.9152 0.2394-0.99177 3.125 1 3.125 1.1 0 2 0.45 2 1s-0.3375 0.94671-0.75 0.88158c-3.9018-0.61607-4.2399 1.3234-0.5 2.8684 1.5125 0.62483 2.075 1.1084 1.25 1.0746-2.9438-0.12065-4 0.18974-4 1.1755 0 0.55 1.0125 1.0305 2.25 1.0677l2.25 0.0677-2.1917 1.0591c-3.6736 1.7752-3.6874 3.7893-0.027 3.9238l3.2186 0.11832-2.9175 0.63168c-1.6046 0.34743-3.1047 1.1945-3.3336 1.8824-0.25494 0.76634 0.15802 1.0304 1.0664 0.68183 0.81532-0.31287 1.7479-0.13934 2.0723 0.38563 0.32445 0.52496-0.30503 1.1885-1.3988 1.4746-2.4521 0.64123-2.6472 3.6959-0.23875 3.7377 1.6667 0.029 1.6667 0.0789 0 1.0497-2.9368 1.7105-2.1141 3.9098 1.5 4.0101l3.25 0.0902-3.25 0.9384c-2.2119 0.63866-3.25 1.5515-3.25 2.8578 0 1.7047 0.34057 1.8007 3.0453 0.8578 1.6749-0.58388 5.9499-0.87664 9.5-0.65059zm8.4547-8.3224c0-0.47373 1.125-0.86133 2.5-0.86133s2.5 0.17254 2.5 0.38342c0 0.21089-1.125 0.59848-2.5 0.86133s-2.5 0.0903-2.5-0.38342zm0-5.8613c0-1.2644 2.0435-1.2644 4 0 1.1689 0.75538 0.89294 0.97275-1.25 0.98469-1.5125 0.008-2.75-0.43469-2.75-0.98469zm11.006-68.25c-0.003-0.4125 2.469-0.75 5.494-0.75s5.5 0.37385 5.5 0.83079c0 0.45693-2.4723 0.79443-5.494 0.75-3.0217-0.0444-5.4967-0.41829-5.5-0.83079zm-43.005-19.58c0-0.87692 3.7298-1.9595 12.726-3.6935 1.7741-0.34198 3.7816-0.27812 4.4613 0.1419 0.71409 0.44134-1.7289 1.2632-5.7878 1.9471-3.8629 0.65088-8.008 1.4959-9.2113 1.8778-1.2215 0.38769-2.1878 0.267-2.1878-0.27326zm44.003-1.3036c-0.004-0.87598 5.9786-1.681 8.1918-1.1023 3.3933 0.88736 1.8098 1.7536-3.1918 1.7462-2.7483-0.004-4.9983-0.29386-5-0.64393zm0.9969-13.703c2.5045-1.6321 8.7015-2.4522 9.4445-1.25 0.43368 0.70171-0.50486 1.0947-2.6355 1.1035-1.82 0.008-4.434 0.26348-5.809 0.56881-1.8618 0.41343-2.1171 0.30563-1-0.42232zm-44.004-11.42c-0.002-1.0501 17.761-0.9433 18.413 0.11068 0.29256 0.47338-3.7304 0.81088-8.9398 0.75-5.2095-0.0609-9.4723-0.44818-9.4729-0.86068zm41.743-14.895c1.3064-1.3064 11.487-1.6101 11.911-0.35535 0.19906 0.58973-2.373 1.0658-6.2692 1.1603-4.2462 0.10305-6.2618-0.18456-5.6414-0.80498zm24.255 142.79c0-0.74544-1.4625-1.8637-3.25-2.4851l-3.25-1.1297 3.3304 0.47614c2.3623 0.33774 3.2116 0.11539 2.9217-0.76493-0.22478-0.68259-1.3926-1.3857-2.5952-1.5626-1.2026-0.17683-1.9544-0.69708-1.6707-1.1561 0.28371-0.45905 1.4154-0.59939 2.5148-0.31188 1.102 0.28818 1.999 0.0302 1.999-0.57483 0-0.60367-1.125-1.3799-2.5-1.725-3.3454-0.83964-3.2148-2.2699 0.14862-1.627 1.8283 0.3495 2.4294 0.15168 1.941-0.63867-0.38-0.63-1.33-1.15-2.09-1.15-0.76008 0-1.6898-0.49812-2.0661-1.1069-0.47563-0.7696 0.26826-0.89776 2.441-0.42055 4.0289 0.88491 4.1122-0.86794 0.12511-2.6328-1.65-0.73036-3-1.6681-3-2.0838 0-0.97635 0.34847-0.9541 3.4349 0.21936 1.7006 0.64655 2.5651 0.63597 2.5651-0.0314 0-0.55364-0.675-1.2175-1.5-1.4752-5.0769-1.5861-5.1295-1.63-3-2.5057 1.7022-0.69994 1.7394-0.83284 0.25-0.89266-0.9625-0.0387-1.75-0.55604-1.75-1.1498 0-0.66504 1.0877-0.84054 2.8333-0.45715 2.1277 0.46732 2.8333 0.24901 2.8333-0.87655 0-0.82438-0.375-1.2671-0.83334-0.98383-0.45833 0.28327-0.83333 0.0698-0.83333-0.47443 0-0.54421-1.0125-1.1845-2.25-1.4228-1.6271-0.31339-1.3503-0.47107 1-0.56955 1.7875-0.0749 3.25-0.58618 3.25-1.1362 0-0.55-0.3375-0.92733-0.75-0.83852-1.0637 0.22902-6.25-1.9966-6.25-2.682 0-0.31354 1.575-0.27459 3.5 0.0865 4.0257 0.75522 4.9111-0.99499 1-1.9766-1.375-0.34511-2.5-1.0992-2.5-1.6758 0-0.60438 0.95284-0.78552 2.25-0.42773 1.919 0.5293 1.8454 0.35801-0.5-1.1642-2.9272-1.8999-3.5524-3.2988-1.5-3.357 0.6875-0.0195 0.125-0.67854-1.25-1.4646-1.375-0.78602-1.9375-1.4451-1.25-1.4646s1.2491-0.37294 1.248-0.78544c-0.003-1.202-6.2105-1.3178-9.6831-0.1807-2.9206 0.95636-3.2308 1.4741-3.7358 6.2368-0.30291 2.8566-0.69083 13.148-0.86203 22.87-0.29065 16.506-0.19659 17.615 1.4201 16.75 2.5403-1.3595 10.904-1.0466 14.363 0.5373 1.65 0.75552 3.1125 1.4102 3.25 1.4549s0.25-0.52868 0.25-1.2741zm-30.41-30.65c2.1934 0 2.4182-0.41148 2.4182-4.4267 0-3.4113-0.4014-4.5097-1.75-4.7886-3.43-0.70941-6.25 0.39164-6.25 2.4403 0 1.5684 0.48005 1.8713 2.2583 1.425 1.2421-0.31174 2.9296-0.14242 3.75 0.37628 1.1628 0.73515 0.92949 0.94645-1.0583 0.95839-2.8213 0.0169-4.95 1.6607-4.95 3.8223 0 0.87215 0.60129 1.1762 1.5818 0.8 0.86998-0.33385 2.67-0.60699 4-0.60699zm28.918-15c-0.33992-0.55-1.154-0.99311-1.809-0.98469-0.71561 0.009-0.59227 0.40223 0.30902 0.98469 1.9211 1.2415 2.2673 1.2415 1.5 0zm-29.418-76c1.055 0 1.9182-0.58341 1.9182-1.2965 0-0.78827-1.078-1.2308-2.75-1.1289-4.1443 0.25245-4.25 0.30298-4.25 2.0324 0 1.0545 0.5438 1.3983 1.5818 1 0.86998-0.33385 2.445-0.60699 3.5-0.60699zm-0.27975-4.3415c1.7676 0.46223 2.198 0.1479 2.198-1.6052 0-1.8571-0.48139-2.1336-3.25-1.8666-2.58 0.24876-3.3213 0.81891-3.596 2.7655-0.28275 2.0036-0.0903 2.2399 1.052 1.2918 0.76895-0.63816 2.3872-0.90165 3.596-0.58552zm2.198-6.655c0-1.1155-0.82842-1.546-2.75-1.4289-4.0882 0.24903-4.25 0.31473-4.25 1.7254 0 0.81905 1.2949 1.3 3.5 1.3 2.5384 0 3.5-0.4386 3.5-1.5965zm0-6.372c0-3.1462-0.1829-3.31-3.75-3.359-2.9595-0.0406-3.2386 0.0891-1.3241 0.61555 3.152 0.86669 3.7857 2.8006 0.8828 2.6942-1.2959-0.0475-2.3829 0.58882-2.5693 1.504-0.24286 1.1927 0.55589 1.6194 3.2188 1.7196 3.3687 0.12664 3.5418-0.0285 3.5418-3.1744zm-0.22-21.63c-0.0961-9.35-0.50778-17-0.91479-17-2.2072 0-5.8702 2.153-5.8702 3.4502 0 1.1336 0.79334 1.3709 3.25 0.97182l3.25-0.52792-3.25 1.5046c-4.2374 1.9618-4.6033 5.5385-0.5 4.8878l2.75-0.43611-2.5 1.3498c-2.74 1.48-4.05 5.8-1.77 5.8 0.75813 0 2.2519 0.66705 3.3196 1.4823 1.8115 1.3833 1.7241 1.4418-1.3089 0.875-2.8151-0.52606-3.2667-0.32296-3.375 1.5177-0.43523 7.399-0.42098 7.4558 1.9105 7.6276 1.257 0.0926 2.832 0.72424 3.5 1.4036 0.96118 0.97761 0.61852 1.088-1.6428 0.52916-1.9747-0.48799-3.1248-0.27816-3.7231 0.67923-0.82514 1.3203-0.25314 1.5699 6.3103 2.7537 0.40144 0.0724 0.65124-7.5184 0.55511-16.868zm3.6612 13.087c0.92084-1.49 7.8036-2.2091 11.304-1.1812l3.25 0.95453v-3.8078c0-2.0943-0.63485-4.3346-1.4108-4.9786-1.9761-1.64-7.818-2.4413-12.033-1.6505l-3.5559 0.66709v5.4547c0 4.9816 1.0125 6.8614 2.4462 4.5417zm-12.446-5.9657c0-3.2948-0.41401-4.0463-2.75-4.9919-3.3203-1.3441-18.359-2.1225-23.82-1.2329-3.698 0.60239-3.9298 0.8455-3.9298 4.1218v3.4817l13.17 0.50334c7.2435 0.27683 13.506 0.83933 13.917 1.25 1.9371 1.9371 3.4133 0.58248 3.4133-3.132zm27.15-43.87c-0.19289-2.3375-0.80353-4.25-1.357-4.25-0.55346 0-0.75439 0.65645-0.44651 1.4588 0.45526 1.1864-0.87861 1.5132-7.143 1.75-6.8533 0.25909-7.7347 0.51414-7.9924 2.3126-0.27326 1.9074 0.14979 2 7.5 1.641 4.2843-0.20926 7.4593-0.0386 7.0556 0.37928-0.40373 0.41786-3.4493 0.89539-6.768 1.0612-6.7417 0.33677-7.9979 0.81791-7.9979 3.0632 0 1.0886 0.51937 1.3291 1.75 0.81044 2.8285-1.192 12.25-1.8082 12.25-0.80108 0 0.50767-1.4942 0.74859-3.3204 0.53539-4.0306-0.47055-10.68 2.1247-10.68 4.1684 0 1.195 0.62666 1.3015 3.2434 0.55102 4.2553-1.2204 8.8863-1.1576 10.757 0.1458 1.1098 0.77341 0.62821 0.87305-1.8511 0.38303-1.8431-0.36429-5.2868-0.12038-7.6526 0.54201-3.8531 1.0788-4.343 1.5599-4.6997 4.615-0.44111 3.7784 0.49344 6.3416 1.6374 4.4907 0.82115-1.3286 11.566-1.5024 11.566-0.18697 0 0.50588-1.4625 0.9049-3.25 0.88671-5.9126-0.0602-7.3498 0.18036-9.2116 1.5418-3.1715 2.319-1.005 3.5786 3.491 2.0296 3.8876-1.3394 8.448-1.0326 9.4804 0.63779 0.26993 0.43676-1.3008 0.55379-3.4906 0.26009-4.5716-0.61319-10.019 1.264-10.019 3.4526 0 1.0285 0.53853 1.2593 1.75 0.75008 3.6023-1.5142 6.2019-1.6494 9.6751-0.5031 1.9662 0.6489 3.5749 1.6431 3.5749 2.2092 0 0.60303-0.72487 0.7149-1.75 0.27007-5.3066-2.3027-13.25-1.0481-13.25 2.0926 0 1.3364 0.85585 1.498 5.25 0.99118 2.8875-0.33304 6.6-0.21983 8.25 0.25158l3 0.85712 0.5-17.074c0.275-9.3904 0.34219-18.986 0.14931-21.324zm-15.48 18.778c1.5555-1.6847 8.2046-2.8202 11.33-1.935 3.0221 0.85586 2.8432 0.92214-3.5 1.2965-2.75 0.16229-5.9 0.65736-7 1.1002-1.5844 0.63779-1.757 0.54186-0.83043-0.46168zm-11.58 15.47c0.0455-1.1 0.26039-3.125 0.47756-4.5s0.38649-7.675 0.37627-14c-0.014-8.6699-0.37401-11.857-1.4628-12.949-2.7222-2.7311-10.077-3.8422-19.31-2.9174-9.5747 0.95897-11.165 1.3517-11.165 2.7577 0 0.54652 4.1654 0.91532 9.75 0.86324 9.3304-0.087 17.25 1.5114 17.25 3.4814 0 0.45886-0.7875 0.42765-1.75-0.0693-5.221-2.696-24.456-2.0551-25.012 0.83328-0.24379 1.2675 1.6139 1.5 11.987 1.5 8.4651 0 12.896 0.40827 14.275 1.3154 1.7582 1.1563 1.5163 1.2255-2 0.57202-5.1776-0.96218-18.217-1.0071-21.75-0.0749-1.6599 0.438-2.7508 1.4118-2.7521 2.4566-0.002 1.5527 1.0928 1.6983 10.631 1.414 10.305-0.30716 16.371 0.80332 16.371 2.9973 0 0.51573-0.3375 0.75552-0.75 0.53287-2.8492-1.5379-5.9268-1.9204-14.609-1.8156-5.4224 0.0655-10.26 0.36684-10.75 0.66971-0.49004 0.30287-0.89099 2.8222-0.89099 5.5986 0 4.4424 0.20992 4.953 1.75 4.2565 0.9625-0.4353 6.25-0.89515 11.75-1.0219l10-0.23042-9.2202 0.9283c-12.521 1.2607-14.281 2.0156-14.277 6.1267l0.003 3.2748h15.498c14.803 0 15.501-0.0896 15.58-2zm-30.084-1.346c0-1.924 6.3778-2.8365 14.382-2.0577 4.3349 0.42183 8.3708 1.2562 8.9688 1.8541 0.78283 0.78283 0.11618 0.88005-2.3816 0.34734-4.7194-1.0065-17.065-0.95756-19.219 0.0762-1.0944 0.52533-1.75 0.44294-1.75-0.21993zm23.494-5.15c-0.33992-0.55-0.14148-1 0.44098-1s1.059 0.45 1.059 1-0.19844 1-0.44098 1-0.7191-0.45-1.059-1zm-23.5-4.9136c0-1.5244 3.508-2.2276 10.995-2.2039 8.2127 0.026 13.772 0.93086 14.673 2.3884 0.42825 0.69292-0.16413 0.77533-1.761 0.24498-3.1628-1.0504-17.651-1.2161-21.156-0.24201-1.6089 0.44713-2.75 0.36936-2.75-0.18742zm38.937-6.7246c0.3099-1.024 0.33846-5.1232 0.0635-9.1091l-0.5-7.2472-3.25 1.9826c-3.9974 2.4384-4.2612 4.266-0.5 3.4629 2.6324-0.56206 2.667-0.52011 0.80887 0.98095-1.0676 0.86247-2.3051 1.5681-2.75 1.5681-0.44488 0-0.80887 0.43588-0.80887 0.96862 0 0.53273 0.7875 0.68143 1.75 0.33043 1.6667-0.60779 1.6667-0.54302 0 1.3601-2.3806 2.7184-2.1981 4.3273 0.5 4.4085l2.25 0.0677-2.25 1.0851c-1.2375 0.59683-2.25 1.8946-2.25 2.884 0 1.6358 0.28886 1.6774 3.1865 0.45907 1.7526-0.73691 3.4401-2.1777 3.75-3.2017zm-4.3247-16.566c1.3716-0.051 4.9866-2.7962 3.6821-2.7962-0.63309 0-1.8421 0.69107-2.6868 1.5357-0.84464 0.84465-1.878 1.4859-2.2964 1.425-0.41839-0.0609-0.91872 0.48554-1.1118 1.2143-0.28752 1.085-0.18122 1.0831 0.5868-0.0104 0.51587-0.73448 1.3376-1.3503 1.8261-1.3684zm-6.12-0.8c-0.33992-0.55-1.293-1-2.118-1s-1.2219 0.45-0.88197 1c0.33992 0.55 1.293 1 2.118 1s1.2219-0.45 0.88197-1zm-7.0285-1.9538c0.20527-0.33213-2.7238-0.68953-6.5092-0.79422-3.7853-0.10469-7.1282 0.20738-7.4286 0.69349-0.30043 0.48611 2.6287 0.84351 6.5092 0.79422 3.8805-0.0493 7.2233-0.36136 7.4286-0.69349zm9.3739-18.327c-0.29048-16.215-0.58392-19.311-1.8454-19.467-0.825-0.10203-5.775-0.38633-11-0.63178-11.099-0.52135-16.339 0.74606-16.811 4.0661-0.29146 2.0476-0.0851 2.1239 3.2524 1.2024 4.3473-1.2003 15.774-0.76998 16.232 0.61136 0.20648 0.62216-2.2572 0.87676-6.5204 0.67383-8.3741-0.39861-14.153 1.5948-14.153 4.8821 0 1.6651 0.39975 1.9922 1.75 1.4323 2.6035-1.0797 15.712-1.8401 18.718-1.0857 1.4378 0.36087 2.3435 1.0942 2.0126 1.6295-0.38252 0.61893-1.3539 0.57077-2.6675-0.13225-2.3366-1.2505-13.69-0.36826-17.48 1.3582-1.4175 0.64584-2.3332 1.9285-2.3332 3.2683 0 2.0567 0.28628 2.1498 4.25 1.383 5.173-1.0007 12.416-1.1261 16.609-0.28753 4.9569 0.99138 2.709 2.1494-2.5732 1.3256-4.1149-0.64177-12.099 0.0993-17.321 1.6076-1.1003 0.31784-1.6002 1.9964-1.7646 5.925-0.22392 5.3511-0.17432 5.4606 2.0844 4.6019 3.5993-1.3684 15.146-2.3658 18.602-1.6068 1.9796 0.4348 3.1078 1.2921 3.0981 2.3544-0.0127 1.3861-0.16959 1.4267-0.92148 0.23857-1.2792-2.0215-12.765-1.7294-18.527 0.47125-6.1353 2.3431-5.7786 3.7152 0.71367 2.7452 8.8009-1.315 18.928-0.87332 22.25 0.97044 1.65 0.91578 3.3804 1.6831 3.8454 1.7051 0.46497 0.022 0.68997-8.6365 0.5-19.241zm-30.845 7.4336c0-1.5603 6.3566-2.6126 15.91-2.6337 6.597-0.0146 8.5182 0.30474 8.9126 1.4814 0.43687 1.3033 0.27792 1.3143-1.2123 0.084-1.4536-1.2001-3.1787-1.2245-11.316-0.15995-5.2802 0.69082-10.207 1.4887-10.948 1.773-0.74092 0.28432-1.3471 0.0392-1.3471-0.54473zm35 10.407c0-1.0555-1.9191-1.4989-2.4899-0.57533-0.34546 0.55897 0.0734 1.0163 0.9309 1.0163 0.85746 0 1.559-0.19844 1.559-0.44098zm8.5-0.55902c0.33992-0.55-0.0835-1-0.94098-1-0.85746 0-1.559 0.45-1.559 1s0.42344 1 0.94098 1 1.2191-0.45 1.559-1zm10.5 0.093c0.275-0.0846-0.31106-0.62568-1.3024-1.2024-1.2695-0.73857-2.1929-0.72448-3.1232 0.0477-0.72649 0.60294-2.0529 0.81534-2.9476 0.472-0.89471-0.34333-1.6268-0.20644-1.6268 0.3042 0 0.74047 6.8825 1.0299 9 0.37854zm-14.048-1.5352c0.6583-0.7932 2.6259-1.5807 4.3724-1.75l3.1755-0.3078v-12.5-12.5l-5.4293-2.75c-6.4307-3.2572-10.071-3.5863-10.071-0.91052 0 1.9588 3.7671 4.1605 7.1185 4.1605 2.0143 0 5.5338 2.681 4.6629 3.552-0.2512 0.25119-1.7673-0.16798-3.369-0.9315-1.6018-0.76351-4.1498-1.674-5.6623-2.0234-2.5124-0.58029-2.75-0.38533-2.75 2.2561 0 2.6145 0.39489 2.9544 4.1252 3.5509 5.3767 0.85977 7.882 2.259 7.8444 4.3811-0.0282 1.5908-0.10098 1.5939-1.006 0.043-0.53655-0.91952-2.4354-1.9656-4.2196-2.3247-1.7842-0.35904-4.0315-0.87453-4.994-1.1455-1.3052-0.3675-1.7496 0.0963-1.7486 1.8246 0.001 1.9694 0.90221 2.5821 6 4.0802 5.8632 1.723 7.1723 2.8938 4.8441 4.3327-0.68789 0.42514-0.88411 0.27601-0.48548-0.36899 0.71433-1.1558-0.64044-1.7265-6.61-2.7845-3.5456-0.62839-3.75-0.5223-3.75 1.9467 0 2.1001 0.47667 2.6113 2.4349 2.6113 3.3719 0 7.5651 1.717 7.5651 3.0977 0 0.77816-0.40211 0.82929-1.25 0.15895-1.7333-1.3704-6.379-2.104-7.7924-1.2305-1.6861 1.0421-0.35937 4.3019 2.2832 5.61 3.1374 1.553 3.3603 1.5493 4.7112-0.0784zm8.5511-33.417c-0.91659-3.6735-3.2447-6.0013-8.5839-8.5825-8.3142-4.0195-7.9225-4.105-7.8917 1.723l0.0275 5.2186 7.7225 2.5777c4.2474 1.4177 8.0964 2.3811 8.5535 2.1409 0.45706-0.24024 0.5345-1.6252 0.17209-3.0777zm-33.686-4.394c5.3257-0.0611 11.126 0.22739 12.89 0.64103l3.207 0.75208-0.41513-6.82c-0.22833-3.751-0.434-9.87-0.45704-13.598l-0.0419-6.7778-6.75 0.66458c-3.7125 0.36552-6.3995 0.29003-5.9711-0.16776 0.42842-0.45779 1.5534-0.94055 2.5-1.0728 8.3608-1.1682 10.116-1.6509 10.601-2.9163 0.46-1.14-0.49-1.44-4.58-1.44-2.8312 0-6.666 0.54905-8.5218 1.2201-2.8094 1.0159-3.2784 1.6017-2.8019 3.5 0.31472 1.2539 0.13116 2.2799-0.40791 2.2799-0.54346 0-1.1088-3.8982-1.269-8.75-0.25436-7.7032-0.44255-8.4811-1.573-6.5022-0.76998 1.348-1.496 7.4531-1.8134 15.25l-0.525 13h2.5634c2.1947 0 2.585-0.46751 2.7133-3.25 0.13946-3.0249 0.17868-3.0596 0.56642-0.5 0.39471 2.6055 0.69773 2.75 5.7684 2.75 5.4083 0 8.5204 0.67916 8.5093 1.857-0.003 0.35365-4.8408 0.7402-10.75 0.859-5.9092 0.11879-12.094 0.59894-13.744 1.067-2.7262 0.77332-3.0281 1.2845-3.3075 5.6-0.29572 4.5671-0.22615 4.7054 1.8169 3.612 1.1684-0.62533 6.4818-1.1869 11.807-1.248zm3.6613-15.712c0.35-0.56 2.94-1.03 5.75-1.03 6.4057 0 5.7483 0.88099-1.1629 1.5583-3.464 0.33946-5.0087 0.16319-4.5845-0.52316zm-4.914-5.742c-0.54268-1.4252-0.42782-1.5401 0.5598-0.5598 0.68342 0.67834 0.99067 1.4852 0.68278 1.7931-0.30789 0.30789-0.86705-0.24711-1.2426-1.2333zm4.9857 0.82372c1.3843-1.2869 10.45-2.4224 10.45-1.309 0 0.51174-1.6875 1.2094-3.75 1.5503-5.3766 0.8887-7.8209 0.80067-6.7-0.2413zm28.999-3.8487c-0.68125-1.7753-13.175-7.6175-14.517-6.7882-1.3625 0.84205-1.3352 5.52 0.0322 5.52 1.6158 0 11.059 4.2098 10.561 4.7081-0.23959 0.23959-2.519-0.27172-5.0654-1.1362-5.6794-1.9282-6.5599-1.9524-6.5599-0.18026 0 0.76538 1.0125 1.656 2.25 1.9793 2.965 0.77443 9.1177 4.5948 8.4597 5.2528-0.28374 0.28373-2.3416-0.41552-4.573-1.5539-4.8514-2.475-6.1367-2.5836-6.1367-0.51873 0 0.85306 1.4625 2.1906 3.25 2.9724 3.26 1.4257 8.8168 5.4127 7.6021 5.4543-0.35636 0.0122-2.6064-1.0973-5-2.4657-5.2235-2.9861-5.8521-3.0585-5.8521-0.67394 0 1.2895 2.313 3.0056 7.75 5.75l7.75 3.9119 0.28572-10.436c0.15714-5.7397 0.0508-11.048-0.23632-11.796zm0.70051-5.7951c0.36973-1.9341-0.17048-2.9923-2.3026-4.5106-2.9428-2.0954-12.489-4.3638-14.121-3.3554-0.52969 0.32736-3.7449 0.78462-7.1449 1.0161-7.9766 0.54314-9.4418 1.0453-10.222 3.5033-0.35336 1.1133-0.48887 2.1771-0.30116 2.364 0.18772 0.18689 4.081-0.19488 8.6516-0.84836 4.5707-0.65349 7.9832-1.5153 7.5833-1.9152-0.39985-0.39985-0.202-0.727 0.43966-0.727 0.64167 0 1.1667 0.39658 1.1667 0.88129 0 0.4847 1.9493 1.3721 4.3318 1.972 2.3825 0.59992 5.645 1.7756 7.25 2.6126 3.8587 2.0122 4.1036 1.9602 4.6681-0.99287zm0.75-10.46c0-3.6071-0.38806-5-1.393-5-2.5969 0-3.81 8.3479-1.357 9.3377 2.4847 1.0026 2.75 0.58421 2.75-4.3377zm-19.776 1.3618c1.4904-0.92109 8.2618-0.50788 11.433 0.69764 2.9326 1.115 3.5762-0.94679 3.1472-10.081l-0.30341-6.4604-4.5-0.65702c-2.475-0.36136-5.1643-0.8153-5.9763-1.0088-1.9007-0.45287-2.5255 3.3421-1.015 6.1645 0.85333 1.5944 1.9008 2.0407 4.2287 1.8016 1.8892-0.19407 3.2634 0.18837 3.5284 0.98193 0.32574 0.9755-0.58893 1.1765-3.6659 0.80562-3.5636-0.42954-4.0999-0.23983-4.0999 1.4502 0 1.8862 1.7192 2.4475 6.1614 2.0117 0.91378-0.0896 1.9528 0.30853 2.309 0.88485 0.66634 1.0782-3.2689 1.3566-14.97 1.0591-8.575-0.22-9.541-2.01-1.08-2.01h6.8165l-0.71512-6.75c-0.39332-3.7125-0.9102-6.952-1.1486-7.1988-0.23843-0.24684-3.344 0.98646-6.9014 2.7407l-6.4679 3.1895-0.16484-11.241-0.16485-11.241-0.7177 10c-0.39473 5.5-0.77055 13.778-0.83515 18.395l-0.11746 8.395 7.0016-0.58698c3.8509-0.32284 7.5508-0.92645 8.2221-1.3413zm-11.215-9.36c0-0.55 2.475-1 5.5-1s5.5 0.45 5.5 1-2.475 1-5.5 1-5.5-0.45-5.5-1zm5.7246-9 5.1934-2.5 0.041-7.5919c0.0225-4.1755 0.33248-13.67 0.68876-21.099l0.64776-13.507-4.1516-0.55686c-8.3414-1.1188-8.2335-1.3107-8.0852 14.38l0.13114 13.874 4.1551 0.10709 4.1551 0.10709-4.1247 0.92698c-3.7514 0.84309-4.1803 1.2632-4.739 4.6429-0.86834 5.2526-0.78373 14.447 0.12929 14.049 0.421-0.18 3.1-1.45 5.96-2.83zm-4.513-1.135c0.45905-1.3772 4.7883-3.1793 4.7883-1.9933 0 0.44399-1.1654 1.3383-2.5898 1.9873-1.9771 0.9008-2.4972 0.90223-2.1985 0.006zm0.78-4.86c0.825-0.53316 2.4-0.96937 3.5-0.96937 1.6561 0 1.7421 0.16666 0.5 0.96937-0.825 0.53316-2.4 0.96937-3.5 0.96937-1.6561 0-1.7421-0.16666-0.5-0.96937zm0-5c1.9709-1.2737 6-1.2737 6 0 0 0.55-1.6875 0.99311-3.75 0.98469-2.7894-0.0114-3.3658-0.26364-2.25-0.98469zm0-10.383c0-0.84859 5.085-1.288 5.5829-0.48247 0.29434 0.47624-0.8414 0.86589-2.5239 0.86589s-3.059-0.17254-3.059-0.38342zm-1-5.5713c0-0.57492 1.875-1.0453 4.1667-1.0453 4.9127 0 4.7727 0.47445-0.41667 1.4126-2.3741 0.42922-3.75 0.29444-3.75-0.36734zm2.2638-5.7629c1.5201-0.22986 3.7701-0.22371 5 0.0136 1.2299 0.23736-0.0137 0.42542-2.7638 0.41792-2.75-0.008-3.7563-0.20172-2.2362-0.43157zm1.2123-5.3423c1.8404-0.54914 3.3477-0.51634 3.95 0.086 0.63196 0.63196-0.41308 0.94379-2.976 0.88802-3.9037-0.085-3.9151-0.0964-0.97397-0.97397zm-3.476-3.698c0-1.0137 7.0316-2.5438 7.8642-1.7113 0.78521 0.78521-0.19355 1.2589-4.1142 1.9913-2.2598 0.42211-3.75 0.31085-3.75-0.27998zm24.8 35.746c0-3.3097 0.31567-9.161 0.70149-13.003l0.72-7h-7.1015c-3.9058 0-7.1015 0.4132-7.1015 0.91821 0 0.50502-0.23066 1.5175-0.51258 2.25-0.39783 1.0337 0.72146 1.2551 5 0.98924 3.5287-0.21927 5.5126 0.0506 5.5126 0.75 0 0.65764-2.1894 1.0926-5.5 1.0926-5.1334 0-5.5 0.15941-5.5 2.3913 0 2.2614 0.27179 2.3675 5 1.9533 2.75-0.24094 4.9993-0.0795 4.9985 0.35865-0.0008 0.4382-1.8696 0.92515-4.1528 1.0821-4.8817 0.33561-5.8458 0.80544-5.8458 2.849 0 1.0315 0.87932 1.4584 2.75 1.335 3.9622-0.26125 5.2499-0.0698 5.2507 0.7806 0.00036 0.4125-1.6767 0.75-3.7268 0.75-2.6762 0-3.8204 0.46882-4.0571 1.6624-0.27587 1.3911 0.31122 1.5764 3.5971 1.1357 2.3611-0.31669 4.2014-0.0824 4.6155 0.58758 0.46235 0.7481-0.62582 1.1143-3.3113 1.1143-4.7684 0-6.2149 1.4978-2.3564 2.44 6.5863 1.6082 9.7826 2.1893 10.388 1.8884 0.3575-0.17754 0.65-3.0307 0.65-6.3404zm-5.9709-25.37c0.29884-2.6165 0.0918-2.8363-2.25-2.3887-1.4185 0.27117-2.5791 0.10544-2.5791-0.36829s1.125-0.86133 2.5-0.86133c1.8333 0 2.5-0.53333 2.5-2 0-1.5712-0.69673-2.0193-3.25-2.0902l-3.25-0.0902 3.25-0.9384c3.2336-0.93367 3.2495-0.96976 3.1503-7.1598-0.13875-8.6597-1.0261-11.278-3.7222-10.983-1.198 0.13103-2.1781-0.17658-2.1781-0.68357 0-0.50698 1.2375-1.0642 2.75-1.2382 2.2914-0.26366 2.8022-0.85834 3.0634-3.5664 0.29191-3.0276 0.10371-3.25-2.75-3.25-1.6848 0-3.0634-0.45-3.0634-1s1.0984-1 2.441-1c3.2402 0 4.1237-1.6152 1.2978-2.3726-4.7078-1.2618-4.7388-1.1947-4.7388 10.279 0 10.772 0.0278 10.901 2.25 10.474l2.25-0.4325-2.25 1.1789c-1.2375 0.64842-2.25 2.0367-2.25 3.0851s0.45 1.6281 1 1.2882c0.55-0.33992 1-0.14148 1 0.44098s-0.45 1.059-1 1.059c-0.58399 0-1 3.3544-1 8.0634v8.0634l3.25-0.31336c2.7487-0.26503 3.3008-0.75784 3.5791-3.1951zm-5.0791-23.281c0.6875-0.27741 1.8125-0.27741 2.5 0s0.125 0.50439-1.25 0.50439-1.9375-0.22698-1.25-0.50439zm-0.24-9.349c0.33992-0.55 1.4915-1 2.559-1s1.941 0.45 1.941 1-1.1516 1-2.559 1c-1.4514 0-2.2915-0.43284-1.941-1zm8.9615 30.167c-0.14-19.86-0.57-28.17-1.44-28.17-0.61436 0-0.9769 6.4638-0.95735 17.069 0.0237 12.878 0.32792 16.97 1.2388 16.667 0.74253-0.24751 1.1925-2.3916 1.1689-5.5691zm-12.39-26.42c-0.11067-8.2836 0.19761-12.794 0.88003-12.875 0.57771-0.0687 1.5192-0.18125 2.0921-0.25 1.2642-0.1517 2.2262-33.573 1.0224-35.521-0.61376-0.99309-1.1957-0.75388-2.4206 0.99494-1.1845 1.6911-1.3019 2.4944-0.44234 3.0256 0.87287 0.53947 0.82071 1.1445-0.20525 2.3807-1.0899 1.3133-1.1267 2.0559-0.17722 3.5762 0.73 1.164 0.81 1.918 0.19 1.918-1.4857 0-1.2457 5.9942 0.24153 6.0304 0.69372 0.01688 0.47121 0.48401-0.5 1.0497-2.31 1.347-2.35 5.92-0.05 5.92 1.3222 0 1.4333 0.26667 0.5 1.2-0.66 0.66-1.2 2.2234-1.2 3.4743 0 1.539-1.017 2.8002-3.1456 3.901-2.0691 1.07-2.7374 1.879-1.9527 2.364 0.88367 0.54613 0.79179 1.0702-0.35438 2.0215-1.8276 1.5168-2.0704 5.0393-0.34733 5.0393 0.93333 0 0.93333 0.26667 0 1.2-1.4454 1.4454-1.619 5.177-0.2 4.3 0.55-0.33992 1-0.14148 1 0.44098s-0.45 1.059-1 1.059-1 1.3766-1 3.059c0 1.6825 0.41891 2.8001 0.9309 2.4837 0.512-0.31644 1.1844-0.16515 1.4943 0.33619 0.30984 0.50134-0.0741 1.1562-0.85328 1.4551-0.87982 0.33762-1.2071 1.345-0.86361 2.6584 0.43324 1.6567 1.2006 2.049 3.5423 1.8112l2.99-0.302-0.17-12.75zm3.2409-60.843c-0.44577-0.44745-0.59268 1.7528-0.32646 4.8895l0.48403 5.703 0.32646-4.8895c0.17955-2.6892-0.0383-5.2556-0.48403-5.703zm-0.62-11.094c-0.31922-0.79773-0.55618-0.56078-0.60416 0.60417-0.0434 1.0542 0.19292 1.6448 0.52522 1.3125 0.33229-0.33229 0.36781-1.1948 0.0789-1.9167zm0-4c-0.31922-0.79773-0.55618-0.56078-0.60416 0.60417-0.0434 1.0542 0.19292 1.6448 0.52522 1.3125 0.33229-0.33229 0.36781-1.1948 0.0789-1.9167zm28.236 751.09c1.6021-0.64038 2.7676-0.61897 3.45 0.0634 0.70731 0.70731-0.0515 1.0106-2.4195 0.96709-3.2417-0.0596-3.3039-0.12177-1.0305-1.0305zm-133.18-4.59c-2.8947-0.76-1.9716-2.31 1.3724-2.31 2.6621 0 2.9389 0.22113 1.8776 1.5-0.68469 0.825-1.3023 1.4478-1.3724 1.384-0.0702-0.0638-0.91506-0.3218-1.8776-0.57333zm130.75-1.31c0.33992-0.55 1.4649-1 2.5-1s2.1601 0.45 2.5 1c0.36155 0.585-0.67595 1-2.5 1s-2.8616-0.415-2.5-1zm-112-1c0.33992-0.55 1.9415-1 3.559-1s2.941 0.45 2.941 1-1.6016 1-3.559 1c-2.118 0-3.3088-0.40488-2.941-1zm33.5-0.17319c0-0.45475 1.35-0.82681 3-0.82681s3 0.17393 3 0.3865c0 0.21258-1.35 0.58464-3 0.82681s-3 0.0682-3-0.3865zm-13.901-6.58c0.0812-3.8715 0.24776-4.2876 0.90032-2.25 1.1573 3.6137 1.1573 7 0 7-0.55 0-0.95514-2.1375-0.90032-4.75zm-4.0997-0.69098c0-2.5075 0.45-4.559 1-4.559s1 1.7734 1 3.941c0 2.1675-0.45 4.2191-1 4.559-0.61081 0.3775-1-1.1563-1-3.941zm32.501 3.44c0.33992-0.55 1.2665-1 2.059-1 0.79254 0 1.441 0.45 1.441 1s-0.92656 1-2.059 1c-1.1325 0-1.7809-0.45-1.441-1zm-48-4c0.33992-0.55 1.6899-1 3-1s2.6601 0.45 3 1c0.36852 0.59628-0.84262 1-3 1s-3.3685-0.40372-3-1zm33.5 0.019c0-0.56043 1.425-1.019 3.1667-1.019 3.6413 0 3.5093 0.43653-0.41667 1.3784-1.6325 0.39164-2.75 0.24563-2.75-0.35933zm-44-2.019c0-0.55 1.0984-1 2.441-1 1.3425 0 2.7191 0.45 3.059 1 0.36058 0.58342-0.65628 1-2.441 1-1.6825 0-3.059-0.45-3.059-1zm57.5 0c0.33992-0.55 1.604-0.96837 2.809-0.92971 2.1124 0.0678 2.1192 0.10112 0.19098 0.92971-2.7525 1.1828-3.731 1.1828-3 0zm-14.628-6.3128c1.5028-1.8474 5.645-2.277 6.6276-0.68723 0.34849 0.56387-0.46235 1-1.8592 1-1.3625 0-3.3015 0.30925-4.309 0.68723-1.6125 0.60496-1.6675 0.48525-0.45935-1zm-33.181-3.8834c-1.7521-1.0742 1.8846-2.127 4.8106-1.3926 1.3738 0.34479 2.4978 1.0037 2.4978 1.4643 0 0.98925-5.6686 0.93361-7.3084-0.0717zm38.327-266.31l-0.0126-5 6.2356-0.32163c3.4296-0.17689 5.8903 0.0236 5.4683 0.44562-0.42198 0.42198-1.5417 0.87808-2.4883 1.0136-6.5922 0.94356-8.2212 1.5692-8.2224 3.1578-0.001 1.4288 0.92946 1.6768 5.75 1.5321l5.7514-0.17257-5.5 1.0856c-3.025 0.5971-5.8306 1.5748-6.2347 2.1726-0.40408 0.5978-0.74034-1.1631-0.74726-3.9131z"/>
</svg>
