<?xml version="1.0" encoding="UTF-8" standalone="no"?>
<!-- Created with Inkscape (http://www.inkscape.org/) -->
<svg id="svg3789" xmlns:rdf="http://www.w3.org/1999/02/22-rdf-syntax-ns#" xmlns="http://www.w3.org/2000/svg" height="497.15" viewBox="0 0 429.41891 497.15009" width="429.42" version="1.1" xmlns:cc="http://creativecommons.org/ns#" xmlns:dc="http://purl.org/dc/elements/1.1/">
 <metadata id="metadata3795">
  <rdf:RDF>
   <cc:Work rdf:about="">
    <dc:format>image/svg+xml</dc:format>
    <dc:type rdf:resource="http://purl.org/dc/dcmitype/StillImage"/>
    <dc:title/>
   </cc:Work>
  </rdf:RDF>
 </metadata>
 <path id="path3799" d="m272.91 496.31c-2.7522-1.0943-8.4882-8.8545-8.4882-11.484 0-2.6016-5.9601-8.1913-10-9.3786-1.7188-0.50514-3.7465-1.4132-4.5062-2.018-2.7424-2.1833-13.165-7.3444-14.831-7.3444-0.93788 0-4.2984-1.1116-7.4679-2.4702-6.5621-2.8128-19.548-3.7783-48.792-3.6278-12.472 0.0642-20.192 0.65866-23.125 1.7805-10.735 4.1066-54.063 4.2746-62.024 0.24048-1.9958-1.0114-5.8786-2.2429-8.6286-2.7367s-5.9489-1.7491-7.1087-2.7895-2.6678-1.5462-3.3511-1.1238c-0.68332 0.42231-1.5957 0.19616-2.0275-0.50255-0.43182-0.69871-1.877-1.2704-3.2114-1.2704s-2.4262-0.5431-2.4262-1.2069-1.5469-2.8386-3.4375-4.833c-8.7712-9.2523-10.326-12.462-10.285-21.229 0.0393-8.3723 4.0576-16.275 16.964-33.362 1.5602-2.0656 3.4385-5.3382 4.174-7.2726 1.4576-3.8337 2.2874-2.6237-25.284-36.87-5.3591-6.6563-10.899-13.93-12.311-16.165-1.8814-2.9773-3.4861-4.0625-6.0072-4.0625-7.2205 0-11.122-2.4835-15.674-9.9774-5.2536-8.6484-7.5983-14.938-8.6643-23.242-0.4346-3.3854-2.2135-14.572-3.9532-24.86-3.5952-21.261-3.2998-30.041 1.4342-42.631 2.9377-7.8126 4.5687-15.439 7.4671-34.914 0.92084-6.1875 2.2949-14.625 3.0535-18.75 0.75858-4.125 1.9377-10.875 2.6203-15s3.1582-16.5 5.5013-27.5 4.8196-23.375 5.5034-27.5c4.7594-28.712 6.9913-40.407 10.242-53.665 8.1788-33.357 9.0298-35.12 16.388-33.943 2.744 0.43878 10.818 0.4209 17.943-0.0397l12.954-0.8375 0.37362-5.4577 0.37364-5.4577 33.75-0.69789c40.995-0.84771 45.628-1.017 84.618-3.093 25.105-1.3366 35.957-1.3503 58.125-0.0734 14.991 0.86355 30.069 1.2098 33.507 0.76944 10.259-1.3142 45.78 3.2588 56.576 7.2837 10.96 4.0862 21.31 12.951 26.147 22.395 6.1845 12.076 11.687 25.299 11.13 26.749-0.32695 0.852-0.0403 3.4094 0.63722 5.6832 0.67741 2.2738 1.2262 11.363 1.2196 20.197-0.009 12.176 0.41486 16.49 1.7523 17.827 0.97037 0.97037 2.056 4.1482 2.4125 7.0619 3.4618 28.292 4.483 35.043 6.2846 41.548 1.1426 4.125 2.4307 8.3438 2.8624 9.375s0.95576 4.4848 1.1646 7.6745c0.32091 4.9016-0.003 5.8995-2.0907 6.4455-1.7282 0.45194-2.4718 1.7138-2.475 4.2005-0.002 1.955-1.1276 5.3962-2.5 7.6472-3.1504 5.1671-3.1367 5.2823 0.62968 5.2823 1.7188 0 3.125-0.71859 3.125-1.5969 0-2.8064 3.7499-7.0747 5.5939-6.3671 0.97651 0.37473 2.4345 3.8668 3.24 7.7601 0.80548 3.8934 3.1353 12.985 5.1773 20.204 2.042 7.2188 4.5038 16.377 5.4705 20.352 0.96671 3.9748 2.885 9.4367 4.263 12.138 1.3779 2.701 2.5053 6.225 2.5053 7.8312 0 5.2533-18.761 24.607-29.229 30.152-1.456 0.77127-7.7095 4.7219-13.897 8.7792-15.146 9.9323-17.176 11.203-28.747 18-9.3385 5.4858-10.071 6.223-11.115 11.185-0.61471 2.9219-1.6002 5.3125-2.19 5.3125-0.58983 0-1.0724 0.79375-1.0724 1.7639 0 1.7749-2.9814 4.487-12.431 11.308l-5.122 3.6974 3.6808 2.8807c4.24 3.3183 5.9345 8.9969 3.848 12.896-1.2059 2.2532-1.0368 2.9757 1.0358 4.4274 3.2085 2.2473 8.4221 11.316 9.3691 16.298 0.91279 4.8014-2.1343 8.4866-9.833 11.892-8.6159 3.8112-18.251 4.1982-33.047 1.3273-18.92-3.671-22.761-3.9327-27.598-1.8803l-4.277 1.8147 2.934 2.3988c1.6137 1.3193 5.2699 3.0294 8.125 3.8002 2.8551 0.77077 6.4074 1.9706 7.894 2.6664 2.9462 1.3788 14.87 0.64164 24.797-1.533 3.4375-0.75304 7.8186-1.6922 9.7357-2.0872 4.4965-0.92619 14.51 1.776 17.918 4.835 10.31 9.2551 7.391 25.599-4.9862 27.921-4.015 0.75322-4.3464 1.1045-3.1502 3.3395 1.5518 2.8996 0.49153 10.183-1.7377 11.936-2.3571 1.8544-8.1682 2.9414-8.9513 1.6743-0.38507-0.62305 0.94312-1.7057 2.9516-2.4058 5.3026-1.8485 6.8274-5.3971 4.6049-10.716-0.98883-2.3666-2.9079-4.897-4.2646-5.6231-1.3567-0.72608-8.1674-1.5077-15.135-1.7369-9.6823-0.31851-13.153-0.90122-14.724-2.4722-1.9074-1.9073-1.0718-2.0054 11.592-1.3602 7.5059 0.3824 16.421 1.4812 19.812 2.4418 8.4668 2.3988 10.351 2.2196 13.892-1.3217 4.4548-4.4548 4.1871-11.255-0.6754-17.154-5.104-6.192-11.418-6.9991-28.131-3.5964-16.172 3.2924-18.924 3.2257-30.415-0.73744-14.956-5.1582-18.171-8.6267-12.639-13.633 3.8452-3.4798 15.53-3.7183 32.335-0.65998 18.923 3.4437 23.203 3.3295 31.432-0.83849 6.1063-3.0929 6.8172-3.8761 7.0912-7.8125 0.21605-3.1035-0.70813-5.8282-3.18-9.375-5.6438-8.0984-12.309-9.0722-29.305-4.2818-4.5367 1.2787-6.2748 1.3269-7.3965 0.20508-1.6569-1.6569-2.2944-1.3812 10.407-4.5017 4.5816-1.1256 10.103-2.0466 12.27-2.0466 8.6276 0 11.819-6.1744 5.6849-10.999-3.6734-2.8895-8.6784-2.6028-15.375 0.88067-2.5627 1.333-7.1906 3.3866-10.284 4.5637-3.0938 1.1771-8.5935 3.471-12.222 5.0975-3.6282 1.6266-6.8687 2.9574-7.2011 2.9574-0.33245 0-2.989 1.0783-5.9033 2.3962-25.411 11.491-50.472 20.291-72.174 25.344-3.0938 0.72029-9.0852 2.8692-13.314 4.7754-4.2291 1.9062-10.698 3.8426-14.375 4.3031-3.6771 0.46049-9.3921 1.7695-12.7 2.9088l-6.0144 2.0716 0.60653 6.1217c0.6676 6.738 0.0289 9.5831-2.149 9.5716-0.88499-0.005-1.4671-2.62-1.5296-6.8717-0.0555-3.7753-0.35486-7.1182-0.66533-7.4286-0.77333-0.77333-11.45 1.8961-12.921 3.2306-0.65313 0.59251-2.4533 1.0773-4.0004 1.0773s-3.2627 0.73297-3.8125 1.6288c-1.3866 2.2594-11.485 5.8712-16.416 5.8712-4.5384 0-10.269-2.5874-15.617-7.0509-5.4565-4.5542-6.1081-3.861-5.652 6.0128 0.29263 6.3343-0.041 9.1136-1.1378 9.4792-1.4796 0.49319-1.9462-3.5008-2.1262-18.2-0.04-3.2648-1.5876-5.8065-7.3605-12.089l-7.3099-7.9549-5.4324 7.7138c-8.4192 11.955-14.1 22.407-15.464 28.45-1.0777 4.7763-0.84992 6.3505 1.7021 11.764 3.6052 7.6478 9.9991 14.588 16.463 17.871 5.3586 2.7211 15.674 6.42 20.388 7.3108 1.6706 0.31568 3.3881 0.7907 3.8168 1.0556 0.42865 0.26492 7.4993 0.84642 15.713 1.2922 12.09 0.65623 18.384 0.28798 33.058-1.934 21.343-3.2318 46.53-3.772 67.5-1.4477 12.658 1.403 15.719 2.2414 25.625 7.0199 6.1875 2.9846 12.656 6.0798 14.375 6.8782 8.1863 3.8024 9.9541 5.3387 11.157 9.6956 1.5497 5.6125 7.1462 11.634 10.813 11.634 1.514 0 4.0188-1.0253 5.5663-2.2784 2.4896-2.016 2.71-2.9698 1.9134-8.282-0.57083-3.8066-2.0072-7.1105-3.9252-9.0285-3.6769-3.6769-3.7912-4.9193-0.5309-5.7718 1.9876-0.51977 2.9685 0.42063 4.8313 4.6317 2.6559 6.004 8.3865 9.4789 15.632 9.4789 9.5241 0 8.4262-9.4754-1.9627-16.939-4.7671-3.4248-5.9377-4.868-4.8393-5.9663 1.0027-1.0027 1.7214-1.0417 2.3342-0.12669 1.4462 2.1594 12.031 8.9394 13.385 8.574 0.6875-0.18549 3.3494-0.68819 5.9154-1.1171 3.9259-0.65623 4.8376-1.4155 5.7518-4.7899 0.75456-2.7851 0.57311-5.0358-0.59398-7.3682-2.1952-4.3871-2.7815-4.6858-12.001-6.1157-10.495-1.6276-14.697-3.4296-14.697-6.3027 0-2.9217 0.25606-2.916 5.2416 0.11587 2.2286 1.3553 6.6016 2.7922 9.7177 3.1932 10.047 1.2929 11.328 1.843 13.825 5.9386 2.9505 4.839 3.1362 9.7318 0.5588 14.716-1.7618 3.4069-2.4319 3.6879-8.794 3.6879-6.4215 0-6.7994 0.16338-5.5929 2.4178 0.71168 1.3298 1.294 4.1293 1.294 6.2212 0 7.1197-7.1276 9.1138-19.87 5.5594-2.7453-0.76581-2.9387-0.53975-2.3176 2.7093 1.3252 6.9326-7.9185 12.611-15.574 9.567zm-139.23-89.05c12.166-5.4342 12.507-5.5979 20.115-9.6347 7.1803-3.8103 19.117-8.5098 35.741-14.071 7.9702-2.6664 18.939-6.8012 24.375-9.1884s13.259-5.5683 17.384-7.0692 10.875-4.2866 15-6.1904c24.026-11.089 35.675-16.269 36.583-16.269 1.0824 0 25.285-12.233 35.917-18.154 67.726-37.716 96.282-57.432 105.76-73.024l2.3548-3.8721-3.8574-6.835c-3.2871-5.8244-4.1956-6.6539-6.1451-5.6106-1.2582 0.67339-2.6457 2.8544-3.0833 4.8467-1.3337 6.0721-12.636 15.148-18.863 15.148-3.5051 0-4.0592 0.53676-5.4843 5.3125-2.032 6.8096-8.8548 13.322-19.392 18.509-8.5579 4.213-11.333 4.6382-20.669 3.1667l-5.625-0.88655-2.37 5.3866c-1.3035 2.9626-3.5535 6.714-5 8.3364-2.7748 3.1123-15.052 11.425-16.874 11.425-0.5886 0-4.0933 1.3265-7.7882 2.9478-10.852 4.7619-24.869 5.3216-35.085 1.401-1.3601-0.52193-2.1424 0.28342-2.6908 2.7702-1.9614 8.8948-18.644 19.767-32.1 20.918-4.4869 0.38411-9.9374 0.18806-12.112-0.43568-2.1748-0.62374-6.127-0.84263-8.7826-0.48645-3.841 0.51519-5.1613 1.3999-6.4568 4.3265-3.1165 7.0406-11.811 14.991-16.99 15.537-0.6875 0.0725-2.847 0.78706-4.7988 1.588-1.9518 0.80096-5.0456 1.409-6.875 1.3511s-5.5762 0.5064-8.3262 1.2539c-2.75 0.74746-11.136 1.2502-18.635 1.1171l-13.635-0.24191-5.8046 12.414c-3.1925 6.8278-6.5839 14.383-7.5364 16.789-3.098 7.8262-5.1196 9.9344-11.281 11.764-4.4323 1.3162-7.2376 1.4579-10.798 0.54513-2.6458-0.67818-6.0844-1.5423-7.6415-1.9204-1.557-0.378-3.1371-1.1826-3.5113-1.788-0.37417-0.60541-1.841-1.1008-3.2596-1.1008-3.4754 0-1.6762 2.1076 8.0238 9.3992 9.8968 7.4396 14.551 7.5204 30.213 0.5244zm-19.729-10.028c0.0859-0.63022 0.26221-1.849 0.39174-2.7083 0.12951-0.85938 0.7442-0.29688 1.366 1.25 1.4544 3.6184 5.7716 3.6611 9.568 0.0946 3.3402-3.1379 3.6902-4.7821 1.0181-4.7821-2.4235 0-2.3872-1.2249 0.09-3.0362 2.3919-1.749 1.2326-8.403-1.2951-7.433-1.1445 0.43919-1.4168-0.34876-0.9551-2.764 0.60371-3.1582 0.42011-3.3216-2.8176-2.509-2.7103 0.68023-3.3143 0.48086-2.778-0.91693 0.91004-2.3716-1.4538-4.5908-4.8901-4.5908-1.885 0-3.1722 1.0989-4.0263 3.4375l-1.2555 3.4375-0.0986-4.1962c-0.0729-3.1002-0.56523-4.0172-1.8849-3.5108-0.98242 0.37698-3.7081 1.046-6.057 1.4866-3.7829 0.70968-4.2102 1.1821-3.7409 4.1358 0.42265 2.66 0.25235 2.9552-0.84177 1.4596-1.1943-1.6326-1.6109-1.5614-3.2229 0.55141-2.6987 3.5372-2.3385 7.8755 0.73503 8.851 2.4624 0.78154 2.4781 0.89992 0.32908 2.4713-2.1664 1.5841-2.1585 1.7596 0.19752 4.3629 1.8101 2.0002 3.3648 2.5304 5.9209 2.0192 2.5186-0.50373 3.4662-0.19569 3.4662 1.1267 0 1.001 1.5469 2.1611 3.4375 2.5781 1.8906 0.41699 4 0.91319 4.6875 1.1027 1.459 0.40213 2.4361-0.30321 2.6562-1.9174zm-9.2188-9.2594c-6.8821-2.9912-4.7533-9.3864 3.1246-9.3864 4.9689 0 11.922 3.2972 11.244 5.3319-0.51901 1.557-7.0266 5.709-9.056 5.7778-0.6875 0.0234-3.0781-0.75215-5.3125-1.7233zm8.8898-5.6841c-0.62531-0.62531-3.2398-0.79569-5.8099-0.37861-3.6644 0.59466-4.3803 1.111-3.3169 2.3922 0.74583 0.89866 2.5808 1.8126 4.0778 2.0311 3.2006 0.46706 6.732-2.3618 5.0491-4.0447zm58.298 13.791c6.5312-1.5593 13.328-3.5784 15.105-4.4868 1.7762-0.90844 12.745-4.2446 24.375-7.4137 20.422-5.5649 35.703-10.746 46.145-15.646 5.7786-2.7114 33.306-14.126 42.5-17.623 16.855-6.4109 37.684-20.61 41.247-28.119 1.1504-2.4242 1.8432-4.6561 1.5396-4.9597-0.64895-0.64896-31.915 15.218-34.662 17.59-1.0312 0.89061-3.2812 2.0336-5 2.54-1.7188 0.50639-3.9688 1.6535-5 2.5491-1.0312 0.89561-4.889 2.8136-8.5727 4.2622s-12.965 5.6686-20.625 9.3778c-15.803 7.6523-17.988 8.6003-39.55 17.161-8.5924 3.4113-17.592 7.0636-20 8.1163-6.9049 3.0191-9.1987 3.9049-11.877 4.5869-1.375 0.35008-7.2812 2.3946-13.125 4.5434s-14.12 5.0235-18.392 6.3882c-4.2717 1.3647-8.1608 3.119-8.6426 3.8984-0.54446 0.88096-0.20707 1.1623 0.89175 0.74369 0.97215-0.37038 7.1113-1.9492 13.643-3.5085zm-84.013-11.56c0.0986-3.6094 1.0123-9.3193 2.0303-12.689 1.6517-5.4668 1.642-6.5304-0.0902-9.8802-3.2898-6.3618-8.8711-13.515-19.845-25.434l-10.533-11.44-4.6642 2.378c-2.5653 1.3079-7.0766 2.378-10.025 2.378-5.6017 0-6.6479 1.1256-3.4857 3.75 1.0312 0.85586 1.875 2.1249 1.875 2.8201 0 0.69519 1.3214 2.4544 2.9365 3.9094s7.9731 9.1142 14.129 17.02c11.027 14.163 12.451 16.027 21.241 27.812 2.4356 3.2656 4.8386 5.9375 5.3402 5.9375 0.50153 0 0.99258-2.9531 1.0912-6.5625zm50.14-13.789c4.7482-10.583 11.748-33.118 10.941-35.222-0.94749-2.4691-22.304-8.3553-36.066-9.9402-4.5219-0.52078-4.6677-0.40467-6.659 5.3028-1.1197 3.2094-3.1258 8.6788-4.458 12.154-3.3356 8.7023-7.4632 23.394-6.7678 24.09 1.2358 1.2358 4.2373-2.6704 6.8274-8.8856 11.567-27.756 11.829-28.291 13.188-26.932 0.37085 0.37085-1.0546 4.5277-3.1677 9.2374-6.8773 15.328-10.142 24.248-9.3472 25.535 1.174 1.8996 4.3823 1.5152 4.3823-0.52499 0-0.98273 2.4606-7.0882 5.4679-13.568 3.0074-6.4795 6.1447-13.832 6.9719-16.338 1.4891-4.5121 3.8102-6.2067 3.8102-2.7818 0 0.9765-1.936 5.6171-4.3021 10.312-7.1386 14.166-9.8227 21.908-7.9883 23.042 1.8266 1.1289 4.7904-0.92189 4.7904-3.3146 0-0.89593 2.1913-6.1604 4.8696-11.699 2.6783-5.5384 5.4615-11.768 6.185-13.843 0.72344-2.0753 1.9071-3.7732 2.6304-3.7732 1.9907 0 1.5877 1.8162-1.185 5.3411-1.375 1.748-2.5004 3.9333-2.501 4.8561-0.00054 0.92282-1.6473 5.1578-3.6594 9.411-4.5519 9.6218-5.3914 15.756-2.2432 16.39 2.4719 0.4983 7.0918-8.6032 12.086-23.811 1.5241-4.6406 3.3479-8.4375 4.0529-8.4375 0.73642 0 0.89205 0.93076 0.36577 2.1875-0.50382 1.2031-2.8408 7.7589-5.1932 14.568-2.3525 6.8095-4.8109 13.378-5.4632 14.597-1.1879 2.2196-0.43296 6.1472 1.1815 6.1472 0.47246 0 1.7714-2.9531 2.8865-6.5625 2.8444-9.2066 13.583-31.026 14.877-30.226 0.59015 0.36473-1.3822 5.557-4.3829 11.538-6.0778 12.115-9.266 20.751-10.118 27.407-1.26 9.8411 1.8632 7.3945 7.9888-6.2582zm-42.062-18.73c1.2066-3.6002 3.9238-11.75 6.0382-18.11 3.346-10.064 4.2754-11.672 7.1668-12.398 1.8272-0.45861 4.354-2.1454 5.615-3.7485 1.4466-1.8391 3.612-2.9147 5.8677-2.9147 4.0684 0 6.5703-4.4826 3.5648-6.3869-2.4691-1.5645-2.6769-1.4946-8.6962 2.9275-5.0756 3.7288-12.227 7.8672-25.841 14.955-6.4502 3.3579-9.5141 10.455-6.5525 15.178 0.93158 1.4857 3.3013 5.9356 5.266 9.8887s3.9784 7.18 4.4749 7.1708c0.49648-0.009 1.8899-2.9623 3.0964-6.5625zm85.931 3.8868c15.984-2.1729 27.009-8.8689 30.119-18.294 1.6198-4.9081 0.61993-15.209-1.9607-20.2-0.937-1.812-2.8605-6.5858-4.2744-10.609-1.4139-4.0228-3.3432-8.2179-4.2874-9.3226-0.94416-1.1046-2.069-3.0012-2.4996-4.2147-1.4336-4.0398-6.9626-5.1138-14.597-2.8357-3.7812 1.1283-8 2.5639-9.375 3.1901s-5.82 2.225-9.8777 3.5529-7.9197 3.383-8.5823 4.5669c-1.5027 2.6852-0.56391 10.155 1.9786 15.742 1.061 2.3318 2.6212 7.4752 3.4672 11.43 1.9885 9.2956 0.58102 12.509-7.0494 16.096-5.4961 2.5835-9.0054 7.3001-7.3838 9.924 2.1638 3.5011 13.383 3.819 34.322 0.97252zm-23.001-17.946c1.3042-1.9904 1.507-3.6657 0.69876-5.7707-0.62639-1.6313-1.8392-5.7785-2.6951-9.216-0.85591-3.4375-2.5897-10.061-3.8528-14.719-2.3944-8.8303-2.1381-12.156 0.93689-12.156 1.0004 0 9.6839-2.5705 19.297-5.7122 17.044-5.5703 23.47-6.3101 25.551-2.9417 1.5178 2.4559 3.0656 0.97008 3.0656-2.943 0-3.8393 0.49117-4.3048 7.8125-7.4049 4.2969-1.8194 9.2188-3.7082 10.938-4.1974 1.7188-0.48914 7.8363-2.7819 13.595-5.0951 12.197-4.8998 14.194-5.0637 20.78-1.7058 5.9652 3.0412 5.625 3.0403 5.625 0.0156 0-2.1667 8.1199-8.7656 10.786-8.7656 1.7182 0 16.714-8.1044 16.714-9.0329 0-1.3296-0.95181-1.2153-4.1447 0.49796-4.3183 2.3171-17.106 4.5589-24.44 4.2843-6.0394-0.22614-6.9676 0.0983-9.2976 3.2497-1.4236 1.9255-3.5609 3.5009-4.7496 3.5009s-4.5986 1.0334-7.5774 2.2964c-2.9789 1.263-11.016 3.8746-17.859 5.8035-11.714 3.3016-12.908 3.4148-20.373 1.9309-4.3614-0.86691-8.1147-1.3691-8.3406-1.116-0.22592 0.25311-1.5539 2.7285-2.9511 5.5009-2.949 5.8515-4.1842 6.5784-20.892 12.294-19.63 6.7156-18.741 6.1796-20.282 12.231-0.76089 2.9888-2.3116 8.7438-3.4461 12.789-1.4604 5.2074-1.6736 7.7439-0.72999 8.6875 0.73298 0.73298 1.3327 2.4014 1.3327 3.7077 0 1.3062 1.9953 4.3703 4.4339 6.8089 3.6323 3.6323 4.2961 5.0612 3.6719 7.9034-0.67489 3.0727-0.45799 3.39 1.8966 2.7742 1.4622-0.38239 3.4856-1.9573 4.4963-3.4999zm-78.137-9.3617c0.47448-1.7316 9.8646-7.468 23.687-14.47 5.444-2.7579 12.85-9.3346 8.7017-7.7271-11.893 4.6085-15.543 5.9332-22.734 8.252-11.684 3.7674-18.082 3.5788-22.51-0.66351-3.1501-3.018-3.5078-3.1131-3.5243-0.9375-0.01 1.3318-0.74394 3.8276-1.6307 5.5464-1.526 2.9578-1.1405 3.6482 7.2059 12.906l8.8182 9.7805 0.73624-5.4055c0.40493-2.973 0.96743-6.2493 1.25-7.2805zm175.22 0.14457c15.947-7.9298 19.712-16.517 13.22-30.147-1.9551-4.1048-3.5548-8.0705-3.5548-8.8126 0-0.74206-1.8948-5.4503-4.2107-10.463-3.5042-7.5843-4.8988-9.3534-8.3115-10.543-4.9545-1.7272-9.2606-1.8267-12.182-0.28169-5.7788 3.056-14.261 6.3521-16.346 6.3521-1.2801 0-4.9722 1.4062-8.2048 3.125-3.2325 1.7188-6.601 3.125-7.4855 3.125-0.88451 0-2.261 1.4327-3.0588 3.1838-2.7841 6.1104-1.7103 12.678 4.2819 26.191 1.2195 2.75 3.3816 8.375 4.8048 12.5 2.2613 6.5542 3.1393 7.6885 6.9626 8.995 2.4776 0.84662 9.0709 1.3398 15.203 1.1372 9.2562-0.30584 11.997-0.93905 18.881-4.3626zm-118.99-5.1446c0.6371 0 1.1584 0.84375 1.1584 1.875 0 1.0417 1.1111 1.875 2.5 1.875 3.4784 0 3.121-1.7552-1.0767-5.2873-2.9495-2.4818-5.1133-3.0508-12.34-3.245-6.5023-0.17466-9.1663 0.2506-10.326 1.6484-1.2837 1.5468-1.2006 1.8838 0.46461 1.8838 1.1154 0 2.028-0.5625 2.028-1.25s0.5625-1.25 1.25-1.25 1.25 0.78358 1.25 1.7413c0 2.8265 4.1076 3.6703 5.9045 1.2129 1.4994-2.0505 1.5955-2.0522 1.5955-0.0277 0 2.7445 5.4428 5.0417 6.0292 2.5447 0.22229-0.94656 0.92541-1.721 1.5625-1.721zm-79.95-2.4981c5.3991-5.6756 5.91-8.6722 3.4528-20.253-1.374-6.4757-6.0887-17.261-9.1799-20.999-2.0241-2.4479-4.3374-14.061-5.6021-28.125-0.95118-10.577-0.83209-11.559 1.9911-16.408 2.487-4.272 4.0178-5.4262 8.9121-6.7197 3.2501-0.85897 13.925-4.603 23.721-8.32 21.439-8.1344 28.511-10.321 49.688-15.359 22.102-5.2588 41.802-10.395 70-18.249 13.062-3.6386 26.562-6.9985 30-7.4665 8.9212-1.2146 24.478-6.0497 44.845-13.938 9.7102-3.7607 22.436-8.5543 28.28-10.652 22.733-8.1618 45.661-21.704 64.227-37.936 7.9605-6.9596 11.304-10.942 14.772-17.599 10.189-19.556 9.0124-36.674-4.322-62.879-5.0486-9.9217-11.722-17.162-19.003-20.617-2.3746-1.1268-4.6558-2.5962-5.0693-3.2653-0.41352-0.6691-2.1619-1.2166-3.8853-1.2166s-4.177-0.5585-5.4524-1.2411c-2.7252-1.4585-7.9451-2.3625-18.921-3.2768-4.3839-0.36518-10.502-0.88001-13.596-1.144-5.4786-0.46757-17.319-0.63978-31.25-0.4545-3.7812 0.0503-13.625-0.38108-21.875-0.95858-16.552-1.1586-42.955-1.1048-59.375 0.121-11.098 0.82848-27.011 1.4714-63.75 2.5754-30.727 0.92335-45.46 1.8323-46.449 2.8655-0.46758 0.48844-1.036 3.9311-1.2631 7.6504-0.40165 6.5778-0.31057 6.7914 3.3371 7.8273 3.6989 1.0504 28.75-0.3205 48.75-2.6678 5.5-0.64553 16.469-1.4682 24.375-1.8282 7.9062-0.35997 18.031-1.2234 22.5-1.9187 4.4688-0.6953 18.531-1.2965 31.25-1.336s43.375-0.18816 68.125-0.33041c38.952-0.22388 45.504 0.007 48.75 1.718 2.0625 1.0871 6.9987 3.6064 10.969 5.5984 10.069 5.0512 14.214 9.8119 17.997 20.669 2.8264 8.1121 3.2175 11.205 3.1656 25.04-0.0536 14.335-0.34882 16.356-3.2156 22.013-4.5819 9.042-14.245 18.996-26.069 26.853-9.5985 6.3787-19.755 10.84-43.472 19.095-5.1562 1.7946-11.062 4.0117-13.125 4.9269-2.0625 0.91515-8.25 2.6358-13.75 3.8238-5.5 1.1879-10.851 2.5804-11.89 3.0944-1.0395 0.51398-5.2583 1.9103-9.375 3.1028-4.1167 1.1926-8.0474 2.607-8.735 3.1431-1.4639 1.1416-8.3576 2.5985-13.867 2.9307-2.1268 0.12824-4.6581 0.85892-5.625 1.6237-0.96689 0.76482-4.8517 2.2818-8.633 3.371-6.7807 1.9532-10.189 2.6141-21.25 4.1205-3.0938 0.42133-6.2794 1.2955-7.0791 1.9426-0.79979 0.64711-3.0217 1.4608-4.9375 1.8082-1.9159 0.34741-7.449 1.5106-12.296 2.585-4.8469 1.0743-11.062 2.3736-13.812 2.8874-6.2359 1.1649-9.2296 2.3552-12.798 5.0884-1.5388 1.1787-5.4296 2.5378-8.6461 3.0201-3.2166 0.48235-7.02 1.6407-8.4522 2.5742-2.6065 1.6989-7.3121 3.0751-21.354 6.2451-14.503 3.2742-22.216 6.0158-25.402 9.0295-0.90847 0.85937-2.6177 1.5625-3.7982 1.5625-6.3026 0-20.546 10.517-22.842 16.866-1.709 4.726-3.5829 5.8117-3.5829 2.0757 0-7.438 10.844-17.54 24.164-22.512 4.0091-1.4964 9.0716-3.6445 11.25-4.7735 4.3096-2.2336 7.2792-3.0708 23.336-6.579 5.8438-1.2768 13.274-3.4742 16.512-4.8832 3.2377-1.4089 7.9643-2.9514 10.503-3.4278 2.5391-0.47635 9.4241-2.8046 15.3-5.1739 5.8758-2.3693 14.931-5.1303 20.122-6.1356 23.8-4.6088 41.31-8.7908 51.22-12.233 5.1048-1.7731 10.599-3.2239 12.209-3.2239 1.6101 0 7.8397-1.6348 13.844-3.6328 14.396-4.7909 27.011-8.4919 34.481-10.116 3.3358-0.72533 7.5546-2.0827 9.375-3.0165 1.8204-0.93372 5.8411-2.5689 8.9349-3.6337 29.132-10.027 39.994-15.471 52.997-26.566 7.2126-6.1541 10.195-9.7576 13.308-16.082 3.5917-7.2958 3.8804-8.6705 2.753-13.112-0.79885-3.1472-0.84266-7.1565-0.11975-10.964 1.7827-9.3893-1.9061-24.617-7.7686-32.07-2.3672-3.0094-15.251-10.807-17.856-10.807-0.68315 0-2.1384-0.81114-3.2339-1.8025-2.6919-2.4361-24.95-4.5572-40.705-3.8789-6.875 0.29594-34.008 0.88859-60.295 1.317-26.287 0.4284-49.631 1.3165-51.875 1.9736-2.244 0.65706-11.955 1.7224-21.58 2.3674-9.625 0.64502-22 1.8046-27.5 2.5769-15.548 2.183-39.061 2.4503-43.735 0.49709-4.2332-1.7688-7.3205-4.7031-6.1644-5.8591 1.4404-1.4404-6.7278-2.1452-18.724-1.6155-6.8055 0.30051-12.773 0.99698-13.261 1.5477-2.4392 2.752-14.331 43.093-13.595 46.119 0.44639 1.8357-2.0866 14.978-13.468 69.882-2.6218 12.647-2.5771 12.418-5.4818 28.125-1.4621 7.9062-3.4069 19.719-4.3218 26.25-2.9116 20.785-4.393 28.744-6.2345 33.495-3.7088 9.5683-5.3922 20.6-4.3304 28.38 2.2906 16.783 6.2471 42.179 7.304 46.883 0.61943 2.757 3.2944 8.6724 5.9443 13.145 5.6603 9.5544 8.8215 10.993 25.473 11.589l10.253 0.367 4.8583-5.1071zm-23.892-10.362c-5.7472-2.893-4.3956-12.553 1.9803-14.153 2.3113-0.58008 3.9775-0.0229 6.2139 2.0781 3.729 3.5032 3.8157 5.3568 0.47069 10.055-2.8708 4.0316-4.1002 4.3183-8.6649 2.0206zm7.0132-7.6593c-0.4923-1.9615-1.6855-3.2308-3.0371-3.2308-5.2719 0-7.1738 6.8288-2.4137 8.6662 3.8571 1.4888 6.5217-1.1683 5.4508-5.4354zm-30.14-59.483c-0.71204-1.1521 4.1498-3.7477 7.0199-3.7477 0.67689 0 2.7496-0.77249 4.6061-1.7166 6.7126-3.4138 9.0004-3.6697 9.0004-1.0067 0 1.7991-1.142 2.6594-4.3222 3.256-2.3772 0.44596-5.8928 1.6301-7.8125 2.6314-4.0738 2.1249-7.398 2.3534-8.4918 0.58362zm132.36 63.149c2.9648-11.803 2.8799-12.159-2.6691-11.198-5.4974 0.95215-7.6935 3.5233-10.478 12.268l-2.0409 6.4084 5.1659 1.3662c2.9785 0.78774 5.7667 0.90566 6.5849 0.27848 0.7805-0.59826 2.3274-4.7037 3.4375-9.1231zm-47.139 2.805c16.278-4.9306 21.829-8.1781 25.113-14.691 1.5568-3.0877 2.4729-6.4627 2.0357-7.5-3.0203-7.1668-5.3073-14.483-7.2322-23.136-3.0445-13.686-2.7115-13.024-7.5763-15.056-5.8214-2.4324-10.135-2.2926-19.614 0.63552-14.263 4.406-32.319 20.236-32.319 28.334 0 2.0106 0.81884 4.8247 1.8196 6.2535s2.7991 6.1946 3.9962 10.591c1.1971 4.396 3.3314 9.1623 4.7428 10.592 1.4114 1.4295 3.5894 3.8718 4.8398 5.4273 1.9344 2.4062 3.1467 2.74 8.125 2.2366 3.2183-0.32536 10.449-1.9843 16.069-3.6865zm219.68-2.321c10.318-4.3311 19.596-11.576 22.84-17.836 2.7908-5.3846 4.2221-12.308 2.8791-13.926-0.61275-0.73833-3.1296-6.1013-5.5929-11.918-2.4633-5.8164-5.4458-11.419-6.6276-12.45-1.1818-1.0312-2.1488-2.9976-2.1488-4.3696 0-1.7652-1.3373-2.9326-4.574-3.9931-5.368-1.7586-9.7813-0.80146-21.664 4.6986-4.3539 2.0152-8.7407 3.6641-9.7485 3.6641s-2.4871 0.78899-3.2874 1.7533c-0.80032 0.96433-4.5992 3.242-8.442 5.0615-11.331 5.3651-15.409 9.0434-15.409 13.9 0 3.9591 0.59212 5.9238 4.5507 15.099 0.93464 2.1664 1.6993 4.2992 1.6993 4.7396 0 0.44038 1.6592 4.3496 3.6871 8.687 4.9455 10.578 8.3482 12.35 22.11 11.517 7.6503-0.46322 12.542-1.6104 19.727-4.6267zm-185.73-7.09c1.2407-4.0087 1.1473-4.8921-0.65935-6.2332-3.0192-2.2411-3.2463-2.0969-5.9241 3.7627-1.3321 2.9149-2.5965 5.581-2.8097 5.9248-0.21325 0.34375 1.4877 0.75805 3.7799 0.92066 3.8131 0.27052 4.2907-0.10175 5.6133-4.375zm33.964-15.685 19.375-6.5507 3.5122-6.7846 3.5122-6.7846-2.7796-10.058c-1.5288-5.5317-3.0233-12.423-3.3211-15.314-0.43694-4.2412-1.4048-5.9152-5.01-8.665-8.1813-6.2402-26.847-5.1611-38.494 2.2254-3.0973 1.9642-5.9307 3.5714-6.2964 3.5714-0.92993 0-9.1854 6.1093-13.311 9.8504-2.7174 2.4643-3.4375 4.2254-3.4375 8.4075 0 12.261 7.386 32.029 13.385 35.825 4.7583 3.0109 9.4487 2.1941 32.865-5.7229zm200.74-3.952c7.7296-3.2296 20.119-11.926 21.59-15.155 0.78212-1.7166 1.422-4.5378 1.422-6.2694s0.49094-4.0958 1.091-5.2537c1.4301-2.7597-6.9557-25.214-11.581-31.012-2.6658-3.3409-4.2726-4.2186-7.7234-4.2186-5.4058 0-17.225 5.8531-24.512 12.139-3.02 2.605-6.7543 5.5802-8.2986 6.6114-3.5262 2.3548-4.953 10.058-2.7331 14.756 0.87554 1.853 2.0209 4.4942 2.5453 5.8692 2.8442 7.4581 7.7684 17.307 9.667 19.335 1.9637 2.0975 8.4228 4.639 12.523 4.9274 0.88145 0.062 3.5862-0.71604 6.0105-1.729zm-306.07-14.41c14.333-16.745 35.372-25.47 49.646-20.59 6.0636 2.0732 6.235 2.0625 8.3228-0.51578 3.8714-4.7809 26.357-18.783 33.51-20.867 9.7164-2.8307 25.307-1.5204 30.528 2.5657l3.6694 2.8718 7.0142-7.074c5.8772-5.9273 8.838-7.7631 18.264-11.325 12.657-4.7823 23.713-5.6926 32.744-2.696l5.244 1.74 6.4962-5.8406c16.57-14.897 40.333-22.186 52.86-16.212 2.3671 1.1288 5.1719 1.7192 6.2329 1.3121 1.061-0.40715 4.4855-4.2838 7.6099-8.6148 11.161-15.471 13.875-18.358 20.398-21.698 6.6349-3.3975 10.03-3.5823 20.393-1.1102 2.9233 0.69736 3.4355 0.22483 5.437-5.016 3.7586-9.8418 10.512-19.867 15.35-22.787 2.508-1.5137 4.9631-3.4859 5.4556-4.3828 1.4581-2.6551 2.854-31.006 1.5266-31.006-0.64806 0-2.5121 2.6719-4.1423 5.9375-8.3624 16.752-46.081 43.248-78.729 55.304-5.1562 1.9041-19.324 7.1776-31.485 11.719-22.193 8.288-43.487 14.539-49.526 14.539-1.7805 0-11.141 2.3121-20.801 5.1379-40.607 11.879-36.623 10.823-72.563 19.24-33.223 7.7814-78.619 25.163-81.944 31.376-2.527 4.7218 0.42544 32.996 3.4456 32.996 0.41735 0 2.6869-2.2525 5.0434-5.0055zm160.04-1.2957c5.3155-1.4032 12.901-3.6532 16.857-5 3.9559-1.3468 7.9932-2.4487 8.9718-2.4487 2.6274 0 6.9552-6.0954 6.9978-9.8561 0.0204-1.7979-1.7725-10.41-3.9842-19.138l-4.0213-15.869-5.8714-1.4086c-11.961-2.8695-33.331 3.9771-44.622 14.297-6.5187 5.9577-6.779 6.4365-6.1377 11.286 0.36839 2.7852 1.019 6.4703 1.4458 8.1891 0.42684 1.7188 1.4172 6.3964 2.2007 10.395 1.4978 7.6429 2.928 9.1585 10.328 10.944 5.9612 1.4386 7.604 1.3106 17.835-1.3904zm186.83-16.163c9.1995-8.0977 9.5874-12.276 3.078-33.161-5.4594-17.516-8.2013-22.115-11.837-19.857-1.1846 0.73574-2.9405 2.9733-3.9018 4.9724-0.9614 1.9991-3.2749 5.6034-5.1412 8.0097-1.8663 2.4062-4.3699 6.2831-5.5636 8.6153-2.1465 4.1937-2.1286 4.3241 1.6312 11.875 2.0908 4.1991 4.1993 9.3222 4.6855 11.385 0.48622 2.0625 1.6439 4.8595 2.5726 6.2156 0.92867 1.3561 1.6885 3.4655 1.6885 4.6875 0 4.1318 6.5819 2.7202 12.788-2.7426zm-118.42-3.96c20.973-6.2024 29.244-10.363 32.46-16.327l2.4598-4.5615-4.9103-14.298-4.9103-14.298-6.002-2.8496c-5.0117-2.3794-7.2887-2.7287-13.799-2.1171-11.049 1.038-25.045 7.0811-33.651 14.53-2.2806 1.9739-5.8126 4.986-7.849 6.6936l-3.7025 3.1047 3.4512 12.962c1.8981 7.1289 3.7804 14.368 4.1827 16.087 0.40238 1.7188 1.3072 3.8519 2.0107 4.7403 2.1705 2.7409 13.058 1.4222 30.26-3.6652zm6.875 1.4641c0-0.66591-0.84375-0.88698-1.875-0.49126-1.0312 0.39574-1.875 0.94058-1.875 1.2108 0 0.27019 0.84375 0.49126 1.875 0.49126s1.875-0.54485 1.875-1.2108zm36.232-6.8679c0.64377-1.6933 3.3951-4.483 6.114-6.1994 6.106-3.8545 8.1619-6.5986 3.7866-5.0538-1.6544 0.58409-6.1532 1.0626-9.9974 1.0634-6.4728 0.001-7.1819 0.2951-9.5935 3.974l-2.6041 3.9726 3.3435 1.5558c1.8389 0.85568 4.1872 2.02 5.2185 2.5874 1.0312 0.5674 2.0296 1.0647 2.2184 1.1051 0.18889 0.0405 0.87016-1.3119 1.514-3.0052zm87.518-12.485c0-1.6852-0.89284-6.3258-1.9841-10.312-1.0912-3.9867-3.017-11.096-4.2793-15.799-2.972-11.071-4.3408-12.566-5.2042-5.685-0.44349 3.5342 9.0024 34.776 10.53 34.828 0.51562 0.0176 0.9375-1.3468 0.9375-3.032zm-68.75-6.8618c15.885-7.8443 22.482-12.16 22.589-14.777 0.049-1.1945 0.35076-4.3274 0.67058-6.9621 0.39766-3.2761-0.82578-9.3905-3.8706-19.344-2.4486-8.0045-4.8733-14.975-5.3883-15.49-0.51495-0.51495-3.1535-1.7039-5.8635-2.6421-10.476-3.627-17.668 1.1245-33.818 22.342-7.2375 9.5086-7.5136 10.137-6.5571 14.925 0.54921 2.7493 1.4799 6.1238 2.0681 7.4988 0.58824 1.375 2.0812 5.7279 3.3178 9.6731 2.9027 9.2613 6.8311 12.822 12.477 11.31 1.375-0.3683 7.8438-3.3085 14.375-6.5338zm31.986-7.8867c1.1274-2.2344 3.4914-5.6035 5.2535-7.487 3.1403-3.3567 3.1192-6.3414-0.0264-3.7308-0.87875 0.7293-3.5642 1.5126-5.9677 1.7406-3.4401 0.3264-4.4558 1.0194-4.7733 3.2569-0.22183 1.5632-2.1058 4.0945-4.1866 5.625l-3.7832 2.7828 4.8116 0.76011c2.6464 0.41808 5.219 0.83995 5.717 0.9375 0.49798 0.0976 1.8278-1.6507 2.9552-3.8851zm9.8046-20.5c7.8862-7.9494 9.1668-11.147 7.1039-17.736-2.0418-6.5221-4.6486-19.161-6.4225-31.139-1.3793-9.3136-1.7925-10.312-4.2656-10.312-3.8266 0-8.4044 5.2729-14.225 16.385-4.3646 8.3324-4.9227 10.335-4.5064 16.168 0.26131 3.6618 1.5539 10.07 2.8725 14.24 1.3186 4.1701 3.0905 10.254 3.9377 13.52 1.373 5.2924 1.9183 5.9375 5.0198 5.9375 2.5688 0 5.3134-1.8486 10.486-7.0624zm12.844-25.75c-0.33965-2.9219-2.3494-12.062-4.466-20.312-2.5077-9.7741-3.8606-18.132-3.8833-23.989-0.0453-11.689-1.9769-12.77-3.0661-1.7165-0.60315 6.121-0.30643 10.554 1.0233 15.288 1.03 3.667 2.2346 10.042 2.677 14.167 0.44235 4.125 1.297 9.1875 1.8993 11.25 0.60227 2.0625 1.4065 5.2969 1.7872 7.1875 0.4046 2.0093 1.5136 3.4375 2.6692 3.4375 1.5895 0 1.856-1.0414 1.3595-5.3125zm-127.12 295.48c0-0.60331 0.88763-1.8336 1.9725-2.734 2.9744-2.4686 7.5702-12.375 8.4763-18.27 0.70236-4.5703-0.82393-14.932-3.6951-25.086-0.58671-2.0749-0.27155-2.8125 1.2017-2.8125 1.1575 0 2.3224 1.445 2.7711 3.4375 0.42578 1.8906 1.3413 5.6875 2.0344 8.4375 1.9596 7.775 1.4783 19.803-0.98323 24.567-3.9522 7.6505-8.3393 13.558-10.069 13.558-0.93989 0-1.7089-0.49363-1.7089-1.097zm-136.88-14.023c-25.226-2.8831-28.358-3.4536-30.725-5.5953-2.8554-2.5841-1.2106-5.6783 1.7238-3.243 6.0662 5.0345 45.045 7.0851 64.001 3.367 22.152-4.345 49.539-4.7448 53.502-0.78105 2.1282 2.1282-1.7369 2.777-8.3563 1.4029-7.048-1.4632-24.529-0.8934-35.146 1.1456-7.3357 1.4087-26.67 3.754-29.375 3.5633-1.0312-0.0727-3 0.1542-4.375 0.50424s-6.4375 0.1864-11.25-0.36364z"/>
</svg>
