<?xml version="1.0" encoding="UTF-8" standalone="no"?>
<!-- Created with Inkscape (http://www.inkscape.org/) -->
<svg id="svg3925" xmlns:rdf="http://www.w3.org/1999/02/22-rdf-syntax-ns#" xmlns="http://www.w3.org/2000/svg" height="772.52" viewBox="0 0 595.55646 772.51648" width="595.56" version="1.1" xmlns:cc="http://creativecommons.org/ns#" xmlns:dc="http://purl.org/dc/elements/1.1/">
 <metadata id="metadata3931">
  <rdf:RDF>
   <cc:Work rdf:about="">
    <dc:format>image/svg+xml</dc:format>
    <dc:type rdf:resource="http://purl.org/dc/dcmitype/StillImage"/>
    <dc:title/>
   </cc:Work>
  </rdf:RDF>
 </metadata>
 <path id="path3935" d="m254.84 771.8c-10.097-0.95874-27.342-3.7488-38.145-6.1716-2.75-0.61672-8.375-1.7554-12.5-2.5305-27.26-5.122-56.186-15.632-59.098-21.473-1.8552-3.7211-3.7983-21.478-5.302-48.45-1.5641-28.056-3.184-42.654-5.6869-51.25-1.101-3.7812-2.4641-11.375-3.0291-16.875-0.56496-5.5-2.1527-15.344-3.5284-21.875-1.3756-6.5312-3.4298-16.543-4.5649-22.247-1.1351-5.7048-4.8075-18.924-8.1609-29.375s-8.7013-27.976-11.884-38.944c-3.1829-10.968-6.1139-20.47-6.5133-21.116-1.0894-1.7627-10.187-28.032-12.188-35.192-0.96061-3.4375-3.7781-12.156-6.2612-19.375-7.1672-20.837-12.094-36.468-13.2-41.875-0.56218-2.75-3.1084-12.312-5.6582-21.25-4.1595-14.58-6.9044-25.225-8.8636-34.375-1.1722-5.4746-6.7929-24.214-8.6232-28.75-0.97096-2.4062-4.528-12.531-7.9046-22.5-3.3766-9.9688-7.2523-20.938-8.6128-24.375-1.3604-3.4375-4.5471-14.688-7.0815-25-4.833-19.665-7.4588-28.909-13.493-47.5-4.503-13.873-5.6624-25.775-3.4452-35.369 2.6568-11.497 10.818-31.556 15.999-39.323 4.9436-7.4116 17.056-18.821 25.851-24.35 2.75-1.7288 7.8125-5.2252 11.25-7.7696s10.584-7.8307 15.881-11.747c5.2968-3.9165 9.9048-7.5645 10.24-8.1067 0.53311-0.8626 31.23-16.411 47.005-23.809 3.0938-1.4508 6.4688-3.1612 7.5-3.8008 4.6663-2.894 31.96-12.619 38.998-13.895 4.2965-0.7791 8.8394-1.9665 10.095-2.6386 2.5867-1.3844 41.74-12.676 55.907-16.124 12.131-2.9519 87.479-5.778 95.625-3.5866 2.75 0.73984 11.188 1.7977 18.75 2.3507 14.756 1.0791 30.298 3.1551 39.375 5.2592 3.0938 0.71717 10.124 1.4814 15.622 1.6983 5.4981 0.21688 12.248 0.72372 15 1.1263 2.7519 0.40258 7.5347 1.0448 10.628 1.4271 6.8217 0.84303 25.553 5.4573 40 9.8535 5.8438 1.7782 13.719 4.1223 17.5 5.2089 3.7813 1.0866 8.5625 2.7267 10.625 3.6447 2.0625 0.91795 7.2214 3.0989 11.464 4.8465 7.4241 3.058 18.874 9.311 22.022 12.027 0.8324 0.71812 7.9823 6.363 15.888 12.544 20.472 16.005 28.26 25.119 35 40.958 4.6431 10.911 7.1852 23.573 8.0704 40.199 0.7426 13.948-0.8817 22.658-6.5185 34.953-1.8955 4.1348-2.252 6.3302-1.3943 8.586 0.8347 2.1955 0.4966 4.7954-1.2268 9.4333-1.3085 3.5213-3.0454 10.621-3.8599 15.777-0.8145 5.1562-2.0541 11.062-2.7546 13.125-0.7005 2.0625-1.558 5.4375-1.9055 7.5s-1.9182 8.25-3.4903 13.75c-1.5722 5.5-3.8018 14.5-4.9548 20-2.4714 11.79-6.1687 27.314-14.439 60.625-3.3283 13.406-7.0094 28.594-8.1802 33.75-1.1708 5.1562-3.683 16.125-5.5827 24.375-1.8996 8.25-3.8504 18.275-4.3351 22.277-0.4846 4.0022-1.6794 9.1873-2.6551 11.522-0.9756 2.335-1.7739 5.7705-1.7739 7.6344s-0.5166 5.1163-1.148 7.2276c-1.5616 5.2214-3.6816 16.47-5.7885 30.714-0.966 6.5312-2.5908 15.812-3.6105 20.625-3.8373 18.109-4.8238 24.04-5.7182 34.375-0.9556 11.043-3.7799 28.878-7.1264 45-1.0703 5.1562-2.3556 12.469-2.8562 16.25-0.5007 3.7812-2.4679 12.5-4.3717 19.375-1.9037 6.875-4.2775 17.562-5.2751 23.75-0.9976 6.1875-2.9425 13.663-4.3219 16.612-2.0581 4.3998-2.2229 5.7051-0.9192 7.276 1.2837 1.5467 1.2857 4.118 0.01 13.388-2.0301 14.756-2.2519 16.524-3.948 31.474-0.78 6.875-2.458 16.719-3.7289 21.875-1.271 5.1562-2.3014 12.661-2.2899 16.678 0.027 9.4269-1.1801 10.703-17.646 18.649-7.2249 3.4868-14.514 7.2302-16.198 8.3186-1.6838 1.0884-5.9025 2.617-9.375 3.3969-3.4724 0.77987-10.251 2.3474-15.063 3.4833-11.117 2.6241-43.292 4.5928-102.5 6.2717-22.029 0.62466-35.382 1.2808-50.625 2.4878-2.4062 0.19053-9.1472-0.10675-14.98-0.66055zm31.23-9.1788c5.8438-0.3464 18.5-0.94036 28.125-1.3199 9.625-0.37955 22.281-0.94196 28.125-1.2498 5.8438-0.30785 22.156-0.90243 36.25-1.3213 29.833-0.88658 49.581-3.6732 61.886-8.7321 14.281-5.8719 30.336-14.626 31.501-17.175 2.4962-5.464 3.8941-11.794 6.5478-29.648 1.4816-9.9688 3.2929-19.812 4.0251-21.875 2.1166-5.9624 5.952-28.15 5.2033-30.102-1.0782-2.8098-3.6664-2.1258-12.093 3.196-4.3276 2.7332-9.9923 5.8568-12.588 6.9414-7.2061 3.0109-27.356 6.8947-41.982 8.0919-7.2187 0.59088-13.969 1.3575-15 1.7036-1.0312 0.34612-4.9015 0.95971-8.6006 1.3635-3.699 0.40383-7.1026 0.96727-7.5634 1.2521-0.9105 0.56272-40.072 2.3432-48.211 2.1919-49.626-0.9225-70.751-1.8376-78.097-3.383-4.7522-0.99965-16.228-1.8654-25.849-1.9501-15.31-0.1348-44.76-3.5975-48.087-5.6541-2.551-1.5766-0.80543 4.2678 2.3467 7.8571 3.0136 3.4316 4.8248 4.1507 14.688 5.8316 26.116 4.4511 38.275 5.3026 91.25 6.3908 22.018 0.45227 33.012 0.20118 37.213-0.84985 5.1358-1.2849 6.2416-1.2128 7.9746 0.52017 1.354 1.354 1.7468 3.0685 1.2011 5.2427-0.88696 3.5339-3.1927 4.0632-7.4079 1.7004-3.5148-1.9702-27.294-2.2864-55.668-0.74028-19.02 1.0364-21.953 0.94122-23.848-0.77377-1.1884-1.0755-3.804-1.9548-5.8124-1.9539-6.0371 0.002-23.786-2.4175-43.43-5.9221-17.451-3.1133-18.631-3.5043-20.297-6.7257-2.3414-4.5278-11.689-6.6659-29.299-6.702l-13.125-0.0269-0.3727 5.7345c-0.2446 3.7636 0.22557 6.231 1.368 7.1792 0.9574 0.79457 7.4784 1.9298 14.491 2.5228 11.388 0.96294 13.127 1.4388 16.274 4.4534 3.6641 3.5104 12.987 5.6295 26.99 6.1347 5.452 0.19668 6.3011 0.58526 6.6502 3.0436 0.59972 4.2234-2.2351 4.5609-13.995 1.666-5.8291-1.435-12.501-2.609-14.825-2.609-4.8613 0-8.0581-2.0542-8.6685-5.5702-0.53785-3.098-4.353-4.1486-15.635-4.3052-9.2693-0.12871-13.825 1.9153-12.422 5.5728 0.34299 0.89378 1.0119 3.7744 1.4864 6.4013 1.7176 9.5077-1.5435 8.8293 43.309 9.0099 45.546 0.18347 57.106 0.87819 58.109 3.4921 0.37083 0.96636 0.30829 2.123-0.13897 2.5702-0.44726 0.44726-7.9657 1.2304-16.708 1.7404-12.334 0.71948-16.317 0.56238-17.779-0.70134-1.3681-1.1824-9.8232-1.8476-30.868-2.4283-15.941-0.43989-29.763-1.0987-30.715-1.4641-1.0406-0.39933-2.3163 0.62025-3.1984 2.5562-2.3697 5.2009 1.7632 20.132 6.8164 24.626 2.8813 2.5625 20.133 9.7397 23.426 9.7457 1.2899 0.002 9.2456 1.6726 17.679 3.7118 32.935 7.9631 65.425 13.015 75.6 11.756 1.7188-0.21275 7.9062-0.67023 13.75-1.0166zm-55.719-13.36c1.6102-0.97385 16.698-1.7984 45.625-2.4934 23.771-0.57111 45.047-1.3958 47.282-1.8326 4.7667-0.93181 5.5069 1.1086 1.25 3.4458-3.9407 2.1636-97.728 3.0403-94.157 0.88018zm122.72-5.1625c-4.4486-3.3567-1.1593-4.5239 12.749-4.5239 15.484 0 31.275-2.3951 55.427-8.4068 19.195-4.778 21.078-4.9935 21.078-2.4122 0 2.9056-2.9658 3.8569-27.5 8.821-33.606 6.7997-57.974 9.3733-61.753 6.5218zm-189.83-9.536c-9.3505-0.98923-9.3223-3.3073 0.0379-3.1174 24.502 0.49708 31.384 0.85522 32.758 1.7046 3.3012 2.0402-18.136 2.9637-32.796 1.4127zm53.394-0.24682c-1.6123-2.6087 2.1054-4.2402 11.676-5.1241 5.3026-0.48971 13.438-1.2771 18.079-1.7498 7.2149-0.73489 8.4375-0.57362 8.4375 1.1129 0 3.3286-0.0715 3.3467-23.125 5.8687-14.049 1.5369-14.051 1.5369-15.067-0.10763zm-32.433-68.573c2.1135-0.85102 1.3647-1.5138-4.843-4.2871-4.0387-1.8043-7.735-3.2805-8.2141-3.2805-0.47909 0-6.1346-3.375-12.568-7.5-14.857-9.5264-16.256-9.6072-16.232-0.9375 0.0283 10.067 1.8585 12.591 10.012 13.81 22.773 3.4032 27.958 3.7606 31.844 2.1955zm195-0.20981c38.604-1.8036 51.408-2.9142 53.487-4.6395 1.1793-0.97879 3.6276-1.2597 6.6988-0.76861 8.5566 1.3683 33.072-6.8662 40.101-13.469 3.1689-2.9771 3.7931-7.2304 1.0609-7.2304-0.9773 0-6.5524 2.498-12.389 5.551-14.099 7.3751-30.687 12.418-38.229 11.623-9.6959-1.0224-19.511-5.5376-25.346-11.66-2.9291-3.0733-5.825-6.4802-6.4354-7.5709-1.9797-3.5375-1.5068-18.329 0.8997-28.144 2.1001-8.5649 3.0241-10.236 8.75-15.82 3.5211-3.434 11.279-8.9685 17.24-12.299 5.961-3.3303 13.836-7.7426 17.499-9.8051 3.6638-2.0625 11.443-6.3006 17.287-9.418 5.8441-3.1174 11.751-6.3065 13.126-7.087 10.364-5.8824 13.659-6.8414 20.566-5.9869 3.8134 0.47178 7.6226 1.4233 8.4649 2.1145 2.5423 2.0864 3.7194-3.018 6.5424-28.373 3.4684-31.152 10.944-68.882 25.799-130.22 3.0261-12.494 5.502-23.621 5.502-24.727 0-2.536-3.2841-3.8745-5.3334-2.1737-0.8534 0.70824-3.5181 1.4743-5.9216 1.7024-3.8619 0.36642-4.7132 1.1337-7.3219 6.5993-2.4371 5.1061-3.0029 8.485-3.2446 19.375-0.2038 9.1824-1.3065 17.368-3.629 26.94-5.2872 21.791-5.5997 22.677-13.918 39.457-4.3447 8.7639-8.6125 19.221-9.4841 23.239-0.8716 4.0173-2.3299 8.4138-3.2408 9.7699-0.9108 1.3561-1.6561 4.3217-1.6561 6.5902 0 4.4259-8.7731 23.147-12.402 26.465-1.1906 1.0886-4.541 5.1623-7.4453 9.0527-6.4407 8.6274-20.242 21.718-27.028 25.635-5.898 3.4048-9.7027 3.5689-15.511 0.66897-4.2001-2.0968-5.4699-3.6057-6.9193-8.2214-1.9011-6.0546-21.706 2.7447-47.569 21.136-10.045 7.1427-27.287 18.252-30 19.33-1.375 0.54623-6.4375 4.2935-11.25 8.3272s-11.735 9.2336-15.382 11.555c-6.3536 4.0437-7.0103 4.1921-15.625 3.5319-16.536-1.2673-42.232-10.05-68.368-23.367-5.1562-2.6274-14.719-6.286-21.25-8.1301-6.5312-1.8442-12.409-3.873-13.062-4.5084-0.65313-0.63541-1.912-1.1553-2.7976-1.1553-0.88557 0-12.073-5.1136-24.861-11.364-20.113-9.83-24.646-12.604-33.586-20.558-10.512-9.3525-11.239-10.495-15.078-23.703-1.199-4.125-3.2341-10.652-4.5226-14.503-1.2884-3.8518-2.3564-9.1956-2.3732-11.875s-0.53391-7.1217-1.1491-9.8717c-0.61522-2.75-1.4988-11.187-1.9636-18.75-0.46475-7.5623-1.0641-14.104-1.3318-14.537-0.93068-1.5059-4.3019-28.002-4.4324-34.836-0.0721-3.7822-1.4746-11.095-3.1163-16.252-1.6418-5.1562-3.6094-14.969-4.3724-21.806-1.2841-11.507-1.7218-12.832-5.8824-17.809-2.8712-3.4349-6.5456-6.1305-10.171-7.4616-3.1216-1.1461-7.1618-3.4447-8.9782-5.108-2.0348-1.8632-4.4341-2.864-6.25-2.607-2.5285 0.35782-2.9272 1.082-2.8056 5.0953 0.078 2.573 2.7039 12.698 5.8354 22.5s8.6179 27.666 12.192 39.697c14.753 49.661 24.83 80.309 28.153 85.625 0.8596 1.375 1.9537 5.0312 2.4314 8.125 0.47767 3.0938 2.0011 9.5625 3.3855 14.375s3.3405 11.75 4.3471 15.418c1.0066 3.6671 3.5322 10.698 5.6125 15.625 6.3248 14.978 14.76 49.671 14.794 60.845 0.0273 8.9599 1.031 10.804 10.022 18.415 14.813 12.539 25.141 17.683 49.961 24.887 9.0864 2.6371 14.698 3.2454 38.75 4.2008 15.469 0.61444 30.938 1.6277 34.375 2.2517 8.4964 1.5423 76.468 1.5991 108.75 0.0909zm66.238-18c7.4229-5.5481 11.958-7.2421 15.012-5.6074 3.5598 1.9052 8.0142-0.28276 19.548-9.6017 9.4156-7.6074 11.157-10.642 14.214-24.773 1.1898-5.5 2.9318-12.468 3.8712-15.485 0.9393-3.0166 2.0832-9.1485 2.542-13.626 0.7199-7.0267 0.5221-8.3697-1.4441-9.8075-1.6172-1.1825-2.3426-3.4954-2.5001-7.9705-0.2544-7.2314-2.9986-10.386-8.1057-9.3169-1.7187 0.35967-8.4687 3.3261-15 6.592-9.6428 4.8219-11.956 6.5185-12.307 9.026-0.5958 4.256-1.9419 5.6185-9.7042 9.8228-6.2578 3.3894-9.0434 2.945-5.2594-0.83897 2.8381-2.8381-0.132-3.0348-4.5542-0.3017-5.9359 3.6686-8.876 8.7809-5.05 8.7809 1.0313 0 1.8394 0.42187 1.7958 0.9375-0.044 0.51562-7.9186 7.0853-17.5 14.599-9.5814 7.514-17.421 14.054-17.421 14.534 0 1.8849 3.5571 3.6793 5.7791 2.9154 1.2903-0.4436 0.2366 0.9939-2.3416 3.1944-5.6225 4.799-6.2147 9.9566-1.875 16.329 4.3623 6.4058 6.53 7.2745 11.274 4.5179 2.2212-1.2907 6.0073-3.4531 8.4135-4.8053 2.4063-1.3522 4.9094-2.968 5.5625-3.5908 0.6532-0.62271 2.0594-1.1097 3.125-1.0822 1.0657 0.0275 0.25 0.95682-1.8125 2.0651-4.5234 2.4307-14.375 10.344-14.375 11.546 0 0.47329 0.7578 1.8968 1.6839 3.1633 1.4631 2.0008 2.2289 2.1128 5.8398 0.85406 3.3703-1.1749 4.647-1.1018 6.7536 0.38645 3.2637 2.3057 8.7708 1.3272 13.835-2.4582zm-30.529-14.626c0.08-1.5506 15.967-10.348 16.937-9.3783 0.479 0.47905-8.9392 6.7941-14.207 9.5262-2.2163 1.1494-2.7948 1.118-2.7292-0.1479zm30.542-9.2415c3.2855-2.537 9.375-5.7281 9.375-4.9128 0 0.83945-9.6635 6.9346-10.913 6.883-0.5293-0.0219 0.1626-0.90849 1.5376-1.9703zm24.976-3.0812c1.6504-2.882 5.9992-7.4088 7.1174-7.4088 2.1572 0 0.8703 2.0041-3.5534 5.5338-2.522 2.0123-4.1258 2.8561-3.564 1.875zm-8.1005-7.4119c9.8952-8.7864 12.55-11.412 14.406-14.244 1.7644-2.6928 2.4031-2.9258 4.4795-1.6343 4.4279 2.7541 2.4121 4.9581-11.386 12.448-1.7187 0.93305-4.8125 2.7108-6.875 3.9506l-3.75 2.2541 3.125-2.7749zm-20-6.8279c0-0.31957 1.2657-1.2554 2.8125-2.0796 2.5503-1.3589 2.6526-1.3047 1.097 0.58102-1.5973 1.9363-3.9095 2.8226-3.9095 1.4986zm24.558-7.3581c5.4385-6.6592 15.94-14.069 16.452-11.609 0.5697 2.7366-3.4617 6.9972-9.1351 9.6545-2.75 1.288-6.406 3.3378-8.1245 4.5551-2.7665 1.9596-2.6741 1.6616 0.8071-2.6009zm-2.1175-10.089c1.7194-2.7821 2.4228-5.4979 2.0114-7.7666-0.5331-2.9398 0.2959-4.3319 5.2705-8.8505 7.9072-7.1824 10.052-7.7438 13.642-3.5703 3.6199 4.2084 3.6037 4.9575-0.1605 7.4239-1.6755 1.0978-7.0881 5.3812-12.028 9.5188-4.9401 4.1375-9.5214 7.5228-10.181 7.5228-0.6594 0-0.01-1.9251 1.4451-4.278zm-150.8 13.164c15.627-12.391 17.874-14.009 21.903-15.772 3.6961-1.6177 16.399-9.5593 27.081-16.93 2.0625-1.4232 6.5624-4.5145 10-6.8696 8.2089-5.624 35.055-18.814 40.625-19.959 6.3078-1.2973 8.7598-2.8598 10.42-6.6399 0.8065-1.8365 2.9842-5.8745 4.8394-8.9734 3.5458-5.9229 10.381-22.316 13.946-33.446 2.3571-7.3595 4.5216-27.072 4.4689-40.699-0.035-8.992 1.2662-23.714 3.8069-43.08 0.7474-5.6976 1.0417-10.873 0.6539-11.5-1.1438-1.8507-24.921-0.915-27.318 1.075-3.2974 2.7376-2.432 3.6237 2.9336 3.0039 3.9117-0.45183 5-0.16011 5 1.3402 0 1.0548-0.5366 2.2494-1.1926 2.6548-1.9919 1.2311-20.941 2.981-39.028 3.6043-15.02 0.51758-17.191 0.34075-17.88-1.4569-1.1577-3.017 2.7284-5.2369 9.1675-5.2369 3.0738 0 8.5687-0.93936 12.211-2.0875 6.2616-1.9738 6.8935-1.9651 11.605 0.15952 5.5381 2.4973 9.1791 1.8663 8.6135-1.4928-0.4854-2.8828 6.2919-6.1177 14.849-7.0877 3.5588-0.4034 8.0336-1.3277 9.9439-2.054 1.9104-0.72633 5.5117-0.97624 8.0029-0.55535 5.871 0.99189 8.075-1.3562 6.7052-7.1434-0.5355-2.2625-0.8282-4.6506-0.6504-5.3068 0.1778-0.65618 0.8382-5.724 1.4674-11.262 1.3744-12.096 9.5422-37.724 16.149-50.67 3.9916-7.822 4.7797-10.617 4.7577-16.875-0.014-4.125 0.8539-9.9879 1.9297-13.029 2.0216-5.7139 1.1453-10.115-2.0069-10.079-0.8352 0.01-5.1748 3.4213-9.6436 7.582-10.016 9.3254-14.452 12.216-25.625 16.698-14.899 5.9766-16.748 7.2164-29.948 20.078-27.329 26.628-39.634 37.641-46.088 41.25-3.6886 2.0625-7.4958 4.3783-8.4604 5.1462-0.96457 0.76789-8.2225 4.6713-16.129 8.6742-7.9062 4.0029-17.078 8.9263-20.381 10.941-4.5825 2.7946-7.9898 3.7992-14.375 4.2384-4.6029 0.31661-10.338 1.3085-12.744 2.2041-5.629 2.0952-13.688 1.2422-22.432-2.3744-4.257-1.7608-10.85-3.1564-17.04-3.6073-6.8168-0.49651-13.922-2.1072-21.875-4.9584-6.4782-2.3227-16.56-5.516-22.404-7.0962-27.389-7.4063-46.914-15.708-57.029-24.247-10.839-9.1506-18.434-13.317-37.346-20.488-17.6-6.6734-23.831-6.5884-22.557 0.30795 2.1913 11.861 3.751 18.741 5.9051 26.05 1.4984 5.0843 2.2243 10.142 1.7939 12.5-0.8804 4.8224 3.0952 27.524 5.7284 32.71 2.8653 5.6435 3.3495 8.667 4.1453 25.883 0.40187 8.6935 1.3135 17.676 2.0258 19.962 0.71234 2.2855 1.8036 12.03 2.4249 21.656 0.62135 9.625 1.6373 21.156 2.2576 25.625 1.8042 12.997 8.4613 36.087 11.904 41.29 3.7831 5.7167 11.513 11.243 22.96 16.417 4.6266 2.0908 14.191 6.5559 21.254 9.9224 7.063 3.3664 13.189 6.1208 13.613 6.1208 0.42423 0 3.0829 1.059 5.9082 2.3534s10.762 4.1586 17.637 6.3648c6.875 2.2063 18.648 7.088 26.163 10.848 21.866 10.941 60.271 22.736 67.587 20.756 1.375-0.37199 5.7694-3.2686 9.7652-6.437zm-31.793-30.999c-0.42293-9.7159 0.48534-33.437 1.4028-36.636 0.57444-2.003 0.76549-4.7084 0.42457-6.0121-1.0048-3.8424 1.9026-12.738 4.1633-12.738 1.6359 0 1.8476 0.94851 1.1859 5.3125-0.44304 2.9219-1.362 10.29-2.0422 16.374-0.68016 6.0836-1.5754 11.609-1.9894 12.279-0.41401 0.66991-0.68573 6.2009-0.60383 12.291 0.0849 6.31-0.39675 11.41-1.1196 11.857-0.73264 0.45279-1.3332-0.69941-1.4214-2.7272zm20.642-5.6988c0.38703-4.2969 0.79589-12.46 0.90859-18.141 0.26095-13.153 0.93444-16.547 3.2841-16.547 1.6268 0 1.7694 1.9619 1.0224 14.062-0.47744 7.7344-0.85749 14.906-0.84455 15.938 0.082 6.5425-1.4281 12.5-3.1687 12.5-1.5793 0-1.7851-1.3379-1.2019-7.8125zm-34.816-5.8595c-0.39838-0.64459-0.40126-8.6132-0.006-17.708 0.71363-16.437 2.1045-22.599 4.5495-20.154 0.81299 0.81298 0.55234 5.6622-0.76308 14.197-2.3132 15.008-2.4988 18.172-1.2924 22.024 0.8741 2.7914-1.0089 4.0332-2.4876 1.6405zm69.041-1.0371c-0.67124-2.5668-0.51274-5.2599 1.2963-22.025 1.382-12.808 2.7796-16.226 5.516-13.489 1.2016 1.2016 1.0687 3.7489-0.625 11.977-1.1832 5.7481-2.1512 13.003-2.1512 16.122 0 6.0704-0.91881 9.625-2.488 9.625-0.53376 0-1.2304-0.99406-1.5482-2.209zm-91.889-4.3118c-1.3485-1.6639-1.2011-5.1373 1.0227-24.104 1.6301-13.904 2.1106-15.625 4.3614-15.625 2.3401 0 2.297 4.4384-0.157 16.202-1.0702 5.1296-1.7728 12.666-1.5615 16.748 0.38611 7.4569-1.0157 10.05-3.6656 6.78zm109.05-0.97603c-0.46511-0.75257-0.50577-4.0142-0.0904-7.2482 0.41541-3.2339 1.0096-8.0535 1.3204-10.71 0.81398-6.9569 1.8991-9.7536 3.5616-9.179 0.80104 0.27684 1.3227 2.1359 1.1593 4.1313-1.4137 17.262-2.1184 21.895-3.5048 23.046-1.1331 0.94042-1.8474 0.92872-2.4461-0.04zm-36.361-1.429c-2.6308-4.2568 0.36059-37.324 3.3765-37.324 1.535 0 0.44909 37.928-1.1007 38.444-0.72218 0.24072-1.7463-0.26336-2.2758-1.1202zm-87.432-19.371c0.95482-20.665 1.3508-22.953 3.9719-22.953 1.7585 0 1.9003 1.3632 1.1377 10.938-1.8748 23.537-2.567 28.238-4.2398 28.791-1.3656 0.45144-1.5244-2.6107-0.86988-16.775zm-12.224 11.86c-1.9411-1.0915-2.1438-2.2842-1.42-8.3557 1.5413-12.929 4.7241-11.338 4.0612 2.03-0.34324 6.9215-0.57873 7.4855-2.6412 6.3257zm-19.663-4.9111c-1.0187-1.9035-1.0209-4.8272-0.009-10.938 0.76021-4.5867 1.2876-9.7458 1.1719-11.465-0.28832-4.2846 4.6301-15 6.885-15 2.3946 0 3.7188 4.2916 2.2033 7.1403-0.65389 1.2291-1.56 6.7347-2.0136 12.235-1.4579 17.677-4.6672 24.7-8.2384 18.027zm-16.218-1.8297c-1.5022-3.9512-0.44065-11.134 1.9372-13.107 1.3175-1.0934 1.8245-0.24883 2.4818 4.1348 1.0271 6.849 0.4505 11.173-1.5789 11.841-0.85514 0.28161-2.1332-1.0094-2.8402-2.8688zm189.52 2.2582c-1.9014-1.9014 0.7164-23.171 3.1879-25.902 0.6754-0.7464 1.8007-0.47842 2.9915 0.71239 1.7118 1.7118 1.7109 2.6689-0.01 9.2716-1.0547 4.0495-1.9177 9.1531-1.9177 11.341 0 3.6914-2.4748 6.3546-4.2528 4.5766zm-204.93-2.6012c-0.58446-0.90512-0.7765-1.9318-0.42673-2.2816 0.34976-0.34976 0.14622-2.3434-0.45232-4.4304-0.59852-2.087-1.1801-8.8366-1.2924-14.999-0.2175-11.934 0.96903-15.185 4.4789-12.273 1.4906 1.2371 1.7836 2.9203 1.1934 6.8559-0.43022 2.8689-1.1548 10.517-1.6102 16.995-0.50623 7.2017-1.2409 11.139-1.8906 10.133zm219.22-3.2821c-2.5308-6.6566 1.141-21.19 4.7847-18.938 1.9399 1.1989 0.4624 18.246-1.7894 20.645-1.4266 1.5197-1.8632 1.2709-2.9953-1.7068zm-248.7-4.9798c-1.8789-2.2639-1.2145-12.229 0.86083-12.912 1.1351-0.37327 1.5625 1.5663 1.5625 7.0904 0 4.1823-0.21238 7.6042-0.47195 7.6042-0.25956 0-1.1377-0.80218-1.9514-1.7826zm13.979 0.22013c-3.7374-4.6714-3.1033-12.188 1.0282-12.188 2.0949 0 2.4158 0.91324 2.4158 6.875 0 6.7938-1.0111 8.3534-3.444 5.3125zm251.44-8.9435c-1.2894-3.3602 0.048-10.119 2.0023-10.119 1.3501 0 1.9817 1.6624 2.256 5.9375 0.3047 4.7479-0.016 5.9375-1.6017 5.9375-1.0905 0-2.2859-0.7902-2.6566-1.756zm18.235-6.0565c-0.01-0.85938-0.3563-2.8281-0.7708-4.375-0.6105-2.278-0.2432-2.8125 1.9323-2.8125 1.6425 0 3.0923 1.0927 3.7316 2.8125 1.3719 3.6908 0.4222 5.9375-2.5098 5.9375-1.3014 0-2.3739-0.70313-2.3833-1.5625zm-92.51-104.09c-13.736-1.9089-32.225-2.0275-35.111-0.2252-2.8431 1.7756-28.647-1.0811-30.997-3.4316-1.533-1.533-1.5454-2.1115-0.083-3.8735 2.2707-2.736 12.684-1.853 16.254 1.3783 2.3358 2.1139 3.1566 2.1642 10.3 0.63134 11.399-2.446 40.686-2.6765 44.498-0.35035 2.4351 1.4858 3.8195 1.5499 7.5 0.34777 6.7748-2.2129 20.16-1.2498 21.884 1.5746 3.5682 5.8456-9.638 7.3684-34.245 3.9487zm-108.75-5.5752c-2.4062-0.44607-7.0687-2.0149-10.361-3.4863-4.9338-2.205-6.5383-2.4236-9.1283-1.2434-2.5408 1.1576-3.8248 1.0286-6.7069-0.67386-1.9605-1.1581-4.3299-2.1056-5.2652-2.1056-0.93537 0-3.6611-1.0401-6.0571-2.3114-4.8485-2.5724-14.905-4.1457-28.106-4.397-8.554-0.16286-8.7423-0.23661-8.4055-3.2916 0.18948-1.7188 0.36279-4.1396 0.38513-5.3796 0.0639-3.5423 3.3351-3.9286 9.6767-1.1427 3.214 1.412 10.625 3.528 16.469 4.7024 5.8438 1.1743 13.156 3.103 16.25 4.2859 3.0938 1.1829 9.2812 2.8727 13.75 3.7551 4.4688 0.88243 9.5312 2.4851 11.25 3.5616 2.2421 1.4042 5.6586 1.8651 12.093 1.6312 6.209-0.22573 10.123 0.27155 12.724 1.6165 2.1124 1.0924 5.2995 1.6601 7.2822 1.2972 4.0478-0.74086 7.393 0.96034 6.0766 3.0903-0.95495 1.5452-23.732 1.6104-31.926 0.0914zm-97.073-24.856c-9.7509-3.572-18.882-10.096-17.427-12.451 1.2794-2.0701 3.6482-1.7968 6.4517 0.74435 3.6144 3.2762 8.8789 5.3035 13.772 5.3035 4.9193 0 12.232 2.7042 13.689 5.0621 1.1237 1.8181-2.6234 5.0213-5.5898 4.7783-1.0717-0.0878-5.9753-1.6346-10.897-3.4375zm312.43 178.14c5.2896-2.2478 13.788-10.688 23.451-23.291 2.3722-3.0938 5.8683-7.4801 7.7691-9.7475 5.4413-6.4905 11.683-19.978 15.192-32.828 4.2584-15.595 6.571-21.469 15.478-39.317 4.7908-9.5994 8.0096-17.903 8.958-23.108 0.8141-4.4688 2.8181-13.455 4.4533-19.97 2.3342-9.3 2.8568-14.107 2.4322-22.373-0.2974-5.7903-0.7878-10.775-1.0896-11.077-0.3018-0.3018-2.5436-0.99865-4.9818-1.5486-4.0475-0.91285-4.6986-0.6517-7.4855 3.002-2.1947 2.8774-5.1038 4.6228-10.353 6.212-7.6617 2.3194-15.548 2.3279-16.305 0.0176-0.5759-1.7585 13.569-10.513 16.986-10.513 4.0747 0 14.001-2.5496 19.704-5.0611 4.8894-2.1532 5.2181-2.6288 5.7365-8.299 0.3024-3.3082 1.4618-9.6712 2.5764-14.14 5.1983-20.842 8.3082-36.391 8.9531-44.764 0.3872-5.0263 1.8421-12.339 3.2331-16.25 1.3911-3.9112 3.324-13.018 4.2954-20.236 0.9714-7.2188 2.6387-15.586 3.705-18.595 2.1473-6.0577 2.584-13.905 0.774-13.905-1.8252 0-5.5272 5.8147-12.604 19.797-8.9169 17.618-12.833 22.692-33.419 43.291-5.6718 5.6756-10.312 11.157-10.312 12.18 0 1.0232-1.4771 4.6161-3.2826 7.9841-3.2307 6.0269-5.3486 11.563-13.736 35.904-3.3262 9.6531-4.2314 14.266-4.2314 21.562 0 9.2365 0.3513 9.939 4.6875 9.376 3.3555-0.43574 1.5426 5.9912-2.6806 9.5032-3.9816 3.3111-4.3261 4.2217-5.591 14.778-2.0592 17.186-4.0005 44.059-3.8378 53.125 0.2414 13.45-1.2702 26.406-4.0833 35-1.4629 4.4688-3.0777 8.6875-3.5886 9.375-0.5108 0.6875-2.1533 4.9062-3.6498 9.375-1.4966 4.4688-3.4713 8.9688-4.3882 10-3.3486 3.766-10.99 18.242-11.878 22.5-0.5014 2.4062-1.3023 5.8201-1.7798 7.5863-0.7008 2.5919-0.3106 3.4798 2.023 4.6029 3.8342 1.8454 4.1908 1.8394 8.8689-0.1485zm10.313-34.475c-1.099-1.7783 0.3025-3.816 2.6247-3.816 1.0952 0 1.7225 0.8782 1.4887 2.0839-0.4869 2.5106-2.9827 3.5615-4.1134 1.7321zm16.834-21.941c0-1.0312 0.8438-1.875 1.875-1.875 1.0313 0 1.875 0.84375 1.875 1.875s-0.8437 1.875-1.875 1.875c-1.0312 0-1.875-0.84375-1.875-1.875zm8.0387-14.515c-0.9423-1.5247 1.865-3.8173 3.4642-2.829 0.5484 0.33896 0.9971 1.4268 0.9971 2.4175 0 2.1212-3.2211 2.4182-4.4613 0.41148zm-5.594-16.802c-1.1289-1.3602-1.2014-2.3015-0.2506-3.2523 1.6021-1.602 4.0559-0.35025 4.0559 2.0691 0 2.6713-2.0431 3.3066-3.8053 1.1833zm7.1647-12.616c-1.8388-1.8388-0.8718-5.6284 1.3281-5.2048 1.2032 0.2317 2.1875 1.4917 2.1875 2.8 0 2.4869-2.0388 3.8815-3.5156 2.4048zm-2.8844-17.258c-0.9692-2.5258 0.4723-4.4349 3.3488-4.4349 1.7547 0 2.4262 0.865 2.4262 3.125 0 2.3078-0.664 3.125-2.5392 3.125-1.3966 0-2.8527-0.81681-3.2358-1.8151zm6.5125-6.7528c-1.2412-2.0083 0.6909-5.331 2.8573-4.9138 2.6633 0.51291 2.6299 5.207-0.041 5.7213-1.139 0.21936-2.4064-0.14405-2.8165-0.80758zm19.262-11.432c0-1.8827 0.6527-2.5576 2.1875-2.262 1.2032 0.2317 2.1875 1.2496 2.1875 2.262s-0.9843 2.0303-2.1875 2.262c-1.5348 0.29557-2.1875-0.37935-2.1875-2.262zm-24.133-23.299c-0.9987-0.99866 0.1302-2.9506 1.7064-2.9506 0.6469 0 1.1762 0.84375 1.1762 1.875 0 1.933-1.4749 2.4834-2.8826 1.0756zm18.314-1.1296c-0.4071-1.0609-0.4137-2.2554-0.015-2.6544 1.2613-1.2613 4.5833 0.67328 4.5833 2.6691 0 2.495-3.61 2.4835-4.5686-0.0148zm-2.098-33.904c-0.4584-0.45832-0.8334-1.5833-0.8334-2.5 0-2.2127 3.2993-2.1443 4.1552 0.0861 1.0099 2.6319-1.3725 4.3632-3.3218 2.4139zm-5.5209-12.552c-2.2346-0.81936-1.9366-5.3646 0.3518-5.3646 2.2635 0 3.8974 3.4791 2.3142 4.9278-0.6069 0.55536-1.8066 0.75192-2.666 0.43682zm23.438-4.0408c0-0.64692 0.5625-1.5239 1.25-1.9488s1.25 0.10437 1.25 1.1762-0.5625 1.9488-1.25 1.9488-1.25-0.5293-1.25-1.1762zm-6.725-17.009c-0.979-2.5513 0.047-4.315 2.5108-4.315 1.2272 0 1.7483 0.95025 1.4887 2.7146-0.4953 3.3656-2.9458 4.3463-3.9995 1.6004zm-11.806-6.401c0.5298-2.7515 5.4065-3.1249 5.4065-0.41401 0 1.0312-1.3156 2.0613-2.9237 2.289-2.2672 0.32105-2.8247-0.0999-2.4828-1.875zm22.701-23.623c-1.0418-2.715 1.6031-5.2681 3.4962-3.375 1.6001 1.6 0.6088 5.334-1.416 5.334-0.7306 0-1.6667-0.88156-2.0802-1.959zm14.58-29.291c0-1.3889 0.8334-2.5 1.875-2.5 1.0417 0 1.875 1.1111 1.875 2.5s-0.8333 2.5-1.875 2.5c-1.0416 0-1.875-1.1111-1.875-2.5zm-228.05 115.66c1.3345-1.0094 4.1651-1.8531 6.2902-1.875 6.395-0.0658 15.082-3.2637 21.412-7.8819 3.2858-2.3974 10.474-6.6118 15.974-9.3655 23.218-11.624 41.728-25.487 57.971-43.417 18.239-20.134 29.007-27.515 47.557-32.598 12.816-3.5122 26.133-13.634 32.354-24.593 2.7112-4.7758 2.5359-8.4345-0.404-8.4345-0.8965 0-4.6332 1.0806-8.3037 2.4013-12.34 4.44-20.361 6.6942-31.674 8.9019-6.1875 1.2074-16.594 3.3504-23.125 4.7621-18.794 4.0622-43.278 6.8133-54.093 6.0778-6.1047-0.41515-12.844-0.004-18.125 1.106-5.0964 1.0711-19.729 2.0221-37.157 2.4149-15.812 0.35637-34.893 0.90071-42.401 1.2096-7.5083 0.30892-18.758 0.009-25-0.66595-6.2417-0.67519-15.849-1.566-21.349-1.9796-5.5-0.41356-12.36-1.517-15.244-2.4521-2.8844-0.93509-11.884-2.2613-20-2.9471-8.1156-0.68579-16.724-1.7848-19.131-2.4422-2.4062-0.65742-7.4688-1.545-11.25-1.9724-8.0847-0.91375-19.83-4.2181-36.14-10.168l-11.765-4.2916-4.1956 2.8349c-4.3694 2.9523-5.2406 5.084-7.7686 19.008-1.0072 5.5478-2.3503 8.4578-5.3155 11.517-3.104 3.2026-3.992 5.2298-4.079 9.313-0.10238 4.802 0.28851 5.4591 4.8888 8.2189 7.3033 4.3815 17.87 9.1484 20.348 9.1796 1.1835 0.0149 7.6558 1.9578 14.383 4.3174 13.342 4.6799 31.05 14.709 39.168 22.183 6.3875 5.8804 31.285 17.278 44.226 20.247 5.1562 1.1827 16.125 4.4265 24.375 7.2084 8.9529 3.019 19.112 5.4918 25.199 6.1338 9.0793 0.95758 26.607 5.7835 31.676 8.7213 2.8968 1.679 8.015 1.3573 10.699-0.67249zm235.81-28.062c5.0322-3.1913 6.016-4.5585 7.8702-10.937 2.5891-8.9059 2.6048-18.013 0.044-25.272-1.0591-3.002-1.9257-6.4723-1.9257-7.7117 0-2.2302-3.0885-6.1821-4.8314-6.1821-0.4966 0-1.6622 3.5156-2.5903 7.8125-0.928 4.2969-2.2289 8.8718-2.8909 10.167-0.662 1.2947-1.9249 6.3572-2.8064 11.25-0.8816 4.8928-2.3214 11.481-3.1996 14.641-2.8973 10.424 0.495 12.47 10.33 6.233zm-441.32-7.436c0.10475-1.1229 0.25971-2.8855 0.34444-3.9167 0.17167-2.0897-4.6215-21.287-6.5965-26.419-0.69721-1.812-3.2748-5.2438-5.728-7.6263-3.1386-3.0481-4.4603-5.431-4.4603-8.0412 0-5.5314 3.4544-16.116 6.9318-21.241 1.6875-2.4867 3.0717-6.2709 3.0759-8.4093 0.007-3.8409 1.5338-7.5196 6.3586-15.326l2.4736-4.0024-3.4824-3.2316c-1.9153-1.7774-5.8908-4.1521-8.8344-5.2772-5.0996-1.949-5.4367-1.9336-7.1471 0.3269-0.98733 1.3048-2.7434 5.1849-3.9024 8.6224s-2.8105 7.375-3.6701 8.75c-1.7677 2.8277-5.6818 18.089-8.0628 31.437-1.597 8.9526-1.1964 36.539 0.58719 40.438 0.47172 1.0312 5.3709 4.125 10.887 6.875 5.5162 2.75 10.678 5.8955 11.47 6.99 2.8012 3.8701 9.3964 3.9051 9.7557 0.0518zm459.47-27.6c1.9365-3.1008 6.9819-25.408 9.7696-43.194 1.1853-7.5625 3.2487-17.688 4.5853-22.5 10.627-38.262 15.841-61.179 14.275-62.744-0.456-0.45597-7.4876 5.9062-15.626 14.138-12.392 12.535-14.942 15.771-15.688 19.912-0.4901 2.7195-2.5185 10.637-4.5077 17.594-2.4335 8.5112-3.5487 15.099-3.409 20.138 0.1241 4.477-0.7089 10.198-2.0713 14.226l-2.2788 6.7369 3.7929 11.25c2.0861 6.1875 4.151 13.5 4.5886 16.25 1.4589 9.1688 1.9386 10.625 3.4997 10.625 0.8528 0 2.2337-1.0941 3.0689-2.4313zm-499.15-20.85c1.0094-2.6305 4.0981-18.056 5.224-26.09 1.1134-7.9449 6.0174-21.177 10.004-26.993 1.7817-2.5994 2.7518-5.3478 2.3017-6.5208-0.42792-1.1152-4.522-4.1038-9.0978-6.6415-4.5759-2.5377-10.102-6.0721-12.279-7.8542-12.767-10.448-23.449-16.908-26.207-15.849-2.9224 1.1214-1.8525 6.0312 7.5982 34.871 4.463 13.619 9.0407 28.525 10.173 33.125 1.1319 4.5995 3.0648 10.894 4.2953 13.988 1.2305 3.0938 2.5545 6.6094 2.9423 7.8125 0.88744 2.7533 4.0127 2.8478 5.047 0.15251zm438.45-8.7838c3.029-2.7412 2.8842-4.8705-0.4922-7.2354-3.8092-2.668-4.2989-2.498-5.1566 1.7904-1.3799 6.8995 1.2453 9.43 5.6488 5.4449zm11.819-10.744c11.121-12.26 25.466-34.886 25.466-40.166 0-2.9931-3.2898-3.8576-6.5721-1.727-1.5416 1.0006-6.1779 3.0687-10.303 4.5958-4.125 1.527-10.031 4.2858-13.125 6.1306-3.0937 1.8448-7.0312 3.641-8.75 3.9915-3.6564 0.74567-4.0908 3.498-0.8642 5.4765 1.7875 1.0961 2.6012 0.92835 3.8878-0.80126 2.7466-3.6926 4.8569-2.703 3.9983 1.875-0.4191 2.2344-1.1247 8.7031-1.5681 14.375-0.7595 9.7163-0.663 10.312 1.6692 10.312 1.3614 0 4.1337-1.8281 6.1605-4.0625zm-1.0178-19.291c0.9023-0.36108 1.9804-0.31668 2.3958 0.0986 0.4154 0.41536-0.3229 0.7108-1.6406 0.65652-1.4562-0.06-1.7524-0.35617-0.7552-0.7552zm10.234-6.6461c0-0.6875 0.5625-1.25 1.25-1.25s1.25 0.5625 1.25 1.25-0.5625 1.25-1.25 1.25-1.25-0.5625-1.25-1.25zm-203.56 19.344c18.709-0.30671 37.292-1.2018 41.293-1.9892 4.0019-0.78734 9.2108-1.1176 11.575-0.73385 6.1341 0.99543 24.011-0.89169 43.385-4.5799 9.1769-1.747 25.111-4.669 35.408-6.4934 25.944-4.5964 52.725-13.134 76.277-24.317 14.086-6.6881 45.998-31.954 54.768-43.361 16.515-21.481 20.449-32.549 19.19-53.994-1.2891-21.97-8.2724-41.929-19.107-54.611-5.1008-5.9705-18.227-16.976-37.431-31.384-12.287-9.2188-35.779-18.666-66.17-26.611-5.5-1.4378-12.531-3.4341-15.625-4.4361-6.8844-2.2298-28.397-5.3831-46.875-6.8709-7.5625-0.60888-19.938-2.0071-27.5-3.1071-7.5624-1.1-17.656-2.286-22.429-2.6356-4.7736-0.34955-11.242-1.1263-14.375-1.7261-5.9612-1.1414-62.04-0.78157-70.696 0.45363-2.75 0.39245-9.797 1.0015-15.66 1.3534-10.283 0.61725-15.238 1.7198-50.59 11.257-33.272 8.9756-40.252 11.092-50.625 15.353-5.8438 2.4003-11.188 4.8135-11.875 5.3628-0.6875 0.54927-6.5938 3.1735-13.125 5.8317-12.695 5.1668-25.875 12.116-35 18.455-3.0938 2.1489-8.7188 5.4074-12.5 7.241s-9.6875 5.6543-13.125 8.4904-11.569 8.909-18.071 13.495c-14.8 10.44-27.946 25.151-30.668 34.317-1.0327 3.4775-2.684 7.5535-3.6696 9.0576-2.7472 4.1928-5.9614 21.45-5.8035 31.16 0.30036 18.474 8.5048 28.215 43.212 51.302 24.484 16.287 41.823 25.551 58.125 31.059 11.66 3.9395 32.165 9.4259 40.553 10.85 3.4771 0.59055 11.103 1.9393 16.947 2.9973 5.8438 1.058 12.955 1.9339 15.802 1.9466 2.8476 0.0126 10.723 1.0994 17.5 2.415 19.964 3.8752 56.851 6.8005 68.844 5.4597 2.2119-0.24727 19.329-0.70055 38.039-1.0073zm-15.413-11.239c-0.31706-0.31706-10.38-0.61046-22.362-0.65198-11.982-0.0415-27.129-0.64622-33.66-1.3437-23.715-2.5327-32.004-3.5651-38.75-4.826-3.7812-0.70678-8.5625-1.5194-10.625-1.8058-2.0625-0.28643-7.4062-1.1043-11.875-1.8174-4.4688-0.71315-11.817-1.5776-16.329-1.921-4.5122-0.34337-10.981-1.2484-14.375-2.0112-3.3941-0.76277-10.725-2.1828-16.292-3.1556-5.9787-1.0448-13.652-3.5101-18.75-6.0238-8.5871-4.2342-19.346-8.299-21.966-8.299-3.5079 0-25.116-11.584-33.443-17.928-19.932-15.187-35.096-32.887-35.096-40.966 0-1.3145-0.68542-3.4876-1.5232-4.829-1.2248-1.9612-1.1023-4.0183 0.625-10.501 1.1815-4.434 2.1482-9.0685 2.1482-10.299s2.516-7.4092 5.5912-13.731c7.3336-15.075 17.893-25.661 36.619-36.711 7.3782-4.3538 17.915-10.83 23.415-14.392 17.988-11.648 49.235-26.629 62.5-29.964 3.4375-0.86427 8.2188-2.775 10.625-4.2462 2.4062-1.4711 5.0903-2.6769 5.9646-2.6794 0.87425-0.002 6.279-2.1915 12.011-4.8643 13.772-6.4223 11.621-5.9494 40.369-8.8727 20.407-2.0751 33.883-2.5649 70.625-2.5671 78.134-0.005 93.618 1.1693 149.78 11.357 7.2188 1.3094 20.104 3.5662 28.633 5.015 21.957 3.7296 33.936 8.3305 57.154 21.951 21.132 12.397 40.562 34.929 46.165 53.537 5.7389 19.057 2.2448 40.843-8.7455 54.529-1.4198 1.7681-3.9877 5.1021-5.7065 7.4089-5.2723 7.0764-17.81 21.251-18.797 21.251-0.5127 0-3.665 2.3906-7.0051 5.3125-9.0101 7.882-13.392 10.722-26.602 17.24-18.904 9.3279-29.141 12.917-55.095 19.314-3.7812 0.93205-9.125 2.2717-11.875 2.9771-2.75 0.70535-10.906 1.6367-18.125 2.0697-7.2187 0.433-21.048 2.1483-30.732 3.8118-9.6839 1.6635-19.887 3.0246-22.674 3.0246s-9.4888 0.80601-14.893 1.7911c-5.4041 0.98513-19.951 2.1662-32.326 2.6246-12.375 0.45843-22.843 1.0434-23.263 1.2999-0.41974 0.25651-1.0226 0.20697-1.3396-0.11013zm35.853-7.9208c11-0.67089 21.406-1.5186 23.125-1.8838 1.7188-0.36521 10.096-1.5548 18.615-2.6436 8.5197-1.0888 15.946-2.2612 16.503-2.6053 0.5568-0.34417 10.742-1.4203 22.635-2.3915 41.666-3.4026 84.39-14.739 84.018-22.293-0.057-1.1646-0.1979-4.4416-0.3125-7.2823-0.1672-4.1434-1.077-5.9841-4.6004-9.3072-4.6132-4.3508-20.678-15.528-22.318-15.528-0.5259 0-2.7469-1.3344-4.9354-2.9653s-7.9166-4.5098-12.729-6.3974c-4.8125-1.8876-12.627-5.6874-17.366-8.4438-17.612-10.245-48.158-21.585-62.009-23.02l-6.875-0.71243 4.375 3.9101c2.4062 2.1506 5.882 4.7407 7.724 5.7558 1.8419 1.0152 3.6907 2.9226 4.1084 4.2388 1.1493 3.6211 7.8487 6.1792 19.713 7.5273 13.231 1.5034 17.661 3.3168 24.245 9.9234 3.6515 3.6644 6.216 5.1857 8.75 5.1906 7.8953 0.0154 12.733 2.375 15.703 7.659 2.9967 5.3319 7.6739 8.557 12.507 8.6238 3.4723 0.048 6.0532 1.919 9.0969 6.5948 1.2565 1.9302 4.4077 4.5927 7.0027 5.9165 4.9419 2.5212 7.3288 6.7701 5.0714 9.0275-1.6127 1.6127-8.5261-2.924-15.55-10.204-3.4326-3.5579-6.2031-5.1719-9.9701-5.8083-5.1205-0.86509-9.8617-4.6756-14.734-11.842-1.5523-2.283-3.6229-3.0742-10-3.8207-7.3168-0.85655-8.4496-1.399-12.556-6.0125-5.6242-6.3188-7.829-7.155-21.775-8.2583-13.419-1.0616-19.028-3.8065-26.838-13.135-5.718-6.8295-20.61-17.519-27.639-19.838-3.4407-1.1355-5.6023-1.0668-10.227 0.32492-5.3275 1.6033-6.1221 1.5632-8.6859-0.43809-1.5521-1.2116-4.1051-2.605-5.6734-3.0964-1.5683-0.49147-4.8931-3.1001-7.3883-5.797s-5.3557-4.9034-6.3565-4.9034-5.5511 3.7969-10.112 8.4375c-5.8045 5.9064-10.917 9.6958-17.042 12.632-4.8125 2.3071-10.438 5.4478-12.5 6.9793-8.855 6.5755-20.212 11.741-28.967 13.176-6.3242 1.0362-10.93 2.7216-15.625 5.7178-11.746 7.496-16.977 9.5808-21.407 8.5326-5.8817-1.3916-7.0778-0.87574-14.626 6.3084-7.8522 7.4736-15.686 12.728-20.834 13.974-1.9478 0.47145-5.069 1.9248-6.9361 3.2296-3.7258 2.6038-12.347 5.3175-20.782 6.5416-7.9328 1.1512-14.578 4.9576-16.42 9.4055-1.7168 4.1448-4.6408 5.0276-5.8879 1.7777-1.1669-3.0409 3.3435-10.425 8.3391-13.651 2.4731-1.5974 9.312-3.793 15.632-5.0188 6.1796-1.1985 13.716-3.4982 16.749-5.1104 3.0322-1.6122 6.4704-2.9314 7.6405-2.9314 2.5975 0 18.216-11.646 20.342-15.168 2.3319-3.8633 10.488-7.6227 14.585-6.7228 4.2158 0.92594 14.018-2.5996 23.753-8.5434 5.1424-3.1396 9.0536-4.4673 15.07-5.1155 8.881-0.95678 21.709-6.4918 26.251-11.327 2.6372-2.8072 2.6451-2.9085 0.28457-3.6577-3.1748-1.0076-11.617-0.0439-20.659 2.3585-3.9867 1.0591-8.9365 1.9257-11 1.9257-2.0631 0-5.27 0.77491-7.1265 1.722-1.8565 0.94712-8.1567 2.7237-14 3.9479-5.8438 1.2242-13.278 3.543-16.521 5.153-3.2428 1.6099-6.7944 2.9271-7.8926 2.9271s-4.9137 1.3288-8.4791 2.9528c-3.5653 1.624-7.8886 3.382-9.6074 3.9066-1.7188 0.52462-9.3125 4.1524-16.875 8.0618s-16.562 8.344-20 9.8546c-10.226 4.4942-21.532 12.068-29.584 19.819-4.16 4.0043-8.374 8.0519-9.3647 8.9947-3.074 2.9257-1.3808 5.5382 4.5752 7.0592 3.093 0.78985 6.7485 2.062 8.1235 2.8269 6.2774 3.4923 19.454 7.5614 26.614 8.2187 4.3252 0.39707 8.4902 1.109 9.2556 1.582 0.76538 0.47303 2.5704 1 4.011 1.171 1.4407 0.17105 13.307 1.531 26.369 3.0222s27.406 3.4714 31.875 4.4005c27.662 5.751 78.802 7.5731 128.12 4.5649zm-120.48-27.37c-0.89586-3.2656-1.9348-10.566-2.3087-16.222-0.58683-8.8772-0.39202-10.395 1.4235-11.092 1.1569-0.44394 2.3788-0.53174 2.7154-0.19513 0.33661 0.33662 0.82916 5.328 1.0946 11.092 0.26539 5.764 1.0907 12.063 1.8341 13.999 2.0234 5.2683 1.6948 8.3561-0.88921 8.3561-1.6112 0-2.6984-1.6681-3.8696-5.9375zm203.91 4.4833c-0.8502-0.85019-1.5458-3.1208-1.5458-5.0458 0-2.9 0.5358-3.5 3.125-3.5 2.4311 0 3.125 0.64093 3.125 2.8861 0 4.3116-2.7471 7.6167-4.7042 5.6597zm16.267-1.2331c-3.6097-3.6102 0.2192-10.502 4.0625-7.3127 2.4036 1.9948 2.3591 2.8753-0.3125 6.1742-1.7501 2.1611-2.4999 2.3887-3.75 1.1385zm-32.812-4.8949c0-5.8262 1.7927-9.9178 4.3453-9.9178 3.0644 0 3.3372 2.2758 1.0459 8.727-2.7385 7.7106-5.3912 8.2965-5.3912 1.1908zm-234.21 1.1887c-2.214-3.1609-1.4809-5.7188 1.9511-6.8081 3.1512-1.0001 4.4954 0.32259 5.5165 5.4282 0.73915 3.6957 0.54321 4.0234-2.4057 4.0234-1.8514 0-3.9941-1.119-5.062-2.6435zm16.156-0.13464c-2.2664-3.2357-2.5245-6.7167-0.58696-7.9142 2.0195-1.2481 3.6397 0.965 4.475 6.1127 0.85412 5.2633-0.89548 6.074-3.8881 1.8015zm205.14 1.9448c-2.6964-2.6964 1.2422-20.349 4.1404-18.558 0.702 0.4338 1.2762 4.6328 1.2762 9.3312 0 6.6365-0.4411 8.7118-1.9772 9.3012-2.4482 0.93948-2.4248 0.93999-3.4394-0.0746zm-188.29-4.0845c-1.8997-3.5496-1.5762-12.981 0.54128-15.781 1.8854-2.4927 2.1371-2.1756 2.5391 3.1986 0.12857 1.7188 0.66705 5.7969 1.1966 9.0625 0.80795 4.9822 0.64544 5.9375-1.0101 5.9375-1.0851 0-2.5552-1.088-3.2669-2.4178zm38.32 1.4803c-1.2995-2.2817-3.2718-14.321-3.9612-24.181-0.62844-8.9867-0.42102-11.017 1.2684-12.42 3.1281-2.5961 3.8728-0.11775 4.1863 13.931 0.15409 6.9053 0.81177 13.953 1.4615 15.662 1.7161 4.5137 1.4484 7.9445-0.61987 7.9445-0.99067 0-2.0415-0.42188-2.3352-0.9375zm133.4-11.767c0.74764-9.9813 2.0775-15.985 3.5491-16.022 0.51562-0.0131 1.5718-0.0238 2.3472-0.0238 0.969 0 1.1232 1.661 0.4932 5.3125-0.5041 2.9219-1.2792 8.3994-1.7223 12.172-0.6174 5.2571-1.337 6.9618-3.0799 7.2959-2.0808 0.39887-2.2158-0.3444-1.5874-8.7349zm-115.7-0.3229c-1.6191-3.5535-0.24383-36.562 1.57-37.683 1.8602-1.1496 2.2038 1.6965 2.6135 21.647 0.30489 14.846 0.038 19.062-1.2064 19.062-0.87882 0-2.2185-1.3622-2.9771-3.027zm98.14-4.1605c1.4668-13.102 3.953-22.156 6.2035-22.592 1.334-0.25809 2.092 0.4196 2.0974 1.875 0.0155 4.2446-4.1692 24.769-5.3707 26.342-2.6652 3.4886-3.7231 1.4578-2.9302-5.625zm-14.207-3.8609c0-2.7399 0.89072-9.3906 1.9794-14.779 1.0887-5.3886 2.2159-11.766 2.5049-14.172 0.92422-7.6948 1.769-10 3.6645-10 2.3146 0 2.306 0.63197-0.15751 11.463-1.1048 4.8574-2.3704 13.962-2.8125 20.233-0.66853 9.4824-1.172 11.472-2.9913 11.819-1.7874 0.34167-2.1875-0.49311-2.1875-4.5636zm-63.211-3.3477c-0.45358-2.4179-0.19782-6.8857 0.56837-9.9285 0.76618-3.0428 1.4014-7.1114 1.4115-9.0414 0.0254-4.8292 4.3538-18.3 6.0634-18.87 1.4587-0.48623 1.4322-0.14471-1.1635 15.016-0.79151 4.6228-1.5036 12.638-1.5823 17.812-0.12225 8.0332-0.4594 9.4074-2.3079 9.4074-1.4863 0-2.4232-1.3778-2.9894-4.3961zm20.244-1.5997c-1.5981-2.5857 5.3646-47.754 7.3612-47.754 1.8633 0 1.4367 16.822-0.58173 22.938-0.76763 2.326-1.8836 8.5794-2.4799 13.897-1.0481 9.3457-2.692 13.521-4.2996 10.919zm13.84-0.68601c-0.88516-2.3067 3.0073-15.886 4.3209-15.074 0.58133 0.35929 1.057 2.8334 1.057 5.4981 0 8.1226-3.5262 14.401-5.3779 9.5758zm12.253-0.81831c-0.79011-2.4894 3.8536-25.884 5.7455-28.945 2.4492-3.9629 2.7317 1.4038 0.77475 14.718-1.1661 7.9336-2.4402 14.943-2.8314 15.576-1.1808 1.9106-2.8477 1.301-3.6888-1.3491zm-8.4394-23.17c-0.73279-3.8333 1.1494-10.58 2.9515-10.58 1.2138 0 0.16072 9.4275-1.3787 12.343-0.62347 1.1809-1.1155 0.62937-1.5728-1.7632zm-218.75 37.92c13.213-14.248 18.762-19.11 26.12-22.885 4.0196-2.0625 9.4066-5.0156 11.971-6.5625 2.5645-1.5469 5.4611-2.8125 6.4369-2.8125 0.97582 0 4.7839-2.035 8.4623-4.5222 17.414-11.774 59.012-25.104 102.94-32.985 8.25-1.4802 17.387-3.2164 20.305-3.858 2.9176-0.64165 7.6036-0.79903 10.413-0.34971 4.9835 0.79688 5.2748 0.63843 11.883-6.4619 3.7258-4.0034 6.7741-7.6705 6.7741-8.1492 0-0.47872 1.5981-1.5324 3.5514-2.3414 4.4996-1.8638 12.813 1.1231 15.795 5.6751 1.0975 1.675 4.5111 4.6112 7.5858 6.5249 5.288 3.2913 6.0149 3.4161 13.44 2.3064 6.7009-1.0014 10.22-0.67651 24.051 2.2207 8.9109 1.8666 19.295 4.5085 23.077 5.8709 3.7813 1.3624 11.938 4.01 18.125 5.8835 6.1875 1.8735 17.438 6.7552 25 10.848 7.5625 4.0931 17.969 9.1543 23.125 11.247 13.298 5.3976 31.238 16.339 38.884 23.714 1.7692 1.7066 2.1922 1.7173 3.5431 0.0895 3.4976-4.2143 6.3229-11.57 6.3229-16.461 0-3.8334 1.0788-6.8011 4.0625-11.176 3.7239-5.4598 4.7398-6.1228 12.188-7.9538 10.482-2.5768 13.165-2.1003 16.595 2.9464 2.7799 4.091 14.864 14.431 16.865 14.431 3.5823 0 14.403-15.569 15.75-22.661 3.8795-20.429 3.8372-19.584 1.4525-28.958-6.9578-27.349-27.85-49.111-63.162-65.791-4.4687-2.1109-8.7566-3.8385-9.5286-3.839-0.7719-0.00054-4.0239-1.1601-7.2264-2.5767-5.1309-2.2696-12.759-3.9817-25.075-5.6279-2.0377-0.27238-8.5064-1.4-14.375-2.506-50.34-9.4862-77.896-11.81-145.05-12.232-53.495-0.33586-68.427 0.21575-98.694 3.6458-9.4497 1.0709-29.723 8.763-37.511 14.233-1.7434 1.2244-6.0176 2.4905-9.4982 2.8135-3.4806 0.32305-10.231 2.311-15 4.4178-4.7694 2.1067-11.765 5.0817-15.547 6.611-12.877 5.2082-18.118 7.9487-30 15.686-6.5312 4.2532-13.844 8.8087-16.25 10.123-8.4979 4.6429-27.947 17.924-32.732 22.35-8.9022 8.2366-15.694 20.003-19.731 34.181-2.7258 9.573-2.8429 11.071-1.4078 18.019 2.3919 11.581 6.5349 18.45 16.638 27.586 13.716 12.404 34.702 27.017 38.804 27.021 2.6206 0.002 5.1674-1.852 10.625-7.7369zm419.64 3.4351c4.5122-2.5234 13.298-9.7574 21.228-17.479 11.47-11.168 13.29-13.463 11.956-15.07-0.8655-1.0428-2.2648-1.896-3.1097-1.896-0.8448 0-4.9942-3.6562-9.2207-8.125s-8.323-8.125-9.1033-8.125-3.6443 0.66679-6.3644 1.4818c-6.2237 1.8647-10.59 7.443-12.133 15.503-0.6469 3.377-2.1137 8.3698-3.2597 11.095-1.3001 3.0918-1.8428 6.7515-1.443 9.7318 0.3523 2.6271 0.089 6.7765-0.5865 9.2208-2.5146 9.1072 0.603 10.056 12.036 3.6619zm-0.5831-13.924c0-1.0886 0.668-1.7565 1.4844-1.4844 2.3178 0.77259 2.7022 3.4635 0.4948 3.4635-1.0885 0-1.9792-0.89063-1.9792-1.9792zm3.0577-8.1298c-1.2881-2.0843 1.609-4.4744 3.3334-2.75 1.4424 1.4424 0.5397 4.1089-1.3911 4.1089-0.6063 0-1.4803-0.61151-1.9423-1.3589zm10.93-5.8286c0.2317-1.2031 1.2496-2.1875 2.262-2.1875 1.0125 0 2.0304 0.98437 2.2621 2.1875 0.2956 1.5348-0.3794 2.1875-2.2621 2.1875-1.8826 0-2.5576-0.65269-2.262-2.1875zm-7.738-8.3637c0-2.2404 2.0653-3.615 3.8107-2.5363 0.896 0.55376 0.8476 1.3681-0.153 2.5738-1.8887 2.2757-3.6577 2.2576-3.6577-0.0375z"/>
</svg>
