<?xml version="1.0" encoding="UTF-8" standalone="no"?>
<!-- Created with Inkscape (http://www.inkscape.org/) -->
<svg id="svg3406" xmlns:rdf="http://www.w3.org/1999/02/22-rdf-syntax-ns#" xmlns="http://www.w3.org/2000/svg" height="944.73" viewBox="0 0 284.655 944.72906" width="284.66" version="1.1" xmlns:cc="http://creativecommons.org/ns#" xmlns:dc="http://purl.org/dc/elements/1.1/">
 <metadata id="metadata3412">
  <rdf:RDF>
   <cc:Work rdf:about="">
    <dc:format>image/svg+xml</dc:format>
    <dc:type rdf:resource="http://purl.org/dc/dcmitype/StillImage"/>
    <dc:title/>
   </cc:Work>
  </rdf:RDF>
 </metadata>
 <path id="path3416" d="m75.957 942.86c-4.0156-1.191-7.1557-2.9778-7.9974-4.5507-1.8886-3.5288-1.412-21.103 0.76405-28.175 3.4764-11.298 12.982-28.701 16.738-30.643 3.9114-2.0227 7.4997-5.745 5.5382-5.745-0.6875 0-1.9502 0.84375-2.8061 1.875-2.2474 2.708-6.25 2.3882-6.25-0.49939 0-1.3059 1.9343-5.2487 4.2984-8.7618s4.4656-7.3744 4.67-8.5806c0.43332-2.5577-4.7436-8.2241-6.514-7.13-0.71076 0.43927-1.2044-1.7988-1.2044-5.4605 0-3.4127-0.8198-13.43-1.8218-22.261-1.2608-11.113-1.7725-28.117-1.6616-55.226 0.12748-31.176-0.17566-39.377-1.4854-40.186-0.94849-0.5862-1.2945-1.9318-0.81681-3.1766 0.45578-1.1878 0.18647-2.9334-0.59849-3.8793-0.83095-1.0012-1.097-3.3705-0.63689-5.6712 0.52041-2.6021 0.13623-4.9498-1.125-6.8747-1.6937-2.585-1.703-3.3337-0.0805-6.4712 3.264-6.3118 2.1306-38.189-1.5776-44.37-1.9307-3.2183-2.3979-6.617-2.5193-18.326-0.082-7.9062-0.4471-16.344-0.81141-18.75-0.3643-2.4062-0.89281-8.0312-1.1745-12.5-0.28167-4.4688-1.13-9.7486-1.8853-11.733-0.75526-1.9844-1.6498-5.6407-1.9879-8.125-1.4332-10.531-1.987-12.408-4.271-14.475-3.446-3.1186-4.2287-8.4177-2.1623-14.641 1.3749-4.1403 1.6746-10.509 1.2838-27.276l-0.50981-21.875-3.649-1.25c-2.0069-0.6875-4.2244-1.8288-4.9278-2.5363-1.6793-1.689-4.6648-18.468-5.6651-31.839-0.43719-5.8438-1.5202-14.046-2.4066-18.227-0.88647-4.181-1.6687-12.846-1.7382-19.256-0.12425-11.442-1.133-14.317-4.5614-13.001-0.76546 0.29374-2.4135-1.1956-3.6623-3.3096s-4.9392-7.0505-8.201-10.97c-8.2655-9.932-11.475-15.4-16.65-28.361-6.8916-17.262-7.6254-21.066-7.8615-40.756-0.20576-17.164 0.57738-25.118 5.5867-56.744 4.3001-27.149 11.248-43.605 21.11-50 15.125-9.8073 27.264-16.743 30.489-17.421 7.4075-1.5569 28.388-14.325 28.457-17.317 0.0367-1.6126 6.4118-10.197 14.516-19.548 2.1278-2.455 5.3856-7.0844 7.2396-10.287 1.854-3.2031 4.1912-6.1386 5.1938-6.5233 2.5547-0.98034 2.2698-3.6226-0.81314-7.542-3.2435-4.1234-10.684-25.907-12.321-36.071-0.66393-4.1227-1.435-7.7236-1.7134-8.0021-0.27844-0.27845-2.006 0.17705-3.839 1.0122-4.6635 2.1248-7.3034-0.77584-7.7873-8.5566-0.205-3.2963-0.84201-10.986-1.4156-17.089-0.83837-8.92-0.69773-11.441 0.71725-12.856 1.2318-1.2318 2.2239-1.3752 3.3052-0.47781 0.84979 0.70526 1.8878 0.93956 2.3067 0.52065 0.41891-0.41891 1.1303 0.70708 1.5808 2.5022 0.91921 3.6624 2.6618 3.2213 4.3005-1.0886 0.7411-1.9492 3.0762-3.5353 7.2419-4.9189 5.4832-1.8212 6.0843-2.3757 5.5584-5.1267-0.71661-3.7488-0.3111-3.7798 6.1731-0.47175 4.9106 2.5052 7.6513 2.6092 12.737 0.48328 2.072-0.86623 2.1713-0.67321 0.8872 1.7261-1.2849 2.4008-1.0576 2.8392 2.0421 3.9401 1.9183 0.6813 4.3384 1.7222 5.3782 2.3132 1.0708 0.60865 3.2384 0.57579 4.9998-0.0758 2.5818-0.95509 3.5752-0.60883 5.8542 2.0406l2.7447 3.1909 6.2578-3.8901c5.5922-3.4763 6.0562-4.0917 4.3626-5.7853-3.2598-3.2598-0.10538-4.0968 8.9428-2.3727 8.3841 1.5975 14.323 4.134 14.323 6.1175 0 0.52213 1.0781 0.94932 2.3958 0.94932s2.6536 0.70313 2.9688 1.5625c0.45183 1.2323 0.91575 1.2395 2.1952 0.0339 1.3065-1.231 1.3202-2.1918 0.0701-4.9354-1.2696-2.7865-1.1685-5.5916 0.55523-15.405l2.1075-11.998-3.8416-7.6102c-6.07-12.014-10.13-14.698-12.4-8.184-0.83316 2.3891-2.6814 3.9625-6.0598 5.159-2.6735 0.94681-7.9547 3.6029-11.736 5.9025-3.7812 2.2996-9.8388 4.8584-13.461 5.6862-7.0573 1.6128-5.6864 1.9911-19.744-5.4472-3.1014-1.6411-4.98-1.867-8.0948-0.97372-2.2309 0.6398-4.5385 0.86513-5.1282 0.50072-1.1475-0.70921-1.4426 0.75014-1.1595 5.735 0.0976 1.7188-0.96777 5.3533-2.3675 8.0768-1.3998 2.7235-2.5451 5.6575-2.5451 6.5201 0 3.1666-4.2695 10.4-6.5697 11.13-3.3769 1.0718-4.479-0.61821-1.7191-2.6363 2.3551-1.7221 9.9606-22.646 8.8718-24.408-1.4786-2.3925 1.7879-6.5864 6.3729-8.1822 7.0744-2.4623 9.2322-2.2059 17.905 2.128 9.5065 4.7504 11.988 4.4496 27.162-3.2934 6.0193-3.0714 11.542-5.6021 12.273-5.6237 0.73087-0.0216 2.3672-1.4646 3.6363-3.2066 2.2432-3.0792 2.2432-3.2384 0-5.7208-4.0628-4.4961-13.612-8.3937-24.975-10.193-9.4808-1.5017-11.237-1.5016-12.336 0.001-0.88089 1.2047-4.7184 1.8934-12.284 2.2045-6.0514 0.24885-11.292 0.74228-11.647 1.0965-0.35424 0.35424-0.0221 1.8062 0.73804 3.2265 1.2005 2.2432 0.70127 3.2015-3.8003 7.2946-2.8503 2.5916-5.9346 5.1488-6.8539 5.6826-0.91933 0.53381-1.3729 1.7486-1.008 2.6996 0.38889 1.0134-0.38215 2.0609-1.863 2.5309-3.1733 1.0072-3.6251 2.5872-4.4472 15.553-0.43359 6.8384-1.3275 11.235-2.5616 12.598-2.0284 2.2413-2.68 10.655-0.73198 9.4511 0.64-0.39554 1.5194-0.14351 1.9542 0.56006 1.2145 1.965-2.9074 2.9924-5.0088 1.2484-2.4399-2.025-2.3754-8.6934 0.11862-12.254 1.2653-1.8064 2.2931-7.1364 2.8532-14.796 0.80535-11.014 1.1532-12.212 4.342-14.955 1.9066-1.64 3.0601-2.9818 2.5635-2.9818-0.49667 0 1.1595-2.0625 3.6803-4.5833 4.51-4.51 5.791-8.2728 3.3333-9.7917-4.0576-2.5077 4.0156-6.8641 12.772-6.8921 7.1591-0.02283 10.978-1.1546 10.978-3.2537 0-2.1106 7.4595-2.3173 16.009-0.44358 3.2263 0.7071 8.6785 1.9074 12.116 2.6674 7.5622 1.6718 15.686 5.6052 17.812 8.6244 0.85888 1.2197 3.5308 3.4346 5.9375 4.922 2.4068 1.4875 4.3759 3.2541 4.3759 3.9258 0 0.67174 1.603 3.2977 3.5623 5.8356 1.9593 2.5378 4.4999 7.1888 5.6458 10.336 1.8674 5.1279 1.8936 6.2595 0.25288 10.91-1.0068 2.8537-2.2139 8.5765-2.6824 12.717l-0.85177 7.5287 3.6452-0.72905c5.8638-1.1728 7.123 2.7136 6.3817 19.695-0.3399 7.7861-1.053 15.188-1.5848 16.449-1.8724 4.4393-9.3487 5.2449-9.3882 1.0117-0.0166-1.7827-0.17907-1.8063-1.2309-0.17876-0.66645 1.0312-1.2221 4.9688-1.2348 8.75-0.0258 7.6682-3.1154 27.347-5.2007 33.125-5.0488 13.99-9.6309 20.12-11.446 15.312-0.3245-0.85938-0.51201 2.375-0.41667 7.1875l0.17334 8.75 4.375 0.625c4.1627 0.59467 4.518 1.0496 7.3224 9.375 4.8278 14.332 6.4239 25.774 4.4822 32.131-0.90204 2.9531-2.8306 9.2314-4.2857 13.952-1.4551 4.7204-2.407 8.8211-2.1153 9.1128 1.0479 1.0479 32.104-32.179 32.091-34.334-0.002-0.47381-1.7218-3.3927-3.8196-6.4865s-5.7994-9.5625-8.2256-14.375c-4.0317-7.997-5.9865-10.355-15.449-18.637-5.7117-4.9991-7.4324-7.5746-6.2925-9.419 0.84486-1.367 2.8111-0.27155 8.9993 5.0138 10.834 9.2536 11.763 10.391 17.532 21.48l5.0577 9.7215 15.538 7.6672c16.593 8.1879 20.778 11.841 25.545 22.299 1.4102 3.0938 3.2914 7.0312 4.1804 8.75 0.88901 1.7188 2.8531 8.1875 4.3646 14.375 2.7793 11.378 5.1146 20.875 7.3767 30 0.68171 2.75 1.6166 7.5312 2.0774 10.625 0.46088 3.0938 2.7636 14.062 5.1171 24.375l5.6499 24.756c1.1936 5.2298 1.5276 11.319 1.193 21.75-0.0916 2.8557-5.4415 9.1193-7.7891 9.1193-0.73541 0-3.1734 2.0048-5.4178 4.4551-3.3453 3.6522-5.8537 4.8979-13.919 6.9122-5.4108 1.3514-11.862 3.0016-14.336 3.6671l-4.4982 1.21 0.96703 6.5653c1.5334 10.411 3.6966 57.139 3.6745 79.378-0.0176 17.758-0.27105 20.312-2.0155 20.312-1.7699 0-1.9323 2.3656-1.4375 20.938 0.30683 11.516 0.22035 28.983-0.19217 38.817-0.41252 9.8339-0.32246 18.305 0.20012 18.825 0.52259 0.51998 0.32831 4.0053-0.43171 7.7452-0.76004 3.7399-1.3798 7.3624-1.3772 8.0498 0.002 0.6875 0.10563 7.4432 0.22901 15.013 0.12338 7.5695-0.3156 15.163-0.97556 16.875-3.4861 9.0421-4.224 13.157-3.4581 19.287 0.59899 4.7941 0.24226 8.0138-1.336 12.058-2.2359 5.7291-2.7495 14.348-1.088 18.259 1.7015 4.005 1.6642 7.0968-0.18548 15.384-0.99747 4.4688-1.5052 9.3562-1.1282 10.861 0.37695 1.5048 0.12075 3.0848-0.56922 3.5113-2.0341 1.2571-1.4437 5.0503 1.3361 8.5843 1.4249 1.8115 2.3413 3.2936 2.0364 3.2936-0.52822 0 0.65707 7.056 2.3098 13.75 3.3163 13.432 3.6739 25.838 2.5764 89.375-0.51794 29.985-1.0731 34.997-4.001 36.12-0.99061 0.38013-1.7622 2.3688-1.7622 4.542 0 3.8579 0.0113 3.8641 5.4772 3.0445 6.9183-1.0375 7.9998 0.56523 3.7719 5.5898-3.5765 4.2504-3.8076 3.361 3.3135 12.75 1.7532 2.3116 3.9318 6.453 4.8414 9.203 2.8952 8.7535 6.276 15.441 9.3698 18.535 6.0891 6.0891 8.4865 12.845 7.7791 21.923-0.5816 7.4624-1.0606 8.65-4.7871 11.868-2.2774 1.9669-6.639 4.7126-9.6924 6.1017-5.1791 2.3562-6.2426 2.4181-15.853 0.92315-8.5371-1.328-11.314-2.3729-16.219-6.1017-6.8616-5.2166-14.588-15.896-16.772-23.182-2.8654-9.5588-4.8866-25.408-3.7469-29.382 0.95791-3.3401 0.78463-3.8102-1.4042-3.8102-3.0011 0-2.3354-3.1127 2.1352-9.9836 1.5715-2.4153 3.2168-7.3445 3.656-10.954l0.79867-6.5625h-3.6812c-2.0246 0-4.2963-0.74114-5.048-1.647-0.83236-1.0029-1.3416-7.5847-1.3023-16.831 0.0355-8.3514-0.28812-15.755-0.71917-16.452-1.2654-2.0474-4.3624-24.181-6.3062-45.069-0.99169-10.656-2.3869-24.741-3.1005-31.3-1.522-13.989-1.0797-20.575 1.3818-20.575 1.3493 0 1.7914 2.9013 2.0001 13.125 0.14731 7.2188 0.84213 16.219 1.5441 20 0.70194 3.7812 1.5881 10.812 1.9692 15.625 1.0638 13.433 2.9906 29.964 5.0992 43.75 1.0516 6.875 2.0774 17.562 2.2796 23.75 0.4251 13.006 0.46183 13.039 11.609 10.201 3.9769-1.0123 10.465-2.2396 14.418-2.7274 5.555-0.68535 7.1875-1.3651 7.1875-2.9927 0-1.1583 0.60199-2.708 1.3378-3.4437 0.73576-0.73576 1.2482-5.2076 1.1388-9.9375-0.10937-4.7299-0.17897-12.818-0.15459-17.975 0.14138-29.897-0.0924-72.404-0.41583-75.625-0.46424-4.6221-5.1498-23.794-6.2504-25.575-0.44183-0.71489-1.6394-1.2998-2.6612-1.2998-1.3984 0-1.6943-1.0048-1.1966-4.0625 0.85412-5.2472 3.1832-17.805 4.3702-23.563 0.57251-2.7772 0.1976-8.0855-0.97912-13.863-1.763-8.6555-1.7408-9.8904 0.29365-16.358 1.2944-4.1151 2.0783-9.9929 1.9036-14.273-0.16335-4.0024 0.27418-8.3971 0.97229-9.7661 2.9713-5.8266 4.4975-18.478 3.7728-31.275-0.40585-7.1667-0.34832-13.271 0.12785-13.565 1.0888-0.67299 2.1562-49.128 1.7061-77.446l-0.21534-13.547-5.3125 0.94005c-2.9219 0.51701-6.5207 0.85876-7.9973 0.75944-1.5911-0.107-3.484 1.0391-4.6466 2.8135-1.3068 1.9944-2.7614 2.785-4.3564 2.3679-1.4791-0.3868-3.0479 0.29955-4.1034 1.7952-0.93979 1.3318-3.5368 3.3634-5.7712 4.5147s-4.0625 2.5977-4.0625 3.2142c0 0.61653-2.1094 1.8084-4.6875 2.6486-4.4717 1.4573-8.6958 4.1447-19.574 12.453-2.6874 2.0526-7.1874 4.3486-10 5.1023-2.8126 0.75369-7.1683 2.2164-9.6794 3.2505-4.093 1.6856-5.3953 1.6721-12.58-0.12971-4.4078-1.1054-9.1033-2.0184-10.434-2.0287-2.6311-0.0205-10.159-2.4802-12.845-4.197-1.1458-0.7324-1.424-2.4072-0.88085-5.3024l0.7939-4.2318h-6.8294c-9.7523 0-11.001-0.69784-10.075-5.6318l0.76761-4.0918-10.426 0.55251c-11.768 0.62367-28.71 3.6571-29.742 5.3254-0.37584 0.6075-0.27924 9.7369 0.21468 20.288 0.71251 15.22 0.51883 20.514-0.9375 25.625-2.4518 8.6052-2.3482 9.7506 1.2307 13.612 1.9394 2.0926 3.3394 5.4469 3.8094 9.1269 0.40874 3.2001 1.6383 9.1933 2.7324 13.318 1.0941 4.125 2.1758 11.156 2.4037 15.625 0.22792 4.4688 0.71713 9.3674 1.0872 10.886 0.37001 1.5185 0.7273 9.356 0.79395 17.417 0.0988 11.936 0.53745 15.251 2.3644 17.864 1.6892 2.4159 2.4707 6.9129 3.1644 18.208 1.1484 18.698 1.0676 21.351-0.82894 27.238-1.2973 4.0268-1.2315 5.0335 0.43785 6.7028 1.4921 1.4921 1.7006 2.884 0.86744 5.7892-0.60333 2.1037-0.62263 4.4311-0.0429 5.1722 0.57975 0.74101 1.037 3.2249 1.0161 5.5198-0.0209 2.2948 0.51441 4.5448 1.1895 5 0.77555 0.52285 0.90797 7.2705 0.35967 18.328-0.4773 9.625-0.59142 17.97-0.25363 18.546 0.33781 0.57503 0.58004 11.263 0.53831 23.75-0.0457 13.691 0.64278 27.63 1.7345 35.112 0.9957 6.8242 1.8104 14.582 1.8104 17.24 0 3.0268 0.89114 5.7886 2.3852 7.3923 2.1797 2.3396 2.9605 2.4421 9.0625 1.1892 3.6725-0.75408 11.39-1.5918 17.151-1.8616 6.9934-0.32753 10.825-1.0515 11.531-2.1789 1.4044-2.2421 0.25244-57.798-1.3309-64.188-0.68136-2.75-1.3012-11.75-1.3775-20s-0.51924-19.991-0.98439-26.09c-0.64907-8.5116-0.47161-11.234 0.76328-11.708 1.0903-0.41839 1.3618-1.9349 0.84231-4.7042-0.4269-2.2756-0.20758-4.4324 0.49487-4.8665 0.7325-0.45271 1.0172-3.9306 0.67888-8.293-0.32049-4.1324-0.16118-8.1954 0.35401-9.029 1.4485-2.3437 1.8269-10.348 1.3816-29.226-0.13215-5.6036 0.44565-8.6223 2.1475-11.22 1.8059-2.7562 2.4254-6.5052 2.7611-16.709 0.75675-23.004 2.4601-36.474 5.7199-45.229 1.7045-4.5782 3.478-10.344 3.9412-12.812 0.47272-2.5198 1.5824-4.4884 2.5301-4.4884 0.92843 0 3.4928-2.8125 5.6987-6.25 2.2058-3.4375 4.7957-6.25 5.7553-6.25 1.8115 0 1.8762 0.12577 2.3531 4.5738 1.0801 10.075 2.2217 16.085 3.7139 19.555 2.6034 6.0535 6.9277 20.143 6.9277 22.572 0 1.182 1.1152 4.3351 2.4782 7.0069 1.363 2.6717 2.862 8.123 3.331 12.114 0.46906 3.9909 2.0437 10.361 3.4991 14.155 2.0996 5.4736 2.4076 7.8313 1.4909 11.413-0.88637 3.463-0.67736 5.4723 0.89768 8.6295 1.1292 2.2635 2.0531 5.3987 2.0531 6.9671s0.5834 4.386 1.2964 6.2615c0.89527 2.3547 0.89527 3.8111 0 4.7064-1.4988 1.4988-1.7405 7.4358-0.35895 8.8173 0.51563 0.51562 0.98608 1.3125 1.0455 1.7708 0.0594 0.45834 0.55763 1.8599 1.1072 3.1147 0.57547 1.3138 0.3038 4.4947-0.6405 7.5-1.7491 5.5664-1.6791 9.9541 0.16955 10.635 1.5956 0.58798 1.4064 3.6404-0.29076 4.6893-2.055 1.2701-6.018-4.4658-6.0507-8.7576-0.0152-2.0084 0.94249-4.7237 2.1284-6.0341 2.0452-2.26 2.0239-2.7475-0.41405-9.4734-1.8146-5.0062-2.2802-8.1626-1.5836-10.736 1.1806-4.3624 0.0524-14.404-1.8937-16.854-0.7644-0.96239-1.7425-6.3061-2.1736-11.875-0.75875-9.801-2.2229-16.721-7.432-35.125-5.0017-17.672-7.6873-26.345-9.3909-30.33-0.95931-2.2438-2.0778-6.4626-2.4854-9.375-1.1817-8.4422-1.6112-9.2223-3.5501-6.4487-6.9463 9.9365-13.946 29.74-14.988 42.403-0.39599 4.8125-1.0224 15.219-1.392 23.125-0.69772 14.925-1.3567 18.839-3.3922 20.149-1.2127 0.78008-1.3287 3.2968-1.1416 24.771 0.0565 6.4868-0.39217 12.393-0.99709 13.125-0.63557 0.76908-0.58782 4.1414 0.11313 7.9887 0.85992 4.72 0.80437 7.1501-0.19085 8.3493-0.77209 0.93031-1.7554 3.5593-2.1851 5.8422-0.92062 4.891-0.55682 48.858 0.47908 57.901 1.3051 11.393 1.4983 16.03 1.8018 43.241 0.16558 14.845-0.0612 27.577-0.50406 28.293-0.44279 0.71647-3.3876 1.6899-6.5441 2.1633-4.4088 0.66115-5.5713 1.2977-5.0154 2.7465 0.39801 1.0372 0.72366 3.5159 0.72366 5.5082 0 2.9564 0.90248 4.0828 4.9091 6.1268 5.1767 2.641 7.0316 5.9011 5.7159 10.046-0.45517 1.4341-0.22462 2.5 0.54077 2.5 2.0002 0 1.5568 19.703-0.57682 25.625-0.99071 2.75-1.8098 5.995-1.8201 7.2111-0.0478 5.6092-14.064 25.914-17.888 25.914-0.61141 0-2.4582 1.0592-4.104 2.3538-1.6901 1.3294-6.1279 2.7114-10.197 3.1754-3.9626 0.45189-8.611 1.0407-10.33 1.3084-1.7188 0.26776-6.1002-0.3956-9.7365-1.4741zm166.11-5.051 0.12463-3.4375 0.86413 3.125c1.1086 4.0091 4.6556 4.4749 9.8242 1.29 4.5318-2.7924 5.1985-6.9201 2.4295-15.04-2.1317-6.2511-5.334-5.845-4.9288 0.625l0.31313 5-1.8095-4.0487c-2.2543-5.0439-6.0677-4.4776-4.993 0.74149l0.681 3.3072-2.0199-3.514c-2.5282-4.3983-6.9808-4.1883-8.2466 0.38896-0.75309 2.7234-0.88015 2.5449-0.98874-1.3888-0.10725-3.8847-1.2727-5.5833-8.3622-12.188-4.5307-4.2205-8.7138-7.6737-9.2958-7.6737-0.58202 0-1.3012 1.5469-1.5981 3.4375-0.29692 1.8906-0.39072 1.3627-0.20843-1.1732 0.2256-3.1386-0.37259-5.2478-1.8735-6.6062-2.0811-1.8834-2.2533-1.5043-3.0665 6.7482-0.61003 6.1909-0.39462 9.5794 0.73786 11.606 1.5714 2.8123 1.6136 2.7858 2.4062-1.5125 0.78554-4.2598 0.8111-4.225 0.97133 1.3236 0.0905 3.1342 0.96812 6.7905 1.9503 8.125 2.0974 2.85 2.3494 2.3555 4.1783-8.1986 1.1134-6.4253 1.1518-6.2209 0.58681 3.125-0.54654 9.0407-0.34941 10.229 2.055 12.388 1.4627 1.3135 3.0192 2.0284 3.4589 1.5888 0.43964-0.43965 0.69843-4.4674 0.5751-8.9507-0.14668-5.3315 0.2616-8.1513 1.1802-8.1513 0.94569 0 1.2707 2.8947 0.99504 8.862-0.35084 7.5945-0.0645 9.1141 2.0017 10.625 3.6526 2.6709 4.4151 2.1896 4.6333-2.9244l0.20004-4.6875 0.52665 4.3641c0.80616 6.6804 6.4715 9.0685 6.6979 2.8234zm-134.41-3.4416c9.284-6.3942 13.787-13.282 13.279-20.308-0.54832-7.5783-1.1397-7.3415-11.402 4.5663-2.4034 2.7888-3.2508 6.3226-2.8015 11.684 0.10088 1.2031-0.44445 2.1875-1.2117 2.1875-0.92745 0-1.127-1.6759-0.59549-5 0.67925-4.2478 0.46822-4.9971-1.4027-4.9809-3.8283 0.0332-5.2802 1.8248-6.4189 7.9201-1.4297 7.653-3.0344 9.326-1.9315 2.0138 0.46271-3.0679 0.91035-6.0703 0.99473-6.6718 0.2314-1.6495-2.1144-2.1374-4.135-0.86004-0.9967 0.63008-1.8992 3.4142-2.0386 6.2891-0.35101 7.238-1.798 7.9406-1.798 0.87304 0-4.9155-0.37699-5.8333-2.3958-5.8333-1.4759 0-2.8779 1.3198-3.6513 3.4375l-1.2555 3.4375-0.0986-4.0185c-0.10563-4.3023-4.6234-8.3939-5.6289-5.0979-2.3917 7.8403-2.9753 12.872-1.5948 13.75 2.6582 1.6897 4.6783 1.0595 5.836-1.8207 1.0692-2.66 1.1348-2.6174 1.2097 0.78561l0.0793 3.5981 10.002-0.57899c9.0961-0.52656 10.632-1.0129 16.96-5.3713zm6.3717-8.9542c-1.2496-1.2496-1.0034-8.914 0.3125-9.7273 0.6302-0.38948 1.1458 1.8273 1.1458 4.9262 0 5.8731-0.09 6.1694-1.4583 4.801zm-40.765-10.19c-0.46136-2.7995-1.1311-4.0136-1.7073-3.095-1.444 2.3019-2.5834 17.361-1.5097 19.952 1.4039 3.3889 4.1673-11.092 3.2171-16.857zm189.92 10.88c0-2.0561-0.8354-5.3538-1.8564-7.3282-1.2171-2.3536-1.3978-3.7428-0.52465-4.0339 1.6357-0.54523-1.139-7.252-3.0003-7.252-1.5253 0-0.32439 13.97 1.6922 19.686 1.6927 4.7981 3.6892 4.218 3.6892-1.0719zm-176.5-5.31c-1.3659-1.0379-1.8731-2.59-1.4167-4.3352 1.038-3.9694-0.34693-3.3211-2.6141 1.2236-2.5252 5.0619-2.634 4.8145 2.096 4.7682 3.5891-0.0351 3.8146-0.22818 1.9349-1.6565zm6.3803-3.4903c1.6546-4.7464 1.6583-4.8135 0.26808-4.8135-0.60732 0-1.3872 0.98437-1.7332 2.1875-0.34593 1.2031-1.0342 3.1719-1.5295 4.375-0.50766 1.2332-0.35021 2.1875 0.36092 2.1875 0.6938 0 1.879-1.7714 2.6337-3.9365zm8.965 1.0621c-0.051-0.48159-0.0927-2.2819-0.0927-4.0006 0-3.8897-2.0312-4.0874-3.2092-0.3125-0.48275 1.5469-1.4365 3.1715-2.1194 3.6102-2.1976 1.4119 0.27337 3.5171 2.9611 2.5229 1.4041-0.51941 2.5112-1.3384 2.4602-1.82zm131.68-3.8217c-0.43349-1.1296-1.3103-2.0539-1.9484-2.0539-0.63854 0-0.53287 1.1723 0.23501 2.6071 1.5917 2.9741 2.9043 2.5503 1.7134-0.55315zm-144.28-0.8c0-0.6875-0.5625-1.25-1.25-1.25s-1.25 0.5625-1.25 1.25 0.5625 1.25 1.25 1.25 1.25-0.5625 1.25-1.25zm16.25-0.69878c0-1.0718-0.5625-1.6011-1.25-1.1762s-1.25 1.3018-1.25 1.9488c0 0.64692 0.5625 1.1762 1.25 1.1762s1.25-0.87695 1.25-1.9488zm19.266-0.094c0.95987-2.5014-0.4106-10.457-1.8014-10.457-1.533 0-1.9385 2.1608-1.4219 7.577 0.48959 5.1338 1.8813 6.3774 3.2233 2.8802zm-12.761-2.1051c5.1541-5.2054 6.3195-7.0788 6.7606-10.867 0.61011-5.24-1.7258-4.6796-2.7264 0.6541-0.45284 2.4138-1.4177 4.7561-2.1441 5.205-0.83083 0.51347-1.0154 0.0206-0.49762-1.3287 0.4527-1.1797 0.31033-1.8281-0.31641-1.4407-0.62673 0.38733-1.5087 2.3853-1.96 4.4399-0.45126 2.0546-1.3383 3.7356-1.9712 3.7356-0.63286 0-1.1507 0.5625-1.1507 1.25 0 1.8867 0.85365 1.5355 4.0057-1.6479zm130.72-1.909c0.35822-1.0758-0.24282-1.5262-1.6678-1.25-1.2253 0.23752-2.4799 1.1887-2.7879 2.1138-0.35823 1.0758 0.24281 1.5262 1.6678 1.25 1.2253-0.23753 2.4799-1.1887 2.7879-2.1138zm-143.04-2.54c5.104-2.9069 19.559-22.512 19.559-26.528 0-2.5948-1.0333-3.714-5.1373-5.5647-2.8255-1.2741-6.8225-3.8908-8.8822-5.8148-3.9069-3.6496-7.4858-4.6202-7.1372-1.9357 0.42326 3.2596-0.17071 4.4162-2.5933 5.0497-1.4707 0.3846-2.5 1.705-2.5 3.2072 0 1.4424-1.8771 3.9852-4.3139 5.8438-4.9182 3.7513-10.686 14.352-10.686 19.639 0 2.1373 1.2564 4.8178 3.1422 6.7036 2.7938 2.7938 3.7986 3.0473 9.0625 2.2867 3.2562-0.47054 7.525-1.7695 9.4864-2.8865zm-2.7067-12.734c0.30078-0.90233 1.2852-1.8867 2.1875-2.1875 0.9375-0.3125 1.4063 0.15625 1.0938 1.0938-0.30078 0.90234-1.2852 1.8867-2.1875 2.1875-0.9375 0.3125-1.4062-0.15625-1.0938-1.0938zm-12.734-3.6719c0-0.6875 0.84375-1.25 1.875-1.25s1.875 0.5625 1.875 1.25-0.84375 1.25-1.875 1.25-1.875-0.5625-1.875-1.25zm16.907-2.4481c-0.44854-0.72575 0.0881-1.6663 1.1926-2.0901 2.7499-1.0552 3.6053 0.1045 1.4168 1.9208-1.232 1.0224-2.0494 1.0755-2.6094 0.1693zm-7.5321-3.8019c0.4249-0.6875 1.335-1.25 2.0225-1.25s0.90236 0.5625 0.47746 1.25-1.335 1.25-2.0225 1.25-0.90236-0.5625-0.47746-1.25zm10.625-6.0121c0-0.67124 0.89075-1.5622 1.9794-1.98 1.2174-0.46717 1.7888-0.1878 1.4844 0.72563-0.62284 1.8686-3.4638 2.8974-3.4638 1.2544zm2.9913 30.285c1.3665-3.5611 0.71759-4.9485-1.156-2.4714-1.0094 1.3345-1.8352 2.8814-1.8352 3.4375 0 1.7892 2.2075 1.0762 2.9913-0.96615zm120.34-2.3137c-1.7052-4.4436-3.2401-1.4723-2.1844 4.2285 0.0572 0.30938 0.74135-0.0747 1.5201-0.85347 0.77879-0.77879 1.0777-2.2975 0.66424-3.375zm-20.51-14.2c-0.54709-1.4257-0.84292-1.4352-1.7178-0.055-1.0991 1.7339-1.7452-2.8881-1.2244-8.7592 0.17468-1.9693-0.22231-2.6287-1.2137-2.016-1.7812 1.1009-0.39738 17.221 2.1038 24.506 0.80985 2.3588 1.1761 1.4714 1.8607-4.5081 0.46878-4.0948 0.55493-8.22 0.19143-9.1673zm39.619 11.397c0.30628-0.26482 0.50751-2.7263 0.44716-5.47-0.14542-6.6122-5.2776-16.743-12-23.689-2.9943-3.0938-5.8056-6.6094-6.2472-7.8125-0.9566-2.606-10.881-3.2192-10.881-0.67231 0 0.83335-2.3214 3.8806-5.1588 6.7716l-5.1588 5.2564 2.552 3.5409c4.1483 5.7558 18.988 19.422 23.698 21.822 3.842 1.9588 10.621 2.0932 12.75 0.25285zm-15.994-10.347c0.53714-1.6114 2.2516-1.9009 2.4062-0.40625 0.0515 0.49844-0.58125 1.1312-1.4062 1.4062-0.825 0.275-1.275-0.175-1-1zm5.4375-7.5625c-0.4249-0.6875 0.10437-1.25 1.1762-1.25s1.9488 0.5625 1.9488 1.25-0.5293 1.25-1.1762 1.25c-0.64692 0-1.5239-0.5625-1.9488-1.25zm-13.75-2.5c0.4249-0.6875 1.3018-1.25 1.9488-1.25 0.64693 0 1.1762 0.5625 1.1762 1.25s-0.87695 1.25-1.9488 1.25-1.6011-0.5625-1.1762-1.25zm5-6.25c-0.4249-0.6875 0.10437-1.25 1.1762-1.25s1.9488 0.5625 1.9488 1.25-0.5293 1.25-1.1762 1.25c-0.64692 0-1.5239-0.5625-1.9488-1.25zm-8.125-3.75c0-0.6875 0.5625-1.25 1.25-1.25s1.25 0.5625 1.25 1.25-0.5625 1.25-1.25 1.25-1.25-0.5625-1.25-1.25zm0.88481 26.665c-0.28657-5.0574-3.3724-7.511-3.404-2.7065-0.0154 2.3417-0.258 2.547-1.2309 1.0417-0.80781-1.25-1.2181-1.3542-1.2309-0.3125-0.0179 1.4639 4.2965 6.5625 5.5532 6.5625 0.31478 0 0.4554-2.0633 0.3125-4.5852zm-92.135-1.2788c0-3.2262-0.0751-3.2646-1.8352-0.9375-2.3618 3.1226-2.3727 4.3014-0.0397 4.3014 1.2022 0 1.875-1.2071 1.875-3.3639zm-3.75-4.4422c0-0.69729-0.82908-0.56193-1.875 0.30611-1.6014 1.329-1.8907 0.94097-1.9824-2.6594l-0.1075-4.2156-1.0695 3.5685c-1.2624 4.2122 0.88998 7.6394 3.4719 5.5281 0.85937-0.70274 1.5625-1.8402 1.5625-2.5277zm2.5-4.8414c0-0.6875-0.5625-0.90236-1.25-0.47746s-1.25 1.335-1.25 2.0225 0.5625 0.90236 1.25 0.47746 1.25-1.335 1.25-2.0225zm85 0.14754c0-0.6875-0.5625-1.25-1.25-1.25s-1.25 0.5625-1.25 1.25 0.5625 1.25 1.25 1.25 1.25-0.5625 1.25-1.25zm-87.5-4.8978c0-0.63128 0.32717-2.1782 0.72705-3.4375 0.66529-2.0953 0.55914-2.0837-1.25 0.13667-2.2641 2.7786-2.537 4.4486-0.72705 4.4486 0.6875 0 1.25-0.5165 1.25-1.1478zm88.574-14.76c3.8479-3.9901 4.0321-4.5218 2.2011-6.3528s-2.2871-1.7835-5.4494 0.56712c-1.8981 1.411-3.6261 4.0258-3.84 5.8107-0.25594 2.1357-0.97111 3.0219-2.0916 2.5919-1.6665-0.63949-4.3944 2.9674-4.3944 5.8103 0 2.074 8.5906-3.2592 13.574-8.4272zm-85.53 4.7876c0.92849-1.5023-3.825-7.2586-5.015-6.073-1.1556 1.1514 1.4648 7.1928 3.1199 7.1928 0.66168 0 1.5145-0.50391 1.8951-1.1198zm-38.152-3.4021c2.399-3.0498 2.503-5.4781 0.23463-5.4781-0.82532 0-1.9478 1.7975-4.8784 7.8125-1.1444 2.3488 2.3364 0.59903 4.6438-2.3344zm29.55-0.16557c-0.99629-4.1316-3.8878-6.5625-7.806-6.5625-4.1194 0-3.5966 3.0088 1.1764 6.7705 5.4596 4.3028 7.7004 4.2325 6.6296-0.20804zm-19.748-10c0.74065-2.249-2.8358-1.9262-4.7934 0.43255-1.4456 1.7418-1.2791 1.9402 1.3115 1.5625 1.632-0.2379 3.1988-1.1357 3.4819-1.995zm7.0083 0.3125c-0.76075-1.9825-2.952-2.601-2.952-0.83334 0 1.3219 1.3664 2.7083 2.6691 2.7083 0.55134 0 0.67866-0.84375 0.28294-1.875zm102.05-0.0738c0-1.0718-0.5625-1.6011-1.25-1.1762s-1.25 1.3018-1.25 1.9488c0 0.64692 0.5625 1.1762 1.25 1.1762s1.25-0.87695 1.25-1.9488zm30.523 1.19c2.749-1.0549 2.4768-2.9913-0.42052-2.9913-3.5364 0-6.437 1.3516-5.6463 2.631 0.80224 1.298 3.245 1.4431 6.0668 0.36028zm-21.773-4.2245c0-0.67828-2.0374-2.0845-4.5276-3.125-5.4244-2.2665-5.8176-2.3024-5.2086-0.4754 0.25967 0.779 2.4159 2.1181 4.7917 2.9759 2.3757 0.85771 4.4602 1.6266 4.632 1.7086 0.17187 0.082 0.3125-0.40581 0.3125-1.0841zm11.25 0.30893c0-0.53019-1.9688-1.5802-4.375-2.3333-2.4062-0.75315-4.375-0.89079-4.375-0.30587s0.5957 1.0635 1.3238 1.0635c0.72808 0 1.0482 0.44581 0.71148 0.9907-0.33675 0.54489 1.0363 1.1163 3.0512 1.2699 2.0149 0.15353 3.6635-0.15465 3.6635-0.68485zm-131.7-2.21c2.0351-2.0351 1.7322-2.29-1.3263-1.1163-1.0875 0.4173-1.9772 1.261-1.9772 1.875 0 1.637 1.1785 1.3663 3.3036-0.75874zm12.62-0.625 4.6645-2.5h-5.919c-5.5979 0-7.6066 1.6457-5.0856 4.1667 1.1378 1.1378 1.0787 1.1533 6.3402-1.6667zm114.08-2.9084c1.0312 0.0259 3 0.50291 4.375 1.0602 1.9794 0.8022 1.8577 0.47924-0.58419-1.5508-1.6963-1.4102-3.665-2.3943-4.375-2.1869-0.70995 0.20741-2.8607 0.72182-4.7794 1.1432-1.9187 0.42133-3.137 1.335-2.7073 2.0302 0.43469 0.70335 1.9824 0.86336 3.4886 0.3607 1.489-0.49694 3.551-0.88238 4.5823-0.85654zm-66.52-326.92c2.5507-1.2796 5.2988-2.0904 6.1068-1.802 2.0235 0.72245 10.703-3.8617 15.823-8.3563 2.3299-2.0457 7.1051-5.0486 10.612-6.6732 7.3039-3.3839 15.201-8.5251 15.213-9.9046 0.005-0.51563-3.4266-0.9375-7.6252-0.9375-6.272 0-7.5054 0.33447-6.9142 1.875 0.49819 1.2983-0.0845 1.875-1.8943 1.875-2.1687 0-2.3518-0.31579-1.0749-1.8543 1.2726-1.5334 1.0042-2.0576-1.5515-3.0292-3.1378-1.193-4.6819-3.6363-4.6806-7.4062 0.00065-1.8832-2.3043-2.0597-23.79-1.8218-13.085 0.14492-24.328 0.59535-24.984 1.001-0.65627 0.4056-2.3456 4.787-3.7539 9.7365-1.4084 4.9495-3.4593 11.721-4.5575 15.049-1.8927 5.734-1.8741 6.172 0.35649 8.3994 1.5357 1.5335 5.5843 2.8076 11.653 3.6672 5.115 0.72449 9.5681 1.5854 9.8958 1.9131 1.3147 1.3147 6.786 0.46675 11.166-1.7307zm-7.8762-10.196c-1.1437-1.8505-0.0585-2.7964 2.6107-2.2755 1.9528 0.3811 1.9735 0.58377 0.20911 2.0462-1.4057 1.1651-2.2015 1.2298-2.8198 0.22934zm-13.742-1.2364c-0.94909-1.5357 2.491-3.0339 4.341-1.8906 0.73163 0.45218 1.0066 1.3458 0.61108 1.9858-0.95405 1.5437-3.9751 1.4856-4.9521-0.0952zm26.88 0.14257c0-1.405 3.2514-2.7157 4.2528-1.7143 1.5047 1.5047 0.6837 2.8305-1.7528 2.8305-1.375 0-2.5-0.50233-2.5-1.1163zm7.5-8.125c0-0.9577 0.85676-2.07 1.9039-2.4719 1.5533-0.59606 1.6603-0.27541 0.58102 1.7413-1.5508 2.8976-2.485 3.1722-2.485 0.7306zm-25.625-4.5423c-2.3315-0.88423-2.3489-1.0097-0.25859-1.8617 2.4192-0.98607 3.9131-0.21637 3.2013 1.6494-0.2435 0.63823-1.5677 0.73376-2.9427 0.21229zm-6.0756-4.5838c-1.4077-1.4077-0.85736-2.8827 1.0756-2.8827 1.0312 0 1.875 0.5293 1.875 1.1762 0 1.5762-1.952 2.7051-2.9506 1.7065zm19.201-0.87395c0-1.877 3.0341-3.5579 4.242-2.3501 0.88152 0.88153-1.5859 4.0914-3.145 4.0914-0.60333 0-1.097-0.78358-1.097-1.7413zm-34.4 12.679c3.267-14.181 4.2435-18.087 4.9571-19.826 0.64844-1.58-0.19676-2.1822-3.9281-2.7988-2.6149-0.4321-6.3403-0.79182-8.2788-0.79939-2.9518-0.0113-3.4547 0.44319-3.0953 2.7987 0.23601 1.5469 1.1189 2.6719 1.9619 2.5 2.8697-0.58505 1.5442 4.4812-2.5914 9.9042-4.5588 5.9782-6.0889 9.1535-4.9563 10.286 0.41096 0.41097 4.0177 0.74721 8.015 0.74721 6.5117 0 7.3353-0.29261 7.9158-2.8125zm-9.9365-0.87479c-0.76837-1.2433 3.0715-3.8127 5.6978-3.8127 0.95569 0 0.68045 0.93422-0.73656 2.5-2.4926 2.7543-3.8485 3.1131-4.9612 1.3127zm7.7633-12.719c-1.1974-0.6701-2.1771-1.7529-2.1771-2.4062 0-1.9536 3.7692-1.3422 4.5686 0.74102 0.99639 2.5965 0.22829 3.1314-2.3916 1.6652zm-55.771 7.6559c0.28132-4.5011 0.4539-5.0003 1.7188-4.9718 0.6875 0.0155 1.25 1.5132 1.25 3.3281s0.63784 3.5148 1.4174 3.7776c2.1881 0.73743 5.4576-3.2154 5.4576-6.5982 0-2.7165-0.53439-3.0357-5.0822-3.0357-6.3548 0-9.9178 1.8386-9.9178 5.1178 0 1.3914-0.5625 2.1822-1.25 1.7572-0.6875-0.4249-1.25-1.8644-1.25-3.1988 0-2.2607-2.4486-3.3109-4.0307-1.7289-1.4014 1.4014 0.69803 5.79 3.2663 6.8277 4.8195 1.9473 8.2518 1.4276 8.4207-1.2751zm22.867-0.75874c2.667-1.0234 2.7579-9.2413 0.10224-9.2413-1.0312 0-1.918 0.70312-1.9706 1.5625-0.41321 6.7508-1.9151 8.5107-3.0097 3.5269-0.4638-2.1117-1.2922-3.8394-1.8409-3.8394-1.4552 0-3.3413 2.7108-4.1312 5.9375-0.62337 2.5464-0.23625 2.8125 4.0922 2.8125 2.6294 0 5.6705-0.34143 6.758-0.75874zm9.4772-2.889c0-1.3188 0.34143-3.2875 0.75874-4.375 0.56706-1.4777-0.03-1.9772-2.3632-1.9772-2.6374 0-3.2013 0.67912-3.6327 4.375-0.45291 3.8795-0.18529 4.375 2.3632 4.375 1.9998 0 2.874-0.72933 2.874-2.3978zm8.5635 1.0255c4.8149-1.6785 5.2734-5.5722 0.89124-7.5688-4.4624-2.0332-6.5172-0.67114-6.7097 4.4475-0.18609 4.95 0.11288 5.1104 5.8184 3.1214zm-24.448-9.1884c14.197-1.0666 26.004-1.9393 26.239-1.9393 0.23483 0 0.0112-4.0781-0.49603-9.0625-1.5486-15.205-3.4921-50.638-3.7194-67.812-0.11837-8.9375-0.3125-19.906-0.43155-24.375-0.119-4.4688 0.22253-11.781 0.75905-16.25 0.53653-4.4688 2.1089-18.531 3.4941-31.25s3.3622-29.859 4.3933-38.088c1.0311-8.2299 2.0983-19.48 2.3715-25 0.2732-5.5201 0.91293-12.43 1.4216-15.355 2.1174-12.176-4.8101-25.064-19.046-35.433-5.5724-4.0589-10.525-8.8655-12.426-12.061l-3.162-5.3129-3.5115 2.5004c-1.9313 1.3752-4.2684 2.5025-5.1935 2.5051-0.92513 0.002-3.3695 1.021-5.432 2.2632s-6.2812 3.2573-9.375 4.4779c-9.4558 3.7308-30.842 18.156-34.286 23.126-3.3124 4.7799-8.5978 18.822-9.9423 26.415-0.70517 3.9822-0.44617 4.5382 2.6612 5.712 2.3825 0.90004 6.8138 6.2769 14.392 17.463 12.52 18.48 17.957 25.171 19.337 23.795 1.9567-1.9534 1.2306-16.867-1.6442-33.772-3.2788-19.28-4.3028-22.943-9.4647-33.854-3.775-7.9796-4.556-13.131-1.9902-13.13 2.6624 0.001 11.074 26.864 12.917 41.249 0.92465 7.2188 1.9786 14.531 2.342 16.25 1.719 8.129 1.8127 16.326 0.27144 23.75-1.9385 9.3368-4.7165 10.947-5.9366 3.4416-0.68566-4.2183-2.0044-6.4306-7.1374-11.973-1.5343-1.6568-9.0589-12.202-14.878-20.85-3.055-4.5404-8.7006-9.3682-10.955-9.3682-1.421 0-4.6982 15.048-6.4655 29.688l-0.79223 6.5625h4.4772c7.9415 0 17.541 5.757 22.218 13.324 3.9337 6.3649 2.1252 6.344-3.8627-0.0446-6.0536-6.4588-11.048-9.1392-18.136-9.7332l-5-0.41905-0.36396 10.368-0.36398 10.368 9.4768-0.56c5.2122-0.30801 11.001-0.1005 12.864 0.46098 1.8629 0.56155 3.1059 1.1017 2.7622 1.2003-1.5894 0.456-17.329 1.6801-21.104 1.6414l-4.229-0.0435 0.66962 10.156c0.87184 13.223 1.583 14.94 5.7702 13.927 1.7974-0.43472 5.3205-1.8441 7.8291-3.132 5.8116-2.9837 16.871-6.29 17.83-5.3306 1.4756 1.4756 0.6511 2.1959-2.7067 2.3643-3.0396 0.15245-9.7762 3.0162-20.622 8.7666-1.8906 1.0024-3.4375 2.6417-3.4375 3.6429 0 2.8468 9.8027 24.332 11.049 24.217 0.45429-0.042 2.5135-2.3849 4.576-5.2064 3.8288-5.2378 11.815-10.363 14.666-9.4112 0.87124 0.29078-0.54389 1.5388-3.1447 2.7734-4.8114 2.284-13.396 11.16-13.396 13.851 0 0.81418 3.2808 5.6348 7.2908 10.712 7.3088 9.2549 11.117 13.139 11.983 12.223 0.41055-0.43436 2.2456-38.577 2.3002-47.81 0.0112-1.9632-0.47851-3.932-1.0891-4.375-0.61063-0.44303-1.3188-8.5348-1.5738-17.982-0.5291-19.603 0.67343-23.659 6.6741-22.512 2.2901 0.43778 3.0474 1.2135 2.5905 2.6536-0.35509 1.1192-0.89975 8.9243-1.2104 17.345-0.3106 8.4204-0.77579 15.733-1.0338 16.25-0.60733 1.2174-0.41125 2.7737 0.79533 6.3127 0.54198 1.5897 0.4454 3.5435-0.21627 4.375-2.0386 2.5619-2.8747 12.302-2.9625 34.507-0.0465 11.754-0.58262 21.37-1.1915 21.37-1.7814 0-1.2855 9.0857 1.3164 24.121 1.3329 7.7021 2.6945 18.674 3.0258 24.381 0.55517 9.5639 2.2887 14.771 4.469 13.423 0.48672-0.3008 12.5-1.4196 26.697-2.4862zm9.635-20.654c0-2.584-0.39931-2.7165-5.9375-1.9696-14.353 1.9357-24.244 2.6513-24.775 1.7923-0.93487-1.5126 2.978-2.1322 19.15-3.0324 13.105-0.72947 15.312-0.58418 15.312 1.0077 0 1.023-0.84375 2.5603-1.875 3.4162-1.5708 1.3036-1.875 1.1066-1.875-1.2142zm-38.75-28.515c0-3.5165 39.435-5.0859 42.817-1.704 1.8376 1.8376-1.437 3.097-3.532 1.3584-1.3687-1.1359-5.6993-1.3235-16.508-0.71486-8.0588 0.45377-16.48 1.1622-18.715 1.5742-2.3968 0.44197-4.0625 0.23136-4.0625-0.51363zm2.5-28.304c0-1.2674 4.302-1.8796 18.033-2.566 16.365-0.81807 29.362-0.12918 27.761 1.4714-0.3432 0.3432-8.9592 0.81724-19.147 1.0534-10.188 0.23618-20.351 0.71655-22.585 1.0675-2.8689 0.45062-4.0625 0.14906-4.0625-1.0264zm33.231-29.527c-2.0042-0.59609-10.149-0.8094-18.1-0.47401-10.871 0.45856-14.101 0.25428-13.023-0.82372 3.146-3.146 37.624-2.4879 37.048 0.70715-0.30663 1.701-1.7187 1.8417-5.9252 0.59058zm-22.294-25.905c-1.8906-0.24811-3.4375-0.952-3.4375-1.5642 0-1.6525 32.096-0.87455 33.79 0.81896 1.0378 1.0378-2.285 1.3764-12.756 1.2998-7.7875-0.0569-15.706-0.3065-17.597-0.5546zm24.467-29.13c-0.73984-0.73984-7.8836-1.6672-15.875-2.0608-11.591-0.57088-14.53-1.0854-14.53-2.544 0-1.3738 1.01-1.6534 4.0625-1.1246 2.2344 0.38705 9.125 0.824 15.312 0.971 12.22 0.29031 15.93 1.3538 14.82 4.2476-0.84384 2.199-1.9523 2.3484-3.7899 0.51078zm5.741-31.649c-1.5194-1.4402-24.79-2.7077-31.723-1.7279-1.449 0.2048-2.624-0.48089-2.8724-1.6762-0.45157-2.1731 0.91267-2.1955 27.731-0.4539 11.852 0.76965 14.527 1.5045 11.79 3.2387-1.8084 1.1458-4.0696 1.4301-4.9251 0.61919zm-38.862-27.186c-1.3412-0.86576-1.3519-1.269-0.0558-2.1068 1.7899-1.1571 42.144-1.7932 45.603-0.71886 5.4377 1.6888-0.22661 2.4781-16.185 2.2551-9.499-0.13269-19.618 0.1823-22.487 0.69998-2.869 0.51769-5.9628 0.45943-6.875-0.12943zm-6.0078-26.055c-1.0056-0.62151-1.5634-1.3447-1.2396-1.607 1.8678-1.5133 32.988-4.4526 40.311-3.8075 12.653 1.1148 8.8664 2.2669-7.6397 2.3244-8.0202 0.028-16.551 0.68056-18.957 1.4502-7.5207 2.4056-10.584 2.8083-12.474 1.6399zm148.73 245.6c0-3.7385-0.41851-4.366-2.9118-4.366-2.2157 0-2.888 0.67235-2.8125 2.8125 0.0604 1.7108-0.63522 2.8125-1.7758 2.8125-1.1911 0-1.7425-0.96616-1.5116-2.6489 0.30505-2.2238-0.1463-2.5514-2.8125-2.0418-6.9585 1.3302-1.6377 7.2702 6.8089 7.6012 4.934 0.19332 5.0153 0.12572 5.0153-4.1695zm10-0.69903c0-4.8077-0.18621-5.0616-3.4375-4.6875-2.9844 0.34339-3.4886 1.0134-3.8255 5.083-0.37079 4.4801-0.21867 4.6875 3.4375 4.6875 3.6401 0 3.8255-0.24627 3.8255-5.083zm6.8581 2.0944c1.5234-1.6438 3.2337-4.0344 3.8008-5.3125 0.94718-2.1349 1.071-2.0952 1.523 0.48864 0.70372 4.0227 5.722 3.7888 7.6099-0.35465 1.8802-4.1266 0.62466-4.5662-9.6514-3.3798l-7.9846 0.9219-0.14037 5.3134c-0.16013 6.0606 0.9052 6.5716 4.8427 2.3229zm21.165-5.2701c2.9922-1.1482 2.3674-2.9913-1.014-2.9913-1.6452 0-3.315 0.84375-3.7108 1.875-0.75677 1.9721 1.2555 2.4476 4.7248 1.1163zm-57.083-3.6094c1.7894-0.63493 1.3266-22.377-0.86499-40.632-4.6034-38.344-4.8148-45.625-1.3248-45.625 1.4903 0 2.033 2.5645 2.6452 12.5 1.7336 28.135 2.4671 33.253 4.6761 32.624 7.8764-2.243 49.158-3.4357 51.117-1.4768 1.7781 1.7781-3.0036 3.1059-8.4356 2.3424-10.147-1.4262-19.449-1.027-37.849 1.6244l-5.9711 0.8604 0.34606 19.189c0.32902 18.244 0.46914 19.188 2.8461 19.178 2.5217-0.01 22.866-2.2895 27.5-3.0808 1.375-0.23476 7.5037-0.47371 13.619-0.53101l11.119-0.10416-0.8837-23.438c-0.48604-12.891-1.1201-25.688-1.409-28.438-0.28894-2.75-0.55821-9.9996-0.59838-16.11-0.0807-12.278-1.9646-23.265-3.9895-23.265-0.72036 0-7.0019 0.88614-13.959 1.9692-8.3278 1.2964-13.183 2.6592-14.212 3.9889-1.1277 1.4576-1.5625 1.5554-1.5625 0.3511 0-1.3207-2.0668-1.4963-9.9126-0.84194-6.2737 0.5232-10.201 0.35974-10.699-0.44529-1.7131-2.7718-6.5815-1.1572-10.851 3.5987-4.1091 4.5772-6.8247 5.8384-20.725 9.6252-0.85937 0.2341-1.5646 1.7089-1.5672 3.2774-0.004 2.1922-1.2321 3.3337-5.3125 4.9359-7.695 3.0215-16.502 4.0088-18.074 2.026-1.6399-2.0689-2.6145-9.9353-4.0635-32.798-0.96468-15.221-1.55-18.723-3.35-20.039-1.5874-1.1607-2.2-3.4223-2.2508-8.3091-0.0675-6.4993 0.0585-6.752 3.9377-7.8948 2.5922-0.76361 4.1372-2.0879 4.375-3.75 0.33569-2.3464 1.3716-2.6047 11.93-2.9744 12.084-0.42319 12.199-0.37127 11.601 5.2513-0.21664 2.0379 0.33684 2.2364 4.2097 1.5099l4.4592-0.83655-0.14267 6.3323c-0.0986 4.3764-0.75636 6.6757-2.1296 7.4442-1.9669 1.1007-1.1252 1.3408 11.065 3.156 4.531 0.67471 10.178-0.68071 9.6066-2.3058-0.27005-0.76808-1.4212-1.2302-2.5581-1.0271-4.031 0.72041-5.167-7.1235-6.4215-44.341-0.74999-22.249 0.18622-27.815 7.1958-42.78 4.4345-9.4674 5.0995-12.09 5.5793-21.999 0.33804-6.9818 1.5072-13.858 3.0816-18.125 2.8104-7.6163 5.4882-22.195 4.2958-23.387-0.42024-0.42023-1.7519 0.0529-2.9592 1.0515-7.0157 5.8024-27.424 11.454-37.679 10.433-6.9336-0.68979-18.9-4.7646-25.708-8.7544l-5.6835-3.3308v13.83c0 11.244 0.56564 15.563 3.0251 23.097 2.5429 7.7899 2.8286 10.137 1.7924 14.726-0.67796 3.0025-1.4302 10.935-1.6717 17.628-0.24147 6.693-0.77635 13.724-1.1886 15.625-0.41228 1.9008-1.2991 8.5184-1.9708 14.706-0.67167 6.1875-1.7348 14.906-2.3625 19.375-0.62772 4.4688-1.4796 12.344-1.8931 17.5-0.41347 5.1562-1.5048 13.594-2.4253 18.75-1.862 10.431-1.6452 48.051 0.45041 78.125 0.67068 9.625 1.225 21.592 1.2318 26.593 0.0125 8.7576 0.13931 9.1429 3.4499 10.432 5.9846 2.3297 29.631 4.2374 48.107 3.881 9.8068-0.18915 18.535-0.59377 19.395-0.89916zm9.0602-12.991c0-1.3437 1.587-1.6665 18.807-3.8245 12.183-1.5268 22.443-0.62236 22.443 1.9785 0 0.93781-0.24055 1.7051-0.53455 1.7051s-4.8232-0.59649-10.065-1.3255c-6.4612-0.89867-10.818-0.92045-13.528-0.0676-6.4238 2.0214-17.123 2.9799-17.123 1.534zm0.69085-52.534c-0.47155-0.76301 0.4278-1.8366 2.0464-2.4428 4.1338-1.5482 27.189-4.273 31.638-3.739 6.0929 0.73141 3.6071 2.9843-2.838 2.572-5.1492-0.3294-19.198 1.826-27.333 4.1936-1.4693 0.42759-3.05 0.16488-3.5127-0.5838zm-49.75-4.64c4.9334-1.3221 3.0378-2.3717-4.6007-2.5473-5.3279-0.1225-7.6024 0.32262-8.0858 1.5824-0.51208 1.3345 0.5859 1.7487 4.6006 1.7357 2.9003-0.01 6.5389-0.35625 8.0858-0.7708zm6.5625-3.5871c0-1.0312-0.5625-1.875-1.25-1.875s-1.25 0.84375-1.25 1.875 0.5625 1.875 1.25 1.875 1.25-0.84375 1.25-1.875zm-8.8782-6.7811c-1.4867-2.0108-3.9973-3.9809-5.5791-4.3779-1.5818-0.39702-3.2091-1.7712-3.6162-3.0538-0.90342-2.8464 1.2383-8.9122 3.1468-8.9122 0.76181 0 1.133-0.70312 0.82484-1.5625-0.30813-0.85937-0.054-2.5469 0.56482-3.75 0.86665-1.685 0.61251-2.1914-1.1064-2.2046-1.2273-0.01-3.3647-0.32163-4.7497-0.69384-2.353-0.63235-2.4968-0.1595-2.1916 7.2046 0.17967 4.3347 0.55268 10.131 0.82892 12.881 0.27623 2.75 0.55931 5.7031 0.62906 6.5625 0.0849 1.0463 2.4103 1.5625 7.0392 1.5625h6.9124l-2.703-3.6561zm18.253-1.7682c5.5966-1.3517 8.9627-3.3056 13.058-7.5797 2.4334-2.5398 5.5253-4.4961 7.1061-4.4961 1.5391 0 4.2413-0.54857 6.0048-1.2191 2.6859-1.0212 3.2064-2.011 3.2064-6.0974 0-4.4812-2.3667-12.154-4.3589-14.132-0.45613-0.45279-2.5425-0.33192-4.6364 0.2686-2.2187 0.63631-9.0802 0.58943-16.446-0.11238l-12.639-1.2042-4.6116 4.8958c-6.0317 6.4035-7.6881 9.6696-6.7664 13.342 0.50274 2.003 0.22098 3.0086-0.84302 3.0086-2.0648 0-5.0218 4.7172-3.9968 6.3758 1.1295 1.8276 13.502 0.22265 22.15-2.8735 7.6173-2.7269 8.9381-2.6173 7.689 0.63771-0.75187 1.9594-11.711 5.86-16.464 5.86-3.3535 0-4.328 1.3182-2.5543 3.4554 1.4329 1.7266 6.6124 1.679 14.101-0.1296zm-11.865-16.138c0.01-1.5475 6.2135-5.131 7.1908-4.1536 0.72992 0.72992-4.4608 5.7161-5.9506 5.7161-0.6875 0-1.2456-0.70313-1.2402-1.5625zm58.74-0.83386c0-5.1926-3.4219-14.376-7.4802-20.076-2.2841-3.2078-2.2251-5.0278 0.16312-5.0278 1.8609 0 5.807 9.3265 8.0802 19.097 1.6129 6.9327 2.7904 9.6466 4.1788 9.6309 3.5826-0.0405 23.112-3.4924 32.263-5.7028l9.08-2.1932-0.81077-4.4786c-2.2453-12.403-5.5083-19.822-11.101-25.243-3.0924-2.997-5.6226-5.8792-5.6226-6.405 0-2.2954 3.6879-0.60142 7.9334 3.6441 3.3915 3.3914 5.4167 7.1852 7.7083 14.44 1.7096 5.4117 3.1083 10.567 3.1083 11.456 0 0.88921 1.0154 2.5357 2.2566 3.6589 2.0937 1.8948 2.5673 1.8645 6.5625-0.41968 2.3683-1.354 7.1184-3.9374 10.556-5.7409 10.139-5.3196 10.625-6.0331 10.625-15.606 0-10.51-1.4659-14.546-5.9151-16.284-4.2455-1.6588-20.31-2.0852-27.522-0.73037-4.2872 0.80527-5.3125 0.64432-5.3125-0.83393 0-3.6255 16.261-5.5182 29.174-3.3957l6.049 0.99423-0.56942-5.1312c-0.87296-7.8665-6.1643-27.006-7.4661-27.006-2.5838 0-17.507 9.2801-23.303 14.491-3.4087 3.0647-6.4975 5.0871-6.864 4.4941-1.3763-2.2269 3.4452-6.6294 16.791-15.331 9.8843-6.4451 13.603-9.5414 13.211-11-0.30017-1.1162-1.8001-7.748-3.3331-14.737-3.0056-13.703-4.3266-16.985-5.8768-14.6-0.91896 1.4139-14.637 16.776-22.335 25.013-3.6309 3.8847-6.7783 5.4058-6.6888 3.2325 0.0213-0.51563 3.7322-4.5938 8.2465-9.0625 4.5144-4.4688 9.8384-10.473 11.831-13.343 1.9928-2.8697 5.0844-6.367 6.8702-7.7717 2.8238-2.2212 3.14-3.1703 2.4261-7.2823-0.82959-4.7788-7.5713-22.69-10.229-27.177-1.2532-2.1154-1.7151-2.2064-3.535-0.69595-4.402 3.6533-8.385 13.749-18.995 48.144-2.2409 7.2647-3.0992 24.998-1.6032 33.125 2.4808 13.477 4.0457 18.27 6.7758 20.755 3.3757 3.0726 5.0603 7.4538 3.2875 8.5494-0.68097 0.42086-1.8631-0.40257-2.627-1.8299-1.0324-1.929-2.0912-2.376-4.1252-1.7415-1.505 0.46945-3.0176 1.2645-3.3614 1.7668-0.34375 0.50226-4.5625 1.8681-9.375 3.0351-4.8125 1.1671-11.281 3.0054-14.375 4.0851-8.1657 2.8499-24.975 10.853-24.988 11.898-0.006 0.49144 1.1172 1.4977 2.4971 2.2362 4.0264 2.1549 11.356 17.859 10.45 22.39-1.2534 6.2672-0.0215 7.6053 7.0022 7.6053h6.2892v-4.8964zm19.231-6.3615c1.1925-7.4572-1.3322-15.437-6.877-21.736-4.8752-5.5385-6.0246-8.2561-3.4921-8.2561 2.0398 0 5.9222 4.8931 9.1422 11.522 3.2446 6.6796 4.6055 23.478 1.902 23.478-1.022 0-1.2296-1.5396-0.675-5.0078zm-84.059-6.3657c1.6243-2.1304 4.0782-5.0094 5.4532-6.3976l2.5-2.5241-10.613 0.88476c-5.8373 0.48663-10.947 1.0908-11.354 1.3426-1.7311 1.0699 0.49477 7.6612 3.0099 8.9132 4.8913 2.4348 7.9223 1.8236 11.004-2.2188zm-91.038-10.28c1.0506-2.7378 0.61238-24.612-0.50693-25.304-1.8601-1.1496-2.8894 6.8314-2.55 19.773 0.17641 6.7267 1.6056 9.3124 3.0569 5.5304zm92.132-2.8681c11.154-0.7566 13.75-1.4558 13.75-3.7036 0-1.4259-1.0629-1.8285-4.0625-1.5387-3.6177 0.3495-4.1058 0.0161-4.458-3.045-0.40056-3.4812-1.0085-3.7784-7.7295-3.7784-8.3282 0-10 0.37563-10 2.2468 0 1.0483-1.4062 2.4406-3.125 3.0941-1.7188 0.65346-3.125 1.9998-3.125 2.9918 0 0.99204-0.37574 2.7829-0.83497 3.9796-0.75131 1.9579-0.21892 2.0822 5.3125 1.2402 3.3811-0.51464 9.8037-1.1837 14.272-1.4868zm44.712-10.887c6.0019-2.9768 15.131-6.6534 20.288-8.1702 17.02-5.0067 18.469-5.4711 19.971-6.3999 1.1278-0.69704 0.86894-3.7868-1.0653-12.714-5.1646-23.838-4.6409-44.803 1.1192-44.803 1.5625 0 2.5388-1.2735 3.1143-4.0625 0.46106-2.2344 1.6813-6.5938 2.7117-9.6875 1.0304-3.0938 2.0599-6.4688 2.2878-7.5 0.22792-1.0312 2.4296-7.4682 4.8926-14.304 4.2666-11.842 6.2481-15.038 8.4711-13.664 1.1954 0.73881 1.3495-2.5123 0.1747-3.6871-0.45237-0.45236-1.6114-0.16771-2.5757 0.63258-0.97985 0.8132-7.3717 1.6695-14.49 1.9412-7.0052 0.26739-14.424 0.6189-16.487 0.78114-7.6775 0.60395-32.039 29.887-28.122 33.803 0.67392 0.67392 0.60836 2.106-0.16232 3.546-0.71103 1.3286-0.98962 2.7187-0.61908 3.0893 0.37054 0.37053 5.4269-0.0995 11.236-1.0446 12.061-1.962 24.936-1.6487 24.19 0.58865-0.31441 0.94299-3.2607 1.3182-8.5018 1.0827-4.4114-0.19819-12.736 0.49183-18.5 1.5334-5.7634 1.0415-10.978 1.5851-11.589 1.2079-0.61034-0.3772-1.9768 1.464-3.0366 4.0916s-2.8 6.6859-3.8671 9.0184c-1.4951 3.268-3.6728 14.595-4.1127 21.391-0.063 0.97434 27.296 0.0154 34.334-1.2035 6.674-1.1558 8.1469-0.82532 5.9799 1.3416-1.2597 1.2597-7.3276 1.7952-29.955 2.6434l-8.9754 0.33647 0.45529 17.5c0.25041 9.625 0.49248 19.891 0.53791 22.812 0.0455 2.9219 0.37512 5.3125 0.7326 5.3125 0.35749 0 5.5606-2.4355 11.562-5.4123zm-5.9625-16.463c0-1.0312 0.99727-1.875 2.2162-1.875s7.7598-1.4062 14.535-3.125c15.097-3.8296 18.971-3.9463 20.749-0.625 1.4687 2.7443 0.68262 2.9628-4.9838 1.3854-1.7098-0.47599-5.6473-0.17572-8.75 0.66723-23.614 6.4156-23.766 6.4385-23.766 3.5724zm10.363-38.438c-2.3824-3.1188-4.4638-9.8352-3.3555-10.828 0.61488-0.55056 6.6704-1.6567 13.457-2.458 15.189-1.7936 16.419-1.2033 13.758 6.6047l-1.8284 5.3662-5.9898-0.57554c-4.0356-0.38776-7.2605 0.0816-9.8847 1.4386-4.6774 2.4188-4.6551 2.4172-6.1565 0.45165zm13.023-5.0907c4.1626-0.0154 6.7351-0.60884 7.1329-1.6454 0.94925-2.4737-0.37567-2.6223-10.425-1.1688-5.8708 0.84916-9.4903 1.9815-9.8506 3.0818-0.4447 1.3579 0.22006 1.522 3.031 0.74795 1.9804-0.54529 6.5305-1.0023 10.111-1.0156zm-9.6358-39.514c0-2.5469 26.541-5.1465 28.025-2.745 0.4859 0.7862 0.14468 1.6598-0.75828 1.9412-3.5417 1.104-27.267 1.8034-27.267 0.8038zm-81.568-36.707c-0.27304-20.062 1.1998-30.877 4.2051-30.877 3.0729 0 5.4696-4.378 5.5905-10.212 0.0688-3.3208-0.39624-6.0379-1.0335-6.0379-3.7212 0-33.444 40.05-33.444 45.064 0 3.2977 5.3475 9.0934 13.198 14.304 3.7995 2.522 7.5593 5.628 8.3552 6.9024 0.79585 1.2744 1.8875 2.0448 2.4258 1.7121 0.53835-0.33272 0.85479-9.7182 0.7032-20.857zm123.3 10.811c5.9793-0.50543 9.4365-1.3189 9.1578-2.1548-0.56713-1.7014-9.9678-7.1914-16.502-9.637l-4.9905-1.8679-4.072 6.7623c-2.2396 3.7192-4.072 6.9754-4.072 7.2358 0 0.72601 9.8027 0.56401 20.478-0.3384zm-82.037-9.813c-0.34871-3.0938-0.14061-5.625 0.46244-5.625 1.1367 0 1.6622 3.5658 1.2436 8.4375-0.24585 2.8605 1.6623 3.6096 4.54 1.7823 0.85917-0.54555 1.6545-3.3494 1.7674-6.2309 0.26026-6.642 2.2954-6.9193 2.2954-0.31273 0 5.6447 0.7611 6.4512 4.6875 4.9673 2.3263-0.8792 2.8502-2.0963 3.0309-7.0407l0.21837-5.9778 0.4785 5.3125c0.26316 2.9219 0.69078 5.3125 0.95024 5.3125s1.9146-0.54858 3.6781-1.2191c2.7194-1.0339 3.2064-1.9944 3.2064-6.3238 0-3.0848 0.49461-4.799 1.25-4.3322 0.6875 0.4249 1.25 2.514 1.25 4.6425 0 3.7295 0.0866 3.7916 2.3866 1.7101 1.9246-1.7418 2.1741-2.901 1.2886-5.9885-1.4743-5.1406-1.627-5.2161-5.9884-2.9607-2.0876 1.0795-5.9367 2.268-8.5537 2.6411-2.617 0.37307-6.1644 0.94621-7.8831 1.2736-1.7188 0.32741-5.8932 0.87042-9.2764 1.2067-3.3833 0.33628-6.2876 0.7495-6.4539 0.91829-0.65985 0.66949-1.3192 12.216-0.7312 12.804 0.34552 0.34552 2.0139 0.62822 3.7075 0.62822 2.91 0 3.0444-0.30904 2.4452-5.625zm-8.4411 2.0312c0-1.2891 0.35261-4.1068 0.7836-6.2617 0.76131-3.8066 0.66356-3.9104-3.4375-3.6514-2.3216 0.14663-5.5457-0.18597-7.1647-0.73914-2.873-0.9816-2.922-0.87527-2.0433 4.4326 1.0838 6.5464 1.4834 7.3134 3.8107 7.3134 1.168 0 1.8012-1.3183 1.8012-3.75 0-2.0625 0.52714-3.75 1.1714-3.75 0.64428 0 0.85193 1.9688 0.46145 4.375-0.62531 3.8533-0.39237 4.375 1.9536 4.375 1.771 0 2.6636-0.78536 2.6636-2.3438zm-14.233-7.9662c-0.6065-3.2329-1.9479-4.8937-5.6192-6.957-2.6524-1.4907-5.5218-3.553-6.3766-4.583-0.85474-1.0299-2.0529-1.5643-2.6625-1.1876-1.5326 0.94718-1.4023 11.787 0.14164 11.787 0.6875 0 1.25-1.6543 1.25-3.6762 0-5.7712 2.0705-5.5758 2.2975 0.2168 0.18667 4.7638 1.6452 7.1414 4.4108 7.1903 0.59581 0.01 0.7891-1.1059 0.42952-2.4809-0.35957-1.375-0.14392-2.5 0.47921-2.5 1.0578 0 1.7025 2.9239 1.215 5.5104-0.32398 1.7189 2.8678 3.2897 4.1266 2.0309 0.60753-0.60752 0.74608-3.0156 0.30792-5.3512zm7.7356-12.419c0.36868-4.3108 0.24177-4.4445-5.625-5.9242-3.3012-0.83265-7.8459-2.4171-10.099-3.521-3.0867-1.5121-4.4514-1.6528-5.534-0.57017-2.7858 2.7858 14.742 15.942 19.631 14.734 0.6875-0.1698 1.4197-2.2934 1.6272-4.719zm12.81 1.9403c2.1798-5.7333 6.3654-10.784 7.7715-9.3782 0.86827 0.86827 3.2165 0.29298 7.3463-1.7998l6.0701-3.076v-6.9277c0-4.0892-0.48979-6.625-1.1954-6.1889-0.65748 0.40634-0.87854 1.5645-0.49126 2.5738 0.84966 2.2142-0.98364 2.4146-3.0633 0.33496-1.1667-1.1667-1.5-1.137-1.5 0.13374 0 1.0731-0.75068 1.318-2.1875 0.71371-3.5722-1.5024-7.1277-1.5605-8.057-0.13173-1.5198 2.3366-2.302 0.0794-1.4496-4.1827 0.49982-2.4991 1.7309-4.3536 3.1337-4.7204 1.2707-0.3323 2.3104-1.6636 2.3104-2.9584 0-3.3556 2.4698-2.9281 2.648 0.45829 0.0814 1.5469 0.0639 3.2871-0.039 3.8672-0.44752 2.5228 3.0431-0.31627 4.8179-3.9186 1.0715-2.1749 2.4032-3.9671 2.9594-3.9827s0.61852 0.60708 0.1385 1.3838c-0.5292 0.85626-0.18919 1.1868 0.86372 0.83959 0.95508-0.31491 1.9162-1.7941 2.1359-3.2872 0.25321-1.7212 1.2911-2.7146 2.8362-2.7146 2.0151 0 2.3012 0.59501 1.6532 3.4375-0.74304 3.259-0.69036 3.3077 1.0148 0.9375 5.0342-6.9978 7.6563-18.769 9.7436-43.743 0.68923-8.2462 1.5692-15.989 1.9554-17.206 1.0891-3.4313 3.0223-1.2531 3.0223 3.4054 0 3.5688 0.3677 4.088 2.5 3.5304 1.5652-0.4093 2.5-0.0384 2.5 0.99202 0 1.2912 0.32717 1.3186 1.5185 0.12731 1.9287-1.9287 2.2335-29.607 0.32597-29.607-0.7043 0-2.8853 1.2623-4.8467 2.8051-2.9114 2.2902-3.2877 3.1406-2.0493 4.6328 1.6133 1.9439 0.63789 4.947-1.2316 3.7917-1.0278-0.63525-5.2397 5.9698-4.8396 7.5896 0.0979 0.39615-0.82631 2.585-2.0537 4.8641-2.981 5.5354-7.8373 8.1918-14.976 8.1918-5.1619 0-6.4838-0.59215-10.672-4.7808-3.7978-3.7978-4.9492-6.0499-5.5996-10.953-0.87992-6.6331-5.2028-13.016-8.8152-13.016-2.8873 0-5.4226 3.6538-5.4705 7.884-0.0725 6.3989-2.648 13.934-6.2776 18.366-3.3704 4.1156-4.0275 4.375-11.081 4.375-8.7969 0-12.303-2.0875-18.425-10.971-3.4931-5.0689-4.0785-5.4696-4.6723-3.1986-0.37342 1.4279 0.3861 5.2982 1.6878 8.6007 1.3017 3.3024 2.7229 9.0003 3.1583 12.662 0.43533 3.6616 2.826 12.693 5.3127 20.07 3.4226 10.154 5.6944 14.71 9.3496 18.75 3.8257 4.229 4.7052 4.7533 4.235 2.5248-0.6397-3.0318 0.91883-3.7964 2.5479-1.25 0.54978 0.85937 1.8434 1.5625 2.8746 1.5625 1.25 0 2.0833 1.6667 2.5 5 0.47315 3.7852 1.1565 4.9578 2.8125 4.8264 1.4406-0.11438 2.1875 0.71792 2.1875 2.4375 0 2.0309 0.33334 2.2778 1.5 1.1111s1.1667-1.8333 0-3c-1.7328-1.7328-2.0426-8.5-0.38911-8.5 0.61098 0 1.4907 2.0246 1.9549 4.4991 0.82518 4.3986 0.94561 4.4801 5.3896 3.6464 2.5-0.46902 5.136-1.6602 5.8576-2.647 0.98719-1.3501 1.312-0.39599 1.312 3.8536 0 3.3092-0.57525 5.6479-1.3892 5.6479-0.80774 0-1.1391-1.3079-0.79178-3.125 0.37898-1.9825 0.0273-3.125-0.9619-3.125-1.0839 0-1.3428 1.3337-0.8493 4.375 0.65408 4.0306-0.5595 5.873-2.1613 3.2812-0.37177-0.60156-2.1027-1.0938-3.8466-1.0938-1.7438 0-3.4748 0.49219-3.8466 1.0938-1.3346 2.1594-3.7007 0.98982-6.3856-3.1566-1.5027-2.3207-2.4797-5.2668-2.1712-6.547 0.70844-2.94-1.2447-6.0495-3.0852-4.9119-1.0133 0.62626-1.0208 1.5568-0.0274 3.4129 0.75116 1.4036 1.0936 3.5924 0.76109 4.8642-0.33258 1.2718 0.0387 2.6153 0.82512 2.9857 0.78639 0.37038 0.16418 0.35944-1.3827-0.0242-2.52-0.62512-2.8125-0.23562-2.8125 3.7448 0 3.8582 0.55106 4.6727 4.1898 6.1931 2.3044 0.96284 6.5934 2.1567 9.5311 2.653l5.3413 0.9024-0.792 6.7388-0.79202 6.7388h4.4169c3.6196 0 4.6425-0.59353 5.667-3.2883zm-4.398-34.578c-0.53508-1.2328-0.62213-2.5922-0.19346-3.0208 1.2694-1.2694 2.2926 0.51368 1.7084 2.9769-0.51794 2.1837-0.58533 2.1856-1.5149 0.0439zm-7.3006-10.536c-6.0664-0.91193-3.0838-3.5078 3.5788-3.1147 6.8149 0.40201 8.212 1.1146 5.5216 2.816-1.8786 1.1881-2.9503 1.2232-9.1004 0.2987zm7.4647-23.61c-2.936-2.936-3.0459-2.9511-3.6852-0.50674-0.44694 1.7091-1.7018 2.5196-3.9009 2.5196-4.1664 0-4.2384-2.8673-0.17384-6.9318 3.4494-3.4494 7.5506-4.0162 8.6338-1.1932 0.39572 1.0312 2.1611 1.875 3.923 1.875 3.5454 0 5.491 3.134 3.3036 5.3214-2.4014 2.4014-4.9569 2.0594-8.1006-1.0842zm10.38 65.836c-0.0308-1.4424-0.67852-1.1841-2.4933 0.99411-1.3484 1.6185-2.0876 3.5318-1.6426 4.2519 0.99479 1.6096 4.1956-2.4503 4.1359-5.246zm20.469 0.91586c4.2558-2.1333 4.7063-2.7882 3.9609-5.7582-1.1322-4.511-1.1661-4.5244-5.7118-2.2567-2.1889 1.092-4.4739 1.6799-5.0779 1.3066-0.604-0.37329-1.0982-0.12662-1.0982 0.54813 0 0.67476-1.919 1.8602-4.2645 2.6342-3.8625 1.2747-5.7355 3.3418-5.7355 6.3298 0 1.7853 12.75-0.20894 17.927-2.8039zm-82.003-84.9c0.92718-0.92718 1.1659-4.368 0.6937-10-0.62267-7.4272-0.44225-8.5864 1.3364-8.5864 1.223 0 2.0563-1.0132 2.0563-2.5 0-1.375-0.71874-2.5-1.5972-2.5-1.7923 0-5.9028-4.3623-5.9028-6.2643 0-0.67964-0.84375-1.2357-1.875-1.2357-2.325 0-2.329 1.5683-0.0426 16.799 1.0078 6.7136 1.785 12.571 1.727 13.016-0.38415 2.9507 1.3226 3.5526 3.6042 1.2711zm35.253-8.13c4.1615-5.2904 6.6342-15.136 4.7601-18.953-2.4713-5.0328-7.3603-7.8213-15.116-8.6218-10.147-1.0473-16.567 1.239-17.57 6.2573-1.4052 7.026 0.5277 12.246 6.8901 18.609 5.5645 5.5645 6.4622 6.0055 12.224 6.0055 5.231 0 6.6307-0.52368 8.8122-3.2969zm-9.2175-13.984c-0.54645-1.7217-1.6403-2.1468-4.4592-1.7331-2.7366 0.40165-3.7352 0.0448-3.7352-1.3349 0-2.3214 2.6237-3.4006 8.2675-3.4006 3.3237 0 4.5575 0.64516 5.3788 2.8125 1.1549 3.0477-0.3491 5.9375-3.0902 5.9375-0.90074 0-1.9635-1.0266-2.3618-2.2813zm58.67 11.754c6.7742-7.1828 7.8859-17.965 2.3632-22.923-4.1154-3.6944-9.0734-3.333-18.432 1.3433l-7.3296 3.6625 0.56081 6.7626c0.46248 5.5769 1.2975 7.5227 4.7624 11.098 3.3929 3.5005 5.1484 4.3349 9.1212 4.3349 3.9819 0 5.6887-0.8154 8.9541-4.2777zm-8.1142-12.612c0-1.5124-1.0236-1.7261-5.1263-1.07-4.5151 0.72199-5.074 0.54817-4.6875-1.4578 0.49739-2.5816 6.6399-4.6748 10.439-3.5574 1.375 0.40444 3.8033 1.5582 5.3962 2.5638 2.3264 1.4687 2.6036 2.1809 1.4094 3.6198-2.0012 2.4113-7.4306 2.3394-7.4306-0.0984zm-72.89 745.32c-1.0147-6.17 2.4072-10.153 9.4334-10.979 3.117-0.36669 6.5748-1.4199 7.6841-2.3406 1.7117-1.4206 2.0168-1.3737 2.0168 0.31023 0 2.5255-3.7932 4.572-8.4741 4.572-4.6269 0-7.7759 3.4568-7.7759 8.5359 0 5.1828-2.0272 5.1136-2.8843-0.0984zm120.88-1.5772c-1.1315-1.7268-3.4076-3.4786-5.058-3.8928-1.6504-0.41423-3.8314-1.939-4.8466-3.3884-2.0872-2.9798-2.4976-9.579-0.59584-9.579 0.6875 0 1.25 1.4062 1.25 3.125 0 3.408 3.9386 8.125 6.7843 8.125 1.8067 0 6.9657 5.6795 6.9657 7.6686 0 2.1506-2.4873 1.0128-4.4996-2.0583zm-126.75-104.5c0-0.79341 6.3171-2.3528 9.5313-2.3528 0.94531 0 1.7188 0.50586 1.7188 1.1241 0 0.61826-2.5312 1.3254-5.625 1.5715-3.0938 0.24606-5.625 0.0917-5.625-0.34288zm116.25-5.94c0-0.62254 2.5828-1.5192 5.7396-1.9926 6.1562-0.92319 9.2212 0.001 3.7829 1.141-1.7999 0.37721-4.6788 0.9778-6.3975 1.3346-1.7188 0.35685-3.125 0.13948-3.125-0.48306zm-101.87-3.9308c0.41977-0.67921 3.355-1.2349 6.5228-1.2349 7.1172 0 6.6228 0.64834-1.284 1.6838-3.8266 0.50112-5.7253 0.33842-5.2387-0.4489zm88.729-1.2158c0.88079-1.4251 6.8868-1.2041 6.8868 0.25351 0 0.53755-1.7207 0.97736-3.8238 0.97736-2.1912 0-3.499-0.5255-3.0631-1.2309zm-105.6-6.41c-0.001-1.1203 8.5674-2.3423 10.696-1.5254 3.646 1.3991 1.6366 2.4796-4.4462 2.3907-3.437-0.0503-6.2495-0.43957-6.25-0.86525zm108.74-3.64c0-1.313 4.8049-2.4253 10.562-2.4452 2.917-0.01 4.4516 0.43445 3.75 1.0863-1.4936 1.3878-14.312 2.6049-14.312 1.3589zm-115-125.98c0-1.3175 1.2759-1.7786 17.5-6.3232 11.867-3.324 38.44-8.9333 41.815-8.8265 1.4078 0.0446-5.5966 1.9498-15.565 4.2338-16.562 3.7946-36.11 9.1187-41.563 11.32-1.2386 0.49999-2.1875 0.32484-2.1875-0.40374zm82.496-13.75c0-0.55814 7.7344-1.9772 17.188-3.1534 23.869-2.97 27.71-3.2584 28.406-2.133 0.33401 0.54043-4.5847 1.3808-10.931 1.8675-6.3458 0.48668-16.038 1.673-21.538 2.6363-11.727 2.0539-13.125 2.1372-13.125 0.78264zm-81.246-15.23c0-0.7776 6.5333-1.2609 17.188-1.2715 9.4531-0.01 18.594-0.32935 20.312-0.71102 2.2567-0.50111 2.604-0.36911 1.25 0.4751-2.7 1.6834-38.75 3.0858-38.75 1.5074zm106.9-4.8748c-1.5906-0.63619 2.2136-1.277 10.625-1.7896 7.2065-0.43925 14.79-1.0848 16.853-1.4346 2.0625-0.34979 1.1701 0.12163-1.9831 1.0476-7.4136 2.1771-22.313 3.4492-25.495 2.1766zm-77.001-10.623c-0.59408-0.56311-7.5772-1.487-21.146-2.7977-6.3817-0.61645-8.3772-1.1543-6.25-1.6844 2.9295-0.73011 27.434 1.9933 28.622 3.181 0.68792 0.68792-0.52023 1.9701-1.226 1.3012zm4.1904-0.37254c1.2162-0.31692 2.9037-0.29609 3.75 0.0464 0.84628 0.34241-0.14879 0.60171-2.2113 0.57623-2.0625-0.0255-2.7549-0.30562-1.5387-0.62255zm80.289-6.0167c2.7656-0.96367 16.787-1.3336 15.323-0.40426-0.86542 0.5494-4.9485 0.96312-9.0735 0.91937-4.125-0.0437-6.9375-0.27555-6.25-0.51511zm-14.34-457.45c-0.83349-1.0043-1.7736-4.2387-2.0891-7.1875-1.7288-16.158-3.3387-26.078-4.3316-26.692-1.7585-1.0868-1.3089-4.2946 0.602-4.2946 3.1078 0 4.6649 3.4337 5.1993 11.465 0.28945 4.3503 0.76964 9.455 1.0671 11.344 1.7057 10.831 2.3415 13.497 3.3705 14.133 0.62769 0.38793 1.1412 1.2346 1.1412 1.8816 0 1.8178-3.2666 1.3898-4.9593-0.64975z"/>
</svg>
