<?xml version="1.0" encoding="UTF-8" standalone="no"?>
<!-- Created with Inkscape (http://www.inkscape.org/) -->
<svg id="svg3800" xmlns:rdf="http://www.w3.org/1999/02/22-rdf-syntax-ns#" xmlns="http://www.w3.org/2000/svg" height="388.06" viewBox="0 0 497.74081 388.05902" width="497.74" version="1.1" xmlns:cc="http://creativecommons.org/ns#" xmlns:dc="http://purl.org/dc/elements/1.1/">
 <metadata id="metadata3806">
  <rdf:RDF>
   <cc:Work rdf:about="">
    <dc:format>image/svg+xml</dc:format>
    <dc:type rdf:resource="http://purl.org/dc/dcmitype/StillImage"/>
    <dc:title/>
   </cc:Work>
  </rdf:RDF>
 </metadata>
 <path id="path3810" d="m21.992 387.71c-5.1616-1.1022-9.9182-5.3016-13.086-11.553-2.7666-5.4597-3.0077-7.4255-3.0911-25.203-0.0497-10.605-0.51201-22.656-1.0273-26.781-0.51527-4.125-0.47322-21.562 0.0934-38.75 1.0099-30.63-0.31618-59.106-4.1329-88.75-0.61961-4.8125-0.91326-11.281-0.65255-14.375 0.26071-3.0938 0.78569-9.6102 1.1666-14.481 0.68958-8.8174 3.7879-16.77 17.003-43.644 2.0284-4.125 5.6014-12 7.94-17.5 9.182-21.595 12.395-27.34 19.651-35.14 8.3238-8.9475 9.5615-13.463 4.2443-15.485-3.9611-1.506-3.9524-3.8249 0.0323-8.5604 1.7365-2.0637 2.6426-4.0703 2.0135-4.4591-2.4713-1.5273-2.7906-7.2365-0.59021-10.55 1.207-1.8178 2.3752-4.4276 2.596-5.7995 0.69229-4.3018 3.1631-5.3985 12.823-5.692 19.395-0.58922 21.665-0.258 24.027 3.5067 1.1834 1.8863 2.849 4.3837 3.7011 5.5498 1.2566 1.7194 1.1478 2.9624-0.5755 6.5762-2.0187 4.2332-2.0115 4.5695 0.14437 6.7253 5.104 5.104 3.8069 9.7378-2.9217 10.438-6.016 0.6261-5.6533 5.3512 0.95207 12.401 3.1354 3.3463 6.8985 9.371 8.979 14.375 1.9698 4.7379 4.8632 11.427 6.4296 14.864 13.781 30.242 23.757 57.179 24.767 66.875 0.39396 3.7812 1.0009 14.188 1.3488 23.125 0.34789 8.9375 1.2485 29.75 2.0014 46.25 1.5318 33.57 0.5415 132.22-1.4004 139.5-0.66036 2.4774-3.0293 6.3688-5.2643 8.6474l-4.0636 4.1429-21.25 0.33745c-11.688 0.1856-23.781 0.89612-26.875 1.579-6.3234 1.3957-50.179 2.8522-54.984 1.8262zm5.4969-4.7873c-0.44497-1.7729-0.24348-3.125 0.46567-3.125 0.6875 0 1.603 1.4062 2.0343 3.125 1.2201 4.8613 4.555 4.0491 3.8491-0.9375l-0.57509-4.0625 1.4122 4.0625c1.6314 4.6932 3.5121 5.3399 3.6351 1.25l0.0846-2.8125 1.3564 2.8125c1.7303 3.5878 5.2234 3.8541 4.0994 0.3125-0.43641-1.375-0.25867-2.5 0.39497-2.5 0.65365 0 1.4826 1.125 1.8422 2.5 0.92961 3.5548 3.3878 3.1014 3.3878-0.625 0-1.7188 0.5625-3.125 1.25-3.125s1.25 1.125 1.25 2.5c0 3.5008 3.729 3.1969 3.8346-0.3125l0.0846-2.8125 1.3564 2.8125c1.664 3.4503 4.7244 3.7005 4.7244 0.38627 0-3.5203 2.2489-4.3707 2.7231-1.0298 0.52036 3.6659 4.0313 3.6802 4.5513 0.0185 0.49451-3.4819 2.7256-3.7377 2.7256-0.31246 0 1.7982 0.83334 2.5 2.9688 2.5 2.3134 0 3.1868-0.89675 3.9564-4.0625l0.98762-4.0625 0.50166 3.4375c0.65534 4.4906 4.7454 4.7091 5.8489 0.3125 0.43139-1.7188 1.2834-3.125 1.8935-3.125 0.61003 0 0.81497 1.125 0.4554 2.5-0.5017 1.9185-0.0384 2.5 1.992 2.5 1.7856 0 2.6458-0.78877 2.6458-2.4262 0-1.3344 0.64405-2.8243 1.4312-3.3108 0.98794-0.61058 1.2352 0.14088 0.79833 2.4262-0.91704 4.7973 3.2451 4.4504 5.2704-0.43922 0.85431-2.0625 2.1077-3.75 2.7854-3.75 0.67765 0 0.89065 0.84375 0.47335 1.875-0.41732 1.0312-1.1002 2.7188-1.5175 3.75-0.53151 1.3135 0.03 1.875 1.875 1.875 1.4486 0 2.6337-0.45499 2.6337-1.0111 0-0.5561 0.88207-2.103 1.9602-3.4375 1.8763-2.3226 1.9288-2.2794 1.2262 1.0111-0.58474 2.7385-0.28108 3.4375 1.4934 3.4375 1.2251 0 2.7827-1.2292 3.4613-2.7316 0.67865-1.5024 2.0777-2.979 3.1089-3.2812 1.513-0.44351 1.5734-0.22987 0.3125 1.1066-1.8301 1.9399-2.073 4.9062-0.40179 4.9062 1.3966 0 4.585-3.071 6.218-5.9888 0.65111-1.1635 1.5522-1.747 2.0025-1.2968 0.45025 0.45024-0.12738 2.4143-1.2836 4.3646-1.7358 2.9278-1.352 2.7326 2.2013-1.1198 4.0992-4.4442 4.3648-5.305 5.5939-18.125 2.9202-30.459 0.4293-178.51-3.3495-199.08-1.852-10.084-12.328-37.343-23.866-62.098l-4.1819-8.9726-9.4352-0.40243c-5.1894-0.22133-9.5767-0.12118-9.7497 0.22257-0.17295 0.34375-10.455 0.625-22.848 0.625h-22.534l-2.626 5c-1.4443 2.75-5.0315 10.625-7.9716 17.5-6.1477 14.376-17.386 39.561-20.011 44.846-3.1324 6.3065-3.3853 28.935-0.71415 63.904 1.9874 26.017 2.337 38.983 1.7527 65-0.81256 36.18-0.81851 33.488 0.0967 43.75 0.36788 4.125 1.0692 15.375 1.5584 25 0.85534 16.827 2.4932 24.4 5.7065 26.386 0.82922 0.51248 1.7294 0.26656 2.0004-0.5465 0.30379-0.91135 1.3947-0.397 2.8447 1.3412 2.2577 2.7066 2.3575 2.7194 2.4922 0.31948 0.10166-1.8119 0.33134-1.9839 0.83443-0.625 1.9469 5.2588 5.8706 6.8506 4.6218 1.875zm37.237-8.375c-0.825-0.825-1.5-2.5538-1.5-3.8416 0-3.0684 4.1798-2.3692 4.7904 0.80128 0.5964 3.0969-1.3944 4.9364-3.2904 3.0404zm-20.633-13.049c-0.99867-0.99866 0.13023-2.9506 1.7064-2.9506 0.64693 0 1.1762 0.84375 1.1762 1.875 0 1.933-1.475 2.4834-2.8827 1.0756zm59.681-2.0972c-1.0735-2.7702 1.3618-5.6934 3.2064-3.8488 0.83957 0.83957 0.66234 2.0596-0.53573 3.6875-1.7066 2.319-1.8316 2.3265-2.6707 0.16128zm-82.491-7.2124c-1.0727-1.7356 1.3049-4.1826 3.0288-3.1171 1.4356 0.88723 0.51636 4.476-1.1464 4.476-0.57338 0-1.4204-0.61151-1.8824-1.3589zm98.576-17.539c-0.93145-1.1312-1.0742-2.485-0.38046-3.6076 1.4827-2.399 2.7997-0.8977 2.285 2.6047-0.34869 2.3726-0.6472 2.5298-1.9045 1.0029zm-38.275-0.65914c-1.8388-1.8388-0.87177-5.6284 1.3281-5.2048 1.2031 0.2317 2.1875 1.4917 2.1875 2.8 0 2.4869-2.0388 3.8815-3.5156 2.4048zm-30.666-4.8827c0.23753-1.2253 1.1887-2.4799 2.1138-2.7879 1.0758-0.35823 1.5262 0.24281 1.25 1.6678-0.23753 1.2253-1.1887 2.4799-2.1138 2.7879-1.0758 0.35822-1.5262-0.24282-1.25-1.6678zm-35.248-6.3234c-0.38291-33.981-1.378-71.355-2.342-87.961-0.65768-11.33-0.96524-20.83-0.68347-21.112 0.28177-0.28176 4.8411-1.2651 10.132-2.1851 5.2908-0.92004 13.603-3.1733 18.471-5.0072 4.8685-1.8339 13.071-4.8724 18.227-6.7521 22.05-8.0384 35.071-13.232 45.625-18.197 15.63-7.3536 17.666-7.5124 18.717-1.4596 0.38771 2.2344 1.2807 22.344 1.9845 44.688 0.70375 22.344 1.5304 44.505 1.837 49.248 0.46072 7.126 0.1803 8.9274-1.6153 10.377-2.9849 2.4094-23.549 12.221-29.673 14.158-5.767 1.8239-18.028 6.4406-28.52 10.739-3.9984 1.638-8.1729 2.9782-9.2766 2.9782s-2.8947 0.78024-3.9801 1.7338c-3.4267 3.0107-26.719 12.133-32.911 12.889l-5.9375 0.72531-0.0548-4.8616zm12.023-0.98283c4.761-1.6479 12.875-4.7949 18.031-6.9932 14.436-6.1548 27.735-11.357 31.875-12.468 11.671-3.133 43.032-16.995 46.762-20.669 1.4892-1.4674 1.5408-4.789 0.33364-21.492-0.78533-10.866-1.4365-28.194-1.447-38.506-0.018-17.713-0.59483-28.54-2.0145-37.812-0.82288-5.3749-3.7829-5.3389-15.71 0.19101-24.937 11.562-69.173 27.707-81.49 29.741l-8.6551 1.4294 1.0397 27.601c0.57181 15.18 1.1302 37.726 1.2409 50.101 0.233 26.053 0.41041 31.875 0.97123 31.875 0.22333 0 4.3015-1.3483 9.0625-2.9962zm1.7814-13.328c0-0.72808 0.5625-0.97613 1.25-0.55123s1.25 1.0206 1.25 1.3238c0 0.30318-0.5625 0.55123-1.25 0.55123s-1.25-0.5957-1.25-1.3238zm8.125-3.6762c0.4249-0.6875 1.0206-1.25 1.3238-1.25 0.30318 0 0.55123 0.5625 0.55123 1.25s-0.5957 1.25-1.3238 1.25c-0.72807 0-0.97613-0.5625-0.55123-1.25zm28.125-4.891c0-2.4497-0.4635-2.7058-3.6359-2.0091l-3.6359 0.79859 1.3148-5.3868c2.1609-8.8535 7.2071-13.063 7.2071-6.0118 0 3.1667 0.48611 3.75 3.125 3.75 2.431 0 3.125-0.64093 3.125-2.8861 0-1.5874 0.812-3.978 1.8044-5.3125 1.674-2.251 2.058-2.288 5.3125-0.51199 4.2789 2.3351 5.3248 7.8219 2.158 11.321-2.6099 2.8839-5.2326 3.0415-8.0583 0.48432-2.5733-2.3288-6.1603-1.1812-6.373 2.0389-0.26031 3.9423-0.43059 4.6198-1.4062 5.5954-0.51563 0.51563-0.9375-0.32593-0.9375-1.8702zm-1.2691-7.9215c-0.0155-2.2743-0.25102-2.4537-1.2309-0.9375-1.5662 2.4234-1.5662 3.75 0 3.75 0.6875 0 1.2414-1.2656 1.2309-2.8125zm16.754-1.25c1.0037-1.5938 1.0031-2.7812-0.002-4.375-2.3918-3.7918-4.8248-2.5838-5.2517 2.6074-0.32629 3.9672-0.0257 4.7224 1.741 4.375 1.1745-0.23096 2.7553-1.4043 3.513-2.6074zm-49.235 6.5625c0-0.6875 0.5293-1.25 1.1762-1.25 0.64693 0 1.5239 0.5625 1.9488 1.25s-0.1044 1.25-1.1762 1.25-1.9488-0.5625-1.9488-1.25zm67.5-12.5c0-0.6875 0.5625-1.25 1.25-1.25s1.25 0.5625 1.25 1.25-0.5625 1.25-1.25 1.25-1.25-0.5625-1.25-1.25zm3.125-13.75c-0.4249-0.6875-0.17685-1.25 0.55122-1.25 0.72808 0 1.3238 0.5625 1.3238 1.25s-0.24805 1.25-0.55123 1.25c-0.30317 0-0.89887-0.5625-1.3238-1.25zm-79.106-11.77c-0.2135-6.2914 0.16295-10.834 0.9375-11.313 0.81113-0.5013 1.2942 1.094 1.2942 4.2739 0 5.2575 0.97132 5.9799 5.0822 3.7798 1.6762-0.8971 2.4178-2.6224 2.4178-5.625 0-2.3821 0.42188-4.3288 0.9375-4.3261 0.51563 0.002 1.0934 5.0652 1.2838 11.25 0.21824 7.0858-0.12852 11.245-0.9375 11.245-0.70611 0-1.2838-2.25-1.2838-5 0-5.0888-1.1042-5.9368-5.5228-4.2413-1.3344 0.51207-1.9772 2.3407-1.9772 5.625 0 9.4669-1.8802 4.691-2.2317-5.6689zm17.232 8.059c0-0.7006 0.5625-1.2738 1.25-1.2738 0.69445 0 1.25-3.3333 1.25-7.5 0-6.8939-0.22222-7.5-2.75-7.5-3.4999 0-1.5524-1.8997 3.0625-2.9874 3.7627-0.88687 4.0519-0.49626 2.1976 2.9686-1.8486 3.4541-0.13696 13.769 2.2848 13.769 2.8492 0 0.23826 2.0221-3.8574 2.9874-2.0312 0.47876-3.4375 0.28909-3.4375-0.46361zm11.991-4.8368c-1.5907-2.5738-1.8255-11.196-0.41352-15.187 1.5644-4.4214 5.752-6.1376 6.8607-2.8116 0.32229 0.96685-0.19756 1.2876-1.3625 0.84055-4.1163-1.5796-6.3153 10.379-2.7896 15.17 1.7671 2.4012 1.7955 2.4012 2.7249 0.001 0.58315-1.5058 0.38007-2.6114-0.53572-2.9167-2.25-0.74999-1.7593-2.4173 0.9173-3.1173 2.3587-0.61683 3.8015 1.8582 3.8382 6.584 0.0159 2.0497-8.0827 3.3093-9.2398 1.437zm18.656-2.9995c-0.28846-0.85938-0.69269-2.963-0.89826-4.6747-0.2132-1.7751-1.3136-3.2914-2.5613-3.5292-1.753-0.33411-2.1875 0.47028-2.1875 4.0497 0 2.4566-0.48691 4.4666-1.082 4.4666-1.196 0-2.7343-17.123-1.7652-19.648 1.0423-2.7161 2.5439-0.57884 1.9128 2.7226-0.32949 1.7237-0.24741 4.0505 0.18243 5.1706 1.4178 3.6948 4.502-0.51703 4.502-6.148 0-9.0391 2.2328-3.2342 3.16 8.2156 0.78743 9.7236 0.23375 13.834-1.2629 9.375zm11.81-4.9679c-0.97586-7.8331-1.003-20.284-0.0479-21.924 0.93162-1.599 1.2748 0.41939 1.3028 7.6624 0.0379 9.807 0.0464 9.8316 3.163 9.2358 4.2768-0.81756 3.9322 1.0743-0.625 3.4309-2.0625 1.0666-3.7693 1.7841-3.7929 1.5946zm11.091-12.217c0.38815-6.8756 0.18343-7.5903-2.4537-8.5658l-2.8772-1.0643 2.8639-1.5327c3.7886-2.0276 7.3289-0.81831 5.181 1.7697-1.5674 1.8886-1.248 10.69 0.53357 14.703 0.73112 1.6465 0.39725 2.1881-1.3499 2.1898-2.051 0.002-2.2719-0.87097-1.8978-7.4992zm7.514-2.503c-0.10313-5.5-0.24375-10.703-0.3125-11.562-0.0687-0.85938 1.2797-1.7605 2.9966-2.0024 3.01-0.42422 3.0435-0.35369 0.9375 1.9734-2.7833 3.0755-2.8148 6.5915-0.0591 6.5915 1.6528 0 1.7917 0.33334 0.625 1.5-0.825 0.825-1.5 4.2-1.5 7.5 0 10.342-2.488 6.6392-2.6875-4zm9.25 6.6722c-1.0628-0.42885-1.5625-3.7525-1.5625-10.393 0-7.7486 0.40781-9.9186 1.9772-10.521 3.636-1.3953 4.6797-0.78025 2.5915 1.5272-2.9866 3.3002-2.6292 6.4472 0.74376 6.5487l2.8125 0.0846-2.8125 1.3564c-1.9763 0.95315-2.8125 2.4548-2.8125 5.0509 0 3.3166 0.31964 3.6143 3.125 2.9102 3.7001-0.92866 4.1851 1.108 0.70717 2.9693-1.3298 0.71169-2.5954 1.2496-2.8125 1.1953-0.21707-0.0543-1.0978-0.3824-1.9572-0.72917zm-84.686-14.169c-0.72969-1.1806 20.46-8.0826 21.53-7.0127 0.41781 0.4178 0.52528 0.9734 0.23882 1.2346-1.4878 1.3568-21.258 6.6044-21.769 5.7781zm-0.62035-7.1906c0.004-0.51563 5.2067-2.6981 11.562-4.8499 6.3558-2.1518 12.54-4.3214 13.743-4.8212 1.4559-0.60486 2.1875-0.3408 2.1875 0.78956 0 1.0555-4.8495 3.2413-12.812 5.7748-13.665 4.3478-14.691 4.5649-14.681 3.1068zm62.493-11.453c0-0.74793 1.2656-1.3603 2.8125-1.3609 1.5469-0.00054 6.426-1.7104 10.842-3.7998 10.474-4.9548 14.376-4.163 4.47 0.90717-8.1901 4.1921-18.125 6.5236-18.125 4.2535zm-3.125-6.3599c0.4249-0.6875 1.3488-1.25 2.053-1.25 0.70427 0 5.5394-1.7054 10.745-3.7897 10.69-4.2804 15.045-4.3117 6.7254-0.0484-9.1759 4.7021-21.225 7.8424-19.523 5.088zm25.818 103.06c0.23753-1.2253 1.1887-2.4799 2.1138-2.7879 1.0758-0.35823 1.5262 0.24281 1.25 1.6678-0.23752 1.2253-1.1887 2.4799-2.1138 2.7879-1.0758 0.35822-1.5262-0.24282-1.25-1.6678zm-61.399-131.13c-1.7378-2.0939-0.73411-4.4298 1.9033-4.4298 1.088 0 1.8012 1.2374 1.8012 3.125 0 3.5111-1.4497 4.0217-3.7046 1.3048zm-23.795-13.18c0-1.375 0.5625-2.5 1.25-2.5s1.25 1.125 1.25 2.5-0.5625 2.5-1.25 2.5-1.25-1.125-1.25-2.5zm61.67-15.709c-1.0418-2.715 1.603-5.2681 3.4962-3.375 1.6 1.6 0.60882 5.334-1.416 5.334-0.73065 0-1.6668-0.88156-2.0802-1.959zm-43.302-15.09c-0.99867-0.99866 0.13023-2.9506 1.7064-2.9506 0.64693 0 1.1762 0.84375 1.1762 1.875 0 1.933-1.475 2.4834-2.8827 1.0756zm49.585-9.8256c-0.96065-2.5034 0.457-5.9833 2.0391-5.0055 1.6564 1.0237 1.6305 6.8805-0.0304 6.8805-0.70909 0-1.613-0.84375-2.0087-1.875zm-24.961-5.1022c0.41732-1.0875 0.75874-2.2125 0.75874-2.5 0-0.28751 0.5625-0.52276 1.25-0.52276s1.25 1.125 1.25 2.5c0 1.4629-0.83334 2.5-2.0087 2.5-1.3182 0-1.7479-0.67975-1.25-1.9772zm-26.534-3.0981c0.22972-1.5696 1.1681-3.1012 2.0854-3.4034 1.1331-0.37347 1.5338 0.3651 1.25 2.3042-0.22972 1.5696-1.1681 3.1012-2.0854 3.4034-1.1331 0.37347-1.5338-0.3651-1.25-2.3042zm40.224-32.356c2.3782-2.3781-0.72546-3.7372-7.3701-3.2273-3.758 0.28838-7.3544 0.84673-7.992 1.2408-0.63758 0.39405-7.1015 0.74089-14.364 0.77076-11.758 0.0484-14.568 0.61749-12.628 2.5576 1.0528 1.0528 41.232-0.2202 42.354-1.3418zm17.069-0.54745c0-1.1871-1.2728-1.6217-4.0625-1.387-2.2344 0.18793-5.3281 0.40336-6.875 0.47873-1.5469 0.0754-2.8125 0.69953-2.8125 1.387 0 0.6875 3.0938 1.25 6.875 1.25 5.0192 0 6.875-0.46663 6.875-1.7287zm-51.874-3.2701c0.4276 0.69188 2.0086 0.99896 3.5134 0.6824 2.4543-0.51633 13.161-1.6551 24.331-2.5879 2.2521-0.18807 6.0912 0.27081 8.5315 1.0197 3.1706 0.9731 5.4508 0.97893 7.9901 0.0205 2.5385-0.95816 3.9397-0.9549 4.906 0.0114 0.97021 0.97022 1.3527 0.88193 1.3527-0.31229 0-2.7716-4.6046-9.3225-8.6602-12.321-2.7335-2.021-4.0458-4.2375-4.6146-7.7941-0.76124-4.7605-0.99073-4.97-5.4464-4.97-2.5584 0-8.8958 0.35876-14.083 0.79724l-9.4314 0.79724-0.79579 4.9765c-0.60275 3.7694-2.4397 6.6603-7.573 11.918-6.5321 6.6902-8.0244 10.372-3.1456 7.7611 1.5745-0.84263 2.6045-0.84223 3.1258 0.001zm42.187-29.577c4.7227-0.74898 6.4098-3.5914 2.9253-4.9285-2.8726-1.1023-3.4811-6.3991-1.2342-10.744 1.9611-3.7923 1.9395-4.0719-0.4643-6.0184-1.3865-1.1227-2.7285-3.1251-2.9823-4.4496-0.41462-2.1644-1.7723-2.4445-13.409-2.7662-10.079-0.2786-13.607 0.07396-15.923 1.5913-2.7939 1.8306-4.2136 6.8916-1.9332 6.8916 0.57291 0 1.0417 1.6628 1.0417 3.695 0 2.0323-0.46875 3.4053-1.0417 3.0512-0.57292-0.35408-1.0417-1.7356-1.0417-3.07 0-3.4342-2.3042-3.0167-3.2071 0.58104-0.46674 1.8596 0.07 4.2661 1.4065 6.3058 2.1081 3.2173 2.0794 3.384-1.1615 6.7669-1.8276 1.9076-2.8931 3.9191-2.3679 4.4702 0.97263 1.0203 30.866-0.02409 39.392-1.3763zm-31.945-3.7232c-1.595-1.5949 0.62491-2.9506 4.8315-2.9506 4.8484 0 5.7616 1.817 1.4887 2.9621-3.6484 0.97774-5.334 0.97467-6.3202-0.0115zm14.832-1.5801c-0.38391-0.62118 2.168-1.3243 5.6709-1.5625 6.1198-0.41615 8.2127 0.19208 6.5122 1.8926-1.2249 1.2249-11.392 0.94945-12.183-0.33006zm-11.952-11.917c0-1.6782 0.4809-3.3484 1.0687-3.7117 0.58776-0.36326 1.0096 1.0085 0.9375 3.0484-0.15682 4.4346-2.0062 5.0461-2.0062 0.66332zm3.7691 0.86373c0.01-1.2031 0.49468-2.9377 1.0759-3.8546 0.69731-1.1 1.0097-0.35696 0.91835 2.1846-0.14302 3.9805-2.0283 5.5592-1.9942 1.6699zm5.2246-0.9375c0.0255-2.0625 0.30562-2.7549 0.62255-1.5387 0.31692 1.2162 0.29608 2.9037-0.0463 3.75-0.34248 0.84629-0.60178-0.14879-0.5763-2.2113zm7.3442 0.38627c-0.0483-1.8501 0.47464-3.7114 1.1621-4.1363 1.4923-0.9223 1.4923 1.5272 0 5-0.95925 2.2323-1.0837 2.1398-1.1621-0.86373zm-3.6405-1.0113c0-1.7188 0.28373-2.4219 0.63049-1.5625 0.34676 0.85938 0.34676 2.2656 0 3.125-0.34676 0.85938-0.63049 0.15625-0.63049-1.5625zm12.546-0.625c0.0255-2.0625 0.30562-2.7549 0.62255-1.5387 0.31692 1.2162 0.29608 2.9037-0.0463 3.75-0.34248 0.84629-0.60178-0.14879-0.5763-2.2113zm-5.2246 0.9375c0.01-0.51562 0.56441-1.7812 1.2309-2.8125 0.97984-1.5162 1.2154-1.3368 1.2309 0.9375 0.0105 1.5469-0.54336 2.8125-1.2309 2.8125-0.6875 0-1.2414-0.42188-1.2309-0.9375zm7.4809-0.9375c0-1.0312 0.5625-1.875 1.25-1.875s1.25 0.84375 1.25 1.875-0.5625 1.875-1.25 1.875-1.25-0.84375-1.25-1.875zm113.13 353.64c-1.375-0.33795-3.7277-0.87502-5.2283-1.1935-3.2844-0.69704-15.814-18-18.682-25.799-1.677-4.5608-1.9246-10.837-1.5936-40.4 0.21557-19.25 0.13579-42.875-0.17727-52.5-0.8638-26.558-0.46674-117.8 0.54725-125.76 0.68922-5.4058 2.8981-10.54 9.6643-22.465 4.824-8.5017 11.151-18.848 14.059-22.993 2.9085-4.1443 7.6647-11.596 10.569-16.558 2.9046-4.9629 9.1334-13.178 13.842-18.256 8.4826-9.1485 10.458-12.914 11.994-22.866 0.6944-4.4999 0.47015-5.2301-1.7876-5.8205-3.0447-0.7962-3.4394-4.8912-0.69123-7.172 1.4514-1.2046 1.5565-1.9713 0.45249-3.3015-1.11-1.3374-0.93156-2.2921 0.7821-4.1857 1.5872-1.7539 1.8515-2.9052 0.92709-4.0391-0.90899-1.115-0.67205-3.2564 0.79787-7.2109l2.0908-5.625 12.589-0.35412c14.202-0.39951 18.732 0.7807 20.462 5.3317 0.65817 1.7311 2.1279 3.1474 3.2661 3.1474 1.6888 0 1.9313 0.85184 1.3181 4.6302-0.53089 3.2714-0.18283 5.2584 1.1861 6.771 1.4902 1.6466 1.6269 2.7211 0.5923 4.6543-0.73982 1.3824-1.003 3.4051-0.58478 4.4949 0.96516 2.5152-1.7221 5.8353-4.3736 5.4036-1.665-0.27108-2.0367 0.99148-2.1115 7.171-0.12025 9.9383 1.4993 13.463 10.627 23.125 4.2216 4.4688 9.0852 10.938 10.808 14.377 1.7227 3.4386 6.7616 10.751 11.198 16.25 4.4361 5.4989 10.134 14.217 12.662 19.373 4.4353 9.0466 4.6328 10.032 5.6408 28.125 1.0044 18.03 0.55713 59.179-1.1006 101.25-0.93657 23.77-0.92667 22.473-0.40108 52.5 0.22863 13.062 0.86991 30.5 1.425 38.75 0.88872 13.208 0.69307 16.306-1.6373 25.93-1.4745 6.0896-4.3998 13.84-6.6053 17.5l-3.9587 6.57-9.2835 0.21239c-38.702 0.8854-97.234 1.4335-99.283 0.92974zm49.467-4.2671c0.6371 0 1.1584 0.5625 1.1584 1.25 0 2.3524 2.2073 1.2533 3.1379-1.5625l0.92948-2.8125 0.55325 2.8125c0.65066 3.3077 4.0635 3.8067 4.2744 0.625 0.1381-2.0833 0.17223-2.0833 0.71666 0 0.3144 1.2031 1.6554 2.1875 2.98 2.1875 1.4051 0 2.4688-0.91126 2.5534-2.1875 0.1381-2.0833 0.17223-2.0833 0.71666 0 0.3144 1.2031 0.89027 2.1875 1.2797 2.1875s1.4553-0.98438 2.3686-2.1875c1.5815-2.0833 1.6624-2.0833 1.7003 0 0.057 3.1364 3.8884 2.7053 4.7352-0.53283l0.71138-2.7203 0.99862 2.6995c1.1412 3.085 4.7556 2.4838 4.9896-0.83009 0.12438-1.7624 0.22611-1.7434 0.71666 0.13374 0.66683 2.5517 2.3648 2.863 3.4092 0.625 0.58332-1.25 0.875-1.25 1.4583 0 0.40105 0.85937 1.4792 1.5625 2.3958 1.5625 0.91666 0 1.952-0.70313 2.3007-1.5625 0.49128-1.2108 0.90391-1.177 1.8331 0.14997 0.9788 1.3978 1.4486 1.283 2.5572-0.625 1.2388-2.1324 1.3614-2.1455 1.396-0.14997 0.0426 2.456 3.7772 3.0691 3.8072 0.625 0.0138-1.1235 0.32775-1.0752 1.1176 0.17204 0.9064 1.4313 1.531 1.322 3.572-0.625 5.8633-5.5931 11.541-24.143 11.541-37.705 0-7.7679-0.10562-8.0415-2.8125-7.2895-7.2521 2.0146-38.583 3.3938-70.938 3.1227-19.594-0.16419-43.191-0.34102-52.438-0.39296l-16.813-0.0945-0.44622 4.5606c-0.24541 2.5083 0.44492 7.5708 1.534 11.25 2.0399 6.891 12.972 24.068 15.494 24.346 0.7807 0.086 1.8413 0.29317 2.357 0.46052 0.51563 0.16735 1.3594 0.23767 1.875 0.15625 0.51563-0.0814 0.9375 0.69573 0.9375 1.727 0 1.0312 0.5625 1.875 1.25 1.875s1.25-0.67001 1.25-1.4889c0-0.8189 0.82586-0.39703 1.8352 0.9375 1.811 2.3943 1.8363 2.3933 1.913-0.0736 0.0759-2.4381 0.11213-2.4407 1.4677-0.1055 1.351 2.3274 1.4374 2.3295 3.087 0.0736 1.5122-2.068 1.6971-2.0906 1.6971-0.20697 0 1.1626 0.5625 2.1139 1.25 2.1139s1.2586-0.70313 1.2691-1.5625c0.013-1.0593 0.44617-0.95869 1.3452 0.3125 1.0874 1.5376 1.4486 1.5684 2.0072 0.17106 0.57343-1.4345 0.8471-1.4354 1.7305-0.006 0.83837 1.3565 1.4282 1.1965 2.9339-0.79606 1.683-2.2271 1.8889-2.2598 1.9244-0.30642 0.0219 1.2031 0.60225 2.1875 1.2898 2.1875 0.6875 0 1.2679-0.98437 1.2898-2.1875 0.0379-2.0833 0.11888-2.0833 1.7003 0 0.9133 1.2031 2.0204 2.1875 2.4602 2.1875 0.43984 0 0.86495-0.98437 0.9447-2.1875 0.1381-2.0833 0.17223-2.0833 0.71666 0 0.3144 1.2031 0.89027 2.1875 1.2797 2.1875s1.4553-0.98437 2.3686-2.1875c1.5815-2.0833 1.6624-2.0833 1.7003 0 0.0219 1.2031 0.60225 2.1875 1.2898 2.1875 0.6875 0 1.3152-0.98437 1.395-2.1875 0.1381-2.0833 0.17223-2.0833 0.71666 0 0.65003 2.4874 4.1184 3.0065 4.1764 0.625 0.0209-0.85937 0.70474-0.4375 1.5196 0.9375 1.3406 2.2621 1.5242 2.2918 1.9286 0.3125 0.24586-1.2031 0.96828-2.1875 1.6054-2.1875zm-38.046-10.632c-0.43537-1.1346 0.004-1.8678 1.119-1.8678 2.0217 0 2.4817 1.9533 0.71676 3.044-0.61545 0.38038-1.4416-0.14893-1.8358-1.1762zm67.518-6.2028c-0.79057-2.0602 1.0515-3.7052 2.8821-2.5738 1.3266 0.8199 0.35354 4.4087-1.1954 4.4087-0.54039 0-1.2994-0.82574-1.6867-1.835zm-41.094-7.6124c-0.97389-0.9739 0.34774-5.5526 1.6027-5.5526 1.664 0 2.4958 2.1188 1.6733 4.2622-0.78092 2.035-2.0368 2.5297-3.276 1.2904zm-35.17-5.1699c-1.5453-1.5453-0.77841-5.3827 1.0756-5.3827 1.0312 0 1.875 1.0918 1.875 2.4262 0 2.609-1.6474 4.2597-2.9506 2.9565zm92.418-1.2167c-1.0644-2.7736 1.2861-5.1621 3.1982-3.25 1.5303 1.5303 0.64395 5.334-1.243 5.334-0.63551 0-1.5154-0.93781-1.9552-2.084zm9.122-15.465c5.7556-0.63129 11.24-1.7912 12.188-2.5775 1.133-0.94031 1.7228-4.1496 1.7228-9.3749 0-7.76-0.0655-7.9173-2.8125-6.7505-8.5818 3.6451-29.665 4.7654-84.431 4.4863l-55.368-0.28213 0.36813 6.9613 0.36813 6.9613 24.4 0.87384c13.42 0.48061 28.326 1.0584 33.125 1.284 14.194 0.66729 59.136-0.34184 70.44-1.5817zm-4.866-18.243c7.8918-1.0598 15.378-2.4776 16.635-3.1506 2.1201-1.1347 2.235-2.7404 1.5786-22.078-0.38933-11.47-0.24601-32.948 0.3185-47.73 0.56451-14.781 0.99098-26.955 0.94769-27.053-0.0433-0.0979-13.297 0.78503-29.454 1.9621-19.731 1.4375-43.178 2.1115-71.417 2.053l-42.042-0.0871 0.16673 48.332 0.16671 48.332 6.25 0.73478c3.4375 0.40413 20.504 0.69044 37.927 0.63623 17.422-0.0543 32.047 0.28619 32.5 0.75642 1.1738 1.2187 29.478-0.43236 46.422-2.7079zm-86.849-2.675c-3.7193-0.78348-9.1333-6.3885-10.671-11.047-0.89705-2.7181-1.1386-14.348-0.71621-34.481l0.63741-30.38 4.2407-3.8991c2.3324-2.1445 7.5636-5.1741 11.625-6.7323 6.8984-2.6468 9.3164-2.8371 36.759-2.8921 28.651-0.0575 29.527 0.016 35.551 2.9823 10.966 5.4002 10.79 4.6348 9.4212 40.859-1.2426 32.885-2.0181 37.358-7.2905 42.055-2.4682 2.199-5.3123 2.3944-38.802 2.6645-19.876 0.16035-36.615 0.54043-37.197 0.8446-0.58166 0.30419-2.1826 0.31608-3.5576 0.0265zm44.326-3.1412 33.076-0.26736 2.7798-4.1256c1.5374-2.2817 3.1026-7.0305 3.5021-10.625 1.2664-11.396 1.7546-58.889 0.62701-60.996-0.59695-1.1154-4.0609-3.3211-7.6978-4.9015-5.9151-2.5705-8.9849-2.9218-29.112-3.3322-24.98-0.50931-36.5 0.74693-45.196 4.9283-9.6355 4.6331-10.624 6.8914-11.145 25.465-0.2481 8.8478-0.76136 21.855-1.1406 28.904-0.60303 11.21-0.37524 13.433 1.8169 17.73 3.5379 6.9348 6.6764 8.7934 13.643 8.0793 3.1743-0.32537 20.656-0.7119 38.847-0.85895zm30.833-16.208c-0.57918-1.2047-0.72327-3.5043-0.32018-5.1104 0.92201-3.6736-1.6599-7.4557-4.057-5.9432-0.94531 0.59649-1.7188 2.5547-1.7188 4.3517 0 1.7969-0.49219 3.2672-1.0938 3.2672-1.2306 0-1.5087-14.964-0.33501-18.023 1.4071-3.6668 2.4357-2.0129 1.9454 3.1282-0.44998 4.7185-0.27052 5.0738 2.3676 4.6875 2.0976-0.30714 2.9854-1.4063 3.3479-4.1454 0.47805-3.6114 1.2506-5.3637 1.8927-4.2934 0.17188 0.28646 0.0226 5.8646-0.33172 12.396-0.41989 7.7397-1.011 11.112-1.6973 9.6847zm-42.033-0.9347c0-0.6875-0.80358-1.25-1.7857-1.25-2.8557 0-5.7149-3.6454-5.7073-7.2768 0.0192-9.2596 4.5257-16.283 9.2775-14.46 2.8706 1.1016 2.4009 2.576-0.78403 2.461-3.4185-0.12338-5.9568 4.4441-5.982 10.764-0.0201 5.0339 1.862 7.1848 4.153 4.7461 1.1074-1.1788 1.0815-1.6838-0.10887-2.1202-2.4636-0.90332-1.8218-2.8646 0.93746-2.8646 2.1296 0 2.5 0.83334 2.5 5.625 0 3.0938-0.5625 5.625-1.25 5.625s-1.25-0.5625-1.25-1.25zm24.375-1.25c-0.4249-0.6875 0.10437-1.25 1.1762-1.25 2.3033 0 2.7624-7.4364 0.59295-9.6058-2.0518-2.0518-0.84995-7.1806 1.8011-7.6861 1.2761-0.24338 2.9636 0.25554 3.75 1.1087 1.1078 1.2019 0.92651 1.3738-0.80509 0.7633-2.6908-0.94868-4.407 2.4031-2.3062 4.504 0.77878 0.77879 1.416 3.441 1.416 5.916 0 5.7628-3.5134 9.6666-5.625 6.25zm-59.062-0.7988c-1.716-0.72431-2.2177-16.251-0.60586-18.75 0.5051-0.78284 3.0023-1.9961 5.5494-2.6961 3.5497-0.97561 4.9502-0.88815 5.9982 0.37457 0.8529 1.0277 0.91432 1.9272 0.16325 2.3914-0.66216 0.40924-1.3985 0.16036-1.6363-0.55305-0.29404-0.8821-1.728-0.84548-4.4818 0.1145-3.0503 1.0633-4.0494 2.1525-4.0494 4.4144 0 2.5312 0.6379 3.0204 4.0625 3.1154l4.0625 0.11275-4.1401 1.1931c-3.5312 1.0176-4.0828 1.6889-3.75 4.5641 0.47653 4.1174 4.2039 5.1851 6.7713 1.9397 1.7102-2.1619 1.7968-2.1131 1.4681 0.82766-0.27886 2.4952-1.105 3.174-4.0992 3.3679-2.0625 0.13357-4.4531-0.0539-5.3125-0.41667zm14.098-6.0762c0.49594-4.125 1.1459-7.9219 1.4444-8.4375 1.1672-2.0163 2.7346-0.7639 3.5201 2.8125 0.96277 4.3835 3.1163 5.0256 3.1441 0.9375 0.01-1.5469 0.56185-3.6562 1.2252-4.6875 0.82701-1.2858 1.1071 0.75234 0.89116 6.4855-0.17316 4.5983-0.71765 8.7634-1.21 9.2557-0.49232 0.49232-2.1351-1.8637-3.6506-5.2355l-2.7555-6.1307-0.97393 5.4851c-1.4829 8.3514-2.6555 8.0035-1.6349-0.48513zm38.921 0.34492c-0.7579-6.4872-0.053-12.222 1.5019-12.218 1.0148 0.002 1.0433 17.031 0.0301 18.048-0.41887 0.42066-1.1083-2.2029-1.5321-5.8301zm-11.175-2.5324c0.36833-4.2969 1.09-8.604 1.6036-9.5715 0.51368-0.96746 0.63967 2.3539 0.27999 7.3808-0.63479 8.8721-0.5754 9.1193 2.0278 8.4385 1.475-0.38571 2.6818-0.19146 2.6818 0.43167 0 0.62314-1.6342 1.133-3.6315 1.133h-3.6315l0.66968-7.8125zm-30.907-24.688c-2.9537-2.9537-3.2036-7.5136-0.67931-12.395 3.2329-6.2518 13.329-6.104 17.496 0.25617 5.6751 8.6613-9.4076 19.548-16.817 12.139zm10.496-0.49049c8.2811-3.4601 6.5217-14.51-2.3104-14.51-5.2944 0-8.1855 2.7561-8.1855 7.8034 0 3.7136 2.9328 8.4466 5.2339 8.4466 0.60302 0 2.9709-0.78323 5.262-1.7405zm38.904 1.7811c-0.41109-0.66515 0.54109-4.462 2.1159-8.4375 2.1621-5.458 3.5516-7.326 5.6737-7.6276 2.2419-0.31865 2.7903 0.18699 2.7116 2.5-0.0543 1.5947-0.3824 2.1963-0.72916 1.3369-0.88759-2.1997-3.7581-1.9444-4.6634 0.41474-1.2097 3.1524-0.89762 4.2728 1.19 4.2728 1.0718 0 1.6011 0.5625 1.1762 1.25s-1.8644 1.25-3.1988 1.25-2.4262 0.84375-2.4262 1.875c0 1.8175 2.0408 2.4667 6.5625 2.0878 1.2031-0.10088 2.1875 0.37255 2.1875 1.052 0 1.5954-9.6154 1.6188-10.6 0.0259zm-29.548-1.146c-0.18437-0.95865 0.0434-1.8894 2.1764-8.8947l1.7128-5.625-0.53072 6.301-0.53072 6.301 4.5976-0.51351c2.5287-0.28244 4.1981-0.0934 3.7097 0.42027-1.1742 1.2348-10.945 2.9993-11.135 2.0109zm14.541-2.2384c2.2546-4.3227 2.4095-9.9916 0.29469-10.782-3.2847-1.2269 3.0452-2.4196 6.9294-1.3056 5.3259 1.5274 7.6126 6.0372 5.0468 9.9531-1.9199 2.9301-2.9273 3.4154-10.076 4.8532l-4.037 0.81204 1.8418-3.5312zm9.7952-2.8846c1.8872-1.809 2.0517-2.7053 0.89351-4.8694-1.3211-2.4684-6.2947-3.8092-6.3613-1.7148-0.0164 0.51562-0.5243 3.0674-1.1287 5.6707-1.0385 4.4734-0.95109 4.6892 1.5923 3.9319 1.4801-0.44075 3.732-1.799 5.0042-3.0184zm20.187-36.976c13.75-1.0787 26.627-2.3658 28.615-2.8603l3.6147-0.8991 0.39778-15.89 0.39779-15.89-17.138 0.60296c-9.4256 0.33163-22.763 0.91002-29.638 1.2853-25.937 1.4158-58.168 1.4165-76.875 0.001-10.656-0.80597-19.487-1.4032-19.624-1.3273-0.13713 0.076-0.34123 7.9947-0.45357 17.597l-0.20424 17.459 7.3286 0.72736c16.227 1.6105 78.997 1.1216 103.58-0.80675zm-16.25-36.186c41.217-1.0098 49.298-1.8839 49.498-5.354 0.38104-6.6159 0.0559-17.877-0.96389-33.381-1.3515-20.548-3.3117-25.951-14.995-41.326-4.009-5.2762-8.529-11.629-10.045-14.117l-2.7555-4.5235-9.7445-0.16177c-5.3595-0.089-23.567-0.51011-40.462-0.93587l-30.718-0.77411-2.9562 5.2598c-1.6259 2.8929-5.3489 8.6827-8.2734 12.866-5.6254 8.0473-12.059 19.218-17.617 30.587-3.0475 6.2343-3.4622 8.8364-4.4497 27.923-0.59894 11.576-0.88908 21.248-0.64475 21.492 1.3794 1.3794 50.625 4.2989 59.751 3.5422 2.4062-0.1995 17.875-0.69349 34.375-1.0978zm-54.93-19.247c-0.9983-1.6153 0.59302-5.237 1.9363-4.4068 1.4885 0.91992 1.4408 5.544-0.0573 5.544-0.64692 0-1.4925-0.51174-1.8791-1.1372zm76.998-10.803c0.23753-1.2253 1.1887-2.4799 2.1138-2.7879 1.0758-0.35822 1.5262 0.24282 1.25 1.6678-0.23752 1.2253-1.1887 2.4799-2.1138 2.7879-1.0758 0.35823-1.5262-0.24281-1.25-1.6678zm-63.943-5.56c0-1.375 0.5625-2.5 1.25-2.5s1.25 1.125 1.25 2.5-0.5625 2.5-1.25 2.5-1.25-1.125-1.25-2.5zm24.489 1.4342c-0.3623-0.58621 0.14911-2.1331 1.1365-3.4375 1.701-2.2472 1.7973-2.1912 1.835 1.0658 0.0381 3.2992-1.5934 4.6014-2.9714 2.3716zm18.743-5.0106c-1.1095-1.7952 0.54037-5.1735 2.5265-5.1735 0.95768 0 1.7413 0.77487 1.7413 1.722 0 2.3216-3.3111 4.9994-4.2678 3.4516zm-67.78-7.0485c-0.39574-1.0312-0.37143-2.7821 0.054-3.8908 1.1248-2.9312 4.4302 0.1145 3.5941 3.3117-0.76158 2.9123-2.6385 3.2102-3.6481 0.57904zm31.907-6.4196c-1.2761-1.5376-1.2344-2.1106 0.2211-3.0316 2.9012-1.8358 4.9196-1.3466 4.9196 1.1924 0 3.113-3.1487 4.2394-5.1407 1.8392zm46.948 0.68567c-1.0908-1.765 1.3184-4.1742 3.0834-3.0834 1.9825 1.2253 1.6622 4.4423-0.44232 4.4423-0.99067 0-2.1792-0.61151-2.6411-1.3589zm-14.082-2.7036c0.21969-1.5469 0.96194-2.8125 1.6494-2.8125 0.6875 0 1.4298 1.2656 1.6494 2.8125 0.27485 1.9352-0.23967 2.8125-1.6494 2.8125-1.4098 0-1.9243-0.87729-1.6494-2.8125zm-38.268-10.804c-0.91334-1.4778 0.45848-5.1332 1.9264-5.1332 1.4794 0 1.4398 4.6525-0.0474 5.5716-0.64 0.39555-1.4856 0.19825-1.8791-0.43842zm26.251-3.7486c-0.95804-1.5502 1.2723-5.1346 3.1949-5.1346 1.5789 0 1.3516 1.6739-0.58725 4.3254-1.2128 1.6586-1.9426 1.8851-2.6076 0.80916zm27.636-1.8881c-0.37009-0.96443 0.092-2.7926 1.027-4.0625 1.6004-2.1738 1.7495-2.1809 2.5479-0.1215 0.9718 2.5068-0.0374 5.9375-1.7465 5.9375-0.63551 0-1.4583-0.78908-1.8284-1.7535zm-17.13-13.28c-1.6527-1.0619-1.6527-1.334 0-2.3959 2.2905-1.4716 4.8935 0.56488 3.0625 2.3959-0.76392 0.76393-1.8735 0.76393-3.0625 0zm-24.391-1.2409c-0.48435-0.7837-0.25463-2.0509 0.51045-2.816 1.0214-1.0214 1.4144-0.90947 1.479 0.42141 0.0558 1.1513 0.50395 0.90049 1.2284-0.6875 1.0406-2.2809 1.1151-2.2347 0.84965 0.52709-0.31935 3.3224-2.6776 4.8038-4.0675 2.555zm-25.286-2.1049c-2.4781-0.88892-1.814-3.5512 0.9375-3.7585 1.3823-0.10412 2.5 0.58224 2.5 1.5352 0 2.1022-1.3468 2.9732-3.4375 2.2232zm63.05-14.792c0.27288-0.83342-3.4658-1.4365-10.216-1.6478-12.091-0.37856-15.049 1.9208-3.459 2.6888 10.244 0.67877 13.185 0.45486 13.675-1.041zm7.8874 0.42346c0-0.54119-1.4394-0.98399-3.1988-0.98399-1.7593 0-2.8733 0.52671-2.4754 1.1705 0.85918 1.3902 5.6742 1.232 5.6742-0.18647zm-30.549-1.1076c0.38288-0.6195-1.4464-1.1927-4.0651-1.2739-29.746-0.92176-37.537-0.95338-39.136-0.1588-1.0312 0.51224 6.2812 1.2126 16.25 1.5563 9.9688 0.34375 19.954 0.70998 22.19 0.81385 2.2358 0.10388 4.3784-0.318 4.7613-0.9375zm28.039-3.4959c-0.005-0.41552-3.6559-4.8534-8.1122-9.8619-8.5962-9.6614-8.8238-10.181-9.9258-22.667-0.38946-4.4131-0.98467-8.3003-1.3227-8.6384-0.33804-0.33804-6.9406-0.66485-14.672-0.72625l-14.058-0.11164-0.78068 6.2951c-1.2248 9.876-2.0154 11.361-11.836 22.226-5.0854 5.626-9.2543 10.651-9.2643 11.167-0.01 0.51562 4.6224 1.0016 10.294 1.08 19.691 0.27204 39.94 0.94282 40.347 1.3366 0.77635 0.75028 19.34 0.65562 19.331-0.09857zm-12.649-44.505c-0.0875-0.6875-0.46018-2.0345-0.8281-2.9933-0.36792-0.95879 0.29985-2.4517 1.484-3.3175 1.2584-0.92018 1.6354-1.8941 0.90725-2.3441-1.9152-1.1837-5.154-8.2835-5.154-11.298 0-4.7271-2.9549-7.1675-10.095-8.3368-11.238-1.8405-24.919 0.81664-19.966 3.8778 0.85239 0.52681 1.2712 2.5078 0.96151 4.5477-0.51824 3.4135-0.60117 3.4588-1.4922 0.81592-0.51891-1.5391-1.4305-2.4974-2.0258-2.1295-0.59527 0.36789-0.396 1.7678 0.4428 3.1109 1.1502 1.8418 1.176 3.0011 0.10462 4.7166-0.78124 1.251-1.1322 3.7822-0.77996 5.625 0.48105 2.5164 0.13744 3.3505-1.3802 3.3505-1.1114 0-2.0207 0.84375-2.0207 1.875 0 1.4947 1.9647 1.9001 9.6875 1.9986 5.3281 0.06799 12.781 0.48987 16.562 0.9375 9.6746 1.1453 13.775 1.0137 13.591-0.43612zm-6.7832-3.2339c-0.46193-0.7474-0.21387-1.9849 0.55122-2.75 1.0214-1.0214 1.3911-0.66036 1.3911 1.3589 0 3.0181-0.64932 3.4832-1.9423 1.3911zm-12.86-2.3911c0-1.7188 0.28373-2.4219 0.63049-1.5625 0.34676 0.85938 0.34676 2.2656 0 3.125-0.34676 0.85938-0.63049 0.15625-0.63049-1.5625zm5 0c0-1.7188 0.28373-2.4219 0.63049-1.5625 0.34676 0.85938 0.34676 2.2656 0 3.125-0.34676 0.85938-0.63049 0.15625-0.63049-1.5625zm4.3339 1.5028c-0.33896-0.54845-0.0995-1.8141 0.53209-2.8125 0.89661-1.4173 1.1526-1.1987 1.1675 0.99718 0.0196 2.8913-0.6154 3.5696-1.6996 1.8153zm-19.531-2.7528c0-1.375 0.21565-2.5 0.47921-2.5s0.7734 1.125 1.133 2.5c0.35957 1.375 0.14392 2.5-0.47922 2.5-0.62313 0-1.133-1.125-1.133-2.5zm5.1974 0c0-1.7188 0.28373-2.4219 0.63049-1.5625 0.34676 0.85938 0.34676 2.2656 0 3.125-0.34676 0.85938-0.63049 0.15625-0.63049-1.5625zm-8.9474-0.625c0-1.0312 0.22107-1.875 0.49126-1.875 0.2702 0 0.81504 0.84375 1.2108 1.875 0.39572 1.0312 0.17465 1.875-0.49127 1.875s-1.2108-0.84375-1.2108-1.875zm14.583-8.9583c-0.45834-0.45833-0.81624-1.724-0.79533-2.8125 0.0312-1.6254 0.27514-1.5714 1.3646 0.30209 1.346 2.3146 0.95576 4.0354-0.56925 2.5104zm5.6604-2.2917c0.0255-2.0625 0.30562-2.7549 0.62255-1.5387 0.31692 1.2162 0.29608 2.9037-0.0464 3.75-0.34235 0.84629-0.60165-0.14879-0.57617-2.2113zm-16.494-1.25c0-1.7188 0.503-3.125 1.1178-3.125 0.61478 0 1.0366 1.4059 0.9375 3.1241-0.23499 4.0724-2.0553 4.0732-2.0553 0.000883zm5 0c0-1.0313 0.46875-1.875 1.0417-1.875 0.57293 0 1.0417 0.84375 1.0417 1.875s-0.46875 1.875-1.0417 1.875c-0.57291 0-1.0417-0.84375-1.0417-1.875zm16.349-0.10416c0.06-1.4562 0.35617-1.7524 0.7552-0.75521 0.36108 0.90234 0.31668 1.9805-0.0986 2.3958-0.41536 0.41536-0.7108-0.32292-0.65652-1.6406zm8.6513 1.9792c0-0.6875-0.5625-1.25-1.25-1.25s-1.25 0.5625-1.25 1.25 0.5625 1.25 1.25 1.25 1.25-0.5625 1.25-1.25zm124.38 369.41c-16.186-1.974-20.332-3.8418-25.98-11.703-9.1644-12.756-8.7958-9.7103-8.4974-70.21 0.48228-97.785 0.9493-115.1 3.324-123.27 2.3949-8.2382 18.468-43.926 30.897-68.602 16.024-31.813 19.631-40.177 19.631-45.514 0-4.1663-0.4337-5.1108-2.347-5.1108-3.9256 0-5.2952-2.7836-3.2805-6.667 0.97312-1.8757 1.4742-4.1792 1.1136-5.119-0.36062-0.93978 0.61687-2.8942 2.1722-4.3432 2.1922-2.0423 2.4922-2.9702 1.3348-4.1277-2.0483-2.0483-1.873-5.3717 0.3819-7.2431 1.0312-0.85586 1.875-2.781 1.875-4.2781 0-4.8615 2.3056-5.7219 15.332-5.7219 14.265 0 17.168 1.0567 17.168 6.25 0 2.3827 0.87336 4.1295 2.5 5 2.8266 1.5128 3.2693 4.9731 0.9375 7.3278-1.2515 1.2638-1.1271 1.8235 0.625 2.8121 2.4231 1.3672 2.9376 5.4989 0.8457 6.7918-0.8391 0.51859-0.36914 1.5106 1.2544 2.6477 3.875 2.7141 1.412 6.4098-4.6038 6.9078-4.3368 0.35902-4.7142 0.707-5.094 4.6979-0.23062 2.4235 0.67833 6.8007 2.0766 10 1.3677 3.1294 4.2733 10.19 6.4569 15.69s6.2367 15.625 9.0068 22.5 6.3443 16.719 7.9426 21.875c1.5983 5.1562 6.0085 18.199 9.8006 28.984 7.4888 21.298 7.9326 23.701 8.847 47.891 0.33781 8.9375 1.164 18.139 1.8358 20.447 1.2504 4.2962 2.1553 31.418 3.1126 93.303 0.4757 30.749 0.28561 35.633-1.5651 40.214-4.5932 11.369-12.711 16.472-28.979 18.22-16.984 1.8245-54.471 2.0193-68.125 0.354zm20.525-2.8504c1.2134-2.0833 1.2759-2.0833 1.3121 0 0.0259 1.4899 1.0346 2.1875 3.163 2.1875 2.3823 0 3.1451-0.66839 3.2096-2.8125l0.0846-2.8125 1.3564 2.8125c1.6171 3.353 5.3449 3.68 7.1243 0.625 1.2134-2.0833 1.2759-2.0833 1.3121 0 0.023 1.3226 1.0019 2.1875 2.4759 2.1875 1.3408 0 3.0112-0.98438 3.712-2.1875 1.2134-2.0833 1.2759-2.0833 1.3121 0 0.0209 1.2031 0.83576 2.1875 1.8108 2.1875 3.1415 0 5.7272-1.4712 5.7272-3.2587 0-0.95768 0.5625-1.7413 1.25-1.7413s1.25 0.84375 1.25 1.875c0 3.1203 5.8136 2.326 6.8617-0.9375 0.76498-2.3819 0.99273-2.4776 1.4874-0.625 0.67685 2.5346 2.9944 2.8439 5.1508 0.6875 1.1667-1.1667 1.5-1.1667 1.5 0 0 2.4183 4.8408 1.721 6.5004-0.93645 1.1502-1.8418 1.9253-2.1014 3.1756-1.0638 1.2544 1.0411 2.7647 0.47372 6.2517-2.3485 6.5641-5.3128 10.244-13.17 10.287-21.964l0.0352-7.1875-5.3125 0.0409c-2.9219 0.0225-9.25 0.58365-14.062 1.247-33.596 4.6309-75.447 6.0191-94.806 3.1446-16.387-2.4332-15.832-2.4642-15.749 0.87997 0.16116 6.49 10.27 23.952 13.244 22.879 0.79163-0.2854 1.8261 0.70777 2.2988 2.2071 0.84638 2.6845 0.87413 2.6784 1.8228-0.399l0.9633-3.125 1.3945 3.4375c1.6291 4.0159 5.3339 4.8202 4.3185 0.9375-0.93575-3.5783 0.72422-3.093 2.1378 0.625 0.65346 1.7188 2.106 3.125 3.2278 3.125 1.2995 0 1.7786-0.68042 1.3202-1.875-0.39572-1.0312-0.24026-1.875 0.34548-1.875s1.3592 1.125 1.7188 2.5c0.90715 3.4689 4.616 3.2235 4.7224-0.3125l0.0846-2.8125 1.3564 2.8125c1.5176 3.1467 5.9744 3.846 5.9744 0.9375 0-2.7469 2.1004-2.2882 2.8622 0.625 0.80632 3.0834 4.0711 3.2596 5.7877 0.3125zm39.356-10.798c-0.81498-2.1238 0.28027-4.5141 2.0684-4.5141 1.5764 0 1.5082 4.6472-0.0826 5.6305-0.69236 0.42789-1.586-0.0745-1.9858-1.1164zm-30.486-1.7016c0.01-0.51563 0.49498-1.6882 1.0766-2.6057 0.80396-1.2683 1.2208-1.0436 1.7388 0.9375 0.45207 1.7287 0.0898 2.6057-1.0766 2.6057-0.96688 0-1.7494-0.42188-1.7388-0.9375zm-21.72-4.9298c-1.494-1.494-0.80714-4.1327 1.0756-4.1327 1.0312 0 1.875 0.81055 1.875 1.8012 0 2.0883-1.7841 3.498-2.9506 2.3315zm-25.799-2.2577c0-1.0312 0.5625-1.875 1.25-1.875s1.25 0.84375 1.25 1.875-0.5625 1.875-1.25 1.875-1.25-0.84375-1.25-1.875zm91.25-6.875c0-1.375 0.50233-2.5 1.1163-2.5 1.405 0 2.7157 3.2514 1.7143 4.2528-1.5047 1.5047-2.8305 0.6837-2.8305-1.7528zm-20.625-6.971c43.248-4.2021 44.375-4.3947 44.375-7.5817 0-2.8174-0.2385-2.8748-9.6875-2.3323-40.607 2.3317-91.694 4.451-92.676 3.8446-0.42366-0.26184-6.8153-0.82012-14.204-1.2406-12.748-0.72558-13.433-0.64023-13.433 1.674 0 2.9554 2.4058 3.6841 22.5 6.8148 7.2695 1.1326 46.966 0.3913 63.125-1.1788zm-4.375-9.8949c6.5312-0.30591 19.188-0.8951 28.125-1.3093 8.9375-0.41423 17.099-0.9891 18.136-1.2775 1.6384-0.45556 1.8587-5.9818 1.6779-42.098-0.12262-24.49-0.80976-45.426-1.6722-50.949-0.80528-5.1562-1.7693-12.934-2.1423-17.285-0.6259-7.3009-0.88298-7.8588-3.3388-7.2458-1.4634 0.36526-13.348 0.99348-26.411 1.3961-13.062 0.40259-26.844 0.9744-30.625 1.2707-3.7812 0.29632-19.689 0.60707-35.35 0.69055l-28.475 0.15182 0.31741 22.698c0.17457 12.484 0.10087 38.311-0.16371 57.393-0.26463 19.082-0.16748 35.008 0.21587 35.392 2.4096 2.4096 41.131 2.9793 79.705 1.1726zm-51.914-5.572c-3.6949-1.4979-11.469-10.515-13.729-15.924-1.0726-2.5672-2.2906-7.9234-2.7065-11.903-0.51101-4.8892-1.3065-7.2352-2.4532-7.2352-0.98306 0-1.6969-1.3333-1.6969-3.1694 0-2.5743 1.0757-3.6305 5.7286-5.625 3.1507-1.3506 6.4554-2.4556 7.3438-2.4556 2.2163 0 3.3686 6.7094 2.4027 13.99-1.4832 11.181 3.929 19.799 12.396 19.74 5.4674-0.038 9.6287-5.7968 9.6287-13.325 0-7.2971-2.1214-11.374-6.4083-12.315-4.0969-0.89982-4.2519-1.0858-5.4108-6.4906-0.77622-3.6198-0.44468-4.2806 3.2905-6.5578 2.2845-1.3928 4.8461-2.5345 5.6924-2.5371 2.2109-0.006 3.5543 6.279 1.6001 7.4868-1.1062 0.68367-0.52565 1.4804 1.9516 2.6783 5.9617 2.883 9.6014 11.849 10.239 25.224 0.52885 11.091 0.42944 11.631-2.7206 14.781-1.7982 1.7982-5.0193 3.6194-7.158 4.0472-5.3051 1.061-14.901 0.84221-17.99-0.41021zm18.517-1.7435c6.6043-2.7606 7.5-4.7394 7.2588-16.036-0.15351-7.1918-0.98914-11.984-2.8399-16.286-2.8044-6.519-5.2046-8.4961-10.314-8.4961-3.8289 0-4.1851-1.8887-0.70717-3.75 2.749-1.4712 3.4204-5.0234 0.9375-4.9602-0.85938 0.0219-2.5726 0.80581-3.8072 1.7421-3.2524 2.4666-1.6561 7.3772 2.9652 9.1216 4.8507 1.8309 7.8923 8.9031 7.0485 16.389-1.2444 11.041-9.1077 16.255-17.98 11.922-6.5503-3.1991-8.4589-7.6933-8.5206-20.064-0.0281-5.6235-0.42797-10.601-0.88864-11.062-1.1091-1.1092-9.7551 1.7789-9.7551 3.2585 0 1.4972 0.85132 1.4544 3.9392-0.19822 3.5265-1.8874 4.1381-0.69196 1.6157 3.1578-2.6064 3.978-1.961 15.598 1.2066 21.724 3.0003 5.8019 9.4464 12.725 11.806 12.68 1.8485-0.0357 1.8354-0.20878-0.12949-1.7003-1.2031-0.9133-2.1875-2.3888-2.1875-3.279 0-1.1405 0.69856-0.98624 2.3657 0.52249 1.3011 1.1775 3.973 2.6226 5.9375 3.2113l3.5718 1.0704-3.75 0.1953c-3.2568 0.16961-3.4212 0.33659-1.25 1.2696 3.7592 1.6154 8.981 1.4482 13.478-0.43138zm0.28049-7.0686c0.45028-1.7188 1.1201-4.3906 1.4885-5.9375 0.36839-1.5469 1.2269-2.8125 1.9078-2.8125s0.89658 0.88975 0.47928 1.9772c-0.41731 1.0875-0.75874 2.6675-0.75874 3.5111 0 0.84361-0.8855 2.6257-1.9678 3.9603-1.8959 2.3378-1.9379 2.3122-1.1491-0.69859zm32.7 4.1667c-1.3955-1.3955-0.93009-5.1761 0.70434-5.7209 1.1164-0.37214 1.196-1.2783 0.29037-3.3079l-1.2473-2.7953-4.7209 3.2037c-2.5965 1.762-4.917 3.2037-5.1566 3.2037-1.445 0-2.284-6.3804-2.8135-21.397l-0.60024-17.022 5.7294-3.2022c7.9406-4.4381 8.3859-3.9517 12.928 14.121 0.86705 3.4501 1.7218 4.375 4.043 4.375 4.2615 0 5.7967 6.1356 2.4373 9.7415-2.8189 3.0257-3.2137 7.1335-0.6856 7.1335 1.9809 0 3.6371 3.3765 2.5327 5.1634-0.92551 1.4975-10.111 7.3366-11.541 7.3366-0.58658 0-1.4415-0.375-1.8998-0.83334zm7.3156-4.3464c2.498-1.4739 3.9716-3.0322 3.2746-3.4629-0.69696-0.43075-1.8832-2.4035-2.6362-4.3838-1.1642-3.0622-0.98371-4.0107 1.2071-6.3427 3.008-3.2019 2.1991-7.3488-1.2218-6.263-1.7463 0.55425-2.49-0.49741-3.7304-5.2752-3.0236-11.646-5.259-17.843-6.4368-17.843-1.4452 0-7.5828 3.8172-8.9978 5.5961-0.55952 0.70338-0.644 7.1851-0.18778 14.404 0.45624 7.2188 0.80918 14.098 0.78433 15.288-0.0728 3.4797 2.0458 3.8204 6.5286 1.05 2.303-1.4233 4.4877-2.5879 4.8549-2.5879 1.3593 0 3.2615 7.4456 2.0876 8.1711-1.1659 0.72055-1.6842 4.3289-0.62179 4.3289 0.30445 0 2.5974-1.2059 5.0954-2.6798zm-14.468-15.302c-0.30555-0.3029-0.3685-4.2206-0.13987-8.7059 0.31996-6.2776 0.80978-8.0039 2.1275-7.4983 0.94151 0.36128 2.0919 3.1915 2.5565 6.2893 0.69354 4.6248 0.41233 6.0647-1.572 8.049-1.3291 1.3291-2.6666 2.1688-2.9722 1.8659zm26.319 10.498c-2.6938-1.7172-0.048-5.5309 4.1883-6.0369 3.7968-0.45351 9.5617-7.2083 9.5617-11.204 0-4.0304-2.2462-9.007-4.4465-9.8513-1.1125-0.42691-3.6293 0.45508-5.7295 2.0078-2.06 1.5231-4.4484 2.4995-5.3076 2.1698-0.85912-0.32969-2.2798-3.8907-3.1571-7.9133-0.87726-4.0226-2.4307-8.6283-3.4521-10.235-1.0214-1.6065-1.6715-3.0631-1.4447-3.2368 3.2232-2.4686 15.501-7.997 16.189-7.2896 0.50676 0.52105 1.3053 2.5016 1.7745 4.4012 0.75759 3.0673 0.40914 3.6086-3.1131 4.8365-2.6849 0.93598-3.7396 1.9732-3.2646 3.2109 0.38588 1.0055 0.70158 2.0635 0.70158 2.351 0 0.28751 2.705 0.52276 6.0111 0.52276 7.4827 0 10.059 1.8233 11.528 8.1585 3.0149 13.004 0.75609 20.396-7.9585 26.047-5.3212 3.4503-8.934 4.0666-12.08 2.0609zm9.9517-3.1165c6.6874-3.4582 8.7983-7.5669 8.7983-17.125 0-7.6008-0.38421-9.0225-3.199-11.837-2.7873-2.7873-3.8912-3.0952-8.5774-2.3925-5.1276 0.76893-5.4525 0.62747-6.9692-3.0342-0.875-2.1124-1.3746-3.9901-1.1102-4.1726 0.26441-0.18251 2.0276-0.99617 3.9182-1.8081 3.2813-1.4092 4.8555-5.2799 2.1474-5.2799-1.9922 0-9.573 3.3628-10.325 4.5803-0.79706 1.2897 0.87734 10.843 2.7702 15.805 1.2729 3.3371 1.4765 3.4143 4.1204 1.5625 1.5297-1.0714 4.6388-1.9481 6.9091-1.9481 4.7648 0 6.5659 3.1029 6.5659 11.312 0 5.7759-5.2639 12.628-10.104 13.153-4.0233 0.43586-3.9004 0.36325-3.0214 1.7856 1.0896 1.763 3.9126 1.5533 8.0767-0.60003zm-64.871-48.156c-9.8906-11.492-13.002-17.661-13.116-26.001-0.0769-5.6571 0.36929-6.9852 3.035-9.0353 7.3459-5.6495 17.309-4.369 19.076 2.4519 1.3485 5.2041 0.54501 5.9674-4.3407 4.1232-7.2962-2.754-9.2501 2.0906-4.5693 11.329 5.5938 11.041 11.891 16.874 17.375 16.095 2.3051-0.32742 7.4583 4.2127 7.4583 6.571 0 2.0982-3.8934 3.1829-11.504 3.205-5.7355 0.0166-6.063-0.1967-13.415-8.7393zm20.383 6.7702c2.9478-1.1312-0.33083-5.5138-4.1248-5.5138-2.8545 0-11.312-4.7383-11.331-6.3482-0.005-0.39775-1.7585-3.3651-3.8973-6.5942-4.6197-6.9745-6.497-14.001-4.6584-17.437 1.0526-1.9668 2.216-2.2935 6.2431-1.7534 4.5238 0.60677 4.9163 0.43142 4.5643-2.0394-0.32303-2.2675-1.3332-2.7644-6.2656-3.082-8.6435-0.55658-12.244 2.185-12.244 9.3222 0 3.0421 1.0924 7.6723 2.4275 10.289 3.0706 6.0188 15.875 21.741 18.624 22.867 2.6553 1.0878 8.1904 1.238 10.663 0.2892zm15.165-9.2505c-0.45969-1.4483-0.27133-3.3134 0.41857-4.1447 0.85896-1.035 0.50269-3.6757-1.1303-8.3775-5.5949-16.109-6.3429-17.604-8.476-16.932-1.3776 0.43369-2.7765-0.59284-4.196-3.0791-1.1712-2.0513-1.6881-3.7297-1.1487-3.7297 0.53935 0 1.7332-1.4062 2.6531-3.125 2.6711-4.991 4.8193-3.7057 8.8793 5.3125 10.579 23.499 10.271 22.983 13.294 22.224 2.4314-0.61023 2.8211-0.22545 2.7873 2.7519-0.0384 3.3792-1.1 4.5197-8.9157 9.5779-3.2208 2.0844-3.3574 2.0687-4.1658-0.47821zm8.168-5.1c3.8464-3.4099 3.9996-3.7665 1.3771-3.2059-2.1548 0.46066-3.1154 0.00076-3.5615-1.7051-0.33596-1.2847-2.5238-6.1379-4.8618-10.785-2.338-4.647-4.2531-9.0438-4.2557-9.7708-0.002-0.72691-1.1499-3.2001-2.5496-5.496-2.0941-3.4348-2.8684-3.906-4.3703-2.6594-2.9871 2.4791-2.2834 6.2088 1.1715 6.2088 2.6886 0 3.5111 1.4465 7.9965 14.062 3.5335 9.9386 4.6259 14.521 3.7251 15.625-2.4628 3.0192 1.0478 1.521 5.3288-2.2742zm-28.188 0.5177c-2.7797-2.7797-4.3596-7.2167-4.3596-12.244 0-8.2779 9.9723-10.495 16.406-3.6468 3.8963 4.1474 4.2102 13.504 0.54307 16.185-3.2826 2.4003-10.052 2.2418-12.589-0.29474zm10.141-0.13767c2.5392-1.6955 4.3168-6.4656 3.5491-9.5242-1.5039-5.992-9.4319-10.767-13.127-7.9059-7.7822 6.0254 1.4623 22.849 9.5778 17.43zm-7.7951-8.41c-0.43295-1.1283-0.18782-2.6508 0.54476-3.3834 1.9045-1.9045 5.513-0.16386 5.0155 2.4194-0.55413 2.8774-4.5596 3.5718-5.5603 0.964zm4.5448-0.42502c0-1.6276-1.486-2.71-2.6947-1.963-1.2928 0.79899-0.17806 3.0046 1.5185 3.0046 0.64693 0 1.1762-0.46875 1.1762-1.0417zm31.5 2.0417c-0.825-0.825-1.5-2.2592-1.5-3.1871 0-0.92788-0.873-3.3753-1.94-5.4386-1.3876-2.6832-2.5739-3.5503-4.1662-3.045-2.7943 0.88687-5.7314-4.4918-3.6107-6.6124 0.73689-0.73689 1.6863-3.4717 2.1099-6.0774 0.77466-4.7658 4.5594-7.4072 5.6159-3.9194 1.8561 6.1273 1.8949 6.1693 4.4419 4.8063 2.1362-1.1433 2.6029-0.87292 3.302 1.9126 0.4628 1.8439 0.20631 3.852-0.59428 4.6525-3.5344 3.5344 0.0666 10.734 4.9547 9.9057 1.2313-0.2086 2.8259 0.73749 3.5624 2.1136 1.0911 2.0388 0.82788 2.8452-1.4492 4.4402-3.3115 2.3195-8.633 2.5422-10.726 0.44896zm7.3322-1.044c3.1169-1.6681 3.1509-4.1071 0.0435-3.1209-1.6506 0.5239-3.1747-0.26382-5-2.5843-2.6904-3.4202-3.6179-10.501-1.3757-10.501 0.6875 0 1.25-0.88165 1.25-1.9592 0-1.3987-0.72447-1.7293-2.5321-1.1556-2.0269 0.64332-2.7995 0.0366-3.8723-3.0408-1.6639-4.7729-3.5892-4.9897-3.6148-0.40692-0.01 1.8906-0.52099 4.2302-1.1344 5.1992-1.7776 2.808-0.18044 5.182 2.9566 4.3947 2.4119-0.60535 3.0995 0.11987 5.0453 5.3214 2.1686 5.7971 4.0957 9.1473 5.2618 9.1473 0.30476 0 1.6421-0.58229 2.9719-1.294zm0.54283-35.598c12.399-1.051 18.11-2.1204 17.406-3.2592-0.41383-0.66961-2.5308-0.93524-4.7044-0.59029-6.7192 1.0664-59.979 2.6169-89.89 2.6169-26.233 0-31.083 0.43234-26.875 2.3957 1.5261 0.712 94.156-0.32322 104.06-1.163zm-20.625-4.1704c19.594-0.73201 36.328-1.3549 37.188-1.3841 2.4774-0.0844 2.0639-11.189-0.45259-12.155-1.1083-0.42529-10.249-0.0469-20.312 0.84101-10.064 0.88783-21.954 1.6119-26.422 1.609-13.677-0.009-66.669-1.6868-70.16-2.2214-3.0958-0.47425-3.333-0.13901-4.1249 5.8309-0.46213 3.4838-0.61492 6.5594-0.33953 6.8348 2.5249 2.5249 28.917 2.726 84.624 0.64475zm11.25-13.905c4.4688-0.64274 12.427-1.3306 17.685-1.5286l9.5597-0.35993-0.66357-4.3842c-0.36496-2.4113-2.9083-11.134-5.6518-19.384-2.7436-8.25-7.2004-21.75-9.9041-30-8.8731-27.075-7.9794-25.39-13.94-26.284-2.8916-0.43363-15.934-0.36011-28.984 0.16336-13.05 0.52346-26.037 0.97719-28.862 1.0083l-5.1355 0.0565-4.4705 9.4028c-18.201 38.281-22.325 48.948-24.01 62.099-0.71437 5.5749-0.51667 6.5434 1.4628 7.1656 1.2588 0.39573 15.779 1.0475 32.267 1.4485 16.488 0.40093 30.222 0.97328 30.521 1.2719 0.98385 0.98384 21.842 0.51635 30.126-0.67522zm-81.231-17.844c0.0281-2.2939 2.2152-5.3698 3.152-4.433 1.0929 1.0929-0.54689 5.9955-2.0054 5.9955-0.64116 0-1.1572-0.70313-1.1466-1.5625zm78.731-6.5625c0-1.8634 0.53825-2.9399 1.25-2.5 0.6875 0.4249 1.25 1.5499 1.25 2.5s-0.5625 2.0751-1.25 2.5c-0.71175 0.43989-1.25-0.63661-1.25-2.5zm-35.625 0.625c-0.49894-0.80731-0.34468-2.0303 0.34283-2.7178 0.83333-0.83333 1.5524-0.76072 2.1572 0.21783 0.49894 0.80731 0.34467 2.0303-0.34283 2.7178-0.83333 0.83334-1.5524 0.76073-2.1572-0.21782zm-21.641-5.0781c0.30079-0.90235 1.2852-1.8867 2.1875-2.1875 0.9375-0.3125 1.4062 0.15625 1.0938 1.0938-0.30078 0.90234-1.2852 1.8867-2.1875 2.1875-0.9375 0.3125-1.4062-0.15625-1.0938-1.0938zm47.741-10.487c-0.38309-0.99833-0.31536-2.4319 0.15051-3.1857 1.2216-1.9767 4.4197 0.92859 3.5414 3.2172-0.88406 2.3038-2.8021 2.2874-3.692-0.0315zm-23.587-9.4145c-0.92194-1.4917 0.24821-3.7704 1.9362-3.7704 1.521 0 1.5309 3.3833 0.0126 4.3216-0.64 0.39555-1.517 0.14749-1.9488-0.55122zm39.362-0.40648c0-0.89985 0.82586-2.728 1.8352-4.0625 1.5831-2.0931 1.8407-2.14 1.875-0.34115 0.0561 2.9411-1.2748 6.0397-2.594 6.0397-0.61393 0-1.1163-0.73624-1.1163-1.6361zm-69.409-9.6687c-1.1714-1.8954 2.0037-5.3504 3.5218-3.8322 1.4019 1.4019 0.31124 5.137-1.5 5.137-0.6685 0-1.5783-0.58714-2.0218-1.3048zm47.828-3.1925c-1.0014-1.0014 0.30923-4.2528 1.7143-4.2528 0.61394 0 1.1163 1.125 1.1163 2.5 0 2.4365-1.3258 3.2575-2.8305 1.7528zm-37.986-21.44c0.3197-0.51563 13.007-0.9375 28.195-0.9375s27.615-0.38526 27.617-0.85613c0.003-0.47087-0.51402-2.2179-1.1468-3.8823-1.1184-2.9417-1.4858-3.0181-13.147-2.7364-6.598 0.15943-12.272-0.15633-12.609-0.70169-0.33705-0.54535-2.6004-0.44275-5.0297 0.22801-2.4293 0.67075-5.9405 1.1019-7.8027 0.95803-1.8622-0.14385-6.8795-0.17671-11.15-0.073-6.2043 0.15063-8.2713 0.73317-10.29 2.9-1.9056 2.0454-2.187 3.1202-1.1456 4.375 1.4909 1.7964 5.5628 2.2506 6.5082 0.72597zm26.673-12.002c0.43363-0.43364 1.4027-0.32349 2.1534 0.24479 0.75076 0.56828 6.2248 0.70402 12.165 0.30166l10.8-0.73158-6.8557-16.839c-5.2324-12.852-6.6966-17.82-6.1837-20.98l0.67201-4.1411-12.61 0.35544-12.61 0.35544-0.50741 4.9696c-0.43797 4.2894-5.1011 15.183-14.369 33.567l-2.4132 4.7871 14.485-0.55031c7.9669-0.30267 14.84-0.90511 15.274-1.3388zm16.331-45.37c3.6094-0.43354 6.5625-1.2724 6.5625-1.8641 0-0.59174-0.78358-1.0759-1.7413-1.0759-2.7171 0-3.3728-3.4574-1.0888-5.7413 1.9182-1.9182 1.8957-2.1865-0.31957-3.8063-2.0509-1.4997-2.1863-2.2644-0.97091-5.4843 1.2269-3.2505 1.0978-3.9099-0.98355-5.0238-1.3177-0.70522-2.4045-2.5281-2.415-4.0507-0.0381-5.511-1.3215-6.0106-14.459-5.6288-12.163 0.35349-12.405 0.41928-12.823 3.4853-0.23456 1.7188-1.3596 4.1916-2.5 5.4951-1.5401 1.7604-1.6716 2.5107-0.51103 2.9167 2.3143 0.8095 1.8942 6.6679-0.625 8.7164-1.5918 1.2944-1.762 1.956-0.625 2.4295 2.423 1.009 1.8429 3.8274-0.9375 4.5545-3.7242 0.97389-3.084 4.3833 0.9375 4.9925 5.747 0.8706 25.53 0.92255 32.5 0.08534zm-24.668-6.1692c0.0105-1.3177 0.59011-3.2396 1.288-4.2708 0.92664-1.3693 1.0426-0.86364 0.43001 1.875-1.0281 4.5962-1.7435 5.5939-1.718 2.3958zm21.521-1.7708c0-2.4062 0.25725-3.3906 0.57166-2.1875 0.3144 1.2031 0.3144 3.1719 0 4.375-0.31441 1.2031-0.57166 0.21875-0.57166-2.1875zm-24.394 1.5625c-0.27602-0.51562-0.084-2.3438 0.42664-4.0625 0.86787-2.921 0.93663-2.8598 1.0531 0.9375 0.12012 3.9187-0.43134 5.0834-1.4797 3.125zm9.348-2.1875c0.0255-2.0625 0.30562-2.7549 0.62255-1.5387 0.31692 1.2162 0.29608 2.9037-0.0464 3.75-0.34235 0.84629-0.60165-0.14879-0.57617-2.2113zm9.7563 0.625c0-1.375 0.50984-2.5 1.133-2.5 0.62314 0 0.83879 1.125 0.47922 2.5-0.35958 1.375-0.86942 2.5-1.133 2.5-0.26356 0-0.47921-1.125-0.47921-2.5zm-5-0.625c0-1.0312 0.54485-1.875 1.2108-1.875 0.66592 0 0.88699 0.84375 0.49127 1.875-0.39574 1.0312-0.94058 1.875-1.2108 1.875-0.27019 0-0.49126-0.84375-0.49126-1.875zm7.5-12.218c0-1.7928 0.58505-3.6211 1.3001-4.0631 0.85274-0.52702 1.0073 0.41537 0.44916 2.7387-1.1505 4.7893-1.7493 5.2426-1.7493 1.3243zm-21.25-0.83333c0-1.3344 0.49219-2.7304 1.0938-3.1022 0.60156-0.37179 1.0938 0.72002 1.0938 2.4262s-0.49219 3.1022-1.0938 3.1022c-0.60156 0-1.0938-1.0918-1.0938-2.4262zm4.5091 1.3932c-0.91768-1.4849 0.56971-6.4669 1.9307-6.4669 0.63151 0 0.53988 1.1366-0.2036 2.5258s-1.0113 3.0767-0.59521 3.75c0.41613 0.67329 0.47533 1.2242 0.13158 1.2242s-0.91232-0.46488-1.2635-1.0331zm4.9691-1.4669c0.92734-3.4813 1.5185-4.42 2.2946-3.644 0.2875 0.28749-0.29846 1.9281-1.3021 3.6458l-1.8249 3.1231 0.83243-3.125zm5.6289 1.25c-0.0378-1.0312 0.47655-2.7188 1.143-3.75 1.4766-2.285 1.4766-0.31136 0 3.125-0.70835 1.6484-1.0977 1.8613-1.143 0.625z"/>
</svg>
