<?xml version="1.0" encoding="UTF-8" standalone="no"?>
<!-- Created with Inkscape (http://www.inkscape.org/) -->
<svg id="svg3531" xmlns:rdf="http://www.w3.org/1999/02/22-rdf-syntax-ns#" xmlns="http://www.w3.org/2000/svg" height="949.25" viewBox="0 0 636.04059 949.2522" width="636.04" version="1.1" xmlns:cc="http://creativecommons.org/ns#" xmlns:dc="http://purl.org/dc/elements/1.1/">
 <metadata id="metadata3537">
  <rdf:RDF>
   <cc:Work rdf:about="">
    <dc:format>image/svg+xml</dc:format>
    <dc:type rdf:resource="http://purl.org/dc/dcmitype/StillImage"/>
    <dc:title/>
   </cc:Work>
  </rdf:RDF>
 </metadata>
 <path id="path3541" d="m591.88 948.22c-2.0625-0.6346-6.5557-1.4803-9.9849-1.8792-3.4291-0.3989-6.476-0.9665-6.7708-1.2613-1.1752-1.1753 11.444-0.4427 16.73 0.9713 3.9396 1.0536 6.0311 1.1119 6.9495 0.1935 0.7226-0.7226 1.6512-5.3384 2.0636-10.257 0.4124-4.9189 1.1616-8.9435 1.6649-8.9435 0.9051 0 0.4137 7.1878-1.1537 16.875-0.8917 5.5114-2.7832 6.3679-9.499 4.3015zm-62.393-0.8615c-0.2312-0.2312-7.381-0.6899-15.888-1.0194-8.5075-0.3295-23.343-1.1563-32.968-1.8375-9.625-0.68114-25.375-1.5107-35-1.8434-9.625-0.33275-22.844-1.4576-29.375-2.4996-19.511-3.1128-56.215-6.9475-66.25-6.9214-13.636 0.0354-62.71-1.1195-74.375-1.7502-5.5-0.29737-13.656-0.6042-18.125-0.68182-9.461-0.16435-25.695-3.2996-29.535-5.704-1.4631-0.91616-2.964-3.2446-3.3354-5.1742-0.37135-1.9296-1.2429-5.7585-1.9368-8.5085-1.9031-7.5422-2.6531-21.583-1.6026-30 0.78065-6.2548 0.96586-4.7808 1.1156 8.8779 0.12125 11.064 0.80064 18.162 2.0938 21.875 1.0528 3.0234 1.9224 6.4126 1.9324 7.5315 0.0682 7.639 13.68 9.1048 114.39 12.319 35.785 1.142 44.58 1.9198 76.243 6.7429 6.1836 0.94193 16.309 1.8045 22.5 1.9168 6.1914 0.11225 17.445 0.73252 25.007 1.3783 7.5625 0.64575 27.25 1.796 43.75 2.5561 31.746 1.4625 52.265 3.5703 32.138 3.3014-5.6989-0.076-10.551-0.3276-10.782-0.5587zm28.368-1.2354c3.2864-0.2583 8.3489-0.2552 11.25 0.01 2.9011 0.2622 0.2123 0.4735-5.9752 0.4697-6.1875 0-8.5612-0.2183-5.2748-0.4766zm44.866-22.83c-0.04-1.7188 0.3937-5.375 0.9625-8.125 0.6634-3.2074 1.0599-3.8796 1.1059-1.875 0.04 1.7188-0.3937 5.375-0.9625 8.125-0.6634 3.2074-1.0599 3.8796-1.1059 1.875zm2.4815-16.25c0-1.7188 0.2838-2.4219 0.6305-1.5625 0.3468 0.85937 0.3468 2.2656 0 3.125-0.3467 0.85937-0.6305 0.15625-0.6305-1.5625zm1.3382-8.125c-0.037-2.75 0.3716-7.8125 0.907-11.25 0.7801-5.0086 0.9821-5.381 1.0168-1.875 0.024 2.4062-0.3842 7.4688-0.9069 11.25-0.8275 5.986-0.959 6.2285-1.0169 1.875zm2.5339-24.375c-0.026-3.0938 0.3707-9 0.8825-13.125 0.8452-6.8124 0.9349-6.9843 0.9786-1.875 0.026 3.0938-0.3706 9-0.8824 13.125-0.8452 6.8124-0.935 6.9843-0.9787 1.875zm-386.22-15.938c0.55597-8.0781 1.5663-15.812 2.2451-17.188 0.67885-1.375 0.97243-1.5655 0.65239-0.4234s-0.97961 8.8765-1.4657 17.188c-0.48612 8.311-1.2346 15.111-1.6632 15.111-0.42866 0-0.3245-6.6094 0.23148-14.688zm388.69-9.0625c0-2.4062 0.2572-3.3906 0.5716-2.1875s0.3144 3.1719 0 4.375-0.5716 0.21875-0.5716-2.1875zm1.0846-8.8542c0.069-2.349 0.5938-5.6771 1.1673-7.3958 0.6731-2.0174 0.7905-0.6882 0.3311 3.75-0.8142 7.8651-1.6832 9.9796-1.4984 3.6458zm-388.16-3.4976c-0.92385-1.4948 0.30681-27.726 1.737-37.023 0.91596-5.9547 0.9752-5.0533 0.2875 4.375-0.47639 6.5312-0.83175 16.797-0.78969 22.812 0.0775 11.076-0.0147 11.81-1.2348 9.8358zm390.73-11.398c0-1.7188 0.2838-2.4219 0.6305-1.5625 0.3468 0.85937 0.3468 2.2656 0 3.125-0.3467 0.85937-0.6305 0.15625-0.6305-1.5625zm1.2964-6.875c0.026-2.0625 0.3056-2.7549 0.6225-1.5387s0.2961 2.9037-0.046 3.75c-0.3424 0.84629-0.6017-0.14879-0.5762-2.2113zm1.1513-6.4625c-0.08-1.4919 1.2238-9.0856 2.8968-16.875 1.6731-7.7894 3.2705-16.131 3.55-18.538l0.5081-4.375 0.2 4.8495c0.1662 4.0277-1.4465 12.817-6.4499 35.151-0.5191 2.3174-0.5706 2.3019-0.705-0.2125zm-388.66-28.538c-0.033-2.0625 0.42339-4.875 1.0142-6.25 1.0743-2.5 1.0743-2.5 1.0142 0-0.033 1.375-0.48944 4.1875-1.0142 6.25l-0.95421 3.75-0.06-3.75zm0.9194-10.104c-0.31681-3.8276 0.45205-18.531 1.3019-24.896 0.66801-5.0034 0.78431-2.0906 0.34935 8.75-0.3586 8.9375-0.85549 16.484-1.1042 16.771-0.24871 0.28645-0.49487 0.005-0.54705-0.625zm395.83-10.521c0.7527-11.363 4.1218-35.285 5.0994-36.209 0.3878-0.36647 0.3864 1.5837 0 4.3337-0.3894 2.75-1.3091 9.7812-2.0439 15.625-0.7347 5.8438-1.8619 14-2.5047 18.125l-1.1689 7.5 0.6211-9.375zm-393.14-32.61c0.0562-5.099 0.87065-16.865 1.81-26.146l1.7078-16.875-0.62935 14.375c-0.94058 21.483-1.9692 36.81-2.5098 37.396-0.26445 0.28645-0.43486-3.651-0.37869-8.75zm398.76-5.8416c-0.059-0.8639 0.76-7.3326 1.8201-14.375 2.2456-14.917 1.8979-17.295-2.816-19.252-5.5485-2.3043-27.693-6.5992-37.026-7.1811-4.6965-0.29281-8.9153-0.93814-9.375-1.4341-1.5247-1.6445 21.498 0.70698 31.51 3.2183 5.4152 1.3584 11.449 2.4698 13.409 2.4698 2.4431 0 4.2217 1.0055 5.6591 3.1992 1.9015 2.9022 1.942 4.3819 0.4355 15.938-1.5791 12.112-3.3848 20.808-3.6167 17.418zm-511-24.679c0.01-3.4375 0.25215-4.6954 0.53946-2.7953 0.28733 1.9001 0.27964 4.7126-0.017 6.25-0.29669 1.5374-0.53177-0.0171-0.5224-3.4547zm53.458-12.815c-1.5512-7.3919-2.5582-14.845-2.2379-16.562 0.52262-2.8023 0.59984-2.7319 0.7526 0.6858 0.18577 4.1562 4.8892 26.6 5.9259 28.278 0.353 0.57119 0.13284 1.0385-0.48925 1.0385-0.6221 0-2.4002-6.0479-3.9514-13.44zm283.66 6.3895c-2.7702-2.5027-4.7302-4.8567-4.3556-5.2313 0.37454-0.37454 2.9206 1.506 5.658 4.179 3.5721 3.4881 4.977 4.2662 4.977 2.7566 0-3.3139-3.9047-12.387-7.2477-16.841-1.677-2.2344-2.4277-4.0625-1.6684-4.0625 3.3651 0 12.097 18.021 10.61 21.897-1.0632 2.7705-2.4342 2.3067-7.973-2.6973zm10.654-1.6997c-0.4249-0.6875 0.1044-1.25 1.1762-1.25 2.4382 0 2.4551-2.0007 0.074-8.75-2.1686-6.1464-2.184-6.25-0.9293-6.25 1.3324 0 4.0543 9.2179 4.0543 13.73 0 3.7274-2.6761 5.2686-4.375 2.5197zm6.2908-1.184c-0.4474-0.7238 0.064-1.316 1.1354-1.316 2.4662 0 2.4506-1.2484-0.1416-11.365-2.105-8.2145-2.1026-8.2522 0.7809-12.302 1.5908-2.234 3.165-6.4811 3.4983-9.438l0.6059-5.3761-4.8348-0.71511c-2.6592-0.39332-11.887-1.0772-20.507-1.5198-17.197-0.88297-17.955-0.63076-19.065 6.3404-0.3283 2.0625-1.2269 6.0673-1.9968 8.8996-2.1113 7.7665 1.7007 15.02 11.734 22.325 2.0382 1.4842 2.1276 1.8278 0.48355 1.8602-2.3997 0.0473-12.942-10.892-14.143-14.676-0.95216-3-4.1803-3.5677-33.215-5.841-3.0938-0.24223-9-1.095-13.125-1.895-4.125-0.80005-12.562-1.9304-18.75-2.5118-23.102-2.1709-39.161-3.9272-53.125-5.8098-18.109-2.4415-32.342-3.8638-53.75-5.3715-13.918-0.98022-17.187-0.88363-18.653 0.55125-1.2224 1.1957-2.1128 6.7176-2.8476 17.66-0.58802 8.7562-1.4069 16.233-1.8198 16.614-0.41286 0.38173-0.36058-6.0559 0.11625-14.306 1.0581-18.308 3.1254-23.832 8.8296-23.593 16.312 0.6835 44.702 3.4652 61.875 6.0627 19.772 2.9905 43.865 5.608 44.838 4.8712 2.2267-1.6861 2.6607-99.165 0.50572-113.59-0.7189-4.8125-3.1061-14.656-5.3049-21.875-3.9845-13.081-7.9128-26.693-10.101-35-1.6299-6.1882-1.6566-20.666-0.0543-29.43 0.74867-4.0947 1.5922-9.4137 1.8744-11.82 0.28227-2.4062 0.26719-0.71875-0.0335 3.75-1.842 27.376-1.9096 32.235-0.51363 36.914 0.81408 2.7288 2.5027 8.6176 3.7524 13.086 1.2497 4.4688 4.3068 15.011 6.7934 23.427 6.8803 23.286 7.937 38.033 6.69 93.354-0.51023 22.636-0.662 41.421-0.33728 41.746 0.32471 0.32473 5.9109 1.0393 12.414 1.588 6.5028 0.54866 15.092 1.5491 19.087 2.2232 3.9952 0.67412 14.014 1.851 22.264 2.6154 8.25 0.76434 16.464 1.6195 18.254 1.9003 3.0469 0.47808 3.353 0.0571 4.8067-6.609 0.8539-3.9158 2.0792-8.4508 2.723-10.078 0.87548-2.2128 0.69349-3.3152-0.72221-4.375-3.322-2.4868-3.7672-17.414-0.84381-28.292 1.3858-5.1562 2.5505-8.1094 2.5884-6.5625 0.0471 1.927 0.83269 2.8125 2.495 2.8125 3.8744 0 4.2165 2.2896 0.40746 2.7274-3.0024 0.34512-3.6706 1.2221-5.0649 6.6476-1.675 6.5177-1.0202 18.763 1.0725 20.056 1.5254 0.94277 48.864 4.5047 50.671 3.8127 0.763-0.29219 1.7677-3.3985 2.2326-6.9029 0.4648-3.5044 1.1443-7.1511 1.5098-8.1037 0.3813-0.99366-1.6102-3.9178-4.6719-6.8598-2.9351-2.8203-4.6939-5.1278-3.9084-5.1278 0.7854 0 1.7756 0.5625 2.2005 1.25 1.7221 2.7864 3.0624 0.74616 6.3642-9.6875 3.9533-12.493 5.1742-24.382 3.1375-30.554-0.7694-2.3312-1.6669-8.1524-1.9944-12.936-1.0974-16.026-2.1603-23.433-3.9914-27.815-1.3012-3.1141-1.9478-10.969-2.2737-27.617-0.2504-12.796-1.2613-33.167-2.2463-45.269-1.7377-21.348-1.9275-22.263-6.3668-30.711l-4.5757-8.7076 2.5197-8.039c2.7295-8.7085 3.2131-19.75 1.2554-28.664-1.1411-5.1958-7.4421-26.43-8.078-27.222-0.1533-0.19111-1.9036 0.27035-3.8896 1.0255-3.2237 1.2257-25.946 1.739-32.361 0.73095-1.375-0.21608-7-0.78852-12.5-1.2721-14.914-1.3113-16.611-1.5464-27.752-3.8469-7.2905-1.5053-13.067-1.8928-20-1.3414-20.637 1.6415-23.714 1.4905-26.836-1.317-3.5593-3.2004-18.5-12.21-19.158-11.552-0.63675 0.63674 5.9901 22.343 13.068 42.802 1.4044 4.0598 2.4849 9.6848 2.401 12.5-0.14191 4.7652-0.22341 4.6357-1.1809-1.8755-0.56564-3.8466-3.2362-12.847-5.9346-20-2.6984-7.1533-5.6184-16.1-6.4888-19.881-3.2772-14.236-7.3801-18.881-20.455-23.157-3.4673-1.1341-7.4383-2.8564-8.8245-3.8273-3.7146-2.6018-5.2368-2.185-6.9277 1.897-1.3338 3.22-7.6236 7.5877-10.927 7.5877-3.1856 0-6.6093 5.3104-6.6093 10.251 0 5.9939-4.8695 15.247-9.1017 17.295-2.3421 1.1333-2.4746 1.0883-0.85237-0.2895 4.1415-3.5175 7.2529-9.4615 8.0644-15.406 1.3401-9.8168 1.5562-10.129 9.362-13.514 5.4245-2.3525 7.9566-4.2898 9.4948-7.2643 2.0811-4.0244 2.0693-4.0794-1.4973-7.0061-1.9772-1.6224-6.6886-4.9723-10.47-7.4441-3.7812-2.4718-10.197-6.6604-14.258-9.3079-4.0606-2.6476-8.6364-4.8137-10.168-4.8137-2.4426 0-2.8925 0.85556-3.6536 6.9469-0.47739 3.8208-2.1747 10.789-3.7718 15.485l-2.9039 8.5377 5.653 5.4528c3.1091 2.9991 6.9864 8.4101 8.6162 12.025 2.5286 5.608 2.8942 8.0829 2.4924 16.875-0.34301 7.5069 0.22937 13.138 2.109 20.748 2.6905 10.893 2.2471 14.111-2.0614 14.959-1.4774 0.29077-2.0535-0.49829-2.0535-2.8125 0-1.7692 0.42187-3.2253 0.9375-3.2358 3.1247-0.0638 4.0505-2.1422 2.6912-6.0414-1.1275-3.2344-1.7408-3.7376-3.14-2.5764-2.6697 2.2156-5.8573-0.83877-4.1685-3.9943 0.69724-1.3028 1.951-2.3687 2.7862-2.3686 1.9999 0.00024 1.8559-23.922-0.18125-30.094-1.5996-4.8467-12.986-16.884-14.87-15.719-0.65132 0.40252-2.1952 3.4221-3.4308 6.7102-7.0091 18.652-18.095 37.551-35.035 59.728-4.2011 5.5-9.7489 12.768-12.329 16.151-8.996 11.797-15.647 28.35-20.131 50.099-1.1338 5.5-2.8644 12.862-3.8458 16.36-0.98142 3.4979-1.7844 10.389-1.7844 15.312 0 5.4759-0.51484 8.9526-1.3257 8.9526-1.6509 0-0.43567-15.417 1.9214-24.375 0.90447-3.4375 2.3169-10.188 3.1386-15 3.4226-20.044 12.796-41.754 24.574-56.921 20.078-25.854 26.294-35.121 34.088-50.815 12.694-25.564 19.376-43.103 20.674-54.271l0.81474-7.0078-7.255-3.5164c-10.445-5.0624-24.227-14.692-28.027-19.584-5.4037-6.9546-10.627-17.278-14.265-28.197-1.8902-5.6719-3.9693-10.312-4.6202-10.312-1.6463 0-12.217 7.7035-12.217 8.9032 0 1.626-7.8061 4.6828-12.945 5.0694-4.6625 0.35072-4.8908 0.179-6.9693-5.2425-2.9032-7.5728-12.069-21.633-24.434-37.48-12.404-15.897-25.129-34.733-28.191-41.728-1.2393-2.8309-2.6082-7.9596-3.042-11.397-1.9657-15.577-4.7478-21.482-23.85-50.625-5.6328-8.5938-11.78-18.438-13.661-21.875-1.8805-3.4375-3.9409-6.892-4.5786-7.6767-1.6752-2.0611-13.078-25.502-14.204-29.198-1.8696-6.1405-5.9251-13.75-7.3255-13.745-0.78367 0.003-3.9561 1.7074-7.0498 3.7876-7.4954 5.0399-15.925 8.7533-18.034 7.9441-3.5986-1.3809-16.257 15.415-16.089 21.347 0.0955 3.3677 5.0982 18.167 9.7322 28.791 1.6055 3.6806 2.7181 8.7712 5.7372 26.25 0.83125 4.8125 2.8697 13.25 4.5299 18.75 3.8822 12.861 9.7307 36.55 11.496 46.562 0.75754 4.2969 2.0262 11.328 2.8193 15.625 2.4879 13.479 23.439 61.68 35.996 82.812 2.0426 3.4375 5.6556 10.302 8.0291 15.254s5.7004 10.858 7.3931 13.125c1.6927 2.2668 3.9918 6.0961 5.109 8.5096s3.3215 5.7885 4.8984 7.5 4.7118 6.3462 6.9663 10.299c2.2546 3.9531 4.5732 7.1875 5.1524 7.1875 0.57927 0 2.8856-2.3136 5.1252-5.1413 3.2439-4.0958 4.1288-6.4471 4.3514-11.562 0.31051-7.1336 5.671-25.204 9.5489-32.19 2.4607-4.4329 32.231-33.524 32.244-31.509 0.004 0.56495-7.2536 8.0584-16.127 16.652l-16.134 15.625-3.0949 10.625c-3.2776 11.252-5.9368 24.045-5.1688 24.867 0.25285 0.27035 4.3696-3.5126 9.1484-8.4064 9.118-9.3377 23.115-19.102 38.87-27.115 5.1562-2.6226 12.08-6.9841 15.385-9.6923 3.3056-2.7082 6.2776-4.6565 6.6045-4.3296 1.2382 1.2382-8.1714 8.1463-18.933 13.9-24.221 12.949-30.72 17.471-42.691 29.699-14.889 15.21-19.893 22.499-23.328 33.978-6.3966 21.377-7.1364 27.238-7.8571 62.25-0.68551 33.304 0.004 45.67 3.9988 71.725 0.94871 6.1875 2.8792 21.969 4.2899 35.069s3.1196 25.753 3.7975 28.117c0.67791 2.3637 1.2326 6.9173 1.2326 10.119 0 3.2018 1.0889 13.33 2.4198 22.508 1.3309 9.1778 3.0142 24.562 3.7407 34.187 2.1048 27.885 3.7349 47.178 4.3564 51.562 0.31676 2.2344 0.1546 4.0625-0.36034 4.0625-0.51495 0-1.6024-8.5781-2.4165-19.062-3.9527-50.905-5.5836-65.488-12.056-107.81-0.94675-6.1901-2.0834-16.88-2.526-23.755-0.44257-6.875-1.6449-18.688-2.6718-26.25-4.82-35.494-5.4348-43.662-5.4599-72.533-0.0281-32.241 1.1589-46.068 5.1458-59.94 3.427-11.925 6.1774-22.265 6.3243-23.777 0.14229-1.4638-7.0794-13.521-11.276-18.827-1.639-2.04-5.066-7.06-7.657-11.19-5.847-9.31-30.104-55.3-30.104-57.08 0-0.7163-1.3937-3.9165-3.0971-7.1116-4.5688-8.5696-18.078-39.764-19.839-45.809-0.40043-1.375-1.6097-8.5165-2.6873-15.87-1.892-12.911-6.8502-33.477-13.591-56.37-1.7797-6.0447-4.0798-16.17-5.1114-22.5-1.066-6.54-4.5846-18.91-8.1504-28.643-3.451-9.424-6.2746-18.432-6.2746-20.017 0-3.2396 6.5362-13.45 12.186-19.035l3.7289-3.6866-3.0499-5.6884c-2.0674-3.856-2.8542-6.9348-2.4424-9.5573 0.5632-3.5866 0.27348-3.9515-3.97-5-5.2157-1.289-6.4234-4.828-3.8234-11.205 0.8245-2.022 1.3788-4.903 1.2317-6.403-0.1618-1.651 0.7316-3.2614 2.2643-4.0817 1.4229-0.7615 2.2359-2.1258 1.8563-3.115-1.1353-2.9586 3.5215-4.2773 13.946-3.9493 16.22 0.51036 17.394 2.0644 16.123 21.341-0.948 14.377-0.302 16.907 4.32 16.907 2.9222 0 3.8488 0.91138 6.0366 5.9375 8.8804 20.401 14.749 32.709 17.703 37.129 1.8595 2.7821 5.2776 8.7146 7.5957 13.183 2.3181 4.4688 6.0144 10.375 8.214 13.125s4.7203 6.4062 5.6017 8.125c0.88134 1.7188 3.9727 6.7812 6.8696 11.25 8.1925 12.637 11.939 20.876 12.69 27.91 1.3186 12.342 4.3698 19.984 13.561 33.965 4.9719 7.5625 12.627 18.18 17.011 23.594 11.421 14.104 20.745 27.729 24.616 35.974 2.8014 5.9658 3.9946 7.2647 7.2323 7.8727 4.3896 0.8243 8.238-0.84086 13.661-5.9108 2.0414-1.9086 5.8099-4.4398 8.3744-5.625 2.9451-1.3611 4.4326-2.7917 4.0379-3.8837-0.34367-0.95086-1.5109-7.1384-2.5939-13.75-1.5079-9.2054-1.7687-16.229-1.1133-29.984 1.1887-24.95 3.3074-31.166 17.17-50.375 10.974-15.206 24.214-24.601 44.087-31.284 9.2872-3.1233 10.85-3.1277 41.364-0.11613 11.314 1.1166 17.227 4.2562 24.596 13.061 2.2218 2.6545 7.2221 7.9488 11.112 11.765 3.8897 3.8163 9.5986 10.701 12.686 15.3 7.6084 11.331 10.431 14.173 20.474 20.61 10.046 6.4394 23.779 21.052 29.016 30.876 2.016 3.7812 4.5744 10.531 5.6855 15 1.1111 4.4688 3.1615 12.062 4.5564 16.875 6.7067 23.138 8.641 27.028 15.762 31.696 2.3085 1.5133 5.6947 4.8546 7.5248 7.4251 2.0965 2.9447 6.1164 6.0527 10.867 8.4014 10.935 5.4069 16.569 15.134 22.045 38.063 2.1402 8.961 3.1686 11.113 6.7019 14.026 5.5042 4.537 9.8865 13.833 8.8169 18.704-0.4434 2.0187-1.9854 4.769-3.4268 6.1119l-2.6206 2.4415 3.5341 9.6909c5.7487 15.763 7.6728 34.875 4.4366 44.066-2.7496 7.8092-2.6803 10.99 0.3721 17.08 1.6665 3.3249 3.6945 8.099 4.5068 10.609 1.822 5.6308 3.8989 35.3 4.6243 66.061 0.3717 15.76 1.1195 24.717 2.348 28.125 0.9915 2.75 2.734 13.438 3.8723 23.75 3.8771 35.127 4.0221 31.643-2.1755 52.261-2.4024 7.9922-2.4301 8.6532-0.454 10.837 1.7136 1.8935 1.9402 3.6789 1.2202 9.6136-0.8746 7.2088-2.4122 11.611-4.5447 13.01-0.6047 0.3968 0.1969 6.3012 1.7815 13.121l2.881 12.399 8.0932 1.4951c4.4512 0.82229 15.687 1.8608 24.968 2.3079 59.205 2.8518 59.772 2.899 27.5 2.2893-16.844-0.31821-33.719-0.88504-37.5-1.2596-7.88-0.78059-27.431-3.6515-33.426-4.9082l-4.0511-0.8493 1.3254 3.8022c2.3616 6.7744-0.2587 16.302-3.1823 11.572zm13.889-17.878c-0.4052-1.5469-1.6986-6.8906-2.8744-11.875-2.2553-9.5613-4.1805-11.842-4.1805-4.9518 0 2.2609-1.125 6.3173-2.5 9.0143-3.3524 6.5754-3.1855 7.5434 1.5625 9.0666 6.9581 2.2321 8.8286 1.9386 7.9924-1.2541zm-226.65-267.7c0.7814-2.0363-0.26845-3.4792-1.8295-2.5145-1.4199 0.87756-1.3876 4.2672 0.0406 4.2672 0.61395 0 1.4189-0.78876 1.7889-1.7528zm-4.16-14.57c0-0.64693-0.5625-1.1762-1.25-1.1762s-1.25 0.87695-1.25 1.9488 0.5625 1.6011 1.25 1.1762 1.25-1.3018 1.25-1.9488zm206.69-26.215c6.9159-2.5876 8.2519-4.3668 8.2904-11.041 0.026-4.5768-4.9831-12.426-8.7741-13.747-2.2869-0.79721-3.6257-2.3392-4.1153-4.7398-4.0106-19.666-8.0431-30.893-14.268-39.724-2.9882-4.2394-5.4118-6.0807-10.28-7.8096-4.6742-1.6601-7.1941-3.5085-9.4684-6.9451-1.7044-2.5756-5.3869-6.197-8.1833-8.0475-7.8191-5.1744-11.754-14.409-19.879-46.657-3.4228-13.584-5.7304-18.396-13.187-27.5-8.9876-10.973-16.217-17.653-23.703-21.9-3.4375-1.9503-7.8896-5.2739-9.8936-7.3856-3.494-3.682-3.6007-3.7113-2.5991-0.71456 1.8317 5.4805 0.63143 19.639-2.4706 29.141-8.909 27.292-21.716 44.566-45.447 61.299-10.187 7.1826-27.053 16.219-33.112 17.739-5.2459 1.3166-3.9592 2.6903 3.2093 3.4262 9.3868 0.9637 22.513-0.0461 28.725-2.2099 6.2915-2.1916 14.896-2.4626 16.829-0.52995 0.98774 0.98774 2.111 0.967 4.0578-0.0749 1.4806-0.79239 4.4941-1.2664 6.6967-1.0533 4.5771 0.44276 5.821-0.42472 20.057-13.988 11.12-10.595 19.988-22.265 21.845-28.75 0.9394-3.2812 1.2807-3.6563 1.3653-1.5004 0.14605 3.7239-2.7201 9.2065-9.2794 17.75-5.8466 7.6157-23.656 25-25.612 25-0.68544 0-1.2462 0.5625-1.2462 1.25s1.125 1.25 2.5 1.25 2.5 0.5625 2.5 1.25c0 1.5721-0.9179 1.5629-8.609-0.0865-4.631-0.99317-6.941-0.95707-8.9919 0.14053-2.1326 1.1413-3.8146 1.129-7.4001-0.0544-3.8572-1.273-5.8199-1.1884-11.632 0.50108-11.123 3.2334-21.383 3.5885-41.842 1.448-22.88-2.3938-31.476-5.2393-46.224-15.301-5.6778-3.8737-10.633-6.7338-11.011-6.3557-1.2762 1.2762 3.0648 9.7077 4.9982 9.7077 1.0542 0 5.6891 2.309 10.3 5.131 8.9234 5.4617 23.51 11.411 39.68 16.185 5.4419 1.6065 9.3274 3.11 8.6343 3.341-0.69306 0.23103-9.083-2.1927-18.644-5.386-16.733-5.5884-26.688-9.9931-35.089-15.526-2.1752-1.4325-4.2709-2.0932-4.6572-1.4683-1.1742 1.8998 6.8112 12.737 11.835 16.061 4.2246 2.7957 22.502 9.5069 60.82 22.333 11.867 3.972 26.088 10.629 36.581 17.123 5.0583 3.1306 26.272 18.294 28.125 20.103 3.4828 3.401-3.6723-0.92218-12.55-7.5826-16.747-12.565-34.839-22.308-52.544-28.298-8.886-3.006-23.735-8.0696-32.997-11.253-9.2626-3.1829-17.391-5.604-18.062-5.38-1.8584 0.61945 12.819 8.2252 19.903 10.314 3.4375 1.0134 8.3572 3.099 10.933 4.6347 12.592 7.5082 21.098 13.106 29.226 19.231 4.8996 3.6929 11.943 7.7587 15.653 9.035 7.8008 2.6839 15.174 6.5202 29.189 15.188 15.78 9.7593 17.558 10.399 24.259 8.734 18.955-4.7114 22.395-6.3504 37.298-17.768 16.111-12.344 26.568-18.466 26.568-15.555 0 0.9569-1.5697 2.0538-3.4882 2.4374-4.1228 0.82455-13.735 7.2259-25.944 17.278-4.8442 3.9882-11.032 8.2279-13.75 9.4215-4.5058 1.9784-4.6664 2.2029-1.8175 2.5406 1.7188 0.20371 10.156 1.4905 18.75 2.8594 34.815 5.546 57.526 6.3737 67.943 2.4763zm-119.94-47.457c-8.0159-1.1754-13.26-2.8585-27.378-8.787-12.35-5.186-28.187-10.098-40.343-12.513-4.3139-0.85701-7.603-1.7987-7.309-2.0926 0.77501-0.77501 14.994 2.0035 25.109 4.9066 8.6141 2.4722 9.9759 2.4807 25.849 0.16092 2.5056-0.36619 8.6931 0.18569 13.75 1.2264 6.0638 1.2479 11.003 1.5583 14.507 0.91156 2.9219-0.53935 5.3125-0.51915 5.3125 0.0449 0 2.3381-9.4008 2.6017-19.718 0.55277-9.2098-1.829-11.879-1.9167-18.108-0.59496-4.018 0.85267-6.8542 1.9743-6.3026 2.4925 0.55156 0.5182 5.7841 2.897 11.628 5.2863 11.029 4.5095 21.213 7.1521 27.562 7.1521 2.0287 0 3.6885 0.5625 3.6885 1.25s-0.42188 1.1798-0.9375 1.094c-0.51563-0.0858-3.8051-0.5764-7.3099-1.0903zm52.274-11.613 4.6514-4.0156 0.34856-11.774c0.27056-9.1394 0.7681-11.912 2.2236-12.391 1.5696-0.5164 1.6102-0.29597 0.24923 1.3532-1.13 1.3694-1.5112 5.2695-1.25 12.79l0.37577 10.82-4.375 3.6293c-5.9884 4.9678-8.0194 4.5907-2.2236-0.41285zm-139.02-28.21c0-0.59405 2.519-1.4254 5.5978-1.8474 14.2-1.9463 50.92-25.662 60.782-39.256 13.126-18.093 21.57-37.018 23.535-52.75 0.91349-7.3133 0.77926-10.227-0.62615-13.59-0.99-2.36-1.79-5.3-1.79-6.53 0-2.7097-11.425-18.184-16.418-22.237l-3.58-2.9-0.0929 12.283c-0.0511 6.7554-0.3287 13.689-0.61692 15.408-1.0216 6.0918-13.129 41.967-15.256 45.202-13.236 20.138-20.019 28.189-30.909 36.684-3.4375 2.6815-11.06 9.5027-16.938 15.158-10.239 9.8501-15.282 12.8-19.269 11.27-1.0108-0.38786-2.16-0.18377-2.5539 0.45355-0.39388 0.63731 0.57248 1.4346 2.1475 1.7717 1.575 0.33714 3.9886 0.85087 5.3636 1.1416 4.6171 0.97637 10.625 0.82855 10.625-0.26143zm-34.56-13.27c-11.539-10.618-17.179-18.498-22.719-31.743l-3.8545-9.2152 0.73932-23.285c0.69082-21.757 0.96027-23.777 4.1077-30.785 3.5354-7.8719 15.004-19.854 22.924-23.949 6.5872-3.4064 18.85-3.6062 29.615-0.48254 10.876 3.1558 14.437 4.9332 23.49 11.724 8.1117 6.0849 19.01 22.835 19.01 29.218 0 2.2631 0.4298 4.1148 0.95511 4.1148 1.4244 0 7.6771-23.506 8.599-32.326 0.44112-4.2205 1.2844-7.6736 1.874-7.6736 1.4648 0 1.4079 0.59179-1.3387 13.94-3.9872 19.378-14.418 48.962-23.843 67.622-4.7745 9.4531-8.2145 17.188-7.6446 17.188 2.77 0 18.631-16.596 24.97-26.128 8.9793-13.502 10.606-16.978 17.312-36.997 6.2198-18.566 8.0124-33.599 5.4633-45.816-1.2697-6.0853-2.4095-7.9506-8.2111-13.438-3.7052-3.5042-6.911-6.4054-7.1241-6.4471-18.215-3.5611-47.732-5.8691-50.112-3.9184-0.83876 0.68735-3.8475 1.8706-6.6861 2.6294-13.3 3.5553-33.484 19.128-42.772 33-13.578 20.28-14.755 25.09-14.438 58.989 0.17122 18.315 5.8995 45.625 9.57 45.625 0.67866 0 4.927 2.6719 9.4408 5.9375 8.5112 6.1577 17.453 11.408 19.596 11.506 0.67951 0.0311-3.3355-4.1495-8.9222-9.2902zm60.187-135.02c2.0625-1.7891 4.875-3.8375 6.25-4.5521 1.375-0.71457 0.8125 0.16456-1.25 1.9536-2.0625 1.7891-4.875 3.8375-6.25 4.5521-1.375 0.71459-0.8125-0.16455 1.25-1.9536zm-9.5267-4.2475c3.0103-2.8225 6.104-5.0987 6.875-5.0582 0.77095 0.0404 0.33055 0.74355-0.97867 1.5625-1.3092 0.81894-4.403 3.0952-6.875 5.0582-3.2962 2.6176-3.0353 2.201 0.97867-1.5625zm4.1845 2.9012c1.1868-1.2425 2.5006-1.9163 2.9196-1.4973s-0.55199 1.4356-2.1577 2.2591c-2.7911 1.4314-2.8246 1.3979-0.76182-0.76182zm-40.28-0.5c0-0.65659 1.125-1.7959 2.5-2.5318 1.375-0.73588 2.5-1.1619 2.5-0.94678 0 0.21514-1.125 1.3544-2.5 2.5317s-2.5 1.6034-2.5 0.94679zm6.2898-0.77551c-0.0425-1.4618 3.1266-4.5408 6.2102-6.0338 1.0312-0.49932 0.84521-0.0678-0.41341 0.95895-1.2586 1.0267-3.0689 2.8966-4.0227 4.1552-0.95389 1.2586-1.7522 1.6725-1.7741 0.91965zm18.085-1.7562c1.2444-1.375 2.5437-2.5 2.8875-2.5 0.34375 0-0.39311 1.125-1.6375 2.5s-2.5437 2.5-2.8875 2.5c-0.34375 0 0.39312-1.125 1.6375-2.5zm4.375 1.963c0-0.34375 1.125-1.2271 2.5-1.963 1.375-0.73588 2.5-1.0567 2.5-0.71296 0 0.34375-1.125 1.2271-2.5 1.963-1.375 0.73587-2.5 1.0567-2.5 0.71296zm-16.26-1.52c0-1.4067 3.2536-4.5094 6.25-5.9602 1.0312-0.49932 0.75-0.01-0.625 1.0869-1.375 1.0971-3.2031 2.9338-4.0625 4.0816-0.85938 1.1478-1.5625 1.504-1.5625 0.79166zm9.0208-3.5738c2.5552-2.6724 4.8484-4.6057 5.0961-4.2963 0.24763 0.30937-1.843 2.4958-4.6458 4.8588l-5.0961 4.2964 4.6458-4.8588zm1.5753 139.08c10.478-10.741 11.965-12.939 20.933-30.938 12.615-25.316 14.786-32.169 13.265-41.871-3.0343-19.349-18.762-35.32-40.958-41.589-12.135-3.4277-22.097-3.1219-29.994 0.92073-7.262 3.7175-19.523 16.54-21.707 22.702-1.1865 3.3473-2.4961 14.463-3.382 28.709l-1.4457 23.246 3.3151 7.8764c5.6079 13.324 10.623 21.085 18.619 28.817 12.029 11.63 15.314 13.558 23.229 13.628l6.8461 0.0613 11.279-11.562zm-28.72-8.31c-9.8912-4.3015-11.049-19.247-1.7425-22.491 5.2606-1.8338 13.593-1.7399 16.844 0.18982 4.4876 2.6631 14.273 10.117 14.273 10.872 0 0.39699-3.9442 3.1556-8.7648 6.1303-8.888 5.4845-15.987 7.3096-20.61 5.2989zm17.812-5.801c3.6094-2.3962 6.5625-4.8032 6.5625-5.3488 0-1.3746-7.5393-8.3822-10.837-10.072-4.0779-2.0904-14.13-0.3068-17.551 3.114-4.844 4.844-3.6873 10.202 3.2328 14.974 5.6498 3.8964 9.5492 3.3371 18.592-2.6668zm-222.45-199.3c7.947-4.235 10.577-7.087 9.506-10.306-0.521-1.566-0.8-8.923-0.62-16.348 0.371-15.235-0.12-16.421-7.625-18.442-6.325-1.7036-18.498-0.3304-18.498 2.0866 0 0.95203 1.0465 1.731 2.3256 1.731s4.5134 1.4892 7.1875 3.3094 6.2682 3.7406 7.9869 4.2676c3.1146 0.95502 3.1131 0.95855-0.45626 1.0656-3.5609 0.10684-3.5692 0.12582-1.4626 3.3409 1.1652 1.7784 1.8212 3.5308 1.4578 3.8943-0.364 0.363-2.396-2.076-4.517-5.42-4.159-6.5574-5.974-7.7349-12.136-7.8706-5.8368-0.1286-6.235 2.0476-1.3198 7.2126 2.3943 2.5161 4.6633 5.6997 5.0423 7.0747s1.279 4.4688 2 6.875c1.1108 3.707 1.0596 4.044-0.3349 2.2069-4.1048-5.4073-4.4897 4.8852-0.46673 12.481 3.1895 6.0219 5.1056 6.4781 11.93 2.8409zm-13.487-20.091c0-2.0938-3.3978-8.0895-5.6378-9.9486-1.7385-1.442-2.2266-1.428-3.1883 0.092-1.7603 2.782-1.4209 3.637 1.9511 4.92 1.7188 0.653 3.125 1.494 3.125 1.867 0 0.374-1.4062 0.327-3.125-0.104-2.3168-0.582-3.125-0.288-3.125 1.134 0 1.0554 0.98438 2.1761 2.1875 2.4905 4.1155 1.0755 7.8125 0.86234 7.8125-0.45042zm135.72 659.23c-1.05-2.7362 0.32225-3.9052 4.9072-4.1803 5.601-0.3361 9.375 1.238 9.375 3.9102 0 2.0146-0.97249 2.3542-6.7413 2.3542-5.1396 0-6.9313-0.49514-7.541-2.084zm13.032-0.72847c0.00002-0.51563-0.98435-0.98438-2.1875-1.0417-1.2031-0.0573-3.5938-0.26752-5.3125-0.46714-3.6168-0.42009-5.324 0.28586-4.381 1.8117 0.80293 1.2992 11.881 1.0168 11.881-0.30286zm287.14 2.0313c-0.39228-0.39227-0.42537-1.4634-0.0735-2.3803 0.35183-0.91686-0.63134-3.3862-2.1848-5.4874s-2.4926-4.1523-2.087-4.558c0.88616-0.88617 7.2098 8.1463 7.2098 10.298 0 1.7811-1.8425 3.1495-2.8645 2.1274zm-279.4-26.85c-0.12999-3.8572-0.50217-9.7634-0.82709-13.125l-0.59072-6.112 1.2731 6.1067c0.70019 3.3587 1.0724 9.2649 0.82709 13.125l-0.44598 7.0183-0.23636-7.013zm196.4-10.814c-1.7804-1.1699-2.9852-6.8851-1.8331-8.6962 1.2212-1.9198 8.4148-3.1671 12.761-2.2126 3.5936 0.78929 3.7942 1.1416 3.4375 6.0368l-0.37881 5.1986-6.25 0.32494c-3.4375 0.17872-6.9188-0.1145-7.7362-0.65163zm12.602-2.2756c2.1414-5.5803 1.0645-6.7728-6.1163-6.7728-6.7157 0-6.875 0.0821-6.875 3.5417 0 4.6776 0.70819 5.2083 6.9496 5.2083 3.6642 0 5.5154-0.60582 6.0417-1.9772zm96.638-3.81c-1.0192-1.0192 0.3938-11.925 1.774-13.693 0.582-0.74525 2.3324-1.2637 3.8898-1.1521 3.4786 0.24932 4.2952 4.1542 2.2772 10.89-1.108 3.6982-2.0521 4.7424-4.2874 4.7424-1.5765 0-3.2207-0.35424-3.6536-0.78719zm6.4982-4.3993c2.0418-5.8572 1.7315-8.5635-0.9819-8.5635-2.4912 0-3.8495 3.1736-3.8788 9.0625-0.024 4.7497 3.1444 4.4245 4.8607-0.49903zm-314.25-2.3023c-0.43445-1.3688-0.46867-3.0086-0.076-3.6439 0.39264-0.63529 0.17071-5.281-0.49315-10.324-3.2967-25.042-4.0346-33.626-4.9251-57.294-0.53025-14.094-0.62544-31.25-0.21151-38.125 0.51127-8.492 0.83351-1.5581 1.005 21.625 0.1388 18.769 0.50005 34.526 0.80277 35.016 0.30273 0.48982 0.91177 4.5397 1.3534 8.9997 0.44165 4.46 1.3737 13.453 2.0713 19.984 2.5416 23.797 2.6794 30.712 0.47334 23.761zm-25.63-11.61c0-2.3708 0.83189-3.3402 3.425-3.991 1.8837-0.47279 3.8439-1.5181 4.3559-2.323 0.69221-1.0882 0.93579-1.0628 0.95002 0.0991 0.01 0.85937 1.4254 1.5625 3.1441 1.5625 3.3502 0 4.1966 2.5619 1.5625 4.73-0.85938 0.70734-4.2344 1.6838-7.5 2.17-5.7385 0.85427-5.9375 0.77893-5.9375-2.2475zm11.875-1.3541c2.3831-1.3401 2.3505-1.4237-0.69842-1.7871-3.928-0.46817-9.9266 1.6814-9.9266 3.5571 0 1.5826 6.6259 0.47885 10.625-1.77zm279.57-17.048c0-1.7188 0.28373-2.4219 0.63049-1.5625 0.34676 0.85937 0.34676 2.2656 0 3.125-0.34676 0.85937-0.63049 0.15625-0.63049-1.5625zm-1.25-6.25c0-1.7188 0.28373-2.4219 0.63049-1.5625 0.34676 0.85937 0.34676 2.2656 0 3.125-0.34676 0.85937-0.63049 0.15625-0.63049-1.5625zm-67.7-8.3751-0.002-5.9999 7.4387 0.42032c8.9377 0.50502 11.007 2.2699 8.5917 7.3274-1.5064 3.1542-2.3861 3.5396-8.8493 3.8772l-7.1763 0.37489-0.002-5.9999zm13.702 2.8102c3.8559-4.6461-1.6422-8.35-9.4762-6.3838-3.6271 0.91035-4.2198 6.4399-0.78646 7.3371 4.5596 1.1916 8.8103 0.7967 10.263-0.95329zm52.72 0.19941c-0.0936-1.2323-2.9455-10.514-6.3376-20.625-3.392-10.111-7.6514-24.009-9.4653-30.884-3.6533-13.847-8.2556-27.349-11.384-33.399-1.4415-2.7876-2.3528-9.4635-3.0837-22.592-1.0001-17.963-0.61787-23.211 2.6304-36.111 1.4185-5.6333 1.3766-5.7702-4.2988-14.06-3.1522-4.6042-5.7312-9.5931-5.7312-11.086 0-2.0664 0.62646-1.5249 2.6224 2.2665 1.4423 2.7398 4.3523 7.714 6.4668 11.054l3.8444 6.0722-2.2149 8.9278c-1.7771 7.1628-2.1288 12.882-1.7793 28.928 0.40218 18.463 0.68676 20.535 3.7028 26.966 1.7969 3.8315 5.5528 14.8 8.3464 24.375 8.5625 29.347 11.283 38.288 14.617 48.034 1.7636 5.1562 2.988 10.5 2.7209 11.875-0.40278 2.0735-0.51467 2.1178-0.65585 0.25946zm-291-19.09c-1.0977-2.8605 0.81688-4.1656 7.4432-5.0739 5.4486-0.7468 5.887-0.60575 5.887 1.894 0 4.5281-11.738 7.3283-13.33 3.1799zm8.8738-0.51003c4.6046-1.7507 4.0068-3.8568-0.85613-3.0165-6.235 1.0773-7.4122 1.6108-6.568 2.9768 0.98006 1.5858 3.3248 1.5983 7.4241 0.0398zm212.51-33.094c-1.104-1.685-1.8192-4.04-1.5894-5.2335 0.48397-2.513 6.9437-4.5222 12.732-3.9599 3.5905 0.34879 3.967 0.8055 4.3313 5.2548 0.47445 5.7942-0.8877 6.9567-8.1827 6.9831-4.2402 0.0154-5.6801-0.5859-7.291-3.0444zm12.472 1.0548c2.1979-0.8434 2.7457-7.3688 0.72356-8.6185-0.68951-0.42613-3.7833-0.39547-6.875 0.0681-4.8175 0.72244-5.6213 1.2606-5.6213 3.7639 0 4.4516 6.14 6.9479 11.773 4.7864zm-144.14-12.21c-0.78354-0.94411-1.1138-2.5265-0.73398-3.5164 0.37986-0.98988-0.45419-2.8359-1.8534-4.1022-1.4184-1.2836-2.5441-3.8694-2.5441-5.8439 0-2.9276-0.48756-3.4899-2.8125-3.2438-2.0784 0.22005-2.8125-0.35475-2.8125-2.2022 0-1.7844 0.74621-2.4252 2.607-2.2386 2.5416 0.25479 2.5686 0.0571 1.0768-7.8816-1.7075-9.0864-2.4293-10.384-4.5796-8.2339-0.81354 0.81353-1.9292 1.4792-2.4792 1.4792-1.6998 0-1.1006-5.0399 0.68046-5.7233 1.2787-0.49069 0.66135-2.7195-2.5822-9.3227-3.6072-7.3434-4.532-11.108-6.0142-24.483-0.96333-8.6928-2.0513-16.105-2.4178-16.471-0.36643-0.36643-0.66624 0.0291-0.66624 0.87903 0 0.88752-1.1972 1.3752-2.8125 1.1458-3.4838-0.49479-3.7204-3.9514-0.3125-4.5662 3.8164-0.6884 4.5833-1.9976 3.2401-5.5306-0.92125-2.4231-1.8654-3.0627-3.7813-2.5617-3.0763 0.80446-4.8141-2.5535-2.663-5.1455 0.99319-1.1967 1.0373-2.0032 0.13985-2.5578-0.72089-0.44552-1.3107-1.3356-1.3107-1.978 0-3.077 6.394 4.8913 7.9818 9.9471 1.8387 5.8548 2.2847 8.8762 4.5138 30.582 1.1391 11.092 1.8725 13.491 7.2616 23.75 5.9082 11.247 8.9929 22.377 8.9929 32.445 0 8.4717 10.055 13.358 27.414 13.323 17.638-0.0364 33.548-6.2558 40.971-16.015 4.9442-6.5006 5.4975-5.4704 0.74507 1.3874-4.1192 5.944-16.446 12.497-27.655 14.703-4.5642 0.89796-12.662 1.277-19.566 0.91593-9.2019-0.48133-11.921-0.24479-12.43 1.0813-0.83987 2.1887-3.7743 2.1786-5.5983-0.0191zm2.5977-2.3043c-0.89695-0.89695-1.4792-0.97075-1.4792-0.1875 0 0.71043 0.375 1.6667 0.83334 2.125 0.45832 0.45834 1.124 0.54272 1.4792 0.1875 0.35521-0.3552-0.0197-1.3114-0.83334-2.125zm-10.23-15.98c0-0.6875-0.5625-1.25-1.25-1.25s-1.25 0.5625-1.25 1.25 0.5625 1.25 1.25 1.25 1.25-0.5625 1.25-1.25zm-18.75-73.75c0-0.6875-0.5625-1.25-1.25-1.25s-1.25 0.5625-1.25 1.25 0.5625 1.25 1.25 1.25 1.25-0.5625 1.25-1.25zm-67.5 85.727c0-0.97503-0.32569-2.6215-0.72374-3.6588-0.55417-1.4442-0.0711-1.7154 2.0619-1.1576 1.8797 0.49156 3.3346-0.0224 4.4737-1.5801 0.92844-1.2697 1.6881-1.7042 1.6881-0.96546 0 0.73871 1.0603 1.6204 2.3562 1.9593 1.7804 0.46557 2.203 1.4177 1.7293 3.8958-0.56304 2.9454-1.1854 3.2796-6.1062 3.2796-3.8967 0-5.4793-0.51203-5.4793-1.7728zm10-1.3522c0-1.3095-1.3194-1.875-4.375-1.875-4.1365 0-5.4098 1.0486-3.5417 2.9167 1.6894 1.6894 7.9167 0.87 7.9167-1.0417zm294.04-5.9331c1.4157-4.0612 27.205-30.624 27.205-28.021 0 0.73311-5.2733 6.4226-11.718 12.643-6.4451 6.2207-12.647 13.139-13.782 15.373-2.6491 5.2149-3.522 5.2171-1.7048 0.005zm-181.16-6.76c-0.82077-0.33087-1.2119-1.3322-0.86927-2.2252 0.42098-1.097-0.99966-1.883-4.3807-2.4237-2.765-0.44215-6.5706-2.2476-8.5058-4.0353l-3.502-3.2352 3.9109 2.5918c2.6755 1.773 6.8216 2.8173 13.125 3.3055 14.002 1.0846 17.339 1.7832 17.339 3.6298 0 1.9086-3.3909 3.5716-5.1128 2.5074-0.62546-0.38657-1.1372-1.5134-1.1372-2.5041 0-1.1738-1.3254-1.8012-3.8048-1.8012-2.8477 0-3.7124 0.51765-3.4375 2.0578 0.39165 2.1942-1.1792 3.1182-3.625 2.1322zm15.529-2.4453c-0.41536-0.41536-1.4935-0.45977-2.3958-0.0986-0.99717 0.39903-0.70098 0.69523 0.75521 0.7552 1.3177 0.0543 2.056-0.24116 1.6406-0.65652zm-149.03-2.189c-1.0695-1.6323-2.0531-6.2274-2.2074-10.312-0.23081-6.1097 0.45704-8.9698 4.0268-16.743 4.7864-10.423 11.426-21.585 15.502-26.063 1.471-1.6158 6.3309-5.3812 10.8-8.3677 4.4688-2.9865 9.8125-6.6922 11.875-8.235l3.75-2.8051-3.125 3.4969c-1.7188 1.9233-6.8604 5.9461-11.426 8.9396-11.124 7.2937-16.295 13.655-23.807 29.284-6.0632 12.615-6.2848 13.452-5.7057 21.544 0.33132 4.6307 1.3095 9.2714 2.1737 10.313 0.8642 1.0413 1.2341 1.8932 0.82203 1.8932-0.41209 0-1.6173-1.3249-2.6783-2.9442zm174.42 1.1292c-2.2137-2.6674-0.52719-6.8258 2.4523-6.0466 2.5865 0.67639 4.4119 4.526 3.1298 6.6004-1.1244 1.8192-3.8359 1.5502-5.5821-0.55382zm4.3252-1.7266c0-2.2608-2.4466-1.8481-2.9319 0.4946-0.26998 1.3034 0.1986 1.8748 1.25 1.5244 0.92503-0.30834 1.6819-1.2169 1.6819-2.019zm-3.018-8.9583c-0.0378-1.0312 0.47655-2.7188 1.143-3.75 1.4766-2.285 1.4766-0.31136 0 3.125-0.70835 1.6484-1.0977 1.8613-1.143 0.625zm3.8629-6.0876c-2.6319-1.6687 0.71438-7.881 11.963-22.209 5.4715-6.9694 10.272-14.282 10.667-16.25 0.95401-4.7487 5.9339-12.038 9.2217-13.499 2.6719-1.1871 4.1406-7.5658 4.1674-18.1 0.006-2.349 0.34041-3.9413 0.7432-3.5385 0.40279 0.40279 0.29551 6.5434-0.2384 13.646-0.5339 7.1024-1.186 11.929-1.449 10.726-0.53696-2.456-0.58553-2.4772-3.2924-1.4385-4.1832 1.6052-11.846 18.657-9.4578 21.046 2.9982 2.9982-1.1444 7.1736-4.42 4.455-1.1388-0.94513-2.1112-0.44987-3.611 1.8392-1.6856 2.5725-1.7753 3.5766-0.50189 5.6157 1.9939 3.1927-0.5062 6.551-3.0117 4.0454-2.2709-2.2709-3.0561-1.8883-6.0426 2.944-2.6098 4.2228-2.6359 4.5249-0.52385 6.0692 4.1305 3.0203 0.148 7.4145-4.2136 4.6491zm4.78-2.69c0-0.62535-0.84052-0.81446-1.8678-0.42025s-1.5509 1.2295-1.1636 1.8562c0.81007 1.3107 3.0314 0.25852 3.0314-1.4359zm8.75-13.09c0-1.0312-0.5293-1.875-1.1762-1.875-1.5762 0-2.7051 1.952-1.7065 2.9506 1.4077 1.4077 2.8827 0.85736 2.8827-1.0756zm8.059-11.982c-0.40246-0.65122-1.2646-0.85473-1.9158-0.45225-0.65122 0.40246-0.85473 1.2646-0.45225 1.9158 0.40246 0.65121 1.2646 0.85473 1.9158 0.45225 0.65121-0.40246 0.85473-1.2646 0.45225-1.9158zm-41.19 22.09c-2.75-1.5147-5.7316-4.2629-6.6259-6.107-0.89424-1.8441-2.863-4.0035-4.375-4.7987-2.3915-1.2577-6.1906-4.0372-11.808-8.6391-1.0683-0.87519-2.3903-0.8321-4.201 0.13693-1.4532 0.7777-4.8298 1.2054-7.5036 0.95038-3.9415-0.37588-4.8615-0.0574-4.8615 1.6831 0 2.9292-2.2266 4.0773-4.4035 2.2706-1.2922-1.0724-1.453-2.126-0.57485-3.7668 1.9579-3.6584-2.3019-3.7432-9.0842-0.18083-6.063 3.1846-7.0053 4.4138-4.5478 5.9327 1.6253 1.0045 3.7873-1.9136 2.7096-3.6573-0.40461-0.65467-0.0848-0.78802 0.71086-0.29632 1.033 0.63843 1.0756 1.587 0.14915 3.3181-1.4464 2.7026-2.2575 2.909-4.8883 1.2445-3.1448-1.9897 0.21007-6.714 6.329-8.9125 4.0023-1.438 6.6516-1.6635 9.8499-0.83813 12.528 3.233 15.884 2.3159 26.569-7.2611 3.2693-2.9301 9.0496-7.0801 12.845-9.2221 3.8596-2.1782 8.4015-6.0549 10.306-8.7964 3.8152-5.4923 6.9595-7.0913 15.558-7.9119 5.0652-0.48341 6.015-0.21106 6.691 1.9186 1.1151 3.5134-2.4056 6.9345-4.9572 4.8169-1.0249-0.85058-1.5554-2.3491-1.179-3.3301 1.2662-3.2997-3.1547-1.8696-4.8273 1.5616-2.1332 4.376-4.5077 5.043-5.7733 1.6218l-1.0145-2.7424-2.0274 3.0942c-1.4659 2.2373-1.6492 3.4724-0.66195 4.4597 0.9873 0.9873 0.92231 1.8994-0.23462 3.2934-1.7527 2.1119-5.044 2.6138-5.044 0.76917 0-1.5226-12.302 5.9213-19.406 11.742-3.0768 2.5212-5.5807 5.2495-5.5641 6.0629 0.0166 0.81335 3.4021 3.7288 7.5233 6.4788s8.1857 6.4062 9.0323 8.125c0.84657 1.7188 3.6486 4.1557 6.2267 5.4154s4.6875 2.8066 4.6875 3.4375c0 0.63088-0.14062 1.0872-0.3125 1.0141-0.17187-0.0731-2.5625-1.3723-5.3125-2.887zm-40.62-17.06c0-0.64693-0.5625-1.1762-1.25-1.1762s-1.25 0.87695-1.25 1.9488 0.5625 1.6011 1.25 1.1762 1.25-1.3018 1.25-1.9488zm48.125-23.676c0.4249-0.6875 0.21004-1.25-0.47746-1.25s-1.5976 0.5625-2.0225 1.25-0.21004 1.25 0.47746 1.25 1.5976-0.5625 2.0225-1.25zm9.0885-8.5156c0.27214-0.81641-0.39583-1.4844-1.4844-1.4844-1.0885 0-1.9792 0.89062-1.9792 1.9792 0 2.2074 2.691 1.823 3.4635-0.49479zm11.105-0.91328c0.40711-1.0609 0.40305-2.266-0.009-2.6781-1.0808-1.0808-4.6636 2.1775-3.8471 3.4987 1.0669 1.7262 3.0399 1.3064 3.8561-0.82055zm34.727 50.181c-0.41382-1.6488-0.56516-4.3207-0.33631-5.9375 0.34365-2.4278 1.266-3.0092 5.297-3.3391 8.3138-0.68046 10.744 0.48975 10.744 5.1733 0 5.5698-1.9358 7.1012-8.9762 7.1012-5.2645 0-6.0658-0.357-6.7286-2.9979zm14.221-2.9396c0.30909-3.2057-0.0864-4.0842-1.875-4.1653-1.2467-0.0565-3.7372-0.3468-5.5345-0.64503-4.1782-0.69333-6.6526 2.1545-5.5812 6.4234 0.7409 2.952 1.276 3.1778 6.7021 2.8287 5.6477-0.3633 5.9135-0.55103 6.2886-4.4418zm-213.25-10.11c-2.2318-1.4161-0.51267-5.1934 2.3636-5.1934 1.3014 0 2.3834-0.70313 2.4043-1.5625 0.0211-0.86715 0.60502-0.58901 1.3121 0.625 0.70075 1.2031 2.0899 2.1875 3.087 2.1875 0.99709 0 1.8129 1.125 1.8129 2.5 0 2.059-0.82695 2.4966-4.6875 2.4809-2.5781-0.01-5.4097-0.47737-6.2923-1.0374zm9.73-1.3c0-1.2113-7.5367-2.6897-9.0829-1.7817-0.52684 0.30939-0.63427 1.0862-0.23872 1.7262 0.91707 1.4839 9.3216 1.5339 9.3216 0.0555zm81.547-32.634c-2.7816-2.5915-5.2653-9.6156-5.3068-15.008-0.0497-6.4709-1.2132-8.4084-4.6538-7.7507-3.0834 0.58942-3.1906 0.41967-2.4844-3.9324 0.51617-3.1807 0.17153-5.115-1.1461-6.4327-2.1915-2.1915-4.2056-2.4599-4.2056-0.56043 0 0.72808 0.5625 0.97613 1.25 0.55123s1.25-0.17685 1.25 0.55123c0 0.72807-0.88288 1.3238-1.9619 1.3238-1.3196 0-1.8312-0.92078-1.5625-2.8125 0.2593-1.8258 1.1366-2.6906 2.5005-2.465 1.4551 0.24064 2.2622-0.72015 2.6252-3.125 0.46004-3.0479 0.54766-2.9376 0.71675 0.90255 0.1105 2.509 1.788 6.7742 3.933 10 2.0572 3.0938 4.0574 7.5938 4.445 10 1.9739 12.255 3.4039 16.298 6.6122 18.694 1.8242 1.3622 2.7197 2.4945 1.9899 2.5163-0.72974 0.0217-2.5304-1.0817-4.0015-2.4523zm-9.05-24.31c0-0.30317-0.5625-0.89887-1.25-1.3238-0.6875-0.4249-1.25-0.17685-1.25 0.55123 0 0.72807 0.5625 1.3238 1.25 1.3238s1.25-0.24805 1.25-0.55123zm-112.85 9.7797c-1.3124-1.3124 4.8281-11.115 10.355-16.53 3.0938-3.0313 8.8548-7.8871 12.802-10.791 8.396-6.1757 12.204-11.349 18.428-25.033 5.7987-12.75 9.6887-19.11 12.663-20.701 3.2193-1.7229 2.9587-0.70129-0.8765 3.437-1.7787 1.9192-5.7656 8.8388-8.8599 15.377-6.8769 14.531-12.275 22.634-17.257 25.907-9.37 6.1556-20.289 16.781-23.35 22.722-1.7798 3.4541-3.5366 5.9797-3.9039 5.6123zm59.297-3.4052c-3.525-3.6369-3.767-4.3351-2.2308-6.436 1.6551-2.2635 1.8528-2.2167 5.0059 1.1856 6.2042 6.6944 3.5295 11.755-2.7751 5.2504zm4.7662 0.7392c-0.0751-1.692-5.0028-6.9347-5.784-6.1536-0.97907 0.97905 2.9896 7.0911 4.6044 7.0911 0.67165 0 1.2025-0.42188 1.1796-0.9375zm170.98 2.0874c-1.4991-0.87317-2.1875-2.8279-2.1875-6.212v-4.9379h6.6393c4.9538 0 7.3338 0.64704 9.375 2.5487 3.034 2.8266 3.5221 6.1649 1.2357 8.4513-1.818 1.818-12.024 1.9195-15.062 0.14987zm13.827-3.2584c0.52145-3.6634-4.5718-6.9345-9.9881-6.4148-3.687 0.35379-4.151 0.81606-4.151 4.136 0 3.1357 0.60399 3.8711 3.75 4.5656 6.5854 1.4539 9.9624 0.7105 10.389-2.2868zm-26.796-5.9753c-0.38702-1.0086-0.46246-2.5554-0.16762-3.4375 0.29483-0.88205 0.8324-0.0569 1.1946 1.8338 0.70718 3.6915 0.12375 4.6026-1.027 1.6037zm-49.166-14.416c-0.19148-2.4062-0.23277-5.2188-0.0917-6.25 0.42852-3.1335 5.1494-7.3463 9.9111-8.8444 2.477-0.77933 6.6131-2.7724 9.1912-4.429s4.6875-2.5769 4.6875-2.045c0 0.53188-1.1183 1.6654-2.485 2.519-1.4906 0.93093-2.366 2.6753-2.1875 4.3592 0.2196 2.0719-0.43919 2.9129-2.515 3.2107-1.8793 0.2696-2.8125-0.23864-2.8125-1.5317 0-1.6335-0.53583-1.7064-3.4375-0.46761-6.1528 2.6267-6.8639 3.574-4.5787 6.0991 1.919 2.1204 1.8473 2.3118-1.148 3.0636-2.4196 0.60727-3.3151 1.7592-3.6903 4.7465l-0.49533 3.9447-0.34815-4.375zm4.6095-5.7552c-0.41536-0.41536-1.4935-0.45977-2.3958-0.0986-0.99716 0.39903-0.70097 0.69523 0.75522 0.7552 1.3177 0.0542 2.056-0.24116 1.6406-0.65652zm-87.029-16.99c-4.1787-4.4586-4.8202-6.6274-2.2518-7.613 2.9621-1.1367 10.245 4.4328 10.245 7.8348 0 4.6212-3.5462 4.5228-7.9929-0.22187zm4.0832-1.884c-2.62-3.5-5.47-5.14-5.47-3.15 0 1.7946 6.2824 8.171 7.173 7.2804 0.43149-0.43151-0.33701-2.2868-1.7078-4.1228zm47.788-44.04c0.34409-0.34409 3.831-1.0046 7.7488-1.4678 3.9178-0.46318 8.5295-1.2166 10.248-1.6742 2.8853-0.76828 2.8491-0.67328-0.47241 1.2385-3.1612 1.8195-19.181 3.5596-17.525 1.9035zm-133.37-95.6c-6.1788-4.7938-20.755-10.719-26.369-10.719-2.0232 0-6.7375-1.4471-10.476-3.2158-5.3034-2.5089-6.7657-3.814-6.6526-5.9375 0.1065-1.9988 0.29306-2.1603 0.7024-0.60826 0.7302 2.7687 10.29 7.3409 16.986 8.1237 8.3689 0.97842 21.447 6.5224 27.831 11.797 7.2359 5.9794 5.561 6.4428-2.0221 0.55949zm-77.243-88.38c-0.0809-2.4942 0.69673-6.5542 1.728-9.0224 2.0558-4.9202 2.4946-18.049 0.80079-23.955-0.59083-2.0601-1.3983-8.2438-1.7944-13.742-0.63479-8.8113-0.58377-9.1813 0.43038-3.1212 0.63278 3.7813 1.7215 10.003 2.4194 13.825 1.6739 9.1689 1.6173 23.188-0.1065 26.409-0.75646 1.4134-1.8153 5.1734-2.353 8.3553-0.93726 5.5467-0.98367 5.5983-1.1246 1.2506z"/>
</svg>
