<?xml version="1.0" encoding="UTF-8" standalone="no"?>
<!-- Created with Inkscape (http://www.inkscape.org/) -->
<svg id="svg3842" xmlns:rdf="http://www.w3.org/1999/02/22-rdf-syntax-ns#" xmlns="http://www.w3.org/2000/svg" height="634.19" viewBox="0 0 434.69318 634.1911" width="434.69" version="1.1" xmlns:cc="http://creativecommons.org/ns#" xmlns:dc="http://purl.org/dc/elements/1.1/">
 <metadata id="metadata3848">
  <rdf:RDF>
   <cc:Work rdf:about="">
    <dc:format>image/svg+xml</dc:format>
    <dc:type rdf:resource="http://purl.org/dc/dcmitype/StillImage"/>
    <dc:title/>
   </cc:Work>
  </rdf:RDF>
 </metadata>
 <path id="path3852" d="m426.88 634c-7.75-1.4988-35.894-11.483-49.375-17.515-17.074-7.6405-26.677-13.327-34.375-20.355-17.029-15.548-23.918-21.613-26.386-23.23-3.962-2.596-19.284-2.5399-29.864 0.10938-13.901 3.4806-15.582 3.634-20.833 1.901-4.4353-1.4638-6.1191-1.323-15.815 1.3224-5.9684 1.6283-13.102 3.0859-15.852 3.2392-5.0062 0.27891-20.883-4.1129-21.667-5.9936-0.70063-1.6803-5.6648-1.1243-13.797 1.5455-8.3959 2.7562-21.874 3.4013-31.411 1.5035-8.4152-1.6746-13.749-1.1644-20.082 1.9213-3.1389 1.5292-6.3071 2.7804-7.0404 2.7804s-3.5833 2.25-6.3333 5-5.3712 5-5.8248 5c-0.91971 0-3.2063 1.7469-7.7645 5.9319-1.6815 1.5438-4.8623 3.7403-7.0685 4.8812s-5.4176 3.0318-7.1363 4.2022c-10.624 7.2344-26.592 14.935-35 16.879-5.1562 1.1923-11.625 2.6946-14.375 3.3385-11.433 2.6768-30.024 4.2214-39.102 3.2487-9.9747-1.07-17.8-3.99-17.8-6.64 0-0.89437 2.6719-3.5897 5.9375-5.9896 7.8641-5.7794 21.539-20.077 25.919-27.099 1.9296-3.0938 5.6013-8.1562 8.1593-11.25s6.7924-9 9.4097-13.125 6.2922-9.4688 8.1664-11.875c11.674-14.987 26.598-54.226 32.33-85 1.4726-7.9062 3.764-19.438 5.092-25.625 1.328-6.1875 3.0113-15.469 3.7406-20.625 1.9065-13.479 3.4984-22.339 4.2246-23.514 1.5024-2.4309 7.0236-32.403 13.101-71.118l1.0214-6.5072-5.4692-3.457c-10.589-6.6934-13.801-20.637-10.415-45.216 1.6989-12.332 4.0625-47.467 3.8177-56.75l-0.18948-7.1875h7.0982c6.7805 0 7.06-0.12586 6.245-2.8125-4.7737-15.736-2.886-47.954 3.8572-65.83 1.708-4.5279 3.6925-10.201 4.4099-12.608 0.71744-2.4062 1.7262-4.9375 2.2418-5.625 0.51555-0.6875 2.955-7.4375 5.421-15 5.6691-17.386 13-33.142 19.322-41.528 7.6399-10.134 21.43-21.819 29.81-25.259 9.2943-3.8153 28.308-15.462 34.875-21.363 10.96-9.8504 28.52-18.752 36.9-18.71 7.18 0.035957 21.12 3.455 25.75 6.3174 2.3867 1.4751 8.2522 5.8789 13.034 9.7863 10.077 8.2333 25.345 16.588 34.322 18.781 8.84 2.1594 24.17 10.902 29.62 16.891 7.3991 8.1321 8.383 17.699 5.3545 52.065-0.52099 5.9122-2.8968 14.614-4.2118 15.427-0.57451 0.35507-1.7382 3.1232-2.5861 6.1514-1.2339 4.4072-1.2194 6.9702 0.0728 12.845 3.3094 15.046 3.6372 25.45 1.1761 37.341-3.7931 18.327-7.9452 28.144-10.727 25.362-0.31296-0.31295 0.83302-4.0194 2.5466-8.2366 4.3043-10.593 7.2506-28.592 6.2501-38.181-1.6811-16.112-8.3358-32.422-15.855-38.858-5.2618-4.504-28.162-16.326-46.64-24.079-9.8597-4.1365-12.742-4.7749-23.322-5.166-8.9079-0.32925-13.167 0.0512-16.25 1.4516-7.0042 3.1815-23.227 5.0063-42.618 4.7938-16.841-0.18459-19.604 0.11463-31.875 3.4516-17.161 4.6667-23.916 7.5964-29.484 12.787-2.461 2.2943-6.4852 5.7904-8.9428 7.7689-3.1045 2.4994-6.1818 7.2685-10.082 15.625-3.0876 6.6152-6.1973 13.06-6.9106 14.323-0.71331 1.2623-1.6428 5.1998-2.0655 8.75-1.0136 8.5134-1.1478 41.351-0.19489 47.705l0.74987 5 6.4346 0.37782c5.825 0.34204 6.4345 0.12895 6.4345-2.2496 0-3.6934 2.8885-8.8558 8.7341-15.61 4.4526-5.1446 4.8493-6.1091 3.5095-8.5342-1.895-3.4303-2.221-43.867-0.36865-45.728 0.83358-0.8373 1.25 5.1151 1.25 17.868 0 18.107 0.28061 20.051 3.8596 26.735 0.10575 0.19761 1.6792-0.31814 3.4964-1.1461 2.8905-1.317 3.2068-2.024 2.5268-5.6484-0.73907-3.9395-1.0301-18.874-0.67233-34.502 0.12644-5.5234 0.60416-7.1875 2.0634-7.1875 1.4712 0 1.6823 0.77422 0.9375 3.4375-0.52872 1.8906-0.94321 10.889-0.9211 19.996 0.0519 21.337 0.39181 21.772 12.345 15.81 7.8251-3.9029 10.946-4.9258 22.439-7.3546l3.5749-0.75546-0.31039-17.129c-0.36024-19.877-0.33798-20.254 1.1969-20.254 0.66363 0 1.0042 5.4919 0.79452 12.812-0.20183 7.0469-0.0836 15.484 0.26263 18.75l0.62961 5.9375h4.9425 4.9425l-0.78929-12.188c-0.4341-6.7031-1.06-13.938-1.3908-16.077-0.39839-2.5758 0.05-4.4302 1.3278-5.4906 2.7361-2.2708 3.2394-1.15 1.7148 3.8186-0.87232 2.8428-0.96493 8.7823-0.2719 17.436l1.0511 13.125 6.2224 1.5355c7.325 1.8076 23.668 0.54709 34.403-2.6535 18.466-5.5058 24.666-5.4361 38.125 0.42828 9.9026 4.3149 19.473 7.8822 19.895 7.4156 0.23673-0.26175 1.6016-7.4578 3.033-15.991 1.4314-8.5335 3.2544-16.127 4.0513-16.875 1.7088-1.6037 1.1494 2.422-2.8604 20.584-2.5836 11.702-2.5894 11.999-0.2877 14.688 3.8122 4.4523 6.4528 3.5341 7.3877-2.5688 3.0371-19.825 4.8019-27.158 7.019-29.165 2.905-2.629 3.1487-0.62157 0.53758 4.4278-1.0172 1.967-3.1496 10.025-4.7387 17.908l-2.8894 14.331 3.6685 3.5929c2.0177 1.9761 5.5734 7.671 7.9016 12.655l4.233 9.0625 5.8996-0.007c3.2448-0.004 9.2561-0.55688 13.359-1.2286 4.1024-0.67176 7.8679-0.80914 8.3679-0.30526 0.49996 0.50387 1.2598 5.1349 1.6885 10.291 0.42873 5.1562 1.1051 10.5 1.5031 11.875 1.2866 4.4452 3.7119 40.755 3.9242 58.75 0.36748 31.153-2.2195 37.032-17.822 40.497-2.6056 0.57873-3.7658 1.6802-4.1128 3.9045-0.46898 3.0068 2.762 38.043 4.2051 45.598 0.39392 2.0625 0.9328 7.6875 1.1976 12.5 0.89373 16.246 3.0469 37.48 4.1195 40.625 0.58616 1.7188 1.1007 5.5632 1.1434 8.5433 0.0428 2.9801 0.63011 7.1988 1.3053 9.375 0.67521 2.1762 1.5241 6.4879 1.8865 9.5817 0.891 7.6072 3.9423 26.052 6.2036 37.5 1.0185 5.1562 2.2151 12.188 2.6591 15.625 0.44401 3.4375 1.2819 7.9375 1.862 10 0.58012 2.0625 1.9252 6.8438 2.989 10.625s2.2635 9.125 2.666 11.875c0.84585 5.7797 2.2774 10.025 6.3232 18.75 1.5939 3.4375 4.3694 10.75 6.1677 16.25s4.7167 12.812 6.4852 16.25c1.7686 3.4375 4.5511 8.8618 6.1835 12.054 5.2864 10.338 21.785 24.37 26.598 22.623 1.2707-0.46143 1.5605 0.0963 1.0548 2.0299-0.38346 1.4664-0.17834 2.9868 0.45584 3.3787 2.8353 1.7523-2.3684 4.209-7.0127 3.3108zm-4.3625-7.1308c-0.84898-1.0229-3.47-3.0505-5.8245-4.5056-7.0462-4.3548-18.94-24.038-24.857-41.134-1.5464-4.4688-4.816-12.757-7.2656-18.418-2.4497-5.6609-5.2887-14.098-6.309-18.75-1.0202-4.6516-3.3037-14.082-5.0744-20.957-5.7087-22.165-20.543-117.43-20.68-132.81-0.0113-1.256-3.8824 0.31217-9.2104 3.7312-7.9556 5.1051-11.434 7.0648-24.308 13.693l-10.39 5.35 0.78531 18.193c1.1576 26.818-1.5816 38.941-10.053 44.491-4.3782 2.8687-19.839 4.1254-58.076 4.7205-55.513 0.86397-71.098-1.7254-75.627-12.565-2.3631-5.6556-2.3596-15.741 0.0125-34.755 1.0253-8.2239 1.8646-15.114 1.8646-15.312 0-0.19801-0.57456-0.36001-1.2768-0.36001-1.8562 0-10.99-6.0756-17.337-11.532-3.0187-2.5951-6.1525-4.7184-6.9641-4.7184s-6.7764-3.3988-13.255-7.553c-10.814-6.9339-16.779-9.752-18.019-8.5125-0.8242 0.8242-5.7668 24.962-6.9843 34.108-0.63458 4.7673-2.2428 13.486-3.5738 19.375s-3.0803 16.051-3.8873 22.582c-0.80696 6.5312-1.9067 12.438-2.444 13.125-0.5372 0.6875-1.389 3.7812-1.8929 6.875-0.50388 3.0938-1.9225 7.6116-3.1525 10.04-1.23 2.4281-2.8267 7.6076-3.5481 11.51-0.72142 3.9025-2.4601 9.3466-3.8638 12.098s-2.5521 5.9227-2.5521 7.0474c0 3.1422-13.293 27.68-19.989 36.898-3.2835 4.5202-6.962 10.145-8.1744 12.5-1.2124 2.3548-3.2235 5.4064-4.4691 6.7814-5.739 6.3354-13.219 16.256-15.492 20.546-1.375 2.5955-6.8594 8.8418-12.188 13.881-5.3281 5.0389-9.6875 9.5972-9.6875 10.13 0 0.5324 2.1328 1.607 4.7395 2.388 5.1626 1.5468 29.263 0.0891 40.827-2.4692 15.065-3.333 32.217-9.2304 38.184-13.129 2.4062-1.5722 9.7188-6.1437 16.25-10.159 6.5312-4.0151 15.477-10.254 19.88-13.865 15.261-12.516 29.533-17.204 41.534-13.64 8.7094 2.5864 13.14 2.4518 23.914-0.72666 11.261-3.3219 14.104-3.218 25.833 0.94391 8.8242 3.1311 9.948 3.2506 18.324 1.9484 4.9076-0.76297 11.654-2.3144 14.992-3.4476 5.6109-1.905 6.5539-1.9075 12.498-0.0336 6.2355 1.9656 6.7559 1.9321 17.246-1.1078 11.807-3.4215 19.661-3.884 29.634-1.745 5.608 1.2027 8.0105 2.8246 17.874 12.067 25.047 23.468 43.794 34.356 77.02 44.729 15.435 4.819 17.216 5.1102 15.013 2.455zm-143.35-152.11c19.374-1.7629 20.95-2.6846 24.555-14.357 2.6956-8.7275 2.9968-13.086 1.7369-25.14-0.9607-9.1915-1.5359-9.452-15.791-7.1509-5.6604 0.91373-16.198 2.6156-23.417 3.7819-7.2188 1.1663-14.503 2.1966-16.188 2.2896-2.6924 0.14856-3.1066 0.82403-3.4244 5.584-0.35819 5.3653-3.7252 14.057-6.8772 17.753-0.89957 1.0548-3.8856 3.2885-6.6356 4.9638-6.864 4.1816-21.249 4.2758-28.868 0.189-9.3354-5.0074-10.886-7.6328-11.508-19.48-0.6274-11.954 0.27794-11.146-14.144-12.623-9.7138-0.9954-9.16-1.8591-10.542 16.438-0.86711 11.483 0.103 17.331 3.6488 21.996 2.2235 2.9253 14.077 6.013 27.663 7.206 14.334 1.2587 58.933 0.4485 79.79-1.4494zm-53.892-13.587c14.032-3.897 21.693-21.627 14.496-33.547-3.8654-6.4025-9.6733-11.379-13.432-11.509-8.5399-0.29528-15.924 0.48037-18.794 1.9742-7.6592 3.9867-11.274 11.716-11.287 24.136-0.0125 11.585 4.8151 16.86 17.372 18.984 3.1605 0.5346 6.0276 1.035 6.3713 1.112 0.34375 0.077 2.7169-0.44093 5.2737-1.151zm47.84-34.27c8.25-1.1989 18.656-2.8252 23.125-3.614l8.125-1.4342-0.26114-9.2195c-0.14364-5.0707-0.49534-9.4537-0.78157-9.7399-0.28624-0.28624-4.1062 0.092-8.4889 0.84064-4.3826 0.74859-10.96 1.6546-14.618 2.0132-3.657 0.3587-9.1116 1.3933-12.121 2.2991-3.0098 0.90581-5.7561 1.3631-6.103 1.0162-0.34688-0.34686-4.5511-0.61602-9.3427-0.59812l-8.712 0.0325-5.0961-6.0437-5.0961-6.0437-16.433 0.73087-16.433 0.73086-4.4007 4.8711-4.4007 4.8711-9.7303-0.84879c-11.094-0.96775-10.218-1.8831-11.755 12.276-0.59692 5.4956-0.3917 7.2109 0.87176 7.2869 0.90885 0.0546 6.2969 0.48564 11.973 0.95771 8.9355 0.74309 10.408 0.58375 10.97-1.187 1.1254-3.546 10.849-12.264 15.328-13.742 5.412-1.7861 18.162-0.46151 22.611 2.3492 4.2923 2.7112 7.763 6.515 10.458 11.462 2.1098 3.8724 2.4246 3.997 8.75 3.4652 3.6088-0.3034 13.311-1.5325 21.561-2.7314zm-105.62-16.67c0-1.38-2.0555-3.3234-5.3125-5.0228-2.9219-1.5246-7.8438-4.4142-10.938-6.4215-3.0938-2.0073-7.0312-4.4247-8.75-5.372-1.7188-0.94735-8.8332-5.201-15.81-9.4526-12.569-7.6597-15.44-8.8699-15.44-6.5089 0 1.3696 0.46073 1.6708 18.75 12.258 13.108 7.5882 17.615 10.427 29.361 18.49 7.1376 4.8999 8.1393 5.1497 8.1393 2.0298zm145.84-4.4716c4.4775-2.1795 14.209-7.1947 22.289-11.487 3.4375-1.8261 8.0406-4.6635 10.229-6.3053 2.1885-1.6419 4.5791-2.9852 5.3125-2.9852 1.6398 0 1.7707-3.3322 0.16978-4.3216-0.64-0.39555-1.5272-0.13093-1.9715 0.58802-0.44434 0.71896-9.0006 5.3688-19.014 10.333-10.013 4.9641-19.251 9.581-20.528 10.26-2.3601 1.2539-3.273 5.6411-1.1738 5.6411 0.63179 0 2.7412-0.77514 4.6875-1.7225zm-53.163-1.8839c0.43911-0.079 1.1939-2.2516 1.6772-4.8282 1.0882-5.8004 2.1853-6.5184 10.024-6.5611 3.4375-0.0186 9.0625-0.78023 12.5-1.6923 3.4375-0.91209 6.8269-1.4631 7.532-1.2245 0.70511 0.23861 1.0687 2.6706 0.80799 5.4045l-0.47404 4.9707 5.442-0.75339c2.9931-0.41436 5.8071-1.3317 6.2534-2.0385 0.44624-0.70681 1.8052-0.90372 3.02-0.43758 2.7596 1.059 21.177-7.3994 34.755-15.962l9.8361-6.2027-0.78935-6.3468c-1.9304-15.522-3.6801-33.018-3.7771-37.77l-0.10563-5.1735-14.375 0.023c-7.9062 0.0126-23.656-0.54953-35-1.2493-18.961-1.1697-21.178-1.5609-27.474-4.8495-7.1622-3.7405-11.471-8.8501-13.961-16.555-0.87347-2.7031-1.7586-17.948-2.2006-37.901-0.46095-20.811-1.2371-33.875-2.0614-34.697-1.4199-1.4162-6.7239-1.9563-15.24-1.5518-9.5358 0.45287-10.268 2.2954-12.263 30.877-1.3362 19.142-2.9357 30.529-4.7928 34.12-1.0279 1.9878-2.2487 6.4767-2.7128 9.9753-1.2771 9.6273-4.2916 13.522-13.99 18.076l-8.4289 3.9579-25.625 0.23964c-23.506 0.21982-33.509-0.36972-43.497-2.5635-3.6111-0.79313-3.7225-0.66916-4.666 5.1909-0.53162 3.3019-1.0735 6.8472-1.2041 7.8785-0.89637 7.0748-2.1895 13.492-3.1487 15.625-0.93053 2.0695-3.8519 18.747-3.2845 18.751 0.0964 0.00064 3.6635 2.3913 7.9268 5.3125s8.0544 5.3114 8.4247 5.3114c0.37031 0 4.6223 2.5312 9.4489 5.625s9.2479 5.625 9.8252 5.625c0.57731 0 3.2974 1.6282 6.0445 3.6182 6.6382 4.8087 12.382 7.7137 13.345 6.75 0.43012-0.43012 5.7631-0.67211 11.851-0.53775l11.069 0.24428 5.0763-5.6718c4.6588-5.2053 5.3551-5.5658 8.4657-4.3831 2.9978 1.1398 20.969 0.72311 28.108-0.65165 1.7026-0.32789 4.2216 1.5514 8.3385 6.2209 5.8126 6.5928 5.9912 6.6853 12.2 6.3193 3.4657-0.2043 6.6606-0.43603 7.0997-0.51496zm-29.24-56.79c-6.0236-0.8987-8.4375-1.7851-8.4375-3.0982 0-1.5418 1.6682-1.6966 10.312-0.95672 10.474 0.89637 13.139 1.8891 11.63 4.3313-0.93745 1.5168-1.573 1.5038-13.505-0.27639zm37.583 53.726c0.28322-2.3925-0.17156-3.3411-1.6017-3.3411-2.3671 0-3.7443 2.9474-2.6769 5.729 1.1294 2.9433 3.8256 1.4386 4.2786-2.3878zm7.7295-1.6119c0-3.2766-1.1968-3.7824-3.5-1.4792-2.5171 2.5171-1.863 5.8609 1 5.1122 1.6178-0.42308 2.5-1.705 2.5-3.633zm6.2898 0.45829c0.0389-2.7455 0.0836-2.7545 1.8797-0.37969 2.1593 2.8552 4.8462 1.1481 4.1121-2.6125-0.34538-1.7693-1.3379-2.2157-4.1797-1.8798-2.0498 0.24226-4.1401 1.086-4.6452 1.875-1.5741 2.4588-1.0444 5.8095 0.91836 5.8095 1.0993 0 1.8914-1.1635 1.9148-2.8125zm-82.33-81.76c10.212-4.8381 10.619-5.504 15.945-26.053 3.39-13.079 3.7547-15.817 5-37.529 0.62998-10.984 1.7265-21.484 2.4367-23.332 1.9317-5.0286 5.8375-6.4776 17.51-6.4965 9.9612-0.0161 10.624 0.15662 13.521 3.5253l3.0469 3.5422-0.46804 25.77c-0.98849 54.426 3.8544 61.786 41.68 63.34 21.963 0.90205 47.922 0.82594 52.995-0.15541 6.0903-1.178 11.766-4.2098 13.858-7.4031 5.1521-7.8631 4.7131-55.118-0.88599-95.377l-1.6155-11.616-18.803 0.66623c-10.342 0.36642-33.991 0.99328-52.553 1.393-39.106 0.84215-51.188 1.2308-74.375 2.3925-9.2812 0.46498-36.924 0.87256-61.428 0.90572-24.504 0.0331-45.111 0.41214-45.793 0.84218-0.6822 0.43002-1.8533 9.5006-2.6024 20.157s-1.7983 24.719-2.3316 31.25c-0.53329 6.5312-0.96961 18.156-0.96961 25.833 0 13.531 0.11637 14.124 3.8023 19.375 7.3279 10.44 21.032 13.403 60.573 13.096l23.125-0.17926 8.3319-3.9474zm-50.21-4.35c-29.146-1.3766-36.895-4.5459-40.085-16.394-1.4139-5.251 0.74491-28.296 4.6497-49.634 1.0644-5.8163 2.0621-13.727 2.2171-17.579 0.15504-3.852 0.6451-7.5914 1.089-8.3096 1.3314-2.1543 92.833-4.7092 95.46-2.6655 1.7434 1.3565 1.121 57.332-0.6756 60.755-0.6131 1.1681-1.5285 4.655-2.0342 7.7488-1.7429 10.663-5.3987 18.372-9.9991 21.086-8.1017 4.7801-23.323 6.281-50.622 4.9917zm40.625-5.4393c4.5318-1.1674 8.545-3.1086 10.14-4.9049 3.209-3.6133 8.2358-21.52 8.4522-30.109l0.15745-6.25-4.528 0.34671c-6.2108 0.47555-25.223-2.9669-30.17-5.4627-5.2011-2.6242-10.668-7.7116-12.921-12.023-2.4619-4.7127-5.5312-19.996-4.674-23.275 0.68858-2.6332 0.38513-2.7116-10.497-2.7116h-11.206l-2.0361 4.6875c-1.1199 2.5781-2.3078 8.0625-2.6399 12.188-0.3321 4.125-1.2225 11.719-1.9788 16.875-0.75621 5.1562-1.5911 12.068-1.8552 15.36-0.26417 3.2918-1.4119 11.926-2.5505 19.187-1.1855 7.5603-1.602 13.67-0.97467 14.297 3.6428 3.6428 54.808 5.0073 67.281 1.7943zm-68.102-28.764c0.72929-6.1875 1.8662-15.351 2.5265-20.364 1.8309-13.899 1.6793-14.95-2.4684-17.094-4.4083-2.2796-4.5375-2.0253-5.6908 11.208-0.41941 4.8125-1.6486 13.972-2.7315 20.354-2.2744 13.404-1.7691 22.402 1.5381 27.388l2.3275 3.5086 1.5863-6.875c0.87246-3.7812 2.183-11.938 2.9123-18.125zm84.816-16.405 3.9019-0.78037 0.0128-15.157c0.007-8.3364 0.14962-17.407 0.31687-20.157l0.3041-5h-23.376c-16.803 0-23.807 0.43133-24.909 1.5341-1.4595 1.4602-1.7949 11.446-0.58394 17.382 1.1179 5.4799 5.7218 12.433 10.221 15.436 2.6068 1.7398 9.0942 4.0319 14.773 5.2194 11.577 2.4211 13.925 2.606 19.339 1.5231zm-19.328-26.104c-0.90403-3.6019 2.261-9.3659 5.1428-9.3659 2.6495 0 6.8462 4.5705 6.8462 7.456 0 2.8572-3.4765 5.044-8.019 5.044-2.3556 0-3.3879-0.81499-3.97-3.1341zm-60.116-2.8034c0.39845-2.5781 1.1006-5.9531 1.5604-7.5 0.75954-2.5554 0.41919-2.8125-3.7241-2.8125-4.8192 0-5.141 0.40135-6.1478 7.6671-0.52238 3.7699-0.16862 4.7649 2.0809 5.8529 4.509 2.1807 5.4747 1.6836 6.2306-3.2075zm174.47 79.175c-0.26776-0.24439-5.022-0.71515-10.565-1.0461-10.921-0.65216-18.376-3.3738-21.248-7.7578-0.97032-1.4809-2.9371-6.0374-4.3706-10.126-2.6488-7.5539-2.7069-13.502-0.4635-47.433 0.22727-3.4375 0.44075-10.502 0.4744-15.699 0.0858-13.244 0.91413-14.092 13.286-13.603 15.998 0.63294 19.862 0.53555 46.599-1.1746 13.997-0.89528 25.912-1.1545 26.479-0.57598 0.56713 0.57849 1.405 4.9893 1.862 9.8018 0.45701 4.8125 1.9528 14.375 3.324 21.25 2.8087 14.082 3.8733 37.908 2.3108 51.712-1.3995 12.364-3.4359 14.43-14.072 14.274-25.16-0.36817-41.351-0.27786-42.181 0.23529-0.521 0.32199-1.1664 0.38549-1.4341 0.14111zm40.785-4.4528c-1.517-2.4546-3.3021-23.733-3.7489-44.689-0.25246-11.841-0.77451-22.04-1.1601-22.664-0.38559-0.62389-0.78162-4.849-0.88007-9.3892-0.24387-11.247-1.3096-12.41-11.213-12.235-4.411 0.0778-9.1449 0.39091-10.52 0.69603-1.375 0.30512-2.9219 0.59779-3.4375 0.65039-0.51562 0.0526-0.94629 2.7675-0.95702 6.0331-0.0416 12.66-5.4425 26.922-12.795 33.788-4.4546 4.1598-15.536 7.8749-22.596 7.5753-7.3424-0.31158-8.3157 0.89875-8.2022 10.2 0.15168 12.428 4.9769 24.084 11.512 27.809 1.8336 1.045 11.93 1.7844 30.851 2.2592 15.469 0.38817 29.424 0.81297 31.011 0.94401 1.5992 0.13201 2.5514-0.30358 2.1353-0.97683zm11.179-2.8477c2.504-5.9928 3.6985-33.296 2.0098-45.937-2.0505-15.349-4.0353-23.757-5.5963-23.705-0.74998 0.0248-2.8945 1.2988-4.7656 2.8312l-3.402 2.7862 0.4257 26.856c0.24415 15.403 1.1023 29.922 2.0121 34.044 1.3962 6.3259 1.9479 7.1875 4.6026 7.1875 2.2214 0 3.4635-1.0706 4.7138-4.0628zm-67.106-43.427c8.0026-2.784 11.233-6.0373 16.088-16.201 2.4546-5.1385 3.2943-8.9515 3.4119-15.493l0.17-8.7-18.44-0.38-18.44-0.38-0.053 5.8695c-0.0291 3.2282-0.35772 13.041-0.73015 21.807l-0.67714 15.938h5.7614c3.1688 0 8.9817-1.1203 12.918-2.4896zm-11.768-25.638c-0.39632-1.0328-0.3701-3.2742 0.0582-4.981 0.91479-3.6448 6.0712-5.4606 8.882-3.1278 2.4798 2.058 2.4002 8.2613-0.1185 9.2278-3.5666 1.3686-8.0872 0.79518-8.8218-1.1191zm71.51-3.4347c4.1283-2.6236 4.376-3.1404 3.6868-7.6933-0.99824-6.5946-1.3698-6.9942-6.5025-6.9942-4.3257 0-4.4344 0.1155-3.6762 3.9062 0.42969 2.1484 0.78125 6.0859 0.78125 8.75s0.28914 4.8438 0.64253 4.8438 2.6341-1.2656 5.0682-2.8125zm-181.33-30.58c5.3337-5.4074 7.3496-6.5684 13.75-7.9197 4.125-0.87087 13.729-1.7047 21.343-1.853 12.745-0.24818 14.444 0.004 21.42 3.17 4.1675 1.8918 8.7662 5.0502 10.219 7.0187 2.5099 3.4 3.0512 3.558 10.82 3.1576 7.9678-0.41067 8.2567-0.54595 11.232-5.2588 1.6795-2.6605 4.2376-5.4709 5.6848-6.2454 1.4471-0.77449 9.1959-1.5018 17.22-1.6162 16.664-0.23771 23.192 1.7049 26.917 8.01 2.0322 3.4402 2.619 3.6504 9.902 3.5474 4.258-0.0602 10.386-0.4821 13.617-0.9375l5.875-0.82799-3.7206-7.7336c-4.6469-9.659-9.3683-13.466-26.9-21.693-7.4961-3.5173-14.754-7.0286-16.129-7.803-3.716-2.0927-19.942-2.3026-24.704-0.31958-2.2254 0.92675-5.8428 1.9659-8.0385 2.3093-2.1958 0.34337-5.852 1.2359-8.125 1.9833-4.0138 1.3199-21.206 1.1342-27.004-0.29173-6.453-1.5871-24.014-2.3764-25.545-1.1482-0.87075 0.69813-4.7889 2.1884-8.7071 3.3116-3.9181 1.1233-7.467 2.5974-7.8863 3.2759-0.41931 0.67847-2.0666 1.2336-3.6606 1.2336s-3.5684 0.80759-4.3876 1.7946c-0.81919 0.98706-3.1381 2.1568-5.1531 2.5993-2.015 0.44257-3.6636 1.2846-3.6636 1.8711 0 0.58654-1.1474 1.4306-2.5497 1.8757-4.6188 1.4659-19.95 18.841-19.95 22.609 0 1.1016 2.3155 1.7458 7.1875 2 13.986 0.72948 14.26 0.64956 20.938-6.1203zm45 5.1267c9.625-0.41515 17.731-0.97677 18.013-1.248 0.28223-0.27125-0.48978-1.6014-1.7156-2.9559-2.8609-3.1612-10.886-6.045-18.63-6.695-8.427-0.70726-27.742 1.3788-32.962 3.56-4.5048 1.8822-10.271 6.6621-10.309 8.5448-0.0125 0.59805 6.3065 0.74124 14.041 0.31819 7.7344-0.42305 21.938-1.1089 31.562-1.524zm86.155-2.8831 6.1554-0.12337-2.9017-3.0887c-5.0295-5.3537-12.304-6.7081-27.407-5.1031-7.7435 0.82289-9.7193 1.5182-12.148 4.2748-1.5952 1.8106-2.9182 3.7083-2.9399 4.217-0.0217 0.50874 7.4136 0.7049 16.523 0.43593 9.1094-0.26899 19.332-0.5446 22.718-0.61248zm56.97-83.87c0-1.2853 0.90922-3.2462 2.0205-4.3574 1.1113-1.1113 2.492-4.1189 3.0682-6.6836 1.003-4.4642 2.9189-34.665 2.6482-41.745-0.43943-11.497-16.519-25.145-35.447-30.088-3.8103-0.99502-10.414-3.8525-14.676-6.35-4.2613-2.4975-8.0296-4.5409-8.3739-4.5409-0.34432 0-4.4104-3.2571-9.0358-7.2381-11.65-10.026-22.41-15.011-34.49-15.981-9.2524-0.7424-9.8412-0.61877-19.189 4.0286-5.3042 2.637-13.557 8.0584-18.339 12.048-4.7825 3.9892-12.798 9.5178-17.812 12.286-5.0144 2.768-9.117 5.5099-9.117 6.0932s-3.6127 2.2628-8.0282 3.7322c-8.2358 2.7407-15.146 7.8962-25.034 18.677-2.7845 3.0359-5.9694 6.4109-7.0776 7.5-2.3311 2.291-9.806 17.783-15.129 31.355-4.8733 12.426-5.2392 13.75-3.7988 13.75 1.1775 0 10.255-6.7604 11.558-8.6079 1.0534-1.4933 9.1732-6.0458 12.509-7.0136 1.7188-0.49861 4.8125-1.6272 6.875-2.508 2.0625-0.88077 8.9084-2.8809 15.213-4.4447 10.163-2.5208 12.786-2.7133 23.125-1.6971 13.194 1.2969 29.192-0.20497 42.287-3.97 5.4683-1.5722 12.212-2.3439 20.625-2.3599 10.868-0.0206 13.643 0.43885 21.25 3.5188 37.833 15.318 52.161 23.383 59.147 33.293 3.4658 4.9167 5.2282 5.3566 5.2282 1.3051zm-186.25-36.262c0-0.6875 0.5957-1.25 1.3238-1.25 0.72808 0 0.97613 0.5625 0.55123 1.25s-1.0206 1.25-1.3238 1.25c-0.30317 0-0.55122-0.5625-0.55122-1.25zm154.38 0c-0.4249-0.6875 0.10437-1.25 1.1762-1.25s1.9488 0.5625 1.9488 1.25-0.5293 1.25-1.1762 1.25c-0.64692 0-1.5239-0.5625-1.9488-1.25zm18.12-2.347c0-1.452 3.6367-4.433 4.4346-3.6351 1.132 1.132-0.91712 4.732-2.6934 4.732-0.95768 0-1.7413-0.49363-1.7413-1.097zm-116.25-9.6018c0-1.0718 0.5625-1.6011 1.25-1.1762s1.25 1.3018 1.25 1.9488c0 0.64693-0.5625 1.1762-1.25 1.1762s-1.25-0.87695-1.25-1.9488zm64.592-1.0612c-0.70334-1.8329 0.10716-3.24 1.8662-3.24 1.396 0 1.3343 3.4216-0.0774 4.294-0.61545 0.38037-1.4204-0.0939-1.7889-1.054zm-90.686-3.0346c-1.7537-3.182-0.93135-5.2302 1.2315-3.0674 0.74051 0.74051 1.1284 2.3905 0.86198 3.6667-0.43471 2.0823-0.64946 2.0208-2.0935-0.59928zm63.099 0.31015c-1.0691-2.786-0.98388-3.0156 1.119-3.0156 1.0312 0 1.875 0.81055 1.875 1.8012 0 2.6445-2.1159 3.5027-2.994 1.2144zm-87.017-7.3768c0.84959-1.0237 2.0526-1.5473 2.6734-1.1636 1.5956 0.98612 0.0697 3.0249-2.2638 3.0249-1.589 0-1.6656-0.3479-0.4096-1.8612zm150.79-5.386c-0.33896-0.54845-0.1538-1.7455 0.41147-2.6601 1.3313-2.1541 3.9161-0.58075 2.994 1.8224-0.76883 2.0035-2.4321 2.4127-3.4054 0.83777zm-22.02-2.127c0-1.0312 0.5625-1.875 1.25-1.875s1.25 0.84375 1.25 1.875-0.5625 1.875-1.25 1.875-1.25-0.84375-1.25-1.875zm-73.072-3.0386c-0.39555-0.63999-0.14749-1.517 0.55122-1.9488 1.4917-0.92194 3.7704 0.24821 3.7704 1.9362 0 1.521-3.3833 1.5309-4.3216 0.0126zm-23.18-6.409c0-1.4156 0.53794-2.2413 1.1954-1.835 0.65748 0.40634 0.87854 1.5645 0.49127 2.5738-0.99154 2.5839-1.6867 2.2794-1.6867-0.73882zm57.117-5.7256c-0.99866-0.99866 0.13024-2.9506 1.7065-2.9506 0.64693 0 1.1762 0.84375 1.1762 1.875 0 1.933-1.475 2.4834-2.8827 1.0756zm22.88-7.326c0-1.0312 0.5625-1.875 1.25-1.875s1.25 0.84375 1.25 1.875-0.5625 1.875-1.25 1.875-1.25-0.84375-1.25-1.875zm-39.322-8.0386c-0.39555-0.63999-0.14749-1.5169 0.55122-1.9488 1.4917-0.92193 3.7704 0.24821 3.7704 1.9362 0 1.521-3.3833 1.5309-4.3216 0.0126zm23.335 113.64c-0.31217-16.184-0.0896-18.873 1.6164-19.528 2.8948-1.1108 3.3721-0.001 1.7492 4.0638-1.4577 3.6516-1.6639 22.696-0.32676 30.173 0.5275 2.9499 0.26043 4.0621-0.97517 4.061-1.3438-0.001-1.7778-3.9484-2.0636-18.77zm-9.4497 0.95747c-2.6489-19.25-2.6724-23.436-0.13158-23.436 1.5335 0 1.7611 0.90894 1.1044 4.4094-0.45497 2.4252-0.10775 10.865 0.77172 18.755 0.87941 7.8901 1.3207 14.624 0.98064 14.964-0.34006 0.34007-1.5664-6.2715-2.7252-14.692z"/>
</svg>
