<?xml version="1.0" encoding="UTF-8" standalone="no"?>
<!-- Created with Inkscape (http://www.inkscape.org/) -->
<svg id="svg3406" xmlns:rdf="http://www.w3.org/1999/02/22-rdf-syntax-ns#" xmlns="http://www.w3.org/2000/svg" height="930.42" viewBox="0 0 244.22195 930.42291" width="244.22" version="1.1" xmlns:cc="http://creativecommons.org/ns#" xmlns:dc="http://purl.org/dc/elements/1.1/">
 <metadata id="metadata3412">
  <rdf:RDF>
   <cc:Work rdf:about="">
    <dc:format>image/svg+xml</dc:format>
    <dc:type rdf:resource="http://purl.org/dc/dcmitype/StillImage"/>
    <dc:title/>
   </cc:Work>
  </rdf:RDF>
 </metadata>
 <path id="path3416" d="m68.995 929.98c-1.3231-0.4895-6.0761-1.1545-10.562-1.4778-6.5326-0.4707-10.626-1.8079-20.561-6.716-12.729-6.2883-22.009-14.137-33.563-28.385-4.1753-5.149-4.7044-6.5136-4.1015-10.577 0.38069-2.5661 1.0202-16.803 1.4211-31.637 0.40094-14.834 1.2619-35.928 1.9133-46.875 0.65139-10.947 1.7454-34.248 2.431-51.779 0.68568-17.531 1.811-37.419 2.5007-44.195 1.6676-16.383 1.5848-69.956-0.12875-83.305-1.4244-11.097-1.6626-23.598-2.9296-153.75-0.42499-43.656-1.0577-80.312-1.406-81.457-0.34833-1.1453-0.0479-2.4441 0.66752-2.8863 0.71548-0.44218 1.3008-3.5232 1.3008-6.8467 0-7.2501 3.1515-38.45 5.1196-50.685 0.77416-4.8125 3.1198-12.125 5.2125-16.25 5.639-11.115 22.31-31.708 30.359-37.5 3.8214-2.75 10.617-7.7214 15.102-11.048 4.4845-3.3262 8.4766-5.7247 8.8713-5.33 0.81033 0.81031-3.36 4.328-12.748 10.753-12.021 8.2269-17.633 13-22.586 19.21-10.523 13.192-14.303 18.572-13.717 19.521 0.33502 0.5421-0.1988 1.6562-1.1863 2.4757-2.0801 1.7263-6.3578 12.279-5.3756 13.261 0.36431 0.3643 1.9591-2.0389 3.544-5.3404 2.8638-5.9655 18.591-24.608 19.768-23.431 0.33845 0.33845-2.2607 3.5546-5.776 7.1469-6.3226 6.4613-19.087 26.014-19.087 29.238 0 2.7176 1.8167 1.9128 3.9926-1.7689 2.8631-4.8446 9.7613-13.378 9.7383-12.047-0.01 0.61015-1.995 3.9219-4.41 7.3594s-5.346 7.6562-6.5134 9.375-2.8391 3.5748-3.715 4.1246c-0.87588 0.54979-1.5897 2.5185-1.5863 4.375l0.006 3.3754 3.2221-3.75 3.2221-3.75-2.6033 3.943c-1.4318 2.1686-2.6033 4.8073-2.6033 5.8637s-0.5625 2.2684-1.25 2.6933-1.2378 2.5675-1.223 4.7613c0.0266 3.9264 0.0802 3.89 3.4375-2.3304 6.0719-11.25 9.6355-16.786 10.812-16.796 0.63337-0.005 2.3209-0.98521 3.75-2.1776 1.5822-1.3201 1.3156-0.70908-0.68185 1.5625-5.0064 5.6935-12.428 16.749-14.381 21.423-1.957 4.6836-0.1643 5.8031 2.1945 1.3704 1.8919-3.5553 19.868-25.766 23.425-28.944 1.4662-1.3097 2.6658-3.3364 2.6658-4.5038 0-2.4472 19.925-24.232 21.094-23.062 0.42695 0.42694-0.78156 1.911-2.6856 3.298-4.8747 3.551-17.331 18.484-16.517 19.801 0.37178 0.60157-2.4357 4.3573-6.2389 8.346-3.8032 3.9888-9.0051 10.346-11.56 14.127-2.5547 3.7812-6.4894 9.1829-8.7438 12.004-2.2544 2.8208-4.099 6.0552-4.099 7.1875s-0.78466 2.0588-1.7437 2.0588c-1.1215 0-1.9139 1.7841-2.2205 5-0.26225 2.75-0.10475 5 0.34994 5 1.1681 0 4.856-5.8397 4.9059-7.7685 0.0489-1.89 4.2655-7.2051 5.7838-7.2906 0.5773-0.0325 3.5036-3.1263 6.5028-6.875 2.9993-3.7487 6.0627-6.8159 6.8077-6.8159 0.74498 0-0.35417 1.8281-2.4425 4.0625-3.5137 3.7594-11.277 13.543-19.455 24.518-2.5528 3.4259-3.3989 6.0242-3.4375 10.556-0.0604 7.0885 0.75285 6.8878 4.9488-1.2217 1.7188-3.3218 3.4489-6.3209 3.8448-6.6646 0.3959-0.34375 2.224-2.865 4.0625-5.6027 5.9926-8.9237 3.5145-3.0399-2.991 7.1016-3.4835 5.4305-6.0864 10.549-5.7841 11.375 0.3023 0.82563-0.47127 2.6278-1.719 4.0048-2.3446 2.5874-4.4337 10.649-2.7435 10.586 1.1022-0.0409 9.0803-12.888 9.0803-14.622 0-0.63622 1.4062-2.4778 3.125-4.0925 4.658-4.376 3.8005-1.761-2.5039 7.6355-3.2554 4.8521-5.3224 9.1885-4.902 10.284 0.45371 1.1824-0.48443 2.688-2.4961 4.0061-1.7727 1.1615-3.223 3.1721-3.223 4.468 0 3.6141 1.6841 2.8157 4.2976-2.0374 1.3014-2.4165 3.24-5.0884 4.3082-5.9375 1.1146-0.88607 0.72883 0.32019-0.9054 2.8311-3.5454 5.4474-7.9507 15.166-7.2102 15.907 0.30416 0.30416 3.1206-3.8536 6.2588-9.2394s5.716-9.1468 5.7284-8.3577c0.0125 0.7891-2.2274 5.1383-4.9774 9.6649s-5 8.9716-5 9.8778c0 0.90618-0.57965 2.2272-1.2881 2.9357-0.77859 0.77859-0.87539 2.4038-0.24473 4.1086 0.95832 2.5906 1.4304 2.1935 5.79-4.8696 2.6106-4.2296 5.0145-7.4222 5.3419-7.0948 0.32741 0.32742-1.4294 3.5387-3.904 7.1362-2.7836 4.0466-4.2298 7.3903-3.7924 8.7684 0.42641 1.3435-0.10987 2.6846-1.3513 3.3793-1.132 0.63351-1.8525 2.2198-1.6012 3.5252 0.34659 1.7997 1.4323 0.78843 4.4919-4.1841 2.2191-3.6066 4.3177-6.5574 4.6635-6.5574 1.8766 0-0.74848 5.8043-4.8376 10.696-2.5797 3.0861-4.5039 6.5788-4.2761 7.7616 0.28466 1.4782 1.5185 0.2661 3.9463-3.8768 1.9427-3.315 3.7735-5.786 4.0684-5.4911s-1.4422 3.8216-3.8602 7.8371c-5.7552 9.5575-6.0135 14.08-0.44318 7.7605l2.479-2.8125-2.1446 4.375c-1.1795 2.4062-2.6268 5.3517-3.2161 6.5455-1.3204 2.6747-1.4121 8.4573-0.13401 8.4466 0.51562-0.004 1.9394-1.768 3.164-3.9193 3.8736-6.8049 3.5182-3.1095-0.43357 4.5071-2.8698 5.5313-3.5842 8.206-2.9558 11.067 0.68989 3.141 1.024 3.4237 1.9954 1.688 0.64169-1.1466 1.7142-2.0848 2.3834-2.0848 0.66919 0 0.3115 1.3815-0.79485 3.07s-1.688 3.5935-1.2926 4.2334c0.39545 0.63984-0.11863 1.8584-1.1423 2.708-1.0237 0.84957-1.8434 2.7414-1.8215 4.2041 0.037 2.4769 0.15376 2.5093 1.7003 0.47195 2.5086-3.3046 3.2102-2.631 1.6273 1.5625-0.77851 2.0625-1.8547 3.75-2.3914 3.75-0.53678 0-0.97595 2.002-0.97595 4.4488 0 2.9345 0.47105 4.1576 1.3839 3.5935 0.96878-0.59874 1.0625 0.0354 0.3125 2.1137-0.58927 1.633-1.0164 6.6253-0.94909 11.094 0.0673 4.4688 0.22265 23.925 0.34528 43.236 0.12262 19.311 0.78822 38.436 1.4791 42.5 1.8459 10.858 2.4838 54.299 1.1455 78.014-0.64016 11.344-1.4592 29.625-1.82 40.625-0.62215 18.965-2.1066 46.063-4.04 73.75-0.48011 6.875-0.8975 13.037-0.92755 13.694-0.03 0.6565 1.3516 1.555 3.0704 1.9967l3.125 0.80302-3.125 0.50333c-2.9936 0.48216-3.1316 0.89754-3.283 9.8783-0.0869 5.1562-0.53722 18.573-1.0007 29.814l-0.84278 20.439 11.188 11.145c9.2264 9.1914 13.018 12.002 21.626 16.029 5.7408 2.6863 14.375 5.8086 19.188 6.9386 19.145 4.4952 88.916 6.6268 107.47 3.2834 13.783-2.4843 19.46-5.5676 29.294-15.912 4.8558-5.1074 9.1637-10.823 9.5732-12.7 0.40946-1.8776 1.2254-4.82 1.8132-6.5388 2.2355-6.5367 6.7218-40.689 9.2772-70.625 1.0564-12.375 2.7631-32.351 3.7926-44.391 1.0296-12.04 2.437-35.665 3.1276-52.5 0.69064-16.835 1.54-34.265 1.8875-38.734 0.34749-4.4688 0.94391-12.625 1.3254-18.125s1.2187-15.625 1.8606-22.5c0.64181-6.875 2.0169-24.784 3.0558-39.797 1.0388-15.013 2.2437-27.871 2.6775-28.573 0.43378-0.70185 0.95388-10.356 1.1558-21.453 0.2019-11.097 1.2329-31.146 2.2911-44.552 1.8569-23.525 2.2919-30.991 3.9322-67.5 0.417-9.2812 1.5495-29.812 2.5166-45.625 3.0436-49.764 3.504-69.153 1.9438-81.875-2.2828-18.614-2.7639-21.25-3.8788-21.25-1.7525 0-12.905 13.748-11.937 14.716 0.49779 0.49779 1.7028-0.18594 2.6779-1.5194 0.97504-1.3334 1.7728-2.0019 1.7728-1.4856 0 0.5164-1.9688 3.5173-4.375 6.6687s-4.375 6.2802-4.375 6.9531c0 0.67281-0.86249 0.5075-1.9166-0.36737-1.7038-1.414-1.6344-1.8911 0.625-4.2961 1.3979-1.488 2.5416-3.4827 2.5416-4.4326 0-2.1695-7.6048 5.1014-12.06 11.531-1.821 2.6277-3.559 4.5296-3.8622 4.2264-0.59016-0.59018 8.2079-12.174 16.774-22.086 2.8746-3.3262 5.4195-5.469 5.6553-4.7618 0.23575 0.70725 2.3042-1.048 4.5966-3.9005 4.1077-5.1115 4.1446-5.2695 2.5566-10.941-0.98609-3.522-3.4125-7.5562-6.2532-10.397-6.7536-6.7536-29.145-19.594-34.594-19.837-1.9248-0.086-2.2173 15.628-0.31275 16.805 0.71604 0.44253-0.44076 2.876-2.7088 5.6983-2.1772 2.7092-4.2418 4.6427-4.588 4.2965s0.51668-1.8928 1.9175-3.437c1.7888-1.9718 2.5897-4.668 2.6907-9.0576l0.14369-6.25-3.7274 4.0822c-2.0501 2.2452-3.7274 4.9171-3.7274 5.9375s-0.44016 1.8553-0.97815 1.8553c-0.53798 0-1.0931-2.6412-1.2336-5.8694-0.26755-6.1475 1.2274-9.5054 6.9903-15.701 2.1043-2.2624 2.7821-3.8686 1.9736-4.6771s-2.8232 1.1858-5.8668 5.8074c-3.8873 5.9028-4.6354 6.5366-4.6354 3.9272 0-3.0134 6.1295-12.768 9.6844-15.412 1.125-0.8367 1.604-3.0637 1.3442-6.25l-0.40361-4.9502-3.75 5.3559c-2.0625 2.9457-4.4204 6.3207-5.2399 7.5-1.3249 1.9067-1.4818 1.798-1.4171-0.98086 0.0957-4.1075 4.4684-13.11 7.7267-15.908l2.5822-2.2172-2.3013 3.6421c-1.2657 2.0031-3.4293 5.6594-4.8079 8.125-2.4552 4.391-2.4018 4.3676 2.6096-1.1421 4.1971-4.6145 5.1164-6.5232 5.1175-10.625l0.001-5-4.4738 5c-2.4606 2.75-5.1725 6.618-6.0265 8.5956s-1.9034 3.028-2.3321 2.3344c-0.42867-0.69361 0.26408-2.5929 1.5395-4.2205 1.4467-1.8463 2.1575-4.4143 1.8898-6.8274-0.29816-2.6878 0.73042-5.6963 3.371-9.8601l3.8001-5.9922-4.1445 0.92608c-12.019 2.6856-14.938 3.0647-23.984 3.1148-18.494 0.10238-57.054-7.04-74.535-13.806-11.211-4.339-11.25-4.3425-11.25-1.0062 0 1.8276 0.57394 2.4135 1.875 1.9142 2.3838-0.91476 2.3604-0.20085-0.1175 3.581-1.0959 1.6725-1.7491 3.7621-1.4515 4.6435 0.3059 0.90612 1.4835-0.21339 2.7097-2.5761 1.1928-2.2983 2.4768-3.8706 2.8534-3.494 0.37659 0.37658-0.78989 3.2009-2.5922 6.2762-1.8023 3.0754-3.252 6.8976-3.2216 8.494 0.0473 2.4839 0.40606 2.2382 2.4883-1.7041 1.3382-2.5336 3.0941-5.015 3.902-5.5143 0.8079-0.49931-0.31184 2.2046-2.4883 6.0086-3.9536 6.9111-4.9892 10.987-2.791 10.987 0.64118 0 1.4942-0.98438 1.8957-2.1875 0.40143-1.2031 1.8968-3.5938 3.3231-5.3125 1.775-2.139 1.4238-0.95581-1.1132 3.75-3.5516 6.588-6.0009 13.75-4.7022 13.75 0.33919 0 1.5164-1.7398 2.616-3.8662s2.2522-3.6132 2.5614-3.3041c0.30913 0.30915-0.85057 3.0333-2.5771 6.0537-1.7266 3.0204-3.1211 6.6166-3.099 7.9916 0.0286 1.7764 0.77396 1.1091 2.5753-2.3054 1.3943-2.643 2.815-4.5256 3.157-4.1836 0.34201 0.342-0.61742 3.0509-2.132 6.0199-5.6964 11.166-5.597 17.779 0.12803 8.5156 1.6729-2.7068 3.459-4.9214 3.9693-4.9214 0.51021 0-1.344 3.5146-4.1204 7.8103-4.2501 6.5757-4.9942 8.6859-4.7075 13.349 0.21491 3.4949-0.21855 5.7251-1.1747 6.0438-1.4081 0.46936-2.361-4.6729-1.4507-7.8282 0.38-1.3172 1.4626-27.34 1.404-33.75-0.0189-2.0625-0.13961-7.4062-0.26836-11.875s0.14461-12.344 0.60746-17.5l0.84155-9.375-4.4101-2.798c-6.8348-4.3364-8.305-8.2992-7.1294-19.216 0.547-5.0798 0.88404-12.048 0.74896-15.486-0.13507-3.4375-0.67886-17.602-1.2084-31.477l-0.96283-25.227 3.4923-3.2366c1.9208-1.7801 6.4971-4.1101 10.17-5.1777 8.1604-2.3723 13.004-8.1119 20.996-24.881 8.0984-16.993 10.982-26.262 11.14-35.806l0.13947-8.4153 13.125-6.288c7.2188-3.4584 17.396-7.9095 22.615-9.8914 7.982-3.0306 9.8397-3.348 11.688-1.9968 1.2084 0.88364 1.8476 2.1722 1.4204 2.8635-1.3579 2.1972 4.1007 19.789 10.637 34.28 5.9998 13.302 14.965 30.77 23.546 45.88 3.4174 6.0172 9.0087 16.754 18.397 35.326 2.203 4.3581 2.3955 5.6318 1.0842 7.1739-1.391 1.6358-4.3301 22.401-4.1577 29.375 0.23142 9.3622-1.8552 40.24-2.8441 42.088-0.66555 1.2436-2.7959 3.0811-4.7341 4.0834-3.2697 1.6908-3.5827 2.5171-4.338 11.452-0.44767 5.2961-0.81396 15.405-0.81396 22.465v12.836l6.5625 2.1331c8.8136 2.8648 24.759 12.39 30.869 18.439 7.3547 7.2819 9.2117 14.329 12.579 47.733 1.374 13.632 0.98631 25.865-2.5953 81.896-0.68117 10.656-1.7868 33.156-2.4568 50-0.67009 16.844-2.0605 40.952-3.0898 53.574s-2.1894 32.872-2.5779 45c-0.38852 12.128-1.2046 24.582-1.8135 27.676-0.60891 3.0938-1.441 12.656-1.849 21.25-0.40805 8.5938-1.5482 24.625-2.5336 35.625-2.3875 26.652-3.9609 50.417-5.586 84.375-2.8698 59.966-8.6789 126.71-13.774 158.27-0.67887 4.2043-1.2343 9.1338-1.2343 10.954 0 1.8207-0.5222 4.2871-1.1604 5.4809-0.63824 1.1938-2.3416 4.7716-3.7854 7.9507-2.3286 5.1277-19.637 23.595-22.114 23.595-0.47762 0-1.818 0.8594-2.9786 1.9097-1.1882 1.0753-6.4195 2.4319-11.973 3.1049-5.4248 0.6574-13.238 1.6969-17.363 2.31-4.125 0.613-20.719 0.7469-36.875 0.2975s-31.389-0.4724-33.851-0.051c-2.4616 0.4212-5.5582 0.3654-6.8814-0.124zm-58.018-564.95c0-0.6875-0.24805-1.25-0.55123-1.25-0.30317 0-0.89887 0.5625-1.3238 1.25-0.4249 0.6875-0.17685 1.25 0.55122 1.25 0.72808 0 1.3238-0.5625 1.3238-1.25zm176.9-103.44c1.7142-1.9476 3.0427-5.0478 3.065-7.1528l0.0395-3.7153-2.6588 2.6588c-1.4624 1.4624-2.8156 4.0865-3.0071 5.8314-0.19153 1.7449-0.71576 3.7672-1.1649 4.494-1.6071 2.6004 0.75647 1.2581 3.7263-2.1161zm-1.8954-2.5064c0-0.6875 0.84375-1.9502 1.875-2.8061 1.0459-0.86804 1.875-1.0034 1.875-0.30611 0 0.6875-0.84375 1.9502-1.875 2.8061-1.0459 0.86804-1.875 1.0034-1.875 0.30611zm5.2855-44.46c0.30511 0.5659 0.39028 0.3438 0.18923-0.49355-0.20105-0.83737 0.17238-1.8549 0.82986-2.2613 1.5385-0.95082 1.5631-5.5913 0.0296-5.5913-0.64117 0-1.5587 1.2656-2.039 2.8125-0.48027 1.5469-2.0243 4.5-3.4312 6.5625l-2.558 3.75 3.2123-2.9039c1.7668-1.5972 3.462-2.4409 3.7671-1.875zm-16.215-8.2891c8.5529-1.4008 20.454-5.5858 24.33-8.5555 2.6065-1.997 2.8523-3.5723 4.0369-25.876 0.6938-13.062 1.8842-29.938 2.6453-37.5l1.3838-13.75-9.2679-17.5c-5.0974-9.625-10.968-20.594-13.047-24.375-16.58-30.163-24.571-47.815-29.004-64.069-1.4541-5.3316-2.5781-10.113-2.4978-10.625 0.39012-2.4894-0.79667-2.4338-9.2126 0.43207-21.925 7.4661-26.837 10.572-31.374 19.838-4.2661 8.7124-3.6281 10.439 0.96271 2.6051 1.8313-3.1248 3.6015-5.6815 3.934-5.6815 0.79891 0-2.9272 7.245-5.9041 11.48-2.7308 3.8848-6.3643 13.547-5.0628 13.463 0.48512-0.0312 3.6946-4.5307 7.132-9.9987 3.4375-5.468 6.6085-9.9424 7.0467-9.9431 0.43816-0.00073-2.5742 5.0637-6.6941 11.254-4.274 6.4222-7.1877 12.045-6.785 13.095 0.38815 1.0115-0.9589 5.0036-2.9934 8.8713s-3.697 6.272-3.6945 5.3428c0.002-0.92919 1.1276-3.5312 2.5-5.7822 2.6805-4.3964 3.1429-6.5323 1.4141-6.5323-0.59467 0-2.8643 4.0781-5.0437 9.0625s-5.6264 11.594-7.6601 14.688c-2.0337 3.0938-4.4047 6.7044-5.2688 8.0237-2.802 4.2779-9.6996 10.027-15.971 13.312l-6.1296 3.2105 3.9444 4.7853c6.3449 7.6974 20.555 16.198 32.436 19.404 13.477 3.6365 29.861 6.271 38.524 6.1944 6.8622-0.0606 6.8692-0.0647 3.7612-2.1827-6.7848-4.6236-12.821-10.985-19.641-20.7-8.353-11.898-12.261-21.007-13.482-31.422-1.1378-9.7075 0.0917-8.518 1.7336 1.6771 2.334 14.493 15.559 35.466 28.329 44.927 9.4023 6.9659 12.281 7.6399 16.493 3.8609l3.3049-2.9654-2.1529 3.4375c-2.9154 4.6549-0.443 4.389 2.9047-0.3125 1.4686-2.0625 3.2925-3.75 4.053-3.75 0.76053 0 0.15973 1.3019-1.3351 2.8931-2.8721 3.0572-3.4231 4.6069-1.6379 4.6069 0.594 0 2.6463-2.2602 4.5607-5.0226 1.9144-2.7625 3.7425-4.7608 4.0625-4.4408s-0.60731 2.0936-2.0607 3.9412c-4.9244 6.2604-2.6255 6.1849 3.1274-0.10275 5.318-5.8124 5.4402-5.878 1.7443-0.9375-3.649 4.8778-3.7658 5.3125-1.4275 5.3125 1.4007 0 3.5573-1.447 4.7925-3.2155 1.2352-1.7686 3.514-4.7217 5.064-6.5625 2.2498-2.6719 2.6675-2.8428 2.0712-0.84698-0.62483 2.0912-0.32372 1.989 1.8416-0.625 1.4237-1.7188 2.6011-2.6307 2.6164-2.0265 0.0153 0.60417-2.0375 3.3845-4.5617 6.1785-3.0944 3.4252-4.0551 5.2581-2.949 5.6268 0.90225 0.30075 3.5089-1.6358 5.7926-4.3035s4.1732-4.3232 4.199-3.679c0.0258 0.64425 1.7344-0.44536 3.7969-2.4214s3.75-3.0302 3.75-2.3427c0 0.68751-1.6875 2.8667-3.75 4.8427s-3.75 4.0107-3.75 4.5216c0 1.1863 7.2163-0.85507 9.3849-2.6548 1.1885-0.98634 1.8807-0.97786 2.504 0.0306 0.4738 0.76662 0.56372 1.6916 0.19983 2.0555-1.0609 1.0609-20.828 6.609-28.339 7.9538-24.653 4.4143-65.609-0.0821-86.069-9.4492-7.294-3.3393-16.46-10.047-21.112-15.449-1.5435-1.7923-2.8732-2.6963-2.955-2.0088-0.0817 0.6875-0.33215 2.7969-0.55633 4.6875-0.4378 3.6924 0.54238 4.3378 2.9426 1.9375 2.1288-2.1288 1.8584-0.20897-0.47141 3.3467-1.0843 1.6548-1.7705 4.3069-1.525 5.8935 0.40021 2.5865 0.72755 2.3678 3.1662-2.1152 3.6851-6.7746 3.5202-4.9962-0.34766 3.7498-1.7479 3.9523-2.93 7.4338-2.627 7.7368 0.30302 0.30301 2.8581-2.671 5.678-6.6089s5.121-6.6464 5.1135-6.0188c-0.007 0.62753-2.5387 4.7566-5.625 9.1756-5.382 7.706-6.8364 11.34-4.5385 11.34 0.59017 0 3.1623-3.1466 5.7158-6.9925s4.9791-6.6562 5.3902-6.2451-0.39341 2.0109-1.7878 3.555c-6.6571 7.3721-12.258 19.256-7.7665 16.48 0.99961-0.6178 0.99961-0.14874 0 1.719-2.2693 4.2402-1.6319 5.8511 1.2815 3.2393l2.6562-2.3812-2.6516 4.375c-2.7726 4.5747-3.486 8.75-1.4952 8.75 0.64118 0 1.5067-1.0742 1.9234-2.3871s1.6876-3.141 2.8242-4.0625c1.766-1.4318 1.911-1.4027 0.99664 0.19961-0.58845 1.0312-2.1468 3.4301-3.463 5.3307s-2.1629 4.1465-1.8814 4.9908c0.28144 0.8443 3.2787-2.3394 6.6606-7.075s7.6993-10.778 9.5942-13.428 4.1096-4.8182 4.9214-4.8182c0.81181 0 0.0129 1.5469-1.7755 3.4375-7.3805 7.8028-22.216 30.652-22.216 34.216 0 2.3634 0.64281 3.5963 1.875 3.5963 1.0312 0 1.875 0.46259 1.875 1.028 0 3.6989 20.937 12.816 37.826 16.472 6.3522 1.3749 13.799 3.0794 16.549 3.7877 5.9232 1.5256 31.364 4.6407 39.375 4.8213 3.0938 0.0697 8.863-0.40353 12.82-1.0517zm-100.33-20.38c-0.007-1.5859 7.6313-14.605 9.1034-15.515 0.75318-0.46548 0.19622 1.0814-1.2377 3.4375s-3.7892 6.2526-5.2341 8.6588c-1.4448 2.4062-2.629 3.9446-2.6316 3.4186zm-2.482-1.7463c-0.0302-1.9376 9.7981-18.914 11.592-20.023 0.77607-0.47964 0.0721 1.3436-1.5642 4.0516-1.6364 2.708-4.557 7.7362-6.4902 11.174-1.9332 3.4375-3.5251 5.5963-3.5376 4.7973zm-5.0108-8.7145c-0.0129-1.5369 10.397-17.402 13.423-20.458 1.6454-1.6614 1.6971-1.5625 0.4542 0.86789-0.77151 1.5086-1.9622 3.0886-2.646 3.5113-0.6838 0.42261-1.2433 1.3309-1.2433 2.0184s0.63018 0.86054 1.4004 0.38451c0.77021-0.47602-0.1661 1.8814-2.0807 5.2387-4.1626 7.2991-6.7255 10.328-3.7453 4.4256 3.1384-6.2155 1.4142-6.1931-2.3153 0.03-1.7795 2.9692-3.2407 4.7609-3.2472 3.9815zm9.2151-11.148c0.42686-1.1124 0.21731-1.6142-0.49126-1.1762-0.67963 0.42002-1.2357 1.293-1.2357 1.9399 0 1.798 0.89596 1.4018 1.727-0.7637zm-2.208-13.373c2.7764-4.7336 10.668-15.938 11.226-15.938 0.8483 0-0.11688 1.6232-6.132 10.312-2.7365 3.9531-5.2085 7.1875-5.4932 7.1875-0.28471 0-0.10525-0.70313 0.3988-1.5625zm0.57376-9.0046c2.1989-3.0619 5.4154-6.8588 7.1478-8.4375s0.19811 0.92651-3.4094 5.5671c-7.3747 9.4866-9.8602 11.395-3.7383 2.8704zm-4.3972-1.6204c8.0712-12.425 10.995-16.539 11.438-16.096 0.57766 0.57766-12.075 19.533-13.039 19.533-0.34795 0 0.37222-1.5469 1.6004-3.4375zm105.05-36.136c0.96396-3.203 1.743-7.8436 1.7312-10.313-0.0295-6.1723-3.9888-20.821-7.4595-27.598-2.4745-4.8319-23.369-33.766-24.383-33.766-0.19918 0-0.59404 1.9864-0.87746 4.4142-0.38052 3.2593-0.0892 4.2507 1.1132 3.7892 2.1807-0.8368 2.0661-0.23141-0.86675 4.5789-3.1989 5.2467-3.2251 7.1094-0.0462 3.2937 3.8998-4.6812 2.8654-0.97092-1.2432 4.4592-2.0434 2.7006-3.7152 5.7381-3.7152 6.75s1.691-0.49452 3.7578-3.3477c3.2756-4.5219 4.9922-6.1683 4.9922-4.7883 0 0.21958-2.25 3.4149-5 7.1008-2.75 3.6858-5 7.3748-5 8.1977s-0.93491 2.2682-2.0776 3.2118c-1.1427 0.94355-3.0493 3.3092-4.237 5.2569-1.227 2.0121-2.5073 2.9786-2.9649 2.2381-0.44299-0.71677 1.1012-3.4354 3.4316-6.0414 5.536-6.1906 7.7826-10.363 5.5794-10.363-1.8485 0.00071-12.231 11.646-12.231 13.719 0 2.1048 4.5835 10.629 6.6273 12.325 1.5043 1.2484 2.7001 0.004 7.079-7.3668 2.8979-4.878 5.5412-8.5968 5.8738-8.2642 0.33267 0.33266-1.6868 4.2334-4.4877 8.6682-4.9411 7.8236-6.113 10.918-4.1346 10.918 1.1653 0 9.042-12.965 9.042-14.883 0-0.75194 0.5625-1.3672 1.25-1.3672 2.0578 0 1.4694 1.5825-3.125 8.4049-4.2367 6.291-5.5259 10.345-3.2898 10.345 0.59688 0 3.2134-3.6391 5.8146-8.0868 2.6012-4.4478 6.3707-9.9321 8.3767-12.188 2.2332-2.5108 1.4936-0.95051-1.9076 4.0243-5.8656 8.5793-9.619 15.336-9.619 17.316 0 0.65438 1.6875 1.7781 3.75 2.4971 4.9396 1.722 4.9997 4.1212 0.0679 2.7068-5.1309-1.4715-14.39-8.056-17.531-12.467-5.7085-8.0169-7.6632-14.615-7.7729-26.239-0.0998-10.574 0.14704-11.653 4.7245-20.67 2.6564-5.2322 6.4883-11.525 8.5154-13.985l3.6857-4.4714 4.3317 4.8439c8.0786 9.0338 17.548 21.362 25.221 32.833 4.1678 6.2314 8.3666 17.959 9.898 27.647 1.0668 6.7486-1.467 22.489-3.6201 22.489-0.5641 0-0.23692-2.6206 0.72704-5.8237zm-38.11-48.364c3.2716-6.1382 4.1694-9.4623 4.6097-17.069 0.44205-7.6363 0.15985-9.7671-1.473-11.122-2.9792-2.4726-4.8858-0.35478-11.405 12.669-4.8762 9.7407-5.6143 12.253-5.6143 19.111 0 11.833 0.72325 12.851 5.7012 8.0264 2.2655-2.1958 5.9473-7.4226 8.1819-11.615zm-5.1331 24.591c0-0.69552 1.2656-2.3362 2.8125-3.6458l2.8125-2.3812-2.4867 3.125c-1.3677 1.7188-2.6333 3.3594-2.8125 3.6458-0.1792 0.28645-0.32582-0.0482-0.32582-0.74378zm-35-1.4703c0-1.8504 18.962-30.387 19.7-29.648 0.30369 0.3037-0.86524 2.4172-2.5976 4.6968-1.7324 2.2795-6.2892 9.1523-10.126 15.273-3.837 6.1205-6.9764 10.476-6.9764 9.6785zm42.5-8.9317c1.4686-2.0625 2.9515-3.75 3.2952-3.75 0.34375 0-0.57662 1.6875-2.0452 3.75s-2.9515 3.75-3.2952 3.75c-0.34375 0 0.57661-1.6875 2.0452-3.75zm10.556-2.1082c1.0596-2.1908 2.5492-4.368 3.3102-4.8383 1.677-1.0364-0.13127 2.5249-3.2097 6.3216-1.8816 2.3206-1.8888 2.2141-0.1005-1.4832zm-5.6568-4.7668c1.9399-3.7049 4.9985-7.3944 5.6172-6.7758 0.29795 0.29796-1.1385 2.5069-3.1922 4.9088s-3.1449 3.242-2.4249 1.867zm-36.149-12.527c0-1.2721 6.6246-10.64 7.1516-10.113 0.29464 0.29465-0.98742 2.8373-2.849 5.6504-3.1908 4.8216-4.3025 5.9748-4.3025 4.4629zm81.009 72.494c-0.38486-0.38486-1.0838 0.30889-1.5532 1.5417-0.67835 1.7815-0.53477 1.9251 0.69975 0.69975 0.85428-0.84793 1.2383-1.8566 0.85348-2.2414zm-116.62-29c3.6158-2.4732 4.405-3.5192 2.8847-3.8235-2.1525-0.43073-10.989 4.6149-11.017 6.2906-0.0307 1.8653 3.2554 0.8683 8.1319-2.4671zm40.368-74.017c0.3125-0.9375-0.15625-1.4063-1.0938-1.0938-0.90235 0.30078-1.8867 1.2852-2.1875 2.1875-0.3125 0.9375 0.15625 1.4062 1.0938 1.0938 0.90234-0.30079 1.8867-1.2852 2.1875-2.1875zm28.686 901.54c1.5549-0.299 3.8049-0.2876 5 0.025 1.1951 0.3128-0.0771 0.5575-2.8271 0.5436-2.75-0.014-3.7278-0.2699-2.1729-0.5688zm0.96868-4.0418c-0.43335-0.7012 1.1771-0.8821 3.9887-0.4481 6.277 0.9689 6.7803 1.624 1.2476 1.624-2.4802 0-4.8366-0.5292-5.2363-1.1759zm-85.898-1.5965c0.6666-0.6666 2.2561-0.9907 3.5323-0.7202 1.7185 0.3643 1.4042 0.6786-1.212 1.212-2.281 0.4651-3.103 0.2908-2.3203-0.4918zm108.06-0.5938c1.2162-0.3169 2.9037-0.2961 3.75 0.046 0.84628 0.3424-0.14879 0.6017-2.2113 0.5762-2.0625-0.025-2.7549-0.3056-1.5387-0.6225zm-113.14-1.21c0.85937-0.3468 2.2656-0.3468 3.125 0 0.85937 0.3467 0.15625 0.6305-1.5625 0.6305s-2.4219-0.2838-1.5625-0.6305zm125.08-0.026c0.90234-0.3611 1.9805-0.3167 2.3958 0.099 0.41536 0.4153-0.32292 0.7108-1.6406 0.6565-1.4562-0.06-1.7524-0.3562-0.75522-0.7552zm-135.71-1.26c1.2031-0.3144 3.1719-0.3144 4.375 0s0.21875 0.5716-2.1875 0.5716-3.3906-0.2572-2.1875-0.5716zm134.69-2.2634c1.7188-0.9825 4.25-1.7635 5.625-1.7356 1.637 0.033 0.98971 0.6324-1.875 1.7356-5.7837 2.2273-7.6462 2.2273-3.75 0zm-139.69-2.7366c1.2031-0.3144 3.1719-0.3144 4.375 0s0.21875 0.5716-2.1875 0.5716-3.3906-0.2572-2.1875-0.5716zm149.45 0.01c0.90234-0.3611 1.9805-0.3167 2.3958 0.099 0.41536 0.4153-0.32292 0.7108-1.6406 0.6565-1.4562-0.06-1.7524-0.3562-0.75522-0.7552zm-7.9642-2.1784c1.3345-1.0822 4.147-1.903 6.25-1.824 3.8031 0.14298 3.7999 0.14839-0.59387 1.0093-2.4296 0.47606-5.2421 1.2968-6.25 1.824-1.0079 0.5271-0.74065 0.073 0.59387-1.0094zm-141.18-3.21c-3.4595-0.8803-3.5079-0.96419-0.625-1.083 1.7188-0.0708 3.9688 0.41651 5 1.083 2.1274 1.3748 1.0281 1.3748-4.375 0zm141.31-2.5979c0.65924-1.0666 12.975-4.1581 13.696-3.4377 0.27289 0.27289-2.8223 1.3607-6.8781 2.4174-4.0559 1.0567-7.1237 1.5158-6.8175 1.0203zm-158.5-1.98c0.85937-0.34676 2.2656-0.34676 3.125 0 0.85937 0.34676 0.15625 0.63049-1.5625 0.63049s-2.4219-0.28373-1.5625-0.63049zm176.33-2.526c0.90234-0.36109 1.9805-0.31668 2.3958 0.0986 0.41536 0.41536-0.32292 0.7108-1.6406 0.65652-1.4562-0.06-1.7524-0.35617-0.75522-0.7552zm-176.95-2.5c1.2031-0.3144 3.1719-0.3144 4.375 0 1.2031 0.31441 0.21875 0.57166-2.1875 0.57166s-3.3906-0.25725-2.1875-0.57166zm170.31-1.7067c2.75-1.3013 6.125-2.3624 7.5-2.358 1.375 0.005-0.59375 1.0963-4.375 2.4264-8.5735 3.0159-9.5955 2.9935-3.125-0.0684zm-159.06 0.45674c1.2031-0.3144 3.1719-0.3144 4.375 0 1.2031 0.31441 0.21875 0.57166-2.1875 0.57166s-3.3906-0.25725-2.1875-0.57166zm158.44-5.3883c1.0312-0.66645 2.7188-1.1808 3.75-1.143 1.2363 0.0453 1.0234 0.43465-0.625 1.143-3.4364 1.4766-5.41 1.4766-3.125 0zm0.33629-4.6162c1.2162-0.31692 2.9037-0.29609 3.75 0.0464 0.84628 0.34241-0.14879 0.60171-2.2113 0.57624-2.0625-0.0255-2.7549-0.30563-1.5387-0.62255zm-179.41-3.71c0.85937-0.34676 2.2656-0.34676 3.125 0 0.85937 0.34676 0.15625 0.63049-1.5625 0.63049s-2.4219-0.28373-1.5625-0.63049zm180.32-4.45c0-0.5338 0.5625-0.97054 1.25-0.97054s1.25-0.84375 1.25-1.875c0-1.1371 1.1068-1.8404 2.8125-1.7871 2.6836 0.0839 2.698 0.13708 0.3125 1.1621-2.4103 1.0357-2.4017 1.0774 0.23873 1.1621 4.9189 0.1578 4.2489 2.3145-0.87069 2.8028-2.7462 0.26189-4.993 0.0394-4.993-0.49436zm-179.69-4.3322c1.2031-0.3144 3.1719-0.3144 4.375 0 1.2031 0.31441 0.21875 0.57166-2.1875 0.57166-2.4063 0-3.3906-0.25725-2.1875-0.57166zm1.2738-6.2546c1.2162-0.31692 2.9037-0.29609 3.75 0.0464 0.84628 0.34241-0.14879 0.60171-2.2113 0.57624-2.0625-0.0255-2.7549-0.30563-1.5387-0.62255zm187.16-4.173c0-0.66592 0.84375-1.2108 1.875-1.2108s1.875 0.22108 1.875 0.49126c0 0.2702-0.84375 0.81504-1.875 1.2108-1.0312 0.39572-1.875 0.17465-1.875-0.49127zm-188.74-3.47c0-0.54945 2.1094-0.78993 4.6875-0.5344 7.2568 0.71924 7.7855 1.3261 1.25 1.4347-3.2656 0.0543-5.9375-0.35086-5.9375-0.90031zm193.13-1.501c0.4249-0.6875 1.0206-1.25 1.3238-1.25 0.30318 0 0.55123 0.5625 0.55123 1.25s-0.5957 1.25-1.3238 1.25c-0.72808 0-0.97613-0.5625-0.55123-1.25zm-192.18-3.39c1.5549-0.29898 3.8049-0.28763 5 0.0253 1.1951 0.31287-0.0771 0.55751-2.8271 0.54363-2.75-0.0139-3.7278-0.26986-2.1729-0.56885zm-4.3896-6.2276c1.2031-0.3144 3.1719-0.3144 4.375 0 1.2031 0.31441 0.21875 0.57166-2.1875 0.57166s-3.3906-0.25725-2.1875-0.57166zm1.25-6.25c1.2031-0.3144 3.1719-0.3144 4.375 0 1.2031 0.31441 0.21875 0.57166-2.1875 0.57166s-3.3906-0.25725-2.1875-0.57166zm8.2031-1.2422c0.90234-0.36109 1.9805-0.31668 2.3958 0.0986 0.41537 0.41536-0.32292 0.7108-1.6406 0.65652-1.4562-0.06-1.7524-0.35617-0.75522-0.7552zm-8.5156-5.6471c0-0.54945 1.9688-0.999 4.375-0.999s4.375 0.21971 4.375 0.48824-1.9688 0.71808-4.375 0.999c-2.4063 0.28092-4.375 0.0612-4.375-0.48824zm188.75-28.5c0-0.6875 0.5957-1.25 1.3238-1.25 0.72808 0 0.97613 0.5625 0.55123 1.25s-1.0206 1.25-1.3238 1.25c-0.30318 0-0.55123-0.5625-0.55123-1.25zm-2.5-4.2064c0-1.124 0.5625-2.0436 1.25-2.0436s1.25-1.0561 1.25-2.347c0-1.2908 0.74903-2.9686 1.6645-3.7284 2.777-2.3047 1.7161 2.6865-1.418 6.6708-1.9516 2.481-2.7465 2.9001-2.7465 1.4481zm-121.25-2.577c0-0.2934 1.8281-1.4124 4.0625-2.4868l4.0625-1.9533-2.951 2.4868c-2.7289 2.2996-5.174 3.2227-5.174 1.9533zm1.25-7.6422c0-0.95505 1.1732-2.3643 2.6071-3.1317 3.7484-2.0061 3.9525-0.97459 0.42815 2.1646-2.1262 1.8938-3.0352 2.1835-3.0352 0.9671zm122.5-2.5689c0-1.2838 5.2456-8.1765 5.8004-7.6217 0.72885 0.72885-3.7043 8.3486-4.8629 8.3584-0.51563 0.004-0.9375-0.32714-0.9375-0.73664zm-120.82-4.93c-0.42723-1.1133 0.25296-2.7062 1.6017-3.7509 2.2506-1.7433 2.2541-1.8698 0.0875-3.1658-1.7822-1.0661-1.9472-1.723-0.78445-3.1241 0.80981-0.97575 2.1066-1.7655 2.8818-1.755 0.77521 0.01 0.56844 0.55082-0.45946 1.2006-1.6038 1.0139-1.5152 1.4546 0.625 3.1067 2.4737 1.9096 2.47 1.9454-0.45706 4.4244-1.623 1.3745-2.3262 2.4992-1.5625 2.4992 0.76366 0 1.3885 0.5625 1.3885 1.25 0 1.9718-2.4993 1.4562-3.321-0.68505zm123.32-4.5786c0-1.0616 0.93584-2.7023 2.0796-3.6458 1.9023-1.5692 1.9412-1.449 0.45569 1.4094-2.1777 4.1906-2.5353 4.506-2.5353 2.2364zm-1.25-5.7926c0-1.2396 4.1639-5.1937 5.4693-5.1937 1.1808 0-3.3138 6.1597-4.5318 6.2107-0.51563 0.0216-0.9375-0.43605-0.9375-1.017zm0-6.395c0-1.6114 5.1306-6.3155 6.7982-6.2331 0.72974 0.0361 0.0611 0.94843-1.4857 2.0275-1.5469 1.079-2.8125 2.737-2.8125 3.6844s-0.5625 1.7225-1.25 1.7225-1.25-0.54059-1.25-1.2013zm-122.5-1.3379c0-0.66592 0.84375-1.2108 1.875-1.2108s1.875 0.22108 1.875 0.49126c0 0.2702-0.84375 0.81504-1.875 1.2108-1.0312 0.39572-1.875 0.17465-1.875-0.49127zm122.48-6.817c2.3222-2.396 4.501-4.0776 4.8416-3.737 0.82243 0.82244-6.1872 8.0932-7.8025 8.0932-0.69373 0 0.63868-1.9603 2.9609-4.3563zm-120.69 0.47751c-1.0179-1.647-0.72838-1.9001 4.8313-4.223 2.6856-1.1221 4.6233-1.4008 4.6233-0.66497 0 0.69673-0.84375 1.2668-1.875 1.2668s-2.9795 1.1045-4.3294 2.4544c-1.5057 1.5057-2.762 1.9567-3.2502 1.1668zm-2.7297-6.3658c-2.1799-2.6266-0.24768-4.308 5.8693-5.1074 3.59-0.46917 4.9187-0.3209 3.75 0.41849-0.99553 0.62981-2.8125 1.1537-4.0378 1.1643-1.2253 0.01-2.6622 1.1936-3.1932 2.629-0.79514 2.1495-1.2165 2.3075-2.3882 0.89557zm123.39-1.5738c2.0424-2.4609 12.582-8.5636 13.391-7.754 0.3564 0.3564-1.5535 1.7711-4.2442 3.1438s-5.6266 3.3807-6.5242 4.4622c-0.89756 1.0815-2.1944 1.9664-2.8819 1.9664-0.71458 0-0.60359-0.77887 0.25912-1.8184zm-119.33-7.61c2.0625-0.94441 4.5938-1.6997 5.625-1.6784s-0.0937 0.79689-2.5 1.7235c-5.7071 2.1978-7.9526 2.1654-3.125-0.0451zm118.12 1.0732c0-0.74081 0.84375-2.0472 1.875-2.903 1.4848-1.2323 1.875-1.2342 1.875-0.009 0 1.0678 1.0646 0.86168 3.4375-0.66545l3.4375-2.2123-2.4211 2.7376c-1.3316 1.5057-3.0912 2.4804-3.9102 2.1662-0.81898-0.31428-2.1201 0.0596-2.8914 0.83091-0.96792 0.96738-1.4023 0.98453-1.4023 0.0548zm-124.38-7.903c0.4249-0.6875 1.335-1.25 2.0225-1.25s0.90236 0.5625 0.47746 1.25-1.335 1.25-2.0225 1.25-0.90236-0.5625-0.47746-1.25zm124.32-2.2595c1.5532-2.274 3.1547-3.8038 3.5589-3.3996 0.40417 0.40417-0.86663 2.2647-2.824 4.1345l-3.5589 3.3996 2.824-4.1345zm-114.93-1.49c1.0312-0.66645 3-1.1808 4.375-1.143 2.5 0.0688 2.5 0.0688 0 1.143-1.375 0.59086-3.3438 1.1052-4.375 1.143-1.6667 0.0611-1.6667-0.0659 0-1.143zm-10.946-2.7885c0.7043-2.1166 10.622-5.843 15.321-5.7566 2.979 0.0548 2.6291 0.28931-1.7015 1.1406-2.9983 0.58939-7.4082 2.2261-9.7997 3.6371-2.6609 1.57-4.1433 1.9499-3.8202 0.97895zm123.45-3.314c0-0.6875 0.5625-1.5976 1.25-2.0225s1.25-0.21004 1.25 0.47746-0.5625 1.5976-1.25 2.0225-1.25 0.21004-1.25-0.47746zm-122.83-2.1934c-0.49193-0.78148-0.19748-1.9674 0.65432-2.6354 2.1597-1.6936 13.632-5.4176 12.865-4.176-0.34476 0.55785-3.1439 1.719-6.2202 2.5803-3.3079 0.92616-5.7591 2.4008-5.999 3.609-0.27054 1.3625-0.70354 1.5697-1.3 0.62205zm121.6-3.6094c0.86964-1.0479 1.8386-1.6478 2.1532-1.3332 0.86686 0.86687-0.89444 3.2384-2.4051 3.2384-0.82887 0-0.73403-0.71723 0.25191-1.9052zm-122.48-6.5c-0.0209-0.84352 1.2276-2.3424 2.7745-3.331 3.1388-2.0058 17.142-6.3677 15.26-4.7532-0.65848 0.5647-4.4172 1.9996-8.3528 3.1886-3.9355 1.189-7.7153 3.122-8.3995 4.2956-0.68421 1.1735-1.2611 1.4436-1.282 0.60002zm121.84-7.8413c0.4249-0.6875 1.0206-1.25 1.3238-1.25 0.30318 0 0.55123 0.5625 0.55123 1.25s-0.5957 1.25-1.3238 1.25c-0.72808 0-0.97613-0.5625-0.55123-1.25zm-116.88-10c4.274-1.3688 7.5603-1.3688 4.375 0-1.375 0.59086-3.625 1.0578-5 1.0375-2.0097-0.0295-1.8872-0.233 0.625-1.0375zm118.75 0.14754c0-0.6875 0.5625-1.5976 1.25-2.0225s1.25-0.21004 1.25 0.47746-0.5625 1.5976-1.25 2.0225-1.25 0.21004-1.25-0.47746zm-110.23-2.26c0.90234-0.36109 1.9805-0.31668 2.3958 0.0986 0.41536 0.41536-0.32292 0.7108-1.6406 0.65652-1.4562-0.06-1.7524-0.35617-0.75522-0.7552zm-18.516-1.49c0-1.3185 7.3058-4.5125 8.2233-3.595 0.35372 0.35373-0.78932 1.0026-2.5401 1.4421-1.7508 0.43941-3.1832 1.3507-3.1832 2.0251s-0.5625 1.2262-1.25 1.2262-1.25-0.49426-1.25-1.0984zm11.016-4.7555c0.90234-0.36109 1.9805-0.31668 2.3958 0.0986 0.41536 0.41536-0.32292 0.7108-1.6406 0.65652-1.4562-0.06-1.7524-0.35617-0.75522-0.7552zm119.76-0.15425c-0.39353-0.63676 0.39622-2.1638 1.755-3.3935 2.8162-2.5487 3.2443-1.0988 0.67578 2.289-0.94339 1.2443-2.0372 1.7413-2.4308 1.1046zm-114.76-1.1c0.90234-0.36109 1.9805-0.31668 2.3958 0.0986 0.41536 0.41536-0.32292 0.7108-1.6406 0.65652-1.4562-0.06-1.7524-0.35617-0.75522-0.7552zm113.98-5.1461c0-1.2988 2.7084-4 4.0106-4 0.55582 0 0.30802 1.125-0.55068 2.5-1.5772 2.5255-3.4599 3.3418-3.4599 1.5zm-111.25-4c1.0312-0.66645 3-1.1808 4.375-1.143 2.5 0.0688 2.5 0.0688 0 1.143-1.375 0.59086-3.3438 1.1052-4.375 1.143-1.6667 0.0611-1.6667-0.0659 0-1.143zm111.98-2.3276c-0.69117-1.1183 5.1343-7.2248 6.0322-6.3231 0.28796 0.28917-0.80422 2.0684-2.4271 3.9539s-3.2452 2.9516-3.6051 2.3692zm-109.47-7.7c0-0.66592 0.84375-1.2108 1.875-1.2108s1.875 0.22108 1.875 0.49126c0 0.2702-0.84375 0.81504-1.875 1.2108-1.0312 0.39572-1.875 0.17465-1.875-0.49127zm-12.5-1.3454c0-0.77596 2.738-1.8103 14.688-5.5482 0.85937-0.26881 1.5505-0.0845 1.5358 0.4095-0.0354 1.1909-16.223 6.3184-16.223 5.1387zm122.5-3.2279c0-0.6875 1.125-2.2681 2.5-3.5125s2.5-1.7 2.5-1.0125-1.125 2.2681-2.5 3.5125-2.5 1.7-2.5 1.0125zm-119.38-2.8875c0.4249-0.6875 1.335-1.25 2.0225-1.25s0.90236 0.5625 0.47746 1.25-1.335 1.25-2.0225 1.25-0.90236-0.5625-0.47746-1.25zm120.62-7.3663c0-0.61395 0.88975-1.4577 1.9772-1.875 3.0586-1.1737 3.3614-0.91882 1.3263 1.1163-2.125 2.125-3.3036 2.3957-3.3036 0.75874zm-118.75-2.7605c0-1.2724 6.245-4.0449 7.1263-3.1636 0.29124 0.29125-1.193 1.3889-3.2984 2.4392s-3.8279 1.3763-3.8279 0.72448zm121.46-6.1991c0.2297-1.5693 1.0765-3.0701 1.8818-3.3351 0.93312-0.30705 1.2184 0.45789 0.78662 2.1091-0.95871 3.6661-3.1745 4.6842-2.6684 1.226zm-119.78-3.33c1.073-1.7362 8.3324-4.2769 8.3324-2.9163 0 0.57155-0.98438 1.3222-2.1875 1.6682-1.2031 0.34592-3.2642 1.0696-4.58 1.6082-1.5869 0.64948-2.1138 0.52821-1.5648-0.36011zm115.93-2.8699c-0.12635-2.4447 3.3642-7.4656 5.1901-7.4656 0.76836 0 0.24555 1.2656-1.1618 2.8125-1.4073 1.5469-2.8672 3.6562-3.2442 4.6875-0.60093 1.6439-0.69759 1.6396-0.7841-0.0344zm-113.85-4.18c0-0.9569 1.125-2.034 2.5-2.3936 1.375-0.35957 2.5-0.27924 2.5 0.17853 0 0.45776-1.125 1.5349-2.5 2.3936-2.0504 1.2805-2.5 1.2484-2.5-0.17852zm115.17-7.126c-0.1046-1.9784 1.0345-4.3514 2.9548-6.1554 1.7188-1.6147 3.125-2.3624 3.125-1.6616 0 0.70078-1.0936 2.2638-2.4302 3.4734s-2.6662 3.4062-2.9548 4.8812c-0.44835 2.2921-0.54935 2.214-0.69483-0.53765zm-115.17 0.0946c0-0.6875 0.5957-1.25 1.3238-1.25 0.72808 0 0.97613-0.5625 0.55123-1.25-0.43815-0.70895 0.61203-1.25 2.4262-1.25 4.094 0 4.1011 1.6876 0.015 3.5494-3.8842 1.7698-4.3162 1.7898-4.3162 0.20065zm115-8.5744c0-0.66855 2.25-2.9976 5-5.1756s4.9899-3.4909 4.9775-2.9175c-0.0322 1.4905-9.9775 9.5575-9.9775 8.0932zm0-7.1767c0-1.6196 8.5125-9.9031 9.3333-9.0822 0.34144 0.34143-1.6189 2.8078-4.3563 5.4807-2.7374 2.673-4.977 4.2936-4.977 3.6015zm-2.5-4.3355c0-1.0411 2.5312-4.3771 5.625-7.4134s5.625-4.8909 5.625-4.1214c0 0.76952-1.5596 2.7148-3.4657 4.3228s-4.4374 4.3144-5.625 6.0142c-1.4011 2.0054-2.1593 2.426-2.1593 1.1978zm3.75-10.673c0-0.6875 1.9688-3.1582 4.375-5.4904s4.375-3.6779 4.375-2.9904-1.9688 3.1582-4.375 5.4904-4.375 3.6779-4.375 2.9904zm1.9222-17.101c3.3846-3.8389 6.3877-6.7459 6.6736-6.46 0.60741 0.60741-9.7922 12.21-11.601 12.943-0.6743 0.27331 1.5432-2.644 4.9278-6.4828zm-7.4501 2.4336c0.91865-2.394 14.278-13.757 14.278-12.145 0 0.72713-0.42188 1.3226-0.9375 1.3233-0.51563 0.0007-3.8754 2.8194-7.4661 6.2638s-6.2342 5.4953-5.8743 4.5576zm5.0511-17.748c1.1445-1.7467 3.2668-3.786 4.7163-4.5318 1.7691-0.91025 1.2194 0.13374-1.6722 3.1758-5.078 5.3421-5.8941 5.7056-3.0441 1.356zm-1.7465-4.5292c0.26675-0.80025 2.423-2.8845 4.7917-4.6316l4.3067-3.1766-4.3077 4.6316c-4.5311 4.8718-5.5897 5.5737-4.7906 3.1766zm33.522-156.74c-0.0269-1.4155 0.77693-3.6655 1.7863-5 2.358-3.1176 2.3892-1.9314 0.0886 3.3676-1.3467 3.1019-1.8389 3.5304-1.875 1.6324zm-0.0489-8.6344c0-1.6958 6.4059-12.178 7.0492-11.535 0.31835 0.31833-1.1375 3.2851-3.2352 6.5929-2.0977 3.3077-3.814 5.5315-3.814 4.9416zm-3.75-3.671c0-1.3157 7.2688-11.706 8.8905-12.708 0.74699-0.46166-0.71712 2.1815-3.2536 5.8737-5.2379 7.6246-5.6369 8.1084-5.6369 6.8342zm-3.75-14.054c0-0.67346 1.7263-2.8766 3.8363-4.8958s5.485-6.1584 7.5-9.1982c2.0715-3.125 3.6637-4.6141 3.6637-3.4266 0 1.1551-3.1858 5.6109-7.0796 9.9018s-7.2688 8.036-7.5 8.3225c-0.23122 0.28645-0.42039-0.0302-0.42039-0.70364zm9.3087-5.0504c1.0579-2.1908 2.49-4.3334 3.1824-4.7613 2.3001-1.4216 1.2898 1.1934-1.9297 4.9945l-3.1762 3.75 1.9235-3.9832zm-178.03-3.8608c-0.0243-1.3876 10.357-13.521 17.886-20.906 2.3032-2.259-0.90657 2.6216-6.893 10.481-1.2488 1.6396-2.2706 4.0302-2.2706 5.3125s-0.54485 2.3314-1.2108 2.3314c-0.66592 0-0.88699-0.84375-0.49127-1.875 0.39574-1.0312 0.0969-1.875-0.66422-1.875-0.76106 0-1.3962 0.42187-1.4115 0.9375-0.0507 1.7126-4.9161 7.2166-4.9444 5.5935zm172.47-2.2459c0-4.5692 5.9459-14.323 8.2032-13.457 0.98824 0.37923 1.7968-0.0269 1.7968-0.90257 0-0.87564 0.37155-1.2205 0.82568-0.7664 0.45411 0.45412-0.0455 1.8135-1.1101 3.0208-1.0647 1.2073-3.4639 5.1483-5.3317 8.7577-1.8677 3.6094-3.6182 6.5625-3.8899 6.5625s-0.494-1.4467-0.494-3.2149zm-172.6-13.28c2.122-2.8854 3.8609-5.8386 3.8644-6.5625 0.01-2.186 5.6977-8.5895 7.9184-8.9154 3.2183-0.47235 2.5342 0.78182-4.8266 8.8492-3.7637 4.125-7.1634 8.4844-7.5548 9.6875-0.39141 1.2031-1.2849 2.1875-1.9856 2.1875-0.70065 0 0.46227-2.3608 2.5842-5.2462zm23.862 4.4695c0.001-0.60405 2.2279-3.6295 4.9467-6.7233s4.9442-5.0625 4.9454-4.375c0.001 0.6875-2.2249 3.713-4.9467 6.7233s-4.9472 4.979-4.9454 4.375zm7.5049-1.5261c-0.005-0.92281 1.1168-3.108 2.4918-4.8561 3.2295-4.1057 3.2295-2.0925 0 2.7839-1.3659 2.0625-2.4872 2.995-2.4918 2.0722zm140.65-0.41335c-0.58026-1.4327 1.1875-4.6801 5.6139-10.312 3.5535-4.5217 6.724-8.2213 7.0456-8.2213 0.7435 0-0.31644 1.7374-5.3941 8.8416-2.2472 3.1441-4.6107 7.0816-5.2521 8.75-0.98143 2.5527-1.3004 2.702-2.0132 0.94218zm-147.71-5.22c1.0347-2.9261 6.1001-9.4011 7.4261-9.4927 0.55061-0.038-0.54335 2.0402-2.431 4.6183-4.7241 6.452-5.9896 7.687-4.9951 4.8744zm-36.7-1.01c0-0.98083 2.6665-4.2911 5.9255-7.3561s4.4797-3.8853 2.7125-1.8228-4.4337 5.3727-5.9255 7.3561c-1.4974 1.9906-2.7125 2.8072-2.7125 1.8228zm22.5 0.89781c0-1.1648 13.689-18.202 14.624-18.202 0.32495 0-2.371 3.7969-5.991 8.4375-8.3535 10.709-8.6334 11.025-8.6334 9.7642zm161.25-5.3579c0-0.6875 1.6875-3.3734 3.75-5.9688 2.0625-2.5953 3.75-4.1563 3.75-3.4688s-1.6875 3.3734-3.75 5.9688c-2.0625 2.5953-3.75 4.1563-3.75 3.4688zm-148.75-3.4688c1.6147-1.7188 3.217-3.125 3.5608-3.125 0.34375 0-0.6961 1.4062-2.3108 3.125s-3.217 3.125-3.5608 3.125c-0.34375 0 0.6961-1.4062 2.3108-3.125zm-55.096-3.3109c2.0856-3.196 6.6076-8.821 10.049-12.5 3.8066-4.0697 6.0146-7.4586 5.6384-8.6541-0.61887-1.967 17.178-22.41 19.509-22.41 0.62343 0-2.7155 3.7969-7.4199 8.4375s-9.2825 9.8438-10.174 11.562l-1.6203 3.125 2.6819-2.3812c6.502-5.773 0.47923 2.0641-18.325 23.845l-4.1317 4.7858 3.7921-5.8109zm199.59 0.18589c2.6303-5.1752 10.877-17.547 11.369-17.055 0.92403 0.92404-4.2502 9.8588-8.4291 14.555-2.1411 2.4062-3.4641 3.5312-2.94 2.5zm5.8648-1.4593c1.0741-3.0458 12.439-17.411 13.185-16.665 0.34886 0.34886-0.58667 1.934-2.079 3.5224-1.4923 1.5885-2.7367 3.4144-2.7653 4.0576-0.0286 0.64319-2.0823 3.4194-4.5638 6.1694s-4.181 4.0621-3.7768 2.9157zm-192.7-4.17c2.4914-2.75 4.8679-6.4062 5.2813-8.125 0.80046-3.3283 17.651-22.5 19.776-22.5 0.69387 0-3.3093 4.8855-8.896 10.857-5.5867 5.9712-9.9016 11.524-9.5888 12.339 0.31284 0.81523-2.0571 3.9454-5.2666 6.9558-5.8065 5.4465-5.8129 5.4488-1.3056 0.47359zm21.133 4.1771c-0.0217-0.45261 3.5038-5.2839 7.8346-10.736 4.3308-5.4524 9.0942-11.551 10.585-13.552 1.4912-2.0013 2.7291-3.0358 2.7508-2.2989s-3.6702 5.7994-8.2044 11.25-9.2976 11.316-10.585 13.035c-1.2878 1.7188-2.3592 2.7547-2.381 2.3021zm9.9604-1.0729c0-0.40633 1.9688-2.647 4.375-4.9792s4.375-4.9738 4.375-5.8702c0-0.89639 0.5625-1.6298 1.25-1.6298 2.1753 0 1.365 2.2806-2.3161 6.519-1.9614 2.2583-3.3315 4.7769-3.0447 5.5969 0.30596 0.87484-0.54476 1.4106-2.0589 1.2965-1.4192-0.10691-2.5803-0.52682-2.5803-0.93316zm17.5-1.8542c1.6147-1.7188 3.217-3.125 3.5608-3.125 0.34375 0-0.6961 1.4062-2.3108 3.125s-3.217 3.125-3.5608 3.125c-0.34375 0 0.6961-1.4062 2.3108-3.125zm-34.912-3.4914c-0.10087-2.5744 20.514-24.448 21.815-23.147 0.47272 0.47273-1.2875 2.7223-3.9117 4.9991-6.6962 5.8098-15.955 15.791-16.966 18.289-0.7672 1.8963-0.85817 1.8826-0.9375-0.14132zm175.29-3.6521c1.1669-1.8664 2.1217-4.0086 2.1217-4.7604 0-1.7173 10.254-14.807 11.674-14.901 0.57675-0.0384-0.40762 1.6609-2.1875 3.7762-1.7799 2.1152-3.2361 4.3604-3.2361 4.9892s-2.031 3.82-4.5134 7.0916c-5.3761 7.0853-6.7667 8.4566-3.8583 3.8048zm-22.878-3.8283c0-1.9031 2.9939-6.5386 7.1263-11.034 1.6461-1.7906 3.9504-4.9799 5.1208-7.0873 2.2673-4.0828 11.45-14.387 14.217-15.953 0.91339-0.51701-0.83546 1.6607-3.8863 4.8393-7.7951 8.1216-5.6125 8.514 3.1745 0.57065l7.3164-6.6139-6.8469 7.9669c-11.485 13.364-14.153 16.055-13.195 13.313 0.76984-2.2055 0.52545-2.1541-2.2776 0.47924-4.7841 4.4945-9.8369 12.308-8.9192 13.793 0.44985 0.72787 0.22221 1.3234-0.50587 1.3234-0.72807 0-1.3238-0.71859-1.3238-1.5969zm-167.71-7.79c1.3683-2.0625 4.5596-6 7.0919-8.75l4.6041-5-3.8004 5c-2.0902 2.75-5.2816 6.6875-7.0919 8.75l-3.2916 3.75 2.4878-3.75zm-7.2812-5c1.6147-1.7188 3.217-3.125 3.5608-3.125 0.34375 0-0.6961 1.4062-2.3108 3.125s-3.217 3.125-3.5608 3.125c-0.34375 0 0.6961-1.4062 2.3108-3.125zm175.02 0.9375c0.01-0.51563 2.022-3.1875 4.4705-5.9375 4.2822-4.8093 4.3291-4.8286 1.2314-0.50701-1.7713 2.4712-3.2205 5.143-3.2205 5.9375 0 0.79448-0.5625 1.4445-1.25 1.4445s-1.2416-0.42188-1.2314-0.9375zm-5.2841-2.2938c1.5634-2.7936 27.04-30.282 27.607-29.786 0.2564 0.22455-4.9987 6.1985-11.678 13.275-6.6793 7.0769-12.745 14.133-13.479 15.68-0.73431 1.5469-1.8353 2.8125-2.4466 2.8125-0.64749 0-0.64862-0.82707-0.002-1.9812zm0.85817-11.286c0.54509-1.2969 0.9573-3.2579 0.91603-4.3577-0.0832-2.2169 15.349-17.842 18.804-19.039 1.2031-0.41685 2.1875-0.63358 2.1875-0.48162 0 0.15197-4.1973 4.7694-9.3274 10.261s-9.4894 11.071-9.6875 12.399c-0.19805 1.3279-1.1528 2.6758-2.1218 2.9953-1.3037 0.42994-1.504-0.032-0.7706-1.7771zm7.7534-9.5456c2.6884-2.9863 4.6009-5.9375 3.8478-5.9375-0.24945 0-2.3618 1.9688-4.694 4.375s-3.6656 4.375-2.9631 4.375c0.70252 0 2.4167-1.2656 3.8092-2.8125zm12.401 3.75c4.0578-4.2969 7.9403-8.0314 8.6278-8.2989 0.6875-0.26753-2.125 3.1822-6.25 7.666s-8.0075 8.2184-8.6278 8.2989c-0.62027 0.0806 2.1922-3.3691 6.25-7.666zm-20.747-3.1261c0-0.82217 3.2344-4.7745 7.1875-8.783s4.8793-4.7266 2.0582-1.5958-6.0555 7.0832-7.1875 8.783-2.0582 2.4179-2.0582 1.5958zm-15-35.863c0-0.99068 0.51004-2.1164 1.1334-2.5017 0.62339-0.38527 0.83903 0.42528 0.47922 1.8012-0.76327 2.9187-1.6126 3.2877-1.6126 0.70049z"/>
</svg>
