<?xml version="1.0" encoding="UTF-8" standalone="no"?>
<!-- Created with Inkscape (http://www.inkscape.org/) -->
<svg id="svg3679" xmlns:rdf="http://www.w3.org/1999/02/22-rdf-syntax-ns#" xmlns="http://www.w3.org/2000/svg" height="523.99" viewBox="0 0 396.77737 523.99084" width="396.78" version="1.1" xmlns:cc="http://creativecommons.org/ns#" xmlns:dc="http://purl.org/dc/elements/1.1/">
 <metadata id="metadata3685">
  <rdf:RDF>
   <cc:Work rdf:about="">
    <dc:format>image/svg+xml</dc:format>
    <dc:type rdf:resource="http://purl.org/dc/dcmitype/StillImage"/>
    <dc:title/>
   </cc:Work>
  </rdf:RDF>
 </metadata>
 <path id="path3689" d="m357.07 520.07c-0.0542-2.8813 0.34625-5.5137 0.89007-5.8498 0.54383-0.3361 0.7843 1.4588 0.5344 3.9887-0.6833 6.9177-1.3137 7.7413-1.4245 1.8611zm-106.97-1.6363c-0.4249-0.6875-0.17685-1.25 0.55123-1.25 0.72807 0 1.3238 0.5625 1.3238 1.25s-0.24805 1.25-0.55123 1.25c-0.30317 0-0.89887-0.5625-1.3238-1.25zm-129.16-1.875c0.0203-1.375 0.4871-3.9062 1.0375-5.625l1.0008-3.125 0.0368 3.125c0.0202 1.7188-0.44668 4.25-1.0375 5.625-1.0743 2.5-1.0743 2.5-1.0375 0zm6.0375-3.4679c0-3.1678 0.60597-6.1341 1.3466-6.5918 0.93536-0.57809 1.0773 1.0218 0.46483 5.2387-1.1587 7.9777-1.8114 8.4652-1.8114 1.3531zm-55.828 2.6572c-5.7436-1.2894-7.7506-3.6149-11.644-13.491-2.1989-5.5787-2.3275-7.3812-1.1842-16.603 1.3801-11.133 6.9054-25.174 11.617-29.522 3.3356-3.0784 10.872-5.1814 18.601-5.1905 6.7322-0.008 10.938 3.0332 10.938 7.9097 0 1.6042 0.30176 3.2184 0.67059 3.5872 0.36881 0.36883 6.6969-1.5715 14.062-4.3118 7.3656-2.7403 21.548-7.5006 31.517-10.579 22.047-6.807 25-7.8887 25-9.1577 0-0.54493-3.5156-2.9348-7.8125-5.3108-19.431-10.745-22.426-12.317-22.723-11.931-1.1491 1.4931-3.3755 12.528-3.1323 15.524 0.5257 6.4776-0.0541 11.926-1.1942 11.222-1.3085-0.80869-0.51071-20.362 1.1255-27.585 0.62296-2.75 1.4365-10.999 1.8079-18.33 0.37136-7.3316 1.0178-14.223 1.4364-15.314 0.59191-1.5425-1.2844-1.1406-8.4356 1.8069-5.0582 2.0848-10.322 4.4312-11.697 5.214-1.375 0.78286-5.6997 3.0137-9.6104 4.9573-6.8838 3.4213-7.1345 3.7233-7.8665 9.4749-0.92278 7.2501-3.8968 13.49-7.9484 16.677-2.2444 1.7654-5.0493 2.3888-10.749 2.3888-6.3574 0-8.7129-0.63492-13.413-3.6155-6.52-4.1348-12.323-13.307-14.854-23.479-1.524-6.1251-1.4272-6.8902 1.8196-14.375 8.205-18.915 26.612-26.267 39.026-15.589l3.315 2.8514 12.64-4.6176c6.952-2.5397 15.653-5.371 19.336-6.292 5.0318-1.2582 6.9738-2.4042 7.8125-4.6102 1.3497-3.55 1.5016-24.023 0.17821-24.023-2.8383 0-18.519 3.882-27.152 6.7219-5.4809 1.803-10.583 3.2781-11.337 3.2781-0.75448 0-2.5377 1.341-3.9627 2.9799-5.722 6.5809-21.382 8.6559-28.781 3.8136-8.8961-5.822-11.312-25.273-4.794-38.596 4.1658-8.5145 7.3399-10.792 15.288-10.969 8.6839-0.1937 15.096 2.254 17.357 6.6256 1.037 2.0052 2.1843 3.6459 2.5497 3.6459 0.86867 0 7.558-1.5447 27.396-6.3265 20.188-4.8659 18.118-4.4796 29.911-5.5823 5.4508-0.50971 11.357-1.3204 13.125-1.8015 2.984-0.81211 2.6453-1.1585-4.7264-4.8322-5.2058-2.5944-9.7879-3.9574-13.304-3.9574-5.6615 0-6.8805 1.223-6.8805 6.9035 0 1.622-0.62517 3.3354-1.3893 3.8076-0.98944 0.6115-1.1423-0.93732-0.53105-5.3814 1.0385-7.5509 1.5864-7.2462-16.505-9.1791-22.692-2.4244-21.458-2.5223-28.387 2.2507-5.7333 3.9494-6.9365 4.2966-13.124 3.7874-5.9123-0.48664-7.3159-1.1438-10.625-4.9744-8.1771-9.466-8.7466-22.481-1.4493-33.119 4.6974-6.848 9.0616-9.4131 15.856-9.3193 7.0428 0.0973 9.7008 2.0549 11.274 8.3041 0.76175 3.0252 2.3122 5.8761 3.4455 6.3354 3.1626 1.2818 39.364 2.1306 41.027 0.96194 4.2168-2.964-5.2436-27.466-17.506-45.339-11.792-17.187-33.784-37.93-48.306-45.561l-8.6729-4.5575-1.8577 3.4778c-1.0218 1.9128-5.5803 7.4153-10.13 12.228-13.821 14.619-16.599 20.468-19.89 41.875-2.1446 13.951-6.3074 35.025-9.0122 45.625-1.0526 4.125-2.6643 10.875-3.5815 15-3.8434 17.285-8.8084 31.532-13.676 39.243-2.9364 4.6515-3.0553 5.7313-3.4034 30.913-0.61301 44.338-0.14183 66.693 1.7619 83.594 1.6858 14.966 1.7703 18.177 0.44089 16.771-0.275-0.27-1.4406-9.35-2.5944-20.16-1.5948-14.94-2.0382-29.48-1.8491-60.62 0.3043-50.12 0.5501-46.17-2.9299-47.04l-2.8616-0.72 0.32902-35.55c0.18096-19.553 0.89242-37.994 1.581-40.98 0.6886-2.9862 1.2658-10.796 1.2826-17.354 0.0283-11.042 2.4536-24.871 4.9112-28.004 0.57029-0.7269 2.2294-4.5576 3.6869-8.5126 4.9404-13.406 12.897-27.376 31.639-55.551 3.6678-5.5137 9.7624-14.914 13.544-20.89 3.7812-5.9756 11.938-17.767 18.125-26.203 6.1875-8.4362 16.594-24.004 23.125-34.595 8.5315-13.835 14.515-21.93 21.25-28.752 11.089-11.232 17.543-15.235 33.557-20.812 9.848-3.4299 15.043-4.3883 30.05-5.5443 13.225-1.0187 20.363-1.0256 26.331-0.02545 4.503 0.75468 11 1.7129 14.437 2.1293 9.4362 1.1431 28.153 7.6117 36.411 12.583 4.0366 2.4304 11.13 7.7875 15.763 11.905 4.9807 4.4261 9.0192 7.1178 9.8806 6.5854 0.8983-0.55519 1.1209-0.3568 0.58066 0.51739-0.48195 0.77981 1.3128 4.3824 3.9884 8.0056 5.623 7.6148 27.34 43.467 29.044 47.948 0.6321 1.6626 2.2252 5.4116 3.5402 8.3313 9.2468 20.53 30.567 82.423 35.199 102.18 1.3699 5.8438 4.4111 16.531 6.7582 23.75 7.7452 23.821 12.925 48.169 13.803 64.876 0.28999 5.5225 1.676 13.575 3.0801 17.895 1.4041 4.3199 3.3422 10.948 4.307 14.729 0.96474 3.7812 3.2386 12.187 5.053 18.679 7.0451 25.209 7.3984 77.803 0.77511 115.37-1.4066 7.9781-2.5574 16.204-2.5574 18.279 0 2.0756-0.62485 4.1599-1.3886 4.6319-0.97041 0.59976-1.1995-0.78953-0.76084-4.6137 1.0657-9.2899 3.3799-23.974 4.6056-29.222 0.64222-2.75 1.5046-10.906 1.9165-18.125 0.41185-7.2188 1.0217-14.25 1.3552-15.625 0.33351-1.375 0.0635-14.031-0.59992-28.125-1.1907-25.294-3.6042-40.448-8.3476-52.413-0.97272-2.4538-2.2903-6.9928-2.9279-10.087-2.9088-14.114-4.8719-18.717-10.297-24.142-8.4824-8.4824-16.701-27.468-19.676-45.457-0.66202-4.002-2.9529-15.433-5.0909-25.401-2.138-9.9688-4.7777-23.188-5.866-29.375-1.0884-6.1875-2.1776-11.471-2.4205-11.741-0.24293-0.26985-1.1584 0.0944-2.0344 0.80933-0.876 0.71499-5.5302 3.3251-10.343 5.8004-4.8125 2.4752-12.688 7.5656-17.5 11.312-4.8125 3.7463-14.375 10.87-21.25 15.83-27.319 19.71-35.359 27.912-38.359 39.127-1.3316 4.9787-1.2674 6.0212 0.47808 7.7666 2.4997 2.4997 4.7444 1.3211 3.8679-2.0309-0.36522-1.3966-0.0377-2.4988 0.74235-2.4988 0.76769 0 1.3958 1.4062 1.3958 3.125 0 2.6232 0.58886 3.125 3.667 3.125 3.0408 0 3.7559-0.58703 4.1877-3.4375l0.52073-3.4375 0.18729 3.249c0.18459 3.2022 0.3608 3.2604 12.251 4.0414 11.738 0.77107 12.142 0.70815 14.96-2.3326 2.5245-2.724 3.5832-3.0213 8.2488-2.3163 8.8503 1.3374 18.461 10.492 18.473 17.597 0.002 1.5063 0.56718 3.0864 1.2547 3.5113 0.7419 0.45852 1.25-0.9963 1.25-3.579 0-8.4303-13.496-20.796-22.697-20.796-1.8485 0-5.1153 1.4762-7.2596 3.2805-5.2813 4.444-6.4124 2.7516-1.3325-1.9938 7.0825-6.616 15.484-4.6035 27.143 6.5016 7.8341 7.462 8.3556 15.295 1.8948 28.462-2.831 5.7694-4.1777 7.1502-8.3736 8.5864-3.9034 1.3361-6.0966 1.4047-10 0.31283-6.0927-1.7043-8.9877-3.4533-7.7555-4.6855 0.50717-0.50717 1.5878-0.25651 2.4013 0.55704 2.3227 2.3227 5.0826 1.8887 3.7-0.58184-0.9417-1.6827-3.8782-2.1592-16-2.596-36.126-1.3017-35.471-1.4047-35.471 5.5789v4.7504l9.6875 3.648c5.3281 2.0064 13.021 5.1737 17.095 7.0386 7.0128 3.2099 7.6219 3.2886 11.423 1.4757 5.1062-2.435 10.394-1.4743 18.973 3.4469 8.0674 4.6277 10.611 9.7168 10.493 20.993-0.0865 8.2327-3.3377 16.929-7.8594 21.021-3.4179 3.0932-17.34 4.1472-23.313 1.765-9.8636-3.9335-10.853-5.1718-11.082-13.872-0.18687-7.09-0.53026-8.0522-3.4128-9.5625-4.016-2.1042-18.196-6.5876-20.903-6.6092-2.2604-0.018-3.5644 5.5046-3.5873 15.192-0.007 3.2083-0.6476 6.0446-1.4223 6.3028-0.7747 0.25824-1.6841 3.3371-2.0208 6.842l-0.61231 6.3724 7.862 5.2221c4.3241 2.8722 10.044 6.3352 12.711 7.6957l4.8486 2.4736 2.2996-2.8398c3.3848-4.18 18.556-4.8672 26.813-1.2146 5.2084 2.304 6.2059 3.4487 9.6422 11.066 3.3652 7.4598 3.7359 9.3714 3.0387 15.669-1.8019 16.277-6.256 21.416-19.78 22.818-7.9113 0.82043-19.97-1.1962-25.796-4.3138-2.7574-1.4757-3.1505-4.9919-1.2352-11.048 0.56068-1.7728-21.89-12.099-23.774-10.934-0.59162 0.36562-1.0541 5.355-1.0277 11.087 0.0264 5.7325-0.57647 11.502-1.3396 12.82-1.0652 1.8404-1.29-0.58549-0.96758-10.442 0.23098-7.0617 0.0492-13.069-0.40374-13.349-0.45305-0.28-5.8283 1.9821-11.945 5.027-6.1167 3.0448-11.86 5.5361-12.763 5.5361-0.90312 0-1.642 0.5625-1.642 1.25s0.61758 1.25 1.3724 1.25c0.7548 0 6.3738 3.0938 12.487 6.875 6.1128 3.7812 11.653 6.875 12.311 6.875 2.0512 0 13.049 6.2396 16.33 9.2646 1.7188 1.5849 4.9531 3.9262 7.1875 5.203s4.0625 2.7497 4.0625 3.2731c0 0.52342 1.3606 1.8432 3.0234 2.9327 2.7998 1.8345 3.3872 1.7955 7.9414-0.52791 4.3408-2.2145 5.9138-2.3679 13.404-1.3072 10.134 1.4351 17.622 4.5895 21.881 9.2176 2.8593 3.1068 3.125 4.3702 3.125 14.857 0 9.8073-0.45615 12.348-3.1601 17.602-3.0402 5.9072-3.5783 6.2951-14.183 10.223-14.622 5.4158-19.601 6.1869-24.291 3.7617-5.0893-2.6318-9.5271-11.877-8.4519-17.608 0.79039-4.2132 0.69586-4.325-6.4032-7.5721-3.963-1.8127-9.8195-4.2891-13.014-5.5031l-5.809-2.2073-0.58151 6.383c-0.31983 3.5106-0.20749 10.602 0.24966 15.758 0.79228 8.9363 0.68025 11.078-0.51689 9.8806-0.29481-0.29483-0.99793-8.0388-1.5625-17.209l-1.0265-16.673-11.25-6.2604c-6.1875-3.4432-14.062-7.8085-17.5-9.7006-3.4375-1.8921-11.537-6.6508-17.998-10.575-8.9923-5.4612-11.993-6.7481-12.793-5.4864-0.57487 0.90662-1.0538 2.0526-1.0644 2.5467-0.01 0.49403-0.90471 0.55843-1.9871 0.14308-2.0711-0.79473-3.0001-0.55788-24.907 6.3503-16.96 5.3482-34.889 11.761-45.625 16.319-4.4688 1.8973-10.808 4.4277-14.087 5.6231-3.2791 1.1954-6.326 2.5374-6.7708 2.9822-1.3174 1.3174-5.6085 0.92021-4.7671-0.44124 0.4249-0.6875 1.8514-1.25 3.17-1.25s3.3408-1.4398 4.4939-3.1996c1.2636-1.9285 2.4253-2.6674 2.9244-1.86 0.58723 0.95016 1.9774 0.93885 4.7822-0.0389 3.0352-1.0581 3.86-2.0058 3.5484-4.0775-0.33829-2.2494-1.3682-2.7622-6.1823-3.0782-3.177-0.20859-6.8657 0.20375-8.1972 0.91631-4.4932 2.4047-7.9001 11.829-8.5268 23.587-0.52699 9.8872-0.3116 11.273 2.3697 15.251 2.4897 3.6931 3.7826 4.4355 8.2954 4.763 6.0458 0.43877 16.447-3.8297 16.447-6.7495 0-0.96991 0.5625-1.7635 1.25-1.7635 1.9788 0 1.4553 3.3661-0.88793 5.7094-4.9808 4.9808-17.366 7.2322-23.05 4.19-6.0689-3.248-8.3078-21.534-4.3173-35.261 2.7932-9.6083 5.2846-12.251 12.293-13.041 7.6852-0.86624 12.072 0.35886 13.437 3.753 0.9749 2.4228 1.1267 2.2118 1.1959-1.6624 0.0436-2.4406-0.59576-5.1125-1.4208-5.9375-2.2705-2.2705-14.7-1.8359-19.717 0.68944-8.5117 4.2844-14.456 16.598-15.802 32.732-0.6985 8.3756-0.45011 10.249 2.0065 15.131 4.2418 8.4308 5.8486 9.7159 13.315 10.649 11.898 1.4866 22.624-4.8606 27.346-16.182l2.0256-4.8561-2.8997 0.77654c-1.5949 0.42708-3.4622 0.78465-4.1497 0.79457-0.6875 0.01-3.4616 1.9864-6.1646 4.3921-5.1188 4.5558-8.2104 5.5688-8.2104 2.6903 0-5.101 5.0237-7.1344 43.75-17.709 5.8438-1.5957 19.465-6.3226 30.269-10.504 10.804-4.1817 20.103-7.6031 20.663-7.6031 0.56022 0 5.6867-1.9688 11.392-4.375 11.756-4.958 12.676-5.134 12.676-2.4262 0 1.0718-0.50089 1.6392-1.1131 1.2608-0.6122-0.37836-4.9716 0.92372-9.6875 2.8935-14.829 6.1939-22.299 8.8969-24.586 8.8969-1.2172 0-4.3001 1.0377-6.8508 2.306s-8.4963 3.6441-13.212 5.2796c-5.7984 2.0108-8.8695 3.7937-9.485 5.5065-0.50066 1.3931-1.0384 7.6924-1.195 13.999-0.3419 13.771-2.3873 23.038-2.4355 11.034-0.0166-4.125 0.38082-11.601 0.88312-16.614 0.50231-5.0125 0.69662-9.3303 0.43181-9.5951-0.26481-0.26481-3.6637 0.59088-7.5531 1.9015s-10.184 3.2181-13.988 4.2387c-6.6918 1.7954-6.9657 2.0395-8.4293 7.5119-2.2545 8.4292-8.4831 14.604-17.394 17.244-8.1349 2.41-8.7084 2.4365-16.213 0.75179zm221.33-13.136c11.023-4.2169 11.891-4.875 14.587-11.053 3.0564-7.0044 3.9666-15.808 2.3131-22.374-1.6477-6.5434-6.8013-10.612-17.447-13.773-7.8772-2.3393-7.4545-2.298-7.4545-0.72729 0 0.6875 0.92276 1.25 2.0506 1.25 3.0178 0 12.52 5.0072 15.479 8.1562 4.9968 5.3188 4.0988 21.622-1.6414 29.801-3.0881 4.4-13.69 9.5142-19.758 9.5306-5.3265 0.0145-11.895-2.9962-13.636-6.2506-0.68372-1.2776-1.2432-4.0141-1.2432-6.0813 0-2.0671-0.5625-4.106-1.25-4.531-0.75111-0.46421-1.25 1.1588-1.25 4.0664 0 5.1694 3.9116 14.619 6.5373 15.793 3.0709 1.373 13.933-0.44738 22.713-3.8064zm-203.82-4.49c-0.73655-1.1918-4.1829 1.259-4.1829 2.9745 0 0.60914 1.0886 0.42769 2.4192-0.40325 1.3305-0.83092 2.1242-1.988 1.7637-2.5713zm200.12 1.0404c6.2341-2.6128 11.786-8.0813 13.124-12.927 1.5469-5.6025 0.47935-6.9517-2.2537-2.8482-3.3028 4.959-11.426 14.052-11.426 12.79 0-0.6366 1.0572-2.5014 2.3492-4.144 1.2921-1.6426 2.5577-4.0691 2.8125-5.3922 0.25481-1.3231 0.93774-2.2502 1.5176-2.0601 1.5749 0.51615 8.3207-6.3353 8.3207-8.4509 0-1.4539-0.58391-1.3424-2.8125 0.53742-2.643 2.2293-2.6338 2.1698 0.15287-0.98706 3.9166-4.4369 2.8673-8.458-3.2564-12.48-6.6539-4.3699-12.618-6.1718-17.436-5.268-4.9706 0.93248-5.088 1.6322-0.7991 4.7602 3.0237 2.2052 3.3848 2.2288 4.786 0.3125 2.114-2.8911 2.8803-2.5894 2.6702 1.0514-0.0991 1.7183-0.74276 3.1122-1.4303 3.0976-3.1608-0.0671-13.247-5.734-23.03-12.94-15.564-11.463-20.04-14.284-39.47-24.874-20.052-10.929-42.206-21.582-47.578-22.879-2.0198-0.48761-6.4722-2.2867-9.8942-3.9979s-9.047-4.1043-12.5-5.3178c-3.453-1.2136-7.1756-2.5723-8.2726-3.0195-1.644-0.67016-2.248 0.72239-3.4375 7.9249-0.79368 4.8059-1.443 10.739-1.443 13.185 0 3.7168 0.44116 4.4467 2.6874 4.4467 1.4781 0 6.6812 2.3301 11.562 5.178 4.8813 2.8479 10 5.822 11.375 6.6091 5.3669 3.0723 16.518 9.8038 21.875 13.205 3.0938 1.9642 8.7188 5.2481 12.5 7.2976s10.25 5.7832 14.375 8.2972c6.3998 3.9004 19.232 10.364 41.25 20.779 2.75 1.3008 6.844 2.5606 9.0978 2.7997 2.27 0.24079 5.6444 1.9165 7.5654 3.7568 2.6933 2.5804 3.8019 2.9879 4.9647 1.8251s1.4971-1.1622 1.4971 0.002c0 0.825 1.5469 1.5444 3.4375 1.5987s2.7 0.39386 1.7986 0.75464c-1.2616 0.50492-1.1177 1.2436 0.625 3.2082 2.2296 2.5136 2.2181 2.5282-0.76213 0.9621-2.6212-1.3774-3.2693-1.2763-4.8437 0.75561-1.733 2.2366-1.7868 2.2148-1.1535-0.46674 0.73952-3.1314-0.29406-3.6143-2.6758-1.25-1.2618 1.2525-1.4161 1.1475-0.77805-0.52914 0.69856-1.8352-2.3462-4.783-4.9407-4.783-1.6704 0-0.51448 6.0369 1.506 7.8654 5.1871 4.6943 9.9859 5.1165 18.343 1.6141zm-0.3012-13.173c0.83917-1.3437 1.7009-2.268 1.915-2.0539 0.74096 0.74096-1.1917 4.4971-2.3139 4.4971-0.61978 0-0.44027-1.0994 0.39891-2.4432zm4.2934-6.9318c0.39574-1.0312 1.2907-1.875 1.9888-1.875 0.73164 0 0.61015 0.79426-0.28679 1.875-0.85586 1.0312-1.7508 1.875-1.9888 1.875-0.23799 0-0.10888-0.84375 0.28678-1.875zm1.4677-5.2289c0.90233-0.36108 1.9805-0.31668 2.3958 0.0986 0.41537 0.41536-0.32292 0.7108-1.6406 0.65652-1.4562-0.06-1.7524-0.35617-0.75521-0.7552zm1.4844-4.1461c0.73588-1.375 1.6192-2.5 1.963-2.5 0.34375 0 0.0229 1.125-0.71296 2.5-0.73588 1.375-1.6192 2.5-1.963 2.5-0.34375 0-0.0229-1.125 0.71296-2.5zm-6.25-2.5c0.73588-1.375 1.8854-2.5 2.5546-2.5 0.67393 0 0.52019 1.1152-0.34466 2.5-0.8587 1.375-2.0083 2.5-2.5546 2.5-0.54632 0-0.39122-1.125 0.34466-2.5zm-45.312-9.465c-4.8465-2.6293-4.2976-3.5367 0.625-1.0332 4.7119 2.3963 5.5458 3.0174 3.9583 2.9481-0.63022-0.0275-2.6927-0.88924-4.5833-1.9149zm-25.3-6.77c-0.43793-0.70857 0.0639-0.91812 1.1762-0.49126 2.1655 0.83099 2.5617 1.727 0.7637 1.727-0.64692 0-1.5199-0.55606-1.9399-1.2357zm-5-2.5c-0.43793-0.70857 0.0639-0.91812 1.1762-0.49126 2.1655 0.83099 2.5617 1.727 0.7637 1.727-0.64692 0-1.5199-0.55606-1.9399-1.2357zm-6.8838-3.7643c-1.1266-0.72808-1.2808-1.2194-0.38628-1.2309 0.8188-0.01 1.8364 0.54336 2.2613 1.2309 0.95913 1.5519 0.5264 1.5519-1.875 0zm74.375 10c0.43815-0.70895-0.61203-1.25-2.4262-1.25-1.7593 0-3.1988 0.5625-3.1988 1.25s1.0918 1.25 2.4262 1.25 2.7739-0.5625 3.1988-1.25zm15.442-25.698c3.0884-1.2357 5.6738-3.4447 7.0733-6.0434 3.2669-6.0662 1.6772-8.4063-1.8421-2.7118-3.7263 6.0293-9.0024 8.2146-19.696 8.158-6.9926-0.0371-9.1033-0.55675-12.05-2.9667-2.6949-2.2044-3.3648-3.5744-2.7283-5.58 1.0627-3.3481-1.2686-3.5331-3.0308-0.24049-2.4325 4.5451-1.5498 7.3079 2.7685 8.6656 9.7232 3.057 22.861 3.3772 29.504 0.719zm-209.62-4.34c6.0153-1.6707 11.801-8.3677 12.912-14.946 0.48183-2.8519 0.60711-5.4543 0.27841-5.783s-3.4606 1.0904-6.9597 3.1536c-3.8888 2.2929-6.6695 3.2538-7.1529 2.4717-0.43495-0.70377-1.6572-0.9471-2.7162-0.54074-1.5316 0.58771-1.6278 0.38029-0.47053-1.0141 0.80016-0.96414 3.0932-2.0806 5.0956-2.4811 2.0024-0.40049 9.1617-3.3492 15.909-6.5528 16.808-7.9795 30.405-13.772 42.269-18.009 13.742-4.9066 51.982-14.533 61.875-15.577 14.817-1.5627 28.084-4.4359 31.25-6.7681 2.8252-2.081 3.1599-3.2806 3.4884-12.504 0.30722-8.6259 0.0379-10.327-1.7433-11.011-1.2988-0.4984-2.7244 0.0365-3.7177 1.3949-0.88608 1.2118-2.0752 1.9164-2.6426 1.5658-1.3671-0.84491-9.5215 0.91454-33.51 7.2303-14.231 3.7469-15.019 3.9299-24.317 5.6529-3.7494 0.69476-7.3775 1.8236-8.0625 2.5086-0.68495 0.68495-2.7589 1.2454-4.6089 1.2454-1.8499 0-5.8155 1.1126-8.8125 2.4726-2.997 1.3599-6.927 2.4849-8.7334 2.5s-3.9242 0.79825-4.706 1.7404c-0.78188 0.94209-3.5226 2.0536-6.0906 2.47-10.511 1.7045-16.761 3.3634-21.75 5.774-2.8951 1.3987-5.8612 2.5463-6.5915 2.5501-0.73023 0.004-6.8266 2.7192-13.547 6.0342-6.7208 3.315-12.028 5.4212-11.794 4.6806 0.23406-0.74066 1.6548-1.9019 3.1572-2.5806 1.5024-0.67865 2.7316-1.663 2.7316-2.1875 0-0.52448 0.89062-0.95359 1.9792-0.95359 3.3303 0 1.1929-3.0132-2.6976-3.803-5.5216-1.1209-11.702 0.93208-12.988 4.3141-0.60935 1.6027-3.6809 6.0729-6.8256 9.9338-4.1494 5.0944-5.7177 8.1222-5.7177 11.039 0 5.7226 7.039 16.861 11.677 18.478 5.3428 1.8625 9.5376 1.5838 10.411-0.69151 0.61432-1.6009 0.97286-1.6607 1.8734-0.3125 0.85173 1.2751 2.0917 0.56462 5.271-3.0202 4.7013-5.3009 5.8246-5.8014 4.8757-2.1727-0.9646 3.6886-7.2747 8.5124-12.391 9.4722-7.211 1.3528-13.626-1.2977-17.764-7.34-1.986-2.8996-4.0535-6.6782-4.5945-8.397-3.0199-9.595 2.0992-23.871 10.57-29.476 7.8357-5.1854 21.321-5.7388 21.321-0.87495 0 1.6949 0.3021 1.794 1.5625 0.51246 2.0931-2.1282-2.5801-6.0199-8.5806-7.1456-9.7085-1.8213-20.402 5.795-26.707 19.022-3.376 7.0822-3.4209 7.4537-1.6412 13.559 3.651 12.525 10.514 20.919 19.741 24.145 4.8676 1.7015 4.3009 1.6884 9.5847 0.22085zm-7.7871-11.068c1.7088-3.1929 2.4652-3.387 2.0451-0.52489-0.17112 1.1659-1.0197 2.3559-1.8858 2.6446-1.2255 0.4085-1.2608-0.0615-0.1593-2.1197zm-7.8746-2.0196c0.39574-1.0312 0.94058-1.875 1.2108-1.875 0.27018 0 0.49126 0.84375 0.49126 1.875s-0.54485 1.875-1.2108 1.875c-0.66592 0-0.88699-0.84375-0.49127-1.875zm2.6832-5.014c0.70798-1.3827 2.605-3.6287 4.2155-4.991 2.8251-2.3898 2.8188-2.3453-0.178 1.264-4.978 5.9953-5.3969 6.382-4.0375 3.7271zm-7.7632-9.7777c0.35175-0.91668 1.4502-1.6667 2.4409-1.6667 1.3594 0 1.462 0.40892 0.41815 1.6667-0.76076 0.91666-1.8592 1.6667-2.4409 1.6667-0.58173 0-0.76991-0.75-0.41815-1.6667zm9.1068-4.2012c1.5936-3.0384 3.9252-4.9093 3.9252-3.1496 0 0.62151-1.2068 2.2016-2.6819 3.5113-2.6633 2.3647-2.6719 2.3622-1.2433-0.36165zm-1.5907-8.9035c2.523-4.3755 6.444-8.4812 7.2739-7.6168 0.271 0.28225-1.7927 3.0444-4.586 6.1382-4.4544 4.9334-4.7848 5.1152-2.6879 1.4786zm58.016-5.8812c0-1.193 11.707-8.0979 13.682-8.07 1.0685 0.0151-0.30723 1.051-3.0572 2.3019-2.75 1.251-5.772 3.2074-6.7156 4.3476-1.6373 1.9785-3.9094 2.8042-3.9094 1.4206zm17.266-8.9514c0.90234-0.36108 1.9805-0.31668 2.3958 0.0986 0.41537 0.41536-0.32292 0.7108-1.6406 0.65652-1.4562-0.06-1.7524-0.35617-0.75522-0.7552zm40.922-7.8077c0.65313-0.63885 2.875-1.5314 4.9375-1.9835l3.75-0.82192-3.5804 1.9835c-3.9747 2.2019-7.0188 2.6918-5.1071 0.82191zm32.002-7.0197c1.1356-1.1599 2.7463-1.8818 3.5793-1.6041 0.833 0.27767-0.0961 1.2267-2.0647 2.109-3.3506 1.5016-3.4474 1.4694-1.5145-0.50485zm76.254 66.879c5.3087-5.5806 6.4275-11.594 4.1204-22.146-1.0042-4.5934-10.022-10.301-16.274-10.301-8.988 0-12.089 2.6503-6.8963 5.8933 1.9157 1.1964 2.6947 1.1316 3.9031-0.32432 0.8303-1.0005 2.1439-1.7746 2.9191-1.7203 0.88561 0.062 0.82873 0.33301-0.15305 0.72916-0.85937 0.34676-1.5625 1.7086-1.5625 3.0263s-0.35631 2.3958-0.7918 2.3958c-2.9915 0-27.659-13.972-45.743-25.909-9.2107-6.0801-12.81-7.8204-14.84-7.176-1.4742 0.4679-4.7211 0.97855-7.2152 1.1348-4.9213 0.30826-20.688 2.8828-24.222 3.9553-1.2031 0.36506-2.1875 1.0522-2.1875 1.527 0 1.4988 34.798 24.009 42.657 27.594 15.428 7.0378 37.302 16.154 41.742 17.396 2.7632 0.77317 6.1382 2.2479 7.5 3.2773 2.4314 1.8378 2.4242 1.8722-0.39857 1.9113-1.581 0.0219-4.4628-0.78156-6.404-1.7854-3.5227-1.8217-5.0964-1.4783-5.0964 1.1121 0 2.5414 5.5725 4.1553 14.881 4.3096l9.256 0.15348 4.8065-5.0526zm-12.694-1.7011c0-0.96457 1.9088-3.3552 4.2419-5.3125 4.1173-3.4542 7.1489-10.434 4.5319-10.434-0.7006 0-1.2738-0.78144-1.2738-1.7365 0-2.0905 4.8989-8.2448 4.9584-6.229 0.0229 0.77519-0.79597 2.1046-1.8196 2.9541-2.2124 1.8362-1.1614 4.2294 1.422 3.2381 1.505-0.57753 1.4838-0.23108-0.12644 2.0679-1.0639 1.5189-1.9344 3.7615-1.9344 4.9836 0 1.222-2.25 4.4719-5 7.2219s-5 4.2108-5 3.2462zm11.54-6.9962c0.8587-1.375 2.0756-2.5 2.7043-2.5 0.62869 0 0.125 1.125-1.1194 2.5s-2.4613 2.5-2.7043 2.5c-0.24303 0 0.26071-1.125 1.1194-2.5zm-41.54-11.979c-2.1017-1.1662-2.4588-1.74-1.0906-1.7524 1.1189-0.01 2.7347 0.82532 3.5906 1.8566 1.8254 2.1994 1.6373 2.1916-2.5-0.10413zm33.75-1.4582c0-2.5393 3.6451-8.1382 3.7102-5.699 0.0219 0.81879-0.5611 1.8601-1.2955 2.3139-0.73438 0.45388-1.0402 1.594-0.6796 2.5338 0.3606 0.93969 0.11775 2.041-0.53978 2.4473-0.65747 0.40635-1.1954-0.31189-1.1954-1.596zm-51.689-12.847c-4.0225-2.7312-6.7788-4.9658-6.125-4.9658 1.0814 0 10.516 6.2844 13.376 8.9099 2.531 2.3234-0.24192 0.81506-7.2511-3.9441zm-27.686 28.285c2.75-1.2334 8.5549-3.8756 12.9-5.8716 4.3448-1.996 8.423-3.6291 9.0625-3.6291 0.63954 0 1.1628-0.5625 1.1628-1.25s-0.43806-1.25-0.97348-1.25c-2.2857 0-45.172-26.744-46.728-29.14-0.53981-0.83136-3.355-0.50516-8.125 0.94144-4.0144 1.2175-8.9865 2.4824-11.049 2.811-2.0625 0.32854-5.5225 1.3938-7.6889 2.3673-2.1664 0.97348-4.8662 1.77-5.9996 1.77-3.1832 0-9.4365 3.6204-9.4365 5.4634 0 2.8376 4.566 5.9604 15.28 10.45 13.674 5.7302 22.072 9.0337 26.327 10.356 1.915 0.59501 5.3564 2.2404 7.6476 3.6564 2.2911 1.416 5.0148 2.5745 6.0526 2.5745s2.6027 0.86249 3.4776 1.9166c0.87486 1.0542 1.9281 1.7276 2.3406 1.4966 0.41244-0.23102 2.9999-1.4292 5.7499-2.6625zm96.875-3.2507c0-1.375-0.21565-2.5-0.47921-2.5-0.26357 0-0.7734 1.125-1.133 2.5-0.35957 1.375-0.14392 2.5 0.47921 2.5 0.62314 0 1.133-1.125 1.133-2.5zm-5-19.915c0-1.501-6.0142-5.7396-9.8243-6.9238-4.2967-1.3354-16.008-0.97306-18.92 0.5854-3.1876 1.706-3.4769 5.6716-0.31857 4.3674 9.2984-3.8397 20.931-3.5148 24.737 0.69085 2.361 2.6089 4.3252 3.1902 4.3252 1.2801zm-230.02-11.67c-0.0201-0.84852-1.7077 0.29423-3.75 2.5394-2.0424 2.2452-3.6969 4.7765-3.6767 5.625 0.0201 0.84853 1.7077-0.29422 3.75-2.5394 2.0424-2.2452 3.6969-4.7765 3.6767-5.625zm167.54-13.167c0-3.2836-0.278-3.4665-4.5159-2.9718l-4.5159 0.52721 3.5784 2.9268c4.6562 3.8084 5.4534 3.7379 5.4534-0.48225zm63.715-0.6016c1.6997-0.86006 4.7729-4.069 6.8293-7.1308 3.2012-4.7664 3.7392-6.7411 3.7405-13.73 0.001-5.3348-0.74347-9.554-2.1488-12.177-2.5425-4.7458-11.259-10.188-17.979-11.226-6.2119-0.95955-4.5968 0.68183 3.4642 3.5206 8.1322 2.8638 9.7003 4.2216 12.548 10.865 3.8787 9.0486 0.68892 19.247-8.0431 25.717-3.5512 2.6311-9.7382 3.1968-16.474 1.5063-3.5859-0.89999-6.9026-6.944-6.9026-12.578 0-1.7408-0.5625-3.1652-1.25-3.1652-1.7979 0-1.5432 10.399 0.3125 12.761 4.6905 5.9704 19.064 9.099 25.903 5.6384zm-3.1628-5.8401c2.0227-1.3333 4.9729-4.564 6.5561-7.1793 2.9671-4.9014 3.9771-11.199 1.5561-9.7024-0.73438 0.45388-1.0581 1.5475-0.71932 2.4303 0.70954 1.849-5.8175 8.6034-7.087 7.3339-0.46375-0.46373-1.9593 0.16688-3.3234 1.4014-2.7644 2.5018-8.7851 3.6415-8.7851 1.663 0-0.70053 0.81023-0.96276 1.8005-0.58275 0.99027 0.38 3.8278-0.68481 6.3055-2.3663 2.4778-1.6814 4.9924-3.0572 5.588-3.0572 0.59564 0 2.3181-2.5514 3.8276-5.6697 2.3634-4.8821 2.5342-6.1778 1.2296-9.3274-1.9954-4.8172-15.001-11.392-15.001-7.5839 0 0.643 1.9388 1.8702 4.3084 2.727 2.3696 0.85687 4.0606 1.959 3.7576 2.4492-0.30298 0.49021-3.2262-0.45179-6.496-2.0933-14.41-7.2344-28.121-13.198-40.069-17.429l-12.874-4.5584-7.7509 1.8843c-30.292 7.3643-29.852 7.1132-20.202 11.529 4.0979 1.8751 8.4395 3.9034 9.648 4.5072 5.217 2.6067 22.395 8.3795 27.375 9.1997 10.069 1.6582 24.884 7.0168 40.428 14.622 4.5226 2.213 4.6419 2.3844 1.25 1.7952-2.0625-0.35825-5.2969-1.0323-7.1875-1.4978-2.9585-0.72852-3.4375-0.46633-3.4375 1.8814 0 8.8037 10.951 13.128 19.303 7.6228zm-1.1776-20.081c3.2155-3.9916 4.6242-4.972 5.9592-4.1469 0.59324 0.36664 0.10788 1.7392-1.0785 3.0502s-2.4369 2.1038-2.7789 1.7618-1.5173 0.0668-2.6118 0.90829c-1.1836 0.91006-0.97691 0.27248 0.50999-1.5733zm-29.609-8.3324c0.90234-0.36108 1.9805-0.31668 2.3958 0.0986 0.41536 0.41536-0.32292 0.7108-1.6406 0.65652-1.4562-0.06-1.7524-0.35617-0.75522-0.7552zm-5-1.25c0.90234-0.36108 1.9805-0.31668 2.3958 0.0986 0.41536 0.41536-0.32292 0.7108-1.6406 0.65652-1.4562-0.06-1.7524-0.35617-0.75522-0.7552zm-17.563-11.531c-6.6042-2.4175-9.5781-4.6349-4.6296-3.4518 4.2313 1.0116 12.427 4.4601 12.427 5.2289 0 0.9026-1.2642 0.61449-7.7975-1.7771zm-80.665 28.26c-5.283-5.5501-19.164-14.844-21.075-14.111-1.0582 0.40608-1.7492 2.7026-1.8079 6.009-0.0523 2.9434-0.32684 8.8156-0.61013 13.049l-0.51504 7.6974 13.711-4.5296 13.711-4.5296-3.413-3.5856zm-88.413 2.048c-9.4164-4.9642-12.315-12.289-9.449-23.877 3.7262-15.064 8.9169-20.151 18.93-18.549 6.2284 0.99596 5.5413-0.72063-1.1757-2.9374-10.473-3.4565-17.897 1.172-22.08 13.766-5.5501 16.71 1.6258 33.426 14.4 33.545 3.0626 0.0286 3.0502-0.01-0.625-1.9478zm15.625-3.0452c0-0.62024-2.0812-1.1277-4.625-1.1277-7.5563 0-3.0632-2.1388 6.3128-3.005 4.7096-0.43511 9.4908-1.2784 10.625-1.8739 3.9305-2.0638 20.875-6.1541 33.937-8.1924 7.2188-1.1264 18.75-3.7134 25.625-5.7488 22.551-6.6765 24.733-7.2707 52.443-14.287 15.094-3.8217 27.882-7.6392 28.418-8.4832 1.6142-2.541 1.1389-5.5939-0.99877-6.4142-2.0725-0.7953-29.246-2.5601-39.238-2.5483-3.0938 0.004-14.344 1.5191-25 3.3676s-25.297 4.2131-32.535 5.2546c-7.2382 1.0415-15.676 2.7346-18.75 3.7624-3.0743 1.0279-10.09 2.69-15.59 3.6937s-15.203 3.2058-21.562 4.8935c-6.3594 1.6878-11.562 2.7776-11.562 2.4218 0-0.35575-0.98438 0.10813-2.1875 1.0309s-0.88288 0.21074 0.71166-1.5822c1.7291-1.9443 3.7823-3.029 5.0873-2.6878 2.506 0.65532 5.7548-2.5931 4.5474-4.5468-0.44352-0.71761-3.0161-1.3048-5.7169-1.3048-4.3199 0-5.2632 0.56381-7.8421 4.6875-1.6124 2.5781-3.5882 6.5996-4.3907 8.9365-1.7957 5.2292-1.9261 11.812-0.21292 10.753 0.82209-0.50809 0.83809 0.30325 0.047 2.384-0.89433 2.3523-0.73448 3.6189 0.62878 4.9822 1.0054 1.0054 1.828 2.4307 1.828 3.1673 0 0.73662 0.23525 1.3393 0.52276 1.3393 0.28752 0 1.3455 0.3157 2.351 0.70158 1.2398 0.47575 2.3193-0.63069 3.3538-3.4375 0.84497-2.2926 1.8006-3.4233 2.1422-2.5346 0.33917 0.88248-0.062 2.4222-0.89135 3.4216-2.062 2.4846-0.73368 5.3092 2.7577 5.8641 3.4711 0.55167 9.764-1.3093 9.764-2.8875zm-17.672-11.99c1.5085-2.9009 3.7192-4.7425 4.6162-3.8456 0.2953 0.2953-0.94347 1.8985-2.7528 3.5627-3.1364 2.8848-3.2232 2.8979-1.8633 0.28287zm28.679-2.486c0.90234-0.36108 1.9805-0.31668 2.3958 0.0986 0.41537 0.41536-0.32292 0.7108-1.6406 0.65652-1.4562-0.06-1.7524-0.35617-0.75522-0.7552zm-31.179-2.514c1.5085-2.9009 3.7192-4.7425 4.6162-3.8456 0.2953 0.2953-0.94347 1.8985-2.7528 3.5627-3.1364 2.8848-3.2232 2.8979-1.8633 0.28287zm88.113-10.099c0.41969-0.67908 2.2203-1.5132 4.0013-1.8537 3.8192-0.73009 2.4897 0.89088-1.7953 2.189-1.8484 0.55995-2.681 0.43341-2.206-0.33525zm29.55-12.336c0-0.84498 11.361-5.753 11.951-5.1629 0.27125 0.27124-2.3068 1.6761-5.7289 3.1219s-6.222 2.3642-6.222 2.041zm-2.9612 39.953 14.224-3.35-2.616-2.7846c-1.4388-1.5315-7.7699-5.336-14.069-8.4544-11.085-5.4875-11.663-5.6303-17.985-4.4394-3.5927 0.67676-8.5622 2.0787-11.043 3.1154l-4.5112 1.8849 7.9183 6.0447c4.3551 3.3246 8.7456 7.2346 9.7568 8.689s2.3475 2.6443 2.9697 2.6443c0.62221 0 7.5322-1.5075 15.356-3.35zm34.295-9.0056c3.735-0.75773 8.0421-1.5544 9.5712-1.7705 5.2981-0.74854 4.0332-1.7268-8.2453-6.3768-6.7855-2.5697-14.442-6.1025-17.015-7.8506-4.5263-3.0757-4.9207-3.1267-12.215-1.5787-4.1457 0.87977-9.4818 2.268-11.858 3.0848l-4.3203 1.4853 9.1865 5.0636c5.0526 2.785 11.436 6.7198 14.186 8.7439 4.6691 3.4367 5.2951 3.5776 9.4591 2.1284 2.4525-0.8535 7.515-2.1718 11.25-2.9295zm-215.04-16.41c4.4957-2.406 8.598-11.906 13.735-31.809 2.8308-10.967 5.3605-20.286 5.6214-20.708 0.26096-0.42226 1.0356-4.1016 1.7215-8.1764 0.68586-4.0748 2.9642-15.729 5.0629-25.898 2.0988-10.169 3.8159-19.89 3.8159-21.603 0-1.7124 1.7612-7.6803 3.9137-13.262 3.1627-8.2012 5.5417-11.904 12.398-19.299 10.081-10.873 19.491-25.007 28.608-42.972 10.701-21.088 12.264-23.359 18.447-26.815 8.3327-4.6572 12.4-4.1602 25.718 3.1436 6.3474 3.4808 12.385 6.8519 13.416 7.4914 22.503 13.953 49.717 19.173 71.25 13.667 2.4062-0.61532 5.7812-1.3871 7.5-1.715 5.7401-1.0952 20.912-6.743 31.721-11.808 18.6-8.7163 28.32-10.269 43.688-6.9793 9.9043 2.1203 30.842 15.355 30.842 19.496 0 0.70817 0.75414 0.9982 1.6758 0.6445 0.92172-0.3537 2.4686-0.14124 3.4375 0.47212 1.4228 0.90069 1.3409 1.1189-0.42585 1.1344-2.6529 0.0232-2.7551 1.1525-0.40779 4.5038 3.5487 5.0665 13.261 39.773 15.107 53.986 0.47123 3.6275 1.6691 9.5337 2.6618 13.125 3.175 11.485 3.3394 12.233 5.5613 25.28 4.35 25.543 6.6339 34.628 11.607 46.17 3.0202 7.01 8.9633 15.705 10.735 15.705 3.4682 0 1.847-22.675-2.6639-37.26-0.70332-2.274-2.2925-8.7428-3.5316-14.375-1.239-5.6322-3.4607-13.615-4.937-17.74s-4.583-14.812-6.9038-23.75c-3.9372-15.162-9.7054-33.257-21.716-68.125-6.122-17.772-16.03-40.668-21.908-50.625-2.4351-4.125-5.8598-10.155-7.6105-13.399-3.5265-6.5359-16.737-26.268-20.529-30.663-1.3345-1.5469-2.9685-2.8125-3.6311-2.8125-0.66258 0-3.6662-1.3681-6.6746-3.0403-10.225-5.6834-19.186-8.0893-42.024-11.283-29.901-4.1814-48.256-4.9051-59.696-2.3537-10.32 2.3016-22.222 8.2355-32.121 16.014-7.4649 5.8656-26.532 26.772-28.822 31.6-1.6355 3.4499-3.4347 3.7179-2.5622 0.38154 0.8489-3.2462 15.191-20.595 22.59-27.325 14.937-13.588 21.906-17.334 45.095-24.245 11.315-3.3722 73.356 4.0105 90.272 10.742l8.0479 3.2026-5-4.3892c-19.33-16.932-52.77-25.038-90.65-21.95-24.201 1.9731-43.128 9.6515-56.705 23.006-6.1095 6.0088-22.045 27.803-22.045 30.15 0 1.0323-13.872 21.312-21.893 32.005-9.6952 12.925-21.848 31.308-52.473 79.375-5.7109 8.9633-17.086 34.02-19.95 43.945-2.052 7.1115-6.3889 106.44-4.7805 109.49 0.68076 1.2911 2.5701 1.1735 5.3897-0.33549zm7.5557-45.706c0.06-1.4562 0.35618-1.7524 0.75521-0.75522 0.36109 0.90234 0.31668 1.9805-0.0987 2.3958-0.41536 0.41536-0.7108-0.32292-0.65652-1.6406zm-6.9738-24.27c0.4249-0.6875 1.0206-1.25 1.3238-1.25 0.30318 0 0.55123 0.5625 0.55123 1.25s-0.5957 1.25-1.3238 1.25c-0.72807 0-0.97613-0.5625-0.55123-1.25zm16.25-13.75c0.4249-0.6875 1.0206-1.25 1.3238-1.25 0.30318 0 0.55123 0.5625 0.55123 1.25s-0.5957 1.25-1.3238 1.25c-0.72807 0-0.97613-0.5625-0.55123-1.25zm-6.875-23.199c0-1.0718 0.5625-1.6011 1.25-1.1762s1.25 1.3018 1.25 1.9488c0 0.64693-0.5625 1.1762-1.25 1.1762s-1.25-0.87695-1.25-1.9488zm37.5-70.551c0-0.6875 0.5957-1.25 1.3238-1.25 0.72808 0 0.97613 0.5625 0.55123 1.25s-1.0206 1.25-1.3238 1.25c-0.30317 0-0.55122-0.5625-0.55122-1.25zm20.574-18.833c-0.45316-0.73324-0.52379-1.6333-0.15694-2.0002 0.8954-0.89539 3.3333 0.68229 3.3333 2.1571 0 1.5975-2.158 1.4908-3.1764-0.15693zm128.8-9.9168c-0.4249-0.6875 0.0713-1.25 1.1025-1.25s2.2226 0.5625 2.6475 1.25-0.0713 1.25-1.1025 1.25-2.2226-0.5625-2.6475-1.25zm-40.625-12.347c0-0.60331 0.84375-1.7972 1.875-2.653 1.5665-1.3001 1.875-1.1196 1.875 1.0969 0 1.5249-0.79728 2.653-1.875 2.653-1.0312 0-1.875-0.49363-1.875-1.097zm-68.125-15.153c0.4249-0.6875 1.0206-1.25 1.3238-1.25 0.30318 0 0.55123 0.5625 0.55123 1.25s-0.5957 1.25-1.3238 1.25c-0.72807 0-0.97612-0.5625-0.55122-1.25zm191.88-5c0-0.6875 0.5625-1.25 1.25-1.25s1.25 0.5625 1.25 1.25-0.5625 1.25-1.25 1.25-1.25-0.5625-1.25-1.25zm-119.36-6.2704c0.43183-0.69871 1.3088-0.94677 1.9488-0.55122 1.7338 1.0715 1.4105 1.8216-0.78515 1.8216-1.0718 0-1.5954-0.57168-1.1636-1.2704zm35.612 0.0204c0-0.6875 0.5625-1.25 1.25-1.25s1.25 0.5625 1.25 1.25-0.5625 1.25-1.25 1.25-1.25-0.5625-1.25-1.25zm-56.25-12.5c0-0.6875 0.84375-1.25 1.875-1.25s1.875 0.5625 1.875 1.25-0.84375 1.25-1.875 1.25-1.875-0.5625-1.875-1.25zm105.64-1.2704c0.43183-0.69871 1.3088-0.94677 1.9488-0.55123 1.7338 1.0716 1.4105 1.8216-0.78515 1.8216-1.0718 0-1.5954-0.57167-1.1636-1.2704zm23.737-11.23c0.4249-0.6875 1.335-1.25 2.0225-1.25s0.90236 0.5625 0.47746 1.25-1.335 1.25-2.0225 1.25-0.90236-0.5625-0.47746-1.25zm-99.375-8.8238c0-0.72807 0.5625-0.97613 1.25-0.55123s1.25 1.0206 1.25 1.3238c0 0.30318-0.5625 0.55123-1.25 0.55123s-1.25-0.5957-1.25-1.3238zm-43.176-16.259c-1.3453-2.1768 0.1869-2.6378 1.9013-0.57204 0.98594 1.188 1.0808 1.9052 0.2519 1.9052-0.7311 0-1.7-0.59992-2.1532-1.3332zm74.426-14.991c0-0.72807 0.5625-0.97613 1.25-0.55123s1.25 1.0206 1.25 1.3238c0 0.30318-0.5625 0.55123-1.25 0.55123s-1.25-0.5957-1.25-1.3238zm105.88 289.77c3.4514-3.7746 6.8974-10.757 6.2106-12.585-0.32381-0.8616-0.96859-0.43537-1.5464 1.0222-1.6847 4.25-7.0332 10.664-10.434 12.513l-3.2411 1.762 3.2196 0.05c1.7939 0.0279 4.3584-1.1954 5.7913-2.7624zm-3.5356-4.076c6.9344-6.2648 10.731-16.778 4.2424-11.749-2.1172 1.6412-2.1186 1.6023-0.0303-0.8578 2.9141-3.4328 2.7588-6.9416-0.49004-11.072l-2.6775-3.4039-2.9025 3.5479c-3.2775 4.0063-4.0651 2.5106-0.98992-1.8798 2.4026-3.4302 2.0785-3.8475-4.091-5.268-4.8566-1.1183-9.1615-0.55239-9.1615 1.2043 0 1.5302 6.0354 3.8703 8.019 3.1091 1.319-0.50615 1.6174 0.002 1.119 1.9086-0.70957 2.7134-2.2542 3.3855-3.4254 1.4904-1.3303-2.1525-4.1766-2.3958-59.463-5.0822-13.406-0.65143-30.844-1.2123-38.75-1.2463-13.195-0.0568-26.01-1.6316-45.625-5.607-5.2258-1.0591-11.29-1.2043-20-0.47881-13.753 1.1456-24.877 0.53439-39.826-2.188-5.4041-0.98417-10.078-1.7894-10.386-1.7894-0.30839 0-0.22444-0.54408 0.18655-1.2091 0.41097-0.66498 2.4129-0.87591 4.4488-0.46875 4.0748 0.81495 4.6252-0.33119 1.9295-4.0177-1.6673-2.2802-2.0907-2.3128-7.1682-0.5514-7.8487 2.7227-11.43 9.5334-10.258 19.508 1.0065 8.5636 4.5217 12.989 10.317 12.989 2.0532 0 4.0807-0.5625 4.5056-1.25 0.46697-0.75559-1.2517-1.25-4.3452-1.25-4.8383 0-5.0398-0.14571-3.6894-2.6689 0.78558-1.4679 1.7898-2.1224 2.2315-1.4546 0.44173 0.66786 11.209 2.1854 23.928 3.3722 12.719 1.1869 25.375 2.6429 28.125 3.2357 9.2085 1.9849 36.084 4.8927 53.125 5.7479 9.2812 0.46576 18.104 1.3074 19.606 1.8703 3.7804 1.4167 43.551 3.5714 72.982 3.9541 21.505 0.27964 24.717 0.0644 26.562-1.7801 1.1547-1.154 2.0994-2.6677 2.0994-3.3637 0-0.69603 0.55606-1.6092 1.2357-2.0292 0.73442-0.4539 0.91362 0.15 0.44175 1.4887-1.146 3.2513-6.85 9.1274-8.8601 9.1274-0.9432 0-1.3673 0.5625-0.94236 1.25 1.2874 2.083 2.8969 1.4496 7.9753-3.1385zm0.14966-16.862c0.73588-1.375 1.6192-2.5 1.963-2.5 0.34375 0 0.0229 1.125-0.71296 2.5-0.73588 1.375-1.6192 2.5-1.963 2.5-0.34375 0-0.0229-1.125 0.71296-2.5zm-108.98-0.85c0.90234-0.36108 1.9805-0.31668 2.3958 0.0986 0.41536 0.41536-0.32292 0.7108-1.6406 0.65652-1.4562-0.06-1.7524-0.35617-0.75522-0.7552zm-58.203-1.2914c1.8906-0.28642 4.9844-0.28642 6.875 0 1.8906 0.2864 0.34375 0.52073-3.4375 0.52073s-5.3281-0.23433-3.4375-0.52073zm-65.312-5.0872c0-0.62151 1.2068-2.2016 2.6819-3.5113 2.6633-2.3647 2.6719-2.3622 1.2433 0.36165-1.5936 3.0384-3.9252 4.9093-3.9252 3.1496zm41.58-3.6645c1.9001-0.28732 4.7126-0.27963 6.25 0.017 1.5374 0.29671-0.0171 0.53178-3.4547 0.5224-3.4375-0.01-4.6954-0.25215-2.7953-0.53946zm-42.372-5.72c-0.47599-0.82935-0.40514-1.0909 0.15746-0.58126 0.56259 0.50966 1.7778 0.30016 2.7004-0.46555 1.0547-0.87531 1.6775-0.92094 1.6775-0.12288 0 1.9519-3.5595 2.87-4.5354 1.1697zm4.5354-6.9061c0-1.5107 2.3715-3.272 3.2384-2.4051 0.31463 0.31462-0.2853 1.2836-1.3332 2.1532-1.188 0.98594-1.9052 1.0808-1.9052 0.2519zm107.81 37.732c6.8958-1.3188 3.1608-2.7914-8.125-3.2036-6.3594-0.23223-12.066-0.18833-12.682 0.0975-0.61573 0.28589 0.79052 1.5512 3.125 2.8118 4.1286 2.2294 7.2882 2.282 17.682 0.29421zm-94.366-8.0594c2.8837-1.8009 3.7079-3.6494 1.6272-3.6494-0.64692 0-1.4936 0.51355-1.8816 1.1412-1.0843 1.7544-9.6321 2.7643-13.729 1.622-4.8499-1.3522-8.3399-8.1492-8.4035-16.366-0.0646-8.3432 4.1902-16.227 10.394-19.26 6.2338-3.0476 9.9658-1.8832 12.349 3.8532 1.0564 2.543 2.2634 4.0638 2.6822 3.3796 0.41878-0.68428-0.16828-3.2129-1.3046-5.6191-1.9344-4.0963-2.4887-4.3992-8.7022-4.7556-6.2364-0.35764-6.922-0.0941-11.383 4.375-6.6144 6.6272-9.5826 16.727-7.0366 23.944 4.8076 13.626 14.67 18.03 25.388 11.336zm152.35-24.903c0.21531-8.2113 8.2557-20.433 18.953-28.811 3.0278-2.371 6.1504-4.9086 6.9391-5.6391 0.7887-0.73051 6.7778-4.9177 13.309-9.3048s14.406-10.28 17.5-13.096c3.0938-2.8154 8.0156-6.6519 10.938-8.5254 5.2374-3.3582 7.3834-5.8003 3.125-3.5561-2.0808 1.0966-18.204 5.4954-32.621 8.8999-6.6058 1.5599-46.098 2.0436-59.566 0.72954-14.742-1.4383-57.618-7.4344-71.875-10.052-19.138-3.5131-46.69-11.928-57.703-17.623-5.7217-2.9588-5.5718-1.324 0.37066 4.0412 21.52 19.43 30.147 30.331 44.022 55.628 2.5081 4.5726 4.5633 9.9164 4.5671 11.875 0.004 1.9586 0.578 5.617 1.2759 8.1297 1.1974 4.3112 1.602 4.5997 7.1805 5.121 3.2514 0.30379 10.627 1.5182 16.391 2.6988 13.025 2.6678 28.38 3.7945 55.794 4.0943l21.273 0.23261 0.127-4.8436zm41.055-63.225c14.129-2.9342 29.831-7.725 38.557-11.764 4.465-2.0666 8.6972-3.7576 9.4048-3.7576 2.4779 0 2.5332-2.1161 0.27978-10.711-8.913-33.995-15.097-42.832-36.279-51.846-7.3061-3.109-10.495-3.7303-19.704-3.8393-10.051-0.11887-11.857 0.25475-21.19 4.3829-5.6114 2.4821-10.637 4.5129-11.168 4.5129-0.53094 0-3.2523 1.0925-6.0475 2.4278-13.369 6.3868-38.125 12.572-50.317 12.572-16.366 0-36.683-5.7613-50.203-14.236-2.5093-1.5729-10.263-5.8378-17.232-9.4776-10.692-5.585-13.343-6.4915-16.984-5.8084-6.4448 1.209-13.525 8.0497-18.416 17.793-2.3759 4.7327-5.5294 10.292-7.0076 12.355-1.4783 2.0625-3.1238 5.1562-3.6566 6.875-0.53286 1.7188-2.0998 4.73-3.482 6.6918-1.4275 2.0259-2.0057 3.9159-1.3384 4.375 0.64609 0.44454 3.7301 2.6019 6.8534 4.7941 11.308 7.9373 37.158 17.796 61.701 23.532 12.051 2.8163 37.991 6.9095 68.125 10.75 27.331 3.4829 62.341 3.6531 78.104 0.37957zm-38.104-6.7481c0-0.95487 6.054-2.5234 9.7396-2.5234 3.169 0 1.1582 1.0357-4.4628 2.2986-2.9023 0.65208-5.2768 0.75322-5.2768 0.22473zm17.706-0.0234c0.71045-2.176 7.0368-3.2575 8.7914-1.503 0.75667 0.75668 0.0131 0.96705-2.0344 0.57564-1.7748-0.33929-4.159 0.15243-5.2981 1.0927-1.7732 1.4637-1.983 1.4399-1.4589-0.1654zm-35.206-1.25c0-1.484 2.1716-1.484 5.625 0 2.095 0.90026 1.8419 1.0885-1.5625 1.1621-2.2344 0.0483-4.0625-0.47464-4.0625-1.1621zm53.349-1.3486c0.74175-0.74175 3.5261-1.5143 6.1875-1.7168s3.4326-0.11488 1.7138 0.19482c-1.7188 0.30965-3.6594 1.0822-4.3125 1.7168-0.65312 0.6346-2.0312 1.1538-3.0625 1.1538-1.3414 0-1.4912-0.38379-0.52635-1.3486zm-85.849-2.6514c0-1.2808 5.1443-1.267 7.1693 0.0191 0.91669 0.58226-0.2263 0.98087-2.8125 0.98087-2.3962 0.00003-4.3568-0.44997-4.3568-0.99997zm14.225 0.49214c0.59849-0.96838 9.5246-0.48142 9.5246 0.51962 0 0.26853-2.2832 0.48824-5.0738 0.48824s-4.7935-0.45354-4.4509-1.0079zm91.411-2.761c0.4185-0.67715 2.509-1.2312 4.6455-1.2312 4.7218 0 4.2448 0.62384-1.2817 1.6766-2.5772 0.49095-3.8392 0.32382-3.3637-0.44545zm-121.89-2.7653c0-1.2393 6.4079-1.2246 8.3641 0.0191 0.81906 0.52076-0.72768 0.94676-3.4375 0.94676-2.7096 0-4.9266-0.43465-4.9266-0.9659zm-26.841-0.91132c-0.40634-0.65748-1.6568-0.84313-2.7788-0.41258-1.3637 0.52329-1.7404 0.29798-1.1362-0.67959 1.2483-2.0198 3.895-1.8301 5.7563 0.41258 0.98127 1.1824 1.0651 1.875 0.22682 1.875-0.7311 0-1.6617-0.53794-2.0681-1.1954zm13.104 0.0799c-2.078-0.57836-2.6059-1.1793-1.5883-1.8082 1.3948-0.86206 6.5757 0.98368 6.5757 2.3427 0 0.69955-0.90052 0.60305-4.9874-0.53446zm155.79-2.029c0.59012-1.5378 5.4754-3.4913 6.4054-2.5613 0.24476 0.24475-1.2353 1.2832-3.2889 2.3077-2.8201 1.4068-3.5828 1.4689-3.1164 0.2536zm-185.18-2.9674c-2.4434-0.53175-3.2146-1.1537-2.2133-1.7849 1.4006-0.88303 6.5883 0.94045 6.5883 2.3158 0 0.31957-0.14063 0.51448-0.3125 0.43314-0.17188-0.0814-2-0.51515-4.0625-0.96401zm-15-3.3082c-3.1268-1.4317-3.308-1.7265-1.0906-1.7735 1.4627-0.031 3.3597 0.78738 4.2156 1.8186 1.8227 2.1962 1.7682 2.1954-3.125-0.0451zm-11.068-2.4154c-1.2749-0.96581-2.0931-2.431-1.8181-3.2559 0.28677-0.86032 1.4208-0.0946 2.6594 1.7958 2.4595 3.7537 2.3765 3.8978-0.84129 1.4602zm-11.323-4.8054c-1.7543-1.2828-1.9639-1.9738-0.81416-2.6843 1.8063-1.1164 4.3258 0.96414 3.6442 3.0092-0.32514 0.97543-1.1871 0.8765-2.83-0.32483zm-9.998-7.25c-2.1583-2.0978-2.1865-2.3387-0.27326-2.3387 1.1731 0 2.466 0.86801 2.8731 1.9289 1.1046 2.8786 0.10262 3.0366-2.5999 0.40983zm-9.7813-6.463c-1.8906-0.74708-3.4375-1.8122-3.4375-2.367 0-1.7086 2.0838-1.1247 5.174 1.4497 3.3113 2.7586 3.1452 2.8463-1.7365 0.91731zm-8.4188 11.682c-1.7085-1.3127-3.3951-2.098-3.748-1.745-0.7971 0.79711 3.7242 4.1974 5.5308 4.1595 0.72798-0.0152-0.0743-1.1018-1.7827-2.4145zm272.39 353.38c-0.0526-0.85938-0.27301-2.4715-0.48981-3.5825-0.21679-1.111 0.0989-2.7985 0.7015-3.75 0.72823-1.1498 1.1021 0.0515 1.1148 3.5825 0.01 2.9219-0.26211 5.3125-0.60586 5.3125s-0.66804-0.70313-0.72064-1.5625zm-105.67-11.47c-0.37653-0.98125-0.47505-3.0906-0.21892-4.6875 0.3426-2.136 0.63279-1.6644 1.0978 1.7841 0.65449 4.8531 0.3082 5.997-0.87893 2.9034zm7.0131-1.3409c0-1.7188 0.21568-3.125 0.47928-3.125 0.26361 0 0.74809 1.4062 1.0767 3.125 0.32856 1.7188 0.11287 3.125-0.47928 3.125-0.59216 0-1.0767-1.4062-1.0767-3.125zm-227.26-2.5c0.0255-2.0625 0.30562-2.7549 0.62255-1.5387s0.29609 2.9037-0.0463 3.75c-0.34241 0.84629-0.60172-0.14879-0.57624-2.2113zm52.256-1.25c0-1.0312 0.91262-1.875 2.028-1.875 1.661 0 1.7464 0.33936 0.47195 1.875-0.85586 1.0312-1.7685 1.875-2.028 1.875-0.25958 0-0.47195-0.84375-0.47195-1.875zm46.25-2.5c0-2.4062 0.21971-4.375 0.48824-4.375s0.71808 1.9688 0.999 4.375 0.0612 4.375-0.48824 4.375c-0.54945 0-0.999-1.9688-0.999-4.375zm6.9464 0.74044c-0.38566-0.624-0.17326-2.4521 0.47199-4.0625 1.0974-2.7386 1.1783-2.6653 1.2524 1.1346 0.0801 4.1077-0.44462 4.9987-1.7244 2.9279zm-96.822-4.8029c-0.0685-2.9219 0.4379-5.3125 1.1254-5.3125 1.4406 0 1.4406 3.0016 0 7.5-0.85019 2.6547-1.0196 2.3255-1.1254-2.1875zm324.88 0.3125c0-2.4062 0.5625-4.375 1.25-4.375s1.25 1.9688 1.25 4.375-0.5625 4.375-1.25 4.375-1.25-1.9688-1.25-4.375zm-332.77-0.625c0.30271-2.0625 0.95161-3.75 1.442-3.75 0.4904 0 0.64397 1.6875 0.34125 3.75-0.30271 2.0625-0.95161 3.75-1.442 3.75-0.4904 0-0.64396-1.6875-0.34125-3.75zm53.767 2.25c2.1489-2.1489 1.8496-3.5557-0.55985-2.6311-1.7234 0.66133-1.9239 0.19554-1.2276-2.8517 0.45773-2.0032 1.0024-4.3903 1.2103-5.3046 0.20792-0.91435 1.1822-2.1714 2.1651-2.7934 3.5648-2.2559 3.7198-1.078 0.42634 3.2398-3.9438 5.1705-3.2061 6.6833 2.2541 4.6223l3.923-1.4808-4.2159 4.3497c-2.3188 2.3924-4.4993 4.3497-4.8457 4.3497-0.34639 0 0.0452-0.675 0.87021-1.5zm271.01-1.7272c-1.111-2.8953-0.92639-11.773 0.24489-11.773 0.55198 0 0.97386 3.0932 0.9375 6.8738-0.0364 3.7806-0.14658 6.8743-0.24489 6.875-0.0984 0.00067-0.5202-0.88853-0.9375-1.976zm-97.541-2.6068c-0.43985-1.1462-0.21877-2.665 0.49126-3.375 0.88797-0.88796 1.291-0.23739 1.291 2.084 0 3.8561-0.62437 4.3083-1.7822 1.291zm-8.4404-4.791c-0.8057-3.7456-0.41615-5.4304 0.94164-4.0726 0.39549 0.39549 0.5269 2.3174 0.29204 4.2708l-0.42703 3.5518-0.80665-3.75zm-219.98-6.3c-1.412-2.5762-1.0298-11.372 0.5905-13.588 1.5074-2.0614 1.651-1.4541 1.189 5.0274-0.6307 8.8488-0.90313 10.159-1.7795 8.5604zm88.944-1.7944c4.4688-1.3798 8.6875-2.2743 9.375-1.9876 0.6875 0.28665 0.26562 0.56558-0.9375 0.61985-1.2031 0.0543-2.1875 0.60169-2.1875 1.2164 0 0.61478-1.2656 1.1-2.8125 1.0783s-4.7812 0.3253-7.1875 0.77116c-2.4062 0.44586-0.71875-0.3183 3.75-1.6981zm243.86-3.7066c-0.0796-3.931 0.27731-5.1724 1.2171-4.2327 0.9053 0.9053 0.94129 2.681 0.11275 5.5625l-1.2171 4.2327-0.11275-5.5625zm-280.11-2.22c0-0.60849 1.9688-3.0145 4.375-5.3468 2.4062-2.3322 4.375-3.6914 4.375-3.0203 0 0.67107-1.9688 3.0771-4.375 5.3468-2.4062 2.2696-4.375 3.6288-4.375 3.0203zm-42.894-8.47c0.38956-4.8125 1.1852-9.2694 1.7682-9.9043 1.1785-1.2835 0.0264 10.63-1.5018 15.529-0.54186 1.7373-0.66017-0.76066-0.26641-5.625zm101.64 6.875c1.0312-0.66645 2.4375-1.2117 3.125-1.2117s0.40625 0.54526-0.625 1.2117c-1.0312 0.66645-2.4375 1.2117-3.125 1.2117s-0.40625-0.54526 0.625-1.2117zm211.78-4.4684c-0.50735-2.7044-0.29474-5.0119 0.53858-5.8452 1.0025-1.0025 1.3319-0.18074 1.2115 3.022-0.091 2.4194 0.2369 5.0497 0.72855 5.8452 0.49166 0.79552 0.32373 1.4464-0.3732 1.4464-0.69692 0-1.6444-2.0108-2.1054-4.4684zm-197.11-0.68673c0.84793-0.85428 1.8566-1.2383 2.2414-0.85348 0.38487 0.38486-0.30888 1.0838-1.5417 1.5532-1.7815 0.67835-1.9251 0.53477-0.69975-0.69975zm27.208-1.8211c2.829-2.3091 10.659-5.9068 11.35-5.2153 0.25023 0.25023-2.7637 1.9852-6.6976 3.8554s-6.0276 2.4822-4.6526 1.3598zm210.28-2.1885c-1.3928-3.5413-1.1658-5.3505 0.46665-3.718 0.75198 0.75198 1.1572 2.4114 0.90058 3.6875-0.4501 2.2379-0.49863 2.239-1.3672 0.0305zm-33.381-9.8978c-0.0105-3.2656 0.54336-5.9375 1.2309-5.9375 1.5971 0 1.5971 7.5287 0 10-0.87639 1.3561-1.217 0.23184-1.2309-4.0625zm-327.43-1.66c0.06-1.4562 0.35618-1.7524 0.75521-0.75522 0.36109 0.90234 0.31668 1.9805-0.0987 2.3958-0.41536 0.41536-0.7108-0.32292-0.65652-1.6406zm356.87-0.89155c-0.55987-1.9226-0.66915-3.8445-0.24284-4.2708 1.3992-1.3992 2.222 0.59742 1.737 4.2148l-0.47622 3.5518-1.018-3.4957zm5.1156 0.78737c-1.2348-1.2348-1.0109-6.6667 0.27479-6.6667 0.60947 0 1.3558 1.6875 1.6585 3.75 0.52952 3.6079-0.17665 4.6733-1.9333 2.9167zm-264.5-6.9792c-0.0483-2.5781 0.47464-4.6875 1.1621-4.6875 1.4927 0 1.4927 3.4014 0 6.875-0.86178 2.0055-1.0917 1.5728-1.1621-2.1875zm-97.444-0.3125c-0.058-2.0625 0.43981-4.5938 1.1063-5.625 0.99824-1.5447 1.1931-1.4346 1.1063 0.625-0.058 1.375-0.55582 3.9062-1.1063 5.625-0.98073 3.0623-1.0029 3.0498-1.1063-0.625zm103.61 0c0-1.0312 0.22108-1.875 0.49126-1.875 0.2702 0 0.81504 0.84375 1.2108 1.875 0.39572 1.0312 0.17465 1.875-0.49127 1.875s-1.2108-0.84375-1.2108-1.875zm215.98-1.93c-0.30715-2.0928-0.0897-4.0947 0.48312-4.4488 0.57288-0.35405 1.0416 1.3582 1.0416 3.805 0 5.4514-0.7713 5.777-1.5247 0.64373zm-310.86-4.63c0.0685-1.8906 0.57807-4.8438 1.1323-6.5625 0.7559-2.3441 0.96919-1.4852 0.85356 3.4375-0.0847 3.6094-0.59431 6.5625-1.1323 6.5625s-0.92208-1.5469-0.85356-3.4375zm218.82-0.3125c0-1.7188 0.28373-2.4219 0.63049-1.5625 0.34676 0.85937 0.34676 2.2656 0 3.125-0.34676 0.85937-0.63049 0.15625-0.63049-1.5625zm-8.7037-5.625c0.0255-2.0625 0.30562-2.7549 0.62255-1.5387 0.31692 1.2162 0.29608 2.9037-0.0464 3.75-0.34241 0.84628-0.60171-0.14879-0.57624-2.2113zm134.29 0.3125c-1.0957-4.0884-0.95301-7.1875 0.33084-7.1875 0.6153 0 1.3333 2.25 1.5955 5 0.51439 5.3938-0.69814 6.7707-1.9264 2.1875zm-256.25-2.3104c-0.42602-2.1301-0.23218-4.802 0.43074-5.9375 0.89681-1.5362 1.215-0.54488 1.2433 3.8729 0.0439 6.8515-0.56621 7.6039-1.6741 2.0646zm231.73-1.9908c-0.01-2.1938 0.54336-4.3364 1.2309-4.7613 1.6021-0.99015 1.6021 4.3959 0 6.875-0.92201 1.4267-1.2163 0.92136-1.2309-2.1137zm29.986 0.25118c-0.71938-1.8921-0.73831-4.2202-0.0483-5.9375 0.6243-1.5537 1.2032-2.2624 1.2864-1.575 1.3416 11.088 0.97262 13.327-1.238 7.5124zm-253.75-3.7624c0-2.4062 0.44955-4.375 0.999-4.375s0.76916 1.9688 0.48824 4.375c-0.28091 2.4062-0.73047 4.375-0.999 4.375s-0.48824-1.9688-0.48824-4.375zm-99.732-0.625c-0.01-2.4062 0.43121-5.7812 0.98165-7.5 0.80941-2.5274 1.0108-2.6469 1.0534-0.625 0.0289 1.375-0.41284 4.75-0.98165 7.5l-1.0342 5-0.0191-4.375zm220.98-1.25c0-2.0625 0.42187-3.75 0.9375-3.75 0.51562 0 0.9375 1.6875 0.9375 3.75s-0.42188 3.75-0.9375 3.75c-0.51563 0-0.9375-1.6875-0.9375-3.75zm93.235-0.30309c-0.55539-2.573-0.55966-5.6667-0.01-6.875 0.82833-1.8192 1.0811-1.6059 1.4704 1.2406 0.25853 1.8906 0.26281 4.9844 0.01 6.875-0.42915 3.203-0.52948 3.1183-1.4704-1.2406zm-99.798-1.6681c-0.51563-0.52-0.9375-2.0892-0.9375-3.4871 0-1.8397 0.37759-2.1641 1.3672-1.1744 0.75198 0.75197 1.1738 2.3212 0.9375 3.4871-0.23635 1.166-0.8516 1.6944-1.3672 1.1744zm-209.06-5.5288c-0.4249-0.6875-0.17685-1.25 0.55122-1.25 0.72808 0 1.3238 0.5625 1.3238 1.25s-0.24805 1.25-0.55123 1.25c-0.30317 0-0.89887-0.5625-1.3238-1.25zm86.384-3.2272c-0.99534-2.5938-0.98288-9.9136 0.0151-8.9155 0.69511 0.69511 1.6351 10.893 1.0041 10.893-0.1433 0-0.60199-0.88975-1.0193-1.9772zm-85.555-3.6478c-0.0499-2.75 0.72216-6.6875 1.7156-8.75 1.2801-2.6576 1.593-2.8984 1.0741-0.8263-0.40267 1.608-1.1747 5.5455-1.7156 8.75l-0.98345 5.8263-0.0906-5zm344.43 1.8581c-0.36199-1.3843-0.1947-4.0562 0.37177-5.9375 0.88947-2.954 1.0446-2.6108 1.1374 2.5169 0.11413 6.3096-0.4307 7.5446-1.5092 3.4206zm-5.8834-2.201c0-2.1365 0.55403-4.227 1.2312-4.6455 0.76928-0.47544 0.9364 0.78654 0.44545 3.3637-1.0528 5.5266-1.6766 6.0035-1.6766 1.2817zm-243.55-0.2821c0-1.7188 0.28373-2.4219 0.63049-1.5625 0.34676 0.85937 0.34676 2.2656 0 3.125-0.34676 0.85937-0.63049 0.15625-0.63049-1.5625zm222.43-4.6875c-0.0688-3.6247 0.43497-6.5625 1.1254-6.5625 1.4507 0 1.4507 5.4703 0 10-0.78741 2.4587-1.0274 1.7258-1.1254-3.4375zm-222.43-1.5625c0-1.7188 0.28373-2.4219 0.63049-1.5625 0.34676 0.85937 0.34676 2.2656 0 3.125-0.34676 0.85937-0.63049 0.15625-0.63049-1.5625zm-99.63-6.6941c0.52864-7.3068 1.2451-9.4104 2.7072-7.9484 0.42578 0.42579-0.12828 4.0352-1.2313 8.0208l-2.0054 7.2467 0.52954-7.3191zm310.32 1.6941c-0.73547-2.8124 0.20603-7.5 1.5064-7.5 0.46895 0 0.82521 2.2482 0.79171 4.996-0.0651 5.3413-1.2255 6.6056-2.2981 2.504zm30.331-5.7064c-1.5764-4.1462-1.5693-11.43 0.0125-12.407 0.75693-0.4678 0.95326 0.62867 0.50971 2.8464-0.39681 1.984-0.15243 5.6683 0.54307 8.1871 1.449 5.248 0.75069 6.1487-1.0649 1.3734zm7.2184 1.243c-0.51563-0.52429-0.9375-2.6595-0.9375-4.7449 0-2.7111 0.38409-3.4076 1.3477-2.4439 0.74125 0.74125 1.1631 2.8765 0.9375 4.7449-0.22562 1.8685-0.8321 2.9682-1.3477 2.4439zm-28.301-15.474c-0.0899-4.4707 0.28611-6.3894 1.0938-5.5817 0.77352 0.77351 0.8244 3.3046 0.13697 6.8125l-1.0938 5.5817-0.13695-6.8125zm-311.31-1.39c-0.046-2.4467 0.74224-5.5405 1.7516-6.875 2.3214-3.0692 2.3514-1.4327 0.10437 5.6986l-1.7724 5.625-0.0836-4.4486zm213.67 0.69859c0-1.0312 0.54485-1.875 1.2108-1.875 0.66592 0 0.88699 0.84375 0.49127 1.875-0.39574 1.0312-0.94058 1.875-1.2108 1.875-0.27019 0-0.49126-0.84375-0.49126-1.875zm89.552-2.8125c-1.0634-6.4334-0.99604-12.814 0.13519-12.808 0.51562 0.002 1.0457 3.9402 1.178 8.75 0.13225 4.8098 0.0652 8.7452-0.14894 8.7452-0.21417 0-0.73806-2.1094-1.1642-4.6875zm33.781 0.10412c-0.45834-0.45832-0.76294-3.1302-0.67688-5.9375l0.15645-5.1042 0.93451 5.625c0.98863 5.9507 0.92694 6.7577-0.41408 5.4167zm-341.26-4.48c0.96469-5.1185 2.8264-8.8507 2.8838-5.7812 0.071 3.7916-1.5196 9.8438-2.587 9.8438-0.58438 0-0.71795-1.8281-0.29684-4.0625zm220.51-3.0512c-0.0483-1.5063 0.47464-3.0864 1.1621-3.5113 1.4785-0.91375 1.4785 0.3094 0 3.75-1.0357 2.4103-1.0774 2.4017-1.1621-0.23873zm114.59-2.7734c-0.51986-2.3442-0.66004-4.5473-0.31151-4.8958 1.3034-1.3034 2.047 0.92769 1.6583 4.9753l-0.40165 4.1827-0.94518-4.2622zm-120.73-3.8628c0-1.7188 0.28373-2.4219 0.63049-1.5625 0.34676 0.85937 0.34676 2.2656 0 3.125-0.34676 0.85937-0.63049 0.15625-0.63049-1.5625zm-124.86-3.75c0-3.0938 0.24377-4.3594 0.54171-2.8125 0.29795 1.5469 0.29795 4.0781 0 5.625-0.29794 1.5469-0.54171 0.28125-0.54171-2.8125zm226.22-1.875c0.0139-2.75 0.26987-3.7278 0.56885-2.1729 0.29899 1.5549 0.28764 3.8049-0.0253 5-0.31286 1.1951-0.5575-0.0771-0.54362-2.8271zm-91.458 0.625c-0.0378-1.0312 0.47655-2.7188 1.143-3.75 1.4766-2.285 1.4766-0.31136 0 3.125-0.70835 1.6484-1.0977 1.8613-1.143 0.625zm-126.07-6.25c0-2.4062 0.25725-3.3906 0.57166-2.1875 0.3144 1.2031 0.3144 3.1719 0 4.375-0.31441 1.2031-0.57166 0.21875-0.57166-2.1875zm118.75 0c0-2.4062 0.25725-3.3906 0.57166-2.1875 0.3144 1.2031 0.3144 3.1719 0 4.375-0.31441 1.2031-0.57166 0.21875-0.57166-2.1875zm-214.82-0.9375c0.35343-1.2031 1.0164-4.2969 1.4734-6.875 0.45693-2.5781 1.3963-4.6875 2.0874-4.6875 0.71269 0 0.90196 1.2175 0.43724 2.8125-0.45069 1.5469-1.1524 4.6406-1.5593 6.875-0.40695 2.2344-1.2667 4.0625-1.9106 4.0625-0.64387 0-0.88151-0.98438-0.5281-2.1875zm7.4879-4.4368c0.27217-3.2996 0.84207-6.3465 1.2664-6.7708 1.7041-1.7041 1.711 0.58437 0.0196 6.5201l-1.7809 6.25 0.49486-5.9992zm295.3 0.004c-0.58547-3.2974-0.71548-6.3442-0.28891-6.7708 1.5554-1.5554 2.1645 0.75675 1.7635 6.6942l-0.41007 6.0719-1.0645-5.9952zm26.112 0.37025c-0.48026-2.8426-0.59195-5.4497-0.2482-5.7935 0.34375-0.34375 1.0179 1.7008 1.4982 4.5435 0.48026 2.8426 0.59195 5.4497 0.2482 5.7935-0.34375 0.34375-1.0179-1.7008-1.4982-4.5435zm5.625 2.5738c0-1.4156 0.5625-2.5738 1.25-2.5738s1.25 0.81055 1.25 1.8012c0 0.99067-0.5625 2.1489-1.25 2.5738s-1.25-0.38565-1.25-1.8012zm-23.784-5.7402c-0.87478-1.0541-1.8597-4.8509-2.1886-8.4375-0.71324-7.7762 0.6663-7.4076 1.7478 0.467 0.41636 3.0316 1.2759 6.4964 1.9101 7.6995 1.4228 2.6992 0.66235 2.8395-1.4693 0.27102zm23.24-7.7171c-0.67835-1.7815-0.53477-1.9251 0.69975-0.69975 0.85428 0.84793 1.2383 1.8566 0.85348 2.2414-0.38486 0.38487-1.0838-0.30888-1.5532-1.5417zm-10.604-6.4272c-0.7432-1.3887-1.3116-3.8275-1.2632-5.4196 0.0668-2.1952 0.52111-1.7128 1.88 1.9962 1.9482 5.3175 1.5575 7.486-0.61677 3.4234zm8.7474-0.9184c0.06-1.4562 0.35617-1.7524 0.7552-0.75522 0.36108 0.90234 0.31668 1.9805-0.0986 2.3958-0.41536 0.41536-0.7108-0.32292-0.65652-1.6406zm-32.615-3.688c-0.73479-1.9327-0.95402-4.4013-0.48717-5.4859 0.58738-1.3646 1.1866-0.4701 1.9457 2.9042 1.3195 5.866 0.4054 7.4841-1.4585 2.5816zm-293.64-3.55c-0.19568-2.1909 2.8197-10.77 3.7854-10.77 0.5436 0 0.24638 1.8281-0.66047 4.0625-0.90686 2.2344-1.9588 4.9062-2.3375 5.9375-0.37879 1.0312-0.7331 1.3778-0.78737 0.77002zm6.8171-4.52c0.39172-3.0938 1.2459-6.1594 1.8982-6.8125 1.6809-1.683 1.4792 0.19621-0.73117 6.8125l-1.8792 5.625 0.71218-5.625zm312.62-0.3125c-1.1177-4.1707-0.94918-5.9375 0.5663-5.9375 0.7448 0 1.1068 0.70312 0.80448 1.5625-0.30233 0.85937-0.0819 2.8281 0.4899 4.375 0.57177 1.5469 0.55661 2.8125-0.0336 2.8125-0.5903 0-1.4124-1.2656-1.827-2.8125zm-20.097-1.7433c-0.45807-1.8251-0.23882-3.8967 0.48949-4.625 0.9256-0.9256 1.3192-0.5292 1.3192 1.3286 0 1.4563 0.34143 3.5375 0.75874 4.625 0.4173 1.0875 0.19703 1.9772-0.48949 1.9772-0.68653 0-1.6216-1.4876-2.0779-3.3058zm-81.698-3.5692c0.0255-2.0625 0.30562-2.7549 0.62255-1.5387 0.31692 1.2162 0.29608 2.9037-0.0464 3.75-0.34241 0.84628-0.60171-0.14879-0.57624-2.2113zm94.756-3.125c-0.87257-2.1066-1.3052-4.1114-0.9615-4.4552 0.34375-0.34375 1.3389 1.0986 2.2115 3.2052 0.87257 2.1066 1.3052 4.1114 0.9615 4.4552-0.34375 0.34375-1.3389-1.0986-2.2115-3.2052zm-231.13-5.9375c-0.0685-2.9219 0.4379-5.3125 1.1254-5.3125 1.4406 0 1.4406 3.0016 0 7.5-0.85019 2.6547-1.0196 2.3255-1.1254-2.1875zm8.2632-1.5625c0.35958-1.375 1.1704-2.5 1.802-2.5 0.63432 0 0.54939 1.1188-0.18978 2.5-0.73587 1.375-1.5468 2.5-1.802 2.5s-0.16981-1.125 0.18976-2.5zm200.06 0c-1.382-4.7356-1.2124-7.0163 0.40163-5.4023 0.74125 0.74125 1.1593 2.9631 0.92902 4.9375l-0.41869 3.5898-0.91196-3.125zm26.137 0.41666c-0.45834-0.45832-0.79769-2.0052-0.7541-3.4375 0.0729-2.3945 0.17565-2.3631 1.2768 0.38981 1.2241 3.0603 0.97021 4.5407-0.52275 3.0477zm-310.83-8.89c0-3.5115 0.5884-6.7482 1.3076-7.1927 0.88648-0.54787 1.0332 1.3405 0.45566 5.8637-1.117 8.7478-1.7632 9.2349-1.7632 1.329zm290.2 2.7894c-1.7268-3.7898-1.9041-8.0715-0.33435-8.0715 0.92079 0 2.737 9.8955 2.0085 10.943-0.12163 0.17477-0.87495-1.1173-1.6741-2.8713zm-283.7-3.7c0-2.0625 0.45036-5.1562 1.0008-6.875 0.97311-3.0385 1.0008-3.0212 1.0008 0.625 0 2.0625-0.45036 5.1562-1.0008 6.875-0.97311 3.0385-1.0008 3.0212-1.0008-0.625zm295.7-3.125c-1.382-4.7356-1.2124-7.0163 0.40163-5.4023 0.74125 0.74125 1.1593 2.9631 0.92902 4.9375l-0.41869 3.5898-0.91196-3.125zm4.8872 1.6667c-0.45834-0.45832-0.76865-2.849-0.68959-5.3125l0.14375-4.4792 0.97445 5c1.0237 5.2528 0.94235 6.1626-0.42861 4.7917zm-21.325-13.644c-1.1566-3.0142-0.90514-6.7728 0.4532-6.7728 0.66656 0 1.1379 1.9688 1.0475 4.375-0.1841 4.8972-0.4057 5.2512-1.5007 2.3978zm10.349-3.9603c-1.9264-4.9786-2.3355-7.6789-1.2638-8.3413 0.51735-0.31975 1.5103 2.1997 2.2066 5.5987 1.4124 6.8947 1.0601 7.9192-0.94286 2.7426zm-20.907-2.2463c-1.9003-4.1706-1.8304-4.9375 0.28927-3.1783 1.964 1.63 3.5213 6.3621 2.0937 6.3621-0.51278 0-1.5851-1.4327-2.383-3.1838zm28.058 1.2066c-0.99075-2.5818-0.95789-3.0228 0.22526-3.0228 0.54119 0 1.0687 1.125 1.1723 2.5 0.22634 3.0048-0.36084 3.2245-1.3976 0.52276zm-294.49-8.1269c0.01-3.0365 0.58623-6.3646 1.2793-7.3958 0.87834-1.3068 1.0106 0.20821 0.43653 5-1.0308 8.6042-1.7408 9.5956-1.7159 2.3958zm-5.563-0.52084c0.40615-2.75 1.2572-5.5344 1.8912-6.1875 1.5188-1.5646 1.4524-1.077-0.75741 5.5625l-1.8722 5.625 0.73842-5zm277.42 1.875c0.4249-0.6875 1.6163-1.25 2.6475-1.25s1.5274 0.5625 1.1025 1.25-1.6163 1.25-2.6475 1.25-1.5274-0.5625-1.1025-1.25zm-60.625-1.5623c0-1.1221 0.59992-2.4109 1.3332-2.8641 2.1438-1.3249 2.3541-0.13842 0.43964 2.4798-1.4826 2.0276-1.7728 2.0905-1.7728 0.38431zm71.25-2.1532c0-1.6944 2.2214-2.7466 3.0314-1.4359 0.3873 0.62668-0.13633 1.462-1.1636 1.8562-1.0273 0.39421-1.8678 0.2051-1.8678-0.42025zm-80-1.2845c0-0.6875 0.5957-1.25 1.3238-1.25 0.72808 0 0.97613 0.5625 0.55123 1.25s-1.0206 1.25-1.3238 1.25c-0.30318 0-0.55123-0.5625-0.55123-1.25zm58.194-1.9444c-1.1793-1.7998-1.8942-3.5225-1.5886-3.828 0.30555-0.30557 1.5204 0.91705 2.6998 2.7169 1.1793 1.7998 1.8942 3.5225 1.5886 3.828-0.30555 0.30556-1.5204-0.91705-2.6998-2.7169zm29.306 1.9444c0-0.6875 0.5957-1.25 1.3238-1.25 0.72808 0 0.97613 0.5625 0.55123 1.25s-1.0206 1.25-1.3238 1.25c-0.30318 0-0.55123-0.5625-0.55123-1.25zm-219.8-3.75c0-1.7188 0.28373-2.4219 0.63049-1.5625 0.34676 0.85937 0.34676 2.2656 0 3.125-0.34676 0.85937-0.63049 0.15625-0.63049-1.5625zm198.55 1.2548c0-1.5154 3.5056-3.1658 4.536-2.1354 0.37299 0.37299-0.49502 1.306-1.9289 2.0734-1.8077 0.96747-2.6071 0.9865-2.6071 0.062zm-189.8-3.7548c0-1.7188 0.28373-2.4219 0.63049-1.5625 0.34676 0.85937 0.34676 2.2656 0 3.125-0.34676 0.85937-0.63049 0.15625-0.63049-1.5625zm197.3 1.294c0-0.66331 1.125-1.8081 2.5-2.544 2.7533-1.4735 3.3595-0.1095 1 2.25-1.8073 1.8073-3.5 1.9495-3.5 0.29398zm-55.938-2.8565c0.28614-0.85938 1.5807-1.768 2.8769-2.0192 2.0389-0.39509 2.1307-0.18442 0.68086 1.5625-1.9828 2.3891-4.3002 2.6865-3.5577 0.45668zm-10.312-0.71068c0-1.5107 2.3715-3.272 3.2384-2.4051 0.31462 0.31462-0.28531 1.2836-1.3332 2.1532-1.188 0.98594-1.9052 1.0808-1.9052 0.2519zm52.984-3.3908c-1.1402-1.7402-1.7572-3.48-1.371-3.8662 0.38618-0.38619 1.6018 1.0376 2.7014 3.164 2.4102 4.6608 1.5581 5.1106-1.3304 0.70215zm23.266 1.9486c0-1.6944 2.2214-2.7466 3.0314-1.4359 0.3873 0.62668-0.13633 1.462-1.1636 1.8562-1.0273 0.39421-1.8678 0.2051-1.8678-0.42025zm-305-1.4016c0-0.62313 1.125-1.133 2.5-1.133s2.5 0.21565 2.5 0.47921-1.125 0.7734-2.5 1.133c-1.375 0.35957-2.5 0.14392-2.5-0.47922zm10-0.36218c0-0.26357 1.125-0.7734 2.5-1.133 1.375-0.35957 2.5-0.14392 2.5 0.47921 0 0.62314-1.125 1.133-2.5 1.133s-2.5-0.21565-2.5-0.47921zm13.75-0.68137c0-1.6559 5.8898-8.3615 6.6654-7.5886 0.34542 0.34423-1.013 2.4625-3.0186 4.7072-2.0057 2.2447-3.6467 3.5414-3.6467 2.8813zm58.736-4.1519c-2.311-3.7903-3.4965-8.6144-1.6675-6.7854 1.2067 1.2067 5.4076 10.848 4.7267 10.848-0.32024 0-1.6969-1.8281-3.0592-4.0625zm167.51 1.7083c0-0.60732 1.125-1.3984 2.5-1.758 2.952-0.77195 3.3929 1.0021 0.52276 2.1034-2.624 1.0069-3.0228 0.96136-3.0228-0.34547zm21.479-0.41663c-1.751-1.751-1.9312-3.4792-0.3629-3.4792 1.1456 0 3.031 3.7694 2.2673 4.5331-0.23389 0.23389-1.0909-0.24036-1.9044-1.0539zm-31.479-2.0354c0-1.6659 4.9239-5.6865 5.841-4.7694 0.45411 0.45413 0.20732 0.82568-0.54844 0.82568-0.75575 0-1.7312 1.125-2.1676 2.5-0.77661 2.4469-3.125 3.5318-3.125 1.4437zm-153.03-6.2655c-2.2192-4.2915-2.389-5.1782-0.99122-5.1782 1.1069 0 4.2548 7.686 3.4695 8.4712-0.2811 0.2811-1.3963-1.2008-2.4783-3.293zm188.85 1.2858c-2.2787-2.518-2.7809-4.5517-0.82547-3.3432 1.3039 0.80587 4.191 5.6292 3.3694 5.6292-0.26138 0-1.4062-1.0287-2.544-2.2859zm-275.82 0.0655c0-1.6558 4.8101-2.848 5.6975-1.4122 0.38502 0.62296 0.15033 1.1326-0.52152 1.1326-0.67184 0-2.1113 0.34143-3.1988 0.75874-1.0875 0.4173-1.9772 0.20166-1.9772-0.47921zm261.25-0.23556c0-0.66331 1.2656-1.8701 2.8125-2.6819 2.7974-1.468 2.7997-1.4615 0.43126 1.206-2.6454 2.9794-3.2438 3.2517-3.2438 1.4759zm-246.03-2.54c1.8368-0.55454 4.0868-1.3917 5-1.8602 0.91324-0.4686 0.56854 0.0335-0.76598 1.1157s-3.5845 1.9194-5 1.8603c-2.0652-0.0863-1.9138-0.30663 0.76598-1.1157zm18.535-2.2198c0-1.5585 4.8997-7.6152 4.9584-6.1292 0.0229 0.57906-1.0834 2.483-2.4584 4.2311-1.375 1.748-2.5 2.6022-2.5 1.8981zm219.38-1.557c1.2444-1.375 2.825-2.5 3.5125-2.5s0.23189 1.125-1.0125 2.5-2.825 2.5-3.5125 2.5-0.23188-1.125 1.0125-2.5zm-225.62-1.0272c0-1.9213 6.1632-8.6549 6.2105-6.7853 0.0217 0.85937-0.523 1.5625-1.2105 1.5625s-1.25 0.77487-1.25 1.722c0 0.94706-0.84375 2.4222-1.875 3.278-1.1889 0.98671-1.875 1.0682-1.875 0.22276zm-7.393-1.4728c-0.0377-1.0312 0.47655-2.7188 1.143-3.75 1.4766-2.285 1.4766-0.31136 0 3.125-0.70835 1.6484-1.0977 1.8613-1.143 0.625zm254.89-1.25c0.73588-1.375 1.8854-2.5 2.5546-2.5 0.67393 0 0.52019 1.1152-0.34466 2.5-0.8587 1.375-2.0083 2.5-2.5546 2.5-0.54632 0-0.39122-1.125 0.34466-2.5zm-205.7-3.0852c-1.8328-1.3862-1.9677-1.8352-0.55141-1.8352 1.0312 0 2.9669 0.82586 4.3014 1.8352 1.8328 1.3863 1.9677 1.8352 0.55141 1.8352-1.0312 0-2.9669-0.82586-4.3014-1.8352zm195.7-0.73853c0-0.72807 0.5625-0.97612 1.25-0.55122s1.25 1.0206 1.25 1.3238c0 0.30318-0.5625 0.55123-1.25 0.55123s-1.25-0.5957-1.25-1.3238zm-187.11-2.7401c-2.6318-1.2038-5.0132-4.7158-3.1587-4.6584 1.4541 0.045 7.1672 4.7496 6.5046 5.3564-0.33347 0.30533-1.8391-0.009-3.3459-0.69799zm208.36 0.35781c0-1.1801 3.9523-3.794 5.7366-3.794 0.4955 0-0.11725 1.125-1.3616 2.5-2.4239 2.6784-4.375 3.2555-4.375 1.294zm-258.51-3.16c0.0255-2.0625 0.30562-2.7549 0.62255-1.5387 0.31692 1.2162 0.29608 2.9037-0.0464 3.75-0.34241 0.84628-0.60171-0.14879-0.57624-2.2113zm16.006 2.1069c0-2.1886 3.7855-9.3631 4.5414-8.6071 0.33391 0.3339-0.55133 2.7685-1.9672 5.4102s-2.5743 4.0803-2.5743 3.197zm-6.25-0.84521c0-1.9545 3.9706-8.1367 5.2258-8.1367 0.8093 0 0.52891 0.97539-0.6571 2.2859-1.1378 1.2573-2.0687 2.9116-2.0687 3.6762 0 0.76468-0.5625 1.738-1.25 2.1628-0.6875 0.4249-1.25 0.43016-1.25 0.0113zm-15.875-8.1367c0-3.7812 0.23434-5.3281 0.52074-3.4375 0.28641 1.8906 0.28641 4.9844 0 6.875-0.2864 1.8906-0.52074 0.34375-0.52074-3.4375zm255.88 5.3774c0-1.674 3.4361-6.1085 4.1652-5.3754 0.34078 0.34268-0.45698 1.951-1.7728 3.574s-2.3924 2.4337-2.3924 1.8014zm-220-6.0024c-1.6891-2.0353-1.2851-2.2897 1.7728-1.1163 1.0875 0.4173 1.9772 1.261 1.9772 1.875 0 1.729-2.0254 1.3192-3.75-0.75874zm4.4746-4.6121c-1.0544-1.5054-1.6957-2.9585-1.425-3.2292 0.53191-0.53193 5.7004 4.3109 5.7004 5.3412 0 1.608-2.5531 0.34679-4.2754-2.1121zm228.65 0.23709c1.2444-1.375 2.825-2.5 3.5125-2.5s0.23189 1.125-1.0125 2.5-2.825 2.5-3.5125 2.5-0.23188-1.125 1.0125-2.5zm-260.53-3.24c0.06-1.4562 0.35617-1.7524 0.7552-0.75522 0.36108 0.90234 0.31669 1.9805-0.0986 2.3958-0.41537 0.41536-0.7108-0.32292-0.65652-1.6406zm14.276-4.2708c-1.252-1.3834-1.9951-2.7966-1.6513-3.1403 0.34375-0.34375 1.6494 0.5069 2.9013 1.8903 1.252 1.3834 1.9951 2.7966 1.6513 3.1403-0.34375 0.34376-1.6494-0.5069-2.9013-1.8903zm-14.375-0.55123c0-1.0718 0.5625-1.9488 1.25-1.9488s1.25 0.5293 1.25 1.1762c0 0.64693-0.5625 1.5239-1.25 1.9488s-1.25-0.10437-1.25-1.1762zm-7.1848-3.8238c0.0139-2.75 0.26987-3.7278 0.56885-2.1729 0.29899 1.5549 0.28764 3.8049-0.0252 5-0.31286 1.1951-0.5575-0.0771-0.54362-2.8271zm26.56-1.875c-0.4249-0.6875-0.21004-1.25 0.47746-1.25s1.5976 0.5625 2.0225 1.25 0.21004 1.25-0.47746 1.25-1.5976-0.5625-2.0225-1.25zm-21.88-5.6299c-1.6121-1.716-2.3578-3.1201-1.657-3.1201 1.5966 0 6.0304 4.7979 5.2006 5.6277-0.33683 0.33682-1.9314-0.79163-3.5436-2.5077zm7.3306-5.5785c-3.8833-3.2351-1.7748-3.2727 2.3329-0.0416 1.748 1.375 2.6022 2.5 1.8981 2.5-0.70405 0-2.608-1.1063-4.2311-2.4584z"/>
</svg>
