<?xml version="1.0" encoding="UTF-8" standalone="no"?>
<!-- Created with Inkscape (http://www.inkscape.org/) -->
<svg id="svg3406" xmlns:rdf="http://www.w3.org/1999/02/22-rdf-syntax-ns#" xmlns="http://www.w3.org/2000/svg" height="587.25" viewBox="0 0 891.73199 587.25055" width="891.73" version="1.1" xmlns:cc="http://creativecommons.org/ns#" xmlns:dc="http://purl.org/dc/elements/1.1/">
 <metadata id="metadata3412">
  <rdf:RDF>
   <cc:Work rdf:about="">
    <dc:format>image/svg+xml</dc:format>
    <dc:type rdf:resource="http://purl.org/dc/dcmitype/StillImage"/>
    <dc:title/>
   </cc:Work>
  </rdf:RDF>
 </metadata>
 <path id="path3416" d="m750.4 587.13c-0.2968-0.2922-9.5396-2.5981-20.54-5.1242s-24.781-5.6939-30.625-7.0394c-5.8438-1.3456-16.25-3.565-23.125-4.9322-26.288-5.2276-32.05-6.7375-61.875-16.215-4.4688-1.42-13.75-4.2236-20.625-6.2304-6.875-2.0067-17-5.0279-22.5-6.7138s-15.062-4.2977-21.25-5.804c-6.1875-1.5063-12.656-3.4345-14.375-4.2848-1.7188-0.85036-9.875-3.3558-18.125-5.5676s-21.188-6.1561-28.75-8.765c-7.5625-2.609-18.25-5.9012-23.75-7.3161s-18.156-5.488-28.125-9.0513c-19.609-7.0093-31.112-10.566-40.103-12.4-10.47-2.1356-24.128-6.106-36.772-10.689-6.875-2.4922-16.719-5.9666-21.875-7.721-5.1562-1.7544-13.031-4.6084-17.5-6.3423-13.776-5.3453-28.89-10.495-40-13.63-23.369-6.5935-33.488-9.2966-41.25-11.019-4.4688-0.99187-17.688-4.9738-29.375-8.8488-11.688-3.875-26.312-8.3192-32.5-9.876-14.172-3.5656-20.466-6.0822-43.75-17.492-25.62-12.554-26.472-12.821-45.739-14.299-12.93-0.99221-19.787-2.2106-28.699-5.0992-6.4404-2.0876-12.866-3.7955-14.279-3.7955s-4.7204-1.153-7.3497-2.5622-7.6834-3.7166-11.231-5.1274c-3.548-1.4109-7.8572-3.1639-9.576-3.8956-1.7188-0.73167-3.5-1.3774-3.9583-1.4351-0.45833-0.0576-1.1462-0.41758-1.5285-0.79994-0.71008-0.71007-1.5453-33.874-2.6742-106.18-0.34885-22.344-1.1972-49.062-1.8852-59.375-0.68801-10.312-1.6025-32.982-2.0321-50.377-0.60893-24.653-1.1281-31.494-2.3542-31.024-2.7438 1.0529-3.1517-0.80469-0.57335-2.6107 2.2535-1.5784 2.4511-3.0049 2.1796-15.737l-0.2986-14.001 4.7895-4.6875c2.6342-2.5781 5.3061-4.6875 5.9375-4.6875s2.1652-0.98438 3.4085-2.1875c4.1051-3.9726 21.955-17.249 31.49-23.422 14.304-9.2603 35.005-21.891 35.878-21.891 1.0537 0 10.373-5.8438 29.332-18.394l15.79-10.47 11.04 2.7394c6.0721 1.5067 20.04 5.1626 31.04 8.1242s26.188 6.5592 33.75 7.9945c7.5625 1.4353 17.969 3.4591 23.125 4.4973 5.1562 1.0382 12.75 2.4793 16.875 3.2025 4.125 0.72315 15.094 2.9066 24.375 4.8522 9.2812 1.9456 18.844 3.8914 21.25 4.3241 19.187 3.4502 90.656 21.673 108.75 27.729 3.0938 1.0354 20.812 5.7359 39.375 10.446 32.149 8.157 44 11.398 63.75 17.436 4.8125 1.4712 12.406 3.7054 16.875 4.9648 4.4688 1.2595 13.188 3.7614 19.375 5.5597 6.1875 1.7984 14.344 4.1555 18.125 5.2381 3.7812 1.0826 8.2812 2.4608 10 3.0627 14.382 5.0365 63.056 17.726 85.802 22.368 14.113 2.8806 24.11 6.1917 43.573 14.432 7.5625 3.2019 20.781 8.6145 29.375 12.028 8.5937 3.4135 19 7.6401 23.125 9.3925 27.478 11.673 56.905 23.046 76.25 29.468 12.375 4.1082 23.034 7.9863 23.688 8.6181 0.6531 0.63182 3.279 1.1488 5.8352 1.1488 5.5614 0 8.846 1.0944 7.8963 2.631-0.3804 0.61546-0.1358 1.119 0.5436 1.119 2.8343 0 7.2781 33.986 4.5374 34.701-0.6875 0.1795-1.3679-2.0705-1.5121-5-0.3335-6.78-3.7039-25.959-4.7447-27-0.4341-0.43403-1.7615 0.49987-2.9499 2.0754s-3.4001 3.5358-4.9149 4.3563c-1.5148 0.82049-8.6752 5.5699-15.912 10.554-7.2368 4.9844-13.659 9.0625-14.27 9.0625-0.6119 0-1.3001 0.51688-1.5293 1.1486-0.2291 0.63174-2.757 2.4599-5.6175 4.0625-11.481 6.4327-22.924 13.886-22.924 14.931 0 0.60914-0.8438 1.1075-1.875 1.1075-1.0313 0-1.875 0.52126-1.875 1.1584 0 0.6371-2.9532 2.5988-6.5625 4.3592-8.0148 3.9092-22.658 13.136-23.229 14.637-0.2292 0.60223-0.9259 1.095-1.5483 1.095-0.6225 0-5.7787 3.2799-11.458 7.2886-5.6796 4.0087-12.787 8.6494-15.794 10.312l-5.4674 3.0239 0.7641 8.75c1.4865 17.021 2.0858 18.014 8.0764 13.394 2.5269-1.9488 9.335-6.547 15.129-10.218 13.056-8.2723 27.598-19.491 40.83-31.498 9.9204-9.002 10.389-9.2579 24.375-13.312 12.981-3.7623 20.025-6.6933 43.235-17.989 4.2484-2.0676 8.2692-3.4226 8.9351-3.011 0.6659 0.41155 1.5886 4.5474 2.0503 9.1907 0.4618 4.6433 1.06 10.411 1.3293 12.817 2.2646 20.229 4.9461 57.193 6.2484 86.132 1.0444 23.206 1.63 29.713 3.7174 41.307 1.0462 5.8104 1.9543 16.217 2.018 23.125 0.064 6.9084 0.5913 15.373 1.1724 18.811 0.5812 3.4375 1.3842 12.719 1.7846 20.625 0.9689 19.135 1.7228 23.75 3.8799 23.75 0.9709 0 1.7652 0.25506 1.7652 0.5668 0 1.4426-12.528 12.748-18.125 16.355-3.4375 2.2158-7.3377 5.2389-8.6671 6.718-1.3294 1.4792-5.3393 4.3612-8.9108 6.4047-3.5715 2.0434-8.657 5.6969-11.301 8.1188-2.6441 2.422-6.9312 5.3405-9.5267 6.4856-2.5956 1.1452-4.7192 2.4681-4.7192 2.9399 0 0.47179-1.6471 1.54-3.6602 2.3739-2.0131 0.83385-3.9357 2.2341-4.2725 3.1117s-4.1741 3.6064-8.5273 6.0641c-4.3533 2.4576-9.3213 5.7852-11.04 7.3947-1.7188 1.6094-5.2846 3.9418-7.9241 5.1831s-5.969 3.4268-7.3989 4.8566c-1.4299 1.4299-5.1766 3.9654-8.3259 5.6345-3.1494 1.6691-6.176 3.824-6.7257 4.7886-0.5498 0.96465-1.5287 1.7539-2.1754 1.7539-1.3863 0-17.75 11.034-18.785 12.667-0.3907 0.61634-0.9532 0.88155-1.25 0.58935zm7.101-10.28c3.1177-1.8271 9.2208-5.6349 13.563-8.4618 4.3418-2.8269 13.722-8.9045 20.845-13.506 11.135-7.1928 23.182-15.359 45.451-30.813 2.75-1.9083 8.6562-5.9378 13.125-8.9544 22.559-15.229 36.46-26.649 35.555-29.211-0.6765-1.9159-1.6071-10.456-1.7157-15.746-0.088-4.2954-0.1094-4.3116-2.04-1.5554-1.073 1.5319-3.673 3.6758-5.7778 4.7642s-5.6371 3.7571-7.8496 5.9304c-5.7187 5.6172-10.481 9.5612-17.557 14.539-3.3912 2.3859-7.0616 5.1984-8.1565 6.25-13.746 13.202-20.349 18.787-22.213 18.787-1.2351 0-2.78 0.51453-3.4331 1.1434-2.3682 2.2802-25.73 13.857-27.964 13.857-1.2609 0-2.9426 0.78324-3.7371 1.7405-0.7945 0.95729-3.254 2.4526-5.4656 3.3229-2.2116 0.87032-8.6949 3.7433-14.407 6.3845-5.7126 2.6412-10.804 4.8021-11.313 4.8021-1.6945 0-7.6557 3.111-7.6656 4.0004 0 0.48146 0.9746 1.4487 2.1778 2.1495 2.0433 1.1902 2.0327 1.2766-0.1615 1.3121-2.1534 0.0349-2.2742 0.74071-1.4503 8.4755 1.3846 12.999 1.3879 13.954 0.049 14.052-0.6875 0.0508-1.8125-4.8481-2.5-10.886l-1.25-10.979-4.375-0.34055c-9.1245-0.71024-22.745-2.9998-35-5.8835-4.4688-1.0515-17.406-4.097-28.75-6.7678-26.606-6.2642-58.854-14.295-73.125-18.211-6.1875-1.6977-17.719-4.845-25.625-6.9941-21.316-5.794-63.115-19.296-65.625-21.198-1.638-1.2412-25.482-9.1548-54.375-18.046-32.063-9.8669-49.645-15.541-56.25-18.152-9.6891-3.8304-23.831-7.967-46.875-13.711-5.5-1.371-16.188-4.7101-23.75-7.4203-18.969-6.7978-20.987-7.4839-55.625-18.908-46.518-15.342-61.053-19.969-70.625-22.48-4.8125-1.2624-15.219-4.6476-23.125-7.5229-39.816-14.48-49.42-17.372-64.375-19.388-11.015-1.4846-19.144-3.5233-30.601-7.6742-8.5804-3.1089-22.643-7.6156-31.25-10.015s-21.415-6.2095-28.462-8.467l-12.812-4.1045v5.8922c0 9.6048 1.762 12.718 9.3816 16.578 3.7326 1.8906 7.4213 3.4375 8.197 3.4375 0.77575 0 2.9857 1.1216 4.9109 2.4926 1.9253 1.3709 7.0746 3.3715 11.443 4.4458s10.755 3.0193 14.192 4.3223c10.122 3.8367 15.379 4.7808 31.745 5.7002 16.452 0.92431 21.911 2.6621 41.38 13.174 6.9346 3.7442 16.015 8.138 20.625 9.9798 1.375 0.54936 5.1371 2.1528 8.3603 3.5632 3.2231 1.4104 6.8794 2.7598 8.125 2.9988 10.142 1.9455 24.403 6.0055 29.847 8.4974 2.7952 1.2794 5.7212 2.3261 6.5024 2.3261 0.7811 0 6.3691 1.7443 12.418 3.8763 6.0487 2.132 16.341 4.964 22.873 6.2935 6.5312 1.3295 18.906 4.6149 27.5 7.3009 8.5938 2.686 18.58 5.5355 22.191 6.3321 3.6115 0.79662 6.8791 1.9544 7.2613 2.5728 0.38221 0.61843 1.6461 1.1279 2.8086 1.1321 1.1626 0.004 3.6288 0.7981 5.4804 1.7642 1.8517 0.96605 9.1642 3.5511 16.25 5.7445s16.54 5.6832 21.008 7.7551c4.4688 2.0719 11.5 4.629 15.625 5.6826s8.625 2.5874 10 3.4084c2.7796 1.6597 9.0343 3.455 19.375 5.5612 16.334 3.3268 30.666 7.8471 65.496 20.656 4.7416 1.7437 9.9809 3.1704 11.643 3.1704s8.7514 2.1382 15.754 4.7516c11.434 4.2672 17.367 6.1053 33.982 10.528 8.0711 2.1484 15.742 4.6952 18.357 6.0947 1.3388 0.7165 5.0686 1.7848 8.2885 2.374 3.2199 0.58921 10.354 2.4561 15.854 4.1487 5.5 1.6925 15.344 4.603 21.875 6.4678 16.141 4.6084 42.482 12.72 53.125 16.359 4.8125 1.6456 21.688 5.5608 37.5 8.7003 15.812 3.1396 36.878 7.659 46.812 10.043 9.9344 2.3842 20.612 4.6408 23.727 5.0148 3.1153 0.37396 5.9248 0.94046 6.2432 1.2589 0.3184 0.31841 1.0538-0.26963 1.6342-1.3068 0.5804-1.0371 3.6061-3.3806 6.7238-5.2077zm-14.394-27.056c0.2191-9.5089 0.023-12.566-1.9849-30.92-1.0905-9.9688-2.2637-22.625-2.6072-28.125s-1.1355-12.531-1.76-15.625c-1.2887-6.3842-2.2421-16.513-3.1768-33.75-0.3541-6.5312-1.171-16.094-1.8154-21.25-0.6443-5.1562-1.5234-21.75-1.9535-36.875-0.89-31.299-2.3978-51.755-3.9132-53.092-0.996-0.87873-17.87-7.0806-33.536-12.326-11.123-3.7241-27.149-8.4085-41.25-12.057-15.74-4.0726-35.604-10.475-52.865-17.039-26.136-9.939-35.308-12.275-65.885-16.779-13.174-1.9406-29.474-6.2621-46.875-12.428-30.758-10.899-39.189-13.729-58.125-19.511-25.63-7.827-45.299-13.005-58.75-15.467-17.286-3.164-36.177-7.841-41.946-10.385-16.403-7.2331-35.602-12.211-68.892-17.86-7.0964-1.2044-42.732-13.07-48.452-16.134-1.6718-0.89527-5.8906-2.3599-9.375-3.2548-11.712-3.0078-46.328-13.833-51.983-16.256-3.0812-1.3203-8.6959-4.0052-12.477-5.9666-3.7812-1.9614-13.062-5.4616-20.625-7.7783-7.5625-2.3167-17.406-5.5851-21.875-7.2632-20.803-7.812-82.698-23.497-84.725-21.47-1.2753 1.2753-1.3731 40.261-0.13815 55.067 1.4824 17.772 2.2261 41.712 3.0674 98.75 0.37521 25.438 0.99207 47.094 1.3708 48.125 0.37873 1.0312 0.59199 6.2906 0.47392 11.687-0.1197 5.4713 0.27742 9.5083 0.89762 9.125 0.61176-0.37809 4.7271 0.4697 9.1452 1.884s9.7204 3.0394 11.783 3.6115c2.0625 0.57208 9.0938 2.5148 15.625 4.3172 15.954 4.4026 17.033 4.7318 35 10.68 21.199 7.0184 23.885 7.8143 27.5 8.1482 1.7188 0.15874 7.3438 0.67177 12.5 1.1401 9.5621 0.86845 10.204 1.0443 20 5.476 3.0938 1.3997 9.1406 3.5113 13.438 4.6925 4.2969 1.1812 7.8125 2.6179 7.8125 3.1927 0 0.57478 1.0848 1.0451 2.4107 1.0451s3.154 0.74091 4.0625 1.6465c0.90849 0.90555 3.9018 2.2612 6.6518 3.0124 2.75 0.75127 7.8738 2.4641 11.386 3.8064 3.5125 1.3422 8.575 2.8291 11.25 3.3041 2.675 0.47501 8.5199 2.2006 12.989 3.8347 12.121 4.4322 27.474 9.4175 33.125 10.756 2.75 0.65145 6.125 1.714 7.5 2.3613 1.375 0.64725 5.9306 2.2663 10.124 3.5979 4.193 1.3316 9.3682 3.3232 11.5 4.4258 2.1322 1.1026 5.1704 2.0239 6.7514 2.0472 1.581 0.0234 5.1246 1.1292 7.8746 2.4576s6.9318 2.4343 9.2928 2.4576c2.3611 0.0234 6.5798 1.1205 9.375 2.4382 9.3507 4.4081 21.501 8.8542 24.196 8.8542 1.4675 0 5.5223 1.125 9.0107 2.5s7.6155 2.5 9.1713 2.5 3.3932 0.5645 4.0832 1.2544c1.4905 1.4905 12.363 4.3599 21.121 5.5739 3.4375 0.47654 7.4958 1.6664 9.0185 2.644 1.5227 0.97768 3.7882 1.7776 5.0344 1.7776s3.443 0.82451 4.8818 1.8322 4.7983 2.3948 7.4656 3.0824c5.7985 1.4947 31.305 9.903 34.85 11.488 1.375 0.61492 7.5625 2.4678 13.75 4.1176s17.058 5.02 24.157 7.4894 13.956 4.4899 15.239 4.4899c1.2823 0 2.6791 0.5625 3.104 1.25s1.7454 1.25 2.9345 1.25c1.189 0 4.3685 1.125 7.0655 2.5s5.7972 2.5 6.8893 2.5 2.5201 0.4935 3.1732 1.0967c1.5333 1.416 15.251 6.3919 19.312 7.0055 6.6243 1.0006 13.474 3.0894 22.411 6.8338 5.1074 2.1399 11.857 4.4948 15 5.2331 5.5531 1.3046 13.072 3.5019 29.151 8.5184 4.2968 1.3406 13.156 3.558 19.688 4.9274 6.5312 1.3695 19.469 4.4012 28.75 6.7371 9.2812 2.3359 21.938 5.5175 28.125 7.0702 6.1875 1.5527 17.156 3.9529 24.375 5.3339 7.2187 1.381 14.337 3.0796 15.818 3.7748 1.4813 0.69518 3.1688 0.98677 3.75 0.64796s2.1418-0.22183 3.4681 0.25997 5.6857 0.96624 9.6875 1.0765l7.2761 0.20053 0.122-5.2954zm-89.578-58.551c-1.2926-2.0915 0.7981-3.8491 2.7005-2.2702 1.3999 1.1618 2.7829 0.80236 6.5795-1.7102 4.1084-2.7188 4.923-4.0264 5.6041-8.9959 1.213-8.8496-2.7609-14.609-10.965-15.892-3.5695-0.55803-3.092-2.8186 0.688-3.257 4.5244-0.52471 11.858 6.4963 12.968 12.416 1.1551 6.1568-1.3029 14.41-5.0162 16.843-3.9062 2.5594-11.656 4.328-12.56 2.8662zm-5.5445-8.5461c0-0.64692 0.5625-1.5239 1.25-1.9488s1.25 0.10437 1.25 1.1762-0.5625 1.9488-1.25 1.9488-1.25-0.5293-1.25-1.1762zm12.5-6.3238c0-0.6875 0.5625-1.25 1.25-1.25s1.25 0.5625 1.25 1.25-0.5625 1.25-1.25 1.25-1.25-0.5625-1.25-1.25zm-17.5-3.75c0-0.6875 0.5625-1.25 1.25-1.25s1.25 0.5625 1.25 1.25-0.5625 1.25-1.25 1.25-1.25-0.5625-1.25-1.25zm11.25-6.3238c0-0.72808 0.5625-0.97613 1.25-0.55123s1.25 1.0206 1.25 1.3238c0 0.30318-0.5625 0.55123-1.25 0.55123s-1.25-0.5957-1.25-1.3238zm-96.754-3.4809c-0.4326-0.6999-0.1774-1.649 0.567-2.1091 1.9219-1.1878 3.1619 0.43919 1.5575 2.0436-0.8977 0.89773-1.5969 0.91929-2.1245 0.0655zm8.6293-2.6953c-0.4249-0.6875-0.3175-1.3149 0.2387-1.3942s1.6203-0.21992 2.3646-0.3125c0.7443-0.0926 3.7172-2.8973 6.6065-6.2326 3.9759-4.5898 5.0545-6.7173 4.4363-8.75-1.1589-3.8104-3.8704-6.5914-8.1586-8.3676-2.0387-0.84446-3.4866-2.1615-3.2175-2.9267 1.2639-3.5939 11.031 2.3723 13.452 8.2172 1.8544 4.477 0.8091 6.9487-6.3769 15.079-5.1552 5.8326-7.8131 7.1659-9.3448 4.6875zm-13.125-13.75c0-0.6875 0.5625-1.25 1.25-1.25s1.25 0.5625 1.25 1.25-0.5625 1.25-1.25 1.25-1.25-0.5625-1.25-1.25zm16.25-1.8012c0-1.0718 0.5625-1.9488 1.25-1.9488s1.25 0.5293 1.25 1.1762c0 0.64692-0.5625 1.5239-1.25 1.9488s-1.25-0.10438-1.25-1.1762zm-77.5-5.6988c0-0.6875 0.67871-1.25 1.5082-1.25 2.5 0 9.6415-9.0982 10.462-13.329 1.0752-5.5428-0.30048-8.8898-4.559-11.092-2.0138-1.0414-3.6614-2.4414-3.6614-3.1113 0-2.4267 4.0239-1.1363 7.5962 2.436 3.8744 3.8744 4.8013 9.5811 2.4896 15.327-2.6715 6.6406-13.836 15.532-13.836 11.019zm66.25-3.75c0-0.6875 0.5957-1.25 1.3237-1.25 0.7281 0 0.9762 0.5625 0.5513 1.25s-1.0206 1.25-1.3238 1.25-0.5512-0.5625-0.5512-1.25zm-65-8.75c0-0.6875 0.87695-1.25 1.9488-1.25s1.6011 0.5625 1.1762 1.25-1.3018 1.25-1.9488 1.25c-0.64693 0-1.1762-0.5625-1.1762-1.25zm-17.5-1.25c0-0.6875 0.5625-1.25 1.25-1.25s1.25 0.5625 1.25 1.25-0.5625 1.25-1.25 1.25-1.25-0.5625-1.25-1.25zm182.06 0.39585c-0.4698-0.46977 0.8105-1.5541 2.8451-2.4096 4.0102-1.6862 8.8424-9.6463 8.8424-14.566 0-3.6218-6.7129-10.34-12.266-12.276-4.5761-1.5952-4.7428-4.5064-0.22-3.8425 3.8797 0.56954 10.742 6.094 13.962 11.239 2.3847 3.8112 2.4635 4.5998 0.9256 9.2599-0.9247 2.8016-3.6169 6.9738-5.9827 9.2715-4.2332 4.1113-6.4208 5.0082-8.1055 3.3234zm-12.062-5.3958c0-0.6875 0.8437-1.25 1.875-1.25 1.0312 0 1.875 0.5625 1.875 1.25s-0.8438 1.25-1.875 1.25c-1.0313 0-1.875-0.5625-1.875-1.25zm-223.75-2.2661c0-0.55887 1.6068-2.5556 3.5708-4.4371 4.5474-4.3567 7.0872-12.232 5.1266-15.895-0.76921-1.4373-3.2836-3.4008-5.5875-4.3635-4.9008-2.0477-6.7311-4.2901-3.4961-4.2834 3.5013 0.007 10.28 4.6445 11.861 8.1138 1.8375 4.0329-0.1287 10.957-4.8955 17.239-3.179 4.1895-6.579 6.0638-6.579 3.6268zm-12.5-1.4839c0-0.6875 0.5625-1.25 1.25-1.25s1.25 0.5625 1.25 1.25-0.5625 1.25-1.25 1.25-1.25-0.5625-1.25-1.25zm249.38-3.75c-0.4249-0.6875 0.1376-1.25 1.25-1.25s1.6749 0.5625 1.25 1.25-0.9874 1.25-1.25 1.25-0.8251-0.5625-1.25-1.25zm-173.75-1.25c0.4249-0.6875 1.3018-1.25 1.9488-1.25 0.64693 0 1.1762 0.5625 1.1762 1.25s-0.87695 1.25-1.9488 1.25-1.6011-0.5625-1.1762-1.25zm-64.947-3.6636c-0.85385-1.3815 1.118-2.8733 2.2723-1.7191 1.1885 1.1885 0.96699 2.8827-0.37687 2.8827-0.64693 0-1.4998-0.52364-1.8954-1.1636zm218.07-0.0864c0-0.6875 0.5957-1.25 1.3237-1.25 0.7281 0 0.9762 0.5625 0.5513 1.25s-1.0206 1.25-1.3238 1.25-0.5512-0.5625-0.5512-1.25zm-232.5-1.25c0-0.6875 0.5957-1.25 1.3238-1.25 0.72808 0 0.97613 0.5625 0.55123 1.25s-1.0206 1.25-1.3238 1.25c-0.30318 0-0.55123-0.5625-0.55123-1.25zm241.44-2.4375c0.5371-1.6114 2.2516-1.9009 2.4062-0.40625 0.052 0.49844-0.5812 1.1312-1.4062 1.4062s-1.275-0.175-1-1zm-302.69-5.484c0-0.23185 2.25-2.7868 5-5.6776 8.1905-8.61 6.5919-16.689-4.0625-20.533-2.4014-0.86634-3.0059-3.3676-0.81391-3.3676 0.75547 0 3.3559 0.94067 5.7788 2.0904 5.1223 2.4307 8.3929 8.8315 7.2264 14.143-0.91251 4.1546-8.8381 13.767-11.351 13.767-0.97769 0-1.7776-0.18969-1.7776-0.42154zm-10.625-2.0785c0.4249-0.6875 1.6163-1.25 2.6475-1.25s1.5274 0.5625 1.1025 1.25-1.6163 1.25-2.6475 1.25-1.5274-0.5625-1.1025-1.25zm240.63-1.0388c0-0.57132 1.4254-1.8017 3.1677-2.7341 4.82-2.5796 8.5458-9.2755 6.8864-12.376-1.5616-2.9178-9.0088-8.8511-11.11-8.8511-0.7945 0-1.4445-0.5625-1.4445-1.25 0-2.9835 5.4063-0.81863 10.756 4.3069 4.9966 4.7876 5.6876 6.0423 4.991 9.0625-1.1471 4.974-13.247 15.79-13.247 11.842zm-158.75-2.7112c0-0.6875 0.5625-1.25 1.25-1.25s1.25 0.5625 1.25 1.25-0.5625 1.25-1.25 1.25-1.25-0.5625-1.25-1.25zm151.28-1.9052c0.8697-1.0479 1.8386-1.6478 2.1533-1.3332 0.8668 0.86688-0.8945 3.2384-2.4052 3.2384-0.8288 0-0.734-0.71722 0.2519-1.9052zm-224.4-5.5948c0.4249-0.6875 1.0206-1.25 1.3238-1.25 0.30318 0 0.55123 0.5625 0.55123 1.25s-0.5957 1.25-1.3238 1.25c-0.72808 0-0.97613-0.5625-0.55123-1.25zm-16.875-2.5c0-0.6875 0.5625-1.25 1.25-1.25s1.25 0.5625 1.25 1.25-0.5625 1.25-1.25 1.25-1.25-0.5625-1.25-1.25zm232.5-1.25c0-0.6875 0.8769-1.25 1.9487-1.25 1.0719 0 1.6012 0.5625 1.1763 1.25s-1.3019 1.25-1.9488 1.25-1.1762-0.5625-1.1762-1.25zm17.5-0.0738c0-0.72808 0.5625-0.97612 1.25-0.55123 0.6875 0.4249 1.25 1.0206 1.25 1.3238 0 0.30317-0.5625 0.55122-1.25 0.55122s-1.25-0.5957-1.25-1.3238zm-239.09-4.4314c-0.50131-0.5013-0.91146-1.774-0.91146-2.8281 0-1.407 0.36979-1.5469 1.3906-0.52604 0.76484 0.76484 1.175 2.0375 0.91147 2.8281-0.26355 0.79062-0.88933 1.0273-1.3906 0.52604zm-70.911-2.9508c0-0.66332 1.162-1.8279 2.5821-2.5879 2.6517-1.4192 7.4179-10.955 7.4179-14.842 0-2.6874-5.0596-7.6143-7.8193-7.6143-2.6507 0-4.0693-2.3614-2.4133-4.0174 1.6358-1.6358 9.5192 3.0165 12.298 7.2574 1.7448 2.6629 1.747 3.5168 0.0219 8.5796-2.2389 6.571-7.8818 14.43-10.361 14.43-0.94965 0-1.7266-0.54271-1.7266-1.206zm240.71 0.10112c-0.37559-0.60771 1.024-1.812 3.1102-2.6761 4.1695-1.727 7.3143-6.6966 6.704-10.594-0.46214-2.9517-7.2613-9.375-9.9236-9.375-1.0204-0.00003-1.8553-0.84378-1.8553-1.875 0-3.1876 3.151-2.0924 9.1354 3.1752 5.1664 4.5477 5.6811 5.4895 5.1722 9.4642-0.77659 6.0656-2.4978 8.8819-6.7826 11.098-4.2559 2.2008-4.6498 2.2563-5.5604 0.78302zm58.035-2.6451c0-0.6875 0.5625-1.25 1.25-1.25s1.25 0.5625 1.25 1.25-0.5625 1.25-1.25 1.25-1.25-0.5625-1.25-1.25zm-310-2.5c0-0.6875 0.5625-1.25 1.25-1.25s1.25 0.5625 1.25 1.25-0.5625 1.25-1.25 1.25-1.25-0.5625-1.25-1.25zm241.88 0c-0.4249-0.6875-0.17685-1.25 0.55123-1.25 0.72807 0 1.3238 0.5625 1.3238 1.25s-0.24805 1.25-0.55123 1.25c-0.30317 0-0.89887-0.5625-1.3238-1.25zm159.38-3.75c0-0.6875 0.8357-1.25 1.8572-1.25s3.3435-2.2458 5.16-4.9907c5.7561-8.698 2.6963-20.987-5.9958-24.081-0.9055-0.32231-1.2269-1.0356-0.7142-1.5852 1.5922-1.7066 7.0778 1.658 9.691 5.9439 1.72 2.8212 2.4939 6.3018 2.4971 11.232 0 6.2118-0.5016 7.7206-3.8748 11.562-3.633 4.1378-8.6205 5.9709-8.6205 3.1685zm-150-1.25c0-0.6875 0.5625-1.25 1.25-1.25s1.25 0.5625 1.25 1.25-0.5625 1.25-1.25 1.25-1.25-0.5625-1.25-1.25zm-242.19-1.5625c0.28614-0.85938 1.5807-1.768 2.8769-2.0192 2.0389-0.39509 2.1307-0.18442 0.68086 1.5625-1.9828 2.3891-4.3002 2.6865-3.5577 0.45668zm222.19-2.8863c0-1.0718 0.57168-1.5954 1.2704-1.1636 0.69871 0.43183 0.94677 1.3088 0.55122 1.9488-1.0715 1.7338-1.8216 1.4105-1.8216-0.78514zm161.25-3.0512c0-0.6875 0.5625-1.25 1.25-1.25s1.25 0.5625 1.25 1.25-0.5625 1.25-1.25 1.25-1.25-0.5625-1.25-1.25zm-397.5-1.25c0-0.6875 0.5625-1.25 1.25-1.25s1.25 0.5625 1.25 1.25-0.5625 1.25-1.25 1.25-1.25-0.5625-1.25-1.25zm161.25-1.1762c0-0.64692 0.5625-1.5239 1.25-1.9488s1.25 0.10437 1.25 1.1762-0.5625 1.9488-1.25 1.9488-1.25-0.5293-1.25-1.1762zm18.75 0.15123c0-0.56375 1.9688-3.325 4.375-6.1362s4.375-6.2002 4.375-7.5313c0-2.5629-2.9267-5.6639-6.5625-6.9533-2.6277-0.93188-2.9177-3.3542-0.4015-3.3542 2.0679 0 10.714 7.81 10.714 9.6779 0 1.726-10.169 15.322-11.46 15.322-0.57203 0-1.04-0.46125-1.04-1.025zm70-0.225c0-0.6875 0.87695-1.25 1.9488-1.25s1.6011 0.5625 1.1762 1.25-1.3018 1.25-1.9488 1.25c-0.64693 0-1.1762-0.5625-1.1762-1.25zm156.25-1.25c0-0.6875 0.8437-1.25 1.875-1.25 1.0312 0 1.875 0.5625 1.875 1.25s-0.8438 1.25-1.875 1.25c-1.0313 0-1.875-0.5625-1.875-1.25zm-496.06-3.6875c0.275-0.825 0.90781-1.4578 1.4062-1.4062 1.4946 0.15461 1.2052 1.8691-0.40625 2.4062-0.825 0.275-1.275-0.175-1-1zm13.59 0.25c0.0149-0.51563 1.8087-1.7812 3.9862-2.8125 2.1775-1.0312 5.0609-3.386 6.4076-5.2329 2.1207-2.9084 2.2429-3.854 0.9133-7.064-0.84432-2.0384-2.8962-4.9848-4.5596-6.5475-3.4031-3.197-3.8551-4.9056-1.2978-4.9056 2.7468 0 8.4785 8.4908 9.1304 13.526 0.50947 3.9353-0.0301 5.2764-3.7368 9.287-2.8811 3.1173-5.4273 4.6875-7.6012 4.6875-1.7979 0-3.2567-0.42188-3.2419-0.9375zm83.723-2.0833c0-1.0885 0.89062-1.9792 1.9792-1.9792s1.7565 0.66796 1.4844 1.4844c-0.77259 2.3178-3.4635 2.7022-3.4635 0.49479zm167.5-1.9792c0-0.6875 0.5625-1.25 1.25-1.25s1.25 0.5625 1.25 1.25-0.5625 1.25-1.25 1.25-1.25-0.5625-1.25-1.25zm232.5-1.8012c0-1.0718 0.5625-1.9488 1.25-1.9488s1.25 0.5293 1.25 1.1762c0 0.64692-0.5625 1.5239-1.25 1.9488s-1.25-0.10438-1.25-1.1762zm-16.25-1.9488c0-0.6875 0.8437-1.25 1.875-1.25 1.0312 0 1.875 0.5625 1.875 1.25s-0.8438 1.25-1.875 1.25c-1.0313 0-1.875-0.5625-1.875-1.25zm-233.75-1.1362c0-0.58174 0.84375-1.758 1.875-2.6138 1.5264-1.2668 1.875-1.2039 1.875 0.33821 0 1.0419-0.84375 2.2181-1.875 2.6138-1.0312 0.39572-1.875 0.24352-1.875-0.33821zm-233.75-1.3638c0-0.6875 0.5625-1.25 1.25-1.25s1.25 0.5625 1.25 1.25-0.5625 1.25-1.25 1.25-1.25-0.5625-1.25-1.25zm-15.489-1.0302c-0.4409-0.71339-0.19254-1.6735 0.55191-2.1336 1.8576-1.1481 2.5152-0.235 1.2755 1.771-0.66419 1.0747-1.3084 1.2025-1.8274 0.36268zm426.17-1.3774c-0.4623-0.74806 0.039-1.6374 1.1136-1.9763 1.0749-0.3389 2.767-0.86786 3.7603-1.1755 2.6297-0.81439 3.7752-8.7696 1.9109-13.27-1.5501-3.7423-6.7693-7.4202-10.53-7.4202-1.0653 0-1.937-0.5625-1.937-1.25 0-2.0852 5.0825-1.4029 9.3929 1.261 5.222 3.2274 7.3776 8.4239 6.3401 15.284-0.4433 2.9314-1.2171 5.9882-1.7195 6.7931-1.3206 2.1154-7.3266 3.3799-8.3314 1.754zm-483.77-2.49c-0.39645-0.64147 0.32412-1.9079 1.6013-2.8143 1.2772-0.90642 3.8528-4.0829 5.7236-7.0588 4.1555-6.6101 3.5745-11.164-2.0254-15.876-2.6344-2.2167-3.4338-3.6331-2.5494-4.5175 0.88434-0.88433 2.5325-0.17638 5.2568 2.2579 5.8306 5.21 6.4332 11.818 1.762 19.321-3.9242 6.303-8.6469 10.503-9.7688 8.6879zm250.57-0.92305c0-0.78528 1.9725-3.7888 4.3834-6.6744s4.7229-6.5992 5.1378-8.2524c0.85465-3.4052-1.9037-8.4178-5.7712-10.488-1.375-0.73588-2.5-1.8807-2.5-2.544 0-2.481 3.3952-1.0661 7.4292 3.0959 3.7506 3.8696 4.0985 4.8323 3.4617 9.5796-0.5505 4.1043-1.9788 6.5485-6.4244 10.994-3.1441 3.1441-5.7165 5.074-5.7165 4.2887zm223.75-0.41432c0-0.6875 0.5957-1.25 1.3237-1.25 0.7281 0 0.9762 0.5625 0.5513 1.25s-1.0206 1.25-1.3238 1.25-0.5512-0.5625-0.5512-1.25zm-150.42-0.83334c-0.45834-0.45832-0.83334-1.4146-0.83334-2.125 0-0.78325 0.58221-0.70945 1.4792 0.1875 0.81355 0.81355 1.1886 1.7698 0.83334 2.125-0.35521 0.35521-1.0208 0.27084-1.4792-0.1875zm-382.08-4.8c0-1.0312 0.57077-1.875 1.2684-1.875 2.2283 0 6.2221-7.9741 6.227-12.433 0.005-4.6199-4.9908-13.058-9.0021-15.205-1.2723-0.68089-1.9821-1.7738-1.5774-2.4287 1.2907-2.0884 5.5824 1.2265 9.418 7.2747 4.9265 7.7683 4.8859 13.693-0.14395 21.004-3.8896 5.6534-6.19 7.0145-6.19 3.6627zm298.75 0.55123c0-0.72808 0.5625-0.97613 1.25-0.55123s1.25 1.0206 1.25 1.3238c0 0.30318-0.5625 0.55123-1.25 0.55123s-1.25-0.5957-1.25-1.3238zm-248.75-1.73c0-1.0718 0.5625-1.9488 1.25-1.9488s1.25 0.5293 1.25 1.1762c0 0.64692-0.5625 1.5239-1.25 1.9488s-1.25-0.10438-1.25-1.1762zm79.324 0.46807c-0.45316-0.73324-0.52379-1.6333-0.15694-2.0002 0.8954-0.89539 3.3333 0.68229 3.3333 2.1571 0 1.5975-2.158 1.4908-3.1764-0.15693zm393.18 0.0832c0-0.6875 0.5957-1.25 1.3237-1.25 0.7281 0 0.9762 0.5625 0.5513 1.25s-1.0206 1.25-1.3238 1.25-0.5512-0.5625-0.5512-1.25zm20-1.875c0-1.0312 0.5448-1.875 1.2107-1.875 0.666 0 0.887 0.84375 0.4913 1.875s-0.9406 1.875-1.2108 1.875-0.4912-0.84375-0.4912-1.875zm-484.32-0.52c-0.40248-0.65121-0.19897-1.5133 0.45225-1.9158 0.65121-0.40248 1.5133-0.19897 1.9158 0.45225 0.40248 0.65121 0.19897 1.5133-0.45225 1.9158-0.65121 0.40248-1.5133 0.19897-1.9158-0.45225zm-66.316-1.3568c-0.4249-0.6875 0.1044-1.25 1.1762-1.25s1.9488 0.5625 1.9488 1.25-0.5293 1.25-1.1762 1.25c-0.64692 0-1.5239-0.5625-1.9488-1.25zm317.5-1.25c-0.4249-0.6875-0.17685-1.25 0.55123-1.25 0.72807 0 1.3238 0.5625 1.3238 1.25s-0.24805 1.25-0.55123 1.25c-0.30317 0-0.89887-0.5625-1.3238-1.25zm163.75-0.002c-0.42569-0.68879 0.66611-1.7999 2.4262-2.4691 2.9069-1.1052 3.2002-1.8572 3.2002-8.2048 0-3.8435-0.54609-8.0085-1.2135-9.2556-1.6231-3.0331-10.143-6.3185-16.386-6.3185-3.0474 0-4.7423-0.49548-4.2759-1.25 1.2807-2.0722 10.896-1.3558 16.61 1.2374 3.8955 1.768 5.8698 3.6536 7.2273 6.9026 1.0272 2.4585 1.5665 4.9574 1.1983 5.5532-0.36815 0.59569-0.76083 3.417-0.87261 6.2697-0.14348 3.6617-0.95893 5.7159-2.7735 6.9869-3.0364 2.1268-4.095 2.2396-5.1405 0.54796zm-183.12-2.498c0-0.6875 0.5625-1.25 1.25-1.25s1.25 0.5625 1.25 1.25-0.5625 1.25-1.25 1.25-1.25-0.5625-1.25-1.25zm165.68-1.1636c-0.39555-0.64-0.14749-1.5169 0.55122-1.9488 0.69871-0.43182 1.2704 0.0917 1.2704 1.1636 0 2.1957-0.75007 2.5189-1.8216 0.78515zm79.947-1.3364c0.4249-0.6875 1.0206-1.25 1.3237-1.25 0.3032 0 0.5513 0.5625 0.5513 1.25s-0.5957 1.25-1.3238 1.25-0.9761-0.5625-0.5512-1.25zm-538.14-1.77c0-1.0885 0.89063-1.9792 1.9792-1.9792 1.0885 0 1.7565 0.66796 1.4844 1.4844-0.77259 2.3178-3.4635 2.7022-3.4635 0.49479zm60.729 0.6886c-0.53847-0.87125-0.64145-1.9217-0.22887-2.3343 1.1187-1.1187 2.3385 0.52662 1.7342 2.3393-0.4234 1.2702-0.71784 1.2692-1.5054-0.005zm-11.979-3.219c0-1.0718 0.5625-1.9488 1.25-1.9488s1.25 0.5293 1.25 1.1762c0 0.64692-0.5625 1.5239-1.25 1.9488s-1.25-0.10438-1.25-1.1762zm422.5 0.55123c0-0.6875 0.5625-1.25 1.25-1.25s1.25 0.5625 1.25 1.25-0.5625 1.25-1.25 1.25-1.25-0.5625-1.25-1.25zm-169.13-0.79935c-0.99866-0.99866 0.13024-2.9506 1.7065-2.9506 0.64693 0 1.1762 0.84375 1.1762 1.875 0 1.933-1.475 2.4834-2.8827 1.0756zm-312.12-2.94c0-0.6875 0.5625-1.25 1.25-1.25s1.25 0.5625 1.25 1.25-0.5625 1.25-1.25 1.25-1.25-0.5625-1.25-1.25zm242.5 0.49295c0-0.41639 1.4062-2.4283 3.125-4.4709 1.9556-2.3242 3.125-5.2618 3.125-7.8505 0-3.5216-0.66986-4.4545-4.5048-6.2743-2.9695-1.4091-4.0835-2.5589-3.2686-3.3738 1.3863-1.3863 7.5417 1.3101 10.141 4.4424 2.3466 2.8275 0.59149 10.793-3.2651 14.818-3.137 3.2743-5.3528 4.3956-5.3528 2.7088zm-12.5-2.993c0-0.6875 0.5625-1.25 1.25-1.25s1.25 0.5625 1.25 1.25-0.5625 1.25-1.25 1.25-1.25-0.5625-1.25-1.25zm-216.82-1.17c-0.85383-1.3815 1.118-2.8733 2.2723-1.7191 1.1885 1.1885 0.96699 2.8827-0.37688 2.8827-0.64692 0-1.4998-0.52364-1.8954-1.1636zm446.82 0.15153c0-0.67124 0.89075-1.5622 1.9794-1.98 1.2174-0.46717 1.7888-0.1878 1.4844 0.72563-0.62284 1.8686-3.4638 2.8974-3.4638 1.2544zm19.375-3.9879c-0.4249-0.6875-0.17685-1.25 0.55123-1.25 0.72807 0 1.3238 0.5625 1.3238 1.25s-0.24805 1.25-0.55123 1.25c-0.30317 0-0.89887-0.5625-1.3238-1.25zm-242.5-1.25c-0.4249-0.6875-0.17685-1.25 0.55122-1.25 0.72808 0 1.3238 0.5625 1.3238 1.25s-0.24805 1.25-0.55123 1.25c-0.30317 0-0.89887-0.5625-1.3238-1.25zm163.84-4.8558c-0.33876-0.54814 1.0495-2.2279 3.085-3.7328 3.1113-2.3003 3.7009-3.5995 3.7009-8.1552 0-6.1063-3.6938-12.006-7.517-12.006-2.6459 0-4.357-1.9668-2.6362-3.0303 2.1135-1.3062 9.6657 2.8412 11.165 6.1313 2.3302 5.1142 1.9107 16.149-0.69911 18.39-2.8879 2.4803-6.3304 3.6456-7.0984 2.4029zm-246.3-1.33c-0.40737-0.65916 0.67358-2.1251 2.4021-3.2577 7.2165-4.7284 10.393-15.595 6.2759-21.473-1.051-1.5005-3.8635-3.0945-6.25-3.5422-2.4783-0.46493-4.3391-1.5584-4.3391-2.5499 0-2.3235 2.0915-2.1502 8.3512 0.69181 8.627 3.9168 9.6822 13.211 2.667 23.491-3.9046 5.7216-7.8822 8.6216-9.1072 6.6395zm66.839-0.0583c0-0.6875 0.84375-1.25 1.875-1.25s1.875 0.5625 1.875 1.25-0.84375 1.25-1.875 1.25-1.875-0.5625-1.875-1.25zm167.5-2.5c0-0.6875 0.5957-1.25 1.3238-1.25 0.72808 0 0.97613 0.5625 0.55123 1.25s-1.0206 1.25-1.3238 1.25c-0.30318 0-0.55123-0.5625-0.55123-1.25zm-242.5-2.5c0-0.6875 0.5625-1.25 1.25-1.25s1.25 0.5625 1.25 1.25-0.5625 1.25-1.25 1.25-1.25-0.5625-1.25-1.25zm238.75-1.9488c0-1.0718 0.5625-1.6011 1.25-1.1762s1.25 1.3018 1.25 1.9488c0 0.64693-0.5625 1.1762-1.25 1.1762s-1.25-0.87695-1.25-1.9488zm-153.75-1.25c0-1.0718 0.5625-1.6011 1.25-1.1762s1.25 1.3018 1.25 1.9488c0 0.64693-0.5625 1.1762-1.25 1.1762s-1.25-0.87695-1.25-1.9488zm166.88-0.55123c-0.4249-0.6875 0.1376-1.25 1.25-1.25s1.6749 0.5625 1.25 1.25-0.9874 1.25-1.25 1.25-0.8251-0.5625-1.25-1.25zm-262.5-5c-0.4249-0.6875 0.41885-1.25 1.875-1.25s2.2999 0.5625 1.875 1.25-1.2686 1.25-1.875 1.25c-0.60635 0-1.4501-0.5625-1.875-1.25zm17.5-1.25c0.4249-0.6875 1.3018-1.25 1.9488-1.25 0.64693 0 1.1762 0.5625 1.1762 1.25s-0.87695 1.25-1.9488 1.25-1.6011-0.5625-1.1762-1.25zm237.51-2.5204c0.43183-0.69871 1.3088-0.94677 1.9488-0.55122 1.7338 1.0715 1.4105 1.8216-0.78515 1.8216-1.0718 0-1.5954-0.57167-1.1636-1.2704zm-61.02-2.0878c-0.43288-0.70042 0.0208-2.3407 1.0082-3.6451 1.0092-1.3332 1.8126-5.2146 1.835-8.8644 0.0454-7.4223-3.6413-13.111-8.7407-13.486-4.1266-0.30403-4.7412-3.1458-0.6804-3.1458 1.9316 0 5.0234 1.6462 7.63 4.0625 3.8765 3.5935 4.4474 4.9314 4.9445 11.589 0.48377 6.4783 0.16028 8.0298-2.3238 11.145-1.629 2.043-3.2285 3.0645-3.6728 2.3456zm-13.367-2.8918c0-0.6875 0.5625-1.25 1.25-1.25s1.25 0.5625 1.25 1.25-0.5625 1.25-1.25 1.25-1.25-0.5625-1.25-1.25zm-244.3-3.6241c-0.38209-0.61823 1.3806-2.9462 3.917-5.1732 4.482-3.9352 4.6137-4.2982 4.6834-12.905l0.0718-8.8555-4.7107-3.0707c-3.1538-2.0559-4.211-3.3795-3.1989-4.005 4.1252-2.5495 12.312 6.8434 12.266 14.072-0.037 5.7258-3.1612 13.118-7.2116 17.062-4.4918 4.3747-4.7964 4.5253-5.8166 2.8746zm68.047-1.3759c0-0.6875 0.5625-1.25 1.25-1.25s1.25 0.5625 1.25 1.25-0.5625 1.25-1.25 1.25-1.25-0.5625-1.25-1.25zm162.5-1.25c0-0.6875 0.5625-1.25 1.25-1.25s1.25 0.5625 1.25 1.25-0.5625 1.25-1.25 1.25-1.25-0.5625-1.25-1.25zm18.75 0c0-0.6875 0.87695-1.25 1.9488-1.25s1.6011 0.5625 1.1762 1.25-1.3018 1.25-1.9488 1.25c-0.64693 0-1.1762-0.5625-1.1762-1.25zm-260-3.75c0-0.6875 0.5293-1.25 1.1762-1.25 0.64693 0 1.5239 0.5625 1.9488 1.25s-0.10438 1.25-1.1762 1.25-1.9488-0.5625-1.9488-1.25zm-45-4.9962c0-0.92507 0.9-2.6764 2-3.8919 5.2001-5.7461-0.49055-21.112-7.8187-21.112-1.7722 0-2.9313-0.74138-2.9313-1.875 0-3.4711 5.8203-2.0547 10.408 2.5329 4.8369 4.8369 6.4931 9.8549 5.3187 16.115-0.77717 4.1427-6.9766 11.457-6.9766 8.231zm211.25-0.004c0-0.6875 0.5625-1.25 1.25-1.25s1.25 0.5625 1.25 1.25-0.5625 1.25-1.25 1.25-1.25-0.5625-1.25-1.25zm-216.25-1.24c0-0.6875 0.5957-1.25 1.3238-1.25 0.72808 0 0.97613 0.5625 0.55123 1.25s-1.0206 1.25-1.3238 1.25c-0.30317 0-0.55123-0.5625-0.55123-1.25zm237.37-3.1685c8.3695-9.5323 2.9968-23.469-8.4406-21.894-0.9323 0.12833-1.4507-0.50814-1.1521-1.4144 1.4042-4.2613 11.208-0.64089 15.339 5.6648 4.2976 6.5589-1.0183 22.062-7.5648 22.062-1.5722 0-1.1407-1.0485 1.8182-4.4185zm-176.75 1.9185c0.4249-0.6875 1.335-1.25 2.0225-1.25s0.90236 0.5625 0.47746 1.25-1.335 1.25-2.0225 1.25-0.90236-0.5625-0.47746-1.25zm238.12-0.625c0-1.0312 0.5625-1.875 1.25-1.875s1.25 0.84375 1.25 1.875-0.5625 1.875-1.25 1.875-1.25-0.84375-1.25-1.875zm-310-0.625c0-0.6875 0.87695-1.25 1.9488-1.25s1.6011 0.5625 1.1762 1.25-1.3018 1.25-1.9488 1.25c-0.64692 0-1.1762-0.5625-1.1762-1.25zm58.75-6.25c0-0.6875 0.81055-1.25 1.8012-1.25 0.99068 0 2.1489 0.5625 2.5738 1.25s-0.38565 1.25-1.8012 1.25-2.5738-0.5625-2.5738-1.25zm-43.75-3.75c0-0.6875 0.5625-1.25 1.25-1.25s1.25 0.5625 1.25 1.25-0.5625 1.25-1.25 1.25-1.25-0.5625-1.25-1.25zm56.25-0.69877c0-1.0718 0.5625-1.6011 1.25-1.1762s1.25 1.3018 1.25 1.9488c0 0.64693-0.5625 1.1762-1.25 1.1762s-1.25-0.87695-1.25-1.9488zm150 0.69877c0-0.6875 0.5293-1.25 1.1762-1.25 0.64693 0 1.5239 0.5625 1.9488 1.25s-0.10438 1.25-1.1762 1.25-1.9488-0.5625-1.9488-1.25zm16.25-1.25c0-0.6875 0.5625-1.25 1.25-1.25s1.25 0.5625 1.25 1.25-0.5625 1.25-1.25 1.25-1.25-0.5625-1.25-1.25zm-235-1.25c0-0.6875 0.5625-1.25 1.25-1.25s1.25 0.5625 1.25 1.25-0.5625 1.25-1.25 1.25-1.25-0.5625-1.25-1.25zm163.76-9.56c0-0.43679 1.4062-2.0974 3.125-3.6903 3.6334-3.3673 3.9228-6.5641 1.0993-12.14-2.9556-5.8367-5.5178-8.3729-8.4805-8.3946-3.9977-0.0292-6.656-2.0687-4.9369-3.7877 1.0085-1.0085 1.6505-1.0234 2.2508-0.052 0.46192 0.7474 2.1077 1.3589 3.6572 1.3589 2.8006 0 7.4854 4.3261 10.473 9.6705 2.453 4.3888 1.9612 12.431-0.9375 15.329-2.3654 2.3654-6.25 3.4256-6.25 1.7058zm-27.5-4.2058c0-0.6875 0.84375-1.25 1.875-1.25s1.875 0.5625 1.875 1.25-0.84375 1.25-1.875 1.25-1.875-0.5625-1.875-1.25zm23.75-10.074c0-0.72807 0.5625-0.97612 1.25-0.55122s1.25 1.0206 1.25 1.3238c0 0.30318-0.5625 0.55123-1.25 0.55123s-1.25-0.5957-1.25-1.3238zm-16.771-3.5085c-0.53846-0.87125-0.64145-1.9217-0.22886-2.3343 1.1187-1.1187 2.3385 0.52662 1.7342 2.3393-0.4234 1.2702-0.71783 1.2692-1.5054-0.005zm-54.783-4.6385c-0.3964-0.39639 0.42763-3.3167 1.8311-6.4896 2.2315-5.0447 2.3559-6.3272 0.99108-10.217-2.4443-6.9658-7.2139-11.323-12.395-11.323-4.0547 0-4.2471-0.16189-2.3946-2.0144 3.8004-3.8004 12.263 0.78281 16.959 9.1849 2.2284 3.987 1.8879 10.117-0.90384 16.267-2.4663 5.4334-2.8336 5.8459-4.0877 4.5918zm-7.196-10.529c0-0.6875 0.5625-1.25 1.25-1.25s1.25 0.5625 1.25 1.25-0.5625 1.25-1.25 1.25-1.25-0.5625-1.25-1.25zm-17.5-3.75c-1.6024-1.0355-1.5569-1.2145 0.3125-1.2309 1.2031-0.01 2.1875 0.54336 2.1875 1.2309 0 1.5245-0.14099 1.5245-2.5 0zm10.625-5c0.4249-0.6875 1.0206-1.25 1.3238-1.25 0.30318 0 0.55123 0.5625 0.55123 1.25s-0.5957 1.25-1.3238 1.25c-0.72807 0-0.97612-0.5625-0.55122-1.25zm-56.384-4.4772c0.4173-1.0875 0.75873-2.5269 0.75873-3.1988 0-0.67185 0.56648-0.87144 1.2588-0.44354 2.7308 1.6878 2.6769-3.6463-0.0967-9.5682-3.2665-6.974-4.4763-7.8892-12.1-9.152-7.8702-1.3037-6.7348-3.5861 1.25-2.5126 7.8064 1.0495 8.6645 1.6544 12.773 9.0048 3.4976 6.258 3.8763 9.1601 1.7276 13.242-2.2931 4.3565-7.106 6.6267-5.5716 2.6281zm-13.616-1.7728c0.4249-0.6875 1.0206-1.25 1.3238-1.25 0.30318 0 0.55123 0.5625 0.55123 1.25s-0.59569 1.25-1.3238 1.25c-0.72807 0-0.97613-0.5625-0.55123-1.25zm9.375-5c0-0.6875 0.5625-1.25 1.25-1.25s1.25 0.5625 1.25 1.25-0.5625 1.25-1.25 1.25-1.25-0.5625-1.25-1.25zm-6.875-7.5c-0.4249-0.6875-0.17684-1.25 0.55123-1.25 0.72808 0 1.3238 0.5625 1.3238 1.25s-0.24805 1.25-0.55123 1.25c-0.30317 0-0.89887-0.5625-1.3238-1.25zm721.91 373.12c6.9015-3.1018 13.514-6.1633 14.695-6.8033 1.181-0.64001 7.8721-3.7184 14.869-6.8409 22.09-9.8579 34.48-16.975 42.299-24.298 4.1364-3.8739 14.538-12.387 23.114-18.919 8.5762-6.5312 18.004-14.266 20.95-17.188 2.946-2.9219 5.9041-5.3125 6.5735-5.3125s1.2089-0.98438 1.1989-2.1875c-0.019-2.2966-5.7144-62.497-7.5389-79.688-1.3313-12.544-2.1594-25.196-3.1091-47.5-0.4098-9.625-2.1149-29.875-3.789-45-1.6742-15.125-3.0442-29.328-3.0444-31.562-0.0005-4.8172-1.7283-5.1555-8.0874-1.5838-2.4272 1.3632-4.413 2.1956-4.413 1.8496 0-0.34598-2.3907 0.62258-5.3125 2.1524-5.1401 2.6912-5.9678 3.0284-8.255 3.3631-0.5871 0.086-2.5848 1.5625-4.4394 3.2812-1.8546 1.7188-4.265 3.125-5.3565 3.125s-7.4962 1.7008-14.233 3.7797c-12.45 3.8421-17.429 7.1077-33.687 22.098-4.9594 4.5725-23.401 18.303-26.216 19.519-1.0313 0.44539-6.6563 4.1929-12.5 8.3278-5.8438 4.1349-11.408 7.5197-12.365 7.5218-1.4351 0.002-1.5922 2.5748-0.8978 14.691 0.4629 8.0781 1.1199 25.938 1.4599 39.688 0.3401 13.75 0.8549 26.688 1.1442 28.75 0.5381 3.8366 0.8576 7.5044 3.2122 36.875 0.7441 9.2812 1.877 18.844 2.5175 21.25 0.6406 2.4062 1.1678 9.2603 1.1716 15.231 0 5.9709 0.5026 12.16 1.1083 13.753 0.6057 1.5932 1.4812 9.3286 1.9455 17.19 0.4644 7.8613 1.0625 14.646 1.3291 15.078 0.2667 0.43146 0.6039 3.5608 0.7494 6.954 0.2583 6.0237 0.7144 8.0445 1.8156 8.0445 0.2989 0 6.1901-2.5378 13.092-5.6396zm18.364-49.673c-1.1445-0.85938-2.8832-3.8642-3.8637-6.6774-1.5874-4.5544-1.5492-5.8047 0.3483-11.41 1.1721-3.4623 3.1139-7.7951 4.3152-9.6284 3.2616-4.9778 12.053-7.7837 12.053-3.8468 0 1.1054-1.1544 1.8828-2.8125 1.8941-3.715 0.0253-4.8744 0.92106-8.8448 6.8335-6.6005 9.8289-3.2427 21.868 6.1128 21.916 2.8287 0.0148 3.2399 0.29678 1.7945 1.2309-2.6043 1.683-6.6295 1.5448-9.1032-0.3125zm24.103-6.0113c0-0.72808 0.5625-0.97613 1.25-0.55123s1.25 1.0206 1.25 1.3238c0 0.30318-0.5625 0.55123-1.25 0.55123s-1.25-0.5957-1.25-1.3238zm-14.309-2.3195c-0.4025-0.65121-0.199-1.5133 0.4522-1.9158 0.6512-0.40248 1.5133-0.19897 1.9158 0.45225 0.4025 0.65121 0.1989 1.5133-0.4523 1.9158-0.6512 0.40248-1.5133 0.19897-1.9157-0.45225zm-1.1953-11.161c-0.4326-0.6999-0.1774-1.649 0.567-2.1091 1.9219-1.1878 3.1619 0.43919 1.5575 2.0436-0.8977 0.89773-1.5969 0.91929-2.1245 0.0655zm12.445-3.8385c-0.4025-0.65121-0.199-1.5133 0.4522-1.9158 0.6512-0.40248 1.5133-0.19897 1.9158 0.45225 0.4025 0.65121 0.1989 1.5133-0.4523 1.9158-0.6512 0.40248-1.5133 0.19897-1.9157-0.45225zm46.406 0.20574c-1.5184-2.5846-7.0967-45.806-7.0967-54.986 0-7.0872-0.097-7.0082 10.355-8.4293 3.3019-0.44893 7.7846-0.21738 10.01 0.51704 6.9097 2.2804 7.5986 4.6885 8.1605 28.526 0.588 24.95 0.4116 25.501-10.108 31.534-6.4693 3.7101-10.252 4.6585-11.321 2.8383zm11.401-6.5233c2.8175-2.0409 5.7331-4.8515 6.4793-6.2457 1.7519-3.2735 1.783-34.758 0.041-41.229-1.0724-3.9826-2.1132-5.15-5.6243-6.3088-4.8527-1.6015-14.88-0.55649-16.795 1.7503-0.7895 0.95135-0.8261 4.382-0.1018 9.5516 0.6215 4.4369 1.47 11.442 1.8855 15.567 1.0243 10.17 3.1289 23.553 3.811 24.235 1.076 1.076 0.5424-17.283-0.7783-26.779-2.0907-15.031-2.098-16.07-0.1303-18.393 2.4486-2.8907 9.2478-2.8286 11.906 0.10863 2.9768 3.2893 5.5582 34.775 3.2983 40.231-2.1716 5.2428-7.7492 9.019-11.814 7.9988-2.6037-0.6535-3.0582-0.42714-2.4299 1.2102 1.1543 3.008 4.5292 2.4495 10.253-1.6967zm0.047-7.6356c2.6876-3.9385 2.8571-5.1233 2.1327-14.904-1.163-15.699-2.065-21.25-3.453-21.25-0.683 0-0.8876 0.92299-0.4547 2.0511s0.3834 3.2375-0.11 4.6875c-0.8134 2.3903-0.974 2.2864-1.7211-1.1136-0.7984-3.6334-0.8567-3.5751-1.8743 1.875l-1.0502 5.625-1.4717-7.5c-1.3603-6.9321-1.4819-7.1214-1.6059-2.5-0.074 2.75 0.6804 11.75 1.6758 20s1.8274 15.75 1.8488 16.667c0.063 2.6906 2.9386 0.97095 6.0837-3.638zm-5.1902-7.8816c-0.47-1.2246-0.8188-3.1649-0.7752-4.3118 0.053-1.3811 0.4866-1.0662 1.2857 0.93264 0.6636 1.6598 1.0124 3.6002 0.7752 4.3118-0.2372 0.71164-0.8158 0.29196-1.2857-0.93264zm0.752-31.82c-2.7172-0.63779-3.4175 0.74083-1.5309 3.014 1.5386 1.8539 1.752 1.8299 2.5074-0.28229 0.5352-1.4964 0.1916-2.4575-0.9765-2.7317zm-83.843 16.724c-5.2526-6.6777-5.9352-10.401-3.3021-18.01 1.7615-5.0907 3.561-7.7438 6.6609-9.8204 4.2758-2.8644 12.628-3.9196 12.628-1.5954 0 0.6875-1.1806 1.25-2.6236 1.25-5.1361 0-11.199 3.9924-13.797 9.085-3.0826 6.0423-2.3891 11.666 2.0956 16.996 1.6914 2.0101 3.0753 3.9954 3.0753 4.4118 0 1.7564-2.4909 0.53801-4.7365-2.3168zm12.236-5.6024c0-0.64692 0.5625-1.5239 1.25-1.9488s1.25 0.10437 1.25 1.1762-0.5625 1.9488-1.25 1.9488-1.25-0.5293-1.25-1.1762zm13.75-0.0738c0-0.6875 0.5957-1.25 1.3237-1.25 0.7281 0 0.9762 0.5625 0.5513 1.25s-1.0206 1.25-1.3238 1.25-0.5512-0.5625-0.5512-1.25zm-18.75-12.5c0-0.6875 0.5625-1.25 1.25-1.25s1.25 0.5625 1.25 1.25-0.5625 1.25-1.25 1.25-1.25-0.5625-1.25-1.25zm13.75-2.5c0-0.6875 0.5625-1.25 1.25-1.25s1.25 0.5625 1.25 1.25-0.5625 1.25-1.25 1.25-1.25-0.5625-1.25-1.25zm51.735-9.6593c-5.3369-0.94884-9.4084-7.0128-10.432-15.537-1.2372-10.305-0.5268-14.511 3.3057-19.569 5.3556-7.0682 12.676-8.3358 20.979-3.6328 6.8391 3.8735 10.158 9.3002 11.173 18.266 0.7416 6.5548 0.4872 8.0527-2.0186 11.886-3.7336 5.7116-15.17 9.9796-23.007 8.5862zm12.855-5.2634c7.6821-3.4879 9.6513-7.2191 8.803-16.68-0.6304-7.0315-1.1407-8.1576-5.3523-11.813-4.9102-4.2612-11.047-6.1361-15.48-4.7292-8.7082 2.7639-12.38 23.71-5.5744 31.798 3.8906 4.6238 9.5475 5.0811 17.604 1.4232zm-14.278-3.3068c-3.7726-2.9732-4.0625-3.7346-4.0625-10.668 0-6.3405 0.4816-7.9478 3.1943-10.661 2.7091-2.7092 3.8891-3.0639 7.7693-2.336 9.7398 1.8272 12.363 4.4877 12.96 13.144 0.4773 6.9241-0.238 8.8261-4.2359 11.264-5.5156 3.3629-10.73 3.115-15.625-0.74316zm11.366-0.65861c4.3118-1.9646 6.312-6.3528 5.4151-11.88-0.68-4.1906-2.4542-6.6598-4.8234-6.7129-0.47-0.01-1.0888 1.5277-1.3752 3.4184-0.4847 3.1994-0.5337 3.1562-0.708-0.625-0.3057-6.6294-3.908-4.26-3.9565 2.6022-0.014 1.9306-0.3189 2.2375-1.0612 1.067-0.5731-0.90381-0.7662-3.0866-0.4289-4.8506 0.4333-2.2667 0.135-3.048-1.0171-2.6639-0.8966 0.29887-1.7893 1.6277-1.9838 2.953-0.1946 1.3252-0.9468 2.6072-1.6718 2.8489-0.7249 0.24165-1.318 2.6017-1.318 5.2445 0 3.7022 0.7559 5.3998 3.2935 7.3958 3.7573 2.9555 5.3516 3.1545 9.6353 1.2026zm-2.9288-7.3619c0-1.375 0.2156-2.5 0.4792-2.5 0.2635 0 0.7734 1.125 1.133 2.5 0.3595 1.375 0.1439 2.5-0.4793 2.5-0.6231 0-1.1329-1.125-1.1329-2.5zm5.29-3.75c0-2.4062 0.2572-3.3906 0.5716-2.1875s0.3144 3.1719 0 4.375-0.5716 0.21875-0.5716-2.1875zm-93.034-11.618c-4.3713-3.6848-6.0064-7.2373-6.0064-13.05 0-7.6204 7.207-17.243 14.688-19.611 4.2391-1.3417 3.3845 1.238-1.0136 3.0598-4.0496 1.6774-9.0477 7.382-10.933 12.478-1.5394 4.1614 0.4764 11.053 4.4719 15.29 4.0301 4.2728 3.1944 5.5424-1.2064 1.8327zm17.744-5.956c0-0.72808 0.5625-0.97613 1.25-0.55123s1.25 1.0206 1.25 1.3238c0 0.30318-0.5625 0.55123-1.25 0.55123s-1.25-0.5957-1.25-1.3238zm-10-4.9262c0-0.6875 0.5625-1.25 1.25-1.25s1.25 0.5625 1.25 1.25-0.5625 1.25-1.25 1.25-1.25-0.5625-1.25-1.25zm14.375-7.5c0.4249-0.6875 1.0206-1.25 1.3237-1.25 0.3032 0 0.5513 0.5625 0.5513 1.25s-0.5957 1.25-1.3238 1.25-0.9761-0.5625-0.5512-1.25zm-13.125-3.75c0-0.6875 0.5625-1.25 1.25-1.25s1.25 0.5625 1.25 1.25-0.5625 1.25-1.25 1.25-1.25-0.5625-1.25-1.25zm63.656-3.2219c-2.872-3.0535-3.0516-4.1655-3.4355-21.274-0.4557-20.306 1.2914-28.75 6.6785-32.28 5.6124-3.6774 11.739-1.9857 14.892 4.1121 2.4359 4.7105 3.1746 41.949 0.9142 46.088-3.6667 6.7143-14.152 8.5602-19.049 3.3536zm7.5946-0.52811c0-0.6875-0.5625-1.25-1.25-1.25s-1.25 0.5625-1.25 1.25 0.5625 1.25 1.25 1.25 1.25-0.5625 1.25-1.25zm-5.9441-5.625c-0.3286-1.7188-1.0163-3.125-1.5283-3.125s-0.6621 1.4062-0.3336 3.125c0.3286 1.7188 1.0163 3.125 1.5284 3.125 0.512 0 0.6621-1.4062 0.3335-3.125zm11.929 0.3125c2.5185-3.0477 3.0754-10.461 1.0761-14.327-1.4735-2.8495-2.7692-3.6935-5.6702-3.6935-6.0386 0-7.5407 6.0228-4.3385 17.396 0.7275 2.5837 6.9539 3.0194 8.9326 0.625zm-9.7219-19.077 2.642-2.8123-3.8276-1.3343-3.8276-1.3343 0.1075 7.7475c0.089 6.391 0.2962 7.117 1.1856 4.1466 0.5929-1.9805 2.267-4.8664 3.7201-6.4132zm14.347-0.29846c-0.2303-1.2031-0.4618-6.0176-0.5144-10.699-0.065-5.8229-0.5275-8.2444-1.463-7.6662-0.752 0.46479-1.1635 2.9819-0.9145 5.5936 0.2491 2.6117-0.017 4.4583-0.5909 4.1034-0.5741-0.35481-0.9086-3.9597-0.7432-8.0109 0.1653-4.0512-0.078-7.7448-0.5417-8.2081-0.4633-0.46327-0.8423 0.93895-0.8423 3.116 0 2.1771-0.6344 3.9583-1.4098 3.9583-0.9446 0-1.146-1.6496-0.6102-5 0.4628-2.8943 0.2979-5-0.3915-5-1.858 0-2.5607 1.8173-3.1553 8.1607-0.3028 3.2303-0.9405 6.2312-1.417 6.6688-0.4766 0.43753-0.5283-2.1972-0.1149-5.855 0.5554-4.9141 0.3564-6.5208-0.7624-6.1536-1.9156 0.62871-2.5808 6.1262-1.5627 12.915 0.6372 4.249 1.4735 5.5419 4.3577 6.7365 1.963 0.81311 4.8477 2.8394 6.4104 4.5029 3.3553 3.5716 4.8451 3.8639 4.2656 0.83699zm-11.663-9.0625c0-1.7188 0.2838-2.4219 0.6305-1.5625 0.3468 0.85937 0.3468 2.2656 0 3.125-0.3467 0.85937-0.6305 0.15625-0.6305-1.5625zm-4.4095-1.5625c-0.4145-1.5469-0.8174-3.9375-0.8954-5.3125-0.118-2.0829-0.3086-1.9786-1.1424 0.625-1.6348 5.1047-1.3887 7.5 0.7708 7.5 1.4856 0 1.8211-0.74484 1.267-2.8125zm-111.49 5.7376-0.8913-9.8001-13.892-4.81c-7.6405-2.6455-18.673-6.5133-24.517-8.595-5.8438-2.0817-12.594-4.2498-15-4.818-2.4063-0.56815-10.281-3.0384-17.5-5.4895-7.2188-2.4511-15.094-5.0416-17.5-5.7568-2.4063-0.71518-7.75-2.5756-11.875-4.1343-24.915-9.4147-51.914-16.471-81.875-21.4-6.4058-1.0537-31.461-6.9323-34.375-8.0651-1.375-0.53458-3.9062-1.6018-5.625-2.3715-1.7188-0.76975-11.562-4.2624-21.875-7.7615-10.312-3.4991-24.375-8.5439-31.25-11.211-17.442-6.7658-33.648-12.463-35.453-12.463-0.83693 0-3.6086-1.0456-6.1594-2.3234-7.7888-3.9021-31.041-11.322-47.138-15.041-3.4375-0.79433-11.875-3.0558-18.75-5.0254s-16.438-4.2312-21.25-5.0256c-4.8125-0.79445-10.719-1.9554-13.125-2.5799-14.946-3.8791-27.176-6.4831-38.125-8.1179-12.272-1.8324-21.311-3.4362-28.75-5.1011-9.7986-2.1932-36.836-10.918-53.527-17.272-16.319-6.2132-27.25-9.8028-40.223-13.209-11.54-3.0298-36.963-12.183-54.97-19.791-4.1085-1.7359-9.1347-3.35-11.169-3.5869-4.4615-0.51946-13.549-3.2119-46.187-13.685-13.655-4.3814-25.327-7.6573-25.937-7.2797-1.7246 1.0659-1.338 18.5 0.46494 20.966 1.4503 1.9834 10.435 4.7642 22.799 7.0567 2.75 0.50986 9.5 2.1784 15 3.7079s11.029 2.9884 12.287 3.242c3.5686 0.7195 7.4806 1.8762 10.213 3.0198 1.375 0.57552 5.875 1.9998 10 3.1651s10.594 3.2465 14.375 4.625c3.7812 1.3784 13.062 4.4745 20.625 6.8802 7.5625 2.4056 19.938 7.392 27.5 11.081 7.5625 3.6888 17.979 7.8195 23.147 9.1794 5.1683 1.3599 15.519 4.478 23.002 6.9291 7.4826 2.4511 14.785 4.6859 16.228 4.9663 1.4429 0.28033 4.5922 1.34 6.9985 2.3548 12.123 5.1127 40.05 14.616 45 15.314 3.0938 0.43592 11.25 1.919 18.125 3.2957s15.888 3.1791 20.029 4.0054c4.1407 0.82624 8.2078 1.922 9.0379 2.4351 0.83016 0.51306 5.8798 2.3022 11.221 3.9759 5.3416 1.6737 13.733 4.454 18.647 6.1786 4.9141 1.7246 17.466 4.8304 27.893 6.9018 29.048 5.7707 46.143 10.393 84.089 22.738 8.0664 2.6242 15.294 4.7713 16.061 4.7713 0.76726 0 3.1675 0.81412 5.3339 1.8092 4.9412 2.2695 14.892 5.811 33.356 11.872 13.297 4.3645 20.522 5.9201 49.958 10.756 9.7547 1.6026 13.844 2.4594 26.25 5.4993 2.4062 0.58965 7.4687 2.2921 11.25 3.7832 16.739 6.6008 50.337 18.115 60.625 20.777 6.1875 1.6008 14.906 4.0067 19.375 5.3466 4.4687 1.3399 12.625 3.6828 18.125 5.2066s12.215 3.8235 14.922 5.1104c2.7072 1.287 5.6883 2.3399 6.6245 2.3399 0.9363 0 3.5025 0.94431 5.7027 2.0985 3.6258 1.9019 12.153 4.1125 13.159 3.4113 0.2245-0.15651 0.01-4.6946-0.483-10.085zm16.618-24.899c10.151-6.5858 20.864-13.617 23.806-15.625s5.735-3.6509 6.2067-3.6509 8.4708-4.9894 17.776-11.088c9.3051-6.0982 22.262-14.389 28.793-18.425 20.86-12.888 41.153-27.747 41.212-30.175 0.021-0.85937-1.2277-1.6088-2.7745-1.6653-4.8304-0.17653-10.196-1.2645-11.531-2.3382-0.7046-0.56654-8.0311-3.127-16.281-5.6898-8.25-2.5629-17.531-5.6516-20.625-6.8637-16.648-6.5231-23.742-9.427-29.496-12.074-3.5039-1.6122-6.8228-2.9312-7.3755-2.9312-0.5526 0-3.8733-1.3598-7.3793-3.0218-11.17-5.2948-18.671-8.3857-26.375-10.868-4.125-1.329-9.1875-3.2036-11.25-4.1659-2.0625-0.96224-6.7985-2.9478-10.524-4.4123-3.7259-1.4645-9.0696-3.7022-11.875-4.9726-27.525-12.465-32.429-14.049-67.601-21.839-15.674-3.4714-42.223-10.164-46.875-11.816-3.9792-1.4133-13.975-4.4007-27.5-8.2185-5.8438-1.6496-14.281-4.1105-18.75-5.4686-4.4688-1.3582-11.219-3.1608-15-4.0059-3.7812-0.8451-14.469-4.0514-23.75-7.1251-14.444-4.7833-30.764-9.5534-37.5-10.96-1.0312-0.21537-9.5768-2.4242-18.99-4.9085-9.4133-2.4843-19.538-5.0176-22.5-5.6295-2.9617-0.61191-10.166-2.5421-16.01-4.2892-5.8438-1.7471-14.562-4.3549-19.375-5.795-19.703-5.896-53.28-14.905-65-17.439-6.875-1.4868-14.469-3.2272-16.875-3.8676-2.4062-0.64037-16.188-3.4415-30.625-6.2248-14.438-2.7832-31.875-6.1772-38.75-7.542-16.7-3.3154-17.848-3.5261-23.7-4.3488-6.6662-0.9373-34.526-6.7473-35.632-7.4309-1.5786-0.97564-24.323-6.6724-30.043-7.5248-3.0938-0.46104-8.8943-1.6588-12.89-2.6618l-7.2651-1.8236-8.3229 5.9918c-11.726 8.4418-15.09 10.466-35.272 21.23-3.0938 1.65-7.0957 3.9589-8.8933 5.1309s-6.0163 3.779-9.375 5.7933c-8.3383 5.0008-20.554 13.348-23.599 16.125-5.5144 5.0303-21.549 16.715-28.689 20.905-4.1632 2.4434-7.5694 5.1963-7.5694 6.1176 0 0.978 3.3812 2.6905 8.125 4.1153 4.4688 1.3421 14.576 4.6662 22.46 7.3868 7.8842 2.7206 18.572 6.1169 23.75 7.5473 25.617 7.0761 29.734 8.3181 33.79 10.193 8.5231 3.9396 27.161 10.602 49.375 17.649 12.375 3.926 25.594 8.2508 29.375 9.6105 36.363 13.076 42.867 15.241 65.625 21.837 3.4375 0.99636 16.094 3.4684 28.125 5.4935 12.031 2.025 26.656 4.8263 32.5 6.2251 5.8438 1.3988 16.812 3.6773 24.375 5.0634 7.5625 1.3861 17.125 3.5754 21.25 4.8651s8.9062 2.6981 10.625 3.1298c23.429 5.884 20.493 4.8965 96.875 32.59 25.588 9.2772 30.527 11.032 51.25 18.211 11.805 4.0893 26.216 7.5066 49.375 11.709 25.221 4.576 39.907 8.6788 82.5 23.047 12.031 4.0587 30.875 10.283 41.875 13.833 11 3.5492 25.062 8.3383 31.25 10.642 6.1875 2.3041 11.663 4.2407 12.168 4.3036s9.2238-5.274 19.375-11.86zm-222.18-96.7c-2.578-1.4078-10.414-3.8193-12.589-3.874-0.98244-0.0248-3.3014-1.2904-5.1533-2.8125l-3.3671-2.7676 4.2867-6.7887c3.9073-6.1879 4.3722-8.0836 2.0308-8.2819-1.1152-0.0945-9.0641-1.8461-11.636-2.5642-3.675-1.0261-3.5632-5.5032 0.34389-13.773 3.6295-7.6818 5.1469-9.2446 6.6363-6.8347 0.38512 0.62314 3.0902 1.9699 6.0113 2.9928s6.2408 2.2398 7.3773 2.7042c1.6163 0.66052 2.9448-0.94013 6.1002-7.3498 5.6984-11.575 5.8475-11.648 16.557-8.1362 10.843 3.5558 12.422 4.5826 11.504 7.4773-0.38724 1.2201-0.0764 2.6063 0.69087 3.0804 0.93164 0.57579 0.53336 1.6648-1.1992 3.2789-5.3895 5.0211-1.789 9.7001 9.0254 11.729 5.0225 0.94223 6.7608 2.3988 4.5174 3.7853-1.025 0.63348-1.004 1.1147 0.077 1.7832 1.0868 0.67166 0.7894 2.2068-1.1165 5.7627-1.4289 2.666-2.598 5.793-2.598 6.949 0 2.7401-2.3549 3.4958-6.25 2.0057-1.7187-0.65756-4.8125-1.4552-6.875-1.7726s-5.45-1.0242-7.5278-1.5706c-2.4622-0.64755-4.2508-0.48716-5.1362 0.46059-1.6732 1.7911-6.3541 10.525-7.2348 13.5-0.705 2.3809-1.604 2.585-4.4762 1.0165zm3.9743-12.267c4.7642-10.948 6.085-11.338 20.173-5.9581 6.8733 2.6249 9.0074 2.0499 9.9626-2.6845 0.3934-1.9497 1.0728-4.4687 1.5098-5.5977 0.6086-1.5725-0.4676-2.5043-4.6-3.9826-2.967-1.0614-7.5039-2.2725-10.082-2.6914-2.5781-0.41887-4.6802-1.158-4.6713-1.6424 0.009-0.48447 1.6381-4.2559 3.6204-8.3809s3.3621-7.8992 3.0662-8.387c-0.29589-0.48788-3.6154-1.8571-7.3767-3.0428-6.6333-2.091-6.8934-2.0831-8.6571 0.26205-1.0001 1.3298-2.8078 5.1229-4.0172 8.4292-3.0569 8.3574-4.2721 9.0936-10.7 6.4829-11.347-4.6087-11.893-4.6073-15.436 0.0381-1.7764 2.3289-2.8907 4.783-2.4763 5.4536 0.4144 0.67054 3.9782 1.9114 7.9196 2.7574 3.9414 0.84606 8.1506 2.029 9.3537 2.6289 2.5784 1.2854 2.867 4.2123 0.55498 5.628-2.8576 1.7498-7.333 11.626-5.5553 12.26 8.7415 3.1155 11.805 4.095 13.196 4.2191 0.89804 0.0801 2.7955-2.5262 4.2165-5.7918zm-68.97-24.25c-5.1562-1.3252-12.469-3.2675-16.25-4.3163-3.7812-1.0488-7.7188-2.0308-8.75-2.1822-5.3118-0.77976-17.48-5.3665-17.489-6.5924-0.006-0.77519-0.86138-2.1154-1.9011-2.9783-1.1223-0.93145-1.4637-2.1364-0.84025-2.9656 0.5776-0.76816 2.0351-4.0627 3.2389-7.3212s2.7334-6.2612 3.3991-6.6727c0.66575-0.41145 7.5121 1.2167 15.214 3.6182 7.702 2.4015 19.629 5.6906 26.504 7.3092l12.5 2.9429 0.40779 4.2666c0.26759 2.7998-0.75058 6.5561-2.9615 10.926-1.8531 3.6626-3.4429 6.5954-3.5328 6.5172-0.0899-0.0781-4.3822-1.2263-9.5385-2.5515zm9.2047-9.7152c1.8436-3.3873 2.9174-6.4258 2.3862-6.7522-0.53121-0.32641-8.8408-2.6418-18.466-5.1454-9.625-2.5035-20.232-5.4364-23.571-6.5175-5.7298-1.8552-6.1948-1.8346-8.2817 0.36657-1.2161 1.2827-2.5461 4.149-2.9556 6.3696l-0.74451 4.0374 12.151 3.7343c18.437 5.6662 33.245 9.9252 34.765 9.9994 0.75011 0.0366 2.8722-2.7049 4.7158-6.0922zm-114.2-2.164c-11.755-3.7424-18.755-12.104-18.743-22.39 0.0113-9.5316 2.0198-14.819 7.5178-19.786 2.7364-2.4722 4.9752-4.9947 4.9752-5.6057 0-2.1325 8.5503-5.1456 14.564-5.1322 4.4056 0.01 8.9631 1.359 16.686 4.9398 13.433 6.2284 15.414 8.9186 14.506 19.699-1.0597 12.578-5.4648 18.723-17.631 24.596-6.0174 2.9045-17.986 4.9176-21.875 3.6794zm22.31-10.85c15.306-14.452 15.009-27.16-0.83218-35.603-8.2288-4.3859-18.283-5.6307-16.927-2.0956 0.4849 1.2636-0.0595 1.875-1.6695 1.875-3.7957 0-13.803 6.9954-15.952 11.151-1.0788 2.0862-2.2911 6.8159-2.694 10.51-0.68419 6.2745-0.46573 7.0211 3.314 11.326 5.2173 5.9422 7.9402 7.385 15.579 8.2552 8.3945 0.95625 14.154-0.67055 19.182-5.4184z"/>
</svg>
