<?xml version="1.0" encoding="UTF-8" standalone="no"?>
<!-- Created with Inkscape (http://www.inkscape.org/) -->
<svg id="svg3563" xmlns:rdf="http://www.w3.org/1999/02/22-rdf-syntax-ns#" xmlns="http://www.w3.org/2000/svg" height="500.31" viewBox="0 0 882.86768 500.30862" width="882.87" version="1.1" xmlns:cc="http://creativecommons.org/ns#" xmlns:dc="http://purl.org/dc/elements/1.1/">
 <metadata id="metadata3569">
  <rdf:RDF>
   <cc:Work rdf:about="">
    <dc:format>image/svg+xml</dc:format>
    <dc:type rdf:resource="http://purl.org/dc/dcmitype/StillImage"/>
    <dc:title/>
   </cc:Work>
  </rdf:RDF>
 </metadata>
 <path id="path3573" d="m159.54 499.46c-0.6875-0.5051-2.356-3.1684-3.7078-5.9184s-4.2731-7.0758-6.4918-9.6128c-2.2187-2.5371-4.9897-6.4746-6.1578-8.75s-4.4794-7.7934-7.3586-12.262c-2.8791-4.4688-5.5876-8.9688-6.0188-10-2.2462-5.3718-11.952-19.485-14.893-21.656-3.0249-2.2327-5.7833-2.5408-26.403-2.9485-13.117-0.25941-24.401 0.0678-26.222 0.76025-2.8256 1.0743-3.6796 0.66879-7.3472-3.4888-8.7146-9.8788-10.723-12.43-20.306-25.792-5.4234-7.5625-13.007-17.017-16.853-21.011-7.446-7.7326-8.7255-11.63-5.5238-16.827 4.8513-7.875 27.304-48.775 31.174-56.786 2.1042-4.3561 2.1105-4.7613 0.10849-6.9734-1.169-1.2918-2.1255-2.8763-2.1255-3.5213 0-1.2655-13.268-21.782-19.341-29.908-2.0439-2.7347-5.47-6.6597-7.6136-8.7222-4.2342-4.0741-7.4876-8.5451-11.73-16.12l-2.73-4.87 6.4907-13.25c3.5699-7.2905 7.3177-14.204 8.3284-15.364 1.0107-1.1598 1.4978-2.6586 1.0824-3.3307-0.41538-0.6721-0.32986-1.4107 0.19005-1.6413s2.1684-2.9505 3.6633-6.0443c10.919-22.598 11.681-24.52 11.141-28.125-1.057-7.0678-4.6528-15.002-8.7809-19.375-2.2714-2.4062-6.1899-8.1183-8.7077-12.694-2.5178-4.5752-5.4031-9.0034-6.4118-9.8406-2.4152-2.0044-2.3163-7.1781 0.2262-11.841 1.1246-2.0625 3.1544-6 4.5106-8.75s3.1476-5.8438 3.9808-6.875c1.4391-1.7812 7.261-15.153 13.016-29.896 2.0196-5.1736 2.3064-7.1762 1.2156-8.4905-3.21-3.8678 0.94123-4.5366 31.624-5.0954 32.234-0.58703 35.933-1.223 39.612-6.81 1.1584-1.7593 5.4811-7.2838 9.6061-12.277 8.6983-10.528 16.775-20.826 22.25-28.369l3.8561-5.3125 19.447-0.24763c10.696-0.1362 21.697-0.33895 24.447-0.45057 2.75-0.11161 12.259-0.37479 21.13-0.58484l16.13-0.3745 10.12 10.657c5.566 5.8615 13.634 15.377 17.929 21.145 16.569 22.252 14.438 20.524 27.191 22.037 6.1875 0.7342 16.875 1.1354 23.75 0.89154 21.263-0.7542 33.406-0.77864 42.265-0.085l8.5152 0.66667 6.9314-6.5114c18.346-17.234 39.163-39.431 39.163-41.758 0-2.2438 83.776 0.44458 87.605 2.8112 0.6296 0.38911 1.1447 1.5404 1.1447 2.5585 0 2.5734 4.2559 10.57 7.3911 13.887 1.4349 1.5181 2.6089 3.4374 2.6089 4.2651s2.6719 5.9818 5.9375 11.454c3.2656 5.4718 7.8046 13.396 10.087 17.61 7.9183 14.621 1.6992 12.994 48.992 12.816l41.414-0.15526 5.0771-5.625c2.7924-3.0938 10.908-11.629 18.035-18.967 7.1269-7.3383 12.958-13.842 12.958-14.454 0-0.61123 1.6608-2.7024 3.6906-4.6472 3.4804-3.3344 4.424-3.5613 16.562-3.9824 19.469-0.67536 50.652-0.49197 59.411 0.3494l7.7891 0.74818 3.7048 7.4139c2.0376 4.0776 5.1818 9.2139 6.987 11.414 4.0837 4.9767 7.8106 10.439 14.244 20.875 5.6986 9.2446 9.8858 13.562 13.347 13.764 1.3138 0.0765 7.17 0.0865 13.014 0.0224 5.8437-0.0641 23.107-0.23925 38.363-0.38905l27.738-0.27236 3.8097 6.2865c2.0954 3.4576 5.6445 8.2866 7.887 10.731 6.408 6.9857 14.387 17.309 19.694 25.482 2.6788 4.125 6.5566 9.863 8.6172 12.751 3.4475 4.832 3.5612 5.31 1.4248 5.988-1.2769 0.40528-3.639 0.40621-5.2492 0.002-2.4691-0.61969-4.8837 1.2815-15.415 12.137-6.8681 7.0795-13.938 14.841-15.711 17.247-1.773 2.4062-5.0312 6.182-7.2405 8.3906l-4.0169 4.0156 2.5747 5.0468c1.4161 2.7758 2.1948 5.0468 1.7306 5.0468-0.4643 0 0.0007 0.98438 1.0332 2.1875 2.9252 3.4082 15.299 23.973 19.792 32.894 2.2282 4.4238 5.1012 9.3848 6.3845 11.024 3.198 4.0859 2.9912 5.0302-2.3677 10.81-5.282 5.6973-6.9457 8.1412-9.6659 14.199-1.0473 2.3322-3.8468 6.9443-6.221 10.249-5.5072 7.6653-13.162 22.823-13.162 26.062 0 1.369 2.2253 5.932 4.9451 10.14 3.0882 4.778 6.6529 13.125 9.4933 22.23 4.4203 14.169 7.7417 21.027 18.181 37.54 5.3149 8.4073 5.4745 10.763 0.8498 12.549-3.7208 1.437-7.3219 5.5394-11.621 13.239-1.9194 3.4375-5.6125 9.6896-8.2067 13.893-2.5943 4.2039-5.6268 9.8212-6.7389 12.483-2.219 5.3107-6.5406 10.499-8.7456 10.499-0.7739 0-2.1056-0.70313-2.9593-1.5625-2.1498-2.164-31.63-4.223-48.463-3.3848-9.7967 0.48781-14.485 0.22732-16.734-0.9298-5.1102-2.6286-13.87-2.0368-17.7 1.1959-7.8485 6.6238-31.05 45.944-31.05 52.621 0 4.2847-3.5695 4.9665-29.127 5.5634-13.886 0.32433-30.029 0.61793-35.873 0.65243-11.769 0.0695-31.729-1.5901-33.341-2.7721-0.5689-0.41728-2.0294-3.6765-3.2455-7.2428-1.2161-3.5662-4.2385-10.035-6.7166-14.375s-5.9163-10.422-7.6406-13.516c-14.714-26.401-15.495-27.46-18.77-25.446-2.7145 1.6687-6.5362 0.066-6.5362-2.741 0-1.3995-2.0663-1.8566-9.0625-2.0044-14.037-0.29667-23.919 0.34055-25.527 1.6459-0.9437 0.76623-2.3177 0.6563-3.8635-0.30907-4.0409-2.5236-11.398-0.38078-13.836 4.0298-1.1473 2.0756-5.663 9.1736-10.035 15.773-4.3719 6.5998-9.6391 15.133-11.705 18.963-2.0658 3.8299-5.0504 9.2134-6.6325 11.963-1.6445 2.8586-2.7014 6.4722-2.4677 8.4375 0.2553 2.1464-0.1823 3.4375-1.1651 3.4375-0.8656 0-2.1217 1.2278-2.7913 2.7283-1.2094 2.7103-1.4328 2.7271-33.718 2.5465-17.875-0.1-33.497-0.56449-34.716-1.0322-1.2188-0.46768-7.2256-0.49474-13.348-0.0601-11.075 0.78615-11.132 0.77515-11.132-2.1467 0-3.3112-4.2084-9.9634-11.568-18.286-2.7359-3.0938-6.6112-8.5099-8.6118-12.036-2.0006-3.5259-6.8928-10.276-10.872-15-6.2416-7.4108-7.7375-8.5434-10.904-8.2556-2.0183 0.18346-5.9197 0.21874-8.6697 0.0784-9.7634-0.49823-50.058 0.89463-62.876 2.1734-8.3495 0.83299-9.2824 1.2124-10.961 4.4582-1.009 1.9512-3.4541 5.3923-5.4336 7.6467-1.9794 2.2544-5.9122 8.8714-8.7395 14.704-2.8273 5.833-6.6154 13.137-8.4182 16.23-1.8027 3.0938-5.4819 9.9888-8.1759 15.322-4.3918 8.6948-5.1501 9.5626-7.3345 8.3935-1.3399-0.71709-2.4362-2.1278-2.4362-3.1348 0-2.3526-3.699-2.3526-7.0577-0.00016-1.4377 1.007-2.9854 1.4594-3.4393 1.0055-1.6881-1.6881-5.499-2.0087-20.128-1.6932-11.182 0.24118-15.53 0.7986-17.084 2.1898-1.5952 1.4289-2.6746 1.55-4.6053 0.51665-3.5127-1.8799-9.1034-1.6164-11.988 0.56513-2.7425 2.0743-3.3119 2.1729-5.0736 0.87861zm10.625-9.5123c0-1.4528-7.1163-12.966-10.141-16.406-1.2088-1.375-4.4671-7-7.2407-12.5s-7.3214-12.98-10.106-16.622c-2.7848-3.6419-7.6341-11.376-10.776-17.188-3.1421-5.8113-6.2515-10.566-6.9098-10.566-0.65831 0-1.9672 1.8281-2.9087 4.0625-1.9144 4.5436-2.3421 3.5773 13.707 30.971 4.125 7.0407 8.7523 15.039 10.283 17.774 1.5306 2.7352 4.9729 7.349 7.6496 10.253 2.6767 2.9039 5.851 6.7819 7.054 8.6179 1.6379 2.4997 3.0917 3.2692 5.7879 3.0638 1.9804-0.15089 3.6007-0.80859 3.6007-1.4615zm21.924-0.85981c0.45168-0.73083-0.0194-2.2777-1.0468-3.4375s-4.211-6.6087-7.0748-12.109c-2.8637-5.5-6.2335-11.125-7.4884-12.5s-3.5521-5.0312-5.1049-8.125-5.2646-8.1742-8.2484-11.29c-4.6741-4.8807-12.96-16.448-12.96-18.092 0-0.61832-7.7563-12.16-8.816-13.118-0.38004-0.34375-1.989-2.7606-3.5754-5.3707s-3.457-4.5548-4.1568-4.3216c-0.69978 0.23327-2.4594 2.471-3.9103 4.9727l-2.638 4.5486 2.6725 2.898c1.4699 1.5939 5.2501 7.9605 8.4004 14.148s8.064 14.062 10.919 17.5c2.8552 3.4375 6.8344 9.625 8.8424 13.75 3.7684 7.741 7.8021 13.982 16.359 25.312 4.7757 6.3232 5.176 6.5625 10.981 6.5625 3.3133 0 6.3938-0.59795 6.8454-1.3288zm34.326 0.62158c0-1.5103-3.1006-6.4111-7.4608-11.793-4.9537-6.1142-10.881-15.457-16.653-26.25-3.6574-6.8384-8.4425-14.451-20.535-32.668-3.484-5.2486-7.0943-11.717-8.023-14.375-2.3176-6.6323-11.847-26.188-15.885-32.599-4.4667-7.091-7.6057-6.8687-10.913 0.77295-1.0703 2.4728-0.81631 3.5293 1.432 5.9553 1.5033 1.622 3.0744 4.6552 3.4915 6.7404 0.41704 2.0852 2.3725 6.1553 4.3455 9.0447s5.7786 9.3653 8.4569 14.391c2.6783 5.0255 5.7226 10.088 6.7651 11.25 2.2021 2.4546 10.733 16.81 15.37 25.863 1.7605 3.4375 5.1575 8.4076 7.5488 11.045 3.9112 4.313 12.061 19.229 12.061 22.074 0 0.62248 0.74472 1.5816 1.655 2.1314 0.91022 0.54979 2.9848 2.8277 4.6101 5.0621 2.5448 3.4983 3.7036 4.0625 8.345 4.0625 2.9645 0 5.3899-0.31822 5.3899-0.70717zm-22.1-1.3596c0.44922-0.44923-0.22852-2.5586-1.5061-4.6875s-2.7088-5.504-3.1804-7.5001c-0.96595-4.0882-6.5324-12.619-10.657-16.332-1.5038-1.3539-4.6142-6.5305-6.9119-11.504-2.2977-4.9731-5.5496-10.897-7.2264-13.163-1.6768-2.2668-3.4352-4.9652-3.9076-5.9964-0.9467-2.0667-2.8384-5.2353-5.9702-10-1.1297-1.7188-3.1192-5.0938-4.4212-7.5-1.3019-2.4062-4.0763-7.0129-6.1652-10.237s-5.4197-9.2765-7.4017-13.45c-1.982-4.1733-4.1576-7.4032-4.8348-7.1775-1.3986 0.46622-6.879 10.717-6.9326 12.968-0.0194 0.81305 0.94916 1.7927 2.1523 2.177 1.2031 0.38434 3.8311 3.6566 5.84 7.2717 6.7823 12.205 14.94 24.02 24.103 34.91 5.0155 5.9606 9.1192 11.409 9.1192 12.108 0 0.69906 2.5177 4.9485 5.595 9.4433 3.0772 4.4948 6.4318 10.175 7.4545 12.623 1.9028 4.5541 2.3452 5.1791 8.8255 12.468 3.9553 4.4491 4.7072 4.8956 6.0251 3.5777zm31.855-5.7457c0.77334-1.5469 3.1852-5.9062 5.3597-9.6875 2.1745-3.7812 6.3467-11.432 9.2714-17.002 2.9248-5.57 7.3532-13.086 9.8409-16.703 5.2579-7.6436 5.3396-8.1916 1.9638-13.17-1.3986-2.0625-3.7078-6.2812-5.1316-9.375s-3.3225-6.4688-4.2192-7.5c-0.89673-1.0312-5.6398-9.75-10.54-19.375-4.9003-9.625-9.7218-18.582-10.714-19.906-1.619-2.158-3.7367-2.4403-20.577-2.7432-10.325-0.18576-19.366-0.70466-20.092-1.1531-2.7289-1.6865-31.165-3.5696-31.168-2.064-0.001 0.4762 2.7708 6.4908 6.1596 13.366 3.3888 6.875 8.7124 17.938 11.83 24.585 3.1178 6.6467 6.2704 12.457 7.0058 12.911 1.7218 1.0641 16.996 24.354 21.317 32.504 8.0087 15.105 11.861 21.551 15.462 25.871 2.1185 2.5418 5.1603 6.3387 6.7594 8.4375 3.4579 4.5383 5.5637 4.8211 7.4722 1.0035zm202.75-3.2807c0-2.8025-7.836-14.678-14.855-22.513-10.439-11.652-24.494-28.244-34.522-40.754-5.6783-7.0833-19.074-20.644-20.381-20.632-0.47684 0.004-1.8349 1.7088-3.018 3.7877-2.1401 3.7606-2.1258 3.8208 2.8125 11.889 2.7299 4.4602 4.9635 8.4027 4.9635 8.7612 0 0.93535 23.063 30.9 27.561 35.809 2.0764 2.266 4.9958 5.8948 6.4874 8.0639 1.4917 2.1691 4.1995 4.8224 6.0174 5.8963s4.6496 3.9144 6.2927 6.3124c2.5675 3.747 3.7801 4.4117 8.6268 4.7287 6.1941 0.40508 10.014-0.10975 10.014-1.3494zm20.609 1.1191c1.5749-2.5483-6.6012-13.284-31.859-41.832-3.0938-3.4968-12.642-15.068-21.217-25.713-15.077-18.715-27.703-32.513-29.693-32.45-1.0512 0.0335-5.339 8.0811-5.339 10.021 0 0.65925 0.81575 1.1986 1.8128 1.1986 0.99702 0 3.9502 2.5994 6.5625 5.7764 12.204 14.842 35.689 41.849 42.358 48.711 4.0693 4.1868 9.0845 10.088 11.145 13.115 7.4523 10.946 15.76 20.54 18.474 21.336 4.2408 1.2436 6.9219 1.1876 7.756-0.16206zm18.243-0.0258c2.6441-0.00004 3.6478-0.60339 3.6478-2.1928 0-2.2467-12.015-17.807-13.75-17.807-0.52931 0-4.7443-5.0988-9.3667-11.331-10.066-13.571-14.364-18.608-31.925-37.419-7.3808-7.9062-16.834-18.594-21.008-23.75-9.917-12.252-18.07-21.25-19.254-21.25-1.3932 0-5.9466 4.7941-5.9466 6.2609 0 0.69348 2.9531 4.5704 6.5625 8.6154s8.5312 9.7546 10.938 12.688c2.4062 2.9333 5.8299 7.072 7.6081 9.197s4.3918 5.2699 5.808 6.9887 6.1488 7.3997 10.517 12.624c18.332 21.927 26.774 31.896 29.004 34.251 1.3022 1.375 3.846 4.4902 5.6527 6.9226 7.9269 10.672 14.46 17.509 16.12 16.872 0.95929-0.36812 3.3857-0.66931 5.3919-0.66931zm187.15-0.64406c0.5367-0.44743-11.189-17.121-13.612-19.356-3.4762-3.2062-16.64-20.12-24.428-31.385-6.9642-10.075-11.134-15.265-23.652-29.438l-5.0672-5.7372-2.0244 3.0896c-1.9759 3.0157-1.8314 3.3708 6.0425 14.842 4.4368 6.4641 10.348 14.847 13.137 18.628 2.7886 3.7812 7.023 9.6875 9.4098 13.125 5.6445 8.1292 12.406 17.509 18.257 25.324 2.5781 3.4438 4.6875 6.8573 4.6875 7.5856 0 2.9246 5.0864 4.899 10.988 4.2653 3.2377-0.34762 6.0549-0.77218 6.2604-0.94347zm-251-0.52c0-0.64063-4.9328-6.9688-10.962-14.062-6.0289-7.0938-17.664-22.038-25.857-33.21-8.1923-11.172-15.258-20.312-15.702-20.312-0.92265 0-3.2409 4.4226-4.2638 8.1342-0.69721 2.5298 1.0553 5.116 9.735 14.366 2.2579 2.4062 7.5567 9.5402 11.775 15.853 4.2184 6.3131 10.528 14.469 14.021 18.125 3.4929 3.6557 6.6711 7.9123 7.0627 9.4592 0.6281 2.4809 1.5068 2.8125 7.4516 2.8125 3.7067 0 6.7395-0.52415 6.7395-1.1648zm228.03 0.0682c0.3727-0.60306-0.7128-2.9937-2.4122-5.3125s-4.7502-6.7473-6.7796-9.841c-22.59-34.438-41.355-59.476-43.01-57.388-4.4434 5.605-4.5247 6.326-1.407 12.479 1.6674 3.2905 3.5728 6.3172 4.2343 6.726 0.6615 0.40882 3.6137 5.0892 6.5604 10.401 2.9467 5.3117 6.3235 11.345 7.504 13.408 1.1805 2.0625 3.0756 5.7188 4.2114 8.125 1.1357 2.4062 3.5412 6.33 5.3456 8.7194 1.8045 2.3894 3.4527 5.4712 3.6629 6.8483 0.5717 3.746 1.6604 4.3643 9.7638 5.5456 10.341 1.5074 11.557 1.5361 12.327 0.29027zm43.22-1.2548c0-1.171-11.202-16.223-20.576-27.649-3.1024-3.7812-6.9872-8.8438-8.6328-11.25-1.6457-2.4062-4.5283-5.7812-6.4059-7.5s-5.542-6.2414-8.1431-10.05c-2.6011-3.8089-5.7179-7.7458-6.9261-8.7485s-4.4576-4.9176-7.2208-8.6996c-2.7633-3.7821-6.4011-8.2827-8.0842-10.001-1.683-1.7188-4.7073-5.5156-6.7206-8.4375-4.193-6.0851-6.3846-6.6072-9.2673-2.2076-1.9271 2.9412-1.8685 3.3879 1.112 8.4738 1.7305 2.9529 7.1331 9.9824 12.006 15.621 4.8726 5.6387 11.668 14.341 15.1 19.339 3.4324 4.9976 9.6173 13.024 13.744 17.837 7.1791 8.3719 11.154 13.258 22.624 27.812 4.9778 6.316 5.4015 6.5625 11.281 6.5625 3.3601 0 6.1093-0.49561 6.1093-1.1014zm17.475-0.46115c-0.024-1.5061-3.7516-7.443-14.35-22.855-2.75-3.9989-6.9688-10.157-9.375-13.684-4.1515-6.0856-11.635-15.254-30.003-36.758-4.4703-5.2336-10.357-12.328-13.082-15.766-6.5708-8.2897-19.298-20.625-21.28-20.625-0.8688 0-2.316 0.88735-3.2161 1.9719-2.2194 2.6742 1.8391 10.042 11.9 21.603 14.799 17.006 19.027 22.099 21.4 25.779 1.3227 2.0512 5.4986 7.0268 9.2799 11.057 3.7812 4.0302 7.1562 8.038 7.5 8.9063 0.9054 2.287 21.184 27.849 25.73 32.433 2.1201 2.1381 4.5305 5.1501 5.3565 6.6933 1.1126 2.0791 2.6236 2.8059 5.8327 2.8059 2.6447 0 4.3213-0.60836 4.3061-1.5625zm11.948-11.55c1.5915-3.5986 5.1849-10.286 7.9855-14.862 2.8005-4.5756 5.0919-8.5457 5.0919-8.8225 0-0.27682 3.0026-4.9076 6.6724-10.29 6.143-9.0107 6.5467-10.035 5.0887-12.912-5.8938-11.63-14.261-30.123-14.261-31.519 0-0.92094-0.7627-2.784-1.6948-4.1401s-2.6648-5.4188-3.8504-9.0281c-1.5382-4.6826-2.7992-6.5625-4.4022-6.5625-1.2356 0-2.9191-0.81039-3.7411-1.8009-0.9953-1.1993-2.3718-1.4764-4.1207-0.82939-1.6125 0.59649-3.9835 0.29435-6.1426-0.78275-1.934-0.96482-4.1961-1.3342-5.0268-0.82074-1.8274 1.1294-15.805 1.705-49.456 2.0366l-25.31 0.24937 6.1119 6.2864c3.3615 3.4575 8.5633 9.2263 11.56 12.82 2.9963 3.5932 12.508 14.562 21.137 24.376 13.985 15.905 22.482 26.992 32.436 42.323 10.249 15.786 15.975 22.71 17.831 21.563 0.6591-0.40733 2.5004-3.6848 4.0918-7.2834zm-227.19 2.8004c0.7061-0.85938 3.1179-4.9375 5.3596-9.0625s6.7085-11.438 9.9261-16.25c3.2177-4.8125 7.6982-12.125 9.9569-16.25 2.2586-4.125 4.934-8.9385 5.9454-10.697 1.7606-3.0608 1.5278-3.6634-5.476-14.175-4.0231-6.0382-9.3258-14.614-11.784-19.056-5.8866-10.64-10.345-15.176-12.864-13.085-1.3398 1.1119-3.5473 1.2282-7.9895 0.42078-3.6761-0.66817-7.3494-0.65422-9.1578 0.0347-1.6608 0.63273-9.1547 0.82457-16.653 0.42632-9.1951-0.48835-14.18-0.27045-15.312 0.66936-1.2255 1.0171-2.128 1.0208-3.3417 0.0135-0.91446-0.75893-7.2426-1.6662-14.062-2.0162-6.8199-0.34995-15.072-0.97566-18.337-1.3905-3.2656-0.4148-5.9375-0.39601-5.9375 0.0417 0 2.7816 12.693 17.85 36.908 43.814 21.243 22.778 26.529 28.894 28.85 33.386 2.0751 4.0162 20.344 24.618 21.901 24.699 0.4315 0.0222 1.3622-0.6626 2.0683-1.522zm-201.08-42.93c0.82844-0.82843-3.1086-8.5318-7.3598-14.4-2.0867-2.8807-3.7941-5.7535-3.7941-6.3841 0-0.63059-1.6967-3.2181-3.7705-5.75-7.7464-9.4575-21.288-28.585-24.94-35.228-2.0788-3.7812-4.662-8-5.7405-9.375-1.9475-2.4829-1.9775-2.4798-4.3799 0.45097-3.2889 4.0122-3.0452 6.9177 1.0964 13.074 1.9334 2.8739 4.9699 8.6002 6.7478 12.725 1.7778 4.125 6.3889 12.562 10.247 18.75 3.8579 6.1875 7.6866 12.656 8.5082 14.375 0.82161 1.7188 3.189 5.554 5.261 8.5228l3.7671 5.3978 6.9067-0.80674c3.7987-0.44371 7.1516-1.0516 7.4509-1.351zm32.055-1.8983c0.37705-0.61009-2.3772-5.1886-6.1207-10.174-7.5448-10.049-17.546-26.928-26.11-44.065-3.092-6.1875-7.3126-14.344-9.3792-18.125-4.1336-7.5632-18.679-28.343-20.724-29.607-1.4433-0.89198-7.1095 5.572-7.1192 8.1214-0.004 0.90193 0.83862 2.8707 1.8712 4.375 7.293 10.625 23.22 35.073 26.212 40.235 1.9923 3.4375 4.3868 7.0179 5.3212 7.9565 0.93441 0.93856 3.4238 5.1573 5.532 9.375s5.1992 9.4877 6.8687 11.711c1.6696 2.2234 3.8277 6.2875 4.7957 9.0312 0.96806 2.7438 3.6065 6.8435 5.8633 9.1104 3.3235 3.3386 4.8822 4.0308 8.2031 3.6432 2.255-0.26327 4.4084-0.9778 4.7854-1.5879zm-19.459 0.29099c0-2.5358-6.8151-16.215-10.747-21.571-2.3393-3.1868-4.2533-6.368-4.2533-7.0693 0-0.70129-3.5296-6.5322-7.8435-12.958-4.3139-6.4253-9.3854-14.214-11.27-17.307-5.9465-9.7622-6.4402-10.519-9.7779-14.995-1.7964-2.409-4.2015-6.2081-5.3446-8.4424-2.5819-5.0467-5.1262-5.172-7.6071-0.37458-2.4501 4.738-2.4014 5.8872 0.2804 6.6104 1.2031 0.32445 4.2925 4.8278 6.8653 10.007 2.5728 5.1796 6.9824 12.433 9.7991 16.118 15.806 20.681 22.398 29.661 22.398 30.511 0 0.52452 1.4062 2.7974 3.125 5.0508s3.132 4.5565 3.1407 5.118c0.0289 1.8871 7.8437 10.396 9.548 10.396 0.92751 0 1.6864-0.49251 1.6864-1.0945zm-186.25-0.71357c0-0.30692-1.9688-3.9172-4.375-8.0228s-4.375-8.242-4.375-9.192c0-0.94994-0.50996-2.2615-1.1332-2.9147-0.62328-0.65313-3.2245-5.125-5.7805-9.9375-4.162-7.82-19.803-34-28.094-47.01-13.118-20.58-18.913-30.13-19.965-32.9-1.671-4.3951-3.5175-4.0376-4.4361 0.85897-1.2049 6.4227-1.7669 5.415 25.264 45.299 2.3297 3.4375 6.0125 9.9062 8.1841 14.375s5.4501 10.375 7.2856 13.125 4.4892 7.5312 5.8971 10.625 5.1385 9.4659 8.2902 14.16c3.1517 4.6944 5.7304 9.0069 5.7304 9.5833s0.70312 1.3317 1.5625 1.6785c2.0175 0.81407 5.9375 0.99221 5.9375 0.26983zm227.5-0.46491c0-0.56261-1.9336-3.1964-4.2969-5.8528s-6.0788-7.9617-8.2566-11.79c-9.2585-16.273-11.685-20.115-20.579-32.585-5.1489-7.2188-11.424-16.781-13.944-21.25-2.5205-4.4688-7.2322-11.781-10.47-16.25-3.2382-4.4688-6.8786-10.073-8.0898-12.453-1.2112-2.3807-4.4526-6.5565-7.203-9.2796-4.734-4.6869-5.0918-4.8267-6.7054-2.6201-0.93747 1.2821-1.7045 2.7586-1.7045 3.2812 0 0.52258 4.6406 7.8688 10.312 16.325 5.6719 8.4561 11.512 17.624 12.979 20.373 1.4664 2.7493 4.9278 9.2346 7.6921 14.412 2.7642 5.1772 6.7982 12.771 8.9644 16.875 7.6442 14.483 15.8 26.516 24.718 36.468 4.2556 4.7496 5.2823 5.2619 10.647 5.3125 3.2656 0.0309 5.9375-0.40431 5.9375-0.96692zm-260-1.6811c0-0.70778-1.9926-4.467-4.428-8.3539-25.285-40.354-38.903-62.504-41.441-67.403-2.5015-4.8292-3.8948-4.6492-7.1496 0.92385l-2.4164 4.1374 2.9937 5.7623c3.9773 7.6556 9.3377 16.017 16.191 25.254 9.291 12.523 15.136 21.259 20.234 30.242 3.6605 6.449 8.3675 10.506 12.319 10.619 2.0333 0.0578 3.6969-0.47397 3.6969-1.1817zm16.777-1.3584c-0.49052-1.5469-2.0971-4.7812-3.5702-7.1875-1.4731-2.4062-4.0618-7.0469-5.7527-10.312-1.6909-3.2656-3.4972-5.9375-4.014-5.9375-0.51681 0-0.93965-0.61629-0.93965-1.3695 0-0.75325-1.0032-2.8626-2.2294-4.6875s-3.8887-6.9742-5.9167-11.443-8.4425-15.156-14.254-23.75c-5.8119-8.5938-12.758-18.859-15.437-22.812-2.6783-3.9531-5.2684-7.1875-5.7558-7.1875-0.48737 0-1.8309 2.0843-2.9855 4.6318-2.3074 5.0906-2.4827 4.65 10.341 25.993 2.0654 3.4375 4.9032 8.3899 6.3062 11.005 1.403 2.6154 4.4948 7.3019 6.8707 10.415 2.3759 3.1126 6.6535 9.6915 9.5057 14.62 6.9594 12.025 16.021 25.802 18.796 28.576 1.2425 1.2425 3.9844 2.259 6.0933 2.259 3.4072 0 3.7349-0.31326 2.9424-2.8125zm254.63-2.2719c4.0937-8.6482 10.875-22.041 16.098-31.791 2.9461-5.5 7.2307-13.505 9.5214-17.788 4.658-8.7106 4.7545-7.8638-2.6008-22.837-7.353-14.968-14.831-26.265-20.201-30.516-4.3439-3.4385-5.3345-3.6585-17.849-3.964-7.2874-0.17792-18.875-0.67707-25.75-1.1092s-16.23-0.9782-20.789-1.2135c-4.5588-0.23525-10.606-0.81919-13.438-1.2976-5.7278-0.9677-6.3258-0.0351-2.8819 4.4938 1.2468 1.6396 4.1176 6.0748 6.3796 9.8561 2.262 3.7812 5.6982 8.5625 7.6361 10.625s5.5412 7.7934 8.0075 12.735c2.4662 4.9419 5.3229 9.8241 6.3481 10.849 4.5229 4.5229 23.025 32.313 27.507 41.317 2.7112 5.4457 7.6126 12.837 10.892 16.425 3.2794 3.5882 5.9626 7.1951 5.9626 8.0154 0 2.7991 3.1208 0.49827 5.156-3.8013zm471.42 4.3406c0.6429-0.64288-5.398-10.52-12.506-20.448-1.2078-1.6869-3.6022-5.4008-5.3209-8.253-1.7188-2.8523-4.9744-7.6596-7.2348-10.683-6.337-8.4758-22.633-33.86-32.431-50.517-4.8591-8.2609-10.014-16.417-11.456-18.125l-2.6211-3.1052-3.0484 3.4137c-3.6242 4.0586-3.0975 7.1202 3.1422 18.264 4.2831 7.6497 20.965 32.762 29.279 44.076 2.8306 3.852 6.9763 10.683 9.2127 15.18 2.2363 4.4972 5.999 10.435 8.3616 13.195 2.3626 2.7601 4.2956 5.5237 4.2956 6.1412 0 1.8827 6.7091 9.3494 9.372 10.43 2.9803 1.2097 9.9038 1.482 10.955 0.43071zm-761.99-3.95c-4.6801-10.484-9.1963-17.78-17.217-27.812-2.4734-3.0938-8.3408-11.667-13.039-19.052-8.0019-12.578-8.6809-13.301-10.745-11.433-1.2116 1.0965-2.5755 3.6896-3.0307 5.7623-0.74582 3.3957-0.0329 4.5889 7.205 12.058 4.418 4.5591 10.243 11.664 12.944 15.789 9.7497 14.888 21.04 27.798 24.539 28.059 0.48244 0.0361 0.18667-1.4813-0.65728-3.3719zm719.16 2.6929c0-0.40955-0.7584-2.2377-1.6852-4.0625-0.9269-1.8248-2.7335-5.5679-4.0149-8.3179-2.9374-6.3042-18.556-30.429-28.73-44.375-4.2628-5.8438-8.959-13.016-10.436-15.938-2.8436-5.6258-4.7057-6.6342-6.0037-3.2516-0.8713 2.2705 7.8265 19.662 16.474 32.939 2.9103 4.4688 7.9439 13.039 11.186 19.046 3.2418 6.0063 6.3719 11.216 6.9559 11.577 0.584 0.36092 1.4242 2.306 1.8671 4.3224 0.8946 4.0734 7.0573 8.7503 11.575 8.7841 1.5469 0.0113 2.8125-0.31403 2.8125-0.72358zm19.615-2.7415c-0.6109-3.054-5.5854-11.636-19.078-32.914-2.0143-3.1766-8.1995-12.458-13.745-20.625-5.5454-8.1672-12.991-19.696-16.545-25.62-8.7889-14.647-9.2136-14.904-12.597-7.6498l-2.7612 5.92 3.916 8.06c4.2918 8.8335 9.2087 16.42 16.244 25.065 2.5178 3.0938 7.3338 9.9943 10.702 15.335 3.3684 5.3403 8.2164 12.934 10.773 16.875 2.5569 3.941 5.606 9.1341 6.7756 11.54 3.3985 6.9913 4.1283 7.5 10.76 7.5 6.1761 0 6.2446-0.043 5.556-3.4861zm41.824-9.3624c4.5728-7.027 9.8427-15.843 11.711-19.59 1.8682-3.7476 4.5599-8.3872 5.9816-10.31l2.5847-3.4961-5.3963-10.308c-2.968-5.6692-6.1175-12.28-6.9989-14.69-0.8814-2.4103-3.8545-10.651-6.607-18.313s-6.549-16.265-8.4368-19.117c-3.0036-4.5389-3.8652-5.0914-6.8992-4.425-2.2274 0.4892-4.5926 0.024-6.6149-1.3011-4.1505-2.7195-38.879-3.0484-43.107-0.40826-2.0791 1.2984-3.1726 1.3366-5.0314 0.17579-2.933-1.8317-14.78-2.4912-16.262-0.90524-1.2799 1.3695 9.8515 19.628 41.77 68.515 3.0893 4.7317 5.617 9.0039 5.617 9.4938 0 0.48991 1.149 1.9306 2.5533 3.2014 1.4043 1.2709 5.1243 6.5612 8.2667 11.756 5.6392 9.3227 16.08 22.605 17.714 22.534 0.4625-0.0199 4.5822-5.7854 9.155-12.812zm-78.999 9.411c-0.1205-1.8771-23.971-44.402-33.3-59.375-6.7967-10.908-9.8853-1.8272-4.8456 14.246 1.8006 5.7427 4.357 12.41 5.6809 14.816 1.3239 2.4062 5.0224 9.7188 8.2189 16.25s6.3857 12.578 7.0871 13.438c1.3742 1.6836 17.264 2.2624 17.159 0.625zm-637.6-14.83c2.8377-5.5797 5.1654-10.642 5.1726-11.25 0.007-0.60778 3.8761-7.8405 8.5976-16.073l8.5845-14.968-2.6601-5.6572c-1.463-3.1115-3.082-5.8447-3.5976-6.0739-0.51563-0.22918-0.9375-0.8748-0.9375-1.4348 0-0.55994-2.1403-4.5912-4.7562-8.9583s-7.4103-13.344-10.654-19.949c-3.2439-6.6046-7.5567-13.636-9.5841-15.625-2.0274-1.9892-3.7017-4.3422-3.7208-5.229-0.0357-1.6609-0.54783-2.665-11.616-22.777-12.288-22.328-14.046-25.296-18.04-30.451-2.1981-2.8377-6.3144-9.2354-9.1474-14.217-2.833-4.9817-7.2744-11.744-9.8699-15.028-2.5955-3.2836-6.5652-9.3326-8.8216-13.442-2.2564-4.1098-5.3526-9.1598-6.8805-11.222-1.5279-2.0625-4.5075-6.7886-6.6213-10.503l-3.8433-6.7526-2.5925 4.2526c-1.4259 2.3389-2.5946 4.9726-2.5972 5.8526-0.003 0.88005 3.0891 6.6783 6.8703 12.885s6.875 11.754 6.875 12.327c0 0.57327 2.5704 3.9012 5.712 7.3954s6.9385 8.5649 8.4375 11.268c1.499 2.7033 4.758 7.9208 7.2422 11.595 2.4842 3.6737 6.8925 11.317 9.7964 16.985 2.9038 5.6683 5.7489 10.596 6.3224 10.95 0.57348 0.35442 2.0261 3.3105 3.228 6.569s3.0244 6.9128 4.05 8.1207c2.306 2.7159 4.9137 7.0889 5.966 10.005 0.82685 2.2913 5.765 4.1774 7.7404 2.9565 0.6253-0.38645 2.2041 0.0901 3.5086 1.0591 3.425 2.5442 0.84246 6.3848-4.033 5.9976-14.829-1.1777-31.739-2.8342-34.985-3.4272-2.6505-0.48423-4.3914-0.10563-5.4656 1.1886-2.0119 2.4242-3.6457 2.3992-6.4054-0.0983-7.9297-7.1763-4.4351 13.217 3.8766 22.622 2.0217 2.2878 12.509 19.088 12.509 20.039 0 0.22486 2.1639 3.683 4.8087 7.6848 11.336 17.152 26.161 43.458 31.574 56.026 0.88835 2.0625 2.9688 5.6185 4.6231 7.9022 3.5693 4.9271 3.3708 5.1118 11.334-10.547zm404.57 6.091c-0.4734-1.8859-2.2836-5.6828-4.0227-8.4375s-5.929-10.071-9.3108-16.259c-7.2518-13.268-16.94-28.607-18.375-29.094-0.5574-0.18898-1.6284 1.6601-2.38 4.1089-1.2139 3.9553-1.0492 4.7949 1.4748 7.5184 1.5627 1.6862 4.6303 6.3059 6.8167 10.266 7.0571 12.782 23.211 35.325 25.312 35.325 0.8423 0 1.0233-1.2816 0.4844-3.429zm30.59-0.24797c0-1.1745-3.4309-8.2807-7.6241-15.792-4.1933-7.511-9.2905-17.837-11.327-22.946-2.0368-5.1092-6.4809-13.521-9.8759-18.692-3.3951-5.1715-6.1728-10.132-6.1728-11.023 0-0.89121-0.531-1.6204-1.1799-1.6204-0.649 0-3.0319-3.0963-5.2955-6.8807-4.3697-7.3057-5.9838-7.9232-7.7385-2.9603-0.8942 2.5291 0.507 6.31 7.8378 21.148 4.9097 9.9375 11.778 23.412 15.264 29.943 3.4852 6.5312 8.5527 16.197 11.261 21.48 3.5975 7.0173 5.6723 9.7224 7.7004 10.04 4.3591 0.682 7.151-0.37096 7.151-2.697zm13.982 1.0957c-0.5306-2.4212-8.9464-18.982-13.803-27.161-2.161-3.6396-3.9291-6.8631-3.9291-7.1632 0-0.30015-1.8893-3.5098-4.1985-7.1325-2.3091-3.6227-5.8762-9.9618-7.9267-14.087-2.0505-4.125-5.2659-9.75-7.1452-12.5-1.8794-2.75-3.7154-6.4062-4.08-8.125-1.0125-4.7732-9.5519-18.048-11.901-18.5-1.144-0.22031-2.7249 0.80427-3.513 2.2769-1.1962 2.2351-0.9003 3.4822 1.7907 7.5486 1.773 2.6791 3.2236 5.1872 3.2236 5.5736 0 0.76829 2.4669 4.403 11.551 17.02 3.2844 4.5613 7.6462 12.354 9.693 17.318 2.0468 4.9635 5.4167 11.988 7.4886 15.609 2.0719 3.6213 3.7671 7.2783 3.7671 8.1266 0 0.84833 1.4062 3.2136 3.125 5.2562 1.7187 2.0426 3.125 4.4713 3.125 5.397 0 0.92575 1.4204 3.3713 3.1565 5.4345s3.0757 4.2158 2.977 4.7834c-0.398 2.2875 0.2665 2.7434 3.554 2.4384 2.2352-0.20736 3.3-0.94629 3.0444-2.1126zm-31.979-2.7312c-0.7448-3.7389-1.6664-5.8371-7.2756-16.562-1.0786-2.0625-3.4972-6.8438-5.3746-10.625-1.8773-3.7812-5.1372-9.9688-7.2441-13.75-2.1068-3.7812-6.2686-11.797-9.2484-17.812-2.9797-6.0156-5.7647-10.938-6.1888-10.938-1.1344 0-4.0744 3.9354-5.5001 7.3623-0.9146 2.1985-0.7884 3.5188 0.4779 5 1.7406 2.036 14.045 23.962 21.822 38.888 2.3286 4.4688 5.2586 9.25 6.5111 10.625s3.1462 4.6094 4.2083 7.1875c1.5522 3.7678 2.5873 4.6875 5.276 4.6875 3.1066 0 3.2874-0.28965 2.5359-4.0625zm44.586-4.1627c1.9053-2.6949 4.9256-7.7123 6.7119-11.15 3.7846-7.2832 11.082-19.774 14.393-24.637 1.2684-1.8628 2.3062-4.0745 2.3062-4.915 0-0.84044-3.0149-6.0663-6.6998-11.613-3.6848-5.5468-7.9104-12.335-9.39-15.085-3.9923-7.4198-11.606-17.631-15.16-20.332-2.7728-2.1076-5.2382-2.3578-21.875-2.2207-11.299 0.0931-19.731 0.71315-21.218 1.5603-1.6236 0.92486-3.2271 0.99936-4.6875 0.21777-4.1042-2.1965-2.4396 1.5718 10.281 23.275 3.2237 5.5 9.1169 16.188 13.096 23.75 3.979 7.5625 8.2165 15.156 9.4167 16.875 1.9285 2.7619 7.9216 13.701 14.253 26.017 2.5619 4.9832 4.0277 4.6853 8.5719-1.7424zm-154.09-38.5c0-1.3602-14.454-25.835-17.584-29.774-2.0163-2.5378-3.6762-5.0691-3.6887-5.625-0.0203-0.89858-4.7204-8.418-9.0347-14.454-0.86214-1.2061-6.63-10.053-12.818-19.66-6.1875-9.6071-11.543-17.48-11.901-17.495-0.3581-0.0149-1.949 2.3636-3.5352 5.2854l-2.8841 5.3125 10.168 16.875c5.5923 9.2812 11.746 18.562 13.675 20.625 1.9291 2.0625 4.2849 5.5781 5.235 7.8125 0.95014 2.2344 2.1837 4.0625 2.7412 4.0625 0.55752 0 2.3275 2.9531 3.9332 6.5625 4.7276 10.627 11.937 19.485 16.318 20.052 5.9463 0.76945 9.375 0.92328 9.375 0.42059zm23.75-1.1764c0-0.90262-1.6616-3.233-3.6923-5.1786-2.0308-1.9456-4.5778-5.4034-5.6599-7.6839-1.0822-2.2805-3.8836-6.6566-6.2255-9.7245-2.3418-3.068-5.2102-7.4498-6.3742-9.7375-5.1972-10.215-17.666-30.218-23.518-37.73-3.5227-4.5218-7.969-10.631-9.8806-13.575-1.9116-2.9446-6.2722-8.9029-9.6902-13.241-6.9344-8.8003-5.7793-9.0079-9.9886 1.7956-1.1196 2.8736-0.67445 4.0838 3.5636 9.6875 5.5596 7.3511 10.234 14.566 21.965 33.904 4.5877 7.5625 10.712 17.212 13.609 21.444 2.8971 4.2319 6.9549 10.615 9.0174 14.184 2.0625 3.5692 4.9199 7.9817 6.3498 9.8057s2.9591 4.3007 3.3983 5.5038c0.64923 1.7786 2.3248 2.1875 8.9628 2.1875 5.9067 0 8.1642-0.4538 8.1642-1.6411zm19.054-0.0775c-0.80116-1.925-9.1621-15.031-17.236-27.018-17.172-25.494-19.947-29.501-28.5-41.153-4.75-6.4706-10.401-14.627-12.558-18.125-9.54-15.472-22.046-30.735-25.183-30.735-1.8691 0-4.8156 7.6378-3.3435 8.667 0.55699 0.38942 2.3609 2.6768 4.0086 5.083 1.6478 2.4062 4.819 6.5436 7.0473 9.194 2.2282 2.6505 4.9412 6.6944 6.0289 8.9864 1.0877 2.2921 4.6542 7.1548 7.9256 10.806 5.9382 6.6276 10.532 13.303 14.03 20.389 1.0184 2.0625 2.5812 4.5198 3.473 5.4607 0.89177 0.94089 3.5162 5.4733 5.8321 10.072 2.3158 4.5987 5.0834 9.0856 6.15 9.9708 1.0667 0.88525 3.9742 5.2482 6.4612 9.6954s5.2945 8.3824 6.2389 8.7447c0.94437 0.36239 3.1785 3.1526 4.9647 6.2005 3.2086 5.4751 3.3181 5.5356 9.1146 5.0374 3.2268-0.27731 5.7226-0.85116 5.5461-1.2752zm17.542-10.711c3.2472-6.8366 5.904-12.756 5.904-13.154 0-0.39808 2.6879-4.7889 5.9732-9.7574 7.2768-11.005 11.527-19.844 11.527-23.972 0-1.7111-3.1743-7.7143-7.1126-13.451-3.9119-5.6984-9.0273-13.168-11.367-16.598-2.3402-3.4307-6.3114-8.5152-8.8249-11.299-2.5136-2.7838-5.9764-7.4149-7.6951-10.291-1.881-3.148-4.0653-5.2432-5.4872-5.2635-1.2992-0.0185-3.082-1.018-3.9616-2.2211-1.3173-1.8016-3.8778-2.2392-14.513-2.4804-36.425-0.82624-58.54-0.86999-58.539-0.11575 0.00053 0.46271 2.1563 2.994 4.7906 5.625s6.8686 7.8775 9.4096 11.659c2.541 3.7812 9.245 13.458 14.898 21.503 17.417 24.788 31.99 46.189 38.131 55.997 3.2286 5.1562 6.5541 10.219 7.39 11.25 0.83589 1.0312 3.8429 4.8281 6.6823 8.4375s5.5516 6.5625 6.0272 6.5625 3.5215-5.5936 6.7687-12.43zm-82.846 9.2541c0-1.0837-10.263-19.886-11.23-20.574-0.87118-0.61997-16.157-24.008-25.52-39.045-3.106-4.9887-5.0839-7.1493-5.4512-5.9546-0.317 1.0312-1.9666 4.7881-3.6659 8.3486l-3.0895 6.4736 2.4457 3.5264c4.0411 5.8269 7.3885 11.69 13.432 23.526 3.1592 6.1875 6.7672 12.375 8.0177 13.75s2.6329 3.6881 3.0719 5.1402c0.45778 1.5142 2.5182 3.1923 4.8312 3.9349 4.2587 1.3672 17.158 2.0242 17.158 0.87394zm-204.87-2.7872c-0.64666-1.189-3.754-6.0729-6.9052-10.853-3.1512-4.7803-5.7294-9.2119-5.7294-9.848 0-0.63616-1.7325-3.1938-3.85-5.6836-4.9463-5.816-17.361-25.176-21.781-33.966-3.5116-6.9834-19.793-31.854-24.495-37.417l-2.6254-3.1062-2.3743 2.9322c-1.3059 1.6127-2.3612 3.8542-2.3451 4.9812 0.0321 2.2554 4.2565 9.8316 11.665 20.921 2.6505 3.9673 5.4468 8.6567 6.214 10.421 0.76723 1.7642 3.4221 6.02 5.8998 9.4576 2.4776 3.4375 7.2192 10.75 10.537 16.25 3.3176 5.5 7.9279 12.225 10.245 14.943 2.3173 2.7189 4.8767 7.158 5.6876 9.8645 0.81091 2.7066 3.1896 6.7003 5.286 8.8749 3.1353 3.2524 4.8704 3.9926 9.7793 4.1722 5.3078 0.19424 5.8377-0.0206 4.792-1.9434zm439.87 1.025c0-0.72148-0.5625-1.3118-1.25-1.3118s-1.25-0.58651-1.25-1.3034c0-0.71685-2.2303-4.3224-4.9562-8.0124-2.726-3.6899-6.5228-9.5182-8.4375-12.952-1.9147-3.4335-8.5438-12.792-14.731-20.796-6.1875-8.0044-12.375-16.207-13.75-18.229-1.375-2.0214-2.8682-3.6826-3.3182-3.6916-0.8319-0.0166-8.3544 12.401-10.138 16.735-0.7361 1.7887 0.9937 5.3415 6.9991 14.375 4.3873 6.5995 9.9564 15.093 12.376 18.874 2.4194 3.7812 5.5931 8.1171 7.0525 9.6352 1.4595 1.5181 2.6536 3.3355 2.6536 4.0387 0 1.5154 3.5431 2.4198 11.25 2.8714 3.0937 0.18131 8.2969 0.49809 11.562 0.70394 3.5492 0.22375 5.9375-0.15335 5.9375-0.9375zm19.477-0.22639c0.4809-0.77803-0.116-1.9687-1.3262-2.646-1.7193-0.96215-1.8428-1.4525-0.5651-2.2422 1.6115-0.99595 0.1428-3.408-20.138-33.072-2.8202-4.125-7.5444-10.031-10.498-13.125-2.9539-3.0938-9.1951-11.117-13.869-17.828l-8.4984-12.203-4.2519 4.6421c-5.0175 5.4778-4.7273 6.7332 4.1248 17.841 12.505 15.692 18.203 23.637 23.062 32.157 2.8176 4.9408 8.1823 12.816 11.921 17.5 3.7392 4.6842 6.8017 8.9386 6.8055 9.4542 0.011 1.5151 12.276 1.0729 13.234-0.4771zm-447.08-7.0229c-2.222-3.9531-4.4821-7.7701-5.0225-8.4821-0.54036-0.71205-2.773-4.9034-4.9613-9.314-2.1884-4.4107-6.9413-11.984-10.562-16.83s-8.9459-13.545-11.834-19.331c-2.8878-5.7861-8.0765-14.786-11.53-20-3.4539-5.2139-6.7426-10.605-7.3081-11.98-2.2216-5.4013-14.44-22.493-16.341-22.859-1.2197-0.23489-3.0373 1.344-4.6042 3.9997l-2.5889 4.3878 3.0632 3.4909c7.639 8.7056 24.296 34.155 24.296 37.122 0 0.92269 0.78935 2.3327 1.7541 3.1334 0.96475 0.80069 3.2508 4.5149 5.08 8.2538 1.8293 3.7389 3.8179 7.1021 4.4193 7.4737 0.60133 0.37165 2.834 3.7181 4.9615 7.4366s5.474 8.4799 7.4367 10.581c1.9627 2.101 3.9485 5.3343 4.413 7.1849 0.76759 3.0583 9.3459 15.451 14.3 20.659 1.1057 1.1623 3.5985 2.1466 5.5396 2.1875l3.5292 0.0743-4.04-7.1875zm467.05 5.826c0.4627-0.7488-0.9072-3.7019-3.0444-6.5625-2.1373-2.8606-5.9604-8.576-8.4958-12.701-2.5355-4.125-6.9183-10.594-9.7396-14.375-2.8212-3.7812-5.7932-8.4063-6.6043-10.278-0.8111-1.8716-3.8845-6.4688-6.8298-10.216-2.9452-3.7473-7.3238-9.9459-9.73-13.775-2.4063-3.8289-4.7308-6.966-5.1657-6.9714-0.4349-0.005-3.1124-3.5733-5.95-7.9287-5.0541-7.7572-10.896-14.275-11.86-13.232-0.2671 0.28917-1.6161 2.405-2.9978 4.7018l-2.5122 4.1761 4.0138 7.0739c7.6922 13.557 11.17 18.381 19.518 27.074 4.6217 4.8125 14.99 18.594 23.04 30.625 8.0504 12.031 15.571 22.257 16.713 22.725 3.2842 1.3443 8.7233 1.1547 9.6447-0.33609zm-500.7-0.82605c-0.006-1.9911-8.0757-16.18-11.908-20.938-2.2154-2.75-4.9141-6.7467-5.9972-8.8816s-4.1701-7.1974-6.86-11.25-6.5145-10.462-8.499-14.243c-1.9845-3.7812-4.3113-7.3248-5.1706-7.8746-0.85938-0.54979-1.5625-1.5804-1.5625-2.2904 0-1.4941-11.515-17.335-12.601-17.335-0.39946 0-1.434 1.3223-2.2989 2.9384-1.4178 2.6491-0.99728 3.836 4.2702 12.054 3.2136 5.0135 6.2168 10.019 6.6739 11.124 1.2635 3.0539 11.317 19.89 16.502 27.634 2.5315 3.7812 5.2238 8.728 5.9828 10.993 0.75906 2.2648 2.5257 5.7266 3.9259 7.693s2.5458 4.1268 2.5458 4.801c0 1.6606 5.1141 4.901 8.8417 5.6022 5.0772 0.95515 6.1584 0.95051 6.1556-0.0264zm521.59-0.77328c-0.3685-0.59717-4.7372-7.0659-9.7083-14.375-4.971-7.3091-11.684-18.07-14.916-23.914-8.1109-14.661-12.931-22.433-16.798-27.085-1.8102-2.1777-5.2546-6.6777-7.6542-10s-9.1216-11.244-14.938-17.603c-8.2963-9.0713-11.296-11.562-13.922-11.562-4.0365 0-7.1655 3.2151-5.4554 5.6055 0.6476 0.90526 3.4275 5.118 6.1775 9.3617s7.8364 10.918 11.303 14.831c3.4667 3.9135 8.133 10.2 10.37 13.971 2.2365 3.7705 8.2686 12.762 13.405 19.98 5.136 7.2188 10.3 15.094 11.475 17.5 1.1751 2.4062 4.2597 6.9843 6.8547 10.173 2.5949 3.1892 4.7181 6.3735 4.7181 7.0764 0 0.70285 1.6142 2.6362 3.5871 4.2963 2.8032 2.3587 4.9623 2.9977 9.8795 2.9236 3.4608-0.0521 5.9909-0.58335 5.6225-1.1805zm-541.58-1.12c0-0.87829-0.82148-2.7697-1.8255-4.2031s-3.015-5.6367-4.4688-9.3406-3.6238-7.8594-4.822-9.2344c-1.821-2.0895-14.878-24.238-24.509-41.573-3.3833-6.0901-4.8898-6.2295-7.0259-0.65038-1.72 4.4923-1.6416 5.0299 1.6004 10.974 1.875 3.4375 5.618 10.469 8.3179 15.625 13.54 25.86 21.281 37.781 25.249 38.885 4.9937 1.3901 7.4841 1.2297 7.4841-0.48216zm72.439-13.055c3.5995-7.4104 7.9269-15.302 9.6165-17.536 1.6896-2.2346 3.9257-5.8909 4.969-8.125s3.2533-6.312 4.911-9.062c4.6767-7.758 4.689-7.8271 1.923-10.796-1.4349-1.5402-2.6102-3.3974-2.6118-4.1272-0.001-0.72974-3.7219-8.6393-8.2675-17.577-13.628-26.796-15.135-29.879-16.035-32.812-0.74355-2.4231-1.7222-2.8125-7.069-2.8125-3.4132 0-8.016 0.7263-10.228 1.614-3.075 1.2339-9.9102 1.4196-29.022 0.78836-13.75-0.4541-25.42-0.58597-25.933-0.29306-1.2435 0.70988 1.7219 6.4027 9.645 18.516 9.5987 14.675 18.154 28.917 22.852 38.041 6.1213 11.89 9.2405 16.624 13.099 19.883 1.9041 1.608 3.462 3.6485 3.462 4.5344 0 0.88595 0.78845 2.2652 1.7521 3.065 0.96365 0.79977 2.5038 4.0001 3.4226 7.1118 0.91877 3.1117 2.5444 6.6044 3.6125 7.7614s4.0823 5.3377 6.6983 9.2903 5.1845 6.9219 5.7078 6.5985c0.52335-0.32344 3.8966-6.6511 7.496-14.062zm480.25 12.464c1.0049-1.2031 2.4229-3.5938 3.1512-5.3125 0.7283-1.7188 3.4785-5.9375 6.1116-9.375 2.6332-3.4375 7.2579-10.75 10.277-16.25 3.0194-5.5 7.1113-12.056 9.0931-14.568l3.6033-4.5681-5.9949-11.057c-6.3669-11.743-20.707-40.864-22.687-46.072-1.377-3.6218-1.843-3.6688-12.189-1.2295-6.1354 1.4466-14.819 1.7489-40.312 1.4035-17.871-0.24212-32.493-0.0854-32.493 0.34819 0 1.3899 9.1182 11.874 17.812 20.481 4.6406 4.594 8.4375 8.8724 8.4375 9.5073 0 0.63498 2.3906 4.1296 5.3125 7.7659 5.7339 7.1358 13.119 19.066 20.42 32.988 7.7551 14.788 24.165 38.125 26.808 38.125 0.4523 0 1.6446-0.98438 2.6494-2.1875zm-351.86-64.062c1.8922-4.4688 4.7089-10.094 6.2594-12.5 1.5505-2.4062 5.1101-10 7.9102-16.875 2.8002-6.875 5.6233-13.462 6.2737-14.637 1.7475-3.1576 0.101-9.6359-4.0279-15.848-2.005-3.0166-6.1526-10.329-9.2168-16.25-3.0643-5.9209-7.2394-13.578-9.2781-17.015-2.0386-3.4375-5.3919-9.4434-7.4516-13.346-2.0597-3.903-4.3842-7.4915-5.1656-7.9744-0.78134-0.4829-9.0908-1.0139-18.465-1.1801-9.3747-0.16614-26.821-0.73556-38.771-1.2654-12.663-0.56146-21.523-0.49826-21.24 0.1515 3.6728 8.424 11.096 20.644 15.798 26.006 8.4898 9.6815 21.147 28.73 26.537 39.937 1.368 2.8443 5.0536 8.8276 8.1902 13.296 3.1366 4.4688 7.999 12.344 10.805 17.5 2.8062 5.1562 7.4489 12.469 10.317 16.25 2.8683 3.7812 6.793 9.6161 8.7216 12.966l3.5066 6.0914 2.9279-3.5914c1.6104-1.9752 4.4761-7.2476 6.3683-11.716zm-19.582 11.793c0-2.6756-2.1324-6.4864-6.9485-12.418-2.2329-2.75-6.9936-10.625-10.579-17.5-3.5857-6.875-7.8063-14.222-9.3791-16.326-1.5728-2.1044-5.9934-8.9942-9.8237-15.311-9.3878-15.482-17.547-27.702-21.024-31.488-3.5615-3.8777-9.7451-12.111-9.7451-12.975 0-2.0004-9.129-15.775-10.455-15.775-0.87173 0-2.7695 2.1094-4.2174 4.6875l-2.6324 4.6875 2.6938 3.75c1.4816 2.0625 3.6812 4.8335 4.8879 6.1579 1.2068 1.3243 2.5438 3.5743 2.9713 5 1.0131 3.3792 13.135 21.967 14.325 21.967 0.50373 0 2.7795 2.9042 5.0572 6.4538 2.2778 3.5496 6.5361 9.2592 9.4629 12.688s5.078 6.6282 4.7804 7.1096c-0.29756 0.48146 0.88828 2.7875 2.6352 5.1244 2.7878 3.7295 14.995 23.223 18.704 29.869 0.73626 1.3191 2.8723 3.932 4.7468 5.8066 1.8745 1.8745 3.3192 4.5704 3.2105 5.9909-0.32882 4.2956-0.12146 4.4577 5.704 4.4577 4.2716 0 5.625-0.47089 5.625-1.9572zm195-1.4209c0-1.0233-4.2188-10.564-9.375-21.201-5.1563-10.637-9.375-19.599-9.375-19.915 0-0.31644-2.0205-4.6379-4.4901-9.6032-2.4695-4.9653-5.5898-11.84-6.934-15.278-3.6464-9.3251-8.8451-19.375-10.022-19.375-1.8148 0-8.5099 10.208-8.0894 12.333 0.9341 4.7222 7.5656 16.482 14.69 26.05 2.6655 3.5799 4.8464 6.8692 4.8464 7.3097 0 1.8617 10.731 22.518 12.172 23.431 0.8677 0.54979 1.5777 1.807 1.5777 2.7937 0 2.5058 7.2847 14.087 9.7172 15.448 2.5634 1.4346 5.2828 0.4078 5.2828-1.9947zm34.599 0.44575c0.2802-0.2802-1.2725-5.5007-3.4504-11.601-2.1779-6.1004-4.9469-13.926-6.1533-17.391-9.5412-27.399-17.935-46.082-28.537-63.516-2.8647-4.7109-5.2085-8.8492-5.2085-9.1963 0-0.34706-1.61-4.0864-3.5777-8.3097s-3.9188-8.6631-4.3358-9.8662c-1.1353-3.2761-3.0321-2.6519-5.3064 1.746-1.9262 3.7247-1.8947 4.1817 0.5929 8.6077 1.4448 2.5708 2.6373 5.4413 2.6499 6.379 0.013 0.93765 2.0145 6.4861 4.4487 12.33 2.4343 5.8438 6.5964 16.812 9.2492 24.375 5.5577 15.844 10.743 29.017 12.232 31.075 0.5671 0.78383 2.0724 4.5189 3.345 8.3001s3.0096 7.7188 3.86 8.75c0.8505 1.0312 1.9698 3.2812 2.4875 5s1.7092 4.2345 2.6479 5.5906c0.9386 1.3561 1.7066 3.4336 1.7066 4.6166 0 3.5536 4.6349 5.9729 9.0287 4.7128 2.0959-0.6011 4.0401-1.3222 4.3203-1.6024zm14.226-4.8802c2.9119-4.2969 7.1603-9.9017 9.441-12.455 2.2807-2.5534 5.6425-7.6159 7.4707-11.25 1.8282-3.634 6.4215-11.818 10.207-18.186l6.8835-11.579-3.8554-7.7964c-3.8897-7.866-12.907-22.486-17.652-28.619-1.4137-1.8275-2.5704-3.868-2.5704-4.5344 0-0.66645-0.8643-1.929-1.9206-2.8057-1.0563-0.87667-3.9402-5.2054-6.4086-9.6193-4.8511-8.6746-7.5797-10.472-16.032-10.56-2.7578-0.0288-5.5767-0.49609-6.2642-1.0385-1.2594-0.99354-23.051-2.8597-29.98-2.5674-2.0513 0.0865-4.2469 0.67455-4.879 1.3067-0.6992 0.69918-2.0536 0.66545-3.4579-0.0861-1.7659-0.94509-2.3085-0.79649-2.3085 0.63225 0 2.1439 10.082 22.651 14.797 30.095 5.6861 8.9792 18.606 34.95 19.57 39.337 0.5177 2.3569 2.5235 8.1734 4.4574 12.925 1.9338 4.7521 4.2203 11.531 5.0811 15.064 0.8608 3.5329 1.9473 6.986 2.4145 7.6735s1.8439 4.3438 3.0592 8.125c2.2365 6.9581 5.2834 13.75 6.1684 13.75 0.2657 0 2.8655-3.5156 5.7774-7.8125zm-260.28 5.5063c-1.5371-3.8965-37.827-59.009-46.325-70.353-3.7971-5.0686-10.135-14.435-14.083-20.813-8.8123-14.235-10.906-15.692-14.373-10.005-2.7324 4.4816-3.0898 5.9781-1.4276 5.9781 0.59585 0 2.2318 2.7635 3.6354 6.141 2.2656 5.4517 9.9055 18.234 16.658 27.871 1.3053 1.8628 2.3732 3.9722 2.3732 4.6875 0 0.71533 0.49867 1.3006 1.1082 1.3006 2.2818 0 15.218 17.382 19.083 25.642 2.2075 4.7172 6.6437 12.052 9.8582 16.299 3.2146 4.247 6.2166 9.204 6.6713 11.016 0.78807 3.1399 1.21 3.2938 9.032 3.2938 4.5129 0 8.0178-0.4753 7.7887-1.0562zm197.71 0.44877c0-0.3341-2.327-4.9747-5.1712-10.312-2.8441-5.3378-7.6053-14.318-10.58-19.957-2.9752-5.6384-8.3825-14.725-12.016-20.192-3.6338-5.4674-7.5905-11.726-8.7926-13.909l-2.1856-3.9683-3.1891 3.7899c-3.1135 3.7003-3.1396 3.8874-1.1039 7.9106 1.1467 2.2664 4.7355 7.2144 7.9749 10.996 3.2395 3.7812 6.9554 8.5625 8.2575 10.625 1.3022 2.0625 6.7842 9.8424 12.182 17.289 5.398 7.4463 9.5294 14.282 9.1808 15.19-0.3486 0.90836-0.2975 1.9878 0.1135 2.3988 0.8923 0.89231 5.3305 1.0087 5.3305 0.13975zm29.103-3.6273c-0.1495-1.9854-3.8783-10.985-8.2862-20-4.4079-9.0146-8.7182-18.64-9.5785-21.39s-1.9547-5.5625-2.4319-6.25-1.8735-4.9062-3.1028-9.375-4.4803-13.75-7.2245-20.625c-2.7441-6.875-6.3917-16.016-8.1058-20.312-1.714-4.2969-3.4837-7.8089-3.9324-7.8046-0.7742 0.007-3.8264 4.4691-7.4776 10.931-1.4935 2.6429-1.0045 4.5955 4.8317 19.294 3.5714 8.9944 11.119 25.981 16.772 37.748s10.51 21.957 10.793 22.644c0.2833 0.6875 2.7095 5.3574 5.3916 10.378 4.5902 8.5916 5.104 9.1054 8.75 8.75 3.4255-0.33393 3.842-0.79513 3.6016-3.9874zm-250.35 2.4042c0-0.73876-5.9624-11.552-8.6396-15.669-1.1177-1.7188-3.865-6.81-6.1052-11.314-2.2401-4.5039-6.3306-10.973-9.0898-14.375-2.7593-3.4024-6.5409-8.0555-8.4036-10.34-1.8627-2.2848-3.6117-4.788-3.8868-5.5625-0.51285-1.4444-10.462-16.788-12.342-19.033-0.57555-0.6875-2.3925-3.9456-4.0376-7.2402-4.0731-8.1568-5.6284-9.272-7.8881-5.656-2.7498 4.4001-3.73 9.7712-1.7833 9.7712 0.8919 0 4.6454 5.7656 8.3412 12.812 3.6957 7.0469 9.4199 16.503 12.72 21.014 3.3004 4.5106 7.1892 10.979 8.6418 14.375 1.4526 3.3956 3.6832 7.2988 4.9569 8.6738s3.3084 5.0312 4.5214 8.125c2.8953 7.3842 6.9069 13.542 9.2444 14.19 2.6681 0.73982 13.75 0.9246 13.75 0.22926zm-24.55-4.1824c-0.4452-1.8491-2.0973-5.6119-3.6714-8.3619-1.574-2.75-4.6675-8.3661-6.8744-12.48-2.2069-4.1141-4.9705-8.8954-6.1414-10.625-6.1374-9.0661-13.763-21.123-13.763-21.76 0-1.2876-10.475-18.26-11.269-18.26-0.4222 0-1.6947 1.944-2.8277 4.32-1.9625 4.1155-1.9312 4.6334 0.66186 10.938 1.4971 3.6396 4.2644 9.43 6.1496 12.867 1.8852 3.4375 6.8439 13 11.019 21.25 4.1754 8.25 8.0771 15.844 8.6704 16.875 0.59331 1.0312 1.6265 3.2841 2.296 5.0063 1.0995 2.8285 1.9589 3.1536 8.8884 3.3619l7.6712 0.23064-0.80946-3.3619zm487.05 0.66611c0-1.8295-6.9379-15.59-9.2787-18.403-0.8581-1.0312-5.1419-8.3438-9.5197-16.25-14.508-26.201-17.84-30.537-19.457-25.312-0.3724 1.2031-1.4991 4.0753-2.5038 6.3826-1.4939 3.4307-1.5342 4.5445-0.2212 6.1125 0.883 1.0546 6.668 12.104 12.856 24.555l11.25 22.637 5 0.76011c8.7103 1.3242 11.875 1.1957 11.875-0.48207zm17.273-1.2369c0.2302-1.2148-1.9617-6.2774-4.8707-11.25-6.881-11.762-10.463-18.811-10.152-19.979 0.1374-0.51563-0.2557-0.9375-0.8735-0.9375-0.6179 0-2.8701-3.3562-5.005-7.4583-5.5182-10.603-20.887-35.507-22.169-35.924-1.1653-0.37913-5.4526 6.4627-5.4526 8.7014 0 2.1345 9.866 20.766 14.449 27.286 2.27 3.2295 5.8079 9.2012 7.8621 13.27 2.0541 4.0692 4.5691 8.0911 5.5889 8.9374 1.0197 0.84632 2.5987 4.0605 3.5087 7.1426 2.3964 8.116 7.5195 13.306 12.645 12.811 2.6838-0.25944 4.1917-1.1368 4.469-2.6004zm15.764-2.5548c-4.215-13.839-19.873-47.031-23.139-49.05-0.6313-0.39017-1.1478-1.5621-1.1478-2.6043s-2.6161-5.9308-5.8135-10.864c-3.1975-4.9329-7.2193-11.5-8.9374-14.594-1.7181-3.0938-4.4458-7.215-6.0615-9.1584s-2.9376-4.0527-2.9376-4.6875c0-0.63475-0.5625-1.1541-1.25-1.1541s-1.25 1.1788-1.25 2.6196-0.9561 4.2381-2.1246 6.2162c-2.0936 3.5442-2.0494 3.7401 3.0265 13.436 2.8331 5.4116 7.4454 13.389 10.25 17.728 2.8042 4.3386 5.0985 8.4175 5.0985 9.0641 0 0.64665 1.0353 2.6688 2.3008 4.4937 1.2654 1.8249 4.5686 7.5367 7.3404 12.693 2.7718 5.1562 6.6642 12.188 8.6497 15.625 1.9856 3.4375 4.3719 7.7397 5.3028 9.5604 2.1153 4.137 6.2312 6.1698 9.2789 4.5827 1.5981-0.8322 2.0067-1.961 1.4141-3.9067zm16.263 4.2601c0.5858-0.94786-4.877-12.699-10.226-21.996-0.7911-1.375-3.2-7.2812-5.3532-13.125s-5.2623-12.602-6.9091-15.018c-1.6467-2.4163-4.0833-7.5592-5.4146-11.429-2.4671-7.1706-9.0605-20.067-19.354-37.855-3.1595-5.4599-5.9985-10.522-6.3089-11.25-0.9766-2.2895-6.9847 5.5127-6.976 9.0593 0 1.8523 1.135 5.0553 2.5121 7.1178s3.6161 6 4.9756 8.75c1.3594 2.75 4.6382 7.8447 7.2863 11.321 7.4037 9.721 24.014 41.126 27.72 52.412 2.2865 6.962 6.4271 15.644 9.3782 19.665 2.4285 3.3086 7.2659 4.6189 8.6692 2.3482zm10.936-4.184c1.6678-2.2344 4.623-7.1562 6.5672-10.938 1.9441-3.7812 5.5251-9.9688 7.9576-13.75 13.704-21.302 16.635-26.752 15.919-29.602-1.0693-4.2605-9.4033-21.674-12.44-25.992-3.2979-4.6902-8.5018-14.215-12.749-23.335-4.049-8.6939-6.9705-10.277-19.267-10.442-5.1701-0.0694-10.027-0.51357-10.793-0.98697-1.4524-0.89761-34.375 0.13483-35.349 1.1085-1.2295 1.2295 4.4552 14.156 9.969 22.668 5.0866 7.8528 8.3331 14.582 17.044 35.331 1.0103 2.4062 3.1624 6.3438 4.7827 8.75 1.6202 2.4062 4.1312 8.0312 5.5799 12.5 2.7556 8.4996 17.539 38.75 18.937 38.75 0.4441 0 2.1719-1.8281 3.8397-4.0625zm-738.62-1.73c0.43066-0.43065-0.88184-3.7752-2.9167-7.4324-2.0348-3.6572-3.6997-7.3437-3.6997-8.1923s-2.222-4.9571-4.9377-9.1301c-2.7158-4.1729-5.7628-9.5559-6.7713-11.962-1.0085-2.4062-3.4548-6.625-5.4362-9.375s-5.7839-8.6562-8.4499-13.125c-2.6661-4.4688-6.4704-10.013-8.4541-12.32-4.082-4.74-17.201-24.75-17.201-26.23 0-0.53216-0.74893-1.9918-1.6643-3.2436-1.5362-2.1008-1.873-1.8757-4.375 2.9246-1.4909 2.8603-2.7095 6.1677-2.708 7.3496 0.005 4.2261 11.001 22.74 19.095 32.149 4.423 5.1421 16.638 23.49 18.502 27.79 3.7137 8.5691 16.079 28.916 18.392 30.265 2.3848 1.3904 9.4158 1.7456 10.625 0.53677zm-36.616-1.52c0-1.0824-5.9965-10.579-16.133-25.55-3.1579-4.664-7.7104-11.547-10.117-15.296-7.6209-11.872-15.596-23.087-16.423-23.093-0.43911-0.004-1.1649 1.9477-1.613 4.3358-0.95572 5.0945 0.18559 7.171 11.143 20.274 9.5354 11.402 11.623 14.247 17.428 23.747 2.6007 4.2558 5.7942 8.7024 7.0969 9.8812 1.3026 1.1788 2.3684 2.8531 2.3684 3.7205 0 1.5996 1.8481 2.7574 4.6875 2.9368 0.85938 0.0542 1.5625-0.3759 1.5625-0.95596zm18.75 0.2642c0-0.13574-2.5326-4.3728-5.6281-9.4157-3.0954-5.0429-7.2609-12.544-9.2566-16.669s-6.4507-11.438-9.9001-16.25c-13.347-18.622-15.965-22.187-19.699-26.828-2.1224-2.6378-4.5813-6.5399-5.4642-8.6714s-2.0141-3.8754-2.5138-3.8754c-0.49968 0-1.9259 2.2562-3.1694 5.0138l-2.2609 5.0138 3.3904 6.5487c1.8647 3.6018 6.4301 10.767 10.145 15.924 3.7152 5.1562 6.7777 9.8796 6.8056 10.496 0.0279 0.61669 1.9174 3.4292 4.1987 6.25 3.8915 4.8117 9.9589 14.442 14.879 23.616 4.4274 8.2554 6.131 9.5191 12.536 9.2985 3.2656-0.1125 5.9375-0.31557 5.9375-0.4513zm49.101-11.397c3.139-5.3281 7.8084-13.834 10.376-18.902 2.568-5.0681 7.0171-12.321 9.887-16.117 5.7219-7.5685 5.7262-8.4489 0.0929-19.044-1.2794-2.4062-4.1278-7.75-6.3297-11.875s-6.2295-10.875-8.9502-15-7.0766-11.868-9.6797-17.207c-2.6032-5.3386-5.7917-10.273-7.0856-10.966-3.2866-1.759-46.33-2.6195-48.322-0.9661-0.88706 0.73619-3.0436 0.90005-5.011 0.38075-1.8996-0.50141-5.8517-1.0306-8.7826-1.1759-4.8651-0.24124-5.2609-0.038-4.5472 2.3346 0.87993 2.9255 11.689 20.752 20.377 33.605 3.1622 4.6783 8.5619 12.871 11.999 18.206 3.4375 5.3348 7.7795 11.662 9.6488 14.061 1.8694 2.3989 4.3254 6.5813 5.4578 9.2943s3.5563 6.9015 5.3863 9.3077 4.9908 8.0312 7.024 12.5c3.1042 6.8229 11.578 21.25 12.482 21.25 0.14838 0 2.8381-4.3594 5.9771-9.6875zm547.67-38.571c2.7846-1.0685 2.5875-1.7683-3.0066-10.678-2.7412-4.3659-5.88-9.5441-6.9752-11.507-1.0952-1.963-5.797-8.713-10.448-15-4.6515-6.287-9.1825-12.802-10.069-14.477-0.8865-1.6754-2.0856-3.6442-2.6647-4.375-0.5791-0.73081-5.7061-7.634-11.393-15.34-5.6873-7.7064-10.816-14.035-11.398-14.062-1.9458-0.0935-8.3179 5.0989-8.3179 6.778 0 0.91219 3.1145 5.9995 6.9212 11.305 3.8066 5.3057 7.9736 11.71 9.2599 14.231 1.2863 2.5214 4.6787 7.3801 7.5385 10.797 2.8599 3.4171 6.2302 8.189 7.4895 10.604 1.2592 2.4152 3.6742 5.7902 5.3666 7.5 1.6923 1.7097 4.0288 4.9666 5.1921 7.2376 1.1633 2.2709 2.9495 5.0834 3.9693 6.25s3.2601 3.9137 4.9784 6.1048c1.7557 2.2388 4.6104 4.21 6.5169 4.5002 1.8659 0.28403 3.7685 0.60069 4.2278 0.7037 0.4594 0.103 1.7251-0.15414 2.8125-0.57145zm23.667-1.7158c0.5857-0.56654-0.9293-4.3196-3.3665-8.3402s-6.2186-10.31-8.4032-13.976c-2.1846-3.6663-6.0581-8.7942-8.6078-11.395-2.5496-2.6011-5.8979-7.1511-7.4407-10.111s-4.9577-7.6757-7.5888-10.48c-2.631-2.8039-7.7065-8.9964-11.279-13.761-3.5724-4.7646-8.6848-10.952-11.361-13.75-2.6763-2.7978-4.872-5.5024-4.8794-6.0102-0.024-1.642-4.2728-5.9518-5.8676-5.9518-0.8517 0-2.6695 1.2032-4.0395 2.6737-2.3031 2.4722-2.3488 2.9485-0.6061 6.3186 1.0366 2.0047 4.8075 7.5292 8.3797 12.277 13.195 17.537 15.272 20.345 16.495 22.305 0.6875 1.1016 3.6406 5.2055 6.5625 9.1198s5.3125 7.4654 5.3125 7.8913c0 0.42598 1.3225 2.2008 2.939 3.944 1.6164 1.7432 4.7862 6.6406 7.044 10.883 4.179 7.8525 5.2006 9.2763 10.272 14.317 1.5787 1.5692 3.7142 3.7102 4.7455 4.7578 1.9203 1.9506 9.4094 1.4954 11.69-0.71054zm-43.6-1.3864c-0.4557-1.4361-3.4468-6.2582-6.6467-10.716-3.1999-4.4577-8.727-12.142-12.282-17.076-3.5555-4.9343-8.1267-11.784-10.158-15.222-3.4551-5.846-10.245-15.496-16.489-23.438-1.4867-1.8906-3.2785-3.4375-3.9816-3.4375-1.5429 0-8.5314 7.2952-8.5314 8.9058 0 1.7295 7.3352 15.111 9.8461 17.962 3.1036 3.5242 11.404 15.478 11.404 16.423 0 0.43194 2.0197 3.5966 4.4882 7.0326s5.5975 8.5657 6.9533 11.399c5.5743 11.65 4.2933 10.777 15.814 10.777 9.9916 0 10.379-0.10562 9.5841-2.611zm69.391 1.6735c-0.01-0.51563-1.9922-3.75-4.4037-7.1875s-6.3334-9.2031-8.7154-12.812c-2.3819-3.6094-4.8604-6.5625-5.5077-6.5625-1.0313 0-8.8541-10.516-8.8541-11.902 0-0.85826-15.49-20.902-19.3-24.974-1.9293-2.0619-6.4932-7.6863-10.142-12.499-3.6488-4.8125-8.6555-11-11.126-13.75s-6.5877-7.6493-9.1493-10.887c-4.7455-5.9985-7.3547-7.1656-10.033-4.4876-3.9474 3.9474 1.3641 15.252 12.804 27.25 2.9497 3.0938 7.6254 9 10.39 13.125 2.7651 4.125 6.5727 8.9062 8.4614 10.625s5.411 6.2188 7.8274 10c2.4163 3.7812 6.6992 9.4631 9.5177 12.626 2.8184 3.1632 7.0664 9.2425 9.4401 13.51 2.3736 4.267 6.1645 9.5539 8.4242 11.749 2.2596 2.1948 4.1145 4.6936 4.1218 5.553 0.01 1.0884 2.4787 1.5625 8.1383 1.5625 4.4687 0 8.1164-0.42188 8.1059-0.9375zm-287.67-2.65c1.3823-0.87605 1.3032-1.7943-0.44551-5.176-1.1692-2.2611-2.6113-4.7263-3.2045-5.4784-0.59323-0.75205-3.6271-4.5938-6.742-8.5372s-5.6634-7.934-5.6634-8.868-2.6719-4.8228-5.9375-8.6418-11.347-13.61-17.959-21.757c-18.072-22.268-22.538-27.003-24.046-25.495-0.89998 0.89997-0.45901 2.3588 1.4331 4.7409 1.5032 1.8925 5.128 8.131 8.055 13.863 2.9271 5.7323 8.2659 13.889 11.864 18.125 3.5982 4.2364 8.2634 10.918 10.367 14.848 2.1038 3.9298 4.3366 7.4611 4.9616 7.8474 1.769 1.0933 12.132 15.021 14.309 19.232 2.9625 5.7289 8.6638 8.0505 13.008 5.2971zm36.4-0.005c-0.12698-2.199-4.165-7.434-13.813-17.907-5.8821-6.3851-14.268-16.953-18.636-23.485-4.3678-6.5312-13.609-19.508-20.537-28.836-6.9274-9.3287-15.689-21.835-19.47-27.792-3.7812-5.9567-7.491-10.84-8.2438-10.851-2.5192-0.0385-6.124 4.9934-4.8287 6.7402 2.9541 3.9838 8.8276 12.57 10.14 14.823 0.79355 1.3623 5.1343 6.485 9.6461 11.384 4.5118 4.8988 9.4875 10.7 11.057 12.891 1.5696 2.1914 5.2434 7.362 8.1638 11.49 2.9205 4.1282 7.2812 9.6477 9.6905 12.266 2.4093 2.6179 4.7276 5.8364 5.1518 7.1522 0.42419 1.3158 2.5322 4.972 4.6845 8.125s4.4758 6.6445 5.1632 7.7589c0.6875 1.1145 3.6973 5.3971 6.6884 9.517 5.0413 6.9438 5.7942 7.4907 10.312 7.4907 2.6808 0 4.8542-0.34516 4.8298-0.76704zm20.014-12.059c4.8245-7.2418 9.966-15.539 11.426-18.438 1.4595-2.8988 4.4364-7.8018 6.6155-10.896 5.8677-8.3311 11.989-19.654 11.985-22.169 0-1.2135-1.6928-3.3314-3.7573-4.7064s-4.0586-3.3438-4.4312-4.375-4.1008-4.6875-8.2848-8.125c-4.1839-3.4375-12.97-11.223-19.524-17.302-10.504-9.7415-12.337-10.968-15.458-10.344-1.9513 0.39058-3.5413 0.16137-3.5413-0.51017 0-0.67031-2.4188-1.2188-5.375-1.2188s-5.9289-0.5539-6.6059-1.2309c-1.3715-1.3715-21.711-2.7074-41.769-2.7434-15.968-0.0286-16.252-0.009-16.242 1.1618 0.0113 1.2777 10.106 17.166 15.215 23.949 3.9476 5.2404 6.5343 8.8533 26.339 36.788 4.6406 6.5455 8.4375 12.56 8.4375 13.366 0 0.80562 3.5988 5.2044 7.9972 9.7751 4.3985 4.5707 10.606 11.404 13.794 15.185 5.4189 6.4266 13.473 14.979 14.12 14.994 0.1576 0.004 4.2339-5.9188 9.0585-13.161zm-300.71 10.857c0.84664-1.3699-7.393-16.979-12.047-22.823-1.975-2.4796-5.2597-8.0373-7.2995-12.35-2.0398-4.3131-5.3854-9.959-7.4347-12.546-2.0493-2.5875-3.7261-5.0101-3.7261-5.3836 0-0.37348-1.4522-2.2613-3.227-4.1951-1.7749-1.9338-8.5571-10.761-15.072-19.615-10.498-14.269-13.04-19.525-9.4428-19.525 1.1084 0 16.491 19.248 16.491 20.635 0 0.41896 1.5768 2.8382 3.504 5.376 15.634 20.587 19.175 25.666 22.526 32.304 2.0996 4.1592 5.1924 9.1963 6.8729 11.194 1.6805 1.9972 4.6022 6.4404 6.4927 9.8738 1.8904 3.4334 5.3686 8.6331 7.7292 11.555 3.8825 4.8056 4.8208 5.3125 9.8334 5.3125 3.0477 0 5.5413-0.36394 5.5413-0.80876s-1.9688-3.2114-4.375-6.1479-4.375-5.5678-4.375-5.8474c0-0.95586-15.198-27.817-16.802-29.696-0.88034-1.0312-3.1937-4.6875-5.1409-8.125-1.9471-3.4375-5.119-8.2063-7.0485-10.597-1.9295-2.391-3.5082-4.8209-3.5082-5.3998 0-1.8873-7.7571-12.621-13.281-18.378-2.9687-3.0938-8.4912-8.8556-12.272-12.804-6.696-6.9927-7.6589-9.9254-3.751-11.425 1.0965-0.42075 3.1963 1.4266 5.6112 4.9364 2.1224 3.0848 7.4131 9.1455 11.757 13.468 4.344 4.3226 9.0281 10.073 10.409 12.779 1.3811 2.706 3.6959 5.9916 5.144 7.3013 1.4482 1.3097 2.633 2.8668 2.633 3.4603s3.6698 6.6624 8.155 13.486c4.4853 6.824 9.7657 15.392 11.734 19.04 9.0972 16.857 11.705 21.105 14.251 23.212 4.6002 3.8074 6.2871 7.6492 4.372 9.9568-1.4607 1.7601-0.97852 1.8697 4.6157 1.0492 3.4358-0.50389 6.6201-1.2918 7.0763-1.7508 0.94745-0.95336-6.4591-13.519-13.622-23.11-2.6596-3.5612-6.175-8.7249-7.812-11.475-1.637-2.75-5.0417-7.5312-7.566-10.625s-6.0646-7.875-7.8672-10.625-6.5254-9.5849-10.495-15.189c-3.9696-5.6038-9.5489-13.479-12.399-17.5-6.346-8.9551-15.103-18.382-18.881-20.327-1.6016-0.8242-2.8327-2.6394-2.8594-4.2159-0.0414-2.442-0.55516-2.1788-4.3564 2.2315-2.3702 2.75-4.3178 5.6187-4.3281 6.375-0.01 0.75622-1.6006 3.5687-3.5342 6.25s-4.4707 6.8013-5.638 9.1556c-2.0222 4.0786-2.0118 4.4031 0.22187 6.875 2.0287 2.2451 9.2835 13.053 13.268 19.766 0.70879 1.1941 5.0179 7.6629 9.5759 14.375 9.2632 13.641 12.844 19.72 18.6 31.575 5.2512 10.816 11.624 18.454 15.942 19.11 1.8813 0.28551 3.8092 0.60338 4.2842 0.70639 0.47505 0.103 1.1586-0.28984 1.519-0.873zm225.74-0.56967c0-1.8528-1.2766-3.8112-23.789-36.495-14.274-20.723-18.778-27.814-24.32-38.292-0.67865-1.283-1.5224-2.3123-1.875-2.2872s-2.1844 2.4832-4.0707 5.4625l-3.4296 5.4169 4.1698 7.9998c2.2934 4.3999 5.5858 10.243 7.3166 12.985 1.7308 2.7417 4.2791 7.2306 5.663 9.9752 4.7693 9.4589 10.771 19.998 13.163 23.115 1.3191 1.7188 3.1661 4.962 4.1043 7.2072 2.1052 5.0377 5.2303 6.3619 15.254 6.4635 5.6304 0.0571 7.8125-0.37611 7.8125-1.551zm36.25 0.0345c0-0.87763-3.1393-6.0808-6.9761-11.562-3.8369-5.4817-8.0139-11.972-9.2824-14.423-1.2684-2.4509-4.0354-6.3072-6.1489-8.5697-2.1134-2.2624-3.8426-4.3041-3.8426-4.5371 0-1.219-22.936-30.561-26.769-34.245-2.4648-2.3692-4.4815-4.7844-4.4815-5.367 0-0.58264-1.4475-2.5817-3.2167-4.4423s-4.89-5.7736-6.935-8.6954c-2.0451-2.9219-3.917-5.3125-4.1598-5.3125-1.2818 0-5.6576 9.2507-4.6742 9.8815 0.63742 0.40892 4.7166 5.2435 9.0649 10.743 4.3483 5.5 13.562 16.646 20.476 24.769 6.9134 8.1232 14.257 17.782 16.32 21.465 2.0625 3.6823 4.6514 7.7236 5.753 8.9805s3.051 4.1135 4.332 6.3478c1.281 2.2344 2.7351 4.0625 3.2315 4.0625 0.49635 0 2.4332 2.8125 4.3042 6.25 3.1703 5.8248 3.7283 6.25 8.203 6.25 3.061 0 4.8013-0.57839 4.8013-1.5957zm-278.75-0.74223c0-0.3031-1.3488-2.3194-2.9973-4.4807s-4.6427-7.2769-6.6537-11.368c-7.4387-15.133-10.362-20.244-16.224-28.363-3.3001-4.571-7.9216-11.714-10.27-15.874-2.3484-4.1598-6.9695-10.519-10.269-14.132-6.6601-7.2924-7.7565-7.0532-9.2905 2.0267-0.6291 3.7236-0.36858 5.1537 1.0873 5.9685 1.053 0.58931 2.8993 3.7409 4.1028 7.0036 1.2035 3.2626 2.8688 6.7758 3.7006 7.8071 0.83184 1.0312 2.494 3.8438 3.6938 6.25s4.0995 6.7433 6.4438 9.6379 5.1147 7.1134 6.1563 9.375 3.8348 7.4064 6.2069 11.433c2.3722 4.0264 4.313 8.0637 4.313 8.9718 0 0.90804 1.4887 2.822 3.3083 4.2533 2.5588 2.0127 4.8244 2.5389 10 2.3223 3.6804-0.15395 6.6917-0.52794 6.6917-0.83103zm558.18-2.3495c1.6805-1.8906 4.827-6.25 6.9924-9.6875s5.4623-8.5 7.3266-11.25c1.8642-2.75 5.6734-9.3611 8.4648-14.691 2.7914-5.3303 6.5301-11.42 8.3081-13.533 3.2356-3.8453 4.4021-9.9002 1.9073-9.9002-1.6193 0-17.006-15.399-25.549-25.57-3.4375-4.0924-6.9821-8.3101-7.877-9.3727-0.8948-1.0626-2.659-3.3206-3.9204-5.0179-2.1681-2.9172-3.0357-3.1005-15.873-3.3527-7.4688-0.14676-22.095-0.63369-32.503-1.0821-12.284-0.52919-19.198-0.37194-19.704 0.44818-0.4653 0.75288-3.6046 0.97199-7.7684 0.54224l-6.9876-0.72117 1.9347 3.6257c1.0641 1.9942 3.9362 5.8757 6.3826 8.6257 2.4463 2.75 7.3599 8.249 10.919 12.22 3.559 3.971 7.3545 8.5691 8.4343 10.218 1.0798 1.649 6.7994 8.8062 12.71 15.905 5.9108 7.0988 11.653 14.662 12.761 16.808 1.1078 2.1456 4.8449 7.2081 8.3045 11.25 3.4597 4.0419 6.2953 7.9728 6.3014 8.7354 0.01 0.76259 2.2492 3.9292 4.9848 7.0369 2.7355 3.1077 5.5341 7.1244 6.219 8.926 1.6016 4.2124 4.3933 4.1575 8.2325-0.16192zm-496.62-5c1.0671-1.2031 3.8735-5.8438 6.2364-10.312 2.3629-4.4688 7.2562-12.062 10.874-16.875 3.6179-4.8125 7.9314-11.281 9.5857-14.375 1.6542-3.0938 4.2087-7.1286 5.6766-8.9662l2.6689-3.3412-8.8477-9.7838c-4.8662-5.3811-11.986-14.565-15.823-20.409-3.8363-5.8438-7.6667-11.68-8.512-12.969-3.8782-5.9141-5.3912-6.7971-12.995-7.584-4.8471-0.50163-8.0059-0.3151-8.5113 0.50255-1.1651 1.8852-5.7595 1.594-8.0872-0.51247-2.0822-1.8844-20.161-3.8338-31.944-3.4445-10.605 0.35036-21.877 1.6639-21.833 2.5441 0.0229 0.46091 4.0036 5.0568 8.846 10.213s9.6879 11.062 10.768 13.125c1.0799 2.0625 3.9899 6.2278 6.4665 9.2561 2.4766 3.0284 6.1905 8.1686 8.253 11.423 2.0625 3.2541 6.4406 9.4951 9.7292 13.869 5.6795 7.5537 14.77 20.75 28.037 40.702 3.2913 4.9496 6.3189 9.0278 6.728 9.0625 0.40908 0.0348 1.6169-0.92123 2.684-2.1244zm565.09-55.213c1.0551-1.0453-0.7723-4.0112-10.736-17.424-3.2479-4.3725-5.9053-8.7319-5.9053-9.6875 0-0.95562-0.5481-1.7375-1.2179-1.7375-0.6699 0-2.1591-1.8281-3.3095-4.0625-2.7837-5.4067-8.1004-11.783-21.052-25.247l-10.759-11.185-4.5932 4.5932-4.5932 4.5932 2.8427 4.7168c1.5634 2.5942 3.1534 5.7011 3.5332 6.9042 0.3797 1.2031 1.124 2.1875 1.6539 2.1875 1.3176 0 14.995 17.042 14.995 18.683 0 0.72418 0.4475 1.3167 0.9945 1.3167s4.0626 4.1878 7.8125 9.3061c3.7499 5.1184 7.514 9.3371 8.3648 9.375s2.9005 2.2132 4.5549 4.834c2.9562 4.6829 3.1236 4.7571 9.7032 4.3031 3.6823-0.2541 7.1523-0.91503 7.7112-1.4687zm-214.82-1.662c-0.7558-2.5037-3.3638-7.2648-11.004-20.089-1.2702-2.1321-3.0298-4.4609-3.9102-5.1751s-3.6588-4.3923-6.1742-8.1736c-8.2106-12.342-13.335-19.299-17.495-23.75-2.2486-2.4062-8.4436-9.8594-13.766-16.563-5.323-6.7031-10.154-12.188-10.735-12.188-0.5811 0-1.9829-0.92634-3.1151-2.0585-1.9114-1.9114-2.2516-1.8654-4.7594 0.64238-2.2634 2.2634-2.4468 3.0524-1.1318 4.871 0.8631 1.1936 3.1053 4.6562 4.9827 7.6946 1.8774 3.0385 5.611 7.8197 8.2969 10.625s7.6937 9.0198 11.128 13.81c3.4347 4.7902 7.8931 10.415 9.9075 12.5 2.9844 3.0886 13.19 17.447 19.081 26.847 3.6487 5.8215 10.01 12.499 12.343 12.957 6.3772 1.2513 7.238 0.9869 6.3513-1.9507zm192.31 2.0202c0.4358-0.43576-1.4012-3.2842-4.0821-6.33-2.6809-3.0457-6.0908-7.8923-7.5775-10.77-1.4867-2.8779-4.6346-7.2013-6.9955-9.6076-2.3608-2.4062-8.2654-9.4375-13.121-15.625-4.8558-6.1875-9.5363-11.652-10.401-12.144-1.6319-0.92832-6.9482 4.1586-6.9482 6.6485 0 2.2226 4.9747 8.6139 15.084 19.38 5.2339 5.5738 10.975 12.046 12.757 14.383 1.7826 2.3371 5.5136 5.6518 8.2911 7.3659s5.0651 4.101 5.0836 5.3041c0.024 1.5607 1.0484 2.1875 3.5752 2.1875 1.948 0 3.8983-0.35654 4.334-0.7923zm50.874 0.0989c0-0.48323-1.8281-2.9889-4.0625-5.5681s-6.1794-7.4286-8.7667-10.776c-9.69-12.539-24.962-31.136-26.678-32.488-0.9784-0.77061-4.47-5.9255-7.7591-11.455-5.884-9.8928-17.172-24.019-19.194-24.019-0.5678 0-3.2796 2.0302-6.0261 4.5115l-4.9936 4.5115 2.1775 3.8561c1.1977 2.1208 6.8182 8.5362 12.49 14.256 5.6719 5.7202 10.312 11.254 10.312 12.297s0.8374 2.2177 1.8609 2.6105c1.0235 0.39277 3.6846 4.0314 5.9136 8.0858 2.2289 4.0544 4.4296 7.3717 4.8905 7.3717s1.9723 1.9225 3.3587 4.2722c1.3863 2.3497 3.4349 5.3028 4.5523 6.5625 1.1175 1.2597 4.4563 5.3841 7.4196 9.1653l5.3879 6.875 9.5582 0.4051c5.2571 0.22281 9.5583 0.01 9.5583-0.4735zm-260-1.8504c0-0.94774-4.9662-8.4697-14.375-21.773-2.0625-2.9162-7.5135-10.029-12.113-15.805-8.7112-10.94-9.4953-11.954-24.663-31.882l-9.276-12.188-3.4847 4.1742c-1.9166 2.2958-3.1142 4.7859-2.6613 5.5335 2.9413 4.8553 16.24 22.94 18.005 24.484 1.1785 1.0312 3.6272 4.125 5.4416 6.875s5.4729 7.5312 8.13 10.625c6.282 7.3141 10.502 13.2 13.851 19.317 4.3004 7.8556 9.178 10.923 18.268 11.489 1.5821 0.0985 2.8766-0.28414 2.8766-0.85029zm279.69-8.6163c4.9844-5.4498 9.0625-10.512 9.0625-11.249 0-0.73731 0.4902-1.3406 1.0895-1.3406 1.944 0 15.197-14.291 15.954-17.204 0.4045-1.5558 0.036-3.6709-0.8177-4.7002-0.8543-1.0293-2.7452-4.0574-4.2021-6.7291s-4.5285-7.0254-6.8257-9.6748-6.7972-8.1509-10-12.225c-11.665-14.841-10.809-14.333-24.095-14.289-35.336 0.11575-50.966 0.0986-55.166-0.0602-2.9039-0.10987-4.6875 0.39177-4.6875 1.3184 0 0.82265 2.7765 4.688 6.17 8.5896s7.9532 10.133 10.133 13.847c2.1795 3.7142 5.2842 8.1594 6.8995 9.8781 4.4712 4.7577 18.988 23.005 28.589 35.938 4.7215 6.3594 9.2534 11.562 10.071 11.562 0.8175 0 2.127 1.4062 2.9101 3.125 0.7832 1.7188 2.4203 3.1247 3.6382 3.1243 1.2178-0.00036 6.2924-4.4596 11.277-9.9094zm-499.69 6.6396c0-0.57274-4.5366-7.4767-9.058-13.785-1.5494-2.1616-7.7778-11.162-13.841-20-15.384-22.426-16.414-23.764-28.392-36.885-5.8662-6.4264-14.008-15.903-18.094-21.059-4.0854-5.1562-8.7609-10.771-10.39-12.476-2.885-3.0206-3.0076-3.0388-4.7187-0.69859-0.96624 1.3214-1.7568 3.174-1.7568 4.1168 0 0.94281 5.4844 8.7886 12.188 17.435 6.7031 8.6464 14.182 18.596 16.62 22.109 15.314 22.072 20.854 30.167 23.067 33.704 1.375 2.1975 4.881 7.0756 7.7911 10.84 15.596 20.175 13.263 18.145 20.286 17.662 3.4639-0.23824 6.298-0.67129 6.298-0.96235zm178.67-1.202c-0.7987-0.96247-1.9784-1.4248-2.6214-1.0274-0.6913 0.42729-0.5756 1.4376 0.2833 2.4725 0.7988 0.96248 1.9784 1.4248 2.6214 1.0274 0.6914-0.42729 0.5756-1.4376-0.2833-2.4725zm19.763 1.0517c0.5928-1.7783-1.954-5.6324-19.682-29.784-2.4063-3.2782-6.5112-8.2575-9.1222-11.065-2.6109-2.8076-6.7003-7.9924-9.0875-11.522-4.5503-6.7275-10.23-12.958-11.812-12.958-1.2296 0-7.4779 8.2265-7.4779 9.8454 0 0.69419 2.9886 4.5286 6.6413 8.5209 3.6528 3.9923 9.5401 10.915 13.083 15.384 3.5428 4.4688 7.8667 9.8897 9.6086 12.047 1.7419 2.1568 3.1671 4.5892 3.1671 5.4053 0 0.81606 3.1269 4.7619 6.9486 8.7686 6.4558 6.7682 7.3145 7.2661 12.108 7.0197 2.8379-0.14586 5.3691-0.89329 5.625-1.661zm-261.67-3.2943c-1.2986-4.2537-1.9397-5.1314-11.252-15.403-4.8651-5.3663-9.514-11.01-10.331-12.542-0.81688-1.5317-4.349-6.5684-7.8492-11.193-3.5002-4.6243-7.0026-9.8399-7.7833-11.59-1.5276-3.4249-5.7936-8.8163-6.9573-8.7929-0.39164 0.007-1.7423 2.1662-3.0015 4.7962-2.091 4.3673-2.1272 5.1701-0.41805 9.2607 1.0293 2.4634 4.872 8.8246 8.5394 14.136s7.7931 11.403 9.1681 13.537c2.6191 4.0652 8.8283 11.289 14.736 17.144 3.4785 3.4475 7.7245 4.6709 13.113 3.7782 2.2566-0.37386 2.6796-1.0245 2.0363-3.1318zm21.99 3.6387c0-0.97939-7.8199-12.462-10.674-15.674-2.6233-2.9519-24.326-37.183-24.326-38.369 0-1.1529-7.4411-11.202-11.852-16.006-2.525-2.75-5.4559-6.2656-6.5131-7.8125s-2.32-2.8125-2.8063-2.8125c-1.0532 0-7.5783 9.7456-7.5783 11.319 0 0.60187 1.5879 2.942 3.5287 5.2003s5.5699 7.5099 8.0646 11.67c2.4948 4.1603 5.7479 8.6603 7.2293 10s3.7592 4.5242 5.0619 7.0766 4.4772 6.8215 7.0545 9.4869c6.1254 6.3348 17.15 20.298 18.14 22.975 0.4641 1.2549 2.445 2.2631 4.9119 2.5 2.2738 0.21836 5.3998 0.53136 6.9467 0.69554 1.5469 0.16417 2.8125 0.0518 2.8125-0.24984zm18.75-1.2028c0-0.97851-1.4062-3.4503-3.125-5.493-1.7188-2.0426-3.125-4.132-3.125-4.643 0-0.51103-2.2801-3.8048-5.067-7.3196-2.7868-3.5147-8.3755-11.172-12.419-17.015-4.0438-5.8438-9.2168-13.313-11.496-16.598-7.7098-11.116-30.931-41.498-31.985-41.849-1.612-0.53731-5.4169 8.2169-3.9622 9.116 1.2525 0.77405 11.179 13.827 11.179 14.7 0 0.26121 2.25 2.8402 5 5.731s5.0374 6.2168 5.083 7.391 1.99 4.6661 4.3208 7.7599 7.0441 10.406 10.474 16.25c3.43 5.8438 6.7039 11.188 7.2755 11.875 0.57162 0.6875 2.4172 3.2188 4.1014 5.625 1.6841 2.4062 4.7627 6.2531 6.8412 8.5485s4.2289 4.9673 4.7787 5.9375c1.3896 2.4522 12.125 2.4388 12.125-0.0151zm275.14-6.0334c4.4519-4.2969 14.131-13.569 21.51-20.605l13.416-12.793-3.3165-6.5821c-3.2652-6.4804-16.149-24.416-20.726-28.852-1.2882-1.2486-3.7091-4.4357-5.3799-7.0824s-3.7637-5.2727-4.651-5.8356c-2.0324-1.2894-1.1526-1.2462-42.551-2.0885-27.247-0.55433-34.688-0.37141-34.688 0.85282 0 0.8572 1.9941 3.4914 4.4314 5.8537s7.6166 8.5195 11.51 13.683c3.893 5.1632 9.0707 11.684 11.506 14.49 10.151 11.698 24.299 32.196 33.803 48.974 2.4062 4.2479 4.9751 7.7402 5.7086 7.7607s4.9761-3.4784 9.4279-7.7753zm-236.4-8.47c2.4062-2.9772 5.4354-7.1442 6.7314-9.2601s4.671-6.4268 7.5-9.5799c2.829-3.153 5.9463-7.2396 6.9274-9.0812 1.609-3.0204 1.5395-3.6833-0.70903-6.7672-2.8605-3.9232-10.45-19.253-10.45-21.107 0-0.68258-1.6718-3.4506-3.7152-6.1512s-3.7309-5.512-3.75-6.2477c-0.0191-0.73563-1.9438-3.5677-4.2769-6.2935-2.3332-2.7258-5.5103-7.6539-7.0603-10.951-1.7414-3.7047-4.001-6.4451-5.9139-7.1724-1.7027-0.64735-14.697-1.1139-28.877-1.0367-14.18 0.0771-28.313 0.1464-31.406 0.15386-3.0938 0.007-8.5781-0.39662-12.188-0.89795-3.6094-0.50131-6.5625-0.5099-6.5625-0.019 0 0.49083 3.2877 4.6414 7.3059 9.2235s9.082 10.965 11.253 14.185c2.1707 3.2198 5.0706 6.2108 6.4441 6.6467 1.3735 0.43594 2.4973 1.3659 2.4973 2.0666 0 0.70067 3.3027 4.7409 7.3393 8.9783s9.9206 11.642 13.076 16.454c3.155 4.8125 7.0814 10.438 8.7254 12.5 1.644 2.0625 3.7224 5.1562 4.6187 6.875 0.89631 1.7188 3.4384 5.375 5.6492 8.125 2.2107 2.75 4.7951 6.4891 5.7432 8.3091 0.94803 1.82 3.6924 5.6302 6.0987 8.467l4.375 5.1579 3.125-3.5819c1.7188-1.9701 5.0938-6.0178 7.5-8.9949zm-310 8.8416c0-1.3344-0.55294-2.768-1.2288-3.1856-0.67581-0.41767-4.4727-6.0999-8.4375-12.627-3.9648-6.5273-8.8184-14.516-10.786-17.752-1.9674-3.2362-3.9604-6.1653-4.4289-6.509-0.4685-0.34375-2.5151-3.2959-4.5479-6.5603-2.0329-3.2644-4.1035-5.9363-4.6015-5.9375-1.5421-0.004-4.9388 7.6235-4.2243 9.4856 0.37192 0.96921 0.10274 1.7622-0.59817 1.7622s0.1169 1.8281 1.8174 4.0625 4.1197 6.6276 5.3761 9.7628c2.5939 6.4728 6.3302 11.57 9.311 12.703 1.1147 0.42355 2.4241 2.3624 2.9099 4.3086 1.5521 6.2177 5.564 11.472 9.1798 12.023 8.26 1.2585 10.259 0.95927 10.259-1.5361zm19.209-0.55984c-0.0914-1.0577-3.4663-6.7504-7.5-12.65-4.0337-5.9001-8.7894-13.105-10.568-16.012-1.7789-2.9064-4.7886-6.9589-6.6883-9.0055s-4.3126-5.4086-5.362-7.4711-2.8209-4.677-3.9367-5.81-4.1778-5.2197-6.8045-9.0817c-2.6267-3.8619-5.158-6.7784-5.625-6.481-0.46703 0.29736-1.9505 2.6088-3.2966 5.1365-2.1998 4.1308-2.2468 4.7081-0.46402 5.7058 1.7959 1.005 14.787 19.11 14.787 20.608 0 0.34545 2.5312 4.4703 5.625 9.1663s5.625 9.109 5.625 9.8066c0 0.69763 0.88486 2.0028 1.9664 2.9004 1.0815 0.89757 3.1158 3.9196 4.5206 6.7156 4.2292 8.4171 5.5933 9.4179 12.099 8.877 4.2651-0.35463 5.7454-0.98763 5.6231-2.4044zm17.529 1.958c0.34946-0.56543-1.5662-4.6436-4.2571-9.0625s-4.9123-8.7424-4.9366-9.6078c-0.0242-0.86535-2.9973-4.9023-6.6066-8.971-6.8112-7.678-14.697-19.28-19.13-28.146-2.8532-5.7062-20.187-28.185-21.734-28.185-0.54141 0-1.7948 2.1094-2.7854 4.6875l-1.801 4.6875 8.523 12.594c4.6877 6.9268 11.077 15.586 14.198 19.242 3.121 3.6564 6.7732 8.8015 8.116 11.434 1.3428 2.632 4.0494 6.6293 6.0147 8.8828s5.344 7.191 7.5082 10.972c4.8688 8.5067 6.5131 10.644 8.9032 11.574 2.8513 1.1087 7.2746 1.0525 7.9878-0.10163zm17.012 0.15009c0-0.4829-1.6368-2.5923-3.6374-4.6875s-5.189-6.622-7.0854-10.06c-1.8964-3.4375-5.5702-9.625-8.1641-13.75s-8.3823-13.712-12.863-21.305c-8.0416-13.627-22.104-32.776-31.119-42.377-2.5471-2.7125-4.631-5.3844-4.631-5.9375 0-2.5329-2.3918-0.61457-3.6175 2.9014-1.1231 3.2217-0.98009 4.3979 0.81522 6.7046 11.287 14.502 22.042 29.21 23.68 32.386 2.9219 5.663 13.863 21.725 19.363 28.426 2.6176 3.1892 4.7594 6.1718 4.7594 6.6281 0 0.45627 3.1293 5.5813 6.9539 11.389 6.4859 9.8487 7.2431 10.559 11.25 10.559 2.3628 0 4.2961-0.3951 4.2961-0.87799zm412.5-1.9677c0-3.3931-15.54-23.944-30.625-40.498l-5-5.4873-4.375 3.7396-4.375 3.7396 9.8827 9.1135c5.4354 5.0124 14.998 14.032 21.25 20.043 11.447 11.006 13.242 12.274 13.242 9.3495zm-406.39-7.02c1.2987-1.2987 4.4966-6.2205 7.1066-10.938 2.6099-4.717 6.3286-10.533 8.2638-12.924 1.9351-2.391 3.531-4.9223 3.5462-5.625 0.0152-0.70274 1.0617-2.6224 2.3254-4.2659 2.5296-3.29 3.4301-1.1671-12.253-28.887-2.1394-3.7812-6.4208-11.981-9.5143-18.223-6.8656-13.852-9.8436-17.372-13.546-16.014-1.4653 0.53725-14.324 1.0422-28.575 1.1222s-26.25 0.48411-26.664 0.89813c-1.2808 1.2808 2.0159 6.1919 11.011 16.403 7.6316 8.6633 27.189 36.712 27.189 38.994 0 0.47234 2.5308 4.6656 5.624 9.3185 3.0932 4.6528 6.3342 10.072 7.2022 12.043 0.86798 1.9709 3.1804 6.1147 5.1388 9.2084 1.9584 3.0938 4.3554 6.8906 5.3267 8.4375 2.1554 3.4327 4.6918 3.579 7.8196 0.4513zm534.99-30.579c1.0733-1.2933 0.6773-2.6881-1.6858-5.9375-1.6987-2.3359-4.5828-6.4971-6.4091-9.2471-17.227-25.94-26.2-38.125-28.075-38.125-1.4151 0-6.1897 4.6127-6.1459 5.9375 0.017 0.51562 2.1264 3.6843 4.6875 7.0416 11.421 14.972 15.659 20.837 22.428 31.042 5.9969 9.0404 7.7874 10.903 10.512 10.938 1.8065 0.0227 3.9158-0.71943 4.6874-1.6492zm59.324-3.6221c-2.1006-2.2344-6.2239-7.4375-9.1629-11.562-2.939-4.125-6.0197-8.0625-6.846-8.75-0.8264-0.6875-2.9805-3.5-4.7871-6.25-1.8065-2.75-4.8692-7.25-6.806-10s-5.1373-7.8125-7.1122-11.25c-1.9748-3.4375-8.145-11.898-13.711-18.801-5.5664-6.9029-10.964-13.83-11.996-15.394-2.2012-3.3376-5.1264-2.7065-8.0358 1.7338-1.8251 2.7854-1.681 3.3821 2.5197 10.434 2.4505 4.1137 7.1449 10.553 10.432 14.309 5.3197 6.0792 16.672 21.17 22.996 30.569 3.6665 5.4494 11.944 18.052 14.728 22.424 1.8718 2.9392 3.8002 4.2312 7.1494 4.7899 2.5225 0.42075 5.1488 0.95579 5.8363 1.189 0.6875 0.23316 2.9072 0.46835 4.9327 0.52262l3.6827 0.0986-3.8192-4.0625zm-40.118 0.41186c-0.177-0.77254-2.7082-4.8218-5.625-8.9984s-6.4283-9.474-7.8033-11.772c-2.977-4.9754-16.282-21.895-22.113-28.121-2.2754-2.4293-5.6734-6.3668-7.5511-8.75l-3.4141-4.333-2.5234 2.951c-1.3879 1.623-2.5234 3.3361-2.5234 3.8068 0 0.80474 13.298 20.012 31.812 45.949l8.178 11.457 5.9424-0.39203c3.5881-0.23672 5.8149-0.94852 5.6207-1.7967zm18.447 0.91059c0-1.9271-11.957-20.511-16.333-25.385-1.8517-2.0625-4.083-5.1562-4.9584-6.875s-4.0366-6.3166-7.025-10.218c-2.9883-3.9009-5.4359-7.5572-5.4391-8.125 0-0.56785-1.5761-2.72-3.4953-4.7824-2.6902-2.8909-10.205-12.617-14.899-19.284-0.6631-0.94181-7.8498 6.5673-7.8498 8.202 0 0.86647 6.837 10.112 15.193 20.545 8.3563 10.433 16.653 21.605 18.438 24.826 1.7843 3.2211 5.7754 9.2887 8.8692 13.484 4.7007 6.3737 6.3439 7.7136 10 8.1546 2.4062 0.29019 5.0781 0.62216 5.9375 0.73774 0.8594 0.11562 1.5625-0.46041 1.5625-1.2799zm52.914-18.533c11.614-12.601 18.124-20.594 17.561-21.563-0.4918-0.8466-2.3954-3.508-4.2302-5.9143-1.8349-2.4062-4.4124-6.3247-5.7278-8.7076-1.3154-2.383-5.7666-8.9069-9.8916-14.498-4.125-5.5908-9.2711-12.717-11.436-15.836-3.3299-4.7986-4.7728-5.8109-9.375-6.5774-9.2407-1.5391-62.367-1.3823-65.08 0.19211-1.827 1.0602 8.0747 15.964 19.268 29 2.5727 2.9966 6.9352 9.6336 9.6944 14.749 2.7591 5.1153 7.4156 12.329 10.348 16.03 2.9322 3.701 8.011 10.338 11.286 14.75 8.0749 10.876 15.162 18.399 17.332 18.399 0.9881 0 10.101-9.0105 20.251-20.023zm-274.42 16.95c0.56762-0.56761-6.5707-13.235-12.815-22.74-2.7784-4.2296-7.3016-11.383-10.052-15.897-2.75-4.5137-7.1125-11.178-9.6944-14.81-2.5819-3.6318-6.2941-9.8012-8.2493-13.71-1.9552-3.9086-6.0978-10.94-9.2057-15.625-3.1079-4.6851-7.7606-11.81-10.339-15.833-4.6518-7.2571-4.7075-7.2952-7.1311-4.8716-2.2715 2.2715-2.312 2.7555-0.57754 6.9067 1.0258 2.4552 4.2566 8.0224 7.1796 12.372 5.2531 7.8164 11.981 19.258 18.778 31.934 1.9248 3.5896 5.4942 9.4883 7.932 13.108 2.4378 3.62 4.4325 7.0233 4.4325 7.5628 0 0.53955 1.4004 3.0971 3.112 5.6835s3.9604 7.5595 4.9974 11.051c2.5222 8.4932 6.3918 13.329 10.098 12.621 1.9864-0.37971 3.0292 0.13717 3.4391 1.7046 0.44735 1.7106 1.4368 2.0957 4.13 1.6074 1.948-0.35323 3.7319-0.83243 3.9644-1.0649zm22.759-15.523c3.7812-4.4751 11.234-12.824 16.562-18.553 5.3281-5.729 9.6464-11.386 9.5961-12.57-0.05-1.1846-1.147-3.8414-2.4372-5.9039s-4.2594-7.125-6.5982-11.25c-16.208-28.586-23.873-40.625-25.867-40.625-0.60151 0-2.6772-0.63179-4.6125-1.404-3.8884-1.5514-13.82-2.1367-46.956-2.767-12.203-0.23214-22.188-0.0355-22.188 0.43691 0 0.47244 1.6282 3.1067 3.6182 5.8538 1.99 2.7472 4.5871 6.9097 5.7712 9.25 1.1841 2.3404 3.1709 5.3802 4.4151 6.7552s4.5296 6.8657 7.3009 12.202c2.7713 5.3359 6.4126 11.523 8.0916 13.75 1.6791 2.2266 4.3011 6.2984 5.8268 9.0484s4.321 6.9688 6.2117 9.375c1.8908 2.4062 5.0581 7.3782 7.0386 11.049 6.727 12.468 7.9158 14.474 13.146 22.187l5.2269 7.7078 4.4889-3.2024c2.4689-1.7613 7.5826-6.8638 11.364-11.339zm-260 10.473c0-1.7188-0.54805-3.125-1.2179-3.125s-2.1401-1.8281-3.2673-4.0625-3.4256-5.4688-5.1075-7.1875c-3.1665-3.2358-6.6261-7.6198-17.282-21.9-3.4375-4.6066-7.9747-10.423-10.083-12.925-2.1079-2.5023-6.478-8.5789-9.7113-13.504-3.2333-4.9246-7.6961-10.555-9.9174-12.512-2.2213-1.9568-7.5137-7.818-11.761-13.025-10.865-13.32-19.153-20.302-19.153-16.135 0 0.6875 0.42519 1.25 0.94486 1.25 0.51968 0 1.7467 1.8281 2.7268 4.0625 0.98009 2.2344 5.9943 9.6875 11.143 16.562 5.1484 6.875 11.158 15.881 13.355 20.014 3.9412 7.4136 12.212 20.237 19.341 29.986 2.0109 2.75 3.6939 5.8438 3.74 6.875s3.0179 5.468 6.604 9.8595 7.4088 9.454 8.4949 11.25 3.6173 3.7531 5.625 4.3491 4.4941 1.5473 5.5253 2.114 3.7031 1.0634 5.9375 1.1039c3.5196 0.0637 4.0625-0.3441 4.0625-3.0515zm167.81-0.41777c-0.32909-3.0331-10.128-23.418-15.421-32.082-1.6802-2.75-4.983-8.8085-7.3396-13.463-2.3566-4.6549-5.8209-10.28-7.6984-12.5-3.359-3.972-3.4453-3.9966-5.3971-1.5366-2.9961 3.7763-1.5046 8.5282 6.0692 19.337 3.7272 5.3191 10.091 16.082 14.143 23.917 9.8503 19.05 10.513 20.015 13.46 19.594 1.7961-0.25614 2.4111-1.1758 2.1843-3.2662zm47.191 2.212c0-4.9612-14.918-33.72-19.437-37.471-0.99718-0.82757-1.813-2.2872-1.813-3.2436 0-1.8167-2.5135-6.8655-3.9681-7.9704-0.46368-0.35223-3.0427-4.8666-5.7312-10.032-2.6885-5.1653-7.0582-12.471-9.7105-16.235-2.6523-3.7638-6.4248-9.2095-8.3834-12.102l-3.561-5.2584-4.2942 4.7532-4.2942 4.7532 6.1786 11.988c3.3982 6.5936 8.8697 16.053 12.159 21.02 6.941 10.483 7.9662 12.318 16.689 29.877 3.5862 7.2188 7.9137 14.953 9.6166 17.188 2.8173 3.6965 3.7024 4.0625 9.8229 4.0625 3.9233 0 6.7266-0.5546 6.7266-1.3308zm-22.5-1.1007c0-1.018-13.559-29.314-16.004-33.398-0.47895-0.80008-4.1843-6.3994-8.2342-12.443-4.0498-6.0435-8.5852-13.545-10.079-16.67-2.569-5.376-8.1462-15.057-8.6744-15.057-0.13438 0-2.6157 2.2112-5.514 4.9139-4.9778 4.6417-5.1848 5.109-3.737 8.4375 0.84293 1.938 2.7313 5.2111 4.1963 7.2736s4.7031 7.9688 7.1958 13.125c2.4926 5.1562 5.7852 11.344 7.3169 13.75 3.5567 5.5876 11.033 20.162 11.033 21.508 0 0.56469 1.2656 2.9806 2.8125 5.3687 2.7503 4.246 2.999 4.3423 11.25 4.3575 4.6406 0.009 8.4375-0.51619 8.4375-1.166zm-263.83-2.1404c0.29793-0.25837-0.124-1.1354-0.9375-1.9489-0.81354-0.81354-1.4792-2.177-1.4792-3.0299 0-0.85292-3.0316-5.9773-6.7368-11.388-3.7052-5.4102-8.7915-14.226-11.303-19.59-2.5114-5.364-6.8305-13.162-9.5981-17.329-2.7676-4.1667-6.1302-9.7286-7.4725-12.36-2.7375-5.366-3.6626-5.7399-6.4231-2.5963-3.7208 4.2372-3.7405 7.373-0.089 14.153 1.9236 3.5717 4.4873 8.5281 5.6971 11.014 1.2098 2.486 3.0177 5.9263 4.0174 7.6451 0.99974 1.7188 3.5061 6.419 5.5696 10.445 2.0636 4.026 4.335 8.0225 5.0477 8.8812 0.71267 0.85872 2.752 4.3148 4.5318 7.6801 5.145 9.7283 6.1962 10.518 12.849 9.6478 3.1814-0.4159 6.0282-0.96757 6.3261-1.2259zm18.565-0.23568c1.2276-0.77894 0.59228-2.7642-2.6941-8.4184-2.3653-4.0695-8.5459-15.886-13.735-26.259-5.1888-10.373-10.336-19.609-11.438-20.524-1.1024-0.91487-3.6628-5.0061-5.6898-9.0917-2.027-4.0855-5.2565-9.7562-7.1766-12.601-1.9201-2.8452-3.8687-6.1575-4.3303-7.3606-0.46158-1.2031-1.3429-2.1875-1.9584-2.1875-1.5682 0-7.7248 9.124-7.6365 11.317 0.0987 2.455 5.4895 12.806 13.149 25.248 3.4905 5.6702 6.9763 12.136 7.7463 14.369 0.76995 2.2325 2.836 5.9418 4.5911 8.243 1.7552 2.3011 3.1912 4.787 3.1912 5.5242 0 0.73718 0.42187 1.5278 0.9375 1.757 2.3252 1.0334 9.2899 12.724 9.9299 16.668 0.70413 4.339 0.75988 4.3732 7.1086 4.3542 3.5194-0.01 7.1219-0.47783 8.0054-1.0385zm25.269 0.21711c0-2.1601-4.5284-10.349-5.7388-10.377-0.75011-0.0178-2.9433-2.9854-4.8737-6.5948s-6.4122-10.781-9.9596-15.938c-3.5474-5.1562-7.8698-11.906-9.6054-15-7.5696-13.493-8.9857-15.841-11.823-19.604-1.65-2.1885-3-4.3576-3-4.8201 0-0.46257-1.7842-3.0938-3.965-5.8472-2.1807-2.7534-6.106-8.3187-8.7227-12.367-2.6168-4.0487-5.2268-7.3612-5.8-7.3612-0.57322 0-2.2444 1.6261-3.7139 3.6136-2.6006 3.5175-2.6098 3.6697-0.34387 5.7203 1.2803 1.1586 4.6269 6.5585 7.437 12 2.81 5.4412 7.6201 13.561 10.689 18.043 3.0689 4.4826 7.2798 11.66 9.3576 15.949 2.0777 4.2894 4.3049 8.6426 4.9492 9.6738 0.64435 1.0312 3.2062 6.0431 5.6931 11.137 5.289 10.835 13.351 20.976 17.281 21.737 4.6585 0.90235 12.139 0.92408 12.139 0.0352zm33.214-5.9452c0.98213-0.98215 1.7857-2.8434 1.7857-4.136 0-1.2927 2.0477-5.6922 4.5505-9.7768 21.43-34.974 20.408-33.19 20.431-35.676 0.0211-2.296-5.1266-10.239-10.607-16.366-2.0625-2.306-5.8384-7.2734-8.3908-11.039-2.5524-3.7653-8.6489-10.908-13.548-15.873l-8.9069-9.0271-33.682 0.42329c-29.988 0.37686-38.867 1.1344-33.941 2.896 0.84271 0.30136 5.3178 5.4275 9.9445 11.391 4.6268 5.9639 10.782 12.96 13.678 15.547 2.8961 2.587 7.8332 8.6009 10.971 13.364 3.1381 4.7633 7.1241 10.24 8.8578 12.171 4.7752 5.3184 13.285 16.379 19.049 24.761 2.837 4.125 7.7308 10.59 10.875 14.366 3.1442 3.7764 5.7168 7.292 5.7168 7.8125 0 1.4549 1.2452 1.1297 3.2143-0.83935z"/>
</svg>
