<?xml version="1.0" encoding="UTF-8" standalone="no"?>
<!-- Created with Inkscape (http://www.inkscape.org/) -->
<svg id="svg4054" xmlns:rdf="http://www.w3.org/1999/02/22-rdf-syntax-ns#" xmlns="http://www.w3.org/2000/svg" height="465.89" viewBox="0 0 668.42566 465.88684" width="668.43" version="1.1" xmlns:cc="http://creativecommons.org/ns#" xmlns:dc="http://purl.org/dc/elements/1.1/">
 <metadata id="metadata4060">
  <rdf:RDF>
   <cc:Work rdf:about="">
    <dc:format>image/svg+xml</dc:format>
    <dc:type rdf:resource="http://purl.org/dc/dcmitype/StillImage"/>
    <dc:title/>
   </cc:Work>
  </rdf:RDF>
 </metadata>
 <path id="path4064" d="m322.75 460.57c1.1197-7.31 1.797-7.5485 1.5318-0.53951-0.12175 3.2186-0.6993 5.852-1.2834 5.852-0.58416 0-0.69594-2.3906-0.24839-5.3125zm6.032-0.16508c0.48757-3.3564 1.4062-7.2939 2.0413-8.75 0.85679-1.9642 0.94833-1.5184 0.35469 1.7276-0.44006 2.4062-0.92314 5.9334-1.0735 7.8382-0.15037 1.9048-0.70892 3.8735-1.2412 4.375-0.5323 0.5015-0.56889-1.8344-0.0813-5.1908zm-14.316-1.6074c-3.2695-1.485-9.348-2.0775-24.055-2.3448-10.824-0.19674-24.043-0.69426-29.375-1.1056-10.565-0.81505-30.069-1.2776-112.96-2.6789l-54.512-0.92156 0.61227-5.4321c0.46179-4.097 0.18539-5.4321-1.1246-5.4321-0.95529 0-2.4451-1.134-3.3107-2.5201-1.4562-2.3317-1.8401-2.3824-5.1342-0.67898-1.9582 1.0126-6.1665 3.8305-9.3518 6.2619s-5.7915 3.9136-5.7915 3.2937c0-0.61988 3.9617-3.6617 8.8039-6.7597 4.8421-3.0979 8.3013-5.9432 7.6871-6.3228-0.61421-0.3796-5.2168 1.8376-10.228 4.9272-5.0111 3.0896-9.3184 5.4101-9.5718 5.1568-0.58925-0.58924 18.213-12.108 19.764-12.108 2.1772 0-6.9849-10.15-15.17-16.806-4.4877-3.6493-10.691-7.9034-13.784-9.4536-3.0938-1.5502-8.4375-4.6705-11.875-6.934s-7.8205-4.5066-9.74-4.9845c-1.9195-0.47795-5.1477-2.5266-7.1737-4.5526s-4.1117-3.4202-4.635-3.0983c-0.52324 0.32194-4.0451 0.95617-7.8263 1.4094-3.7812 0.45324-8.6644 1.2959-10.852 1.8725-2.894 0.763-4.1466 0.60514-4.6014-0.57989-0.86847-2.2632 0.53847-3.3578 2.3662-1.8409 0.99964 0.82963 3.601 0.85366 7.615 0.0704 3.3532-0.65436 8.2061-1.533 10.784-1.9526 2.5781-0.41955 4.6875-1.3278 4.6875-2.0183 0-1.3822-13.65-0.26497-18.426 1.5081-2.5561 0.94904-2.6658 0.82335-1.2541-1.437 0.85082-1.3624 1.7018-2.0125 1.891-1.4448 0.18925 0.56776 4.3415 0.51647 9.2273-0.114 6.895-0.88972 9.1064-0.7851 9.8805 0.46738 1.3719 2.2198 20.331-0.32944 31.96-4.2974 17.833-6.0849 20.881-7.6596 26.627-13.756 7.8237-8.3011 8.4348-9.5574 4.649-9.5574-1.6879 0-5.3808 1.9316-8.2066 4.2925-5.13 4.286-13.313 7.8943-26.33 11.61-7.915 2.2595-45.47 3.3398-44.192 1.2713 0.40913-0.66198 0.11886-1.5899-0.64501-2.062-0.85734-0.52987 2.6474-5.2858 9.1576-12.427 11.92-13.076 22.351-27.432 27.891-38.387 2.0645-4.0826 5.8398-10.517 8.3896-14.298 6.6407-9.8478 7.263-11.251 13.63-30.731 3.161-9.6718 7.1242-20.917 8.8072-24.99 2.787-6.7438 3.0381-7.0149 2.8144-3.0382-0.1351 2.4014-1.2788 5.4033-2.5415 6.6708-1.5247 1.5305-2.0471 3.2956-1.5553 5.2551 0.50153 1.9982 0.0859 3.3169-1.2878 4.0856-1.3072 0.73157-2.3625 3.7546-2.9683 8.5036-0.51702 4.0527-1.0358 6.5248-1.1528 5.4936-0.26069-2.2967-3.2473 4.3423-4.4817 9.9623-0.58511 2.664-0.45673 3.8261 0.36648 3.3174 0.7803-0.48226 0.99109 0.27234 0.54866 1.9642-0.6856 2.6218-0.76194 2.6361-1.6706 0.31422-0.57219-1.4622-0.9872-1.7194-1.04-0.64451-0.0483 0.9837-3.1196 6.3274-6.8249 11.875-3.7054 5.5476-8.5555 13.743-10.778 18.211-4.4574 8.9626-13.543 21.595-26.522 36.875-7.2969 8.5908-8.1368 10.057-5.9601 10.402 1.3935 0.22104 2.2109 0.92416 1.8164 1.5625-0.39452 0.63835 0.30026 1.204 1.544 1.257s5.9175 0.32171 10.386 0.59708c4.4688 0.27539 10.875 0.0914 14.236-0.40888 5.3085-0.7901 6.1553-1.3201 6.4456-4.0346 0.30962-2.8946 3.4561-19.265 5.0137-26.085 0.37181-1.628 0.91304-2.723 1.2028-2.4333 0.2897 0.2897-0.58143 6.0355-1.9358 12.768-2.9091 14.461-3.0687 18.25-0.76886 18.25 1.1839 0 1.9185-2.5397 2.4406-8.4375 0.45567-5.1475 3.2192-15.749 7.0871-27.188 8.2692-24.455 11.827-39.384 8.9629-37.614-0.58608 0.36222-0.45276-1.6374 0.29628-4.4437 1.2024-4.505 1.4507-4.7564 2.1209-2.1473 0.65328 2.5434 0.96665 2.1715 2.2497-2.67 0.81988-3.0938 3.9865-12.375 7.0369-20.625s8.5822-24.413 12.293-35.918c5.5791-17.298 6.4525-21.162 5.0476-22.328-1.2848-1.0663-1.8213-0.99478-2.201 0.29329-1.6322 5.5377-4.864 13.658-5.273 13.25-0.26435-0.26435 1.1591-5.2204 3.1633-11.013 2.0042-5.793 3.6863-9.5953 3.738-8.4495s0.79721 2.3177 1.6566 2.6042c1.0203 0.34009 3.5509-4.9374 7.2926-15.208 3.1516-8.651 8.0735-21.003 10.938-27.449 5.0831-11.441 6.3601-16.015 4.0772-14.604-2.9198 1.8045-12.592 23.344-20.971 46.704-1.0615 2.9591-2.1662 5.144-2.4549 4.8553-1.641-1.641 17.943-47.816 22.631-53.361 1.9135-2.2629 1.081-11.649-0.92327-10.41-0.88749 0.5485-0.97465 0.0277-0.26324-1.5725 1.2523-2.817 1.3286-8.9669 0.12623-10.169-0.4624-0.4624-2.3364 0.65496-4.1645 2.483-3.0585 3.0585-3.1671 3.5021-1.36 5.5587 3.2908 3.7452 3.9026 7.6988 1.7094 11.046-2.4301 3.7088-4.4498 3.9647-4.4498 0.5638 0-1.375 0.68977-2.3594 1.5328-2.1875 1.9823 0.40414 2.8444-5.1852 1.073-6.9567-0.97443-0.97443-1.3909-0.49436-1.4804 1.7067l-0.12463 3.0625-0.94593-3.125-0.94594-3.125-0.89364 3.75c-0.4915 2.0625-1.4307 4.875-2.0871 6.25-1.0398 2.178-1.1102 2.0975-0.54689-0.625 2.5478-12.314 5.815-30.147 7.5572-41.25 1.1327-7.2187 3.2285-17.673 4.6573-23.231l2.5978-10.106 6.3658-1.4834c16.72-3.8964 30.14-6.4073 43.866-8.2077 8.25-1.0822 21.187-2.8235 28.75-3.8697 14.697-2.0331 49.171-4.626 50.509-3.7989 0.44324 0.27393 3.7753-1.9678 7.4045-4.9816 9.762-8.1066 23.213-16.08 35.211-20.871 36.918-14.744 38.029-15.01 63.75-15.251 15.619-0.14667 20.151-0.59556 23.375-2.3155 2.2003-1.1734 4.597-2.1335 5.3262-2.1335 0.72914 0 3.9197-1.2193 7.0901-2.7096 4.5318-2.1302 6.1994-2.4017 7.7989-1.2699 11.648 8.2425 19.693 11.289 40.44 15.315 17.711 3.4363 28.779 7.201 48.204 16.395 8.4477 3.9984 15.653 7.2697 16.012 7.2697 1.464 0 13.233 9.6309 27.178 22.242 13.892 12.562 24.615 24.51 28.325 31.561 0.88909 1.6896 5.1135 7.6223 9.3875 13.184 4.274 5.5615 9.346 12.874 11.271 16.25s4.803 7.9143 6.3956 10.085c9.0062 12.275 22.349 42.265 26.051 58.553 2.0565 9.0483 8.0359 26.57 13.816 40.485 4.2014 10.115 9.2939 30.436 9.3132 37.164 0.009 2.8318 0.88078 10.144 1.9392 16.25 5.5631 32.092 6.7561 39.592 8.0282 50.476 0.90822 7.7706 3.7204 19.22 8.1363 33.125 9.4567 29.779 11.656 41.074 7.8486 40.312-1.01-0.202-1.8246 1.8976-2.3036 5.9375l-0.74111 6.25-0.19639-7.2917c-0.14087-5.231-0.63794-7.1363-1.7589-6.742-0.85938 0.30233-2.7598 0.10788-4.2232-0.43217-1.4634-0.54003-6.6272-1.3229-11.475-1.7397l-8.8145-0.75789-0.525 3.4817-0.52501 3.4817-0.18729-3.3458c-0.111-1.9818-1.0791-3.6211-2.3748-4.021-2.7733-0.85593 23.598 0.33653 28.318 1.2805 2.3408 0.46816 3.7286 0.13107 4.1673-1.0122 0.96457-2.5136-2.3091-15.41-9.304-36.651-3.3959-10.312-6.665-22.969-7.2648-28.125-1.2835-11.035-3.8045-27.381-7.3933-47.937-1.4223-8.1464-2.586-17.035-2.586-19.753 0-10.394-4.7738-27.509-14.416-51.685-3.0163-7.5625-6.6652-18.725-8.1087-24.805-6.2995-26.535-17.785-49.877-39.625-80.532-4.2764-6.0022-10.404-14.851-13.617-19.663-7.4927-11.223-15.503-20.691-21.576-25.501-4.158-3.2932-5.326-3.6512-8.7286-2.6753-2.3964 0.68728-3.9282 0.67318-3.9282-0.0361 0-0.63951 1.4062-1.1627 3.125-1.1627s3.125-0.54509 3.125-1.2113c0-0.66622-4.9219-5.4626-10.938-10.659-16.481-14.235-49.751-29.874-73.438-34.52-11.863-2.3268-29.971-7.0534-34.881-9.1048-2.4714-1.0326-6.4612-3.3784-8.8664-5.2129-4.7806-3.6464-4.6647-3.6557-17.503 1.4104-7.9872 3.1518-10.712 3.5253-31.25 4.2839-12.375 0.45706-23.625 1.4148-25 2.1282-1.375 0.71344-3.1647 1.0579-3.9771 0.76538-0.8124-0.29248-4.623 0.90715-8.4679 2.6659-3.8449 1.7587-10.443 4.3606-14.663 5.7821-4.2195 1.4214-10.375 3.9541-13.678 5.6281-3.3034 1.674-6.5932 3.0436-7.3106 3.0436-1.2208 0-8.6654 4.9118-18.779 12.39-2.4062 1.7793-5.4002 4.5006-6.6532 6.0475-2.0824 2.5707-3.3719 2.8201-15 2.9013-6.997 0.0489-17.503 0.54295-23.347 1.098-21.87 2.0772-68.254 9.0778-80.625 12.169-4.125 1.0306-9.0625 2.1696-10.972 2.5312-1.9097 0.36156-3.9518 1.5756-4.5381 2.6979-1.0293 1.9703-3.4017 11.804-4.714 19.541-0.34989 2.0625-1.9183 11.062-3.4854 20-1.567 8.9375-2.7664 16.357-2.6651 16.488 0.10125 0.13089 5.2332-4.5865 11.404-10.483 15.855-15.15 26.968-23.16 40.166-28.953 29.218-12.826 54.282-9.9525 66.653 7.6405 2.0529 2.9194 4.2711 5.9511 4.9294 6.7372 0.65831 0.78612 0.95799 1.6682 0.66596 1.9603-0.29202 0.29203 0.58554 2.7209 1.9501 5.3975 3.0941 6.0688 3.0856 7.2722-0.16411 23.226-1.8406 9.0362-4.0781 15.648-7.3558 21.737-2.5908 4.8125-7.356 13.812-10.589 20-3.2334 6.1875-6.3193 11.812-6.8575 12.5-2.2229 2.8394-19.074 36.481-21.226 42.375-7.8264 21.437-25.873 63.44-35.586 82.826-3.8445 7.673-6.99 14.267-6.99 14.653 0 0.87862-5.7398 13.668-8.7605 19.521-3.6816 7.1328-11.137 26.306-11.983 30.819-0.54209 2.8896-3.8579 7.4946-10.705 14.867-5.4559 5.8746-11.159 12.128-12.673 13.896-1.5142 1.7682-7.151 6.5776-12.526 10.688-5.3754 4.1101-10.087 8.2905-10.471 9.2899-0.3835 0.99937 0.43424 3.0541 1.8172 4.566s2.8892 3.9858 3.3471 5.4976c0.54067 1.7849 1.4929 2.4954 2.7155 2.0262 1.0356-0.39738 1.5757-1.5229 1.2003-2.5011-0.39276-1.0235-0.13634-1.441 0.604-0.9835 0.70759 0.43731 0.91685 1.9599 0.46503 3.3834-0.80832 2.5468-0.6035 2.5734 12.762 1.6581 7.4707-0.51161 17.802-1.1805 22.958-1.4863 5.1562-0.30586 14.156-1.1169 20-1.8023 12.275-1.4397 89.966-3.8366 91.601-2.826 1.7245 1.0658 74.425 0.42473 82.774-0.72992 4.125-0.57053 15.656-2.8213 25.625-5.0017 64.43-14.093 81.826-17.451 83.213-16.064 0.35728 0.35728-4.0164 1.3061-9.7192 2.1085-5.7028 0.80242-14.869 2.5105-20.369 3.7958s-15.344 3.4646-21.875 4.843c-6.5312 1.3784-19.443 4.1035-28.693 6.0558l-16.818 3.5496-1.5774 5.613-1.5774 5.613 0.74089-5.5966c0.65028-4.912 0.50833-5.4036-1.1604-4.0186-1.0457 0.86786-2.6559 1.4176-3.5782 1.2216-1.0907-0.2318-1.9486 1.3914-2.4542 4.6436l-0.7773 5-0.17737-5.2339c-0.17442-5.1461-0.24557-5.2255-4.2399-4.7309-2.2344 0.27665-16.438 0.7977-31.562 1.1579-15.125 0.36018-28.062 0.68348-28.75 0.71845-2.7372 0.13925 6.9097 4.3177 23.025 9.9731 28 9.8259 36.35 13.052 36.35 14.046 0 1.3492-1.2846 1.1148-6.25-1.1404zm-14.438-5.321c-0.65313-0.63577-7.9375-3.4105-16.188-6.1661-8.25-2.7556-18.266-6.4609-22.257-8.234-7.98-3.545-20.442-5.7477-28.684-5.0698-2.9198 0.24015-16.278 0.58071-29.684 0.75679-13.406 0.17607-32.812 1.0622-43.125 1.9691-19.885 1.7488-53.524 4.0406-60.313 4.109-3.8676 0.039-4.0625 0.27016-4.0625 4.8188v4.7778l37.813 0.18269c20.797 0.1005 52.125 0.82948 69.617 1.62 17.492 0.79054 35.211 1.1554 39.375 0.81072 4.1638-0.34465 13.195-0.22265 20.07 0.27111 19.383 1.3921 38.791 1.4719 37.438 0.15394zm-205.9-37.96c9.9427-8.0547 22.041-20.11 29.075-28.971l3.9452-4.9701-3.4684-0.9276c-1.9076-0.51018-9.0963-0.35005-15.975 0.35582-6.8786 0.70588-14.217 1.1564-16.307 1.0013-2.0903-0.15518-6.3319 0.19776-9.4256 0.78431-3.0938 0.58654-6.4688 0.93509-7.5 0.77454-5.292-0.82388-5.4196-1.496-1.144-6.026 3.1019-3.2864 3.5855-4.2712 1.769-3.6024-1.375 0.50629-5.3125 1.9621-8.75 3.2352-10.186 3.7725-19.554 6.1606-26.874 6.851-13.576 1.2804-14.501 3.0193-4.1315 7.7667 3.9157 1.7926 9.1188 4.6303 11.562 6.306 2.4437 1.6756 5.7323 3.5478 7.3079 4.1604 3.9503 1.5359 15.981 10.023 22.76 16.056 3.0938 2.7532 6.0325 5.0226 6.5306 5.0431 0.49807 0.0205 5.2793-3.5059 10.625-7.8365zm24.088-36.98 10.618-0.77111 2.8711-8.125c2.7991-7.9212 12.657-30.364 23.369-53.203l5.3133-11.328-2.69-7.429c-1.4795-4.086-6.0449-14.065-10.145-22.176l-7.4554-14.747-2.2575 10.38c-3.1621 14.539-4.8903 21.149-5.3971 20.642-0.23901-0.23901 0.39512-4.3333 1.4092-9.0984 3.3458-15.722 7.9607-45.918 9.3476-61.164 0.75053-8.25 2.3998-20.525 3.665-27.277l2.3004-12.277-3.1072-1.1814c-2.5702-0.97716-2.8412-1.5018-1.5683-3.0356 0.84641-1.0199 2.5696-1.8543 3.8292-1.8543 1.6818 0 2.4868-1.2455 3.0298-4.6875 1.9763-12.527 11.253-28.203 23.976-40.515 5.9203-5.729 19.157-15.299 26.193-18.937 6.7933-3.5127 23.526-8.3602 28.857-8.3602 2.941 0 5.3472-0.50107 5.3472-1.1135 0-2.9566-8.8779-13.468-13.587-16.088-17.11-9.5167-48.261-4.373-71.816 11.858-4.6908 3.2323-8.7729 6.2721-9.0714 6.7551-0.29854 0.48305 0.033 2.4723 0.73684 4.4206l1.2796 3.5424-2.3888-3.0448-2.3888-3.0448-7.0803 6.8039-7.0803 6.8039 1.4077 13.741c2.6196 25.571 2.5589 60.304-0.14744 84.366-3.4258 30.459-3.2204 29.464-6.0861 29.464-2.4097 0-2.412-0.0519-0.11238-2.5446 2.1426-2.3225 4.3212-15.673 2.5573-15.67-0.35897 0.00042-2.8902 1.7349-5.625 3.8543-4.1779 3.2379-4.0237 2.9774 0.9652-1.6301 3.777-3.4883 5.9375-6.5311 5.9375-8.3623 0-2.088-0.53278-2.6742-1.9399-2.1342-1.1124 0.42686-1.6142 0.21731-1.1762-0.49126 0.42003-0.67963 1.5742-1.2357 2.5649-1.2357 1.1638 0 1.8012-1.3132 1.8012-3.7108 0-2.9475-0.42785-3.5466-2.08-2.9126-1.3986 0.5367-1.784 0.31909-1.1762-0.66423 0.49711-0.80433 1.7144-1.4624 2.7051-1.4624 1.3822 0 1.7881-1.8175 1.7447-7.8125l-0.0564-7.8125-3.012 5.625c-3.6162 6.7533-3.864 8.3729-0.9375 6.1284 1.2031-0.92277 0.81974-0.14354-0.85197 1.7316-2.8684 3.2174-5.0404 7.914-7.6377 16.515-0.62283 2.0625-3.5964 11.062-6.6078 20-3.0115 8.9375-5.8695 18.388-6.3512 21.001l-0.87576 4.7505 5.381-3.4322c2.9595-1.8877 6.5422-4.4474 7.9615-5.688 1.4193-1.2407 3.0435-2.2558 3.6094-2.2558 1.3629 0-7.2743 6.828-12.949 10.236-2.4703 1.4838-4.695 2.8506-4.9439 3.0374-0.24886 0.18676-0.57861 1.9432-0.73279 3.9031-0.15418 1.96-0.94268 4.6626-1.7522 6.0059-1.2842 2.1309-1.3727 1.9642-0.69399-1.3077 2.5641-12.36 7.479-29.87 12.969-46.203 3.4578-10.287 6.287-19.323 6.287-20.081 0-1.5498-8.6961-6.0615-9.7165-5.0411-0.74614 0.74614-3.0527 7.5547-9.5536 28.2-2.4896 7.9062-6.7899 20.114-9.5564 27.129-4.5282 11.482-8.6736 24.821-8.6736 27.911 0 1.5379 11.964 7.5795 12.986 6.5576 1.1439-1.1439-0.58833 7.0259-2.5766 12.152-1.7755 4.5779-1.7814 4.6738 0.37534-6.11 0.57371-2.8686-0.0351-3.7111-4.4922-6.2161-2.8358-1.5938-5.8335-2.6368-6.6616-2.3179-0.82811 0.31893-2.2558 3.8849-3.1726 7.9244-0.91681 4.0395-4.3782 15.501-7.6919 25.47-6.6118 19.89-7.352 22.812-7.9921 31.544-0.42643 5.8172-0.37784 5.9056 2.8336 5.1617 1.7971-0.4163 5.6069-1.7598 8.4663-2.9856 4.9111-2.1053 5.2798-2.6331 6.6625-9.5367 0.805-4.0194 1.9789-8.9956 2.6086-11.058 1.0231-3.3509 1.0769-3.2179 0.5054 1.25-0.35177 2.75-1.0071 7.5312-1.4564 10.625l-0.8168 5.625 4.6299-4.0625c2.5464-2.2344 5.9477-4.0625 7.5584-4.0625 1.6106 0 3.451-0.70313 4.0898-1.5625 1.427-1.92 7.7716-18.943 12.695-34.062 4.0461-12.425 11.909-48.082 10.839-49.152-0.37266-0.37266-3.3409 1.1298-6.5961 3.3388l-5.9186 4.0164 4.375-3.8379c2.4062-2.1108 5.5883-4.1451 7.0713-4.5205 2.3154-0.58617 2.8406-1.9478 3.7175-9.6387 0.69186-6.0679 1.1589-7.634 1.4482-4.8563 0.76231 7.3196-9.5606 52.221-17.346 75.451-4.0648 12.128-7.3906 22.98-7.3906 24.116 0 1.1357-2.42 4.7127-5.3777 7.9488-2.9577 3.2362-8.1044 9.1368-11.437 13.113l-6.0593 7.2286 17.374-0.83249c9.556-0.45787 22.153-1.1795 27.993-1.6036zm-5.6125-5.4586c0.45626-2.2344 1.8726-7.7188 3.1475-12.188 1.2748-4.4688 2.9458-11.5 3.7131-15.625 0.76737-4.125 2.4872-11.438 3.822-16.25 1.9688-7.0988 2.3004-7.6885 1.7574-3.125-0.36814 3.0938-1.1786 7.3125-1.8011 9.375-2.5762 8.536-8.7698 35.932-8.7698 38.791 0 1.6963-0.60719 3.0842-1.3493 3.0842-0.85913 0-1.0479-1.4758-0.51973-4.0625zm-31.884-24.49c0-1.5309 6.2634-5.5957 7.1918-4.6673 0.39868 0.39868 0.1747 0.72488-0.49775 0.72488s-2.4537 1.1469-3.9583 2.5487-2.7357 2.029-2.7357 1.3938zm11.25-8.2036c0-0.23799 0.84375-1.133 1.875-1.9888 1.0807-0.89694 1.875-1.0184 1.875-0.28679 0 0.69813-0.84375 1.5931-1.875 1.9888-1.0312 0.39572-1.875 0.52477-1.875 0.28679zm-12.412-2.8824c0.0483-1.2273 0.57128-3.3565 1.1621-4.7315 0.95057-2.2121 1.0844-2.1025 1.1621 0.95184l0.0879 3.4518 7.7501-5.6393c4.2626-3.1016 8.2786-5.6393 8.9244-5.6393 0.64587 0-1.0135 1.4653-3.6876 3.2563s-5.9869 4.2519-7.3619 5.4688-3.7656 2.8651-5.3125 3.6627c-2.4136 1.2445-2.8 1.1337-2.7246-0.7813zm3.2103-11.606c0.42691-2.4062 1.2301-5.5 1.7848-6.875 1.0086-2.5 1.0086-2.5 0.99276 0-0.009 1.375-0.8119 4.4688-1.7848 6.875l-1.769 4.375 0.77622-4.375zm2.9519-1.1664c0-1.233 15.88-10.086 18.084-10.081 0.70999 0.001-2.0677 1.773-6.1726 3.9367s-8.2232 4.6938-9.1518 5.6223c-1.9833 1.9833-2.7597 2.1302-2.7597 0.52191zm40.438-8.2086c2.875-13.522 5.602-23.232 5.6984-20.29 0.11687 3.5676-4.4951 22.248-5.7758 23.395-0.39594 0.35446-0.36111-1.043 0.0774-3.1055zm-26.068-9.1783c1.3624-1.6106 3.6084-3.5075 4.991-4.2155 2.6549-1.3594 2.2682-0.9405-3.7271 4.0375-3.6093 2.9968-3.6538 3.0031-1.264 0.17801zm-8.0463-3.6355c0.10875-1.3817 15.352-13.835 18.15-14.828 2.2662-0.80424 2.2588-0.71894-0.13275 1.5198-4.568 4.2761-18.093 14.266-18.018 13.308zm-1.225-7.2904c0.06-1.4562 0.35617-1.7524 0.7552-0.75522 0.36108 0.90234 0.31668 1.9805-0.0986 2.3958-0.41537 0.41536-0.7108-0.32292-0.65652-1.6406zm1.5618-5.6359c0.44295-1.6554 0.82165-3.5724 0.84156-4.2599 0.0199-0.6875 0.51934-0.48755 1.1098 0.44435 0.88744 1.4005 1.697 1.3298 4.6684-0.40777l3.5947-2.1021-3.0979 2.2828c-1.7038 1.2555-4.1833 3.356-5.5099 4.6677-2.3759 2.3492-2.4 2.3398-1.6067-0.625zm14.599-9.13c0-0.24994 1.4062-1.3758 3.125-2.502s3.125-1.5624 3.125-0.96941c0 0.593-1.4062 1.7189-3.125 2.502-1.7188 0.78311-3.125 1.2193-3.125 0.9694zm-7.5-2.4639c0-0.25956 0.98438-1.2439 2.1875-2.1875 1.9826-1.5548 2.0268-1.5106 0.47195 0.47195-1.633 2.0822-2.6595 2.7444-2.6595 1.7156zm9.375-23.278c1.2444-1.375 2.5437-2.5 2.8875-2.5 0.34375 0-0.39311 1.125-1.6375 2.5s-2.5437 2.5-2.8875 2.5c-0.34375 0 0.39312-1.125 1.6375-2.5zm3.125-4.2413c0-0.2702 0.87296-0.82625 1.9399-1.2357 1.1124-0.42686 1.6141-0.21731 1.1762 0.49126-0.73408 1.1878-3.1162 1.7568-3.1162 0.74443zm-5-3.7307c0-0.25956 0.98437-1.2439 2.1875-2.1875 1.9826-1.5548 2.0268-1.5106 0.47195 0.47195-1.633 2.0822-2.6594 2.7444-2.6594 1.7156zm6.87-5.5813c1.3624-1.6106 3.6084-3.5075 4.991-4.2155 2.6549-1.3594 2.2682-0.9405-3.7271 4.0375-3.6093 2.9968-3.6538 3.0031-1.264 0.17801zm42.06-97.384c-1.364-3.1876-1.3331-3.2611 0.42437-1.0111 1.0424 1.3345 1.8953 2.8814 1.8953 3.4375 0 1.8999-0.84791 1.013-2.3197-2.4264zm-5.0733-9.0625c-0.0377-1.0312 0.40689-2.6253 0.98819-3.5423 0.8377-1.3215 1.2287-1.2196 1.8853 0.49141 0.4556 1.1873 0.53388 2.4532 0.17395 2.8131-0.35993 0.35993-0.69396-0.14245-0.74228-1.1164-0.0519-1.0459-0.52767-0.74735-1.1621 0.72916-0.70835 1.6484-1.0977 1.8613-1.143 0.625zm-2.7682-5.3125c-0.70587-1.3685-0.3694-7.1875 0.4156-7.1875 0.54758 0 0.99559 1.6875 0.99559 3.75 0 3.0986-0.70286 4.8108-1.4112 3.4375zm20.576 158.12c3.107-7.3906 7.9748-19.344 10.817-26.562 2.8426-7.2188 6.603-16.5 8.3565-20.625s4.2293-10.478 5.5017-14.118c1.2724-3.6402 5.1476-11.646 8.6116-17.791 3.4639-6.1448 6.2981-11.634 6.2981-12.199 0-0.56482 1.5784-3.5277 3.5076-6.5842s8.3633-14.911 14.298-26.343c8.7953-16.942 11.151-22.688 12.742-31.076 2.0886-11.01 2.4861-19.794 0.99533-21.995-0.5051-0.74589-4.2966-1.4832-8.4256-1.6385-11.747-0.44175-24.795 4.7762-39.368 15.744-19.128 14.396-24.349 20.436-29.58 34.22-6.588 17.362-8.8601 27.967-12.299 57.405-1.004 8.5938-2.674 19.562-3.7111 24.375-4.4964 20.864-4.665 18.603 2.4692 33.125 3.5465 7.2188 7.7336 16.359 9.3047 20.312 1.5711 3.9531 3.301 7.1875 3.8442 7.1875s3.5297-6.0469 6.6367-13.438zm-10.415-4.7059c0-0.85462 7.8179-5.596 9.2369-5.6019 0.61156-0.003-0.9603 1.4016-3.493 3.1203-4.6766 3.1736-5.7439 3.6348-5.7439 2.4816zm11.801-19.913c1.3345-1.0692 2.9752-1.944 3.6458-1.944 1.5882 0 0.87904 0.57738-2.9472 2.3996-2.9466 1.4033-2.9865 1.3773-0.69859-0.45568zm-17.409-0.72193c0.43441-0.70289 4.2645-3.0241 8.5113-5.1583s9.3007-4.9955 11.231-6.3584c1.9302-1.3629 3.8008-2.1867 4.1569-1.8306 0.62541 0.62542-11.575 7.8284-18.604 10.984-1.8906 0.84867-3.4375 2.0152-3.4375 2.5924 0 0.57714-0.5957 1.0494-1.3238 1.0494-0.72807 0-0.96835-0.57509-0.53393-1.278zm-5.1085-9.3739c1.3248-1.0023 2.7148-1.5163 3.0888-1.1423 0.78461 0.78461-2.3901 3.0158-4.2476 2.9852-0.6875-0.0113-0.16606-0.84066 1.1588-1.8429zm7.0704-3.5728c1.2751-1.162 13.646-7.0025 13.646-6.4425 0 0.70478-11.937 6.9171-13.292 6.9171-0.48118 0-0.64051-0.21358-0.35406-0.47463zm14.896-7.5105c0-1.0022 11.448-7.2331 12.097-6.5841 0.35813 0.35814-2.2173 2.1047-5.7231 3.8812-3.5058 1.7766-6.3743 2.9928-6.3743 2.7028zm-17.971-3.5135c0.86318-1.3966 11.673-6.4736 12.335-5.7933 0.22315 0.22933-2.6395 1.9157-6.3615 3.7474-3.722 1.8318-6.41 2.7524-5.9733 2.0458zm14.221-6.3676c0-0.98448 21.538-9.7622 22.238-9.0628 0.3411 0.3411-0.4447 0.99828-1.7462 1.4604-2.0716 0.73554-14.563 5.7359-18.929 7.5771-0.85938 0.36245-1.5625 0.37383-1.5625 0.0252zm-5-10.259c4.1032-2.3456 5.6492-2.3456 3.3036 0-1.0312 1.0312-2.8996 1.8551-4.1518 1.8307-1.8272-0.0355-1.6597-0.39706 0.84821-1.8307zm6.4638-2.5055c0.52892-0.52893 7.0072-2.8959 20.411-7.4575 2.2911-0.77973 2.3126-0.73067 0.25622 0.58719-2.0036 1.2841-19.146 7.5008-20.683 7.5008-0.33792 0-0.33069-0.28371 0.0161-0.63046zm-7.6096-7.348c1.2726-1.169 18.646-9.4877 18.646-8.928 0 0.69814-16.944 9.4064-18.302 9.4064-0.4755 0-0.63016-0.21531-0.34371-0.47846zm31.146-1.2628c0-0.2702 0.84375-0.81504 1.875-1.2108 1.0312-0.39572 1.875-0.17465 1.875 0.49126 0 0.66593-0.84375 1.2108-1.875 1.2108s-1.875-0.22107-1.875-0.49126zm-33.175-8.1777c1.1944-1.9326 25.123-14.982 27.55-15.025 0.6875-0.0125-4.0938 2.8414-10.625 6.3409-6.5312 3.4994-12.763 7.1479-13.848 8.1076-2.2371 1.9782-4.1665 2.3395-3.0767 0.57607zm21.925-0.51208c0-0.35164 2.9531-1.7593 6.5625-3.128 3.6094-1.3688 8.6719-3.3855 11.25-4.4816s4.6875-1.5538 4.6875-1.0172c0 0.53664-4.6174 2.6536-10.261 4.7043-5.6435 2.0507-10.706 3.916-11.25 4.1452-0.54395 0.22918-0.98901 0.12896-0.98901-0.22268zm-14.375-17.632c5.6188-4.8245 19.915-13.174 31.875-18.616 5.8438-2.6589 14-7.2222 18.125-10.141 7.5066-5.3108 14.852-9.574 12.5-7.2548-3.6483 3.5974-21.514 14.382-32.079 19.365-6.6437 3.1334-16.206 8.4276-21.25 11.765-11.739 7.7674-13.826 8.878-9.1706 4.8806zm21.875 2.4696c0-0.7328 7.0017-4.4102 8.3754-4.3989 0.54977 0.005-0.68792 1.1258-2.7504 2.4918-3.6698 2.4304-5.625 3.0933-5.625 1.9071zm10-4.8984c0-0.2702 0.87296-0.82625 1.9399-1.2357 1.1124-0.42686 1.6141-0.21731 1.1762 0.49126-0.73407 1.1878-3.1162 1.7568-3.1162 0.74443zm5-2.4945c0-0.86142 8.8172-6.1138 9.357-5.574 0.26151 0.26153-1.7368 1.7487-4.4408 3.3049-2.7039 1.5562-4.9162 2.5772-4.9162 2.269zm-36.789-7.1098c1.2919-1.4275 5.8741-4.5669 10.183-6.9764 4.3086-2.4095 8.1332-4.8654 8.4992-5.4576 0.36598-0.59218 6.1366-4.295 12.824-8.2284 15.087-8.8742 32.179-20.133 34.125-22.478 1.5432-1.8595 4.2563-2.4936 3.1736-0.7417-0.90555 1.4652-23.459 16.323-34.516 22.737-5.1562 2.9916-10.5 6.4113-11.875 7.5993-1.375 1.1881-5.8819 4.1294-10.015 6.5363-4.1334 2.4069-8.58 5.5526-9.8812 6.9905-1.3012 1.4378-2.9284 2.6143-3.6159 2.6143s-0.19299-1.168 1.0989-2.5955zm48.039 0.80846c0-0.34375 1.125-1.2271 2.5-1.963 1.375-0.73588 2.5-1.0567 2.5-0.71296 0 0.34375-1.125 1.2271-2.5 1.963-1.375 0.73587-2.5 1.0567-2.5 0.71296zm-47.5-13c0-0.58417 1.2656-1.6846 2.8125-2.4453 1.5469-0.76076 4.6406-2.5938 6.875-4.0734s4.0625-2.4334 4.0625-2.1194c0 0.31393-3.0938 2.6249-6.875 5.1355s-6.875 4.0868-6.875 3.5026zm2.5-9.549c0-0.6692 12.165-9.7149 15-11.153 1.8573-0.94254-0.0734 0.77861-8.9784 8.0039-4.4081 3.5766-6.0216 4.4205-6.0216 3.1495zm14.613-2.0518c1.5058-1.6432 4.5995-4.0594 6.875-5.3695 5.2036-2.9959 4.5043-2.2329-3.3628 3.6686-3.6813 2.7615-5.1248 3.4606-3.5122 1.7009zm13.364-8.8575c10.528-7.2959 33.833-22.112 34.201-21.743 0.56718 0.56718-21.745 15.253-30.303 19.946-3.4375 1.8849-5.1916 2.6935-3.8979 1.797zm-10.477-1.5021c0-0.79818 13.112-9.4716 23.75-15.711 5.1562-3.024 10.363-6.3297 11.57-7.3459 1.2073-1.0162 2.5096-1.5332 2.894-1.1489 0.38435 0.38434-5.9472 4.7079-14.07 9.6079-8.1229 4.9-16.878 10.309-19.456 12.02-2.5781 1.711-4.6875 2.8709-4.6875 2.5775zm2.5-7.584c0-0.31956 1.2656-1.2554 2.8125-2.0796 2.5503-1.3589 2.6526-1.3047 1.097 0.58103-1.5973 1.9363-3.9094 2.8226-3.9094 1.4986zm17.167-12.074c0.84793-0.85428 1.8566-1.2383 2.2414-0.85348 0.38487 0.38486-0.30888 1.0838-1.5417 1.5532-1.7815 0.67835-1.9251 0.53477-0.69975-0.69975zm-61.12 124.81c1.4853-7.0469 3.2672-18.438 3.9598-25.312 2.4445-24.267 6.7966-44.818 12.737-60.146 4.705-12.14 5.5193-13.363 14.801-22.231 19.238-18.38 38.28-28.386 54.645-28.716 4.5742-0.0921 7.6322-0.67432 7.3922-1.4072-0.72058-2.2006-14.882-0.6986-24.152 2.5617-17.03 5.9895-23.664 10.318-38.223 24.938-14.3 14.36-20.541 24.305-21.88 34.865-0.35811 2.8244-1.0579 5.6979-1.5551 6.3854-1.0936 1.5121-6.6993 38.766-9.2164 61.25-1.0006 8.9375-2.2108 17.234-2.6893 18.438-0.47855 1.2031-0.3413 2.1875 0.305 2.1875 0.64629 0 2.3904-5.7656 3.8757-12.812zm-23.709-41.91c2.3098-5.3089 4.6512-12.465 5.203-15.903 1.0442-6.5051 0.15826-28.126-1.1524-28.124-0.85402 0.001-7.2758 14.438-11.398 25.624-1.5203 4.125-3.5072 9.2715-4.4153 11.437-0.9081 2.1651-2.0162 5.8828-2.4624 8.2615-0.77031 4.1061-0.56887 4.4254 3.9822 6.3115 2.6365 1.0926 5.0748 1.9999 5.4186 2.0161 0.34375 0.0163 2.5149-4.3141 4.8247-9.6231zm28.925-23.329c0-0.30317-0.5625-0.89887-1.25-1.3238-0.6875-0.4249-1.25-0.17685-1.25 0.55122 0 0.72808 0.5625 1.3238 1.25 1.3238s1.25-0.24805 1.25-0.55123zm183.59 278.34c0.72022-1.3458 3.1591-3.1397 5.4198-3.9866 10.23-3.8321 13.333-4.8999 20.36-7.0067 4.125-1.2366 8.0625-2.3598 8.75-2.496 0.6875-0.13619 5.1875-1.3863 10-2.778 12.807-3.7037 19.87-5.1904 33.795-7.1139 6.8503-0.94629 17.283-2.6091 23.183-3.6952 18.18-3.3464 36.255-5.3765 48.022-5.3936 6.1875-0.009 9.8438 0.23448 8.125 0.5411-1.7188 0.30664-4.7167 2.629-6.6622 5.1609l-3.5372 4.6034 3.3837 0.41088c2.5189 0.30586 4.5546-0.73248 7.9648-4.0625 2.5196-2.4604 5.0225-4.4734 5.5619-4.4734 0.53939 0-0.74996 1.4562-2.8652 3.2361-4.5613 3.8381-4.8806 5.529-1.0334 5.4729 1.7481-0.0255 4.5966-2.1279 7.5267-5.5554l4.7142-5.5144-5.9642-0.46927c-3.2803-0.2581-0.0579-0.48229 7.1608-0.4982 8.4796-0.0186 11.017 0.23337 7.1679 0.71218-3.8328 0.47684-7.5103 1.986-10.312 4.2319-7.7956 6.248-6.5046 6.8488 15.108 7.0299 17.237 0.14446 19.703-0.0935 21.562-2.0802 1.1546-1.2338 1.6773-1.6971 1.1617-1.0294-2.185 2.8294-0.048 3.2186 16.875 3.0737l17.812-0.15256 3.5214-4.1837 3.5214-4.1837-3.3431-0.83906c-1.8387-0.46148-3.7095-0.34105-4.1572 0.26762-0.44779 0.60868-2.4968 2.5109-4.5533 4.2272l-3.7392 3.1204 3.6714-4.058 3.6714-4.058h-4.3839c-3.2164 0-5.8585 1.2263-9.9214 4.6051l-5.5375 4.6051 4.3077-4.6051 4.3077-4.6051h-3.3666c-2.0944 0-5.3755 1.7515-8.6827 4.6351l-5.3161 4.6351 4.0625-4.3821c2.2344-2.4102 4.0625-4.7772 4.0625-5.2601 0-0.48289-3.4412-0.87799-7.6471-0.87799-7.2163 0-7.9204 0.27337-12.5 4.8529-2.6691 2.6691-4.8529 4.4547-4.8529 3.9679 0-0.48678 1.4062-2.2062 3.125-3.8208 1.7188-1.6147 3.125-3.4002 3.125-3.9679 0-2.2776-6.3074-0.82966-10.217 2.3454-4.0178 3.2633-4.0633 3.2712-1.3459 0.23194 3.5102-3.9259 3.5302-4.8594 0.10413-4.8594-1.4896 0-2.474-0.20095-2.1875-0.44655 0.28646-0.24561 16.552 0.28795 36.146 1.1857 19.594 0.89774 39.281 1.7455 43.75 1.8838 4.4688 0.13839 6.4375 0.49212 4.375 0.78607-3.5488 0.50578-10.625 5.8836-10.625 8.0748 0 2.284 5.739 0.79011 9.3021-2.4214 3.5563-3.2053 3.6242-3.221 1.0059-0.23194-1.5444 1.7631-2.808 3.5912-2.808 4.0625 0 0.47131 2.9885 0.85694 6.6411 0.85694 5.7473 0 7.1247-0.5047 10.234-3.75l3.5927-3.75h-3.4157c-1.9767 0-4.7322 1.3165-6.5407 3.125-4.378 4.378-5.493 3.9224-1.2469-0.5096 3.1462-3.2839 3.2592-3.692 1.1714-4.23-1.3856-0.357-0.7409-0.65345 1.6101-0.7404 2.1565-0.0797 8.4562 1.1686 13.999 2.7741l10.078 2.9191 0.47805-4.4816 0.47805-4.4816 0.21014 4.7768c0.1155 2.6272 1.0539 5.6205 2.0851 6.6518 2.6076 2.6076 2.3448 4.0877-0.9375 5.2797-2.7011 0.98091-5.8827 0.78691-36.562-2.2293-16.979-1.6692-127.9-1.7301-140-0.0768-4.8125 0.65744-11.844 1.5368-15.625 1.9541-3.7812 0.41729-10.25 1.2694-14.375 1.8937-4.125 0.62422-11.438 1.6675-16.25 2.3183-4.8125 0.65085-11.78 1.7736-15.483 2.4951-6.7782 1.3205-15.974 1.6766-10.767 0.41694 1.375-0.33264 3.9062-1.8058 5.625-3.2738 1.7188-1.4679 2.4219-1.8618 1.5625-0.87522-0.85937 0.98658-1.5625 2.1911-1.5625 2.6768 0 1.4831 5.5188-0.44041 7.2802-2.5374 0.91035-1.0838 1.299-1.2675 0.86373-0.40809-0.52399 1.0344 0.21592 1.5625 2.1894 1.5625 2.7616 0 5.12-1.9447 9.726-8.0198 1.7154-2.2626 1.6087-2.3438-1.9343-1.4698-2.0625 0.50875-5.1522 2.1489-6.8661 3.6448l-3.116 2.7198 2.491-2.997 2.4911-2.997-7.4956 0.85663c-6.313 0.7215-8.2824 1.5887-12.483 5.497-2.743 2.5522-3.6314 3.0935-1.974 1.2029l3.0133-3.4375h-3.5959c-2.3194 0-5.1606 1.4421-8.0037 4.0625-2.4243 2.2344-3.3483 2.7969-2.0533 1.25 1.5371-1.836 1.8104-2.8125 0.78726-2.8125-3.0073 0-10.167 4.095-11.494 6.5739-1.2419 2.3206-1.039 2.4431 2.8557 1.7251 2.3059-0.4251 6.4187-1.099 9.1395-1.4975 2.7208-0.39851 5.2789-0.92978 5.6847-1.1806 0.40581-0.25082 1.4864 0.006 2.4014 0.5721 1.0607 0.65555-0.77282 1.3236-5.0597 1.8436-3.6978 0.4485-11.504 1.873-17.348 3.1655-5.8438 1.2925-14.844 2.9996-20 3.7936-5.1562 0.79395-10.408 1.7354-11.67 2.0922-1.9428 0.54913-2.0939 0.27329-0.98527-1.7982zm12.674-3.239c0.0125-0.91783 0.3845-0.84983 1.0447 0.19086 0.80366 1.2668 1.6786 1.0872 4.0434-0.8299 1.6598-1.3456 2.6095-2.8563 2.1105-3.3572-0.49901-0.5009-1.8409-0.13593-2.9819 0.81106-1.141 0.94697-2.7015 1.7463-3.4677 1.7762-3.0992 0.121-9.5181 2.1149-9.5181 2.9566 0 0.49483 1.9688 0.66985 4.375 0.38893s4.3836-1.1523 4.3941-1.9365zm13.017-1.515c2.4468-2.4468 2.5234-4.2857 0.17858-4.2857-2.0019 0-5.7143 3.3064-5.7143 5.0893 0 1.8404 3.3828 1.3494 5.5357-0.80358zm7.4897-3.2728c1.0544-1.5054 1.697-2.9572 1.4279-3.2263-1.0162-1.0161-5.7033 2.38-5.7033 4.1323 0 2.6762 2.0741 2.2366 4.2754-0.90607zm57.533-8.1654c0.59075-1.5395 1.0906-1.7244 1.755-0.64925 1.5783 2.5537 15.309-0.3092 17.952-3.7431 1.1982-1.5566 2.191-3.1919 2.2062-3.634 0.0153-0.44208 0.92346-1.1475 2.0182-1.5675 1.2146-0.4661 0.65165 0.82151-1.4445 3.3038l-3.4349 4.0675 3.5955 0.42215c1.9775 0.23219 3.7722-0.10788 3.9881-0.75581 0.21597-0.6479 1.799-0.90915 3.5179-0.58057 1.9363 0.37014 4.0596-0.24819 5.5814-1.6254 1.4075-1.2738 2.4562-1.6064 2.4562-0.7791 0 0.79406 1.5469 1.4336 3.4375 1.4212 2.4574-0.0161 4.5958-1.4178 7.5-4.9159 2.2344-2.6914 4.0625-5.1565 4.0625-5.4781 0-1.8673-9.117 0.6563-11.54 3.1942-1.5594 1.6334-2.1321 2.0542-1.2727 0.93518 2.2507-2.9309 1.9498-3.7128-1.4288-3.7128-1.6452 0-3.315 0.84375-3.7108 1.875-0.39572 1.0312-1.3328 1.875-2.0825 1.875-0.74965 0-0.99935-0.5884-0.55489-1.3076 1.1056-1.7889-11.485-0.13328-15.884 2.0888-1.8419 0.93023-3.7214 2.8649-4.1766 4.2992-0.45524 1.4344-1.1338 2.3018-1.5079 1.9277-0.37411-0.3741 0.25271-2.104 1.3929-3.8442 1.7343-2.6468 1.7765-3.164 0.25861-3.164-0.99799 0-2.56 0.70312-3.4712 1.5625-0.91118 0.85937-2.7795 2.4062-4.1518 3.4375-2.3217 1.7447-2.3741 1.7209-0.75447-0.34271 2.489-3.1712 1.0632-3.8289-3.85-1.776-3.6036 1.5056-8.5156 6.6682-8.5156 8.9498 0 0.36794 1.6273 0.66898 3.6163 0.66898 2.2685 0 3.9241-0.8022 4.4422-2.1525zm28.191-5.8195c0-0.25956 0.98437-1.2439 2.1875-2.1875 1.9826-1.5548 2.0268-1.5106 0.47195 0.47195-1.633 2.0822-2.6594 2.7444-2.6594 1.7156zm188.49 2.0344c-0.26628-1.3143-1.5254-2.1506-3.1545-2.0949-1.4912 0.0509-2.4613-0.31202-2.1557-0.80652 0.30561-0.4945-0.22498-1.1986-1.1791-1.5648-1.6056-0.61612-7.0009 3.8512-7.0009 5.7968 0 0.47131 3.135 0.85694 6.9666 0.85694 5.9704 0 6.9033-0.31283 6.5235-2.1875zm-12.447-1.9677c2.767-2.9453 2.499-4.5948-0.74641-4.5948-2.6141 0-9.1976 4.9953-8.363 6.3456 1.3241 2.1424 6.3615 1.1743 9.1095-1.7508zm-145.71-3.88c4.2176-5.2858 4.2386-5.6918 0.29488-5.6918-1.9541 0-4.5403 1.5364-6.8384 4.0625-4.6031 5.0599-4.6521 5.9375-0.33153 5.9375 2.4201-0.00002 4.4549-1.2751 6.875-4.3082zm115.12-0.20355 3.5606-4.2382h-8.0142c-7.1589 0-8.3746 0.37614-11.391 3.5242-1.857 1.9383-3.0387 3.8618-2.6261 4.2744 0.41267 0.41265 3.9362 0.73398 7.83 0.71404 6.4944-0.0333 7.3741-0.38666 10.64-4.2744zm-8.2828-0.5512c1.5278-1.6077 3.0196-2.6731 3.3151-2.3676 0.29551 0.30555-0.95449 1.621-2.7778 2.9231l-3.3151 2.3676 2.7778-2.9231zm-264.36 18.813c0-2.4062 0.25725-3.3906 0.57166-2.1875 0.3144 1.2031 0.3144 3.1719 0 4.375-0.31441 1.2031-0.57166 0.21875-0.57166-2.1875zm7.4074-3.75c0-1.7188 0.28373-2.4219 0.63049-1.5625 0.34676 0.85937 0.34676 2.2656 0 3.125-0.34676 0.85937-0.63049 0.15625-0.63049-1.5625zm68.553-5.472c0-0.25956 0.98437-1.2439 2.1875-2.1875 1.9826-1.5548 2.0268-1.5106 0.47195 0.47195-1.633 2.0822-2.6594 2.7444-2.6594 1.7156zm-276.48-6.6319c0.90234-0.36108 1.9805-0.31668 2.3958 0.0986 0.41537 0.41536-0.32292 0.7108-1.6406 0.65652-1.4562-0.06-1.7524-0.35617-0.75522-0.7552zm9.3207-0.0125c1.2162-0.31692 2.9037-0.29608 3.75 0.0464 0.84628 0.34241-0.14879 0.60171-2.2113 0.57623-2.0625-0.0255-2.7549-0.30562-1.5387-0.62255zm12.164-1.6336c0-0.6875 0.5957-1.25 1.3238-1.25 0.72808 0 0.97613 0.5625 0.55123 1.25s-1.0206 1.25-1.3238 1.25c-0.30317 0-0.55122-0.5625-0.55122-1.25zm10.625 0c0.4249-0.6875 1.335-1.25 2.0225-1.25s0.90236 0.5625 0.47746 1.25-1.335 1.25-2.0225 1.25-0.90236-0.5625-0.47746-1.25zm11.647-1.5224c0.6666-0.6666 2.2561-0.99069 3.5323-0.72019 1.7185 0.36428 1.4042 0.6786-1.212 1.212-2.281 0.46506-3.103 0.29084-2.3203-0.49183zm100.04-0.0441c0.6298-0.6298 2.4756-0.9358 4.1018-0.68 2.5021 0.39361 2.326 0.56967-1.1451 1.1451-2.484 0.4118-3.6501 0.22836-2.9567-0.46512zm243.83-0.113c1.7889-2.2277 6.3528-5.1549 6.3528-4.0745 0 0.32113-1.8281 1.8658-4.0625 3.4326-2.8824 2.0212-3.5477 2.2077-2.2903 0.64186zm147.8-0.82045c0-1.7188 0.28373-2.4219 0.63049-1.5625 0.34676 0.85937 0.34676 2.2656 0 3.125-0.34676 0.85937-0.63049 0.15625-0.63049-1.5625zm-466.68 0.39611c0.90234-0.36108 1.9805-0.31668 2.3958 0.0986 0.41536 0.41536-0.32292 0.7108-1.6406 0.65652-1.4562-0.06-1.7524-0.35617-0.75522-0.7552zm9.3207-0.0125c1.2162-0.31692 2.9037-0.29608 3.75 0.0464 0.84628 0.34241-0.14879 0.60171-2.2113 0.57623-2.0625-0.0255-2.7549-0.30562-1.5387-0.62255zm9.3512 0.0384c0.85937-0.34676 2.2656-0.34676 3.125 0 0.85937 0.34676 0.15625 0.63049-1.5625 0.63049s-2.4219-0.28373-1.5625-0.63049zm10.312-0.49595c0-0.72807 0.5625-0.97612 1.25-0.55122s1.25 1.0206 1.25 1.3238c0 0.30318-0.5625 0.55123-1.25 0.55123s-1.25-0.5957-1.25-1.3238zm33.75-0.23856c0-0.51563 1.0918-0.9375 2.4262-0.9375s2.687 0.42187 3.0056 0.9375c0.31868 0.51562-0.77312 0.9375-2.4262 0.9375s-3.0056-0.42188-3.0056-0.9375zm23.438 0.73465c0.85937-0.34676 2.2656-0.34676 3.125 0 0.85937 0.34676 0.15625 0.63049-1.5625 0.63049s-2.4219-0.28373-1.5625-0.63049zm10.907-0.37205c0.44192-0.71505 2.2703-1.3001 4.0631-1.3001 3.9182 0 3.4649 0.59874-1.3243 1.7493-2.3234 0.55814-3.2658 0.40358-2.7387-0.44916zm13.781-0.0501c0.4249-0.6875 1.7237-1.2414 2.8863-1.2309 1.8216 0.0165 1.8546 0.18661 0.23873 1.2309-2.448 1.582-4.1027 1.582-3.125 0zm20.625-0.20834c0-0.57291 0.80585-1.0417 1.7908-1.0417 0.98493 0 2.1613-1.1674 2.6141-2.5942 0.45285-1.4268 1.069-2.3486 1.3692-2.0484 1.191 1.191-1.927 6.7259-3.789 6.7259-1.0918 0-1.9852-0.46875-1.9852-1.0417zm-227.83-1.22c0.84793-0.85428 1.8566-1.2383 2.2414-0.85348 0.38487 0.38486-0.30888 1.0838-1.5417 1.5532-1.7815 0.67835-1.9251 0.53477-0.69975-0.69975zm138.86-0.11738c0.6666-0.6666 2.2561-0.99069 3.5323-0.72019 1.7185 0.36428 1.4042 0.6786-1.212 1.212-2.281 0.46506-3.103 0.29085-2.3203-0.49183zm308.64 0.11738c0.84793-0.85428 1.8566-1.2383 2.2414-0.85348 0.38486 0.38486-0.30889 1.0838-1.5417 1.5532-1.7815 0.67835-1.9251 0.53477-0.69975-0.69975zm-299.35-0.7c1.2031-0.3144 3.1719-0.3144 4.375 0 1.2031 0.31441 0.21875 0.57166-2.1875 0.57166s-3.3906-0.25725-2.1875-0.57166zm-140.23-2.5942c-0.0465-0.86946 1.9244-3.682 4.3799-6.25 3.527-3.6887 4.0218-3.9473 2.3562-1.2316-1.1595 1.8906-2.5201 3.4375-3.0234 3.4375-0.50336 0-1.5256 1.2656-2.2716 2.8125-0.74602 1.5469-1.3945 2.1011-1.441 1.2316zm239.68-1.148c0.90234-0.36108 1.9805-0.31668 2.3958 0.0986 0.41536 0.41536-0.32292 0.7108-1.6406 0.65652-1.4562-0.06-1.7524-0.35617-0.75522-0.7552zm294.08-2.3753c0.06-1.4562 0.35617-1.7524 0.7552-0.75522 0.36108 0.90234 0.31668 1.9805-0.0986 2.3958-0.41536 0.41536-0.7108-0.32292-0.65652-1.6406zm-281.58-0.12475c0.90234-0.36109 1.9805-0.31669 2.3958 0.0986 0.41536 0.41536-0.32292 0.7108-1.6406 0.65653-1.4562-0.06-1.7524-0.35618-0.75522-0.7552zm11.172-2.474c0.85937-0.34676 2.2656-0.34676 3.125 0 0.85937 0.34677 0.15625 0.63049-1.5625 0.63049s-2.4219-0.28372-1.5625-0.63049zm10.312-1.7114c0-0.6659 0.84375-1.2108 1.875-1.2108s1.875 0.22107 1.875 0.49126c0 0.2702-0.84375 0.81504-1.875 1.2108-1.0312 0.39572-1.875 0.17465-1.875-0.49127zm-271.25-1.2108c0-0.6875 0.5957-1.25 1.3238-1.25 0.72808 0 0.97613 0.5625 0.55123 1.25s-1.0206 1.25-1.3238 1.25c-0.30317 0-0.55122-0.5625-0.55122-1.25zm530.1-0.72916c0.06-1.4562 0.35617-1.7524 0.7552-0.75522 0.36109 0.90234 0.31668 1.9805-0.0986 2.3958-0.41536 0.41536-0.7108-0.32292-0.65652-1.6406zm-246.68-0.67595c0.84793-0.85428 1.8566-1.2383 2.2414-0.85348 0.38486 0.38487-0.30889 1.0838-1.5417 1.5532-1.7815 0.67835-1.9251 0.53477-0.69975-0.69975zm11.294-2.5554c0.72638-0.72638 2.0585-1.0747 2.9603-0.77414 0.93619 0.31206 0.36956 0.87868-1.3207 1.3207-2.0792 0.54371-2.5672 0.38104-1.6396-0.54655zm9.6644-1.0394c0.4249-0.6875 2.005-1.2105 3.5113-1.1621 2.6404 0.0848 2.649 0.1264 0.23873 1.1621-3.4406 1.4785-4.6638 1.4785-3.75 0zm24.479-0.46226c0.28646-0.25425 4.7396-0.7759 9.8958-1.1592 6.9498-0.51667 8.0816-0.41572 4.375 0.39023-5.0029 1.0878-15.252 1.6401-14.271 0.769zm56.146-3.2008c0-2.8334-0.63698-3.7639-2.8125-4.1084-1.5469-0.24494 1.6875-1.1372 7.1875-1.9829 12.459-1.9156 51.586-2.9746 52.545-1.4222 0.41287 0.66805-8.5232 1.1276-21.641 1.1129-12.289-0.0138-23.21 0.30708-24.268 0.71303-2.2794 0.87469-5.1005 6.5417-4.0792 8.1942 0.39306 0.63598-1.006 1.1563-3.1091 1.1563-3.3951 0-3.8238-0.41063-3.8238-3.6631zm5.8674-1.3369c1.2657-3.3532 1.1624-3.75-0.97595-3.75-1.3153 0-2.3991 0.42187-2.4085 0.9375-0.01 0.51562-0.35625 2.2031-0.7708 3.75-1.1635 4.3416 2.4722 3.5213 4.1552-0.9375zm-384.62 2.5c0-0.6875 0.5957-1.25 1.3238-1.25 0.72808 0 0.97613 0.5625 0.55123 1.25s-1.0206 1.25-1.3238 1.25c-0.30317 0-0.55122-0.5625-0.55122-1.25zm3.75 0.77805c0-0.25956 0.85662-1.1829 1.9036-2.0518 1.5917-1.321 1.7746-1.2436 1.1163 0.47195-0.67236 1.7522-3.0199 2.9803-3.0199 1.5798zm309.3-1.3341c1.3345-1.0692 2.9752-1.944 3.6458-1.944 1.5882 0 0.87904 0.57738-2.9472 2.3996-2.9466 1.4033-2.9865 1.3773-0.69859-0.45568zm-101.7-1.4231c0.06-1.4562 0.35617-1.7524 0.7552-0.75522 0.36108 0.90234 0.31668 1.9805-0.0986 2.3958-0.41536 0.41536-0.7108-0.32292-0.65652-1.6406zm7.4013 0.80293c0-0.64692 0.55606-1.5199 1.2357-1.9399 0.70857-0.43793 0.91812 0.0639 0.49126 1.1762-0.83099 2.1655-1.727 2.5617-1.727 0.7637zm125.34 0.30999c1.2162-0.31692 2.9037-0.29609 3.75 0.0464 0.84628 0.34241-0.14879 0.60171-2.2113 0.57623-2.0625-0.0255-2.7549-0.30562-1.5387-0.62255zm-21.821-1.2376c0.90234-0.36108 1.9805-0.31668 2.3958 0.0986 0.41536 0.41536-0.32292 0.7108-1.6406 0.65652-1.4562-0.06-1.7524-0.35617-0.75522-0.7552zm10.234-0.51314c0-0.62313 1.125-1.133 2.5-1.133s2.5 0.21565 2.5 0.47921-1.125 0.7734-2.5 1.133c-1.375 0.35957-2.5 0.14392-2.5-0.47922zm21.25 0.0793c2.4062-0.56753 7.75-1.3184 11.875-1.6685 7.3286-0.62201 7.2858-0.59731-1.875 1.0814-10.14 1.8582-17.129 2.2685-10 0.58707zm-10-2.4622c0-0.6875 0.5957-1.25 1.3238-1.25 0.72808 0 0.97613 0.5625 0.55123 1.25s-1.0206 1.25-1.3238 1.25c-0.30318 0-0.55123-0.5625-0.55123-1.25zm6.25-1.367c0-0.62313 1.125-1.133 2.5-1.133s2.5 0.21565 2.5 0.47921-1.125 0.7734-2.5 1.133c-1.375 0.35957-2.5 0.14392-2.5-0.47922zm151.04 0.14624c-1.8319-0.55325-16.433-1.09-32.446-1.1928-16.013-0.10287-29.374-0.44556-29.69-0.76165-1.4042-1.4042 61.074-0.31165 69.842 1.2214l9.375 1.6392-6.875 0.0499c-3.7812 0.0275-8.3738-0.40272-10.206-0.95597zm-138.85-0.87c0.85937-0.34676 2.2656-0.34676 3.125 0 0.85937 0.34676 0.15625 0.63049-1.5625 0.63049s-2.4219-0.28373-1.5625-0.63049zm-145.94-5.4222c0-2.0625 0.46507-3.75 1.0335-3.75s0.78584 1.6875 0.48313 3.75-0.76779 3.75-1.0335 3.75c-0.26572 0-0.48313-1.6875-0.48313-3.75zm156.02 2.8961c0.90234-0.36108 1.9805-0.31668 2.3958 0.0986 0.41536 0.41536-0.32292 0.7108-1.6406 0.65652-1.4562-0.06-1.7524-0.35617-0.75522-0.7552zm168.67 0.026c0.85937-0.34676 2.2656-0.34676 3.125 0 0.85937 0.34676 0.15625 0.63049-1.5625 0.63049s-2.4219-0.28373-1.5625-0.63049zm-163.67-1.276c0.90234-0.36108 1.9805-0.31668 2.3958 0.0986 0.41536 0.41536-0.32292 0.7108-1.6406 0.65652-1.4562-0.06-1.7524-0.35617-0.75522-0.7552zm138.67 0.026c0.85937-0.34677 2.2656-0.34677 3.125 0 0.85937 0.34676 0.15625 0.63048-1.5625 0.63048s-2.4219-0.28372-1.5625-0.63048zm12.5 0c0.85937-0.34677 2.2656-0.34677 3.125 0 0.85937 0.34676 0.15625 0.63048-1.5625 0.63048s-2.4219-0.28372-1.5625-0.63048zm-316.39-2.2971c0.39574-1.0312 0.94058-1.875 1.2108-1.875 0.27019 0 0.49126 0.84375 0.49126 1.875s-0.54485 1.875-1.2108 1.875c-0.66591 0-0.88698-0.84375-0.49126-1.875zm172.95 0.35714c0-0.54018 0.81055-0.98214 1.8012-0.98214 0.99067 0 2.0744 0.44196 2.4082 0.98214 0.33385 0.54018-0.4767 0.98215-1.8012 0.98215s-2.4082-0.44196-2.4082-0.98215zm92.836 0.65162c1.2162-0.31692 2.9037-0.29609 3.75 0.0464 0.84629 0.34241-0.14879 0.60171-2.2113 0.57623-2.0625-0.0255-2.7549-0.30562-1.5387-0.62255zm11.929 0.0125c0.90234-0.36109 1.9805-0.31669 2.3958 0.0986 0.41536 0.41536-0.32292 0.7108-1.6406 0.65652-1.4562-0.06-1.7524-0.35617-0.75522-0.7552zm15 0c0.90234-0.36109 1.9805-0.31669 2.3958 0.0986 0.41536 0.41536-0.32292 0.7108-1.6406 0.65652-1.4562-0.06-1.7524-0.35617-0.75522-0.7552zm-492.26-1.29c0-0.7179 0.98437-2.0773 2.1875-3.0208 2.0234-1.5869 2.05-1.5281 0.35371 0.78445-1.0086 1.375-1.993 2.7344-2.1875 3.0208-0.19454 0.28645-0.35371-0.0666-0.35371-0.78445zm384.69 0.0608c0.85937-0.34676 2.2656-0.34676 3.125 0 0.85937 0.34676 0.15625 0.63049-1.5625 0.63049s-2.4219-0.28373-1.5625-0.63049zm11.328-0.026c0.90234-0.36109 1.9805-0.31669 2.3958 0.0986 0.41536 0.41536-0.32292 0.7108-1.6406 0.65653-1.4562-0.06-1.7524-0.35618-0.75522-0.7552zm21.821-0.0125c1.2162-0.31693 2.9037-0.29609 3.75 0.0464 0.84629 0.34242-0.14879 0.60172-2.2113 0.57624-2.0625-0.0255-2.7549-0.30563-1.5387-0.62255zm13.179 0.0125c0.90234-0.36109 1.9805-0.31669 2.3958 0.0986 0.41536 0.41536-0.32292 0.7108-1.6406 0.65653-1.4562-0.06-1.7524-0.35618-0.75522-0.7552zm12.507-0.66857c0.6666-0.6666 2.2561-0.99068 3.5323-0.72018 1.7185 0.36427 1.4042 0.6786-1.212 1.212-2.281 0.46506-3.103 0.29085-2.3203-0.49183zm12.415 0.6946c0.85937-0.34676 2.2656-0.34676 3.125 0 0.85937 0.34677 0.15625 0.63049-1.5625 0.63049s-2.4219-0.28372-1.5625-0.63049zm79.161-3.6513c0.06-1.4562 0.35617-1.7524 0.7552-0.75521 0.36108 0.90234 0.31668 1.9805-0.0986 2.3958-0.41536 0.41536-0.7108-0.32293-0.65652-1.6406zm-527.6-1.61c0-0.60331 0.93584-1.8689 2.0796-2.8125 1.8858-1.5556 1.9399-1.4533 0.58103 1.097-1.5499 2.9087-2.6607 3.6249-2.6607 1.7156zm190.78-5.8264c-0.42868-1.1171-0.74377-2.6883-0.70018-3.4914 0.0436-0.80314 0.61816-0.113 1.2768 1.5337 0.65868 1.6467 0.97377 3.2178 0.70018 3.4914-0.27358 0.27358-0.84817-0.41659-1.2768-1.5337zm11.721-0.50291c0-1.3344 0.48124-2.7237 1.0694-3.0872 0.58818-0.36353 0.80386 0.72829 0.47928 2.4262-0.70502 3.6881-1.5487 4.0481-1.5487 0.66095zm-333.75 0.7c0-0.25956 0.98438-1.2439 2.1875-2.1875 1.9826-1.5548 2.0268-1.5106 0.47195 0.47195-1.633 2.0822-2.6594 2.7444-2.6594 1.7156zm330.24-2.65c0.0255-2.0625 0.30562-2.7549 0.62255-1.5387 0.31692 1.2162 0.29608 2.9037-0.0464 3.75-0.34241 0.84628-0.60171-0.14879-0.57624-2.2113zm-198.99 1.403c0-0.25956 0.85662-1.1829 1.9036-2.0518 1.5917-1.321 1.7746-1.2436 1.1163 0.47195-0.67236 1.7522-3.0199 2.9803-3.0199 1.5798zm194.75-6.3613c-0.48131-4.102-0.62193-7.7114-0.3125-8.0208 1.387-1.387 1.9173 1.3719 1.5667 8.1498l-0.37911 7.3292-0.87513-7.4582zm326.6-3.896c0.06-1.4562 0.35617-1.7524 0.7552-0.75522 0.36108 0.90234 0.31668 1.9805-0.0986 2.3958-0.41536 0.41536-0.7108-0.32292-0.65652-1.6406zm-332.5-2.5c0.06-1.4562 0.35617-1.7524 0.7552-0.75522 0.36108 0.90234 0.31668 1.9805-0.0986 2.3958-0.41536 0.41536-0.7108-0.32292-0.65652-1.6406zm11.776 0.72916c0.4249-0.6875 1.0206-1.25 1.3238-1.25 0.30318 0 0.55123 0.5625 0.55123 1.25s-0.5957 1.25-1.3238 1.25c-0.72808 0-0.97613-0.5625-0.55123-1.25zm-186.88-3.6762c0-1.3344 0.48124-2.7237 1.0694-3.0872 0.58819-0.36353 0.80387 0.72829 0.47929 2.4262-0.70502 3.6881-1.5487 4.0481-1.5487 0.66095zm188.95-5.0738c0-1.7188 0.28373-2.4219 0.63049-1.5625 0.34676 0.85937 0.34676 2.2656 0 3.125-0.34676 0.85937-0.63049 0.15625-0.63049-1.5625zm315.23 0.57109c-0.40711-1.0609-0.4609-2.2082-0.1195-2.5496 0.34136-0.34137 0.9207 0.52664 1.2874 1.9289 0.77894 2.9787-0.0865 3.4386-1.1679 0.62067zm-311.58-1.3002c0.06-1.4562 0.35617-1.7524 0.7552-0.75522 0.36109 0.90234 0.31669 1.9805-0.0986 2.3958-0.41536 0.41536-0.7108-0.32292-0.65652-1.6406zm-193.85-0.3733c0-0.6875 0.5625-1.5976 1.25-2.0225s1.25-0.21004 1.25 0.47746-0.5625 1.5976-1.25 2.0225-1.25 0.21004-1.25-0.47746zm-122.5-1.32c0-0.64692 0.55606-1.5199 1.2357-1.9399 0.70857-0.43793 0.91813 0.0639 0.49126 1.1762-0.83099 2.1655-1.727 2.5617-1.727 0.7637zm297.7-3.8238c0-1.7188 0.28373-2.4219 0.63049-1.5625 0.34676 0.85937 0.34676 2.2656 0 3.125-0.34676 0.85937-0.63049 0.15625-0.63049-1.5625zm-291.45-3.75c0-0.6875 0.5957-1.25 1.3238-1.25 0.72807 0 0.97612 0.5625 0.55122 1.25-0.42489 0.6875-1.0206 1.25-1.3238 1.25-0.30317 0-0.55123-0.5625-0.55123-1.25zm307.5 0.0738c0-0.64693 0.55606-1.5199 1.2357-1.9399 0.70857-0.43792 0.91812 0.0639 0.49126 1.1762-0.83099 2.1656-1.727 2.5618-1.727 0.76372zm-184.96-0.6988c0-0.6875 0.54526-2.0938 1.2117-3.125 0.66645-1.0312 1.2117-1.3125 1.2117-0.625s-0.54526 2.0938-1.2117 3.125c-0.66645 1.0312-1.2117 1.3125-1.2117 0.625zm495.54-0.70816c-0.45316-0.73324-0.55585-1.6012-0.22819-1.9289 0.32765-0.32766 0.92883 0.27227 1.3359 1.3332 0.84523 2.2026 0.12475 2.5901-1.1078 0.59575zm-490.55-1.4056c-0.01-1.1626 0.54336-2.4614 1.2309-2.8863 1.582-0.97772 1.582 0.67704 0 3.125-1.0442 1.6159-1.2144 1.5829-1.2309-0.23873zm167.23-2.9622c-0.28579-2.448-0.0661-4.7312 0.48824-5.0738 0.55432-0.34259 1.0079 1.6603 1.0079 4.4509 0 6.263-0.79882 6.5956-1.4961 0.62289zm-4.5565-3.0491c0-1.7188 0.28373-2.4219 0.63049-1.5625 0.34676 0.85937 0.34676 2.2656 0 3.125-0.34676 0.85937-0.63049 0.15625-0.63049-1.5625zm-161.45-4.375c0-1.0312 0.54485-1.875 1.2108-1.875 0.66592 0 0.88699 0.84375 0.49127 1.875-0.39574 1.0312-0.94058 1.875-1.2108 1.875-0.27018 0-0.49126-0.84375-0.49126-1.875zm-117.46 0c0-0.6875 0.54527-2.0938 1.2117-3.125 0.66645-1.0312 1.2117-1.3125 1.2117-0.625s-0.54527 2.0938-1.2117 3.125c-0.66644 1.0312-1.2117 1.3125-1.2117 0.625zm297.01-1.25c0.39574-1.0312 0.94058-1.875 1.2108-1.875 0.27019 0 0.49126 0.84375 0.49126 1.875s-0.54485 1.875-1.2108 1.875c-0.66591 0-0.88698-0.84375-0.49126-1.875zm308.05-0.10413c0.06-1.4562 0.35617-1.7524 0.7552-0.75521 0.36109 0.90234 0.31668 1.9805-0.0986 2.3958-0.41536 0.41536-0.7108-0.32293-0.65652-1.6406zm-303.85-1.6971c0-1.3344 0.48124-2.7237 1.0694-3.0872 0.58818-0.36353 0.80386 0.72829 0.47928 2.4262-0.70502 3.6881-1.5487 4.0481-1.5487 0.66095zm-176.14-1.3238c-0.0377-1.0312 0.47655-2.7188 1.143-3.75 1.4766-2.285 1.4766-0.31136 0 3.125-0.70835 1.6484-1.0977 1.8613-1.143 0.625zm-105.56-5c0.42166-1.7188 1.5351-4.8125 2.4742-6.875 1.3714-3.0118 1.5567-3.1348 0.94093-0.625-0.42166 1.7188-1.5351 4.8125-2.4742 6.875-1.3714 3.0118-1.5567 3.1348-0.94093 0.625zm101.71 0.44725c0-0.67069 0.87477-2.3113 1.944-3.6458 1.833-2.2879 1.859-2.248 0.45568 0.69859-1.8223 3.8263-2.3996 4.5354-2.3996 2.9472zm155.62-1.6972c-0.4693-1.4786-0.57201-2.9696-0.22826-3.3134 0.34375-0.34375 1.009 0.58478 1.4783 2.0634s0.57201 2.9696 0.22826 3.3134c-0.34375 0.34375-1.009-0.58478-1.4783-2.0634zm-270.63 0.0738c0-0.64693 0.55606-1.5199 1.2357-1.9399 0.70857-0.43792 0.91813 0.0639 0.49126 1.1762-0.83099 2.1656-1.727 2.5618-1.727 0.76372zm292.03 0.17904c-0.33896-0.54845-0.11575-1.807 0.4959-2.7967 0.83864-1.357 1.0604-1.1117 0.90151 0.99719-0.22857 3.0344-0.45445 3.3253-1.3974 1.7996zm304.46-2.1278c0.0255-2.0625 0.30562-2.7549 0.62255-1.5387 0.31692 1.2162 0.29608 2.9037-0.0464 3.75-0.34241 0.84628-0.60171-0.14879-0.57624-2.2113zm-591.49-6.16c0-0.99067 0.51005-2.1164 1.1334-2.5017 0.62339-0.38528 0.83903 0.42527 0.47921 1.8012-0.76326 2.9187-1.6126 3.2877-1.6126 0.70049zm269.64-0.69752c-0.35939-1.3743-0.14375-2.8138 0.47921-3.1988 0.62296-0.38502 1.1326 0.73942 1.1326 2.4988 0 3.8301-0.71242 4.1395-1.6119 0.70002zm-154.62-1.49c-0.01-1.1626 0.54336-2.4614 1.2309-2.8863 1.582-0.97772 1.582 0.67704 0 3.125-1.0442 1.6159-1.2144 1.5829-1.2309-0.23873zm-101.71-3.47c0.8236-4.7435 3.9665-13.924 4.0805-11.92 0.0391 0.6875-1.0322 4.625-2.3806 8.75-1.3485 4.125-2.1134 5.5514-1.6999 3.1698zm275.68 0.58021c0.0255-2.0625 0.30562-2.7549 0.62255-1.5387 0.31692 1.2162 0.29608 2.9037-0.0464 3.75-0.34241 0.84628-0.60171-0.14879-0.57624-2.2113zm-26.494-1.25c0-1.7188 0.21568-3.125 0.47928-3.125 0.26361 0 0.74809 1.4062 1.0767 3.125 0.32856 1.7188 0.11287 3.125-0.47928 3.125-0.59216 0-1.0767-1.4062-1.0767-3.125zm30.636-0.58594c0.36339-2.3848 1.2279-4.9032 1.9212-5.5965 0.84738-0.84738 0.87182-0.0408 0.0746 2.4609-2.1371 6.7061-2.6667 7.5381-1.9958 3.1355zm-173.12 0.48178c0.01-1.3177 0.59011-3.2396 1.288-4.2708 0.92664-1.3693 1.0426-0.86365 0.43001 1.875-1.0281 4.5962-1.7435 5.5939-1.718 2.3958zm468.73-0.52084c0-2.3333 0.33334-2.6667 1.5-1.5s1.1667 1.8333 0 3-1.5 0.83334-1.5-1.5zm-583.75-3.67c0-0.64692 0.55606-1.5199 1.2357-1.9399 0.70857-0.43793 0.91813 0.0639 0.49126 1.1762-0.83099 2.1655-1.727 2.5617-1.727 0.7637zm113.85-2.57c-0.0377-1.0312 0.47655-2.7188 1.143-3.75 1.4766-2.285 1.4766-0.31136 0 3.125-0.70835 1.6484-1.0977 1.8613-1.143 0.625zm468.74-4.4792c0.06-1.4562 0.35617-1.7524 0.7552-0.75522 0.36109 0.90234 0.31668 1.9805-0.0986 2.3958-0.41536 0.41536-0.7108-0.32292-0.65652-1.6406zm-577.56 0.10416c0-0.6875 0.54527-2.0938 1.2117-3.125 0.66645-1.0312 1.2117-1.3125 1.2117-0.625s-0.54527 2.0938-1.2117 3.125c-0.66645 1.0312-1.2117 1.3125-1.2117 0.625zm251.41-1.875c0-1.7188 0.28373-2.4219 0.63049-1.5625 0.34676 0.85937 0.34676 2.2656 0 3.125-0.34676 0.85937-0.63049 0.15625-0.63049-1.5625zm28.651-0.72916c0.06-1.4562 0.35617-1.7524 0.7552-0.75522 0.36108 0.90234 0.31668 1.9805-0.0986 2.3958-0.41536 0.41536-0.7108-0.32292-0.65652-1.6406zm-162.58-3.8846c0.0105-0.5562 0.56441-1.855 1.2309-2.8863 1.0442-1.6159 1.2144-1.5829 1.2309 0.23873 0.01 1.1626-0.54336 2.4614-1.2309 2.8863-0.6875 0.4249-1.2414 0.31747-1.2309-0.23873zm136.42-1.2215c-0.103-1.4906-0.55133-3.7406-0.99626-5-0.62218-1.761-0.45529-1.9641 0.72272-0.87952 0.84244 0.77563 1.2908 3.0256 0.99626 5-0.37725 2.5292-0.59076 2.789-0.72272 0.87952zm-140.17-0.65347c-0.01-1.1626 0.54336-2.4614 1.2309-2.8863 1.582-0.97772 1.582 0.67704 0 3.125-1.0442 1.6159-1.2144 1.5829-1.2309-0.23873zm462.68-2.2613c0-1.7188 0.28373-2.4219 0.63049-1.5625 0.34676 0.85937 0.34676 2.2656 0 3.125-0.34676 0.85937-0.63049 0.15625-0.63049-1.5625zm-290-3.75c0-1.7188 0.28373-2.4219 0.63049-1.5625 0.34676 0.85937 0.34676 2.2656 0 3.125-0.34676 0.85937-0.63049 0.15625-0.63049-1.5625zm-3.6574-2.5c0-2.4062 0.25725-3.3906 0.57166-2.1875 0.3144 1.2031 0.3144 3.1719 0 4.375-0.31441 1.2031-0.57166 0.21875-0.57166-2.1875zm-164.4-0.0195c0.96703-3.6979 2.597-4.1834 1.9058-0.5677-0.32459 1.698-1.0344 3.0872-1.5774 3.0872-0.54299 0-0.69076-1.1338-0.32839-2.5195zm130.46 0.54031c0.06-1.4562 0.35617-1.7524 0.7552-0.75521 0.36108 0.90234 0.31668 1.9805-0.0986 2.3958-0.41536 0.41536-0.7108-0.32293-0.65652-1.6406zm-236.13-1.77c0.0202-1.0312 0.4871-3.2812 1.0375-5 0.80454-2.5122 1.008-2.6347 1.0375-0.625 0.0202 1.375-0.44668 3.625-1.0375 5-0.65817 1.5316-1.0601 1.7737-1.0375 0.625zm274.81-2.7387c-0.01-1.1626 0.54336-2.4614 1.2309-2.8863 1.582-0.97772 1.582 0.67704 0 3.125-1.0442 1.6159-1.2144 1.5829-1.2309-0.23873zm-164.13-7.2613c0.35958-1.375 1.098-2.5 1.641-2.5 0.54295 0 0.693 1.125 0.33343 2.5-0.35958 1.375-1.098 2.5-1.641 2.5-0.54295 0-0.693-1.125-0.33343-2.5zm2.8622 1.3238c0-0.64692 0.55606-1.5199 1.2357-1.9399 0.70857-0.43793 0.91812 0.0639 0.49126 1.1762-0.83099 2.1655-1.727 2.5617-1.727 0.7637zm119.53-3.2471c-1.2062-3.1434-0.85038-3.9544 0.62317-1.4204 0.72961 1.2547 1.0632 2.5446 0.74141 2.8664-0.32184 0.32184-0.9359-0.32886-1.3646-1.446zm39.319-1.3058c0.06-1.4562 0.35617-1.7524 0.7552-0.75522 0.36108 0.90234 0.31668 1.9805-0.0986 2.3958-0.41536 0.41536-0.7108-0.32292-0.65652-1.6406zm-268.14-2.783c0.85571-4.583 7.8894-24.096 7.9708-22.113 0.0281 0.6875-1.9275 6.875-4.346 13.75s-4.0496 10.638-3.6248 8.3628zm232.13-1.4878c0-3.0938 0.24377-4.3594 0.54171-2.8125 0.29795 1.5469 0.29795 4.0781 0 5.625-0.29794 1.5469-0.54171 0.28125-0.54171-2.8125zm323.51 3.0208c0.06-1.4562 0.35617-1.7524 0.7552-0.75522 0.36109 0.90234 0.31668 1.9805-0.0986 2.3958-0.41536 0.41536-0.7108-0.32292-0.65652-1.6406zm-444.48-6.76c0.4249-0.6875 1.0206-1.25 1.3238-1.25 0.30318 0 0.55123 0.5625 0.55123 1.25s-0.5957 1.25-1.3238 1.25c-0.72807 0-0.97612-0.5625-0.55122-1.25zm5.7324-1.9486c-0.0591-1.4155 0.77802-3.6655 1.8603-5 1.0822-1.3345 1.5843-1.6792 1.1157-0.76599-0.46859 0.91324-1.3057 3.1632-1.8602 5-0.80907 2.6798-1.0295 2.8311-1.1157 0.76599zm108.64-0.55141c0-1.375 0.21565-2.5 0.47921-2.5s0.7734 1.125 1.133 2.5c0.35957 1.375 0.14392 2.5-0.47922 2.5-0.62313 0-1.133-1.125-1.133-2.5zm43.125-1.25c0.4249-0.6875 1.0206-1.25 1.3238-1.25 0.30318 0 0.55123 0.5625 0.55123 1.25s-0.5957 1.25-1.3238 1.25c-0.72808 0-0.97613-0.5625-0.55123-1.25zm-95.048-3.7372c-12.734-1.8709-19.331-7.802-19.32-17.369 0.0136-11.243 3.6669-20.426 13.241-33.285 3.5897-4.8212 7.0247-10.687 7.6333-13.036l1.1065-4.2702 3.5097 5.5359c1.9303 3.0448 6.0969 7.5047 9.259 9.9109 10.577 8.0483 16.119 14.479 18.4 21.346 2.0689 6.2288 2.0681 6.8882-0.0168 13.502-2.821 8.9492-8.1872 14.326-16.87 16.905-7.2225 2.1449-7.4454 2.1548-16.943 0.75945zm20.357-3.9124c9.3609-4.5315 14.949-16.302 12.185-25.664-2.044-6.9226-6.6114-12.637-15.951-19.955-4.2863-3.3587-8.9862-7.4851-10.444-9.1697l-2.6509-3.063-1.9844 3.688c-1.0914 2.0284-3.753 5.6567-5.9147 8.0629-11.947 13.299-17.088 33.937-10.343 41.524 6.536 7.3513 24.526 9.6969 35.103 4.5768zm327.82 1.5167c0-0.62313 1.125-0.83878 2.5-0.47921 1.375 0.35958 2.5077 0.16629 2.5171-0.42952 0.01-0.59582 0.35625-2.3489 0.7708-3.8958 0.54174-2.0215 0.21469-2.8125-1.1629-2.8125-1.0541 0-2.1633 0.70312-2.4649 1.5625-0.30154 0.85937-0.55935 0.0156-0.57292-1.875-0.0136-1.8906 0.46752-3.4375 1.0691-3.4375 0.60156 0 1.1116-0.98438 1.1335-2.1875s0.94129-3.3125 2.0432-4.6875c2.0034-2.5 2.0034-2.5 1.1227 0-0.48438 1.375-1.1841 4.0032-1.555 5.8404-0.63428 3.1421-0.33887 3.3907 4.977 4.1878 7.8776 1.1813 10.752 1.228 16.497 0.26793l5-0.83557-4.375 1.9709c-3.0441 1.3714-6.5248 1.778-11.442 1.3367-7.4257-0.66642-9.808 0.39183-9.808 4.3568 0 1.5667-0.94908 2.25-3.125 2.25-1.7188 0-3.125-0.50984-3.125-1.133zm-247.46-0.74202c0-0.6875 0.54526-2.0938 1.2117-3.125 0.66645-1.0312 1.2117-1.3125 1.2117-0.625s-0.54526 2.0938-1.2117 3.125c-0.66645 1.0312-1.2117 1.3125-1.2117 0.625zm-157.53-2.43c0-0.99067 0.51004-2.1164 1.1334-2.5017 0.62338-0.38528 0.83902 0.42527 0.47921 1.8012-0.76327 2.9187-1.6126 3.2877-1.6126 0.7005zm105.78-0.12212c-0.42868-1.1171-0.74377-2.6883-0.70018-3.4914 0.0436-0.80314 0.61816-0.113 1.2768 1.5337 0.65868 1.6467 0.97377 3.2178 0.70018 3.4914-0.27358 0.27359-0.84817-0.41658-1.2768-1.5337zm3.2143-2.4516c0.0255-2.0625 0.30562-2.7549 0.62255-1.5387 0.31692 1.2162 0.29608 2.9037-0.0464 3.75-0.34241 0.84628-0.60171-0.14879-0.57624-2.2113zm44.954-0.625c0-1.7188 0.28373-2.4219 0.63049-1.5625 0.34676 0.85937 0.34676 2.2656 0 3.125-0.34676 0.85937-0.63049 0.15625-0.63049-1.5625zm-261.91-5.9375c0.46162-1.8906 1.5973-5.6176 2.5238-8.2822 0.92647-2.6646 1.7498-6.0396 1.8295-7.5 0.10587-1.9387 0.29345-2.0952 0.69505-0.58001 0.53059 2.0018-4.288 19.8-5.3606 19.8-0.28989 0-0.14938-1.5469 0.31225-3.4375zm282.96 0.81911c0-1.7313-1.4689-2.3852-6.875-3.0607-9.682-1.2097-8.5658-2.6232 1.617-2.0478 11.383 0.64323 12.193-0.36131 9.5016-11.789-1.1152-4.735-2.4907-10.578-3.0567-12.984-2.7238-11.581-3.6282-16.109-4.3684-21.875-0.4413-3.4375-0.36399-5.8174 0.17181-5.2886 0.53579 0.52877 1.4175 4.185 1.9594 8.125 0.54186 3.94 1.5947 9.6948 2.3396 12.789 0.74489 3.0938 1.8431 8.6305 2.4405 12.304 1.244 7.6492 0.78145 6.9296 5.6452 8.7826 3.6162 1.3776 3.6273 1.4052 0.3125 0.77231-3.7777-0.72125-4.0459-0.33108-2.1751 3.1645 0.94673 1.769 0.59718 3.7281-1.3979 7.8345-2.68 5.5163-6.1146 7.3553-6.1146 3.2739zm3.75-1.8304c0-1.0718-0.5625-1.6011-1.25-1.1762s-1.25 1.3018-1.25 1.9488c0 0.64693 0.5625 1.1762 1.25 1.1762s1.25-0.87695 1.25-1.9488zm108.77 2.8863c0.01-0.85938 0.56441-2.4062 1.2309-3.4375 0.97984-1.5162 1.2154-1.3368 1.2309 0.9375 0.0242 3.562 3.211 3.691 5.0764 0.20544 1.7175-3.2092 2.5938-2.6156 1.6223 1.0992-0.56443 2.1584-1.6406 2.7579-4.9504 2.7579-2.5602 0-4.2217-0.61661-4.2101-1.5625zm-179.24-1.6108c-1.2062-3.1434-0.85038-3.9544 0.62317-1.4204 0.72961 1.2547 1.0632 2.5446 0.74141 2.8664-0.32184 0.32184-0.9359-0.32886-1.3646-1.446zm278.99 1.0694c0.90234-0.36108 1.9805-0.31668 2.3958 0.0986 0.41536 0.41536-0.32292 0.7108-1.6406 0.65652-1.4562-0.06-1.7524-0.35617-0.75522-0.7552zm13.071-0.0125c1.2162-0.31692 2.9037-0.29608 3.75 0.0464 0.84628 0.34241-0.14879 0.60171-2.2113 0.57624-2.0625-0.0255-2.7549-0.30563-1.5387-0.62255zm-391.49-2.3629c0.06-1.4562 0.35617-1.7524 0.7552-0.75522 0.36108 0.90234 0.31668 1.9805-0.0986 2.3958-0.41537 0.41537-0.7108-0.32292-0.65652-1.6406zm366.15 0.84633c0-0.62313 1.125-0.83878 2.5-0.47921 1.375 0.35958 2.5 0.86941 2.5 1.133 0 0.26356-1.125 0.47921-2.5 0.47921s-2.5-0.50984-2.5-1.133zm-488.33-1.49c0.32994-1.0881 2.8333-9.2443 5.563-18.125s7.2767-24.584 10.105-34.897c8.0768-29.455 7.7811-28.526 6.982-21.922-0.37121 3.0678-1.7137 8.742-2.9832 12.609-1.2696 3.8673-2.022 8.5292-1.6721 10.36 0.35883 1.877 0.0699 3.3282-0.66256 3.3282-1.6227 0-3.8461 6.9373-3.7513 11.705 0.0391 1.9688-0.43235 3.9376-1.0478 4.375-1.9185 1.3637-5.3086 13.757-3.8922 14.229 0.72374 0.24125 0.39486 1.3164-0.7541 2.4654-2.9793 2.9793-4.3904 7.4826-3.6153 11.537 0.45433 2.3767 0.23035 3.2818-0.67388 2.7229-0.74492-0.46039-1.994 0.15913-2.7756 1.3767-1.0513 1.6376-1.2651 1.6989-0.82132 0.23545zm458.65 0.49168c1.2031-0.3144 3.1719-0.3144 4.375 0 1.2031 0.31441 0.21875 0.57166-2.1875 0.57166s-3.3906-0.25725-2.1875-0.57166zm17.524-0.005c1.2162-0.31693 2.9037-0.29609 3.75 0.0464 0.84629 0.34242-0.14879 0.60172-2.2113 0.57624-2.0625-0.0255-2.7549-0.30562-1.5387-0.62255zm-356.58-1.19c0-0.67069 0.87477-2.3113 1.944-3.6458 1.833-2.2879 1.859-2.248 0.45568 0.69859-1.8223 3.8263-2.3996 4.5354-2.3996 2.9472zm320.31-0.0589c1.2031-0.31439 3.1719-0.31439 4.375 0 1.2031 0.31442 0.21875 0.57167-2.1875 0.57167s-3.3906-0.25725-2.1875-0.57167zm59.062-0.38835c0.4249-0.6875 1.5499-1.25 2.5-1.25s2.0751 0.5625 2.5 1.25c0.43989 0.71175-0.63661 1.25-2.5 1.25s-2.9399-0.53825-2.5-1.25zm15 0c0.4249-0.6875 1.0206-1.25 1.3238-1.25 0.30318 0 0.55123 0.5625 0.55123 1.25s-0.5957 1.25-1.3238 1.25c-0.72808 0-0.97613-0.5625-0.55123-1.25zm-153.76-1.27c-0.49019-0.79312-1.9535-1.1643-3.2519-0.82473-1.2984 0.33953-2.0454 0.10724-1.6602-0.51611 0.38527-0.62338 1.3704-1.1248 2.1892-1.1143 2.1991 0.0283 5.2874 2.2238 4.3902 3.1211-0.42687 0.42687-1.1772 0.1272-1.6674-0.66594zm12.828 0.44789c0.85937-0.34676 2.2656-0.34676 3.125 0 0.85937 0.34676 0.15625 0.63049-1.5625 0.63049s-2.4219-0.28373-1.5625-0.63049zm32.661-0.771c0.60312-0.60313 2.712-0.89511 4.6864-0.64888 3.3045 0.41215 3.2174 0.49929-1.0966 1.0966-2.6872 0.37206-4.2186 0.18106-3.5898-0.44771zm14.839 0.71669c1.5469-0.29795 4.0781-0.29795 5.625 0 1.5469 0.29793 0.28125 0.54171-2.8125 0.54171s-4.3594-0.24378-2.8125-0.54171zm65.312 0.3909c0-0.2702 0.84375-0.81504 1.875-1.2108 1.0312-0.39572 1.875-0.17465 1.875 0.49126 0 0.66593-0.84375 1.2108-1.875 1.2108s-1.875-0.22107-1.875-0.49126zm-96.562-1.5866c0.85937-0.34676 2.2656-0.34676 3.125 0 0.85937 0.34676 0.15625 0.63049-1.5625 0.63049s-2.4219-0.28373-1.5625-0.63049zm69.688-0.42215c0.4249-0.6875 1.7237-1.2414 2.8863-1.2309 1.8216 0.0165 1.8546 0.18661 0.23873 1.2309-2.448 1.582-4.1027 1.582-3.125 0zm14.375 0c0-1.4671 0.96077-1.4671 4.375 0 2.2153 0.95195 2.1086 1.0843-0.9375 1.1621-1.8906 0.0483-3.4375-0.47464-3.4375-1.1621zm-258.75-2.5c0-1.375 0.21565-2.5 0.47921-2.5s0.7734 1.125 1.133 2.5c0.35957 1.375 0.14392 2.5-0.47922 2.5-0.62313 0-1.133-1.125-1.133-2.5zm230.62 1.25c0.4249-0.6875 1.6163-1.25 2.6475-1.25s1.5274 0.5625 1.1025 1.25-1.6163 1.25-2.6475 1.25-1.5274-0.5625-1.1025-1.25zm-175.43-2.5c0-1.7188 0.28373-2.4219 0.63049-1.5625 0.34676 0.85937 0.34676 2.2656 0 3.125-0.34676 0.85937-0.63049 0.15625-0.63049-1.5625zm46.053 1.25c-1.1266-0.72808-1.2808-1.2194-0.38627-1.2309 0.81879-0.01 1.8364 0.54336 2.2613 1.2309 0.95912 1.5519 0.5264 1.5519-1.875 0zm12.5-0.17334c0-0.59216 1.4062-1.0767 3.125-1.0767s3.125 0.21567 3.125 0.47928-1.4062 0.74809-3.125 1.0767c-1.7188 0.32856-3.125 0.11287-3.125-0.47928zm15.88 0.0437c0.98869-0.98868 2.0334-0.99946 3.6875-0.038 2.0233 1.176 1.8531 1.3462-1.3795 1.3795-2.6892 0.0277-3.314-0.33548-2.308-1.3415zm55.37-0.0437c0-0.59216 1.4062-1.0767 3.125-1.0767s3.125 0.21567 3.125 0.47928-1.4062 0.74809-3.125 1.0767c-1.7188 0.32856-3.125 0.11287-3.125-0.47928zm19.375 0.17334c-3.1853-1.3688 0.101-1.3688 4.375 0 2.5122 0.80454 2.6347 1.008 0.625 1.0375-1.375 0.0203-3.625-0.44668-5-1.0375zm15.391 0.39611c0.90234-0.36108 1.9805-0.31668 2.3958 0.0986 0.41536 0.41536-0.32292 0.7108-1.6406 0.65652-1.4562-0.06-1.7524-0.35617-0.75522-0.7552zm-72.882-1.6318c-0.43793-0.70857 0.0639-0.91812 1.1762-0.49126 2.1655 0.83099 2.5617 1.727 0.7637 1.727-0.64692 0-1.5199-0.55606-1.9399-1.2357zm8.4286 0.37403c1.2031-0.3144 3.1719-0.3144 4.375 0 1.2031 0.31441 0.21875 0.57166-2.1875 0.57166s-3.3906-0.25725-2.1875-0.57166zm15.64-0.0224c1.5549-0.29899 3.8049-0.28764 5 0.0253 1.1951 0.31286-0.0771 0.5575-2.8271 0.54363-2.75-0.0139-3.7278-0.26987-2.1729-0.56885zm-112.03-1.6159c0-1.0312 0.48343-3 1.0743-4.375 0.67715-1.5758 1.0743-1.8068 1.0743-0.625 0 1.0312-0.48343 3-1.0743 4.375-0.67715 1.5758-1.0743 1.8068-1.0743 0.625zm26.699 0c-3.1853-1.3688 0.101-1.3688 4.375 0 2.5122 0.80454 2.6347 1.008 0.625 1.0375-1.375 0.0203-3.625-0.44668-5-1.0375zm47.891-0.85389c0.90234-0.36108 1.9805-0.31668 2.3958 0.0986 0.41536 0.41536-0.32292 0.7108-1.6406 0.65652-1.4562-0.06-1.7524-0.35617-0.75522-0.7552zm-223.51-1.92c0-1.0616 0.93584-2.7023 2.0796-3.6458 1.9023-1.5692 1.9412-1.449 0.45569 1.4094-2.1777 4.1906-2.5353 4.506-2.5353 2.2364zm3.7883 0.88861c0-0.6875 0.54526-2.0938 1.2117-3.125 0.66645-1.0312 1.2117-1.3125 1.2117-0.625s-0.54526 2.0938-1.2117 3.125c-0.66645 1.0312-1.2117 1.3125-1.2117 0.625zm189.96-0.625c0-1.4671 0.96077-1.4671 4.375 0 2.2153 0.95195 2.1086 1.0843-0.9375 1.1621-1.8906 0.0483-3.4375-0.47464-3.4375-1.1621zm15.312 0.38834c1.2031-0.3144 3.1719-0.3144 4.375 0 1.2031 0.31441 0.21875 0.57166-2.1875 0.57166s-3.3906-0.25725-2.1875-0.57166zm-27.284-1.7946c-0.86808-1.4046 3.3184-1.3901 5.5425 0.0191 1.1952 0.75729 0.72701 1.0746-1.5853 1.0746-1.8047 0-3.5854-0.49219-3.9572-1.0938zm221.94-4.6867c1.0421-5.6988 5.2958-16.396 6.5224-16.402 0.4778-0.002-0.50657 3.1051-2.1875 6.906s-3.0562 8.2677-3.0562 9.9262c0 1.6586-0.48419 3.3148-1.076 3.6806-0.5918 0.36575-0.68303-1.484-0.20274-4.1104zm-317.89-0.99c-0.45834-0.45832-0.79769-2.0052-0.7541-3.4375 0.0729-2.3945 0.17565-2.3631 1.2768 0.38981 1.2241 3.0603 0.97021 4.5407-0.52275 3.0477zm61.91-3.5417c0.0255-2.0625 0.30562-2.7549 0.62255-1.5387 0.31692 1.2162 0.29608 2.9037-0.0464 3.75-0.34241 0.84628-0.60171-0.14879-0.57624-2.2113zm-56.25-1.25c0.0255-2.0625 0.30562-2.7549 0.62255-1.5387 0.31692 1.2162 0.29608 2.9037-0.0464 3.75-0.34241 0.84628-0.60171-0.14879-0.57624-2.2113zm-85.733-0.40517c-0.4409-0.71339-0.19253-1.6735 0.55192-2.1336 1.8576-1.1481 2.5152-0.235 1.2755 1.771-0.66419 1.0747-1.3084 1.2025-1.8274 0.36268zm7.9891-7.7936c0-0.72807-0.65809-0.91705-1.4624-0.41993-0.99706 0.61621-1.1959 0.20938-0.625-1.2785 0.46059-1.2003 0.83743-2.4175 0.83743-2.7051 0-0.28751 0.54485-0.52276 1.2108-0.52276 0.66592 0 0.84185 0.98437 0.39095 2.1875-0.74288 1.9823-0.60272 2.0116 1.4939 0.3125 2.171-1.7594 2.2213-1.7015 0.81506 0.9375-1.6129 3.027-2.6607 3.6132-2.6607 1.4887zm140.1-3.1554c0.06-1.4562 0.35617-1.7524 0.7552-0.75522 0.36108 0.90234 0.31668 1.9805-0.0986 2.3958-0.41536 0.41536-0.7108-0.32292-0.65652-1.6406zm-70.515-1.3542c-0.45834-0.45832-0.81624-1.724-0.79533-2.8125 0.0312-1.6254 0.27514-1.5714 1.3646 0.30209 1.346 2.3146 0.95576 4.0354-0.56925 2.5104zm65.417-0.96789c0-0.99067 0.44196-2.0744 0.98214-2.4082 0.54018-0.33385 0.98215 0.4767 0.98215 1.8012s-0.44196 2.4082-0.98215 2.4082c-0.54018 0-0.98214-0.81055-0.98214-1.8012zm-132.39-3.1988c-0.0378-1.0312 0.47655-2.7188 1.143-3.75 1.4766-2.285 1.4766-0.31136 0 3.125-0.70835 1.6484-1.0977 1.8613-1.143 0.625zm70.09-5c0-1.7188 0.28373-2.4219 0.63049-1.5625 0.34676 0.85937 0.34676 2.2656 0 3.125-0.34676 0.85937-0.63049 0.15625-0.63049-1.5625zm-4.364-2.0833c-0.45834-0.45832-0.83334-1.4146-0.83334-2.125 0-0.78325 0.58221-0.70945 1.4792 0.1875 0.81355 0.81355 1.1886 1.7698 0.83334 2.125-0.35521 0.35521-1.0208 0.27084-1.4792-0.1875zm-59.545-1.0417c0-0.6875 0.54526-2.0938 1.2117-3.125 0.66645-1.0312 1.2117-1.3125 1.2117-0.625s-0.54526 2.0938-1.2117 3.125c-0.66645 1.0312-1.2117 1.3125-1.2117 0.625zm128.91-4.375c0-1.7188 0.28373-2.4219 0.63049-1.5625 0.34676 0.85937 0.34676 2.2656 0 3.125-0.34676 0.85937-0.63049 0.15625-0.63049-1.5625zm-128.96-2.36c0-0.61132 1.119-2.4394 2.4868-4.0625l2.4868-2.951-1.9533 4.0625c-1.9378 4.0303-3.0202 5.0879-3.0202 2.951zm133.99-3.2635c0.0255-2.0625 0.30562-2.7549 0.62255-1.5387 0.31692 1.2162 0.29608 2.9037-0.0464 3.75-0.34241 0.84628-0.60171-0.14879-0.57624-2.2113zm-73.823-1.875c-0.11238-1.7188-0.4938-4.5312-0.84756-6.25l-0.64319-3.125 1.3428 3.0769c0.73853 1.6923 1.1199 4.5048 0.84755 6.25l-0.49523 3.1731-0.20435-3.125zm192.85-1.1445c-5.0592-2.1761-9.2736-8.6646-9.2648-14.264 0.0126-7.9946 5.7179-14.879 17.129-20.671 6.4369-3.2667 10.662-3.3313 17.412-0.26601 3.8499 1.7482 5.5222 3.4216 6.5306 6.535 2.8277 8.7307-1.5444 20.16-10.021 26.196-4.4376 3.1599-16.899 4.5726-21.787 2.4701zm17.832-2.5348c7.0354-3.1942 11.906-10.655 12.626-19.342 0.47376-5.713 0.15164-6.9909-2.3497-9.3213-3.4598-3.2233-11.166-5.5138-15.147-4.5022-4.9806 1.2655-16.392 9.9648-18.855 14.374-2.5673 4.5955-2.2897 11.132 0.62274 14.66 5.4175 6.5626 14.264 8.1446 23.103 4.1316zm-20.842-5.3832c0.006-0.85938 2.3975-5.7378 5.3125-10.841 5.8274-10.202 8.9032-12.8 7.6326-6.4469-0.93408 4.6704 0.60535 4.9162 4.5424 0.72545 1.6147-1.7188 3.4002-3.125 3.9679-3.125 0.56766 0 1.0321 2.863 1.0321 6.3621 0 5.0692-0.57155 6.8389-2.8125 8.7084-3.4354 2.8659-4.6875 3.014-4.6875 0.55445 0-2.4987-0.8283-2.3653-4.0709 0.65566-1.494 1.3919-3.3981 2.269-4.2314 1.9493-0.83323-0.31975-2.1875 0.22895-3.0094 1.2193-1.8389 2.2157-3.6926 2.3358-3.6759 0.2382zm7.8265-4.4272c0.40024 1.1103 1.8048 0.46788 4.4966-2.0567 3.055-2.8653 3.9145-3.2084 3.9145-1.5625 0 2.4739 1.3927 2.7162 3.5 0.60886 1.7673-1.7673 1.9964-6.7957 0.35584-7.8096-0.62929-0.38892-2.8403 0.72005-4.9133 2.4644l-3.7691 3.1715-0.39921-3.4757c-0.38984-3.394-0.47991-3.341-3.8367 2.2592-3.7883 6.3201-4.368 8.4686-1.6841 6.2411 1.3468-1.1178 1.8884-1.0808 2.3355 0.15943zm-201.49 9.0105c0.06-1.4562 0.35617-1.7524 0.7552-0.75522 0.36108 0.90234 0.31668 1.9805-0.0986 2.3958-0.41536 0.41536-0.7108-0.32292-0.65652-1.6406zm78.69 1.3542c0-0.6875 0.54526-2.0938 1.2117-3.125 0.66645-1.0312 1.2117-1.3125 1.2117-0.625s-0.54526 2.0938-1.2117 3.125c-0.66645 1.0312-1.2117 1.3125-1.2117 0.625zm-260-1.25c0-0.6875 0.54526-2.0938 1.2117-3.125 0.66645-1.0312 1.2117-1.3125 1.2117-0.625s-0.54526 2.0938-1.2117 3.125c-0.66645 1.0312-1.2117 1.3125-1.2117 0.625zm254.51-1.25c-0.39572-1.0312-0.17465-1.875 0.49126-1.875 0.66593 0 1.2108 0.84375 1.2108 1.875s-0.22107 1.875-0.49126 1.875c-0.2702 0-0.81504-0.84375-1.2108-1.875zm-120.7-0.69859c-0.0542-1.0717 0.77608-3.0405 1.8453-4.375 1.9128-2.3876 1.9256-2.3864 0.7939 0.0736-0.63252 1.375-1.4629 3.3438-1.8453 4.375-0.60055 1.6197-0.70867 1.6097-0.7939-0.0736zm-2.5987-4.7789c0-0.6875 0.5625-1.5976 1.25-2.0225s1.25-0.21004 1.25 0.47746-0.5625 1.5976-1.25 2.0225-1.25 0.21004-1.25-0.47746zm45.468-4.4813c-1.2723-3.3155 0.124-4.4053 1.602-1.2504 0.80777 1.7242 0.92827 3.0841 0.27327 3.0841-0.64439 0-1.4883-0.82519-1.8753-1.8338zm-41.718-3.7175c0-0.99067 0.51004-2.1164 1.1334-2.5017 0.62339-0.38528 0.83903 0.42527 0.47922 1.8012-0.76327 2.9187-1.6126 3.2877-1.6126 0.7005zm-130-0.625c0-0.64692 0.55606-1.5199 1.2357-1.9399 0.70857-0.43792 0.91812 0.0639 0.49126 1.1762-0.83099 2.1655-1.727 2.5617-1.727 0.7637zm175.2-2.159c-0.11-2.1782-0.52378-4.9906-0.91944-6.25-0.67872-2.1604-0.63905-2.1646 0.7022-0.0752 0.78186 1.218 1.1956 4.0304 0.91943 6.25l-0.50215 4.0356-0.20004-3.9603zm-178.75-1.6647c0-1.7188 0.28373-2.4219 0.63049-1.5625 0.34676 0.85937 0.34676 2.2656 0 3.125-0.34676 0.85937-0.63049 0.15625-0.63049-1.5625zm261.25 0c0-1.7188 0.28373-2.4219 0.63049-1.5625 0.34676 0.85937 0.34676 2.2656 0 3.125-0.34676 0.85937-0.63049 0.15625-0.63049-1.5625zm-121.45-2.2c0-0.59668 0.81578-2.1768 1.8128-3.5113 1.749-2.3409 1.7877-2.3266 1.0991 0.40556-0.71109 2.8216-2.912 5.1688-2.912 3.1057zm116.34-0.62519c0.0484-0.85938 0.57128-2.6875 1.1621-4.0625 0.90026-2.095 1.0885-1.8419 1.1621 1.5625 0.0484 2.2344-0.47464 4.0625-1.1621 4.0625-0.6875 0-1.2105-0.70313-1.1621-1.5625zm-110.32-1.7914c0.90234-0.36109 1.9805-0.31669 2.3958 0.0986 0.41536 0.41536-0.32292 0.7108-1.6406 0.65652-1.4562-0.06-1.7524-0.35617-0.75522-0.7552zm7.4449-0.60667c0.72638-0.72638 2.0585-1.0747 2.9603-0.77414 0.93618 0.31206 0.36956 0.87867-1.3207 1.3207-2.0792 0.54371-2.5672 0.38103-1.6396-0.54655zm19.138-0.5186c0.06-1.4562 0.35617-1.7524 0.7552-0.75522 0.36108 0.90234 0.31668 1.9805-0.0986 2.3958-0.41537 0.41536-0.7108-0.32292-0.65652-1.6406zm90.099-0.52084c0-1.7188 0.28373-2.4219 0.63049-1.5625 0.34676 0.85937 0.34676 2.2656 0 3.125-0.34676 0.85937-0.63049 0.15625-0.63049-1.5625zm-98.947-0.0738c0-0.72807 0.5625-0.97612 1.25-0.55122s1.25 1.0206 1.25 1.3238c0 0.30318-0.5625 0.55123-1.25 0.55123s-1.25-0.5957-1.25-1.3238zm-17.812-2.0041c0.85937-0.34676 2.2656-0.34676 3.125 0 0.85937 0.34676 0.15625 0.63049-1.5625 0.63049s-2.4219-0.28373-1.5625-0.63049zm18.812-3.1722c1.1667-1.1667 1.8333-1.1667 3 0s0.83334 1.5-1.5 1.5-2.6667-0.33334-1.5-1.5zm99-0.375c0-1.0312 0.54485-1.875 1.2108-1.875 0.66592 0 0.88699 0.84375 0.49127 1.875-0.39574 1.0312-0.94058 1.875-1.2108 1.875-0.27019 0-0.49126-0.84375-0.49126-1.875zm-123.65-5.1042c0.06-1.4562 0.35617-1.7524 0.7552-0.75522 0.36109 0.90234 0.31669 1.9805-0.0986 2.3958-0.41537 0.41537-0.7108-0.32292-0.65652-1.6406zm29.485 1.1458c-0.45834-0.45832-0.81624-1.724-0.79533-2.8125 0.0312-1.6254 0.27514-1.5714 1.3646 0.30209 1.346 2.3146 0.95576 4.0354-0.56925 2.5104zm2.2402-3.8542c-0.39826-1.8906-0.94001-4.5029-1.2039-5.8051-0.26388-1.3022-0.022-1.8647 0.53749-1.25 1.0906 1.1981 2.7852 10.493 1.9131 10.493-0.28743 0-0.84844-1.5469-1.2467-3.4375zm87.76 2.6042c-1.1289-1.1289-1.0576-5.1305 0.10412-5.8485 0.51563-0.31868 0.9375 1.0544 0.9375 3.0512s-0.0469 3.6306-0.10412 3.6306c-0.0573 0-0.47918-0.375-0.9375-0.83334zm-115.83-4.73c0-0.99067 0.51004-2.1164 1.1334-2.5017 0.62339-0.38528 0.83903 0.42527 0.47922 1.8012-0.76327 2.9187-1.6126 3.2877-1.6126 0.7005zm-0.90955-8.1988c0-3.0938 0.24377-4.3594 0.54171-2.8125 0.29795 1.5469 0.29795 4.0781 0 5.625-0.29794 1.5469-0.54171 0.28125-0.54171-2.8125zm22.591-0.67891c-0.40711-1.0609-0.4609-2.2082-0.1195-2.5496 0.34136-0.34137 0.9207 0.52664 1.2874 1.9289 0.77894 2.9787-0.0865 3.4386-1.1679 0.62067zm100.92 0.60532c-0.0542-1.0717 0.77608-3.0405 1.8453-4.375 1.9128-2.3876 1.9256-2.3864 0.7939 0.0736-0.63252 1.375-1.4629 3.3438-1.8453 4.375-0.60055 1.6197-0.70867 1.6097-0.7939-0.0736zm-3.7608-4.5401c-0.0483-1.5063 0.47464-3.0864 1.1621-3.5113 1.4785-0.91375 1.4785 0.3094 0 3.75-1.0357 2.4103-1.0774 2.4017-1.1621-0.23873zm-100.42-6.5361c-0.54371-2.0792-0.38104-2.5672 0.54655-1.6396 0.72638 0.72638 1.0747 2.0585 0.77414 2.9603-0.31206 0.93618-0.87868 0.36956-1.3207-1.3207zm4.2305-1.4729c-0.76698-2.2002-1.3549-4.6195-1.3064-5.3763 0.0485-0.75678 0.89444 0.82492 1.88 3.5149 0.98554 2.69 1.5734 5.1093 1.3064 5.3763-0.267 0.26698-1.113-1.3147-1.88-3.5149zm-22.332 1.7949c-0.85938-0.34676-1.5625-1.1793-1.5625-1.8501 0-0.67079 0.51446-0.90165 1.1432-0.51305 0.62877 0.38862 1.4281-0.00006 1.7763-0.86372 0.3482-0.86367 0.67749-0.30466 0.73176 1.2422 0.0542 1.5469-0.042 2.7681-0.21381 2.7138-0.17188-0.0542-1.0156-0.3824-1.875-0.72916zm122.23-7.9222c0-1.0312 0.54526-2.7188 1.2117-3.75 1.0771-1.6667 1.2117-1.6667 1.2117 0 0 1.0312-0.54526 2.7188-1.2117 3.75-1.0771 1.6667-1.2117 1.6667-1.2117 0zm-102.25-5c0-2.4062 0.25725-3.3906 0.57166-2.1875 0.3144 1.2031 0.3144 3.1719 0 4.375-0.31441 1.2031-0.57166 0.21875-0.57166-2.1875zm-5.1887 0.18924c-0.7432-1.3887-1.3266-3.8275-1.2964-5.4196 0.0402-2.1208 0.52644-1.5707 1.8187 2.0575 1.9284 5.4143 1.6242 7.3728-0.52228 3.3621zm112.5-0.9184c0.06-1.4562 0.35617-1.7524 0.7552-0.75522 0.36108 0.90234 0.31668 1.9805-0.0986 2.3958-0.41536 0.41537-0.7108-0.32292-0.65652-1.6406zm-128.6-3.6458c0.0255-2.0625 0.30562-2.7549 0.62255-1.5387 0.31692 1.2162 0.29608 2.9037-0.0464 3.75-0.34241 0.84629-0.60171-0.14879-0.57624-2.2113zm126.03-5.2387c0.0105-0.5562 0.56441-1.855 1.2309-2.8863 1.0442-1.6159 1.2144-1.5829 1.2309 0.23872 0.01 1.1626-0.54336 2.4614-1.2309 2.8863-0.6875 0.4249-1.2414 0.31747-1.2309-0.23873zm-122.25-5.388c0-2.4062 0.25725-3.3906 0.57166-2.1875 0.3144 1.2031 0.3144 3.1719 0 4.375-0.31441 1.2031-0.57166 0.21875-0.57166-2.1875zm9.2933 0.41666c-0.45834-0.45832-0.79769-2.0052-0.7541-3.4375 0.0729-2.3945 0.17565-2.3631 1.2768 0.38981 1.2241 3.0603 0.97021 4.5407-0.52275 3.0477zm2.4479-5.5729c-1.0421-5.2103-0.0322-6.2202 1.0938-1.0938 0.4746 2.1608 0.60234 4.1893 0.28389 4.5078-0.31847 0.31846-0.9384-1.2179-1.3776-3.414zm-15.683-0.57291c0.06-1.4562 0.35617-1.7524 0.7552-0.75522 0.36108 0.90234 0.31668 1.9805-0.0986 2.3958-0.41537 0.41536-0.7108-0.32292-0.65652-1.6406zm128.65-4.8958c0-1.0312 0.22107-1.875 0.49126-1.875 0.2702 0 0.81504 0.84375 1.2108 1.875 0.39572 1.0312 0.17465 1.875-0.49127 1.875s-1.2108-0.84375-1.2108-1.875zm-117.92-1.4583c-0.45834-0.45832-0.79769-2.0052-0.7541-3.4375 0.0729-2.3945 0.17565-2.3631 1.2768 0.38981 1.2241 3.0603 0.97021 4.5407-0.52275 3.0477zm123.02 0.20834c0.13016-2.3678 2.2134-6.3548 2.286-4.375 0.0378 1.0312-0.47655 2.7188-1.143 3.75s-1.1808 1.3125-1.143 0.625zm-132.41-3.125c0-1.7188 0.28373-2.4219 0.63049-1.5625 0.34676 0.85937 0.34676 2.2656 0 3.125-0.34676 0.85937-0.63049 0.15625-0.63049-1.5625zm280.74 0.42215c0.85937-0.34676 2.2656-0.34676 3.125 0 0.85937 0.34676 0.15625 0.63049-1.5625 0.63049s-2.4219-0.28373-1.5625-0.63049zm-395.94-1.7114c0-0.66592 0.84375-1.2108 1.875-1.2108s1.875 0.22108 1.875 0.49126c0 0.2702-0.84375 0.81504-1.875 1.2108-1.0312 0.39572-1.875 0.17465-1.875-0.49127zm383.44 0.46138c0.85937-0.34676 2.2656-0.34676 3.125 0 0.85937 0.34676 0.15625 0.63049-1.5625 0.63049s-2.4219-0.28373-1.5625-0.63049zm-11.25-2.5c0.85937-0.34676 2.2656-0.34676 3.125 0 0.85937 0.34676 0.15625 0.63049-1.5625 0.63049s-2.4219-0.28373-1.5625-0.63049zm-338.44-3.0392c0-0.62314 1.125-1.133 2.5-1.133s2.5 0.21564 2.5 0.47921-1.125 0.77341-2.5 1.133c-1.375 0.35957-2.5 0.14392-2.5-0.47921zm323.75-0.19548c0-0.51562 1.373-0.9375 3.0512-0.9375s3.312 0.42188 3.6306 0.9375c0.31868 0.51563-1.0544 0.9375-3.0512 0.9375s-3.6306-0.42187-3.6306-0.9375zm-11.562-0.51535c0.85937-0.34677 2.2656-0.34677 3.125 0 0.85937 0.34677 0.15625 0.63048-1.5625 0.63048s-2.4219-0.28371-1.5625-0.63048zm34.881-0.73465c0.31867-0.51562 1.3568-0.9375 2.3069-0.9375s1.9882 0.42188 2.3069 0.9375c0.31868 0.51563-0.71941 0.9375-2.3069 0.9375-1.5874 0-2.6255-0.42187-2.3069-0.9375zm-334.8-0.54139c0.90234-0.36109 1.9805-0.31668 2.3958 0.0987 0.41537 0.41536-0.32292 0.7108-1.6406 0.65652-1.4562-0.06-1.7524-0.35618-0.75522-0.75521zm77.978-2.2711c0.0255-2.0625 0.30562-2.7549 0.62255-1.5387 0.31692 1.2162 0.29608 2.9037-0.0464 3.75-0.34235 0.84629-0.60165-0.14879-0.57617-2.2113zm-67.744 0.58577c0-0.66592 0.84375-1.2108 1.875-1.2108s1.875 0.22107 1.875 0.49126c0 0.2702-0.84375 0.81505-1.875 1.2108-1.0312 0.39573-1.875 0.17466-1.875-0.49126zm190.8-0.58577c0.39574-1.0312 0.94058-1.875 1.2108-1.875 0.27019 0 0.49126 0.84375 0.49126 1.875s-0.54485 1.875-1.2108 1.875c-0.66591 0-0.88698-0.84375-0.49126-1.875zm70.452 0.58577c0-0.66592 0.84375-1.2108 1.875-1.2108s1.875 0.22107 1.875 0.49126c0 0.2702-0.84375 0.81505-1.875 1.2108-1.0312 0.39573-1.875 0.17466-1.875-0.49126zm13.125 0.0392c0.4249-0.6875 1.3018-1.25 1.9488-1.25 0.64693 0 1.1762 0.5625 1.1762 1.25s-0.87695 1.25-1.9488 1.25-1.6011-0.5625-1.1762-1.25zm35.312 0.42215c0.85937-0.34677 2.2656-0.34677 3.125 0 0.85937 0.34677 0.15625 0.63048-1.5625 0.63048s-2.4219-0.28371-1.5625-0.63048zm-246.39-2.2971c0.39574-1.0312 0.94058-1.875 1.2108-1.875 0.27019 0 0.49126 0.84375 0.49126 1.875s-0.54485 1.875-1.2108 1.875c-0.66591 0-0.88698-0.84375-0.49126-1.875zm-46.423-0.625c0.4249-0.6875 2.005-1.2414 3.5113-1.2309 2.2265 0.0156 2.3881 0.24575 0.86373 1.2309-2.4626 1.5915-5.3586 1.5915-4.375 0zm231.56 0.42215c0.85937-0.34677 2.2656-0.34677 3.125 0 0.85937 0.34677 0.15625 0.63048-1.5625 0.63048s-2.4219-0.28371-1.5625-0.63048zm-219.69-1.6722c1.0312-0.66645 3-1.2117 4.375-1.2117 2.0702 0 2.1776 0.20834 0.625 1.2117-1.0312 0.66645-3 1.2117-4.375 1.2117-2.0702 0-2.1776-0.20834-0.625-1.2117zm263.75 0.11702c0-0.62313 1.125-0.83878 2.5-0.47921s2.5 0.86941 2.5 1.133c0 0.26357-1.125 0.47921-2.5 0.47921s-2.5-0.50984-2.5-1.133zm-249.66-0.98326c1.2162-0.31693 2.9037-0.29609 3.75 0.0463 0.84628 0.34241-0.14879 0.60171-2.2113 0.57624-2.0625-0.0255-2.7549-0.30562-1.5387-0.62255zm41.539-0.38376c-2.3854-1.0251-2.3711-1.0783 0.3125-1.1621 1.5469-0.0483 2.8125 0.47464 2.8125 1.1621 0 0.6875-0.14063 1.2105-0.3125 1.1621-0.17188-0.0483-1.4375-0.57128-2.8125-1.1621zm32.812 0.42215c0.85937-0.34677 2.2656-0.34677 3.125 0 0.85937 0.34677 0.15625 0.63048-1.5625 0.63048s-2.4219-0.28371-1.5625-0.63048zm-46.25-1.25c0.85937-0.34677 2.2656-0.34677 3.125 0 0.85937 0.34677 0.15625 0.63048-1.5625 0.63048s-2.4219-0.28371-1.5625-0.63048zm57.578-0.026c0.90234-0.36109 1.9805-0.31668 2.3958 0.0987 0.41536 0.41536-0.32292 0.7108-1.6406 0.65652-1.4562-0.06-1.7524-0.35617-0.75522-0.7552zm111.25 0c0.90234-0.36109 1.9805-0.31668 2.3958 0.0987 0.41536 0.41536-0.32292 0.7108-1.6406 0.65652-1.4562-0.06-1.7524-0.35617-0.75522-0.7552zm32.215-0.56656c0.85092-1.3768 5.6337-1.3651 7.8176 0.0191 1.0745 0.68104-0.144 1.0604-3.4059 1.0604-2.7934 0-4.7787-0.48579-4.4117-1.0795zm-131.36-1.08c0.4249-0.6875 1.0206-1.25 1.3238-1.25 0.30318 0 0.55123 0.5625 0.55123 1.25s-0.5957 1.25-1.3238 1.25c-0.72808 0-0.97613-0.5625-0.55123-1.25zm116.88 0c-1.0312-0.66645-1.3125-1.2117-0.625-1.2117s2.0938 0.54527 3.125 1.2117c1.0312 0.66645 1.3125 1.2117 0.625 1.2117s-2.0938-0.54527-3.125-1.2117zm-106.25-1.367c0-0.62314 1.125-1.133 2.5-1.133s2.5 0.21564 2.5 0.47921-1.125 0.77341-2.5 1.133c-1.375 0.35957-2.5 0.14392-2.5-0.47921zm12.5-1.25c0-0.62314 1.125-1.133 2.5-1.133s2.5 0.21564 2.5 0.47921-1.125 0.77341-2.5 1.133c-1.375 0.35957-2.5 0.14392-2.5-0.47921zm10-0.0563c0-0.59216 1.4062-1.0767 3.125-1.0767s3.125 0.21568 3.125 0.47928-1.4062 0.7481-3.125 1.0767c-1.7188 0.32856-3.125 0.11289-3.125-0.47928zm69.449-0.49141c-1.3345-1.0094-1.897-1.8174-1.25-1.7955 0.64702 0.0219 2.2683 0.86561 3.6028 1.875s1.897 1.8174 1.25 1.7955c-0.64702-0.0219-2.2683-0.86562-3.6028-1.875zm-158.51-0.1631c0.85937-0.34677 2.2656-0.34677 3.125 0 0.85937 0.34677 0.15625 0.63048-1.5625 0.63048s-2.4219-0.28371-1.5625-0.63048zm18.75 0c0.85937-0.34677 2.2656-0.34677 3.125 0 0.85937 0.34677 0.15625 0.63048-1.5625 0.63048s-2.4219-0.28371-1.5625-0.63048zm12.917 0.36182c0.28646-0.25632 2.4896-1.4152 4.8958-2.5752l4.375-2.1092-3.125 2.5474c-1.7188 1.4011-3.9219 2.56-4.8958 2.5752-0.97395 0.0153-1.5364-0.18192-1.25-0.43824zm76.146-0.87461-4.375-0.83026 4.2372-0.16455c2.3621-0.0917 5.0201-1.1326 6.0064-2.352 1.5688-1.9396 1.6006-1.8334 0.28099 0.9375-1.7822 3.7422-0.91555 3.4026-6.1496 2.4094zm-57.164-2.0256c1.2162-0.31693 2.9037-0.29608 3.75 0.0463 0.84628 0.34241-0.14879 0.60171-2.2113 0.57624-2.0625-0.0255-2.7549-0.30562-1.5387-0.62255zm76.929 0.0124c0.90234-0.36109 1.9805-0.31668 2.3958 0.0987 0.41536 0.41537-0.32292 0.71081-1.6406 0.65653-1.4562-0.06-1.7524-0.35618-0.75522-0.75521zm-59.766-1.6462c1.0312-0.66645 2.4375-1.2117 3.125-1.2117s0.40625 0.54527-0.625 1.2117c-1.0312 0.66645-2.4375 1.2117-3.125 1.2117s-0.40625-0.54527 0.625-1.2117zm15-1.25c0-0.6875 1.1582-1.25 2.5738-1.25s2.2261 0.5625 1.8012 1.25-1.5831 1.25-2.5738 1.25c-0.99068 0-1.8012-0.5625-1.8012-1.25zm34.688 0.42215c0.85937-0.34677 2.2656-0.34677 3.125 0 0.85937 0.34677 0.15625 0.63048-1.5625 0.63048s-2.4219-0.28371-1.5625-0.63048zm23.438-0.42215c-3.4595-0.8803-3.5079-0.96419-0.625-1.083 1.7188-0.0708 3.9688 0.41651 5 1.083 2.1274 1.3748 1.0281 1.3748-4.375 0zm-44.609-0.85389c0.90234-0.36109 1.9805-0.31668 2.3958 0.0987 0.41536 0.41536-0.32292 0.7108-1.6406 0.65652-1.4562-0.06-1.7524-0.35618-0.75522-0.75521zm12.734-2.5493c0-1.5728 3.573-4.6905 4.4129-3.8506 0.33136 0.33135-0.52599 1.6237-1.9052 2.8719s-2.5077 1.6886-2.5077 0.97872zm11.286-0.29796c-1.0113-0.6396-1.573-1.4287-1.248-1.7537 0.32493-0.32492 1.6818 0.207 3.0152 1.182 2.6668 1.95 1.1753 2.4325-1.7672 0.57163zm-6.8308-10.415c0.46941-1.2328 1.1684-1.9265 1.5532-1.5417 0.38486 0.38486 0.0008 1.3935-0.85348 2.2414-1.2345 1.2253-1.3781 1.0818-0.69975-0.69974zm4.3329-2.1336c0-1.0312 0.54526-2.7188 1.2117-3.75 1.0771-1.6667 1.2117-1.6667 1.2117 0 0 1.0312-0.54526 2.7188-1.2117 3.75-1.0771 1.6667-1.2117 1.6667-1.2117 0zm-1.2883-10.625c0-1.0312 0.22107-1.875 0.49126-1.875 0.2702 0 0.81504 0.84375 1.2108 1.875 0.39572 1.0312 0.17465 1.875-0.49127 1.875s-1.2108-0.84375-1.2108-1.875zm5.0987-5.1042c0.06-1.4562 0.35617-1.7524 0.7552-0.75521 0.36108 0.90234 0.31668 1.9805-0.0986 2.3958-0.41536 0.41536-0.7108-0.32292-0.65652-1.6406zm1.159-4.3444c-0.004-1.0717 0.81816-3.0405 1.8276-4.375 2.3877-3.1568 2.4113-1.7893 0.0475 2.7432-1.027 1.9692-1.8708 2.7035-1.875 1.6318z"/>
</svg>
