<?xml version="1.0" encoding="UTF-8" standalone="no"?>
<!-- Created with Inkscape (http://www.inkscape.org/) -->
<svg id="svg3717" xmlns:rdf="http://www.w3.org/1999/02/22-rdf-syntax-ns#" xmlns="http://www.w3.org/2000/svg" height="558.02" viewBox="0 0 607.14789 558.02484" width="607.15" version="1.1" xmlns:cc="http://creativecommons.org/ns#" xmlns:dc="http://purl.org/dc/elements/1.1/">
 <metadata id="metadata3723">
  <rdf:RDF>
   <cc:Work rdf:about="">
    <dc:format>image/svg+xml</dc:format>
    <dc:type rdf:resource="http://purl.org/dc/dcmitype/StillImage"/>
    <dc:title/>
   </cc:Work>
  </rdf:RDF>
 </metadata>
 <path id="path3727" d="m438.1 556.77c-1.2031-0.70075-2.1875-0.92891-2.1875-0.50701 0 0.42191-2.25-0.49747-5-2.0431s-5-3.5305-5-4.411c0-3.8065-10.778-5.3954-40.625-5.9893-8.25-0.16415-17.812-0.70257-21.25-1.1965-3.4375-0.49392-12.438-1.1571-20-1.4737-33.222-1.3908-55.418-2.7852-59.858-3.7605-2.1167-0.4649-7.3568-0.97007-11.645-1.1226-4.2879-0.15252-8.5626-0.91335-9.4992-1.6907-0.93667-0.77736-8.1256-1.7264-15.975-2.109-7.8498-0.38256-16.241-0.95085-18.647-1.2629-2.4062-0.31203-11.969-0.90059-21.25-1.3079-27.664-1.2141-34.228-1.7986-37.246-3.3168-2.1971-1.1051-4.1045-1.0741-8.125 0.13196-5.7472 1.724-10.3 1.9141-12.55 0.52392-1.3662-0.84438-17.514-1.8073-27.079-1.6148-52.045 1.0474-73.678 2.1959-75.934 4.0315-0.85729 0.6976-4.6102 1.3415-8.3399 1.431-15.231 0.36515-17.565-6.4291-18.84-54.837-0.36211-13.75-0.9692-29.5-1.3491-35s-0.516-14.219-0.30246-19.375c0.9711-23.448-1.3332-102.97-3.287-113.44-0.39587-2.1201-2.0274-23.281-2.5781-33.438-2.8343-52.274-5.046-70.547-8.927-73.75-0.83296-0.6875-1.8707-4.3438-2.3062-8.125-0.68854-5.9791-0.33367-7.7709 2.7232-13.75 2.4394-4.7713 4.2598-6.8762 5.9491-6.879 1.956-0.004 3.6995-3.1956 8.8748-16.25 3.5423-8.9353 8.4938-20.676 11.003-26.09 2.5095-5.414 4.5627-11.208 4.5627-12.875 0-6.4365 6.3426-14.157 11.63-14.157 2.3674 0 6.0315-2.0392 30.131-16.769 7.4999-4.584 22.969-13.044 34.375-18.801 32.502-16.403 38.233-19.78 38.236-22.528 0.002-2.5889 6.6367-7.7308 11.572-8.9696 2.1442-0.53816 3.8997 0.13943 6.3242 2.4411 3.6916 3.5045 2.0413 3.5708 23.356-0.93882 5.5-1.1636 16.75-3.7064 25-5.6506 17.553-4.1365 49.466-11.192 68.125-15.061 7.2188-1.4968 16.781-3.7211 21.25-4.9428 4.4688-1.2217 10.938-2.9563 14.375-3.8548 3.4375-0.89845 6.9274-2.5734 7.7552-3.7221 1.9776-2.744 14.748-5.2484 20.31-3.9831 3.824 0.86989 4.6376 1.8142 7.149 8.298 1.5587 4.024 4.1169 8.1991 5.6849 9.2781s9.601 8.9788 17.851 17.555c23.469 24.397 41.873 43.446 49.448 51.179 3.8216 3.9012 7.8238 8.5043 8.8937 10.229 1.07 1.7248 3.5564 3.9748 5.5255 5s8.3732 6.6593 14.231 12.52c5.8581 5.8609 14.87 14.113 20.026 18.338 12.482 10.228 38.561 35 51.066 48.505 1.2731 1.375 4.1103 3.8489 6.305 5.4976 2.1946 1.6487 5.43 5.4544 7.1897 8.4572 1.9119 3.2624 5.9187 7.2644 9.9563 9.9444 3.7162 2.4667 8.2592 6.575 10.095 9.1296 4.4881 6.2438 12.667 11.953 17.262 12.05 11.129 0.23536 11.966 0.53094 18.362 6.4832 7.2616 6.7577 12.233 16.192 12.25 23.25 0.0175 6.8955-6.4494 13.312-13.416 13.312-4.8705 0-4.9811 0.10625-9.4309 9.0625-2.5704 5.1734-4.0343 9.5336-3.4113 10.16 1.0999 1.1066 0.90316 1.7402-2.893 9.3159-1.1476 2.2901-2.0865 5.5098-2.0865 7.155 0 1.6451-1.5898 7.0839-3.5329 12.086-1.9431 5.0023-4.5272 12.751-5.7424 17.22-1.2152 4.4688-2.6091 8.9688-3.0975 10-0.48839 1.0312-2.4857 6.9375-4.4386 13.125-1.9528 6.1875-4.1298 12.656-4.8377 14.375-0.70794 1.7188-1.1374 3.6875-0.95434 4.375 0.42121 1.582-2.2935 14.18-3.7709 17.5-2.4064 5.4071-7.3756 22.108-7.3756 24.789 0 1.56-0.61151 3.4479-1.3589 4.1953-0.97857 0.97856-0.97857 1.594 0 2.1988 0.7474 0.46192 1.3589 2.4873 1.3589 4.5009 0 4.0986-6.2104 10.77-13.75 14.77-3.8066 2.0197-4.5555 3.2174-5.7646 9.2199-1.1597 5.757-8.9346 27.841-16.178 45.952-5.2499 13.127-5.5797 15.208-2.987 18.849 5.6812 7.9785 0.76658 18.607-7.74 16.738-4.1248-0.90595-5.5366-1.4492-10.727-4.1274-3.4851-1.7983-7.0768-0.51605-16.102 5.7487-5.6093 3.8935-6.7244 5.2923-6.7368 8.4502-0.0194 4.9639-3.0958 9.1887-8.263 11.348-4.8548 2.0285-12.673 2.2227-15.814 0.39284zm15.432-4.985c4.5028-3.2063 4.7471-6.1649 0.50906-6.1649-3.6969 0-13.129-8.0369-13.129-11.187 0-3.3986-1.267-3.7959-3.8542-1.2087-1.3177 1.3177-3.2141 2.3958-4.2142 2.3958-1.98 0-3.6737 6.4802-2.9775 11.392 0.93246 6.5787 16.672 9.753 23.665 4.7729zm-27.62-10.466c0-3.2047-3.5512-4.1483-19.375-5.1481-4.8125-0.30407-11.844-0.85438-15.625-1.2229-3.7812-0.36854-10.25-0.9042-14.375-1.1903-4.125-0.28613-12-0.89048-17.5-1.343-11.809-0.97154-25.855-1.5743-45.625-1.9578-7.9062-0.15337-16.754-0.99262-19.661-1.865-2.9073-0.87236-9.6573-1.9095-15-2.3048s-12.245-1.0626-15.339-1.4828c-3.0938-0.42025-7.0078-0.9344-8.6978-1.1426-5.7948-0.71374-15.678-2.084-17.607-2.4412-1.0612-0.1965-9.7799-0.7331-19.375-1.1924-9.5951-0.45934-26.164-1.4007-36.821-2.092-21.991-1.4266-32.263-1.8933-60.625-2.7546-11-0.33407-27.313-0.97487-36.25-1.424-8.9375-0.44913-20.903-0.44346-26.59 0.0126-9.7606 0.78278-10.443 1.0301-12.195 4.4168-3.065 5.9271-0.23403 6.517 26.707 5.5649 44.686-1.5791 81.966-1.0599 123.33 1.7177 11.688 0.78486 30.691 2.0284 42.23 2.7633 11.539 0.73495 22.789 1.8642 25 2.5095 2.2111 0.64528 7.6765 1.432 12.145 1.7483 4.4688 0.31628 11.781 0.91135 16.25 1.3224 9.289 0.8544 14.458 1.1897 36.25 2.3518 8.5938 0.45826 26.031 1.5882 38.75 2.511 12.719 0.92283 29.031 1.7338 36.25 1.8023 7.2188 0.0685 14.812 0.64258 16.875 1.2759 5.4564 1.6754 6.875 1.5857 6.875-0.43488zm29.58-1.239c-0.58833-1.5332 1.1655-7.0686 5.5717-17.585 0.57612-1.375 3.1072-8.4062 5.6248-15.625 2.5175-7.2188 5.6128-14.604 6.8785-16.413 1.2657-1.8081 6.8811-12.777 12.479-24.375 5.5976-11.598 14.607-30.212 20.022-41.364 5.4143-11.152 9.8442-20.628 9.8442-21.057 0-0.42951 1.1828-2.4421 2.6285-4.4723 1.4457-2.0303 6.553-11.398 11.35-20.818 4.7966-9.4196 10.018-19.658 11.602-22.752 1.5847-3.0938 11.425-23.062 21.868-44.375 10.442-21.312 19.546-39.789 20.231-41.059 0.68443-1.2701 1.0648-2.3951 0.8453-2.5-0.21951-0.10487-1.6371-0.88138-3.1501-1.7255-3.3018-1.842-5.8041 0.13184-9.0256 7.1195-1.1195 2.4284-3.483 6.6652-5.2522 9.4152-3.4076 5.2968-8.8326 16.875-7.9067 16.875 0.79775 0-17.64 34.758-23.207 43.75-6.9451 11.217-12.595 21.56-19.008 34.799-4.2167 8.7044-9.0437 17.929-10.727 20.499-1.6829 2.5699-3.0599 6.0524-3.0599 7.7387 0 1.6864-0.68304 3.3282-1.5179 3.6486-1.9659 0.7544-23.814 45.162-25.713 52.264-0.79811 2.9846-1.8601 5.9891-2.36 6.6766-0.49991 0.6875-1.6188 3.7812-2.4864 6.875-1.5835 5.6462-3.1732 9.4161-10.806 25.625-2.2662 4.8125-4.5118 10.156-4.9903 11.875-0.47845 1.7188-1.2667 3.6875-1.7517 4.375-2.0208 2.8648-5.1841 13.167-4.4217 14.4 0.45357 0.73391 0.13612 2.164-0.70544 3.1781-1.2303 1.4824-1.091 2.329 0.71113 4.3202 2.632 2.9083 7.4856 3.426 6.4342 0.68628zm12.94-7.5973c11.334-7.1548 19.076-10.767 20.349-9.4932 0.86653 0.86652 0.7663 1.8877-0.31291 3.1881-1.2914 1.556-1.2698 2.0121 0.1155 2.4429 0.9368 0.29134 3.6147 1.1415 5.9508 1.8893 5.2239 1.6721 7.6274 0.10162 7.6274-4.984 0-3.0122-0.8705-3.9235-5.8529-6.1275l-5.8529-2.589-5.0846 2.6357c-16.887 8.754-22.63 12.279-22.989 14.112-0.53871 2.7506 0.19762 2.6199 6.0491-1.074zm-46.27 1.1876c0-0.89881-8.0257-11.746-10.811-14.613-1.1693-1.2031-4.137-2.2538-6.5948-2.3348-7.5429-0.2487-11.636-0.57515-20.332-1.6216-7.4492-0.8964-8.7687-0.71804-12.068 1.6313-4.5074 3.2096-9.8388 3.3814-13.971 0.45021-4.7401-3.3626-13.401-4.7953-23.723-3.9243-5.1562 0.43512-14.438 0.62815-20.625 0.42896-6.1875-0.1992-20.812-0.39901-32.5-0.44404-11.688-0.045-24.625-0.107-28.75-0.13764-9.5319-0.0709-47.751-1.0349-68.125-1.7183-23.29-0.7812-26.773-0.72803-27.936 0.42633-0.58358 0.57945 0.54142 1.3915 2.5 1.8046 5.0702 1.0693 41.464 3.2385 54.811 3.267 6.1875 0.0133 19.125 1.1515 28.75 2.5297 9.625 1.3781 24.735 3.0948 33.578 3.8148 8.8429 0.72003 17.562 1.9004 19.375 2.6231 1.8134 0.72271 17.078 1.7798 33.922 2.3492 16.844 0.56935 37.656 1.6625 46.25 2.4292 8.5938 0.76668 21.531 1.8402 28.75 2.3856 7.2188 0.54537 14.109 1.073 15.312 1.1725 1.2031 0.0995 2.1875-0.13409 2.1875-0.51908zm10-1.6496c0-0.60478-2.3906-4.2476-5.3125-8.095-2.9219-3.8475-6.7188-9.0137-8.4375-11.48-3.3567-4.8175-12.405-16.354-28.225-35.986-19.582-24.301-23.255-29.2-33.897-45.214-5.9397-8.9375-15.961-23-22.269-31.25-6.3082-8.25-16.555-22.151-22.77-30.891-13.947-19.612-19.129-25.817-33.616-40.25-6.2709-6.2477-13.947-15.016-17.059-19.484-3.1113-4.4688-11.221-14.312-18.021-21.875-10.635-11.827-18.752-21.884-38.337-47.5-9.2204-12.06-17.73-20.68-20.083-20.343-1.3212 0.1889-2.5892 0.9133-2.8179 1.6098-0.46667 1.421 18.555 27.265 25.749 34.984 2.563 2.75 7.6704 8.9375 11.35 13.75 3.6795 4.8125 8.9808 11.01 11.781 13.773 2.7999 2.7626 7.9032 8.3542 11.341 12.426 3.4375 4.0717 9.625 10.931 13.75 15.243 4.125 4.3118 10.411 11.376 13.969 15.699 3.5581 4.3227 8.7896 10.391 11.626 13.484 2.836 3.0938 6.9292 8.1562 9.096 11.25s6.9373 8.7188 10.601 12.5 8.751 9.9688 11.305 13.75 6.6146 9.2114 9.0235 12.067 5.7479 7.9181 7.42 11.25 3.6955 6.6205 4.4966 7.308c1.2813 1.0997 8.7769 12.012 16.213 23.603 1.375 2.1433 4.1035 5.5844 6.0633 7.6469s4.3908 5.347 5.4022 7.2989 4.4664 6.3328 7.6778 9.7354 6.6867 7.7964 7.7228 9.7641c3.016 5.7276 11.312 17.436 14.944 21.09 1.8378 1.8491 5.9755 7.2187 9.1948 11.932 5.2928 7.7498 18.006 22.743 25.74 30.356 2.9915 2.9448 6.38 3.9266 6.38 1.8486zm-391.52-8.9004c0.1929-2.4062 0.97077-5.6027 1.7286-7.1032 2.3145-4.5828 0.63411-6.5214-4.998-5.766-4.3347 0.58139-5.2236 0.25483-7.0995-2.6081-2.6733-4.0799-4.023-4.1231-5.8168-0.18608-1.1075 2.4307-0.94337 4.5587 0.77242 10.014 2.458 7.8147 5.8215 10.901 11.313 10.38 3.305-0.31337 3.7916-0.87478 4.1007-4.7306zm404.34 3.887c3.2398-0.20295 2.738-4.6979-0.625-5.5992-3.8621-1.035-14.688-0.9841-14.688 0.0691 0 0.47131 1.1596 2.0912 2.5768 3.5999 1.8043 1.9206 3.7718 2.6416 6.5625 2.4051 2.1921-0.18581 4.97-0.3995 6.1732-0.47486zm20.312-1.387c0.4249-0.6875 0.17685-1.25-0.55123-1.25-0.72807 0-1.3238 0.5625-1.3238 1.25s0.24805 1.25 0.55123 1.25c0.30317 0 0.89887-0.5625 1.3238-1.25zm12.563-6.32c2.3246-2.5687 2.3219-2.5698-5.02-2.1875-7.7606 0.40415-10.917 2.9363-4.805 3.8551 6.749 1.0146 7.5154 0.88447 9.825-1.6676zm-25.035-9.93c1.862-4.4688 5.352-12.032 7.7554-16.808 2.4034-4.7758 5.7092-13.213 7.346-18.75 1.6369-5.5367 8.3241-20.836 14.86-34 6.5364-13.163 11.884-24.272 11.884-24.688 0-0.41501-0.57335-0.75456-1.2741-0.75456-0.70076 0-5.9039-4.0087-11.562-8.9081-5.6586-4.8995-14.226-11.603-19.038-14.896-4.8125-3.2933-11-8.1619-13.75-10.819-5.8812-5.683-10.401-7.8768-16.227-7.8768-2.3292 0-5.756-0.57838-7.6153-1.2853-3.5682-1.3566-4.3017-0.94297-10.887 6.1403-1.5237 1.639-9.466 9.514-17.649 17.5-26.638 25.995-26.391 25.659-22.581 30.696 1.0094 1.3345 1.8352 3.4439 1.8352 4.6875 0 3.0168-4.3839 7.2611-7.5 7.2611-3.5855 0-3.0904-3.5542 0.625-4.4867 4.8784-1.2244 4.0461-5.2605-1.5625-7.5766-2.5781-1.0646-5.6523-2.7929-6.8315-3.8406-1.9506-1.733-2.2747-1.618-3.5931 1.2756-1.2245 2.6874-1.0374 3.7585 1.2065 6.9098 1.4606 2.0512 2.6556 4.2315 2.6556 4.8452 0 0.61372 2.25 3.3129 5 5.9982s5 5.3971 5 6.0262c0 0.62909 1.6875 3.0658 3.75 5.4148 2.0625 2.3491 3.75 4.9095 3.75 5.6899 0 0.78042 3.5156 5.1654 7.8125 9.7443 4.2969 4.579 9.9395 11.093 12.539 14.475 13.557 17.638 20.246 25.54 21.74 25.681 0.91225 0.086 3.2055 0.3233 5.0961 0.52749 1.8906 0.20417 7.375 0.76955 12.188 1.2564 8.5755 0.8675 13.241 2.6928 10.777 4.2159-0.66893 0.41343-6.3159 0.22408-12.549-0.42077-6.233-0.64487-11.664-0.84102-12.069-0.4359-0.40511 0.40511-0.1277 1.8742 0.61648 3.2647 1.0606 1.9818 2.2307 2.3942 5.4138 1.9084 2.2334-0.34087 7.1545-0.12162 10.936 0.48725 3.7812 0.60888 7.2447 0.78264 7.6966 0.38616 0.45187-0.39648 2.3451-4.3771 4.2071-8.8459zm-83.508 4.6875c0.661-0.85938 1.1057-3.25 0.98817-5.3125-0.19189-3.3679-0.68085-3.7895-4.7988-4.138-4.5615-0.38595-4.5851-0.36291-4.5851 4.4792 0 2.6769 0.375 5.2421 0.83334 5.7004 1.3995 1.3995 6.2876 0.9282 7.5624-0.72916zm132.68-13.125c2.9921-8.0781 7.8352-20.875 10.763-28.438 5.3377-13.79 9.3279-29.875 7.792-31.411-1.8515-1.8515-4.2528 2.4428-5.8314 10.428-0.92222 4.6652-2.3758 9.6071-3.2302 10.982-0.85439 1.375-3.3537 8.125-5.554 15s-4.4495 13.062-4.9982 13.75c-1.2441 1.5588-6.2672 19.406-6.2672 22.267 0 4.9995 2.2397 1.154 7.3266-12.58zm-12.874 12.481c0.73043-0.5051 2.323-4.2934 3.539-8.4184s3.2553-10.312 4.5318-13.75c1.2764-3.4375 3.7152-10.188 5.4196-15 1.7044-4.8125 3.9672-10.788 5.0286-13.28 3.37-7.9105 6.7158-22.162 6.0462-25.754-0.56158-3.0125-6.1437-9.9062-7.1648-8.8482-1.4309 1.4828-15.603 34.046-15.603 35.851 0 0.7734-0.44059 1.4062-0.97909 1.4062-0.83504 0-5.0162 8.2935-17.96 35.625-1.3024 2.75-2.4957 6.4062-2.6519 8.125-0.26074 2.8697 0.2267 3.1856 5.9661 3.8661 9.608 1.1393 12.385 1.1749 13.828 0.17724zm-342.39-1.7109c-1.6541-0.96145-2.6988-0.95067-3.6875 0.038-1.006 1.006-0.38119 1.3692 2.308 1.3415 3.2326-0.0334 3.4028-0.20349 1.3795-1.3795zm257.24-1.0839c-2.1488-2.1488-4.4167-2.5453-16.089-2.8125-9.9777-0.22843-13.732 0.104-14.131 1.2514-0.37033 1.0655 0.98108 1.5854 4.2486 1.6345 2.6354 0.0396 7.0417 0.53744 9.7917 1.1062 2.75 0.56881 8.0781 1.0989 11.84 1.178l6.8403 0.14375-2.5014-2.5014zm-256.18-1.3539c34.375-0.15703 95.68-0.057 136.23 0.22242 66.095 0.45532 73.771 0.30577 74.109-1.4439 0.3227-1.6741-1.9873-2.0096-16.233-2.3574-9.1348-0.22309-22.515-0.70353-29.734-1.0676-14.08-0.71016-24.238-0.87217-31.25-0.4984-9.1058 0.4854-36.93-0.41069-38.185-1.2297-0.72032-0.47026-2.0254-0.41266-2.9002 0.128-0.87481 0.54067-4.7305 0.25312-8.5683-0.639-4.6158-1.073-8.9231-1.273-12.725-0.59091-3.1609 0.56711-12.778 0.75218-21.372 0.41126-22.234-0.88203-24.609-0.86848-34.375 0.19608-4.8125 0.52459-10.438 0.89804-12.5 0.82987-16.473-0.54436-55.412-0.24048-62.5 0.48774-8.2211 0.84464-12.253 0.99384-15.938 0.58985-0.85938-0.0942-4.5924 0.44484-8.2956 1.1979-3.7032 0.75308-8.6251 1.3692-10.938 1.3692-4.032 0-5.2189 1.0688-3.3084 2.9793 0.4928 0.4928 8.7897 0.62708 18.438 0.29842 9.6478-0.32868 45.667-0.72607 80.042-0.88309zm-110.7-3.51c0.69613-1.3007 2.6693-11.566 4.3849-22.812s4.2272-26.658 5.5813-34.248c1.3542-7.5901 3.0824-23.34 3.8405-35s1.915-24.856 2.5708-29.325c0.65586-4.4688 2.6105-22.188 4.3437-39.375 3.7123-36.815 8.723-77.268 11.281-91.076 2.221-11.989 2.2217-12.049 0.14585-12.049-3.1139 0-4.5964 6.3557-6.5082 27.901-1.048 11.811-2.2266 22.318-2.6191 23.349-0.39253 1.0312-1.4625 9.75-2.3776 19.375-0.91515 9.625-3.1202 29.594-4.9002 44.375-3.3567 27.875-5.0953 43.233-6.2266 55-0.99478 10.348-4.2692 32.082-6.2147 41.25-2.8568 13.463-4.3016 21.383-5.7529 31.537-2.4177 16.915-2.5997 21.362-0.91803 22.43 2.0692 1.3138 1.9222 1.3719 3.3693-1.332zm360.55-2.9475c-3.183-5.4269-10.561-15.657-12.633-17.516-1.3506-1.212-4.9302-5.8526-7.9546-10.312-3.0244-4.4599-5.8718-8.109-6.3276-8.109-0.45578 0-0.60418 2.3306-0.3298 5.1792 0.40605 4.2156 1.6517 23.99 1.7407 27.633 0.0126 0.51562 1.3167 0.9375 2.8979 0.9375s3.4094 0.52875 4.0625 1.175c0.65312 0.64626 4 1.3886 7.4375 1.6497 3.4375 0.26107 7.5488 0.57607 9.1363 0.69999 2 0.15612 2.6048-0.25448 1.9698-1.3372zm-309.86-2.1c37.053-1.8166 112.28-1.9121 178.75-0.2268 74.309 1.8839 87.897 1.7987 90.261-0.56584 0.98576-0.98575 2.4005-1.7923 3.1438-1.7923 0.94179 0 1.0858-4.453 0.47493-14.688-1.9246-32.247-2.2825-34.405-6.6992-40.413-2.2336-3.0383-7.5756-10.309-11.871-16.157-4.2954-5.8481-8.8967-12.577-10.225-14.953-6.3298-11.323-13.886-20.46-20.529-24.822-3.8454-2.5254-8.7782-6.2791-10.962-8.3416-4.8439-4.575-15.224-12.576-22.187-17.102-7.8512-5.1033-18.647-11.518-21.095-12.534-1.2031-0.49942-2.1875-1.4887-2.1875-2.1983 0-0.70965-0.4984-1.2903-1.1076-1.2903-1.5718 0-24.438-15.757-33.192-22.872-2.7084-2.2015-5.0537-3.7214-5.2118-3.3777-0.15809 0.34375-1.5984-0.542-3.2006-1.9683-3.2076-2.8554-14.877-10.524-19.788-13.004-1.7188-0.86785-4.8125-3.1445-6.875-5.0593-3.5704-3.3147-7.5096-5.6233-18.75-10.988-2.75-1.3126-7.5217-4.4977-10.604-7.078-3.0821-2.5803-8.4259-6.0244-11.875-7.6537s-9.6461-4.9415-13.771-7.3606c-4.125-2.419-11.438-6.4359-16.25-8.9264-4.8125-2.4904-12.67-7.0566-17.462-10.147-9.3434-6.0263-18.121-9.7132-19.406-8.1512-1.8681 2.2708-5.1631 15.969-6.2955 26.171-1.3338 12.017-1.661 14.583-4.3561 34.165-0.99353 7.2188-2.6911 21.844-3.7723 32.5-1.0813 10.656-2.2344 21.625-2.5625 24.375-0.98192 8.2302-4.5036 38.467-4.95 42.5-0.2283 2.0625-0.77188 9.375-1.2079 16.25-0.77325 12.191-1.5749 18.402-4.3562 33.75-7.421 40.952-8.2086 47.603-6.1032 51.537 1.6108 3.0099 2.0201 3.1035 10.449 2.3907 4.8249-0.40805 20.022-1.2935 33.772-1.9676zm281.14-1.155c0.36376-0.58855 0.10825-7.4792-0.56776-15.312-0.67601-7.8333-1.4325-16.683-1.6812-19.666-0.3944-4.7324-3.57-10.445-4.9342-8.8767-0.26336 0.30284-0.13614 3.6444 0.28274 7.4256 0.41886 3.7812 0.76157 13.764 0.76157 22.184 0 14.919 0.0696 15.309 2.7387 15.312 1.5063 0.003 3.0364-0.4781 3.4001-1.0667zm-337.66-7.52c0.35303-2.7069-0.0177-5.0345-0.9208-5.7812-0.83146-0.6875-1.8699-3.059-2.3077-5.27-0.43776-2.211-1.1183-33.43-1.5124-69.375-0.64802-59.115-2.677-101.63-5.1766-108.48-0.37656-1.0312-1.4641-16.781-2.4168-35-2.4028-45.949-4.7046-66.25-7.512-66.25-2.231 0-2.1344 2.6086 1.3412 36.25 0.2486 2.4062 1.051 14.781 1.7832 27.5 0.73216 12.719 1.9124 30.719 2.6227 40 0.71033 9.2812 1.5425 24.75 1.8492 34.375 0.30672 9.625 0.96477 22.281 1.4623 28.125 1.0229 12.014 1.0171 11.527 0.60675 50.625-0.37905 36.116 0.63508 70.55 2.199 74.663 0.83486 2.1958 2.1347 3.1491 4.2941 3.1491 2.6176 0 3.1883-0.70126 3.6878-4.5312zm2.5166-19.207c0.35574-2.2408 1.276-6.3241 2.0451-9.0741 2.2345-7.99 6.2295-34.672 8.2351-55 1.0174-10.312 2.6485-26.062 3.6246-35 0.97608-8.9375 2.9536-27.219 4.3946-40.625 1.4409-13.406 3.4865-31.485 4.5457-40.174 2.0194-16.566 2.2564-18.887 3.6859-36.076 0.48598-5.8438 1.3745-11.558 1.9745-12.699 0.69339-1.3186 0.41372-3.695-0.76761-6.5223-1.0222-2.4464-1.8585-6.7299-1.8585-9.519 0-4.2043-0.51338-5.2663-3.0036-6.213-1.652-0.62807-3.3744-1.7419-3.8275-2.4751-1.0038-1.6243-13.87-10.69-21.774-15.342-6.453-3.7983-10.371-4.3239-12.957-1.7381-1.9083 1.9083-1.2899 11.503 2.0632 32.009 0.95553 5.8438 1.7775 15.688 1.8266 21.875 0.10515 13.252 2.2128 42.83 3.8746 54.375 2.1608 15.012 2.8777 31.62 3.426 79.375 0.56723 49.401 1.0566 78.753 1.4132 84.761 0.27017 4.5515 2.2462 3.3082 3.079-1.9372zm498.46-35.63c2.377-1.9901 6.1658-7.9162 6.1658-9.6438 0-1.4002-8.1886-5.6595-10.889-5.664-2.155-0.004-3.0525 1.0654-4.0715 4.8497-0.71893 2.6699-2.1469 5.5513-3.1732 6.4031-2.5516 2.1176-2.3489 3.1276 0.94647 4.7169 4.1955 2.0234 8.094 1.7893 11.022-0.66189zm-13.074-8.75c2.1709-2.8598 2.2059-4.7552 0.0548-2.97-1.2858 1.0671-2.2206 0.80708-3.9437-1.0969-2.381-2.631-5.018-3.2326-6.1488-1.4028-0.83238 1.3468 4.8481 7.6573 6.8928 7.6573 0.81641 0 2.2316-0.98438 3.1449-2.1875zm0.0587-7.5984c-1.1378-1.2573-2.0687-2.9448-2.0687-3.75 0-1.9035 2.832-1.8821 4.75 0.0359 2.3185 2.3185 3.4619 0.33766 8.442-14.625 2.5171-7.5625 6.4093-18.531 8.6493-24.375 2.24-5.8438 4.4246-12.498 4.8546-14.788 1.2219-6.5065-1.8049-4.2669-4.9042 3.6288-1.4646 3.7312-3.7326 8.5429-5.0398 10.693-11.603 19.08-15.502 25.912-15.502 27.165 0 0.80493-1.125 3.5625-2.5 6.128s-2.5 5.229-2.5 5.919c0 0.68998 1.125 2.3795 2.5 3.7545 3.1691 3.1691 6.168 3.3625 3.3187 0.21408zm-98.71-56.02c1.743-2.6601 1.7342-3.2363-0.0914-6.0226-2.8864-4.4053-2.5525-5.8681 2.2067-9.6654l4.2253-3.3714-3.0579-16.629c-1.6818-9.1457-4.0677-22.254-5.3018-29.129-1.2342-6.875-4.2338-18.406-6.6659-25.625-6.6613-19.772-14.02-40.104-16.289-45.006-5.5365-11.962-15.001-39.245-15.155-43.688-0.09-2.5991-1.2558-3.4689-7.6063-5.6749-7.3012-2.5362-15.642-6.2798-38.75-17.392-6.1875-2.9754-17.719-8.5191-25.625-12.319-7.9062-3.8002-15.66-7.2933-17.231-7.7623-1.5706-0.46905-8.5425-3.34-15.493-6.3799-6.9508-3.0399-13.541-5.5225-14.644-5.5169-1.1037 0.005-6.6203-2.0401-12.259-4.546l-10.252-4.5561-4.7476 2.2474c-6.1493 2.9109-6.5659 3.4936-15.218 21.284-4.0295 8.2857-9.6502 18.89-12.49 23.565-2.8403 4.6752-5.1641 8.9947-5.1641 9.5989 0 0.60421-1.8047 4.7584-4.0105 9.2315-3.9303 7.9702-3.9616 8.1687-1.5625 9.9229 3.2916 2.4069 3.3217 13.247 0.0553 19.888l-2.3471 4.7718 5.6254 5.8532c5.1051 5.3118 13.643 16.041 26.256 32.996 5.7694 7.7555 14.461 17.991 23.628 27.826 3.8608 4.142 10.003 11.744 13.649 16.894 3.646 5.1496 7.2372 9.9915 7.9804 10.76 14.714 15.21 32.185 34.55 35.289 39.064 2.1987 3.1974 5.5006 7.501 7.3376 9.5635s4.3691 5.7553 5.627 8.2062c2.36 4.5983 6.257 9.0119 13.765 15.589 2.3828 2.0876 6.02 5.9654 8.0824 8.6173 2.0625 2.6519 6.6603 7.8772 10.217 11.612 5.8203 6.1109 6.7398 6.6443 9.1915 5.3322 4.0049-2.1434 39.834-37.464 48.24-47.554 6.5181-7.825 10.477-10.67 10.477-7.5298 0 2.4276-1.5825 5.1022-3.0188 5.1022-1.3624 0-10.219 9.356-18.22 19.248-1.725 2.1326-8.7622 9.2212-15.638 15.752-14.681 13.945-17.316 17.042-16.441 19.324 0.63983 1.6674 51.296-47.576 55.428-53.883zm116.64 53.3c0-1.3796 1.9675-7.4839 4.3723-13.565 2.4048-6.0812 4.9036-13.858 5.5529-17.282 2.383-12.566 5.0149-21.564 19.616-67.072 1.7299-5.3913 2.8903-10.057 2.5787-10.369-0.70559-0.70559-6.1171 8.6718-8.3945 14.546-0.93281 2.4062-4.1282 8.9529-7.1008 14.548-4.1894 7.8853-5.0076 10.325-3.6386 10.851 1.517 0.58212 1.5204 1.4394 0.024 6.077-4.1006 12.708-10.392 30.903-12.889 37.274-1.4818 3.7812-3.1907 8.8438-3.7976 11.25-0.60688 2.4062-1.856 6.2486-2.7759 8.5385-1.5163 3.7748-1.446 4.3291 0.75361 5.9375 3.4162 2.498 5.6983 2.2039 5.6983-0.73435zm-40-8.6373c0-2.4106-14.6-16.007-26.875-25.029-4.125-3.0315-10.735-7.945-14.689-10.919-3.9541-2.9738-7.4697-5.407-7.8125-5.407-0.34283 0-0.62333 1.08-0.62333 2.4 0 2.513 10.607 12.669 19.327 18.505 6.6557 4.4545 26.021 20.41 27.313 22.504 1.3041 2.1138 3.3607 0.85672 3.3607-2.0541zm13.068-23.854c4.219-8.5938 12.396-24.062 18.171-34.375 13.162-23.504 22.621-41.911 25.694-50 1.306-3.4375 4.5429-10.188 7.193-15 6.2533-11.356 11.136-22.94 10.264-24.351-0.37891-0.61309-1.6622-1.0727-2.8518-1.0214-1.1896 0.0512-6.9441-1.0634-12.788-2.4772-5.8438-1.4137-12.38-2.869-14.524-3.2339-2.1445-0.36491-6.6445-2.2549-10-4.2001-3.3555-1.9451-9.2794-4.5163-13.164-5.7136-3.8848-1.1974-7.3828-3.0097-7.7733-4.0273-0.39052-1.0176-1.5289-1.8503-2.5298-1.8503-2.529 0-19.709-6.9745-29.654-12.039-4.5489-2.3163-9.0046-4.2114-9.9016-4.2114-0.89697 0-2.5189-0.75111-3.6043-1.6691-1.0854-0.91801-3.9422-2.4086-6.3484-3.3125-2.4062-0.90386-6.0625-2.3342-8.125-3.1786-2.0625-0.84439-6.5625-2.5194-10-3.7224-3.4375-1.2029-9.131-3.8027-12.652-5.7773-3.5212-1.9746-7.2749-3.5901-8.3416-3.5901s-3.5295-1.3293-5.4728-2.954c-1.9434-1.6247-4.9397-3.3708-6.6584-3.8804-1.7188-0.50955-6.5914-2.8365-10.828-5.171-9.6466-5.3155-11.992-5.4881-10.968-0.8071 1.7219 7.8729 8.6658 27.908 13.105 37.812 2.6193 5.8438 5.1602 12.312 5.6464 14.375 0.48621 2.0625 1.6077 5.1562 2.4922 6.875 0.88454 1.7188 2.5449 6.2188 3.6897 10s2.8318 8.5625 3.7489 10.625c3.0621 6.8866 8.1216 28.774 10.048 43.467 0.24995 1.9067 0.74398 3.9352 1.0979 4.5078 0.35387 0.57257 0.95116 3.5125 1.3273 6.5332 0.37615 3.0207 1.0166 6.55 1.4234 7.843 1.0735 3.4128 1.8913 10.525 1.9959 17.359 0.0801 5.2308 0.46229 6.0532 3.1235 6.7212 6.3435 1.5921 11.678-3.9764 7.659-7.9952-0.79139-0.79139-1.8498-3.857-2.3519-6.8125-2.9233-17.205-8.9165-38.437-20.747-73.499-3.1317-9.2812-7.7825-24.469-10.335-33.75-2.5526-9.2812-6.7192-21.615-9.259-27.408-4.7642-10.866-5.496-13.842-3.4036-13.842 1.9556 0 11.475 20.827 12.156 26.596 0.34286 2.9032 1.6935 8.2528 3.0015 11.888s2.3906 7.8539 2.4059 9.375c0.0152 1.5211 1.1278 4.1719 2.4722 5.8906 1.3444 1.7188 2.4569 3.8459 2.4722 4.7269 0.0316 1.8217 3.6372 12.598 7.6192 22.773 1.4799 3.7812 2.9468 8.5625 3.2598 10.625 0.31301 2.0625 1.037 4.875 1.6089 6.25 0.57189 1.375 1.8796 5.5938 2.9061 9.375s3.0137 11.094 4.416 16.25c2.0383 7.4946 6.4677 28.563 6.4677 30.763 0 0.2678 1.3191 0.48691 2.9313 0.48691 3.5818 0 6.2247 2.8555 8.4343 9.1128 1.3863 3.9258 1.3906 5.1899 0.0254 7.3762-1.479 2.3682-1.2422 3.0173 2.3116 6.3387 2.1776 2.0352 6.771 5.5924 10.208 7.905 3.4365 2.3126 7.7594 5.5624 9.6066 7.2218 17.196 15.449 22.177 19.167 23.87 17.821 0.96862-0.77028 5.2131-8.4318 9.4321-17.026zm-204.98-10.91c-8.5674-11.518-14.643-17.847-17.132-17.847-2.4176 0-16.063-9.2237-16.996-11.489-0.22918-0.55608-1.0107-1.0111-1.7368-1.0111-0.72607 0-5.0386-3.0017-9.5833-6.6704-4.5448-3.6688-13.888-10.41-20.763-14.98-6.875-4.5704-13.906-9.2686-15.625-10.44-6.6372-4.5251-20.78-13.612-23.976-15.404-1.8429-1.0337-11.687-7.4971-21.875-14.363-10.188-6.866-19.818-13.175-21.399-14.021-1.581-0.84527-4.3287-2.6808-6.1061-4.0788-1.7774-1.3981-3.8058-2.542-4.5075-2.542-0.70176 0-3.0165-1.2847-5.1439-2.8548-2.1274-1.5702-5.2742-3.5348-6.993-4.3659-3.6969-1.7876-6.6976-3.638-12.104-7.4636-2.1885-1.5486-4.3174-2.8156-4.7309-2.8156-0.41347 0-5.2127-2.5312-10.665-5.625s-10.945-5.625-12.207-5.625c-1.2614 0-2.9551-0.66171-3.7638-1.4705-1.1273-1.1273-2.0608-0.93622-4 0.81873-3.7351 3.3802-3.0833 4.688 4.1 8.2257 25.655 12.635 53.397 28.038 65.599 36.424 2.9447 2.0236 8.4781 5.3226 12.296 7.3311 3.8183 2.0086 9.284 5.3163 12.146 7.3505s9.1411 6.0519 13.954 8.9282c4.8125 2.8763 16.222 10.638 25.354 17.248 22.678 16.415 37.249 26.296 52.771 35.785 7.2188 4.4132 18.163 12.239 24.321 17.391 6.1576 5.1521 11.439 9.124 11.737 8.8264 0.29762-0.29761-1.0393-2.6658-2.9709-5.2626zm141-9.1875c4.7782-3.9386 5.6648-6.9455 3.3327-11.303-1.2802-2.392-1.4805-2.3449-5.6685 1.3322-5.5938 4.9114-11.758 5.172-16.243 0.68682-1.7188-1.7188-3.4-3.125-3.7362-3.125-0.63123 0 0.7473 12.758 1.4691 13.596 0.22304 0.25888 2.8187 0.7421 5.7682 1.0738 2.9494 0.33172 5.597 0.82304 5.8835 1.0918 1.4721 1.3812 5.0221 0.0867 9.1944-3.3523zm-161.59-15.544c0-1.5819-35.311-41.565-53.979-61.121-11.381-11.922-22.48-25.348-43.761-52.932-14.39-18.653-14.182-18.546-28.51-14.676-9.6342 2.6024-33.387 5.6132-44.283 5.6132-9.8193 0-16.967 1.0243-16.967 2.4314 0 0.47792 11.88 7.498 26.4 15.6 14.52 8.1021 28.723 16.306 31.562 18.231 2.8395 1.9248 19.507 12.895 37.038 24.379 29.379 19.244 36.799 24.184 52.5 34.948 3.0938 2.1209 12.885 9.3248 21.758 16.008 14.751 11.111 18.242 13.315 18.242 11.518zm310.94-85.153c1.5665-0.41982 2.8125-1.7288 2.8125-2.9549 0-1.2106 0.84375-2.9014 1.875-3.7573 2.1332-1.7704 2.4924-5.7209 0.625-6.875-0.6875-0.4249-1.25-2.226-1.25-4.0023 0-2.1964-1.9426-5.1724-6.0714-9.3012-7.1707-7.1707-10.813-8.0558-9.5536-2.3214 0.46916 2.1361 0.30678 3.75-0.37733 3.75-1.8162 0-7.8077 8.3509-9.0172 12.568-1.02 3.5564-0.73191 3.9361 6.6 8.7003 7.8006 5.0688 9.3754 5.5288 14.357 4.1938zm-24.688-8.4849c0-0.28753 0.32819-1.378 0.72931-2.4233 0.57019-1.4859-1.9289-2.7315-11.454-5.7089-6.7009-2.0946-14.201-4.1551-16.667-4.5789-6.1193-1.0518-22.963-6.417-31.515-10.039-3.8672-1.6377-7.61-2.9776-8.3174-2.9776-0.70737 0-4.6854-1.9214-8.8402-4.2698-4.1547-2.3484-8.8494-4.6711-10.433-5.1615-1.5832-0.4904-5.4053-2.2252-8.4936-3.8552s-6.3764-2.9635-7.307-2.9635-3.1851-1.0202-5.01-2.2671-5.8492-3.0689-8.943-4.0489c-5.6836-1.8004-12.605-5.0087-15.37-7.1248-0.82792-0.6336-4.961-2.4148-9.1847-3.9582s-10.391-4.1789-13.705-5.8565c-3.3138-1.6776-8.1549-3.3909-10.758-3.8071-2.6032-0.41626-4.733-1.1348-4.733-1.5968 0-1.0688-16.694-8.9522-28.125-13.282-4.8125-1.8227-14.456-6.0691-21.431-9.4364-6.9744-3.3674-13.471-6.1225-14.438-6.1225-0.96619 0-2.2911-0.49927-2.9442-1.1095-1.8833-1.7596-6.8125-2.9297-6.8125-1.6172 0 0.6555 2.1094 2.1744 4.6875 3.3754s11.225 5.4166 19.216 9.368c7.9907 3.9514 16.709 7.886 19.375 8.7435 5.8784 1.891 13.696 5.3922 34.221 15.326 25.383 12.285 35.641 16.833 40.137 17.795 2.3308 0.49894 4.8002 1.3359 5.4878 1.86 0.6875 0.52403 6.0312 3.0298 11.875 5.5683s13.438 5.9748 16.875 7.6361c3.4375 1.6613 11.594 5.0658 18.125 7.5656 6.5312 2.4997 12.719 5.2676 13.75 6.1508 4.4517 3.8127 25.501 12.284 38.75 15.595 13.226 3.3054 21.25 4.5211 21.25 3.2196zm-1.9394-10.623c0.3895-0.63022-4.7754-6.1146-11.478-12.188-6.7021-6.0729-17.534-16.624-24.072-23.446-30.298-31.62-66.329-66.585-84.468-81.97-34.886-29.589-58.408-52.638-72.711-71.25-5.5474-7.2188-13.486-16.666-17.641-20.994l-7.5549-7.8686-4.3804 2.8686c-3.941 2.581-4.2174 3.1194-2.7553 5.3687 0.89376 1.375 2.3369 5.5938 3.207 9.375 0.87012 3.7812 2.3181 8.8438 3.2176 11.25 0.8996 2.4062 3.0408 8.875 4.7582 14.375 3.0645 9.8142 8.0635 21.357 18.948 43.75 3.0074 6.1875 7.1875 16.594 9.289 23.125 2.1015 6.5312 5.2699 16.375 7.0409 21.875s3.7684 11.02 4.4389 12.266c0.67043 1.2461 0.89571 3.2842 0.50062 4.529-0.81654 2.5727 2.8564 4.6565 16.655 9.449 12.673 4.4016 46.656 19.4 93.164 41.117 6.789 3.1702 13.145 5.7641 14.125 5.7641 0.97947 0 3.4074 0.84109 5.3953 1.8691s9.4131 3.32 16.5 5.0934c7.0873 1.7734 15.136 3.9992 17.886 4.9463 5.9414 2.0461 8.9698 2.2581 9.9356 0.69538zm8.717-5.0026c1.9225-2.0066 3.1138-4.2658 2.6475-5.0204-0.46635-0.75459-1.3045-1.0898-1.8626-0.74484-1.505 0.93017-9.407-5.6167-20.751-17.192-5.5349-5.648-12.015-11.956-14.4-14.019-2.3854-2.0625-10.232-10.089-17.437-17.837-11.95-12.86-39.27-38.56-47.48-44.68-10.82-8.06-54.22-50.657-105.08-103.13-9.325-9.6216-17.622-17.494-18.438-17.494-2.4656 0-1.6854 2.5485 2.2455 7.335 4.1156 5.0113 4.903 5.9109 15.455 17.656 4.0195 4.474 8.5808 10.107 10.136 12.518 3.7476 5.8087 23.704 27.4 30.208 32.682 2.8338 2.3015 6.4219 6.0127 7.9736 8.2471 1.5518 2.2344 3.3777 4.0625 4.0577 4.0625 1.379 0 6.6523 4.4074 17.782 14.862 4.1062 3.8571 9.1687 8.299 11.25 9.8708 8.4265 6.3639 36.894 33.601 54.299 51.952 3.0334 3.1982 5.9108 5.8149 6.3944 5.8149 0.48353 0 4.4506 4.3594 8.8157 9.6875s11.868 13.344 16.674 17.812c10.386 9.658 27.65 26.026 30.545 28.958 2.7971 2.8341 2.9775 2.7989 6.9588-1.3568zm-502.92-4.94c3.564-1.9689 6.9931-4.4969 7.6203-5.6177 1.5972-2.854-0.0207-10.23-2.7947-12.74-2.1973-1.9885-2.604-1.8591-7.6012 2.4183-2.9038 2.4856-6.2927 4.5192-7.5309 4.5192-1.3226 0-2.5563 1.2158-2.991 2.9475-0.93996 3.7451 2.4657 12.053 4.941 12.053 1.0321 0 4.7924-1.6109 8.3564-3.5798zm39.895-11.713c5.1439 0.29505 57.666-8.2586 59.115-9.6275 0.54477-0.51442 0.11538-1.6616-0.95417-2.5492-1.5998-1.3277-4.9899-1.1339-19.115 1.0927-9.444 1.4886-28.421 3.6065-42.171 4.7064s-25.37 2.5779-25.822 3.2844c-0.45201 0.70659-0.51456 2.0855-0.13899 3.0642 0.5629 1.4669 2.7933 1.6037 12.697 0.77881 6.6077-0.55039 13.983-0.88776 16.389-0.74974zm-52.5-7.6536c0-2.373-2.0081-4.1145-10.312-8.9436-5.6719-3.2983-13.352-8.2431-17.067-10.988-5.0621-3.741-7.2355-4.6879-8.6756-3.7796-3.6994 2.3335-2.7483 3.9146 5.0597 8.4111 4.3285 2.4928 12.298 7.6182 17.711 11.39 10.893 7.591 13.284 8.295 13.284 3.9107zm4.5434-18.33c-2.9817-9.9539-6.1371-21.192-7.0121-24.973-3.336-14.417-10.499-40.799-12.157-44.774-0.95167-2.282-2.4096-3.9087-3.2399-3.615-2.4443 0.86464-1.2567 10.941 2.7859 23.637 4.4496 13.974 11.212 39.461 12.538 47.252 2.9257 17.196 7.1968 25.881 10.905 22.173 1.3022-1.3023 0.58819-4.9851-3.8196-19.7zm39.832 16.818c15.709-0.93786 60.68-7.1549 63.252-8.7444 0.49869-0.30821 2.167-3.1638 3.7074-6.3458s3.7263-6.0275 4.8576-6.3233c2.1796-0.56999 2.7814-1.3759 7.8888-10.565 1.7769-3.1972 4.6341-8.036 6.3492-10.753 3.8803-6.1468 13.449-23.351 22.059-39.664 5.2937-10.029 6.2836-12.822 5.1737-14.599-0.75482-1.2087-1.0612-3.0085-0.68095-3.9995 0.42656-1.1116-1.0904-3.1657-3.9599-5.3619-2.5582-1.958-7.9361-6.5131-11.951-10.123-7.4418-6.6904-9.0798-7.5234-10.446-5.3125-0.4249 0.6875-1.6794 1.25-2.7878 1.25s-2.9033 0.79484-3.9887 1.7663-5.3022 2.9308-9.3706 4.3541-8.5684 3.6348-10 4.9145c-2.6166 2.339-14.369 9.49-21.353 12.992-7.1601 3.5906-16.287 9.0396-23.02 13.743-3.7234 2.6013-7.4142 4.7296-8.2018 4.7296-0.78764 0-2.5754 1.0652-3.9729 2.3671-1.3974 1.3019-4.4566 3.3434-6.7982 4.5367s-6.7887 3.9978-9.8824 6.2323c-3.0938 2.2345-9.5625 6.1033-14.375 8.5974-9.5505 4.9496-16.767 8.9915-17.675 9.9-0.31873 0.31873 0.84922 5.0034 2.5955 10.41 1.7462 5.407 4.2448 13.918 5.5524 18.914 2.0341 7.7712 3.1646 9.7843 7.8274 13.937 4.9224 4.3842 5.9946 4.8076 11.075 4.3729 3.0938-0.26468 11.25-0.81705 18.125-1.2275zm87.121-2.1454c0.53139-0.83626 0.97478-3.6101 0.9853-6.164 0.0225-5.4553-1.5049-6.5587-10.819-7.8162-5.8012-0.78319-6.6098-0.59842-7.8957 1.8044-1.4619 2.7315-0.7751 8.6452 1.5097 13 1.0668 2.0332 2.1612 2.2351 8.2418 1.5205 3.8564-0.45324 7.4464-1.5083 7.9778-2.3446zm-134.55-9.97c-2.4975-11.713-6.0337-25.708-6.8148-26.972-1.2068-1.9526-18.518 6.8781-21.097 10.762-1.6547 2.4921-1.4001 2.9239 3.9969 6.7798 8.3469 5.9634 19.742 12.211 22.303 12.228 1.6401 0.0113 2.0564-0.71159 1.6116-2.7976zm-38.274-8.3309c1.4861-2.087 2.5759-5.5757 2.5759-8.2458 0-3.9272-0.33137-4.488-2.1875-3.7026-3.5285 1.4931-6.7911 0.89299-10.648-1.9584-1.9862-1.4684-3.7721-2.4798-3.9686-2.2473-3.1065 3.6728-4.4229 15.571-1.9917 18.002 0.6624 0.6624 4.0032 1.3316 7.4241 1.4871 5.5862 0.25391 6.4821-0.0857 8.7956-3.3348zm174.1-11.35c3.2431-6.5312 5.915-12.56 5.9375-13.398 0.072-2.6839-3.2299-0.37375-5.3824 3.7657-1.1462 2.2042-4.0444 7.3826-6.4404 11.508-4.8712 8.3862-5.4236 11-2.1988 10.404 1.3433-0.24819 4.463-4.9868 8.0841-12.279zm-153.02-6.99c8.3399-4.4409 9.056-5.1279 8.3359-7.9971-0.43329-1.7264-1.0406-3.3917-1.3496-3.7007-1.7377-1.7377-21.735 12.996-21.735 16.014 0 3.2974 1.4013 4.1549 3.6486 2.2327 1.087-0.92981 6.0821-3.8768 11.1-6.5488zm-22.844-2.7036c1.2344-3.2656 4.3535-10.156 6.9314-15.312 5.0703-10.141 13.664-31.256 13.664-33.572 0-0.7854-0.79566-1.428-1.7681-1.428-2.5359 0-7.4006 9.3158-15.34 29.375-3.8094 9.625-7.729 19.063-8.7103 20.974-0.9813 1.9108-1.4468 4.0202-1.0343 4.6875 1.6864 2.7286 4.1402 0.87597 6.257-4.7242zm15.796-4.0625c5.4743-4.125 10.762-7.5 11.751-7.5 0.98894 0 1.7938-0.14063 1.7885-0.3125-0.0745-2.4346-7.4713-25.305-8.2691-25.567-1.5239-0.50151-18.264 37.063-17.456 39.17 0.36091 0.94052 1.0108 1.71 1.4441 1.71 0.43335 0 5.2669-3.375 10.741-7.5zm354.26 0.9375c-1.5473-11.846-15.468-48.389-27.261-71.565-5.5428-10.892-9.4562-21.538-14.704-39.999-6.638-23.351-9.8-29.605-12.03-23.795-0.96371 2.5114 5.0028 20.989 10.939 33.879 1.2874 2.7952 2.3407 5.5025 2.3407 6.0162 0 0.51372 1.3639 3.8518 3.0308 7.4178 6.3252 13.532 9.4694 21.23 9.4739 23.197 0.002 1.12 1.1211 3.8675 2.4856 6.1055s3.6811 7.863 5.1479 12.5c1.4669 4.637 3.3805 10.118 4.2524 12.181 0.87198 2.0625 2.5348 7.4062 3.6952 11.875s3.5116 11.695 5.2249 16.058c1.7133 4.3631 2.7766 8.2714 2.3629 8.685-0.61609 0.61609 3.751 3.8062 5.4248 3.9627 0.26045 0.0244 0.0877-2.9088-0.38367-6.5182zm-10.715-0.36945c0-4.8175-9.7221-35.064-16.986-52.847-4.4027-10.778-8.0069-19.971-8.0093-20.43-0.002-0.45864-1.2099-3.5524-2.6833-6.875-6.6454-14.986-16.059-38.722-16.065-40.506-0.0125-4.0046-4.0487-13.66-5.7102-13.66-1.6879 0-9.3838 3.4626-15.546 6.9946-7.7133 4.4211-28.755 14.149-35 16.182-3.7812 1.2306-11.094 4.1686-16.25 6.5289-11.33 5.1863-37.347 16.041-44.688 18.645-2.9219 1.0364-5.3125 2.5992-5.3125 3.4728 0 0.87361 2.8866 3.8376 6.4147 6.5867 5.8412 4.5514 6.7396 4.8757 10.048 3.627 4.9021-1.8503 9.9439 0.98712 11.787 6.6337 0.75618 2.3163 2.7249 5.1746 4.375 6.3517 2.8718 2.0486 34.453 16.761 55.5 25.855 21.981 9.4974 20.636 8.8917 50.625 22.808 12.031 5.5829 22.719 10.661 23.75 11.284 2.7728 1.6766 3.75 1.5069 3.75-0.65121zm-168.48-15.57c1.544-3.0938 3.2645-6.7158 3.8232-8.0489 0.99-2.3622 0.95101-2.3652-1.5313-0.11875-1.401 1.2678-2.5472 2.8343-2.5472 3.481 0 0.64668-1.1649 2.8118-2.5887 4.8113s-3.0988 5.4614-3.7222 7.693l-1.1336 4.0575 2.4462-3.125c1.3454-1.7188 3.7095-5.6562 5.2536-8.75zm-138.24 3.9461c12.419-6.9288 28.352-16.375 39.861-23.632 10.398-6.557 57.487-33.683 69.236-39.884 12.098-6.385 11.742-6.0811 9.4075-8.0184-1.7618-1.4621-2.9453-1.2059-8.4708 1.8341-3.5326 1.9435-11.945 6.4239-18.694 9.9565-6.7492 3.5325-14.951 7.829-18.225 9.5478-3.2747 1.7188-7.7291 4.4234-9.8987 6.0102-2.1696 1.5869-8.6158 5.0432-14.325 7.6808-5.709 2.6376-11.156 5.7311-12.105 6.8745-0.94893 1.1434-3.7312 2.917-6.1828 3.9413-2.4516 1.0244-5.5901 2.8836-6.9745 4.1316s-8.5358 5.5204-15.892 9.4942c-13.608 7.3507-20.693 13.08-19.188 15.516 1.2501 2.0227 2.0954 1.7678 11.452-3.4523zm-2.9991-9.9067c2.5521-1.6825 6.3374-3.9828 8.4117-5.1117 9.6043-5.2273 22.39-12.744 26.77-15.739 2.6523-1.8132 9.1211-5.5551 14.375-8.3154s15.459-8.359 22.678-12.442c7.2188-4.0826 14.489-8.0108 16.155-8.7293 6.0896-2.6252 27.595-15.12 27.595-16.033 0-0.97556-16.579-16.34-19.393-17.972-0.87946-0.51013-3.6384-0.0754-6.1311 0.96608-4.3677 1.825-4.6446 1.781-7.6368-1.2111l-3.1047-3.1047-19.386 11.207c-10.662 6.164-22.049 12.516-25.305 14.115-26.649 13.09-46.544 25.826-46.544 29.796 0 1.5247-1.4636 4.2998-3.2524 6.1669-3.0795 3.2143-3.1786 3.7163-1.865 9.4434 1.5833 6.9028 4.8194 19.013 5.7226 21.415 0.67958 1.8075 2.61 1.0198 10.91-4.452zm254.21 2.373c-0.36971-0.59822-4.0711-2.3588-8.2253-3.9123-4.1542-1.5536-7.8556-3.3141-8.2253-3.9123-0.36972-0.59821-1.6234-1.0582-2.786-1.0221-2.916 0.0905 1.9764 3.4525 10.291 7.0717 6.6985 2.9159 10.064 3.5836 8.946 1.775zm-99.541-23.287c0.005-0.6875-1.9337 1.8438-4.3089 5.625s-4.3242 7.7188-4.3311 8.75c-0.007 1.0312 1.9321-1.5 4.3089-5.625s4.3258-8.0625 4.3311-8.75zm68.328 9.5966c-0.40608-0.65708-2.2905-1.5821-4.1877-2.0556-1.8971-0.47348-4.2931-1.6172-5.3243-2.5417-1.0312-0.92446-4.4062-2.6168-7.5-3.7607-10.589-3.9153-13.129-5.0396-16.502-7.3045-3.0912-2.0755-13.56-5.8092-16.288-5.8092-0.62863 0-0.96111 0.88774-0.73882 1.9728 0.38999 1.9036 14.766 8.2522 22.567 9.9655 2.0122 0.44196 9.0987 3.183 15.748 6.0913 12.039 5.2658 13.63 5.7137 12.226 3.4421zm-56.438-18.646c2.157-2.3262 3.1756-4.8432 3.1756-7.8469 0-4.2786-2.8131-9.9784-4.9248-9.9784-0.8843 0-10.075 14.291-10.075 15.666 0 1.1468 5.6102 5.5841 7.0601 5.5841 0.8738 0 3.0177-1.5411 4.7643-3.4247zm-182.07 0.67473c3.1224-3.1224 1.7148-7.0896-3.4502-9.7246-6.792-3.465-8.1668-3.2197-11.416 2.0368l-2.8196 4.5622 2.8561 2.3128c3.2702 2.6481 12.489 3.1533 14.829 0.81276zm172.74-13.49c0-1.2077-3.2327-4.6429-7.1875-7.6376-10.174-7.7045-27.866-22.695-31.562-26.745-3.8672-4.2361-15.679-13.116-17.447-13.116-3.3794 0-0.47767 4.4765 8.2869 12.784 5.2746 4.9998 13.009 12.484 17.188 16.633 4.1785 4.1481 11.283 10.144 15.788 13.325 4.5049 3.1804 8.9389 6.684 9.8534 7.7859 1.9778 2.383 5.081 0.53338 5.081-3.0285zm-159.55-2.97c4.5783-3.007 16.052-9.5611 25.498-14.565 43.326-22.95 59.771-32.789 58.43-34.958-0.9167-1.4832-6.2477 0.2069-14.196 4.5007-3.6792 1.9875-16.054 8.4454-27.5 14.351-25.409 13.11-26.526 13.738-40.389 22.7-6.1143 3.9531-11.523 7.2054-12.019 7.2273-0.49633 0.0219-2.0247 0.88783-3.3963 1.9244-2.1393 1.6167-2.2282 2.0526-0.625 3.0661 3.272 2.0685 5.6761 1.3492 14.197-4.2476zm146.07-20.036c2.2577-0.96383 9.7299-4.1414 16.605-7.0614 6.875-2.9199 18.506-8.0376 25.847-11.373 7.3408-3.335 13.917-6.0636 14.614-6.0636 0.69671 0 1.6516-0.62265 2.1219-1.3837 1.0746-1.7388-5.9819-0.39869-11.212 2.1293-1.9962 0.96488-4.2343 1.7543-4.9735 1.7543-0.73916 0-5.0121 1.3303-9.4954 2.9562s-13.714 4.7858-20.513 7.0221c-14.944 4.9157-23.264 8.4983-23.264 10.018 0 1.126 3.5706 3.6434 5.2701 3.7156 0.4923 0.0209 2.7423-0.75058 5-1.7144zm-0.55568-11.216c6.0008-2.3199 18.504-6.607 27.786-9.527 9.2812-2.92 19.406-6.3224 22.5-7.561 3.0938-1.2386 12.375-4.9201 20.625-8.1811s20.233-9.2105 26.628-13.221c6.3953-4.0106 12.161-7.2919 12.812-7.2919 0.65153 0 1.1846-0.23525 1.1846-0.52277s0.35249-1.4413 0.78331-2.564c0.68573-1.787-0.054-1.945-5.9375-1.2687-3.6964 0.42491-8.9708 1.5059-11.721 2.4021-8.8888 2.897-14.834 4.5118-23.125 6.2817-4.4688 0.9539-11.219 2.6489-15 3.7668-3.7812 1.1178-8.2812 2.2168-10 2.4422s-5.6562 1.0338-8.75 1.7965c-8.7078 2.1467-22.659 5.1615-27.5 5.9427-2.4062 0.38831-7.75 1.5365-11.875 2.5515s-11.719 2.6653-16.875 3.6672c-9.2718 1.8017-18.806 5.185-18.69 6.6322 0.033 0.41121 3.0416 2.8831 6.6859 5.4931 3.6442 2.61 8.5088 6.6881 10.81 9.0625 2.3014 2.3744 5.2111 4.3171 6.466 4.3171s7.1915-1.8981 13.192-4.2179zm-51.718-10.023c7.0279-2.9365 8.3087-10.922 2.9788-18.572-2.9302-4.2057-4.8249-4.3066-9.2582-0.49324-3.4028 2.9269-3.4105 2.9703-1.3197 7.3764 1.1568 2.4377 2.1032 6.4565 2.1032 8.9308 0 5.1311-0.0834 5.0892 5.496 2.758zm127.6-9.7846c8.1758-3.1691 33.178-15.846 35.968-18.238 2.4224-2.076 2.9354-5.2373 0.85004-5.2373-0.7356 0-5.3762 2.45-10.312 5.4445-4.9363 2.9945-10.381 5.884-12.1 6.421-1.7188 0.53708-4.715 2.3058-6.6584 3.9305s-4.2625 2.954-5.1536 2.954c-2.1306 0-11.898 4.4851-15.021 6.8971-2.3022 1.7784-2.1836 1.846 1.875 1.0686 2.3829-0.45643 7.1314-1.9148 10.552-3.2408zm-102.47-2.8485c10.259-2.869 13.485-3.5964 50-11.275 11.688-2.4576 27.156-5.8953 34.375-7.6392 7.2188-1.7439 17.625-4.196 23.125-5.449 14.318-3.262 33.546-8.8489 34.938-10.151 0.74527-0.69776 0.65323-1.6461-0.24716-2.5465-1.5144-1.5144-11.107-0.11831-22.815 3.3204-9.6909 2.8462-27.831 7.0042-35.085 8.0423-3.8282 0.54777-8.8907 1.6025-11.25 2.3438s-9.6334 2.4621-16.165 3.8239c-6.5312 1.3619-14.688 3.1273-18.125 3.9232-3.4375 0.79591-8.5 1.743-11.25 2.1047-2.75 0.36168-5.5625 1.1082-6.25 1.6589s-9.2344 2.5315-18.993 4.4018c-18.417 3.5298-20.409 4.5942-17.782 9.5032 0.90994 1.7002 2.0141 2.2216 3.433 1.6209 1.1504-0.487 6.5916-2.1439 12.092-3.6821zm160.94-21.593c1.2031-1.0564 2.1875-2.9253 2.1875-4.1532s0.5625-2.5801 1.25-3.005c1.3843-0.85553 1.6877-8.03 0.47339-11.194-0.42713-1.1131-2.8178-2.8786-5.3125-3.9233-3.7688-1.5782-5.4518-1.6437-9.9516-0.38708-5.2714 1.4721-5.3947 1.6243-4.6278 5.7121 0.53367 2.8447 0.16369 5.0908-1.1468 6.9618-2.1924 3.13-2.4994 7.565-0.74997 10.834 0.98456 1.8397 2.4098 2.1175 8.4375 1.6448 3.989-0.31284 8.2372-1.4331 9.4403-2.4895z"/>
</svg>
