<?xml version="1.0" encoding="UTF-8" standalone="no"?>
<!-- Created with Inkscape (http://www.inkscape.org/) -->
<svg id="svg3804" xmlns:rdf="http://www.w3.org/1999/02/22-rdf-syntax-ns#" xmlns="http://www.w3.org/2000/svg" height="862.96" viewBox="0 0 721.68738 862.95679" width="721.69" version="1.1" xmlns:cc="http://creativecommons.org/ns#" xmlns:dc="http://purl.org/dc/elements/1.1/">
 <metadata id="metadata3810">
  <rdf:RDF>
   <cc:Work rdf:about="">
    <dc:format>image/svg+xml</dc:format>
    <dc:type rdf:resource="http://purl.org/dc/dcmitype/StillImage"/>
    <dc:title/>
   </cc:Work>
  </rdf:RDF>
 </metadata>
 <path id="path3814" d="m302.84 862.4c-15.469-0.493-30.656-1.2316-33.75-1.6413-3.0938-0.40969-14.832-1.6162-26.085-2.6812-37.357-3.5354-44.419-4.8828-93.29-17.801-30.159-7.972-44.97-13.642-61.816-23.663-21.152-12.583-40.99-36.043-47.909-56.656-3.0192-8.995-3.8124-31.398-1.5046-42.5 0.92892-4.4688 3.4384-16.562 5.5767-26.875 2.1383-10.312 4.988-21.386 6.3326-24.607 1.3447-3.2212 2.4448-7.0257 2.4448-8.4545s0.51116-3.5745 1.1359-4.7683 3.2892-11.171 5.921-22.171l4.7851-20 0.0165-37.5c0.009-20.625-0.40844-39.75-0.92782-42.5-0.51939-2.75-1.4964-10.062-2.171-16.25-0.67467-6.1875-1.4951-12.392-1.8232-13.789-0.32812-1.3963-1.7563-12.02-3.1737-23.608s-3.9811-27.563-5.6971-35.5c-1.716-7.9367-3.6245-19.813-4.2411-26.392-1.3658-14.571-4.5517-33.584-6.4357-38.407-1.6086-4.1178-4.9177-20.287-5.4603-26.68-0.20422-2.4062-1.5128-7.1875-2.908-10.625s-6.285-15.406-10.866-26.598c-4.5813-11.191-9.1633-24.691-10.182-30-2.5044-13.049-5.6736-25.621-6.8544-27.191-0.53321-0.70885-1.3406-2.9588-1.7942-5-1.5997-7.1982-2.8151-50.126-1.7862-63.086 0.97368-12.265 5.1044-34.695 6.9348-37.657 0.44709-0.7234 1.5476-3.9371 2.4457-7.1416 2.44-8.69 11.091-27.72 16.374-36 11.031-17.286 31.814-38.102 55.456-55.545 22.632-16.698 24.01-17.477 50.625-28.597 22.86-9.5513 55.622-16.678 86.25-18.762 11.688-0.79527 26.031-1.888 31.875-2.4282 28.172-2.6044 41.103-1.7728 103.75 6.6718 26.304 3.5457 50.174 9.5503 75.625 19.024 13.017 4.8456 49.535 20.546 53.125 22.84 1.7188 1.0985 5.9375 3.402 9.375 5.1189s6.5313 3.4391 6.875 3.827c0.3438 0.38797 4.8438 3.8048 10 7.5929 11.06 8.1255 15.506 12.425 23.24 22.476 8.5575 11.121 14.78 24.059 17.963 37.35 1.5641 6.5312 3.5661 14.406 4.4487 17.5 6.4894 22.746 9.6074 72.494 5.8096 92.693-1.0932 5.8143-1.0914 5.8185 2.7849 6.6032 2.1333 0.43186 13.19 1.6069 24.57 2.6112s23.474 2.402 26.875 3.106c3.4011 0.70399 10.684 2.0942 16.184 3.0894 32.906 5.9541 44.483 9.2008 51.983 14.578 13.568 9.7288 28.217 23.818 33.187 31.919 4.8018 7.8269 6.5482 23.241 5.0019 44.149-0.4322 5.8438-1.0849 16.75-1.4504 24.237-0.3655 7.4867-0.9555 14.083-1.3111 14.658-0.3556 0.57535-0.8561 2.7016-1.1122 4.7251-0.256 2.0234-1.6104 6.9585-3.0095 10.967-9.9843 28.602-11.83 33.608-12.596 34.163-0.4743 0.34375-2.6699 4.5226-4.8791 9.2864-3.5283 7.6082-6.916 12.658-21.442 31.964-1.8105 2.4062-5.7444 8.0073-8.7419 12.447-12.367 18.316-21.465 29.081-38.707 45.801-26.875 26.061-33.696 32.215-41.298 37.256-3.7812 2.5074-9.9687 6.6014-13.75 9.0979-8.8064 5.8142-25.002 20.965-27.726 25.937-3.9927 7.2886-7.9928 47.883-6.7276 68.274 2.3102 37.233 1.3147 73.689-2.5037 91.694-1.6559 7.8081-8.2022 25.235-11.156 29.699-8.4577 12.78-30.752 29.543-57.008 42.863-14.805 7.511-19.911 9.2666-42.379 14.572-19.626 4.6347-42.571 8.2083-67.5 10.513-10.656 0.98524-21.062 1.9922-23.125 2.2376-2.0625 0.24546-16.406 0.0429-31.875-0.45009zm26.655-5.9845c-0.3975-2.8897-0.3072-2.9947 0.6785-0.78962 2.1813 4.88 4.0472 5.4806 13.316 4.287 4.7988-0.61797 9.7094-1.142 10.912-1.1645 1.4747-0.0276 2.1875-1.0351 2.1875-3.0921 0-1.6782 0.5617-3.3984 1.2481-3.8226 0.7201-0.44501 1.1167 0.44933 0.9375 2.1137-0.4054 3.7653 3.6417 4.2983 17.357 2.2861 9.404-1.3797 10.129-1.6947 9.6548-4.1964-0.508-2.6815-0.4999-2.6808 0.9516 0.0861 1.0282 1.96 2.2473 2.6037 4.0951 2.1622 1.4472-0.34576 6.5687-1.1501 11.381-1.7875 21.558-2.855 46.451-9.7937 60.506-16.866 23.102-11.624 37.608-21.063 48.377-31.48 13.56-13.117 17.156-19.931 22.329-42.32 3.3306-14.414 4.2877-39.678 3.2678-86.25-0.5901-26.94 1.4294-58.226 4.357-67.5 2.1925-6.9448 2.3403-7.8812 3.7005-23.438 0.5261-6.0156 1.4806-10.938 2.1213-10.938s0.8686 1.5469 0.5064 3.4375c-1.5189 7.928-2.207 19.062-1.1781 19.062 0.6091 0 2.9524-1.5469 5.2074-3.4375 4.03-3.3789 4.0994-3.6132 4.07-13.75-0.018-6.377 0.4701-10.312 1.2803-10.312 0.8142 0 1.149 2.8012 0.8842 7.3972-0.2343 4.0685-0.042 7.7813 0.4274 8.2507s2.1562-0.37613 3.7486-1.8789c1.5923-1.5028 4.6293-3.6688 6.7488-4.8132s9.0008-5.7371 15.292-10.206l11.438-8.125 0.021-7.1875c0.013-4.2865 0.5639-7.1875 1.3665-7.1875 0.7402 0 1.2457 1.8281 1.1234 4.0625-0.1224 2.2344-0.1655 4.5279-0.096 5.0966 0.07 0.56879 3.2204-1.6089 7.0016-4.8393l6.875-5.8735v-7.3482c-0.0001-4.0414 0.4624-7.3481 1.0277-7.3481s0.7946 2.9244 0.5097 6.4987c-0.5826 7.3076-0.8784 7.3501 8.5986-1.237 4.0053-3.6292 4.57-4.8796 4.7982-10.625 0.3818-9.6127 0.3859-9.6368 1.6413-9.6368 0.6721 0 0.7979 2.6259 0.2994 6.25-0.4728 3.4375-0.3638 6.25 0.2422 6.25s3.7223-2.6719 6.9252-5.9375l5.8234-5.9375-0.4278-8.4375c-0.2354-4.6406 0.076-8.4375 0.692-8.4375 1.1948 0 1.526 2.9427 1.1247 9.9916-0.2479 4.3531-0.2406 4.3593 2.3626 2.0034 2.2426-2.0295 2.503-3.2841 1.8446-8.8862-0.5143-4.376-0.2863-6.8199 0.6928-7.425 1.0371-0.64095 1.3728 0.56672 1.16 4.173-0.1647 2.7912 0 5.3776 0.373 5.7474 0.7172 0.71716 9.7436-10.409 15.231-18.775 2.827-4.3096 3.1369-5.648 2.1246-9.1776-1.425-4.9686-0.2374-13.468 1.323-9.4685 0.5238 1.3428 0.6357 4.3419 0.2487 6.6646-0.9903 5.9427 1.3779 4.7343 7.1563-3.6516 4.5169-6.5552 4.6664-7.1049 3.8279-14.083-0.4798-3.9936-0.4783-7.5047 0-7.8025 0.7481-0.46228 1.8153 3.8838 2.6038 10.603 0.1298 1.1061 1.5625 0.1694 3.7516-2.4528 3.0633-3.6697 3.5414-5.3033 3.5414-12.102 0-4.4065 0.5492-7.8597 1.25-7.8597 0.6875 0 1.25 1.6875 1.25 3.75s0.586 3.75 1.3022 3.75c1.9169 0 8.7386-15.939 7.8324-18.301-0.4798-1.2504 0.2291-2.7913 1.8619-4.0468 3.107-2.3891 10.469-23.957 13.336-39.069 1.0548-5.5603 1.9425-14.407 1.9726-19.659 0.03-5.2522 0.5359-13.703 1.1238-18.78 1.4616-12.623-0.3756-32.189-3.7618-40.06-4.0968-9.5234-30.378-33.435-42.287-38.474-4.0819-1.7272-33.415-8.5151-42.572-9.8516-2.4377-0.35576-8.9321-1.4796-14.432-2.4974-13.586-2.5143-15.469-2.7317-31.25-3.609-14.854-0.82578-24.447-1.8373-25.938-2.7349-1.0217-0.61528-1.1977-0.10825-1.5906 4.583-1.7182 20.517-3.4663 36.889-4.5379 42.5-2.9303 15.343-6.3206 28.545-9.2322 35.951-1.6923 4.3041-3.0855 10.21-3.096 13.125-0.013 3.3238-0.4084 4.6854-1.0634 3.6525-2.0511-3.2347-4.2941 5.5934-3.6044 14.186 0.7128 8.8797 0.307 10.202-1.2668 4.129-1.0118-3.9046-1.0561-3.8548-3.3708 3.79-1.6993 5.6124-1.9684 8.1237-0.9767 9.1154 0.903 0.90307 0.9783 2.3954 0.2213 4.3866-0.6311 1.6598-0.9115 6.7596-0.6232 11.333 0.3346 5.3064 0.1113 7.6622-0.6172 6.5109-0.6277-0.99221-1.15-5.6009-1.1605-10.242-0.02-8.5978-1.5693-11.142-3.0917-5.0762-0.464 1.8487-2.011 5.0006-3.4377 7.0042s-2.0789 4.0067-1.4492 4.4512c0.6296 0.44454 1.1557 5.8708 1.1691 12.058 0.013 6.1875 0.509 19.125 1.1013 28.75 1.2938 21.024 1.2105 24.116-0.7125 26.433-1.076 1.2964-1.2779 7.2397-0.7387 21.738 0.4522 12.158 0.2827 19.954-0.4338 19.954-2.068 0-1.9241-41.619 0.1629-47.109 0.5736-1.5086 0.5326-9.1045-0.091-16.88-0.6237-7.7752-1.2575-20.719-1.4084-28.763-0.1572-8.3813-0.7594-14.327-1.4103-13.925-0.6248 0.38613-2.2481 3.2966-3.6074 6.4676-2.3069 5.3818-2.5127 9.5515-3.0928 62.642-0.3418 31.282-0.8706 57.126-1.1752 57.43-0.3045 0.30452-0.5967-0.8057-0.6493-2.4672-0.3254-10.273 0.2731-70.077 0.8705-86.981 0.4037-11.425 0.2161-21.1-0.4316-22.257-0.9394-1.6787-2.355-0.42111-7.862 6.9847l-6.7163 9.0321 0.213 13.225c0.1171 7.2739 0.6849 14.898 1.2615 16.943s0.6116 6.4818 0.078 9.8596c-0.5339 3.3777-0.5269 7.0483 0.016 8.1568 0.8443 1.7249 0.9215 9.1323 0.2976 28.578-0.072 2.2344-0.7567 4.0625-1.5223 4.0625-0.9531 0-1.1091-1.8717-0.4946-5.9375 0.4935-3.2656 0.7873-10.438 0.653-15.938-0.1342-5.5-0.261-12.25-0.2817-15-0.072-9.6231-2.6877-41.875-3.3954-41.87-0.3929 0.002-3.1781 1.6399-6.1894 3.6377-4.4939 2.9814-5.6001 4.4926-6.1727 8.4322-0.9306 6.4023-0.82 23.147 0.2091 31.675 1.3436 11.134 1.9639 35 0.9097 35-0.906 0-1.3817-7.16-3.4258-51.562-0.4352-9.4531-1.1296-17.163-1.5432-17.133-0.4136 0.0299-2.9877 1.3378-5.7201 2.9067-5.1943 2.9824-6.0235 4.8206-7.6858 17.039-1.2378 9.0985-2.1286 7.6462-1.3418-2.1875 0.8132-10.163 0.3895-10.581-7.1003-7.0092-4.3962 2.0964-4.921 3.155-7.0388 14.197-1.0405 5.4253-1.0677 5.3476-0.7673-2.1875 0.3523-8.8329 0.226-8.9164-9.2229-6.0949-3.2873 0.98159-5.793 2.5322-6.0292 3.731-0.2223 1.1282-0.896 2.0514-1.4972 2.0514-0.6011 0-1.2996 2.9531-1.5521 6.5625-0.3972 5.6772-0.4903 5.34-0.6903-2.5l-0.2316-9.0625h-3.8661c-3.4006 0-25.906 4.1031-31.238 5.6953-1.9952 0.59576-2.473 3.07-2.8225 14.617-0.099 3.2656-0.6502 5.9375-1.2253 5.9375-0.575 0-0.8604-4.2628-0.6342-9.4729l0.4112-9.4729-5.625 0.88379c-12.384 1.9458-51.483 2.7485-63.125 1.296-3.4375-0.42889-24.707-1.8829-47.265-3.2312s-41.506-2.7548-42.106-3.1256c-1.8478-1.142-27.849-5.588-32.798-5.6081-5.171-0.021-6.2638-0.25128-36.58-7.7071-11.688-2.8743-23.5-6.2455-26.25-7.4915-7.9642-3.6086-8.515-3.2896-7.8644 4.5546 0.31357 3.7812 0.13645 6.875-0.39361 6.875-1.2777 0-2.8462-10.698-1.9218-13.107 0.45842-1.1946-0.52309-2.6683-2.6729-4.0131-1.8685-1.1689-7.9849-5.3887-13.592-9.3775-5.607-3.9888-10.529-7.2523-10.938-7.2523-1.3321 0-0.78083 25.094 0.60832 27.689 0.74321 1.3887 1.07 2.8061 0.72628 3.1499-1.8498 1.8498-3.7529-6.7789-4.3061-19.523l-0.62681-14.441-4.5098-4.0105c-2.4804-2.2058-5.0125-4.0339-5.6269-4.0625-1.6686-0.0777-0.0845 32.881 1.6074 33.445 0.76159 0.25387 1.3668 1.6803 1.345 3.1699-0.038 2.5879-0.11754 2.6057-1.7884 0.40034-1.8522-2.4447-2.8531-10.418-3.6619-29.172l-0.544-11.5-14.82-14.38-14.819-14.38-0.36941 6.6182c-0.20318 3.64 0.43627 8.9567 1.421 11.815 0.98473 2.8582 1.333 5.4794 0.77404 5.8249-1.3449 0.83119-3.8102-11.305-4.2724-21.031-0.3524-7.416-2.2995-12.593-7.0342-18.705-1.8506-2.3886-1.9229-2.0711-1.0987 4.8244 0.48524 4.0597 1.7985 9.5594 2.9184 12.221 1.1199 2.6621 2.0362 6.375 2.0362 8.251s0.50656 5.0416 1.1257 7.0348c0.61913 1.9932 1.7893 8.6865 2.6005 14.874 2.7031 20.62 3.6045 26.168 6.1201 37.672 1.3738 6.2821 2.8438 15.001 3.2667 19.375 1.7739 18.348 3.3648 30.684 4.4108 34.203 0.61314 2.0625 1.7246 9.9375 2.4699 17.5s1.895 17.125 2.5549 21.25c1.2983 8.1161 1.6161 48.502 0.51057 64.887-0.85353 12.651-7.8914 44.606-13.695 62.18-2.4186 7.3244-5.506 19.137-6.8607 26.25s-3.0363 15.464-3.7367 18.558c-3.8418 16.968-4.7102 29.078-2.8234 39.375l0.91622 5 0.76675-6.25c0.57128-4.6566 0.74265-3.382 0.67222 5-0.0905 10.769 0.10608 11.606 4.5943 19.568 4.9531 8.7873 9.4064 13.92 7.9576 9.1717-1.3887-4.5511-3.1419-18.583-3.9033-31.24-0.41359-6.875-1.0762-15.734-1.4725-19.688-0.44049-4.3943-0.23965-7.1875 0.51678-7.1875 0.70456 0 1.3002 4.44 1.3834 10.312 0.1561 11.014 2.2547 36.17 3.3631 40.312 0.36787 1.375 1.2808 3.7464 2.0287 5.2699 1.016 2.0694 0.962 3.2493-0.21337 4.6655-1.3134 1.5825-0.74338 2.88 3.4506 7.8551 16.591 19.681 44.794 36.34 74.621 44.077 4.8125 1.2484 16.344 4.2669 25.625 6.7077 9.2812 2.4408 20.454 5.2716 24.828 6.2906l7.9531 1.8527-0.73553-3.3594c-0.40457-1.8477-1.096-4.6251-1.5364-6.172-0.48855-1.7157-0.25654-2.8125 0.59491-2.8125 0.76769 0 1.3958 1.1431 1.3958 2.5402s0.78056 4.4083 1.7346 6.6916c1.4813 3.5452 2.5309 4.2744 7.1875 4.9938 12.003 1.8543 11.321 1.9153 10.608-0.94953-1.867-7.4967-2.276-13.276-0.93951-13.276 0.83958 0 1.4098 2.298 1.4098 5.6818 0 7.5686 3.988 11.818 11.091 11.818 2.725 0 5.7646 0.31084 6.7546 0.69075 1.4531 0.55761 1.7298-0.58683 1.4358-5.9375-0.28093-5.1119-0.1689-5.6274 0.48967-2.2532 1.5784 8.0868 2.0997 8.3775 17.729 9.8876 7.9062 0.7639 16.484 1.6708 19.062 2.0154 4.4278 0.59183 4.6903 0.4353 4.7376-2.8257l0.05-3.4523 1.7702 3.2569c1.4494 2.6666 2.9695 3.4009 8.3874 4.0516 3.6395 0.4371 8.6486 0.79962 11.131 0.8056 4.2193 0.01 4.4802-0.21366 3.9939-3.4266l-0.52025-3.4375 1.834 3.125c1.5363 2.6178 3.0184 3.2264 9.1311 3.75 4.0134 0.34375 10.163 0.43736 13.666 0.20803 6.0984-0.39925 6.3497-0.5587 5.9108-3.75zm-76.405-2.958c-1.642-1.642-2.072-7.25-0.55586-7.25 0.51927 0 1.5604 1.9688 2.3135 4.375 1.4162 4.5245 0.83785 5.4705-1.7576 2.875zm-77.561-13.188c-1.8316-3.4875-2.9819-12.484-1.6977-13.278 0.6423-0.39696 1.5063 2.1361 1.92 5.6291 0.41369 3.493 1.403 7.135 2.1984 8.0935 0.99718 1.2015 1.0243 1.7426 0.0873 1.7426-0.7475 0-1.876-0.98438-2.5079-2.1875zm-16.561-5c-2.2201-5.8246-4.0998-15.257-3.2164-16.141 1.4042-1.4042 2.0499 0.12959 2.6813 6.3694 0.33219 3.283 1.4166 7.598 2.4098 9.589 0.9932 1.9909 1.2725 3.6198 0.62068 3.6198-0.65181 0-1.7747-1.5469-2.4953-3.4375zm-17.795-3.6458c-0.45834-0.45832-0.83334-2.8508-0.83334-5.3165s-1.0832-8.2709-2.4071-12.9c-1.3239-4.6295-1.9269-8.714-1.34-9.0767 1.2806-0.79146 1.8297 1.0473 3.7332 12.502 0.79975 4.8125 2.2289 10.297 3.1758 12.188 1.3743 2.7438 1.3972 3.4375 0.11325 3.4375-0.8847 0-1.9835-0.375-2.4419-0.83334zm-35.74-13.97c-0.7432-1.3887-1.3527-5.2337-1.3545-8.5446-0.002-3.3108-1.408-14.982-3.125-25.937-3.3052-21.087-3.6978-25.708-2.1843-25.708 0.51563 0 0.96719 2.1094 1.0035 4.6875 0.0363 2.5781 1.0824 11.156 2.3247 19.062 1.2423 7.9062 2.5001 17.469 2.7951 21.25 0.29501 3.7812 1.168 8.9872 1.9399 11.569 1.5667 5.2394 0.68616 7.5175-1.3994 3.6205zm15.604-3.0017c-2.1986-10.423-5.5002-31.559-5.0068-32.053 1.0788-1.0788 2.2916 1.2408 2.5423 4.8623 0.6125 8.847 2.1417 19.346 3.651 25.068 0.89738 3.4018 1.1903 6.1851 0.65099 6.1851-0.53934 0-1.3662-1.8281-1.8376-4.0625zm-31.731-11.4c-0.80634-4.3761-1.4683-9.8605-1.471-12.188-0.003-2.327-1.4089-12.639-3.125-22.915-3.4063-20.398-3.6534-23.19-2.0522-23.19 0.58735 0 1.7046 5.7656 2.4829 12.812 2.5518 23.106 5.4151 43.196 7.1262 50 0.48596 1.9324 0.34796 3.4375-0.31517 3.4375-0.64881 0-1.8394-3.5805-2.6457-7.9566zm-19.873-22.98c-4.0214-17.613-5.1015-26.077-6.0846-47.683-0.65634-14.425-0.51406-19.026 0.56766-18.358 0.79395 0.49068 1.1658 2.4031 0.82628 4.2497-0.93872 5.1061 1.557 39.613 3.6429 50.368 1.0145 5.2305 2.7048 11.98 3.7563 15 2.1223 6.0944 2.4184 8.6172 1.0107 8.6106-0.51562-0.003-2.1893-5.4868-3.7192-12.188zm-26.396-44.06c0-1.7188 0.28372-2.4219 0.63049-1.5625 0.34676 0.85937 0.34676 2.2656 0 3.125-0.34677 0.85937-0.63049 0.15625-0.63049-1.5625zm207.3-11.801c0-0.99068 0.5625-2.1489 1.25-2.5738 2.2198-1.3719 1.3439-3.0412-3.1095-5.926-2.3977-1.5532-4.3665-3.1791-4.375-3.6131-0.009-0.434 2.3751-1.3991 5.297-2.1447 4.3272-1.1042 6.1022-2.5227 9.5706-7.6484 4.348-6.4256 6.3669-7.8068 6.3669-4.3558 0 3.8759 3.9207 9.3754 7.8175 10.965l3.9909 1.6284-3.4752 3.0217c-2.6725 2.3237-3.3952 3.9504-3.1288 7.0425 0.47337 5.4944-0.63261 6.1366-5.5608 3.229-4.1082-2.4239-4.3198-2.4291-8.4909-0.20737-5.2489 2.7958-6.1527 2.8813-6.1527 0.58206zm16.439-5.3458c-0.99682-1.8626-0.72943-2.6947 1.2664-3.9411 2.2018-1.3751 2.3051-1.8528 0.79594-3.6834-0.95374-1.1569-2.5149-3.6632-3.4692-5.5696-2.0841-4.1633-3.5912-3.8811-6.907 1.2934-1.4753 2.3022-4.0142 4.2513-6.1941 4.7552l-3.6941 0.85392 2.8951 2.3443c1.5923 1.2894 3.7097 2.3443 4.7054 2.3443 0.99804 0 1.4291 0.61681 0.96068 1.3747-0.6178 0.99961-0.14874 0.99961 1.719 0 3.4778-1.8612 5.233-1.7284 5.233 0.39613 0 0.97395 0.70312 2.022 1.5625 2.3289 2.2667 0.80952 2.5545 0.17162 1.1264-2.4967zm29.483 1.4023c-0.4096-0.40961 0.36796-2.7258 1.7279-5.1471 1.36-2.4213 2.3045-4.5183 2.0989-4.6601-0.20556-0.14175-2.2019-1.5201-4.4362-3.063-5.1535-3.5587-5.1189-4.8236 0.15899-5.8138 2.6131-0.49021 5.2467-2.1787 6.9124-4.4316 3.4617-4.6822 6.8794-4.6859 8.8164-0.01 1.1069 2.6722 2.6216 3.8397 5.7407 4.4249 4.03 0.75602 8.5893 5.0758 7.3957 7.0071-0.30749 0.49752-2.4982 1.2684-4.8683 1.713-4.1836 0.78484-4.2706 0.91932-2.9835 4.6114 1.8353 5.2648-0.0455 6.8234-4.8832 4.0469-3.5701-2.0489-3.9777-2.0521-7.0268-0.0542-3.2484 2.1285-7.2622 2.7668-8.6529 1.3762zm8.5946-5.6382 2.8026-2.6329 2.8261 2.6329c4.0678 3.7898 4.9865 3.2536 2.9159-1.7019-2.4492-5.8617-2.3651-6.0884 1.9388-5.2276 5.4451 1.089 4.9313-2.3538-0.625-4.1875-2.4062-0.79414-4.3836-2.1034-4.3941-2.9094-0.01-0.80606-0.5434-2.2946-1.1842-3.3078-0.98236-1.5534-1.6653-1.3722-4.3559 1.1554-1.755 1.6487-3.1908 3.7433-3.1908 4.6547 0 0.91141-0.9418 1.6571-2.0929 1.6571-1.7231 0-1.5654 0.56147 0.89263 3.1779 2.5231 2.6858 2.7505 3.5543 1.4679 5.608-2.836 4.5411-1.2808 5.1017 2.9989 1.0811zm35.568 1.4354c-1.2267-0.75812-1.097-1.8865 0.592-5.1528 2.0527-3.9695 2.0518-4.2481-0.018-5.4784-6.0896-3.6205-8.3644-6.022-6.7022-7.0757 0.9173-0.58149 3.0741-1.0872 4.7928-1.1238 2.2015-0.0469 4.159-1.5605 6.6236-5.1216 3.9079-5.6464 6.2388-5.226 7.5566 1.3629 0.6119 3.0599 1.504 3.7926 5.4631 4.4873 5.222 0.91626 10.357 3.682 10.357 5.5784 0 0.67165-0.7573 1.2212-1.6829 1.2212s-3.5054 0.90915-5.7328 2.0203c-2.9172 1.4553-3.881 2.666-3.4461 4.329 0.7928 3.0316-1.6233 4.8496-4.7632 3.584-3.9111-1.5764-7.784-1.3458-9.7079 0.57819-0.9968 0.99673-2.4435 1.3401-3.3322 0.79088zm10.469-5.0793c4.5345 1.724 4.5985 1.6958 3.7562-1.6599-0.6062-2.4156-0.056-3.219 3.1012-4.5266 4.9844-2.0646 4.8537-3.3178-0.4498-4.3128-3.1588-0.59258-4.7205-1.7814-5.9301-4.5141-2.0563-4.6455-2.841-4.6399-5.6056 0.0404-1.2871 2.1788-3.2807 3.7641-4.7582 3.7836-2.1651 0.0286-1.9113 0.55753 1.7084 3.5595 2.7765 2.3027 3.7522 3.8344 2.8125 4.4152-0.7914 0.48911-1.4389 1.7687-1.4389 2.8436 0 1.5188 0.384 1.6356 1.723 0.52436 1.2239-1.0158 2.6955-1.0601 5.0813-0.15306zm-193.05-25.246c-9.5149-2.5683-12.562-9.8848-7.5444-18.114 4.2701-7.0033 21.231-13.692 37.99-14.982l9.8206-0.75603-0.71116-4.3824c-0.92576-5.7048-6.0499-10.938-13.205-13.487-12.776-4.5507-21.341-9.449-25.581-14.63-5.827-7.1203-8.7549-14.767-7.7352-20.202 2.3412-12.48 13.384-26.714 22.741-29.312 12.394-3.4413 26.293 0.0675 35.972 9.0806 6.1784 5.7536 6.8639 8.2838 4.04 14.911-3.2151 7.5454-14.127 14.398-20.415 12.82-2.5308-0.63517-2.9602-1.4139-2.635-4.7784 0.33314-3.4468 0.92292-4.072 4.1385-4.3872 2.0625-0.20217 4.8636 0.44726 6.2246 1.4432 2.1977 1.6081 2.852 1.542 5.8475-0.59097 4.2535-3.0287 6.7528-9.9661 4.8628-13.498-1.5488-2.894-7.5781-7.6273-13.592-10.671-6.67-3.3752-21.14-3.008-27.788 0.70507-8.1228 4.5367-10.23 8.2123-10.891 18.995-0.42869 6.9982-0.0548 10.349 1.5267 13.682 3.5328 7.4449 10.309 14.252 19.059 19.145 11.497 6.4298 18.795 13.413 20.454 19.573 1.235 4.5864 1.6236 4.9303 4.8436 4.2862 5.1077-1.0216 15.679-7.5285 25.891-15.936 12.362-10.178 18.195-12.134 22.712-7.6167 3.0631 3.0631 2.185 10.372-1.6827 14.005-3.4999 3.288-5.5925 2.3475-5.5925-2.5136 0-2.3667 1.0979-4.4491 3.2298-6.126 3.5094-2.7605 3.0993-5.1409-0.88574-5.1409-5.9103 0-13.778 6.8488-16.721 14.555-2.0158 5.2784-2.8393 15.081-1.6548 19.7 1.7223 6.7154 12.696 9.8376 21.261 6.049 6.5859-2.9133 11.824-8.7036 18.019-19.92 5.9189-10.716 10.567-16.168 18.197-21.344 6.3144-4.2833 16.312-6.6593 17.812-4.2331 0.46905 0.75895-1.2416 2.6815-3.8977 4.3806-14.347 9.1778-18.953 23.295-10.198 31.257 3.4441 3.1321 4.5574 3.4694 9.0692 2.7479 5.9646-0.95379 10.602-4.9255 14.641-12.539l2.8228-5.3211-2.7219-3.4603c-3.2429-4.1226-3.5502-10.697-0.70313-15.042 2.5957-3.9616 4.6612-3.8929 7.9309 0.2639 2.5979 3.3027 2.7032 5.3783 0.67061 13.218-1.0878 4.1953-0.81237 4.2104 6.7648 0.37074 7.5307-3.8161 13.169-9.7038 17.592-18.37 2.287-4.4815 4.2972-6.8196 6.0931-7.0872 4.5474-0.67773 3.2441 4.7584-3.2574 13.587l-5.9375 8.0626v10.806c0 8.8724 0.4261 11.277 2.3812 13.438 3.053 3.3735 6.4833 3.3205 12.157-0.18766 11.598-7.1712 21.084-20.204 21.088-28.972 0-4.3036 3.5856-12.188 5.8639-12.902 3.7415-1.1726 3.3559 13.469-0.5154 19.569-3.4351 5.4125 0.4281 21.375 5.1732 21.375 3.8632 0 16.329-18.315 17.071-25.081 0.1836-1.674-0.3219-5.2936-1.1233-8.0436-0.8013-2.75-1.4601-6.8215-1.4639-9.0478-0.01-3.386-0.4415-3.9991-2.6645-3.75-3.4957 0.39167-4.6448-4.8248-1.2969-5.8874 1.3538-0.42967 3.1101-3.3355 4.3913-7.2655 5.3409-16.383 11.053-22.925 17.465-20.004 2.919 1.33 3.1202 1.9936 2.9289 9.6597l-0.2054 8.2316 5.4202-0.81406c5.1022-0.7663 5.3955-0.64951 5 1.991-0.3178 2.1214-2.0958 3.4195-7.2952 5.3258-3.7812 1.3864-7.031 2.6481-7.2217 2.8038-1.3494 1.102-10.483 26.89-10.406 29.381 0.056 1.8305 1.7283 4.6061 4.0361 6.7004 3.5553 3.2265 4.5258 3.4977 9.943 2.7791 12.737-1.6896 18.773-6.7737 28.025-23.605 5.0977-9.2742 10.583-14.625 14.993-14.625 1.6098 0 3.7441-0.3136 4.7429-0.69689 2.7458-1.0537 6.1233 2.9643 5.1622 6.1411-1.1658 3.8531-5.5799 8.3058-8.2338 8.3058-2.526 0-2.5251-2.5872 0-7.1875 1.3097-2.3836 1.2432-2.8125-0.4357-2.8125-4.8759 0-9.3562 3.9632-13.058 11.551-2.0895 4.283-3.8191 7.2331-3.8434 6.5558-0.024-0.67727-0.7275-0.0711-1.5625 1.3469-6.1325 10.414-14.118 16.036-24.567 17.296-6.3637 0.76705-10.429-0.65183-14.522-5.0687-3.012-3.25-3.1522-3.277-4.9292-0.95024-1.006 1.3172-3.0082 4.7724-4.4494 7.6782-2.7578 5.5608-8.9219 11.592-11.848 11.592-2.4359 0-6.7909-4.9795-7.6309-8.7251-0.3885-1.7324-1.0746-4.7179-1.5247-6.6343l-0.8184-3.4844-4.4682 5.9844c-5.5677 7.457-17.176 16.539-21.929 17.158-1.9696 0.2562-4.1436 0.63036-4.8311 0.83145-3.1386 0.91801-6.8574-1.928-9.2948-7.1132-2.1253-4.5215-2.4863-6.9258-1.8227-12.14 0.4551-3.5759 1.3344-7.4861 1.9539-8.6892 1.449-2.8138 0.3693-2.7678-3.7685 0.1608-1.8249 1.2916-6.3269 3.4009-10.004 4.6875-5.2694 1.8434-7.1675 3.2665-8.9553 6.7142-3.4665 6.685-12.237 14.841-16.9 15.715-2.7541 0.51668-5.9144-0.0481-9.741-1.7408-7.409-3.2774-10.014-8.1271-9.2115-17.148 0.47287-5.3149 0.24433-6.5077-1.1447-5.9747-0.95452 0.36628-1.7355 1.2336-1.7355 1.9273 0 1.7382-8.2141 12.772-14.959 20.094-7.5053 8.1477-14.214 11.098-24.151 10.623l-7.742-0.37061-4.1477-6.25c-3.744-5.6418-4.0729-6.8582-3.3791-12.5 0.42274-3.4375 1.0947-7.6562 1.4932-9.375l0.7246-3.125-3.607 3.2017c-1.9838 1.7609-5.0132 3.8662-6.732 4.6784-1.7188 0.81221-3.9688 1.9832-5 2.6023-1.0312 0.61905-3.4219 1.7361-5.3125 2.4823-3.1988 1.2625-3.4375 1.86-3.4375 8.6054 0 4.513-0.72863 8.2889-1.9306 10.005-6.6285 9.4635-30.619 17.138-43.069 13.777zm23.876-7.4222c9.6688-3.2882 17.374-12.331 17.374-20.39 0-3.0839-0.22346-3.1652-8.7063-3.1652-13.494 0-30.568 6.7407-36.773 14.518-3.9978 5.0103-3.1678 7.2057 3.4494 9.1243 5.6628 1.6418 19.718 1.5921 24.656-0.0872zm138.35-48.51c0.0593-2.087-0.41699-3.7946-1.0585-3.7946-0.64153 0-1.1664 2.002-1.1664 4.4488 0 5.3594 2.0712 4.7504 2.2249-0.65421zm95.792-13.966c1.8187-4.9067 3.1001-9.128 2.8475-9.3806-0.2526-0.25262-2.1823 0.14135-4.2882 0.87548-3.3082 1.1532-3.898 2.0465-4.3363 6.5681-0.5787 5.9711 0.1012 10.858 1.5107 10.858 0.5277 0 2.4475-4.0146 4.2663-8.9213zm1.7602-16.188c2.9799-1.0388 4.0792-2.3125 4.6578-5.3965 1.9647-10.473-2.0212-17.377-5.6898-9.855-4.4194 9.0612-6.2065 16.611-3.9319 16.611 0.5849 0 2.8187-0.61188 4.9639-1.3597zm151.49-30.828c0.019-5.8029 1.5628-10.392 2.7785-8.2584 0.3355 0.58902 0.4066 2.4772 0.1581 4.196-0.2486 1.7188-0.4905 4.6719-0.5375 6.5625-0.1501 6.0415-2.419 3.6772-2.3991-2.5zm13.748-6c0.023-4.9314 1.2664-9.3125 2.6435-9.3125 1.336 0-0.01 10.111-1.5704 11.812-0.642 0.69931-1.0832-0.32846-1.0731-2.5zm-33.324-40.569c-0.1-14.434 0.2478-26.244 0.773-26.244 1.4647 0 1.9328 7.4359 1.9204 30.511-0.01 12.966-0.4945 21.298-1.2614 21.556-0.8032 0.27033-1.315-8.9591-1.432-25.823zm9.6806-4.0563c0.1353-19.822 1.2273-27.62 2.7803-19.855 0.45 2.2496 0.3557 6.442-0.2094 9.3165s-0.9616 10.711-0.881 17.414c0.081 6.7031-0.296 12.188-0.8368 12.188s-0.9247-8.5781-0.8531-19.062zm58.04 13.696c-0.535-1.2328-0.6221-2.5922-0.1934-3.0208 1.2693-1.2694 2.2926 0.51368 1.7084 2.9769-0.518 2.1837-0.5854 2.1856-1.515 0.0439zm-46.769-28.904c-0.08-8.8802 0.2033-15.798 0.6289-15.372 0.4257 0.42566 0.9157 2.91 1.0889 5.5208 0.1733 2.6108 0.717 8.5438 1.2083 13.184 0.5769 5.449 0.4451 8.4375-0.3722 8.4375-0.6961 0-1.5228 0.98437-1.8372 2.1875s-0.6369-5.0781-0.7167-13.958zm63.605 11.354c0-2.5208 0.5484-4.5833 1.2188-4.5833 0.7002 0 0.8897 1.7282 0.4454 4.0625-1.0843 5.6966-1.6642 5.8781-1.6642 0.52084zm-51.436-5.1861c-0.4258-0.42583-0.559-6.5113-0.2959-13.523 0.263-7.012 0.4791-14.062 0.4801-15.666 0.001-1.7584 0.615-2.7123 1.5457-2.4021 0.9915 0.33049 1.6358 3.6101 1.801 9.1667 0.1414 4.7586 0.5689 10.703 0.95 13.209 0.498 3.2752 0.074 5.3206-1.5069 7.2732-1.2099 1.4941-2.5482 2.3682-2.974 1.9424zm11.425-16.585c-0.01-3.9531-0.3597-10.281-0.7861-14.062-0.5377-4.7689-0.3746-6.4921 0.5325-5.625 1.4105 1.3482 3.9993 22.735 3.064 25.312-1.3813 3.8068-2.8004 0.96656-2.8104-5.625zm-149.99-5.5208c0-4.2396 0.2036-7.474 0.4524-7.1875 1.1097 1.2775 1.7563 14.896 0.7073 14.896-0.6378 0-1.1597-3.4688-1.1597-7.7083zm18.113-2.6283c-0.474-5.6898-0.6012-11.739-0.2828-13.442 0.3184-1.7032 0.6801 0.27834 0.8036 4.4033s0.6894 9.9027 1.2573 12.839c0.568 2.9367 0.5941 5.6104 0.058 5.9417-0.536 0.33125-1.3623-4.053-1.8362-9.7428zm192.77 7.4219c-1.2551-3.256-1.0955-13.335 0.2112-13.335 1.6824 0 2.5717 6.3723 1.57 11.25-0.7089 3.4518-1.0848 3.8918-1.7812 2.0853zm-46.393-4.2728c-0.3733-1.2031-0.63-6.4062-0.5704-11.562 0.06-5.1562-0.2993-12.047-0.7975-15.312-0.621-4.0709-0.4682-5.9375 0.4862-5.9375 0.7655 0 1.4506 0.42187 1.5223 0.9375 1.3323 9.5767 1.973 34.063 0.8913 34.063-0.4693-0.00012-1.1586-0.9846-1.5319-2.1877zm-182.9-5.3125c0-3.0938 0.2437-4.3594 0.5417-2.8125 0.2979 1.5469 0.2979 4.0781 0 5.625-0.298 1.5469-0.5417 0.28125-0.5417-2.8125zm234.56 4.4798c-1.0286-1.0275 0.3713-13.23 1.5179-13.23 0.6873 0 0.826 2.7152 0.335 6.5625-0.8891 6.968-1.0331 7.4861-1.8529 6.6673zm-254.42-15.63c0.1113-6.7676 0.6288-9.4326 1.9142-9.8581 1.3162-0.43559 1.4983 0.0133 0.7201 1.775-0.5729 1.2969-1.4342 5.7331-1.9142 9.8581l-0.8725 7.5 0.1524-9.275zm210.9-8.3739c-0.9901-10.702-1.1359-17.463-0.3924-18.206 0.7434-0.74345 1.4861 2.6771 1.9998 9.2114 0.4495 5.7167 1.1534 13.91 1.5642 18.206 0.4357 4.5583 0.2588 7.8125-0.4249 7.8125-0.6444 0-1.8805-7.6608-2.7467-17.024zm-251.64 12.053c-0.3003-2.0465-0.092-4.4371 0.464-5.3125 0.6059-0.95467 1.0178 0.53436 1.0293 3.7209 0.022 6.1698-0.7072 6.9472-1.4933 1.5916zm183.32-0.37232c-0.4023-1.0484 0.1873-4.9156 1.3103-8.5939s2.8685-15.104 3.8788-25.391c1.0104-10.287 2.246-19.005 2.746-19.375 0.4999-0.36965 0.9939-2.3596 1.0977-4.4221 1.3956-27.731 4.1654-56.971 5.6243-59.375 0.7542-1.2428 0.929-0.18901 0.5184 3.125-0.3407 2.75-0.9501 11.188-1.3542 18.75-0.4042 7.5625-1.0537 17.688-1.4435 22.5-1.244 15.358-1.2833 14.969 1.5464 15.373 1.4351 0.20505 3.1962-0.35745 3.9134-1.25 1.3665-1.7005 5.3526-45.965 5.3524-59.435-0.0001-4.5485 0.54-7.8125 1.2929-7.8125 0.7978 0 1.0512 2.2738 0.6616 5.9375-0.3473 3.2656-0.9588 12.406-1.359 20.312-0.4002 7.9062-0.973 15.5-1.2729 16.875-1.039 4.7639-1.5133 23.169-0.6114 23.726 1.5999 0.9888 7.3858-6.1015 9.1754-11.244 1.1693-3.3602 1.7801-11.494 1.876-24.982 0.1548-21.771 1.1461-33.125 2.8922-33.125 0.6142 0 0.8466 2.9531 0.5162 6.5625-1.4699 16.06-1.918 33.438-0.8623 33.438 0.6258 0 1.7835-1.5469 2.5727-3.4375s3.3373-6.2462 5.6625-9.6791c2.3251-3.4329 3.857-6.8079 3.4042-7.5-1.1443-1.749-1.0388-23.131 0.1141-23.132 0.9708-0.001 1.6201 8.3827 1.2826 16.562-0.1064 2.5781 0.3489 4.6875 1.0117 4.6875 2.0464 0 3.6432-6.0623 3.6432-13.831 0-4.0802 0.4219-7.4196 0.9375-7.4209 0.5157-0.001 0.747 3.3738 0.514 7.5-0.4316 7.6455 0.5968 9.1839 3.6667 5.4849 0.9209-1.1096 4.6097-3.674 8.1973-5.6988 6.347-3.582 6.5461-3.8655 7.3749-10.499 0.4685-3.7498 1.4089-7.162 2.0897-7.5828 0.7207-0.44545 0.9663 0.21417 0.588 1.579-1.2902 4.6544-2.2162 11.719-1.5361 11.719 0.3824 0 3.0798-1.0453 5.9942-2.323 10.143-4.4465 12.31-5.177 15.358-5.177 2.6231 0 3.0681-0.58703 3.0799-4.0625 0.021-6.0937 1.429-13.438 2.5771-13.438 0.5575 0 0.6836 3.9375 0.2801 8.75-0.7334 8.7484-0.733 8.75 2.4705 8.75 1.7622 0 4.0595 0.32826 5.1051 0.72947 1.4273 0.54774 2.1062-0.4644 2.7248-4.0625 1.7679-10.282 2.9972-12.395 2.2674-3.8964-0.5631 6.5565-0.2109 9.636 1.6076 14.058 2.6501 6.4439 4.1784 7.2456 4.2588 2.2341 0.065-4.0611 2.771-14.805 4.0509-16.085 1.3644-1.3644 1.0486 1.8369-1.0628 10.773-1.0558 4.4688-2.1535 11.5-2.4393 15.625-0.2857 4.125-1.0411 7.3794-1.6785 7.2319-0.6374-0.14744-1.8945 1.5401-2.7935 3.75-1.5703 3.8603-9.508 17.101-11.026 18.393-0.404 0.34375-1.4672 2.0312-2.3628 3.75-1.6865 3.2369-12.614 15.845-31.298 36.111-28.263 30.657-27.113 29.603-44.541 40.816-8.6459 5.5628-13.19 7.3777-22.196 8.8645-3.5359 0.58379-4.8439 0.30861-5.3981-1.1356zm15.327-3.963c17.728-8.254 29.759-18.563 58.289-49.944 26.734-29.406 31.131-35.057 38.98-50.093 5.0539-9.6814 5.772-11.965 5.2417-16.671-0.4952-4.3931-1.6336-6.4024-5.8607-10.344-5.0984-4.7541-7.4689-5.793-9.221-4.041-0.4681 0.46808-3.5149 0.90249-6.7708 0.96536-8.2726 0.15975-30.684 11.272-38.788 19.232-10.621 10.432-22.757 31.476-22.757 39.461 0 4.3001-3.1708 11.838-6.446 15.325-1.4171 1.5085-4.8343 3.1242-7.5938 3.5904-2.9041 0.49064-6.5438 2.3066-8.6418 4.3116-3.4594 3.306-3.6767 4.1692-4.7646 18.927-0.6269 8.5045-1.9466 18.958-2.9327 23.231-0.986 4.2726-1.4916 8.0694-1.1236 8.4375 1.4277 1.4277 6.1502 0.51779 12.389-2.3871zm-213.29-0.17292c0.06-1.4562 0.3562-1.7524 0.7552-0.75522 0.3611 0.90234 0.3167 1.9805-0.099 2.3958-0.4154 0.41536-0.7108-0.32292-0.6565-1.6406zm279.82-5.2083c-0.1387-5.6053-0.947-19.104-1.6653-27.812-0.4437-5.3789-0.3088-7.0048 0.3991-4.8104 0.5881 1.823 1.4718 8.0105 1.9638 13.75 1.1979 13.976 1.5538 16.79 2.5012 19.775 0.5749 1.8113 0.2451 2.5356-1.1545 2.5356-1.2833 0-1.9885-1.1858-2.0443-3.4375zm-557.45 1.95c-0.0186-0.21245-0.57313-5.73-1.2322-12.261-2.731-27.063-4.652-61.25-3.4416-61.25 1.2545 0 1.096-1.6307 1.701 17.5 0.55233 17.466 3.4791 49.071 4.879 52.686 0.43896 1.1336 0.19727 2.4324-0.5371 2.8863-0.73437 0.45386-1.3505 0.65138-1.3691 0.43893zm566.39-24.48c-0.8146-7.3741-1.7724-15.657-2.1284-18.407-0.6092-4.7061-0.5316-4.8569 1.319-2.5656 1.0814 1.3389 1.6653 3.3827 1.2974 4.5417s-0.129 4.5635 0.5307 7.5656c1.9352 8.8054 2.824 20.814 1.5968 21.572-0.6239 0.38559-1.8009-5.3323-2.6155-12.706zm-529.93-1.8449c-0.10575-6.5757 0.3225-10.938 1.074-10.938 1.4196 0 1.437 4.9834 0.0524 15-0.91304 6.605-0.95728 6.4454-1.1264-4.0625zm538.06 2.8125c-0.5139-3.7812-1.1911-10.812-1.505-15.625-0.3139-4.8125-0.8151-9.4531-1.1138-10.312-0.2987-0.85938-0.077-1.5625 0.4932-1.5625 1.471 0 4.8938 27.485 3.8916 31.25-0.6664 2.5037-1.0175 1.7582-1.766-3.75zm5.0405-8.4375c-0.4608-6.0156-1.0885-14.031-1.3947-17.812-0.5213-6.4378-0.4828-6.557 0.6057-1.875 0.6394 2.75 1.4991 7.8125 1.9105 11.25s1.2535 8.1584 1.8713 10.491c0.9561 3.6092-0.088 8.8841-1.7582 8.8841-0.2181 0-0.7737-4.9219-1.2346-10.938zm-592.59 6.2841c-0.45448-1.1844-1.0409-9.7625-1.3032-19.062l-0.47688-16.909 1.0424 13.96c0.5733 7.6783 1.4302 16.256 1.9043 19.062 0.88725 5.2516 0.29324 6.753-1.1666 2.9486zm597.58-11.824c-0.4704-6.4065-1.0895-15.586-1.3757-20.398l-0.5204-8.75 1.7338 10c0.9536 5.5 2.2825 12.529 2.9533 15.62 0.8355 3.8506 0.8046 5.8766-0.098 6.4346-0.7248 0.4479-1.0247 1.9347-0.6667 3.3039 0.3581 1.3693 0.2411 3.1529-0.2599 3.9636-0.501 0.81069-1.2958-3.7677-1.7662-10.174zm6.7102-4.7731c-0.244-3.7812-0.5184-9.6875-0.6099-13.125-0.091-3.4375-0.5834-8.9219-1.0931-12.188-0.5368-3.4392-0.4446-5.9375 0.2191-5.9375 1.0896 0 2.5582 11.092 2.8963 21.875 0.1508 4.8079 0.1925 4.8559 1.0869 1.25 0.5115-2.0625 0.7553-9.9375 0.5417-17.5l-0.3884-13.75 1.1136 11.25c2.5133 25.389 2.5141 24.204-0.017 25.008-1.5843 0.50286-2.4884 2.2238-2.819 5.3663-0.41 3.8976-0.5565 3.5435-0.9303-2.249zm-607.27-30.56c-0.11386-6.1531 0.24366-10.653 0.7945-10 0.55084 0.65312 0.644 5.6875 0.20703 11.188l-0.7945 10-0.20703-11.188zm616.8 8.375c-0.7748-2.561-3.113-16.045-4.1508-23.937-0.5099-3.878-0.3122-5.2458 0.6706-4.6384 0.7666 0.47378 1.3666 2.6674 1.3335 4.8748-0.033 2.2074 0.5826 5.9822 1.3684 8.3884 1.9891 6.0906 3.5516 17.5 2.3967 17.5-0.5261 0-1.2544-0.98438-1.6184-2.1875zm3.6125-14.375c-0.9535-2.6968-3.057-12.727-3.0803-14.688-0.013-1.0312 1.0948-0.1875 2.4602 1.875 1.6222 2.4504 2.4155 5.5911 2.2891 9.0625-0.1976 5.4269-0.6872 6.5269-1.669 3.75zm1.8559-12.917c-0.014-0.63022-0.7774-5.7728-1.697-11.428s-1.3639-10.59-0.9875-10.967c0.3765-0.37647 0.5359-3.4839 0.3543-6.9053-0.2019-3.805 0.1913-6.2208 1.0125-6.2208 0.7385 0 1.4308 2.1094 1.5384 4.6875 0.3239 7.7611 0.7264 10.817 1.7569 13.342 0.7857 1.9249 0.5642 2.2444-1.1106 1.6017-1.4105-0.54127-2.092-0.16119-2.092 1.1667 0 1.1034 0.7153 1.695 1.6266 1.3453 1.2507-0.47995 1.5122 1.0054 1.1316 6.4288-0.2722 3.8791-0.7229 7.2873-1.0015 7.5738-0.2787 0.28645-0.5179 0.005-0.5317-0.625zm-6.0276-6.7708c0-1.7188 0.2837-2.4219 0.6305-1.5625 0.3467 0.85937 0.3467 2.2656 0 3.125-0.3468 0.85937-0.6305 0.15625-0.6305-1.5625zm-63.947-24.792c0-3.5521 0.5517-6.4583 1.2261-6.4583 0.7384 0 0.917 2.3615 0.4489 5.9375-1.0572 8.0769-1.675 8.269-1.675 0.52084zm25.014-9.2708c0.024-4.9848 1.5342-12.188 2.5547-12.188 0.5452 0 0.8935 3.3735 0.7739 7.4967-0.1463 5.046-0.7282 7.4978-1.7799 7.5-0.8594 0.001-1.5563-1.2623-1.5487-2.8092zm-276.26 130.26c17.245-0.99861 25.723-2.1636 40.057-5.5044 17.198-4.0082 31.502-5.7999 33.15-4.1521 1.2631 1.2631 17.792-3.8797 26.58-8.27 31.766-15.87 37.629-21.018 57.47-50.461 5.9142-8.7762 14.896-29.989 16.45-38.85 0.5627-3.209 3.3872-12.022 6.2767-19.585 8.8455-23.151 12.475-39.285 15.045-66.875 1.4243-15.289 2.4409-22.141 5.6574-38.125 1.567-7.7873 1.8489-14.149 1.2739-28.75-0.406-10.312-0.9612-20.156-1.2337-21.875-0.2724-1.7188-0.8547-6.6256-1.294-10.904-1.0674-10.397-3.5052-21.557-10.494-48.039-7.0217-26.607-25.193-47.833-56.438-65.925-11.856-6.8648-41.947-20.556-60-27.298-11.183-4.1768-16.556-5.9186-36.25-11.752-9.6454-2.8571-32.646-7.0022-47.5-8.5603-5.8437-0.613-19.344-2.2581-30-3.6557-27.494-3.6061-38.921-3.8012-75-1.2808-34.237 2.3918-50.541 4.1012-57.5 6.0288-2.4062 0.66652-6.3438 1.4811-8.75 1.8101-7.7832 1.0643-27.929 6.8342-35.348 10.124-3.9727 1.7615-7.7931 3.2028-8.4896 3.2028-1.1005 0-11.351 4.4436-21.162 9.1734-5.2136 2.5135-20.512 12.784-22.341 14.999-0.94355 1.1426-2.2755 2.0775-2.96 2.0775-0.68443 0-3.119 1.5469-5.41 3.4375-2.2911 1.8906-5.6923 4.5625-7.5583 5.9375-6.0905 4.4879-25.84 23.575-32.334 31.25-7.9881 9.4402-16.166 22.414-19.498 30.933-1.4129 3.612-3.2686 7.6922-4.1237 9.0672-1.7178 2.762-7.2436 19.333-9.379 28.125-3.613 14.877-4.8875 31.086-4.3247 55 0.5405 22.967 0.93751 26.654 4.0377 37.5 0.68778 2.4062 1.8918 6.625 2.6755 9.375 0.78376 2.75 2.2441 9.7118 3.2452 15.471 1.0011 5.7589 2.6415 12.059 3.6454 14 1.0039 1.9414 1.8253 4.6495 1.8253 6.0181s0.48084 2.7855 1.0685 3.1487c0.58768 0.3632 2.3326 4.1933 3.8775 8.5113s3.8244 10.101 5.0654 12.851 3.4827 8.0938 4.9815 11.875c9.807 24.741 18.456 37.266 38.945 56.399 22.361 20.881 22.699 21.18 27.331 24.173 2.4163 1.5612 5.1571 3.7588 6.0906 4.8836 0.93346 1.1248 2.2246 2.045 2.8691 2.045 0.64456 0 3.8101 2.0157 7.0344 4.4793 7.2195 5.5161 21.397 12.177 30.384 14.276 3.7008 0.86415 9.2599 2.3366 12.354 3.2721 8.4559 2.5569 35.778 7.7881 45 8.6159 4.4688 0.40113 13.75 1.9039 20.625 3.3394 14.754 3.0808 12.956 2.8982 46.25 4.6958 33.3 1.7979 59.736 3.7656 60.471 4.5013 0.7713 0.77129 2.4561 0.72668 27.654-0.73247zm-93.125-38.07c-45.42-3.78-46.39-3.94-68.37-11.19-32.54-10.72-58.52-22.34-77.26-34.55-22.776-14.85-50.973-47.39-66.317-76.54-6.361-12.08-11.435-29.13-15.504-52.1-1.157-6.5312-2.6034-14.143-3.214-16.915-2.0444-9.2795-2.6338-27.304-1.4759-45.133 1.0385-15.991 1.5298-18.489 5.1613-26.25 8.7044-18.602 26.921-43.128 40.889-55.051 3.8827-3.3143 10.846-9.401 15.473-13.526 9.6293-8.5834 21.662-17.498 30.331-22.473 7.3594-4.2226 30.436-10.487 55.284-15.007 10.312-1.8761 20.039-3.649 21.614-3.9397 1.575-0.29072 2.5097-1.1013 2.077-1.8013-1.2737-2.0608 1.9801-13.588 6.5822-23.318 2.7552-5.8256 6.102-10.603 9.4136-13.438 9.618-8.2326 8.07-3.3862-1.7892 5.6016-3.7482 3.4169-10.952 20.201-11.989 27.934l-0.65115 4.8547 7.9965-0.70596c4.3981-0.38828 13.481-1.0929 20.184-1.5658 11.676-0.8238 12.188-0.98181 12.188-3.7667 0-1.5988 1.1853-6.0749 2.6341-9.947 2.8694-7.6692 13.185-19.333 17.037-19.264 1.7782 0.0319 1.5399 0.62394-1.2336 3.065-1.8906 1.664-3.4375 3.3437-3.4375 3.7326 0 0.38888-1.8446 2.5252-4.099 4.7475-3.6816 3.629-9.8124 17.497-8.3345 18.852 0.3072 0.28181 6.8867 0.76271 14.621 1.0687l14.062 0.55629v-4.0601c0-4.0048 2.2702-7.5902 10.291-16.254 2.656-2.8687 4.3848-3.7246 6.6491-3.2918 4.1033 0.7844 3.8849 2.5325-0.37764 3.023-1.8906 0.21754-3.3238 1.018-3.1848 1.7788 0.13901 0.76079-0.98599 2.061-2.5 2.8894-3.7679 2.0616-7.2694 7.0632-8.3742 11.962l-0.92064 4.082 6.396 0.76853c3.5178 0.4227 11.529 0.77343 17.802 0.7794l11.406 0.0109 0.73274-3.4375c1.5618-7.3271 9.2273-15.357 17.8-18.647 3.8165-1.4645 1.4569 1.6702-4.3918 5.8345-4.3738 3.1142-6.8716 6.0862-8.6672 10.312l-2.5226 5.9375 4.6182 0.0635c6.8986 0.0949 15.104 1.0542 22.181 2.5932 8.6411 1.8791 10.874 1.2466 11.476-3.2505 0.7275-5.4386 2.5259-6.9163 8.3022-6.8216 4.8911 0.0802 4.9969 0.15952 2.0344 1.5256-3.7763 1.7414-7.5 5.6675-7.5 7.9079 0 1.8924 6.6358 3.8975 16.347 4.9395 3.7279 0.39999 9.028 1.2344 11.778 1.8543 6.7695 1.5259 6.6484 1.5527 7.1006-1.5722 0.479-3.31 10.111-10.452 12.284-9.1085 0.9696 0.59923 1.055 1.2106 0.2397 1.7145-0.697 0.43076-1.8313 2.7511-2.5207 5.1562-1.2424 4.3344-1.2545 4.3407-1.3663 0.71766l-0.1127-3.6554-3.125 2.9358c-4.9169 4.6192-3.9874 6.5439 4.7059 9.745 4.2867 1.5785 9.6413 3.6879 11.899 4.6875 5.5475 2.4562 8.703 2.2859 9.5928-0.51766 1.1686-3.6821 5.3133-6.822 7.7638-5.8817 1.9378 0.7436 1.8214 1.1418-1.0494 3.5891-4.9036 4.1804-5.2731 6.7764-1.3094 9.2004 8.1064 4.9576 13.759 8.537 18.887 11.961 4.3084 2.8763 5.7166 3.3074 6.5433 2.0033 0.5795-0.91396 1.0621-2.0378 1.0727-2.4973 0.031-1.345 8.8253-6.3999 9.6682-5.557 0.4222 0.42218 0.103 0.76759-0.7091 0.76759-2.0035 0-6.4295 7.473-6.4353 10.865 0 1.7818 2.443 4.8427 6.9924 8.75 3.8484 3.3052 12.228 12.013 18.622 19.351l11.625 13.342 2.8457-3.0292c1.5652-1.666 3.5598-3.0292 4.4324-3.0292 0.8727 0-0.069 1.8129-2.0929 4.0286-3.8511 4.2164-4.4106 5.9314-2.5805 7.9089 0.6045 0.65313 1.8083 3.4036 2.6753 6.1123 0.8669 2.7086 2.6639 7.3837 3.9933 10.389 2.0047 4.532 2.7263 5.2075 4.2299 3.9596 2.9807-2.4737 3.4798-0.27437 0.7308 3.2204-2.01 2.5553-2.317 3.9727-1.4355 6.6283 2.4312 7.3242 3.3377 21.981 2.9115 47.072-0.2452 14.433-1.0083 27.947-1.6958 30.03-0.6876 2.0832-1.8145 7.863-2.5043 12.844-0.6898 4.9811-1.8059 13.031-2.4803 17.889-0.6743 4.8579-2.0806 11.71-3.125 15.227-1.0444 3.5169-1.8989 8.1729-1.8989 10.347 0 2.1738-1.125 7.2223-2.5 11.219-1.375 3.9965-2.5 8.5587-2.5 10.138 0 2.5996-4.2239 16.312-9.3004 30.192-1.0721 2.9315-4.4807 8.4378-7.5745 12.236-3.0938 3.7984-5.6251 7.5428-5.6251 8.3208 0 1.2791-5.6795 6.9908-17.994 18.095-2.4289 2.1903-6.2646 4.8398-8.5238 5.8877-7.9717 3.6976-23.483 8.1298-31.248 8.9288-4.3226 0.44476-11.516 1.8532-15.984 3.1299-4.4687 1.2767-11.219 3.135-15 4.1296-3.7812 0.99458-11.12 3.0029-16.308 4.4629-8.0289 2.2595-12.422 2.6241-29.517 2.4498-11.046-0.11262-20.593 0.10988-21.215 0.4946-2.6664 1.648-33.912 1.8188-52.335 0.28611zm75-2.995c13.867-0.5383 26.392-1.6064 28.125-2.3985 4.1942-1.9166 39.111-10.646 53.056-13.264 17.542-3.2937 27.176-7.9263 38.819-18.667 17.951-16.559 26.934-33.205 35.174-65.177 5.8517-22.706-1.7487-47.312-21.555-69.784-13.232-15.013-26.969-24.313-57.37-38.837-13.991-6.6846-43.996-15.906-61.875-19.017-1.7187-0.29903-6.6483-1.4028-10.954-2.4529-4.3062-1.0501-12.181-2.4595-17.5-3.1321-5.3188-0.67254-14.17-1.8476-19.67-2.6112-14.579-2.0241-62.706-1.4988-80.484 0.87851-3.1713 0.42407-11.391 1.9155-18.266 3.3142s-13.625 2.6778-15 2.8424c-5.6044 0.67088-10.625 2.1872-10.625 3.209 0 0.59747-1.2955 2.4842-2.8789 4.1927s-6.7362 11.441-11.451 21.627c-4.7145 10.186-11.816 24.286-15.782 31.333-3.9654 7.0469-6.9 12.812-6.5212 12.812 0.37879 0-0.0112 0.84375-0.8674 1.875-1.7209 2.0736-3.75 2.4888-3.75 0.76744 0-0.60915 2.2194-4.4311 4.932-8.4932 5.9341-8.8864 23.43-43.646 29.305-58.22 1.86-4.6145 1.8451-4.6863-0.8594-4.1282-1.5138 0.31239-5.9867 0.91929-9.9399 1.3487-3.9531 0.42938-7.1875 1.3027-7.1875 1.9407 0 0.63803-0.95939 1.16-2.132 1.16s-6.3757 2.0246-11.562 4.4991c-10.447 4.9841-16.175 11.228-19.848 21.638-2.5251 7.1563-2.4781 7.0923-4.0564 5.5141-0.90939-0.90939-0.12325-3.4952 2.5841-8.4992 2.1401-3.9557 3.628-7.4553 3.3065-7.7768-0.32153-0.32153-3.604 1.3468-7.2943 3.7075-7.1608 4.5807-13.498 11.218-13.498 14.138 0 0.9785-0.5625 1.7791-1.25 1.7791-1.6777 0-1.5895-2.9105 0.14063-4.6406 0.76484-0.76485 1.1702-2.052 0.90074-2.8603-0.27208-0.81623-4.8638 2.3307-10.328 7.0781-8.7222 7.5783-10.658 10.107-17.072 22.298-8.532 16.217-12.349 29.447-13.041 45.202l-0.50315 11.452 8.0351 10.903c18.345 24.892 36.417 42.437 55.632 54.009 21.81 13.135 69.903 31.9 91.613 35.747 27.345 4.8447 56.723 7.1388 80.247 6.2663 8.9375-0.33148 27.5-1.0394 41.25-1.5731zm-73.125-24.307c0-0.23394 1.6519-3.7496 3.6709-7.8125 6.0498-12.174 19.651-46.904 21.184-54.093 0.78661-3.688 2.8055-10.157 4.4865-14.375 1.681-4.2182 4.1328-11.045 5.4486-15.17s7.8739-20.438 14.574-36.25c6.6996-15.812 13.762-34.094 15.694-40.625 9.7738-33.043 10.038-33.75 12.621-33.75 0.6173 0-0.014 2.2276-1.4031 4.9502-1.389 2.7226-2.5254 5.9851-2.5254 7.25s-0.4796 2.8342-1.0657 3.4873c-0.5862 0.65313-1.7868 4-2.6682 7.4375-3.4764 13.559-7.1258 23.542-17.822 48.75-9.7263 22.923-15.217 37.38-22.55 59.375-11.363 34.081-16.412 47.788-22.92 62.222-1.636 3.6282-2.9745 7.1438-2.9745 7.8125s-0.84375 1.2158-1.875 1.2158-1.875-0.1914-1.875-0.42535zm67.5-3.7408c0-0.22886 2.0012-5.9945 4.447-12.812 2.4459-6.818 5.1943-15.018 6.1076-18.223 0.9132-3.2045 2.0138-6.398 2.4456-7.0966 0.4317-0.69864 2.126-6.5565 3.7649-13.017 1.639-6.461 6.4466-21.83 10.684-34.153 4.2369-12.323 8.9349-26.362 10.44-31.196 5.6187-18.049 22.771-65.555 23.674-65.57 1.5403-0.0254 1.0653 3.7454-0.9185 7.2917-2.7541 4.9233-15.881 41.1-19.573 53.943-0.6917 2.4062-5.4478 16.823-10.569 32.038s-10.162 30.965-11.201 35c-2.6568 10.316-7.8357 27.553-10.279 34.212-1.1352 3.0938-2.1264 5.9062-2.2027 6.25-0.076 0.34375-0.5903 2.875-1.1423 5.625-1.0422 5.1924-2.6955 8.125-4.5806 8.125-0.6034 0-1.097-0.18725-1.097-0.4161zm63.507-1.4932c-0.3626-0.36264 1.2441-6.1283 3.5704-12.812 2.3264-6.6842 6.4016-18.622 9.0562-26.528 2.6545-7.9062 9.4685-27.594 15.142-43.75 5.6737-16.156 12.398-35.317 14.942-42.579 2.5444-7.2624 4.9847-14.997 5.4229-17.188 0.4381-2.1908 1.3223-3.9832 1.9647-3.9832 1.0615 0-4.846 20.284-8.555 29.375-2.4146 5.9181-17.938 50.74-29.655 85.625-5.8883 17.531-10.824 32.016-10.968 32.188-0.1438 0.17187-0.5581 0.0158-0.9208-0.34684zm-169.76-3.8347c0-0.40923 1.9416-4.7686 4.3146-9.6875 7.9824-16.546 26.644-60.318 31.526-73.943 1.724-4.8125 7.2241-17.75 12.222-28.75 14.038-30.894 18.7-42.405 24.298-60 2.8924-9.09 6.5209-17.902 8.2349-20 1.8034-2.2071 3.0826-3.0117 3.1091-1.9556 0.0247 0.98693-1.0164 2.9557-2.3136 4.375-2.3327 2.5523-4.9517 9.3347-10.168 26.331-1.4769 4.8125-4.6632 13.531-7.0806 19.375-2.4174 5.8438-4.8568 11.75-5.4209 13.125-0.56408 1.375-3.2621 7.2812-5.9957 13.125-6.8903 14.73-12.955 28.938-17.073 40-4.8594 13.052-13.739 33.965-18.842 44.375-2.3591 4.8125-4.672 10.719-5.1399 13.125-0.46786 2.4062-1.8771 6.0625-3.1317 8.125s-2.2832 4.9284-2.2857 6.3688c-0.002 1.4403-1.0333 3.5497-2.2906 4.6875-2.3339 2.1122-3.9641 2.6569-3.9641 1.3247zm223.75-11.535c0-0.6807 1.6174-4.8426 3.5943-9.2486 1.9768-4.406 4.5598-11.332 5.7398-15.391 1.1801-4.0592 3.3062-9.6474 4.7247-12.418 1.4186-2.7707 4.1332-9.5376 6.0326-15.038 3.1924-9.2444 8.3176-23.49 13.192-36.669 1.2296-3.3241 2.4518-4.9711 3.1619-4.261 0.7102 0.71014-0.2531 4.2542-2.4919 9.1686-3.6715 8.0591-5.8167 13.555-13.372 34.261-2.2578 6.1875-6.9919 19.125-10.52 28.75-3.5284 9.625-6.5816 18.313-6.7849 19.307-0.4235 2.0705-3.2762 3.4101-3.2762 1.5384zm-251.8-3.8553c-0.34854-0.56397 0.42223-3.2113 1.7128-5.8829 5.3084-10.989 9.1815-20.211 10.965-26.108 2.3793-7.8683 13.665-33.533 17.358-39.476 5.6511-9.0921 25.441-49.496 27.501-56.149 1.1712-3.7812 3.1038-9.125 4.2946-11.875s4.9861-11.469 8.4338-19.375c3.4478-7.9062 6.6484-15.641 7.1126-17.188 1.237-4.1229 3.6285-3.5466 2.5935 0.625-0.46911 1.8906-1.3738 3.625-2.0105 3.8542-0.63666 0.22918-1.1576 1.0812-1.1576 1.8935 0 0.81226-1.0615 3.4574-2.3589 5.878-3.8382 7.1612-12.609 28.322-15.177 36.615-1.3106 4.2331-8.0518 18.665-14.98 32.072-18.616 36.02-24.256 48.003-29.122 61.875-2.4114 6.875-5.9505 15.875-7.8646 20s-3.3825 8.7096-3.2632 10.188c0.21666 2.6841-2.8384 4.9934-4.0381 3.0523zm113.05-11.149c0-5.6246 12.062-41.796 23.832-71.466 4.4357-11.182 12.129-32.806 27.016-75.938 1.7203-4.9844 3.6396-9.0625 4.265-9.0625 1.4977 0 1.4591 2.928-0.059 4.4457-1.2691 1.269-14.047 36.085-15.572 42.429-0.8161 3.3945-14.22 40.252-19.093 52.5-1.094 2.75-3.2336 8.375-4.7546 12.5s-3.4262 9.1236-4.2338 11.108c-0.80763 1.9844-1.7817 5.6407-2.1646 8.125-0.38288 2.4843-1.6935 6.7973-2.9124 9.5844-1.219 2.7871-2.6104 7.6959-3.0922 10.908-0.88 5.8682-3.2314 9.4086-3.2314 4.8652zm66.25-8.8347c0-0.72981 4.1565-13.292 9.2367-27.917 5.0802-14.624 11.215-33.058 13.633-40.965 2.4179-7.9062 6.698-21.125 9.5113-29.375 2.8132-8.25 6.2647-19.078 7.6699-24.062 1.4052-4.9844 3.0936-9.0625 3.752-9.0625 1.8144 0 1.4211 3.9252-0.8141 8.125-1.0976 2.0625-3.2847 7.9688-4.86 13.125-1.5754 5.1562-5.143 15.844-7.928 23.75-2.7851 7.9062-6.2614 18.594-7.7252 23.75-2.7414 9.6568-7.464 23.937-14.055 42.5-2.075 5.8438-4.1153 12.829-4.5341 15.523s-1.4645 5.1316-2.3239 5.4167c-0.8594 0.28512-1.5625-0.0788-1.5625-0.80853zm-193.99-15.784c-0.36203-0.36202 2.5582-7.2539 6.4893-15.315 3.9312-8.0614 7.5897-16.063 8.1302-17.782 4.1344-13.148 53.776-113.84 56.554-114.72 2.7846-0.87512 1.6555 3.1033-1.9874 7.0031-1.9524 2.0901-7.0762 11.571-11.386 21.07-4.3099 9.4982-9.6822 20.363-11.938 24.144-5.6176 9.415-12.894 24.226-19.959 40.625-8.7203 20.241-8.7425 20.292-14.281 32.583-2.8085 6.233-5.4588 13.095-5.8896 15.249-0.77052 3.8526-4.4442 8.429-5.7323 7.1408zm257.13-3.1857c0.4637-2.1112 3.289-10.408 6.2785-18.438 5.1385-13.802 19.754-52.425 21.37-56.474 0.5117-1.2818 0.9258-1.4026 1.309-0.3818 0.3083 0.82126-0.135 2.79-0.9852 4.375-1.4231 2.6531-5.8427 14.258-20.587 54.058-3.0412 8.2092-5.5295 16.225-5.5295 17.812 0 1.5877-0.6072 2.8867-1.3493 2.8867-0.8559 0-1.041-1.4038-0.5063-3.8384zm-274.65-25.59c-0.99539-0.99539 5.3359-15.197 16.418-36.827 5.1075-9.9688 15.954-31.506 24.103-47.862 8.4338-16.927 15.36-29.4 16.079-28.956 0.77754 0.48054 0.29213 2.3007-1.2632 4.7365-1.3893 2.1758-8.3455 15.487-15.458 29.581-7.1127 14.094-16.597 32.656-21.075 41.25-8.1728 15.682-14.473 30.275-15.239 35.299-0.41408 2.7133-2.2201 4.1209-3.5637 2.7773zm14.696-66.722c-1.0904-1.7644 1.3766-7.7187 13.369-32.266 5.8766-12.029 8.9478-16.5 10.363-15.084 0.33601 0.33601-0.9948 2.6315-2.9574 5.101-4.8356 6.0848-19.323 38.138-18.558 41.061 0.62612 2.3943-0.94868 3.2387-2.216 1.1882zm-39.75-10.832c-1.9548-1.9548 13.09-28.023 16.173-28.023 1.7203 0 1.7152 0.32049-0.048 3.0113-1.0852 1.6562-3.2726 4.4135-4.861 6.1274-3.7212 4.0153-8.4535 13.496-8.4535 16.936 0 2.5741-1.2902 3.4687-2.8103 1.9486zm-81.131 71.331c0.22366-5.9131 3.1056-20.931 5.393-28.104 0.76738-2.4062 4.2704-9.6615 7.7845-16.123 6.9945-12.861 17.45-24.403 27.014-29.821 3.0938-1.7526 10.125-6.0157 15.625-9.4734 11.6-7.293 27.101-15.53 32.5-17.271 2.0625-0.66497 10.5-3.0768 18.75-5.3596 13.732-3.7997 22.74-5.7288 53.125-11.377 7.1998-1.3383 20.901-2.1491 42.5-2.5152 27.655-0.46879 33.943-0.20773 47.5 1.972 8.5938 1.3818 19.144 3.0105 23.445 3.6195 4.301 0.60891 12.738 2.2594 18.75 3.6678 6.0116 1.4084 15.83 3.6811 21.819 5.0505 19.004 4.3454 45.11 15.839 75.901 33.418 3.1407 1.793 11.617 9.3028 18.835 16.689 14.089 14.415 20.396 24.078 25.147 38.533 3.5417 10.774 4.4047 11.61 5.8977 5.7116 2.5387-10.029 2.9812-16.722 1.1056-16.722-0.9641 0-3.5337-3.5156-5.7104-7.8125-5.3385-10.539-6.0824-11.66-13.516-20.378-10.099-11.843-20.361-21.679-27.89-26.731-14.145-9.4914-43.163-23.701-56.61-27.722-6.9577-2.0801-44.76-9.9186-56.55-11.726-35.214-5.398-46.719-6.7594-62.749-7.4246-19.07-0.79139-21.626-1.2621-21.626-3.9834 0-1.2885 1.0586-1.5726 3.9573-1.0619 2.1765 0.38346 4.3974 0.96914 4.9352 1.3015 0.53784 0.33239 7.8977 0.88314 16.355 1.2239 21.417 0.86285 43.065 3.9235 84.127 11.894 7.5625 1.468 16.281 3.1353 19.375 3.7052 25.55 4.7064 74.219 30.448 87.5 46.28 2.4063 2.8684 6.8096 7.7996 9.7853 10.958 4.965 5.2703 15.215 20.917 15.215 23.226 0 1.7358 4.641 6.9418 5.4591 6.1237 0.435-0.43501 0.8043-2.8066 0.8207-5.2701 0.016-2.4635 0.5197-6.5885 1.1184-9.1667 0.8459-3.6427 0.7117-4.6875-0.6021-4.6875-0.9299 0-3.1369-2.4678-4.9045-5.484-2.9764-5.0788-21.788-24.285-29.595-30.217-1.8647-1.4167-7.4343-6.1962-12.377-10.621-11.443-10.245-14.541-12.046-34.295-19.939-18.115-7.2383-27.648-10.32-38.75-12.528-4.125-0.82015-8.4315-1.9822-9.57-2.5823-1.1386-0.60014-7.6286-1.926-14.422-2.9464-6.7938-1.0204-16.55-2.7383-21.68-3.8176-9.9396-2.091-20.893-3.741-33.078-4.9829-4.125-0.42042-10.312-1.2978-13.75-1.9498-5.5797-1.0582-17.385-1.9979-29.136-2.3191-2.4162-0.066-3.815-0.63289-3.3637-1.3631 1.2306-1.9911 21.567-1.0926 37.5 1.6569 1.375 0.23729 5.875 0.82593 10 1.3081 4.125 0.48218 12.281 1.6752 18.125 2.6511 34.987 5.8428 42.673 7.2915 50 9.4243 4.4688 1.3008 10.656 2.7287 13.75 3.1732 5.0727 0.72886 19.209 5.1087 25.625 7.9397 1.375 0.60665 5.875 2.3625 10 3.9019 12.72 4.747 24.768 11.208 30 16.088 2.75 2.565 6.9688 6.21 9.375 8.1001 9.7706 7.6744 33.724 31.29 37.009 36.486 1.9316 3.0558 4.098 5.3639 4.8142 5.129 1.9721-0.64676 2.3125-10.902 0.4824-14.534-0.8865-1.7594-3.3147-5.2452-5.396-7.7463s-5.4717-6.9076-7.5342-9.7923-9.375-10.709-16.25-17.388c-13.624-13.235-28.8-23.425-44.375-29.794-26.554-10.859-104.03-27.272-143.71-30.443-17.465-1.3959-18.793-1.6709-18.793-3.8898 0-0.84827 1.4763-1.0166 4.0625-0.46327 4.4773 0.95795 8.2323 1.3899 22.188 2.5524 8.0176 0.66786 36.629 4.636 44.385 6.156 10.857 2.1274 22.418 4.6795 23.096 5.0982 0.4506 0.27853 6.4049 1.4313 13.232 2.5617 6.8268 1.1304 18.881 4.0022 26.787 6.3818 7.9063 2.3796 17.469 5.2306 21.25 6.3356 8.2985 2.425 25.31 10.594 30.831 14.805 2.2012 1.6789 4.4036 3.0526 4.8943 3.0526 1.7117 0 12.461 9.4203 20.671 18.115 7.4567 7.8969 11.145 12.18 21.804 25.323 1.8123 2.2344 3.8021 4.0625 4.4219 4.0625s1.1269-5.3438 1.1269-11.875c0-8.8362-0.4108-11.875-1.6055-11.875-0.883 0-2.5232-1.5469-3.6449-3.4375-2.9429-4.9602-14.006-15.69-24.125-23.397-13.743-10.468-47.941-24.546-85.353-35.137-35.339-10.004-58.353-15.066-73.397-16.145-5.5-0.39434-15.062-1.2516-21.25-1.9051-6.1875-0.65346-19.406-1.4518-29.375-1.7742-9.9688-0.32234-18.266-0.61283-18.438-0.64553-0.17188-0.0327-0.3125-0.96707-0.3125-2.0764 0-1.6635 0.93091-1.8784 5.3125-1.2266 2.9219 0.4347 10.656 1.0579 17.188 1.3848 6.5312 0.32697 15.812 0.8861 20.625 1.2425 4.8125 0.35644 12.688 0.9388 17.5 1.2942 12.746 0.94116 18.843 1.7541 28.707 3.8276 4.8363 1.0166 11.324 2.1497 14.418 2.518 3.0938 0.36827 7.9505 1.6907 10.793 2.9387 2.8423 1.248 7.6235 2.6503 10.625 3.1162 3.0015 0.46595 9.9573 2.2191 15.457 3.8959 5.5 1.6768 12.25 3.654 15 4.3938 12.399 3.3357 50.449 18.073 56.518 21.89 1.5227 0.95775 3.5516 1.7414 4.5086 1.7414 1.9181 0 16.992 10.933 22.2 16.102 1.814 1.8002 5.2049 5.0271 7.5355 7.1709 2.3305 2.1438 5.7842 6.0312 7.6748 8.6388l3.4375 4.741-0.1236-7.3888c-0.2182-13.04-1.5735-20.885-3.6601-21.186-1.9465-0.28065-6.1966-3.0118-16.216-10.421-5.7073-4.2203-9.524-6.1128-31.875-15.805-6.875-2.9812-16.438-7.3453-21.25-9.6979-9.6753-4.7298-26.018-10.28-33.75-11.463-6.7234-1.0283-25.355-5.278-36.875-8.411-5.1562-1.4023-10.781-2.6899-12.5-2.8613-3.6751-0.36663-21.941-5.0872-30-7.7532-3.9084-1.2929-13.445-2.0575-31.25-2.5055-14.923-0.37545-26.147-1.1787-26.875-1.9232-2.1222-2.1706 52.57-0.39696 59.375 1.9255 5.4846 1.8718 22.476 6.0557 31.25 7.6949 2.4063 0.44953 7.75 1.8844 11.875 3.1885s10.312 2.7312 13.75 3.1712c3.4375 0.44 8.5 1.5272 11.25 2.4159 2.75 0.88875 7.8125 1.9892 11.25 2.4455 8.6121 1.1432 22.446 6.0566 38.75 13.763 7.5625 3.5746 16.562 7.558 20 8.8519 9.199 3.4625 20.47 9.5339 32.247 17.37 5.7326 3.8146 10.793 6.9356 11.244 6.9356 0.4518 0 0.273-1.4429-0.3975-3.2064s-1.2191-4.8375-1.2191-6.831c0-2.4842-0.8849-4.0933-2.8125-5.1142-1.5469-0.81926-8.6388-5.9505-15.76-11.403-17.838-13.658-30.117-20.942-35.336-20.961-2.3192-0.009-9.8417-1.7092-16.717-3.7789-10.641-3.2034-28.392-7.6423-62.021-15.509-6.8733-1.6078-14.87-3.9137-18.604-5.3647-1.0312-0.40069-2.2534-0.65369-2.716-0.56224-0.4625 0.0915-4.1188-0.93636-8.125-2.284-5.4546-1.8349-12.15-2.6225-26.659-3.136-16.594-0.58728-30.628-1.6336-34.062-2.5395-0.51563-0.13601-2.7656-0.32623-5-0.42269-5.1055-0.22042-8.2689-2.0557-6.5339-3.7907 0.84364-0.84364 3.721-0.66532 8.7396 0.5416 4.115 0.98962 14.232 2.1312 22.482 2.5369 26.174 1.2871 37.075 2.7908 53.75 7.4148 26.466 7.3388 28.2 7.7869 41.25 10.655 6.875 1.511 18.406 4.3962 25.625 6.4116 7.2188 2.0154 16.106 4.4922 19.748 5.5041 3.6429 1.0118 8.2673 1.8397 10.276 1.8397 4.6544 0 19.282 8.623 35.293 20.806 6.8067 5.1791 12.569 9.2231 12.806 8.9866 1.2976-1.2976-5.0105-14.681-9.6294-20.431-4.2854-5.334-6.8841-7.2575-12.87-9.5256-4.125-1.5631-12-5.2501-17.5-8.1933s-11.192-5.3608-12.65-5.3722c-1.4573-0.0113-6.2385-1.2007-10.625-2.6426-9.7958-3.2202-27.972-7.3766-32.287-7.3832-1.7535-0.002-12.47-2.543-23.813-5.6451-11.344-3.1021-24.281-6.1938-28.75-6.8704-9.5935-1.4526-22.363-3.8579-38.75-7.2992-9.7445-2.0464-20.183-3.2974-32.188-3.8575-0.85938-0.0401-1.5625-0.69587-1.5625-1.4573 0-2.7998 36.414 1.2105 46.25 5.0936 1.7188 0.67853 10.719 2.347 20 3.7077 9.2813 1.3607 22.781 4.2251 30 6.3653 7.2188 2.1402 19.252 4.9807 26.741 6.3122 7.4888 1.3315 16.489 3.2171 20 4.1902 22.93 6.355 34.281 10.127 39.345 13.076 7.5608 4.4022 18.914 9.034 18.914 7.7162 0-2.0518-18.019-18.895-19.576-18.298-0.8769 0.33649-1.904 0.11075-2.2825-0.50163-0.3784-0.61239-3.9121-2.0224-7.8525-3.1334-11.758-3.3151-47.067-14.705-48.414-15.617-6.1574-4.1686-33.742-11.057-50.078-12.506-8.2073-0.72793-18.86-2.1081-23.672-3.0671-20.309-4.0468-26.027-4.713-45.938-5.3516-14.865-0.47676-20.938-1.099-20.938-2.1453 0-1.0678 4.218-1.3912 15.312-1.1739 18.103 0.35449 22.889 0.83592 48.438 4.872 10.656 1.6835 25.562 3.839 33.125 4.7901 17.381 2.1859 41.53 9.3867 63.779 19.018 2.0785 0.89972 5.2635 1.905 7.0779 2.234 1.8143 0.329 4.3352 1.1529 5.602 1.8308 1.2668 0.67798 5.3942 1.8082 9.1721 2.5117 3.7779 0.70346 7.9939 1.6966 9.3689 2.2069 5.5399 2.0562-2.0333-4.2086-14.107-11.669-15.206-9.3964-17.346-10.489-29.643-15.129-5.5-2.0754-13.141-4.9651-16.981-6.4217-7.1333-2.7062-22.673-5.6031-40.519-7.5535-5.5-0.60109-12.531-1.6328-15.625-2.2926-3.0937-0.65985-10.969-1.2794-17.5-1.3768-6.5312-0.0974-17.219-0.41309-23.75-0.70156-33.895-1.4971-50.95-1.3265-75 0.75018-37.207 3.2128-83.235 12.916-95.625 20.158-33.165 19.386-72.46 60.16-85.593 88.816-4.2012 9.1661-5.8482 15.924-3.8809 15.924 0.74212 0 1.3493-0.50232 1.3493-1.1163 0-0.61395 0.80577-1.4255 1.7906-1.8034 1.2851-0.49314 1.0623 0.5472-0.7891 3.6851-2.9026 4.9196-5.1569 20.283-4.8397 32.985 0.3708 14.848 7.7325 54.703 13.48 72.979 2.9236 9.2965 11.768 26.286 12.808 24.603 0.49499-0.80091 0.99397-3.941 1.1088-6.9779zm420.18-188.48c0-3.0802 8.9171-12.795 10.391-11.321 1.2556 1.2555 1.051 4.4584-0.2339 3.6643-1.7152-1.06-7.6573 5.1234-7.6573 7.9681 0 1.4078-0.5625 2.5597-1.25 2.5597s-1.25-1.2921-1.25-2.8713z"/>
</svg>
