<?xml version="1.0" encoding="UTF-8" standalone="no"?>
<!-- Created with Inkscape (http://www.inkscape.org/) -->
<svg id="svg3929" xmlns:rdf="http://www.w3.org/1999/02/22-rdf-syntax-ns#" xmlns="http://www.w3.org/2000/svg" height="745" viewBox="0 0 795.66199 745.00385" width="795.66" version="1.1" xmlns:cc="http://creativecommons.org/ns#" xmlns:dc="http://purl.org/dc/elements/1.1/">
 <metadata id="metadata3935">
  <rdf:RDF>
   <cc:Work rdf:about="">
    <dc:format>image/svg+xml</dc:format>
    <dc:type rdf:resource="http://purl.org/dc/dcmitype/StillImage"/>
    <dc:title/>
   </cc:Work>
  </rdf:RDF>
 </metadata>
 <path id="path3939" d="m618 742.41c-2.3282-1.4194-11.047-5.1083-19.375-8.1977-8.3281-3.0893-18.377-7.2251-22.331-9.1907-12.558-6.2428-13.411-6.1317-18.27 2.3821-2.315 4.0563-6.2987 9.4155-8.8527 11.909-4.2776 4.1769-4.9312 4.4233-8.291 3.1253-2.006-0.77498-7.0223-2.1888-11.147-3.1418-12.105-2.7966-18.906-4.8585-20.763-6.2946-0.9553-0.73889-4.9868-2.632-8.9588-4.207-3.9721-1.575-8.2687-4.1942-9.5481-5.8206-1.5204-1.9329-6.2601-4.2427-13.685-6.6689-12.256-4.005-18.685-7.1216-27.997-13.572-9.7781-6.7735-13.845-7.9904-23.889-7.1479-4.9001 0.41099-10.597 1.0706-12.659 1.4658-4.59 0.87948-9.375 5.0682-9.375 8.2067 0 4.5086-3.6242 11.006-6.8159 12.219-1.7527 0.66639-7.7288 1.2942-13.28 1.395-5.5514 0.10088-12.123 0.64128-14.605 1.2009-6.3424 1.4304-8.4178-0.13158-13.449-10.122-2.41-4.7857-4.7967-8.6975-5.3037-8.6928-0.50699 0.005-2.2497 1.9585-3.8726 4.3418-4.0413 5.9345-8.5334 10.65-10.146 10.65-2.3934 0-14.08-4.4754-28.935-11.08-7.9922-3.5537-15.305-6.1377-16.25-5.7423-0.9453 0.3954-3.4062 2.9736-5.4687 5.7293-8.0907 10.81-6.3532 10.508-20.878 3.6318-7.0794-3.3513-17.653-8.8829-23.497-12.292-7.9063-4.6129-10.987-5.8373-12.04-4.7851-1.9278 1.926-5.812 14.208-4.9397 15.619 0.3863 0.62505-0.1352 1.8316-1.1589 2.6812-1.0237 0.84957-1.8612 2.3196-1.8612 3.2666 0 1.2957-2.1281 1.722-8.5967 1.722-4.7282 0-12.619 0.90844-17.536 2.0188l-8.9393 2.0187-3.0891-3.3332c-1.699-1.8332-3.1121-4.2885-3.1403-5.4562-0.0281-1.1677-4.5289-7.7481-10.002-14.623-5.4727-6.875-12.243-15.487-15.044-19.138-2.8016-3.6511-5.8942-6.9455-6.8724-7.3208-0.98418-0.37766-3.3571 0.91234-5.3131 2.8884-4.0793 4.121-32.111 30.412-38.676 36.275-7.6088 6.7943-8.7029 6.4626-22.415-6.7959-21.752-21.04-32.087-30.82-39.953-37.82l-7.704-6.84-0.513-11.93c-0.68-15.78-3.176-20.65-19.078-37.19-15.644-16.27-16.288-18.24-8.9709-27.47 2.8713-3.6192 7.7517-9.9254 10.845-14.014 6.8067-8.9953 19.567-23.513 23.449-26.678 1.5534-1.2666 2.4874-2.8481 2.0755-3.5146-0.892-1.44-4.087-21.37-4.983-31.08-0.34869-3.7812-1.2037-9.6875-1.9-13.125-2.1014-10.374-2.7109-20.625-1.2264-20.625 0.73401 0 1.3346-1.4062 1.3346-3.125s0.44365-3.125 0.98589-3.125 2.8273-3.0383 5.0779-6.7517c2.2506-3.7135 5.1819-7.7381 6.5141-8.9437s2.4221-2.7229 2.4221-3.3718c0-0.64886 1.6875-2.7561 3.75-4.6828 3.1664-2.9578 3.7894-4.5436 4.0029-10.189 0.13908-3.6773 0.36361-8.936 0.49896-11.686 0.13534-2.75 0.63871-19.051 1.1186-36.225 0.96413-34.505 1.229-35.705 10.195-46.201 2.3144-2.7093 3.7808-5.3036 3.2589-5.765-0.52197-0.4615-8.2615-4.1243-17.199-8.1395s-17.938-8.5463-20-10.069c-2.0625-1.5227-6.2812-4.0987-9.375-5.7243-4.5048-2.3671-5.5852-3.5702-5.4252-6.041 0.24152-3.73 0.86317-6.4093 1.8759-8.0852 0.41545-0.6875 1.1297-2.9375 1.5872-5 1.0247-4.6195 4.3048-8.4434 13.908-16.214 4.086-3.3062 11.367-9.8107 16.179-14.454 13.493-13.02 24.344-21.515 28.616-22.403l3.8836-0.80736-0.41833-14.634c-0.391-13.69-0.695-15.21-4.687-23.41-2.348-4.8247-4.2692-9.1209-4.2692-9.5472 0-0.42624-5.2534-11.263-11.674-24.081-6.4208-12.818-11.512-24.126-11.315-25.129 0.19779-1.003 0.71785-4.0736 1.1557-6.8236s1.1187-5.8438 1.513-6.875c0.39429-1.0312 0.59715-2.3882 0.45081-3.0154-0.6885-2.9509 3.0556-8.0057 8.8539-11.953 5.7992-3.9481 19.373-14.83 27.265-21.859 8.8126-7.8481 22.036-24.105 28.762-35.36 2.1569-3.6094 4.8237-6.5625 5.9263-6.5625 2.1731 0 6.8085 4.8768 13.069 13.75 2.1829 3.0938 5.9711 7.761 8.4182 10.372 5.5271 5.8966 5.7651 5.8745 31.361-2.9076 30.096-10.326 35.619-12.765 35.408-15.635-0.0992-1.3497-2.4423-7.7977-5.2069-14.329-2.7646-6.5312-4.6522-12.241-4.1947-12.689 1.7241-1.6865 27.503-11.068 37.707-13.722 5.8438-1.5201 14.499-4.3558 19.234-6.3014 4.74-1.9581 9.61-3.55 10.84-3.55 1.5681 0 3.9194 3.4302 7.9259 11.562 5.9632 12.104 7.4141 14.692 14.541 25.938 2.3964 3.7812 5.6944 9.6214 7.3288 12.978l2.9718 6.103 10.142-0.95246c5.5782-0.52386 10.986-0.94859 12.017-0.94385 18.783 0.0863 40.796 0.8086 45.948 1.5077 7.4279 1.008 9.5367 0.026 15.855-7.3834 7.7254-9.0593 12.968-13.809 15.238-13.803 3.2631 0.0081 8.5943 5.5765 17.282 18.051 4.22 6.0593 8.3369 10.693 9.5 10.693 2.4802 0 12.428-7.01 12.428-8.7578 0-0.68319 0.72542-1.2422 1.6121-1.2422 0.88663 0 4.0697-2.1094 7.0735-4.6875s8.8836-7.6406 13.066-11.25c4.1827-3.6094 8.6156-6.5625 9.851-6.5625 2.3317 0 15.971 11.882 26.105 22.742l5.8331 6.2508 12.292-12.809c27.758-28.925 28.98-29.594 38.943-21.336 3.2171 2.6667 9.3606 7.2133 13.652 10.103 4.2917 2.8901 8.7917 6.4935 10 8.0075 2.0907 2.6196 5.9114 6.136 26.454 24.347 5.3014 4.6996 9.6716 7.653 10.726 7.2484 0.9786-0.37552 2.8871-2.8196 4.241-5.4312 4.1459-7.9971 13.111-19.899 22.406-29.746 10.062-10.66 11.855-11.185 23.012-6.7508 3.6348 1.4447 16.863 5.9801 29.396 10.079 12.533 4.0985 23.186 8.0966 23.673 8.8848 0.4871 0.78812 0.7451 3.7188 0.5733 6.5126-0.4369 7.1037 1.5483 11.433 6.3503 13.848 2.2639 1.1387 7.3813 4.602 11.372 7.6963 3.9906 3.0943 8.6246 5.7052 10.298 5.8021 1.6732 0.0968 3.3086 0.86936 3.6343 1.7168 0.3837 0.99842 1.9222 1.2748 4.3705 0.7851 2.637-0.52739 3.923-0.23762 4.2573 0.95924 0.676 2.4204 4.6323 30.579 5.2463 37.34 0.2809 3.0938 1.1837 7.7604 2.0061 10.37l1.4954 4.7453-8.0316 8.3384c-4.4174 4.5861-8.5718 8.7445-9.232 9.2409-0.7182 0.54008-0.3417 1.8512 0.9375 3.2648 1.1758 1.2992 2.1378 3.2832 2.1378 4.4089s0.9217 4.1751 2.0483 6.7766c3.5127 8.1115 3.9743 9.402 7.953 22.23 2.1323 6.875 4.6422 14.188 5.5774 16.25 1.9402 4.2786 4.4213 11.739 4.4213 13.295 0 0.57569-1.8464 1.8182-4.1031 2.7611-2.9378 1.2275-6.3103 4.981-11.875 13.217-4.2745 6.3263-7.7719 11.806-7.7719 12.176 0 0.37065 3.2344 6.1025 7.1875 12.738 3.9532 6.635 7.4116 12.626 7.6854 13.314 0.2738 0.6875 2.7087 5.9275 5.4108 11.644l4.9131 10.394-4.5733 11.481c-2.5153 6.3143-5.0908 12.015-5.7234 12.668-0.6325 0.65313-1.1501 2.1617-1.1501 3.3524 0 2.7116-6.3335 7.3351-10.048 7.3351-3.5046 0-12.568 2.5519-14.64 4.1219-2.0917 1.5853-1.9607 5.7099 0.3202 10.083 2.5499 4.8892 2.4198 5.8402-1.9361 14.157l-3.8035 7.2622 3.3992 2.5c1.8696 1.375 6.2531 4.8723 9.741 7.7717 3.488 2.8994 10.193 7.9324 14.899 11.184 8.6509 5.9772 20.817 18.373 20.817 21.209 0 0.84768 1.0508 1.8748 2.3352 2.2824 5.0209 1.5936 6.2102 4.5361 5.0733 12.552-0.585 4.125-1.1844 19.875-1.332 35-0.2846 29.17-0.828 31.875-6.4039 31.875-1.7622 0-2.2183 0.57781-1.642 2.0798 1.265 3.2964 1.8785 8.8558 2.497 22.627l0.5764 12.832-10.26 10.293c-5.643 5.6612-12.476 13.246-15.184 16.856-2.7081 3.6094-5.4201 6.5625-6.0268 6.5625-1.714 0 0.3214 9.8422 3.7178 17.977l3.0695 7.3525-3.7121 3.8975c-2.0416 2.1436-4.8613 5.3038-6.266 7.0225-1.4046 1.7188-4.2726 5.168-6.3732 7.665s-3.8193 4.9114-3.8193 5.3652c0 0.45389-0.5609 1.5046-1.2464 2.335-3.0777 3.7279-11.255 15.263-11.641 16.422-0.2421 0.72625-4.2276-0.46826-9.1824-2.752-4.815-2.2194-10.751-4.0353-13.191-4.0353-3.8388 0-4.6547 0.54708-6.0586 4.0625-1.4567 3.6476-16.518 34.263-22.782 46.308-1.3571 2.61-4.2901 6.1355-6.5176 7.8345-2.2276 1.699-6.4917 6.5949-9.476 10.88-2.9842 4.2848-5.8854 7.9827-6.4469 8.2176-0.5616 0.2349-3.2503 3.7098-5.975 7.7221-5.3802 7.9227-26.08 30.001-28.109 29.98-0.6875-0.008-3.1548-1.1745-5.483-2.5938zm11.836-12.296c9.5712-9.556 13.082-13.503 16.78-18.864 1.6596-2.4062 6.1337-8.0579 9.9425-12.559 9.3236-11.019 13.175-16.247 13.175-17.884 0-0.751-3.375-3.7292-7.5-6.6182-10.166-7.1204-14.128-7.0867-35.02 0.29812-19.883 7.0281-36.214 11.115-51.855 12.976-6.5312 0.77735-12.329 1.8672-12.884 2.422-0.5552 0.55477-0.3287 5.8743 0.5032 11.821l1.5126 10.813 6.9968 3.8996c3.8482 2.1448 16.84 7.7179 28.872 12.385 12.031 4.6668 21.921 8.5327 21.978 8.5909 0.056 0.0582 3.4315-3.2177 7.5-7.2798zm-12.46-28.276c-1.8688-1.8688-1.5152-5.5888 0.5312-5.5888 0.5672 0 2.2328 1.6875 3.7014 3.75 2.6273 3.6897 2.6301 3.75 0.1744 3.75-1.3727 0-3.3558-0.86003-4.407-1.9112zm-71.275 31.599c3.3083-3.8324 8.0079-10.659 8.0079-11.631 0-0.43732 1.0599-2.2882 2.3552-4.1131 2.2207-3.1285 2.257-4.0253 0.6361-15.703-0.9455-6.8116-1.9636-12.629-2.2625-12.928-0.2989-0.29887-3.5382 0.30928-7.1986 1.3514-7.0663 2.0119-20.718 3.8286-29.392 3.9114-5.1478 0.0491-5.3867 0.25215-14.036 11.925-4.8396 6.5312-8.8111 12.256-8.8255 12.721-0.056 1.8143 13.624 8.412 23.724 11.442 21.471 6.4404 23.817 6.7033 26.992 3.0252zm-49.855-26.039c2.894-3.7257 5.2846-7.4363 5.3125-8.2457 0.028-0.80948 1.5462-2.6482 3.3742-4.0861 2.839-2.2331 3.1257-3.021 1.9664-5.4032-0.7464-1.5339-1.5391-3.3514-1.7615-4.0389s-5.2259-8.5625-11.119-17.5c-5.893-8.9375-11.078-17.234-11.523-18.438-0.4445-1.2031-1.8102-2.1874-3.0349-2.1873-2.3337 0.00023-21.895 3.5846-22.297 4.0856-0.99543 1.2416-11.805 23.226-11.805 24.009 0 0.55225-1.6313 3.6553-3.6251 6.8957s-3.2594 6.4148-2.8125 7.0544c0.44693 0.63957 6.4376 4.7807 13.313 9.2025 11.579 7.4475 34.056 16.934 37.5 15.828 0.6875-0.22095 3.6179-3.45 6.5119-7.1757zm-23.074-25.797c-2.1469-0.77014-1.9727-2.8522 0.2388-2.8522 2.0704 0 3.7091 2.0612 2.2816 2.87-0.5268 0.29848-1.661 0.29046-2.5204-0.0177zm-88.739 30.156c8.2483-0.7825 8.4952-0.90913 10.418-5.3422 1.083-2.4974 2.4843-5.5174 3.114-6.7112 2.551-4.8363 0.36891-8.8512-15.216-27.997-3.8424-4.7203-7.7799-9.8825-8.75-11.472-3.0008-4.9157-7.9275-2.9763-21.205 8.3473-3.6676 3.1279-4.934 5.1491-4.934 7.8746 0 4.4456 2.9384 10.464 5.6095 11.489 1.3839 0.53107 1.721 1.6691 1.1583 3.911-0.83216 3.3156 1.2447 8.7346 6.6349 17.311 2.9386 4.6758 3.1561 4.7762 8.8674 4.0922 3.2202-0.38568 9.6568-1.0619 14.303-1.5027zm-10.32-26.13c0-1.0312 0.5625-1.875 1.25-1.875s1.25 0.84375 1.25 1.875-0.5625 1.875-1.25 1.875-1.25-0.84375-1.25-1.875zm-170.16 24.829c10.964-0.71851 12.662-1.1263 12.662-3.0406 0-1.2159 0.80575-3.8033 1.7906-5.7496 0.98481-1.9463 2.8775-6.3839 4.2059-9.8612 2.2383-5.8588 2.2666-6.5061 0.3861-8.8284-1.1161-1.3783-3.0848-6.5755-4.3748-11.549-2.4428-9.4184-4.543-11.062-7.4988-5.8682-0.76118 1.3375-1.8428 3.025-2.4037 3.75-2.76 3.5678-16.986 28.817-19.033 33.781-1.2842 3.1142-2.7821 5.6621-3.3287 5.6621-0.54655 0-0.99372 0.90472-0.99372 2.0105 0 1.491 0.76556 1.8184 2.9628 1.2669 1.6295-0.40897 8.6608-1.117 15.625-1.5734zm-1.09-16.7c0-0.6875 0.5625-1.25 1.25-1.25s1.25 0.5625 1.25 1.25-0.5625 1.25-1.25 1.25-1.25-0.5625-1.25-1.25zm131.46 14.181c1.2573-1.1378 2.2859-2.8253 2.2859-3.75 0-0.92468 0.53548-1.6813 1.19-1.6813 0.65447 0 2.9449-2.5507 5.0898-5.6683 3.1864-4.6312 3.7427-6.4036 3.0407-9.6875-0.47253-2.2106-1.2776-4.5817-1.7889-5.2692-1.5675-2.1074-2.4598-8.944-1.3222-10.13 1.0999-1.1469-6.1502-18.311-11.434-27.07-7.2908-12.085-9.7751-13.254-9.7751-4.6009 0 2.7094-0.60661 4.9262-1.348 4.9262-1.1978 0-4.4713 3.1691-14.203 13.75-4.7347 5.1478-13.686 17.942-13.977 19.977-0.14932 1.0439-0.51261 3.9232-0.8073 6.3984s-0.94281 5.1588-1.4402 5.9637c-0.57384 0.92848 0.71298 2.1392 3.5204 3.3122 2.4336 1.0168 4.8105 1.8488 5.2818 1.8488 0.47136 0 4.0051 1.5039 7.8526 3.3421 10.095 4.8226 23.058 10.335 24.397 10.374 0.63336 0.0186 2.1802-0.89711 3.4375-2.0349zm-17.14-25.514c-0.45316-0.73324-0.52379-1.6333-0.15694-2.0002 0.8954-0.89538 3.3333 0.68229 3.3333 2.1571 0 1.5975-2.158 1.4908-3.1764-0.15694zm-219.09 22.89c2.7855-2.2031 18.102-16.445 42.63-39.64 2.7774-2.6265 4.3706-5.0855 3.8454-5.9353-0.4932-0.79802-0.72742-4.581-0.52046-8.4065 0.37993-7.0233 0.43663-14.531 0.19168-25.381l-0.13376-5.925-10.938-5.4916c-6.0156-3.0204-14.463-6.9748-18.772-8.7877-8.2428-3.4678-20.624-10.583-21.332-12.259-0.87369-2.0692-4.4535-0.83524-8.9234 3.0757-6.6098 5.7833-16.686 13.61-23.737 18.438-1.5062 1.0312-5.5744 3.9917-9.0406 6.5787-3.4661 2.5871-7.9026 5.6492-9.8588 6.8048-4.3933 2.5952-5.4325 6.8543-4.2856 17.564l0.87431 8.1642 16.444 15.895c9.044 8.7421 19.256 18.305 22.694 21.25 3.4375 2.9456 8.7812 7.805 11.875 10.799 3.0938 2.9936 5.7592 5.4433 5.9232 5.4436 0.16402 0.00038 1.5428-0.9837 3.064-2.1868zm-12.449-51.512c-2.7854-2.323-2.7911-2.381-0.3125-3.1676 1.3886-0.44073 2.5248-1.862 2.5248-3.1583 0-3.3047 2.519-8.4644 4.5043-9.2262 2.609-1.0012 3.3827 1.5497 1.7012 5.609-1.2965 3.1301-1.218 4.057 0.50461 5.9605 2.572 2.842 2.5925 4.7026 0.0626 5.6734-3.3437 1.2831-6.0241 0.77872-8.985-1.6908zm194.09 47.116c2.75-3.5624 5.0669-7.8978 5.1487-9.6342 0.0817-1.7364 0.57176-6.5577 1.0888-10.714l0.94015-7.5568-11.089-7.9954c-6.0989-4.3974-14.035-10.481-17.637-13.52-3.8152-3.2191-7.3085-5.2328-8.3705-4.8253-1.851 0.71029-9.9974 15.829-8.5291 15.829 0.44014 0-0.11875 0.70312-1.242 1.5625-3.1501 2.4102-9.7056 19.979-8.1604 21.87 2.5338 3.1004 37.66 21.16 41.6 21.388 0.6875 0.0398 3.5-2.8423 6.25-6.4047zm-18.697-24.58c-0.85385-1.3815 1.118-2.8733 2.2723-1.7191 1.1885 1.1885 0.96699 2.8827-0.37688 2.8827-0.64692 0-1.4998-0.52364-1.8954-1.1636zm-70.98 14.864c11.54-19.776 12.646-21.689 14.782-25.575 1.1338-2.0625 3.1751-4.9691 4.5361-6.4591 3.5098-3.8426 3.2666-10.153-0.70417-18.269-1.8819-3.8464-3.571-9.5651-3.7536-12.708-0.28345-4.8788-1.3835-6.9929-7.5197-14.452-3.9532-4.8054-7.75-8.737-8.4374-8.737-0.68735 0-0.90209-0.5625-0.47719-1.25 1.4264-2.3079-1.3425-1.2792-6.3162 2.3468-2.7136 1.9782-10.699 6.5147-17.746 10.081l-12.812 6.4842-0.19565 7.7315c-0.10762 4.2523-0.38306 9.419-0.61211 11.482-0.67912 6.1152-0.47456 18.554 0.34773 21.145 1.362 4.2912 8.9677 15.306 17.483 25.32 4.5765 5.3818 9.1656 11.072 10.198 12.644 1.0325 1.5723 2.4286 2.6749 3.1024 2.4503 0.67387-0.22462 4.3304-5.7298 8.1256-12.234zm-16.868-41.859c-3.326-2.3296-2.4004-5.8854 1.3911-5.3444 1.8458 0.26337 2.7738 1.4248 3.0489 3.8161 0.45005 3.9113-0.54758 4.2547-4.44 1.5283zm253.07 39.892c2.8997-0.41518 5.8014-1.3969 6.4482-2.1815 0.64678-0.78463 4.9603-8.9391 9.5856-18.121l8.4096-16.694-2.7483-4.5555c-4.5777-7.588-7.8464-15.318-8.2121-19.42-0.19052-2.1371-1.2652-6.4169-2.3881-9.5107s-2.5929-7.875-3.2666-10.625c-2.1883-8.9329-2.3058-8.9902-13.352-6.5121-5.3618 1.2029-11.718 2.7183-14.124 3.3674-2.4062 0.64917-8.3125 2.2234-13.125 3.4984-4.8125 1.2749-8.7818 2.8419-8.8206 3.4822-0.0849 1.4012-1.0765 5.8348-5.0936 22.774-1.6773 7.073-2.7 13.426-2.2726 14.117 0.42735 0.69146 0.17366 1.9842-0.56377 2.8727-1.0157 1.2238 1.2323 4.7714 9.2726 14.633 5.8374 7.1595 12.439 15.735 14.671 19.056l4.0572 6.039 8.125-0.73252c4.4688-0.40287 10.498-1.0722 13.397-1.4874zm-13.305-47.247c-1.0458-1.2601-1.0738-2.0047-0.0983-2.6076 1.658-1.0247 5.2542 1.7083 4.2934 3.263-0.99061 1.6028-2.5191 1.3641-4.1951-0.65535zm124.28 45.065c12.07-2.339 17.63-4.8894 18.482-8.4784 0.3853-1.6214 1.8222-6.8855 3.1932-11.698 1.3709-4.8125 3.6775-12.969 5.1256-18.125 1.4481-5.1562 3.2549-10.599 4.0152-12.095 0.7602-1.496 1.4501-4.8083 1.533-7.3606 0.1443-4.4403-0.2651-4.9221-9.4852-11.162-9.587-6.4884-23.201-12.148-33.002-13.719l-5.1377-0.8237-9.1973 11.533c-5.0586 6.3433-11.558 13.928-14.443 16.854-2.885 2.9264-4.9554 5.6107-4.601 5.9652 0.3545 0.35445-0.8187 2.2224-2.607 4.151s-3.2515 4.1833-3.2515 5.0104c0 2.0194 3.9711 8.883 12.391 21.417 3.841 5.7176 8.2914 12.608 9.8898 15.312 2.8833 4.8782 2.9668 4.9168 10.625 4.9154 4.2454-0.00082 11.656-0.76453 16.469-1.6972zm-13.15-36.457c-0.8697-1.0479-1.2396-2.2468-0.8221-2.6644 0.4176-0.41753 0.2149-1.776-0.4502-3.0189-1.5742-2.9414 0.416-4.2212 3.7715-2.4253 2.5313 1.3547 3.1869 4.3366 1.7671 8.0366-0.954 2.486-2.2448 2.5078-4.2663 0.072zm64.4 29.382c14.427-3.2566 24.013-5.9827 27.876-7.9274 1.8559-0.93445 5.0166-2.0939 7.0239-2.5765 2.0072-0.4826 7.7213-2.5866 12.698-4.6757 8.74-3.6687 9.1583-4.043 12.271-10.978 1.7722-3.949 3.4771-9.0958 3.7886-11.437 0.9439-7.0941 3.2987-17.855 4.4875-20.507 0.6163-1.375 1.6344-6.129 2.2624-10.564l1.1418-8.0643-9.2118-12.05c-5.0665-6.6273-9.2118-12.527-9.2118-13.111 0-1.0405-9.9877-18.086-10.597-18.086-0.1708 0-3.6118 5.4844-7.6466 12.188-8.9072 14.798-12.328 19.972-15.91 24.062-1.5049 1.7188-4.9827 6.2188-7.7284 10-4.5872 6.3172-8.2306 10.041-14.678 15-7.6074 5.852-8.5945 7.2565-10.982 15.625-1.3733 4.8125-2.7767 10.294-3.1189 12.181-0.3421 1.8871-1.8279 5.7446-3.3018 8.5722-1.4739 2.8277-2.9453 7.9048-3.2698 11.283-0.3246 3.3777-1.08 6.444-1.6786 6.814-1.2968 0.80149-1.4552 5.9917-0.2205 7.2264 1.1988 1.1989 14.011-0.26623 26.007-2.974zm27.368-47.997c-0.9911-2.5828-0.072-8.5992 1.3824-9.0514 2.8546-0.88737 4.2917 1.616 3.5503 6.1847-0.7592 4.6784-3.6032 6.3313-4.9327 2.8667zm-385.96 40.85c1.0529-2.5781 4.958-10.734 8.6779-18.125 3.72-7.3906 6.3785-13.438 5.9079-13.438s0.19541-0.76854 1.48-1.7079c2.223-1.6255 2.2345-1.9211 0.23892-6.1264-1.1532-2.4302-2.0967-4.9765-2.0967-5.6584 0-2.1177-2.8245-2.4443-11.25-1.3011-4.4688 0.60633-11.359 1.0865-15.312 1.067-6.3147-0.0311-7.1875 0.26174-7.1875 2.4119 0 2.4887 0.1938 3.0681 4.9928 14.926 1.4994 3.7049 4.0295 11.739 5.6224 17.853 2.5491 9.7845 4.7398 14.786 6.4766 14.786 0.29465 0 1.3972-2.1094 2.4501-4.6875zm0.45805-32.886c0-0.72807 0.5625-0.97612 1.25-0.55122s1.25 1.0206 1.25 1.3238c0 0.30317-0.5625 0.55122-1.25 0.55122s-1.25-0.5957-1.25-1.3238zm457.73 10.08c12.378-24.179 12.467-24.415 10.996-29.375-0.8157-2.75-1.9762-5.6066-2.5789-6.3479-0.6027-0.74133-1.5588-3.5538-2.1246-6.25-0.9931-4.7323-1.1996-4.8977-5.9625-4.7752-7.4524 0.19172-19.131 1.4905-20.388 2.2673-0.6123 0.37845-2.6425 7.3071-4.5115 15.397-1.8689 8.0898-4.4694 18.426-5.7788 22.969-1.3094 4.5429-2.3808 9.1835-2.3808 10.312 0 1.129-0.5625 2.0527-1.25 2.0527s-1.25 1.4176-1.25 3.1502c0 2.5497 1.8314 4.3458 9.6073 9.4219 5.284 3.4494 10.403 6.11 11.375 5.9123 0.9723-0.19769 7.3833-11.328 14.247-24.734zm-7.729-18.125c0-1.0312 0.5024-1.875 1.1163-1.875s1.44 0.84375 1.8358 1.875c0.4382 1.1421 0 1.875-1.1163 1.875-1.0097 0-1.8358-0.84375-1.8358-1.875zm-384.32 28.442c2.3702-2.5806 4.3121-5.1054 4.3154-5.6107 0.004-0.50524 3.2264-4.3487 7.1624-8.541 7.5787-8.0722 10.344-13.046 10.344-18.608 0-3.6454-3.8494-6.3071-9.1213-6.3072-4.2206-0.00001-25.806-7.3664-32.129-10.964-3.0938-1.7606-6.8884-4.3285-8.4326-5.7066s-2.992-2.269-3.2173-1.9798c-0.22535 0.28917-1.7234 2.4945-3.3289 4.9008-1.6055 2.4062-4.6682 6.0625-6.806 8.125-7.208 6.9543-7.4857 7.6261-4.7618 11.518 1.34 1.9149 2.4237 5.4145 2.4082 7.777-0.0315 4.7812 1.0058 5.8606 21.013 21.866 14.156 11.325 15.932 12.355 17.247 10.005 0.54859-0.98029 2.9367-3.8938 5.3069-6.4744zm-15.366-23.645c-2.1765-0.87823-1.9579-2.9222 0.3125-2.9222 1.0312 0 1.875 0.84375 1.875 1.875s-0.14063 1.8306-0.3125 1.7763c-0.17188-0.0542-1.0156-0.3824-1.875-0.72916zm72.391 23.64c2.8346-1.8906 6.0578-4.0068 7.1627-4.7027 10.686-6.7301 11.644-7.7137 10.646-10.922-0.37437-1.2031-0.20308-2.1875 0.38066-2.1875 1.64 0 4.5325-11.663 7.75-31.25 0.85708-5.2175 0.71422-7.6283-0.59255-10-2.5536-4.6346-5.5504-12.545-5.5504-14.651 0-1.6703-2.4345-8.021-4.9255-12.849-1.2534-2.4291-4.7102-3.0729-8.0513-1.4994-1.4565 0.68594-4.3423 1.8791-6.4128 2.6516-3.0118 1.1236-4.8392 3.5859-9.1387 12.314-2.9558 6.0001-6.4534 12.737-7.7725 14.972-1.3191 2.2344-2.0999 4.0625-1.7352 4.0625 0.99503 0-5.7983 8.9924-9.0658 12.001l-2.852 2.6256 2.5617 5.3021c1.4089 2.9162 4.4283 7.9222 6.7097 11.124 2.2814 3.2023 6.4683 10.463 9.3041 16.135 2.8359 5.6719 5.4423 10.312 5.792 10.312 0.34973 0 2.9552-1.5469 5.7898-3.4375zm1.62-42.896c-1.1504-1.8614 0.18341-2.8735 2.5767-1.9551 1.1045 0.42382 1.658 1.3371 1.2302 2.0294-1.0132 1.6394-2.7689 1.6051-3.8069-0.0744zm123.16 23.608c5.5576-1.5023 10.221-5.3518 18.141-14.974 2.0625-2.5059 6-7.2832 8.75-10.616 2.75-3.333 7.0468-8.1729 9.5483-10.755l4.5483-4.6954-1.8084-6.1692c-1.5853-5.4079-2.3779-6.3558-6.4233-7.6815-7.5534-2.4753-19.5-10.345-27.947-18.41-7.721-7.3721-18.462-15.814-19.089-15.003-0.17216 0.22251-1.7705 3.4983-3.5519 7.2796-12.803 27.176-15.084 31.39-18.578 34.33-4.4794 3.7691-4.4029 5.0984 1.3681 23.795 1.9099 6.1875 4.1101 13.564 4.8892 16.393 0.77916 2.8288 2.518 6.5434 3.8641 8.2547 2.4461 3.1098 2.4525 3.1105 11.563 1.44 5.0135-0.91933 11.64-2.3538 14.725-3.1878zm-9.1509-33.108c-0.4584-0.45832-0.8334-2.4683-0.8334-4.4666 0-5.3457 4.2366-4.2368 4.7667 1.2477 0.3738 3.8671-1.6384 5.5138-3.9333 3.2189zm263.71 17.408c1.9722-2.5716 4.1866-5.8137 4.921-7.2046 0.7343-1.391 4.6718-6.9349 8.75-12.32 12.005-15.852 11.421-14.032 8.128-25.328-1.5789-5.4159-3.5102-10.462-4.2919-11.213-0.7817-0.75109-6.4838-3.1658-12.671-5.366-6.1875-2.2002-15.337-5.945-20.333-8.3219-9.6961-4.6132-12.716-5.2581-12.919-2.759-0.679 8.3664-1.3232 13.494-3.18 25.312-1.1881 7.5625-2.1069 15.438-2.0418 17.5 0.1665 5.2747 2.1418 14.535 3.7327 17.5 0.7379 1.375 2.3877 4.8842 3.6662 7.7982 2.086 4.7542 2.7739 5.3042 6.6997 5.3568 2.4063 0.0322 5.7813 0.86252 7.5 1.845 5.1668 2.9536 8.1601 2.2573 12.039-2.8006zm-8.6719-28.624c-0.4396-0.43964-0.5153-1.2588-0.1683-1.8204 0.7794-1.2611 4.301-0.03 4.301 1.5035 0 1.2826-2.9414 1.5082-4.1327 0.31691zm-678.37 22.17c22.928-15.896 38.95-28.648 41.336-32.899 0.66087-1.1774 1.4204-3.7087 1.688-5.625 0.26753-1.9163 1.625-7.9842 3.0165-13.484 4.2806-16.919 4.4563-16.136-3.5422-15.779-3.782 0.1687-9.407-0.32886-12.5-1.1057-3.093-0.77682-7.0299-1.6972-8.7487-2.0454-3.1068-0.62927-7.4313-2.2515-11.508-4.317-1.1731-0.59436-4.3293-1.4319-7.0137-1.8611-4.8727-0.77917-4.8957-0.76281-13.87 9.8941-4.9439 5.871-9.4142 10.852-9.934 11.069-0.5198 0.21721-2.8628 3.2054-5.2067 6.6404s-5.725 7.6759-7.5136 9.4243c-5.0257 4.9128-7.957 10.53-6.6797 12.801 0.60528 1.0762 5.9365 6.9401 11.847 13.031 5.9107 6.0909 11.467 12.463 12.348 14.161 2.5052 4.8288 5.2351 7.4804 6.7597 6.5657 0.76749-0.46045 5.0517-3.3721 9.5204-6.4703zm-0.57162-40.047c-0.92443-1.4957 1.427-2.9778 3.092-1.9488 1.398 0.86397 0.48021 3.1124-1.2704 3.1124-0.60635 0-1.4261-0.52364-1.8216-1.1636zm189.86 42.101c8.6217-1.7803 15.598-7.2759 22.101-17.409 3.1872-4.9667 3.6786-6.7516 3.1049-11.277-0.94383-7.4456-2.5566-13.626-4.5062-17.269-0.90772-1.6961-1.7888-4.2141-1.958-5.5956-0.71302-5.8228-3.6858-15.529-6.9905-22.824l-3.539-7.8125-5.9391-0.006c-3.2665-0.004-11.297-0.36135-17.846-0.79509l-11.907-0.78861-4.7987 16.605c-3.4498 11.937-12.732 41.287-13.245 41.881-0.01 0.0113 2.8524 3.105 6.3602 6.875s8.0476 9.1046 10.088 11.855c2.0408 2.75 4.9364 5.6832 6.4346 6.5182 3.5558 1.9817 13.167 2.0005 22.64 0.0443zm-15.461-38.966c-0.84988-1.024-1.1604-2.4845-0.69016-3.2454 0.47028-0.76094-0.112-2.4521-1.294-3.7582s-1.8079-3.2636-1.391-4.3501c0.96337-2.5105 4.4629-0.83062 8.2202 3.946 2.2849 2.9048 2.4032 3.6544 0.92746 5.8769-2.2314 3.3606-3.8891 3.8002-5.7725 1.5309zm107.92 24.609c3.164-4.8911 5.7528-9.2277 5.7528-9.6369 0-0.40925 2.25-5.5024 5-11.318 2.75-5.8157 5-11.636 5-12.934 0-2.4152-8.783-20.393-13.18-26.977-1.3448-2.0138-3.2888-5.8792-4.32-8.5897l-1.875-4.9282-10.105-0.38475c-5.5576-0.21161-13.514-1.2681-17.68-2.3478-4.1666-1.0797-8.6868-1.963-10.045-1.963-1.3581 0-5.9908-1.125-10.295-2.5-12.137-3.8774-13.819-3.5274-20.473 4.2619-3.1773 3.719-5.7768 7.3234-5.7768 8.0096 0 0.68628 1.3784 3.9716 3.0631 7.3006 1.6847 3.3291 3.3109 7.8034 3.6138 9.943 0.30289 2.1396 1.1745 5.0557 1.9369 6.4803 0.76241 1.4246 1.3862 4.0558 1.3862 5.8471s1.0483 5.3439 2.3295 7.8947c1.2812 2.5507 3.0408 8.5752 3.9101 13.388 0.86933 4.8125 2.4641 9.7615 3.5439 10.998 5.5758 6.3841 22.757 13.878 42.092 18.359 8.0522 1.8662 8.8146 1.867 9.5598 0.01 0.44535-1.1102 3.3985-6.0203 6.5625-10.911zm-27.3-41.85c-2.5078-3.5803-2.4889-6.2657 0.0404-5.751 1.0924 0.22227 2.7528 2.2323 3.6896 4.4666 1.4491 3.456 1.4431 4.0625-0.0404 4.0625-0.95908 0-2.6194-1.2502-3.6897-2.7781zm284.79 48.716c3.6432-3.6094 8.8865-9.6562 11.652-13.438 2.7652-3.7812 7.1011-9.125 9.6353-11.875s6.0877-7.5312 7.8967-10.625c1.8091-3.0938 4.9209-7.875 6.9151-10.625 1.9943-2.75 4.4397-6.9365 5.4342-9.3034 1.6538-3.936 1.6092-4.5024-0.5221-6.6337-1.2817-1.2817-8.1889-4.504-15.349-7.1607-7.1605-2.6567-17.156-6.5622-22.211-8.6788-5.0556-2.1166-10.146-3.8484-11.312-3.8484-1.1663 0-2.7673-0.64688-3.558-1.4375-1.7946-1.7946-19.676 0.97947-22.13 3.4331-0.8832 0.88322-2.7394 1.3094-4.1248 0.94714-2.0868-0.54572-2.8958 0.3783-4.7158 5.3868-1.2083 3.325-6.3943 14.708-11.524 25.295-8.3071 17.144-9.2406 19.794-8.533 24.219 1.0607 6.6331 2.817 9.6561 5.6099 9.6561 5.3557 0 26.365 8.8892 35.14 14.868 5.1373 3.5004 10.631 6.3683 12.207 6.3731 1.7911 0.005 5.3521-2.4535 9.4908-6.5538zm-12.67-41.765c-2.1172-0.85434-1.9904-4.1722 0.1595-4.1722 2.12 0 4.8104 3.0509 3.6839 4.1775-0.9164 0.91637-1.5613 0.91547-3.8434-0.005zm-411.11 40.137c19.508-9.7082 21.891-12.832 29.52-38.684 2.2315-7.5625 4.5246-14.875 5.0957-16.25 0.57111-1.375 1.4177-4.4688 1.8814-6.875 0.46363-2.4062 1.658-6.8078 2.6542-9.7812 1.7384-5.1889 1.6949-5.5182-1.0827-8.1911-1.5916-1.5317-4.0851-4.4426-5.5411-6.4688-2.9723-4.1362-1.045-4.4499-19.228 3.1294-5.1562 2.1493-12.75 5.508-16.875 7.4636-17.857 8.4661-38.898 15.083-52.937 16.646-3.2648 0.36362-4.8601 3.9489-8.1284 18.268-3.4217 14.991-3.4428 15.89-0.43442 18.531 4.4067 3.8698 12.201 8.3655 19.875 11.464 3.9191 1.5823 12.638 5.6155 19.375 8.9628 6.7371 3.3472 13.296 6.1175 14.575 6.1561 1.2791 0.0386 6.3416-1.9283 11.25-4.371zm-21.36-30.808c-0.7594-0.93552-1.0415-4.438-0.66482-8.253 0.57985-5.872 0.95638-6.5847 3.3017-6.25 2.2879 0.32652 2.6362 1.1885 2.5664 6.3514-0.0902 6.6724-2.8695 11.026-5.2032 8.1516zm259.55 20.739c3.8417-1.106 7.8286-2.4258 8.8599-2.9329 1.0312-0.5071 5.8125-1.651 10.625-2.542 19.549-3.6195 20.068-4.1937 37.261-41.264 1.4349-3.0938 3.2018-6.2289 3.9265-6.9671 0.86307-0.8791 1.0348-5.8381 0.49798-14.375-1.7764-28.247-3.0225-31.685-11.954-32.975-7.431-1.0736-18.668-4.2042-22.996-6.4067-2.876-1.4635-3.5443-1.3777-5.625 0.72145-3.6024 3.6345-4.8264 5.2961-6.9072 9.3773-5.0985 9.9997-14.08 25.399-17.981 30.828-2.3916 3.3289-4.3483 6.2912-4.3483 6.5829 0 0.29168-2.9531 4.8596-6.5625 10.151-12.266 17.982-11.502 16.069-9.0978 22.787 1.1617 3.2457 2.8613 8.4325 3.7767 11.526 1.7034 5.7564 5.0538 13.148 7.224 15.938 1.6184 2.0802 4.9007 1.9696 13.3-0.44836zm11.936-49.318c-0.45167-0.73083 0.21195-2.4704 1.4747-3.8658 5.9899-6.6188 11.888-5.457 6.5517 1.2906-3.0354 3.8384-6.549 4.9657-8.0264 2.5751zm11.024-9.6087c-0.45145-1.2031-1.6602-2.8166-2.686-3.5854-1.6165-1.2115-1.5435-1.5669 0.54753-2.6648 2.5488-1.3383 7.1859-0.20193 8.6156 2.1113 1.4207 2.2987-0.61737 6.3264-3.2012 6.3264-1.3502 0-2.8244-0.98438-3.2758-2.1875zm256.52 55.337c10.769-1.3112 12.893-2.6951 14.993-9.7672 1.0318-3.4745 2.4631-12.542 3.1806-20.151 0.7175-7.6085 1.5593-14.964 1.8706-16.345 0.3114-1.3814-0.4601-5.6053-1.7144-9.3866-2.2469-6.7736-2.445-6.9635-13.43-12.874-16.711-8.991-15.842-9.0823-27.467 2.8834-5.4631 5.6232-12.424 12.759-15.468 15.857-4.7768 4.8606-5.3336 5.9559-4.0625 7.9913 0.8102 1.2973 1.473 2.9913 1.473 3.7646 0 2.7212 12.411 21.857 20.033 30.888 6.6974 7.9352 8.1456 9.054 11.026 8.5179 1.8237-0.33945 6.1283-0.95962 9.5658-1.3782zm-5.9375-38.868c-3.265-1.7685-4.6585-4.2821-2.374-4.2821 2.8582 0 8.9967 2.9444 8.6027 4.1265-0.7064 2.1191-2.52 2.1644-6.2287 0.1556zm-152.98 16.27c6.8337-12.947 19.551-41.942 19.551-44.575 0-2.0007-14.252-18.68-23.267-27.23-4.7119-4.4688-10.929-10.86-13.816-14.202-4.5033-5.2135-5.0835-6.5127-4.0831-9.1439 1.4142-3.7196 1.5316-9.1542 0.1977-9.1542-0.5326 0-4.892 3.6846-9.6875 8.188s-12.797 11.322-17.782 15.151c-4.9843 3.8299-9.0625 7.0644-9.0625 7.1878 0 0.12338 1.0224 4.9771 2.2721 10.786 1.2496 5.8089 2.4252 15.905 2.6123 22.437 0.3852 13.444-0.9485 11.411 16.581 25.277 4.5873 3.6287 8.5949 7.5136 8.9057 8.633s4.4325 4.3456 9.1594 7.1694c11.049 6.6006 14.712 6.4963 18.418-0.52469zm-26.435-39.117c-1.1999-0.76038-1.2885-1.8689-0.3476-4.3438 0.6949-1.8276 0.9377-4.1716 0.5397-5.2088-0.506-1.3188 0.08-1.8858 1.9493-1.8858 3.3826 0 4.4789 2.7991 3.049 7.7848-1.2105 4.2208-2.672 5.2496-5.1904 3.6537zm-133.97 30.851c7.1633-2.4191 12.301-6.1031 12.419-8.9047 0.0229-0.54438 1.026-2.0488 2.2291-3.3431 1.2031-1.2944 5.2812-7.5008 9.0625-13.792 3.7812-6.2913 7.7188-12.409 8.75-13.596 1.0312-1.1862 2.6854-3.5344 3.676-5.2181 3.8955-6.6216 14.559-25.205 16.471-28.706 1.1122-2.0356 2.7275-4.551 3.5896-5.5898 1.1394-1.373 1.2257-2.8278 0.31568-5.3274-0.68852-1.8912-1.3166-5.1261-1.3958-7.1886-0.16337-4.2566-3.4098-25.603-5.323-35-1.5497-7.6118-3.5691-13.125-4.8076-13.125-1.0038 0-17.374 8.1773-19.401 9.6915-11.545 8.6223-23.682 14.128-37.756 17.128-4.7855 1.0201-5.211 2.1361-6.011 15.764-0.5891 10.035-5.8122 35.624-8.2027 40.187-1.344 2.5653-3.6831 11.383-4.4049 16.605-0.37531 2.7153 0.85453 6.1644 4.4571 12.5 2.7365 4.8125 7.3811 13.663 10.321 19.668 2.9402 6.0048 5.9398 10.927 6.6657 10.938 0.72587 0.0113 4.931-1.1999 9.3447-2.6905zm9.023-60.618c-0.85938-0.34676-1.5625-1.3672-1.5625-2.2676 0-0.90042-0.8794-1.9746-1.9542-2.387-2.9618-1.1366-0.87213-3.2676 3.2042-3.2676 4.2854 0 5.5075 1.5577 4.4689 5.696-0.77369 3.0826-1.3151 3.3726-4.1564 2.2261zm395.62 45.104c4.9802-6.1332 10.993-12.983 13.362-15.221 3.2091-3.0324 4.5265-5.5331 5.1677-9.8091 0.9601-6.4019-0.1329-20.066-1.9972-24.97-1.7799-4.6816-30.762-33.026-33.768-33.026-4.4525 0-17.272 6.4339-17.151 8.6082 0.061 1.1092-1.0273 4.5481-2.4194 7.6418-3.4385 7.6418-6.3066 14.987-7.321 18.75-0.4634 1.7188-2.1835 4.9156-3.8225 7.1041-1.6389 2.1885-2.9799 4.5737-2.9799 5.3004s-2.4253 4.8639-5.3897 9.1937c-6.8216 9.964-7.2904 11.262-5.7075 15.803 0.938 2.6909 2.5675 4.1324 5.8847 5.2059 2.5232 0.81653 7.3441 2.8664 10.713 4.5554 3.3692 1.6889 8.4317 3.8379 11.25 4.7756 2.8184 0.93761 9.0618 3.1199 13.874 4.8495 4.8125 1.7296 9.3125 2.975 10 2.7676 0.6875-0.20744 5.3247-5.3952 10.305-11.528zm-19.589-19.22c-2.155-1.3318-0.967-13.793 1.4949-15.681 0.8966-0.6875 1.4278-2.2344 1.1805-3.4375-0.5342-2.5986 4.5701-3.1011 6.9836-0.6875 2.3951 2.3951 1.8207 6-0.956 6-2.9228 0-5.0366 3.4884-5.0631 8.3553-0.025 4.6464-1.4615 6.7972-3.6399 5.4509zm-101.81 5.2563c4.7211-5.3281 10.978-12.057 13.903-14.953 6.3849-6.3207 6.4371-6.9813 2.2766-28.787-1.6735-8.7709-3.9204-20.678-4.9932-26.461-1.0728-5.7827-2.2379-10.801-2.5892-11.153-0.3512-0.35127-4.9949 0.0244-10.319 0.83481-5.3243 0.81041-18.189 1.4698-28.589 1.4652l-18.908-0.008-2.5464 11.562c-1.4005 6.3594-3.1915 16.062-3.9801 21.562-0.7885 5.5-2.575 15.246-3.9699 21.659-1.3949 6.4123-2.2049 11.99-1.8001 12.395 2.3447 2.3448 32.783 14.358 40.296 15.904 2.1631 0.44509 4.9222 1.9024 6.1313 3.2384 1.209 1.336 3.1672 2.4292 4.3514 2.4292 1.1841 0 6.0157-4.3594 10.737-9.6875zm-22.432-33.75c-0.3035-0.51563-0.944-2.7662-1.4234-5.0012-0.6176-2.8797-1.753-4.2849-3.8969-4.823-2.9838-0.74889-3.8743-3.4691-2.066-6.3111 1.3115-2.0611 9.3115-3.2257 11.54-1.68 1.6474 1.1424 1.6193 1.4966-0.2321 2.918-1.772 1.3605-1.9126 2.4832-0.8841 7.0607 0.6726 2.9936 0.9353 6.1924 0.5838 7.1085-0.696 1.8138-2.7408 2.2248-3.6218 0.72804zm-526.16 40.41c0.46117-0.46117 1.483-7.1404 2.2707-14.843 0.78773-7.7023 2.5962-18.223 4.0189-23.379 6.1723-22.371 11.827-39.609 13.978-42.614 1.9409-2.7112 2.1264-4.1374 1.1384-8.75l-1.1804-5.5109-9.7418-0.12969c-5.358-0.0714-17.69-1.4583-27.405-3.0822l-17.663-2.9525-3.2965 3.0822c-1.8131 1.6952-6.3573 7.7228-10.098 13.395-3.741 5.6719-7.3336 10.312-7.9835 10.312-1.1454 0-0.6823 15.356 0.52185 17.304 0.3193 0.51664 0.96211 5.694 1.4285 11.505 0.46635 5.8112 1.1191 11.02 1.4506 11.575 0.33146 0.55477 0.80514 4.2287 1.0526 8.1642 0.24749 3.9356 1.1789 9.3631 2.0697 12.061 1.8193 5.51 4.745 7.0028 24.745 12.626 10.089 2.8364 22.475 3.4568 24.695 1.237zm-23.355-48.16c-2.3229-1.4356-1.1094-6.8297 1.6551-7.357 1.8075-0.34476 2.1732 0.0606 1.5409 1.7082-0.45593 1.1881-0.24239 2.867 0.47452 3.7308 1.5865 1.9116-1.2677 3.4031-3.6706 1.918zm52.29 47.09c2.34-1.1801 4.9392-2.1456 5.776-2.1456 1.4719 0 12.835-4.6529 26.689-10.928 3.6955-1.6739 9.0393-3.8524 11.875-4.8411 2.8358-0.98868 8.3214-3.3295 12.19-5.2018l7.0345-3.4042 0.77972-11.25c1.3102-18.905 0.9219-25.592-1.5005-25.839-1.154-0.11763-2.942-0.29769-3.9732-0.40021-16.01-1.5915-38.239-6.2959-52.148-11.036-9.2655-3.1576-11.334-2.8314-12.051 1.9005-0.13539 0.89355-0.58805 2.1871-1.0059 2.8746-1.2026 1.9786-9.4251 29.288-11.102 36.875-0.83598 3.7812-1.9497 7.4375-2.475 8.125-1.1827 1.548-3.7436 17.739-3.1267 19.768 0.2477 0.81494 0.80487 3.0906 1.2382 5.057 0.78537 3.5643 0.81356 3.5737 9.1669 3.0832 4.6085-0.27065 10.294-1.4576 12.634-2.6378zm15.12-39.437c0-1.7612 1.408-2.5692 3.2472-1.8635 2.6087 1.001 2.1189 2.9051-0.74721 2.9051-1.375 0-2.5-0.46875-2.5-1.0417zm107.8 27.57c1.1953-1.0393 3.8181-4.4801 5.8284-7.6463 3.3674-5.3034 3.5712-6.2742 2.588-12.329-1.0275-6.3282-0.82087-15.556 0.7345-32.802 0.40303-4.4688 0.98245-10.938 1.2876-14.375 0.30518-3.4375 0.83454-7.9839 1.1764-10.103 0.76788-4.7603-1.1347-6.6347-11.262-11.096-6.3287-2.7877-7.9089-3.0593-10.312-1.773-1.5612 0.83553-2.8385 1.919-2.8385 2.4077 0 0.95105-13.15 11.189-14.372 11.189-0.79447 0-4.3484 2.4083-17.046 11.551l-8.2931 5.9714-0.80388 7.8012c-0.44214 4.2907-0.85442 13.889-0.91619 21.33-0.10762 12.962 0.0248 13.672 3.1595 16.943 1.7995 1.8782 3.2882 3.9467 3.3084 4.5966 0.0201 0.64987 1.8091 3.1321 3.9754 5.5161 3.9351 4.3304 3.9519 4.3352 17.776 5.0897 16.34 0.89184 23.046 0.3063 26.01-2.2713zm-20.929-37.787c-0.42789-0.69236 0.12567-1.6056 1.2302-2.0294 2.3933-0.9184 3.7271 0.0936 2.5767 1.9551-1.038 1.6795-2.7936 1.7138-3.8069 0.0744zm474.94 32.078c1.7538-2.2993 3.1886-4.5191 3.1886-4.933s2.0963-4.2983 4.6583-8.632c8.5763-14.507 15.945-34.55 14.802-40.264-1.8802-9.401-19.492-40.673-24.875-44.167-0.8032-0.52149-7.9767-0.94816-15.941-0.94816h-14.481l-1.9174 4.375c-1.0545 2.4062-2.9294 7.4688-4.1664 11.25s-2.8053 7.2439-3.4852 7.6948c-0.805 0.53388-0.6962 3.5854 0.3119 8.75 3.6183 18.536 6.4041 33.657 6.988 37.93 0.2819 2.0625 1.0642 6 1.7385 8.75s1.5511 6.5521 1.9483 8.449c0.6118 2.9217 2.6771 4.3927 13.508 9.6212 7.0322 3.3947 13.179 6.202 13.66 6.2384 0.4807 0.0365 2.3088-1.8149 4.0625-4.1142zm-11.771-45.744c-1.4765-2.7588-0.052-4.2313 2.9716-3.0712 2.4972 0.95826 2.6266 5.4953 0.1568 5.4953-1.0071 0-2.4148-1.0909-3.1284-2.4241zm-133.94 46.202c2.486-0.6724 7.7696-1.8404 11.741-2.5956 8.8285-1.6787 10.576-3.9253 12.259-15.756 0.6689-4.7028 1.8299-12.098 2.5802-16.434 0.7502-4.3362 1.4874-9.3986 1.6382-11.25 0.1509-1.8514 0.5817-4.2098 0.9574-5.2411 1.9174-5.2629 3.4686-12.635 3.4686-16.484 0-3.409-1.1729-5.543-5.5672-10.129-3.062-3.1957-7.0224-6.1755-8.8008-6.6219-3.8731-0.9721-12.278 1.1947-22.507 5.8021-4.125 1.8581-11.156 4.8954-15.625 6.7495-4.4687 1.8542-9.5312 4.1657-11.25 5.1368-1.7187 0.97103-6.3787 3.3194-10.356 5.2186-6.8389 3.266-7.208 3.6731-6.8135 7.5155 0.2294 2.2344-0.032 4.0625-0.5819 4.0625-0.5494 0-0.999 1.4889-0.999 3.3088 0 4.1686 6.7198 12.488 14.991 18.56 3.4424 2.527 6.2589 5.1242 6.2589 5.7716 0 0.64743 4.2929 6.2245 9.5397 12.394 9.9893 11.745 10.875 12.209 19.065 9.9939zm-3.1736-43.206c-0.4071-1.0609-0.4377-2.2315-0.068-2.6013 1.0991-1.0992 6.021 2.0512 5.2227 3.3429-1.1454 1.8534-4.3352 1.3944-5.1549-0.74162zm-228.52 40.05c0.12895-1.375 1.7087-7 3.5105-12.5 5.251-16.029 8.5998-32.524 9.9078-48.805l0.50656-6.305-15.875-16.761-15.875-16.76-3.5835 2.348c-1.971 1.2914-4.9991 3.6693-6.7292 5.2841s-5.1144 4.2225-7.5206 5.7948-7.5099 4.9332-11.341 7.4688c-3.8316 2.5356-7.6572 4.6102-8.5013 4.6102-4.1169 0-7.2158 21.567-7.5439 52.5-0.14985 14.131 0.57213 16.532 5.0916 16.934 1.606 0.1427 6.295 1.2399 10.42 2.4383s11.571 2.8542 16.547 3.6797c4.976 0.82548 9.45 1.9036 9.9423 2.3959 0.49225 0.49225 5.3758 0.73348 10.852 0.53607 8.9114-0.32124 9.982-0.62153 10.192-2.8589zm-28.765-41.935c0.44687-1.408 0.14018-3.3701-0.68155-4.3602-1.1872-1.4305-1.0768-1.9604 0.53765-2.5799 4.2652-1.6367 7.6031 4.6468 4.2499 8-2.4914 2.4914-5.0255 1.8372-4.106-1.06zm166.91 13.384c1.7498-0.9132 4.2811-2.5736 5.625-3.6897s4.663-3.7666 7.3759-5.89c7.3195-5.729 16.942-14.936 16.942-16.21 0-1.5296 6.3142-5.8864 9.375-6.4688 2.2506-0.42818 2.516-1.534 2.6599-11.083 0.1895-12.576-2.9325-20.969-10.161-27.316-3.9782-3.4929-5.301-3.9157-12.23-3.9088-4.2729 0.004-17.05 1.1258-28.394 2.4923s-24.314 2.4881-28.824 2.4923c-9.5337 0.009-13.431 1.9536-11.473 5.7245 1.9808 3.8138 4.3489 14.187 5.2821 23.137 0.47187 4.5256 1.2697 8.8945 1.7728 9.7087 0.5032 0.81418 1.3795 6.0894 1.9474 11.723 0.91101 9.037 1.4346 10.563 4.4487 12.966 1.8789 1.4982 5.172 3.0626 7.3181 3.4765 2.146 0.41391 6.7144 1.5628 10.152 2.5531 7.9728 2.2969 14.152 2.3966 18.182 0.2935zm-5.369-39.674c-2.8783-1.6765-2.7921-3.6499 0.15945-3.6499 2.6082 0 5.5928 2.8936 4.3089 4.1775-1.0866 1.0866-1.852 0.99621-4.4683-0.52763zm331.07 37.893c1.3148-0.87054 1.9874-17.484 2.264-55.918 0.092-12.847-0.065-13.771-2.4011-14.074-1.8303-0.23751-3.5045 1.3582-6.25 5.9572-2.0625 3.4549-6 9.9041-8.75 14.332-2.75 4.4275-6.6875 10.877-8.75 14.332-2.0625 3.4549-4.1117 6.2923-4.5537 6.3053-0.4421 0.013-1.1588 0.94871-1.5927 2.0794-0.9211 2.4005 2.3666 6.4917 6.4813 8.0653 1.5593 0.59627 3.3534 2.4478 3.9871 4.1144 0.6336 1.6666 3.2954 5.0598 5.9151 7.5404 2.6196 2.4806 5.5888 5.3458 6.5982 6.3671 1.9807 2.0041 4.8344 2.3685 7.0518 0.90034zm-5.7621-32.168c0.8559-1.0312 2.0498-1.875 2.6531-1.875s1.0969 0.84375 1.0969 1.875c0 1.0777-1.1281 1.875-2.653 1.875-2.2166 0-2.3971-0.3085-1.097-1.875zm-594.91 13.1c1.3298-0.71168 2.4248-1.9773 2.4333-2.8125 0.009-0.83518 1.8366-2.7319 4.0625-4.2149 17.81-11.866 32.377-22.429 36.753-26.649 4.9474-4.7721 5.2265-5.4351 5.625-13.363 0.28128-5.5955-0.19291-9.6025-1.4402-12.17-1.0227-2.1053-7.4138-9.5945-14.202-16.643l-12.343-12.815-3.1359 2.4667c-3.835 3.0166-2.6977 3.2647-35.841-7.8177l-26.131-8.7378-2.2918 2.9626c-2.8198 3.6452-7.0973 14.694-8.6316 22.296-0.62912 3.1169-2.8885 10.448-5.0208 16.292-6.7621 18.532-9.1051 27.763-7.6413 30.107 0.72271 1.1573 1.4793 5.4035 1.6814 9.4361 0.23508 4.6921 1.0514 7.8809 2.2671 8.8566 4.5207 3.6281 31.656 10.932 47.525 12.793 12.14 1.4232 13.696 1.4245 16.332 0.0135zm-18.83-47.46c-1.375-1.375-2.5-2.9753-2.5-3.5563 0-2.36 4.8858-5.2259 10.136-5.9455 5.1763-0.70949 5.5783-0.56216 5.5783 2.0443 0 2.0077-1.2009 3.3107-4.2104 4.5681-3.4736 1.4514-3.9468 2.0769-2.7041 3.5743 2.4394 2.9393-3.2995 2.3153-6.2998-0.68494zm573.12 38.768c3.4375-1.2713 7.7694-2.643 9.6263-3.0481 2.3526-0.51322 4.7779-2.9134 7.9986-7.9156 2.5423-3.9485 6.6946-10.273 9.2274-14.054 8.2877-12.373 12.528-20.823 12.306-24.526-0.2798-4.6705-5.8277-10.669-16.033-17.335-4.4687-2.9191-9.4988-6.7989-11.178-8.6219-4.1658-4.5229-14.699-11.145-16.226-10.201-1.0044 0.62075-11.181 15.216-16.971 24.34-0.6875 1.0833-2.6562 3.4027-4.375 5.1542-7.6264 7.7716-12.376 14.215-11.409 15.478 0.5631 0.73582 3.3588 4.3392 6.2127 8.0076s8.402 13.372 12.329 21.564c7.9214 16.523 6.4272 15.621 18.492 11.159zm-0.625-32.956c0-3.1351 3.1902-8.3115 5.1223-8.3115 2.7801 0 3.1023 3.3158 0.6377 6.5625-1.3938 1.836-5.76 3.1618-5.76 1.749zm-217.82 22.169c6.0209-3.173 11.481-6.2668 12.134-6.875 0.6532-0.6082 2.3688-1.1058 3.8125-1.1058 1.4438 0 3.1594-0.45979 3.8125-1.0218 0.6532-0.56196 5.4063-2.6296 10.562-4.5947 18.888-7.1986 17.232-6.0351 18.111-12.719 0.437-3.3218 1.8086-12.784 3.048-21.026l2.2536-14.986-3.1281-3.1388c-1.7205-1.7263-9.2171-9.4669-16.659-17.201l-13.531-14.062-9.1095 0.0926c-5.0102 0.051-11.594 0.47284-14.63 0.9375l-5.5211 0.84485-4.5711 13.75c-2.5141 7.5625-5.8456 16.217-7.4033 19.232-2.0522 3.9722-2.4281 5.7319-1.3647 6.3891 0.9654 0.59664 0.5759 1.1402-1.1381 1.5884-1.436 0.37552-2.618 1.7159-2.6331 2.9859-0.015 1.2675-1.0915 4.6481-2.3921 7.5124l-2.3645 5.2079 5.9563 5.0225c3.276 2.7624 6.7111 6.8876 7.6336 9.1671 0.9224 2.2796 2.2716 4.5453 2.9982 5.035 0.7265 0.48968 1.4434 5.5522 1.5931 11.25s0.2903 11.063 0.3125 11.922c0.057 2.2002 0.069 2.196 12.218-4.2067zm8.3311-43.937c-2.2587-1.5186-3.2614-9.0434-1.2051-9.0434 4.1048 0 5.696 1.6087 5.696 5.7587 0 4.1598-1.5275 5.277-4.4909 3.2846zm108.66 41.582c3.9592-1.0312 8.768-1.875 10.686-1.875 3.3318 0 3.6937-0.62163 8.0947-13.904l4.607-13.904-3.4681-4.2875c-1.9075-2.3581-4.7697-6.0814-6.3605-8.2739-1.5907-2.1925-4.8251-6.0754-7.1875-8.6286-2.3623-2.5533-4.2952-5.1378-4.2952-5.7434 0-1.6981-10.892-11.512-12.739-11.477-0.8998 0.0168-6.4172 1.4586-12.261 3.2042-16.232 4.8486-33.033 9.0708-33.925 8.5259-0.9075-0.55405-1.7121 3.2759-3.7001 17.614-3.2283 23.284-3.137 23.961 3.8541 28.587 2.7618 1.8277 5.0214 4.1671 5.0214 5.1987s1.8282 2.9903 4.0625 4.3526c3.557 2.1687 6.3241 2.4775 22.237 2.4816 12.137 0.002 20.566-0.61825 25.374-1.8703zm-24.59-30.208c-1.6995-1.6995-0.7432-2.9167 2.2916-2.9167 1.9445 0 3.125 0.70834 3.125 1.875 0 1.8749-3.8442 2.6141-5.4166 1.0417zm-258.02 23.747c4.6434-1.6683 13.081-5.7541 18.75-9.0795 5.6691-3.3254 14.526-8.2855 19.682-11.023 10.265-5.4489 10.557-6.0003 8.7645-16.561-0.52511-3.0938-1.9772-11.716-3.2268-19.161l-2.2721-13.536-9.1793-4.3559c-5.0486-2.3958-10.986-5.892-13.195-7.7694-6.7456-5.7334-10.971-7.9311-13.821-7.1892-1.4821 0.38571-7.4218 3.5272-13.199 6.981-5.7775 3.4538-10.981 6.2796-11.562 6.2796-0.58193 0-1.058 0.4628-1.058 1.0284 0 2.7535-23.355 11.472-30.731 11.472-4.1334 0-4.4852 0.26328-3.7584 2.8125 3.419 11.993 4.656 17.499 5.3169 23.665 0.94235 8.7922 1.7858 10.076 17.906 27.254l13.043 13.899 5.0497-0.84215c2.7773-0.46318 8.8488-2.2071 13.492-3.8755zm-9.0553-41.024c-1.2461-1.5014-1.1739-2.0022 0.37428-2.5962 2.1749-0.83459 7.1134 1.422 7.1134 3.2504 0 1.9074-5.781 1.4023-7.4877-0.65418zm-235.97 39.36c0.2658-0.34375 1.5208-4.8438 2.7888-10 1.2681-5.1562 2.6407-9.9375 3.0504-10.625 0.40965-0.6875 1.369-3.5 2.1319-6.25 5.2553-18.943 12.125-39.163 14.936-43.959 2.4152-4.1212 2.9448-6.0394 1.944-7.0401-0.75659-0.75659-1.3756-3.1986-1.3756-5.4268 0-4.8371-0.17715-4.9644-11.141-8.0027-4.7338-1.3118-16.047-6.0551-25.141-10.541-9.094-4.4855-17.729-8.1342-19.188-8.1081-1.6584 0.0296-4.0604 2.0192-6.4038 5.3039-7.2964 10.228-7.6217 11.36-7.907 27.533-0.14788 8.3826-0.72424 23.397-1.2808 33.366-0.55657 9.9688-0.967 22.905-0.91206 28.747l0.0999 10.622 6.25 0.88579c3.4375 0.48718 10.248 1.6136 15.134 2.5031 8.7153 1.5866 26.063 2.2238 27.015 0.99233zm-25.008-53.45c-2.2659-0.75528-1.8317-2.5395 0.98468-4.0468 2.7019-1.446 8.1425 0.44914 6.9285 2.4135-0.78882 1.2763-5.8501 2.321-7.9132 1.6333zm184.09 50.1c8.9144-5.4536 15.392-10.263 25.08-18.62l7.1302-6.1511-0.67409-9.375c-0.65395-9.095-3.5938-18.75-5.7092-18.75-0.57172 0-2.111 1.1866-3.4207 2.6368-2.2658 2.5089-21.179 15.378-30.506 20.758-10.774 6.2141-19.044 10.356-20.678 10.356-2.4536 0-3.6535 5.7063-2.3129 10.999 1.0092 3.9844 2.0137 4.7937 10.491 8.4531 5.1562 2.2258 10.208 4.1033 11.225 4.1722 1.0177 0.069 5.2364-1.9462 9.375-4.4781zm6.2358-22.959c-1.1481-1.8576-0.235-2.5152 1.771-1.2755 1.0747 0.66419 1.2025 1.3084 0.36268 1.8274-0.71339 0.4409-1.6735 0.19253-2.1336-0.55192zm423.83-2.8414c8.7555-9.0097 22.19-25.6 26.81-33.109 4.8263-7.8438 4.672-8.6074-5.8596-28.987-8.1391-15.75-10.955-20-13.254-20-0.6895 0-6.6492 3.2583-13.244 7.2406-6.5945 3.9823-13.537 8.0149-15.428 8.9612-1.8906 0.94633-3.4375 2.1881-3.4375 2.7594 0 0.57133-1.1311 1.0388-2.5136 1.0388s-4.8981 1.0453-7.8125 2.323c-11.198 4.9088-12.982 5.4955-19.049 6.2622-6.2187 0.7859-6.2712 0.83094-10.49 9.011l-4.2403 8.2211 6.4229 6.0079c3.5326 3.3043 9.6476 10.292 13.589 15.529 6.517 8.6588 8.488 11.173 15.764 20.108 2.1932 2.6931 2.8348 2.7807 14.375 1.9618l12.079-0.8572 6.2883-6.4708zm-14.904-29.073c-1.0885-2.8366-0.9998-3.0228 1.4405-3.0228 1.2097 0 2.9019 1.125 3.7606 2.5 1.3986 2.2394 1.2484 2.5-1.4405 2.5-1.6511 0-3.3433-0.88975-3.7606-1.9772zm-246.38 32.686c7.5625-0.97381 19.375-2.1362 26.25-2.5831 18.312-1.1903 20.029-1.9312 22.619-9.7603 1.1811-3.57 3.9843-10.477 6.2294-15.348 4.6742-10.142 9.0154-22.823 10.069-29.412 0.6381-3.9897 0.3779-4.6055-2.2225-5.2604-8.2302-2.0727-17.659-9.0504-31.524-23.328-8.0006-8.239-14.547-15.551-14.547-16.249 0-0.69798-0.84375-1.269-1.875-1.269s-1.875 0.48334-1.875 1.0741c0 0.59075-1.9633 3.5439-4.3629 6.5625s-4.3683 5.9161-4.375 6.4387c-0.0356 2.7935-10.845 15.874-24.588 29.755l-15.55 15.705 1.8605 10.545c1.0233 5.7995 2.7986 16.029 3.9452 22.732l2.0848 12.188 7.0551-0.01c3.8803-0.005 13.243-0.80684 20.805-1.7807zm10.625-40.084c-0.65346-1.7188-1.7646-3.125-2.4691-3.125-0.70452 0-1.2809-0.5625-1.2809-1.25 0-1.8083 5.382-1.5353 8.0393 0.40775 1.5842 1.1584 2.0073 2.4763 1.4047 4.375-1.1614 3.6592-4.2313 3.4394-5.694-0.40775zm-195.73 31.405c15.596-8.4448 29.513-17.984 36.01-24.683 6.8526-7.0663 6.8472-6.569 0.29081-26.721-2.2367-6.875-4.4212-14.557-4.8544-17.071-0.77431-4.4931-1.0125-4.6581-13.99-9.6875-7.2613-2.8141-13.668-5.1165-14.237-5.1165-0.56886 0-3.7363-1.1582-7.0388-2.5738s-10.156-3.368-15.229-4.3388c-9.9419-1.9022-12.011-1.2682-12.363 3.7876-0.18545 2.6661-4.4921 17.557-9.6669 33.424-1.7352 5.3205-3.6473 12.814-4.2492 16.652l-1.0943 6.9782 11.387 11.507c6.263 6.329 13.356 14.146 15.762 17.372 2.5062 3.3596 5.399 5.8811 6.7723 5.9032 1.3185 0.0213 6.9435-2.4229 12.5-5.4316zm-8.9925-39.75c-0.97177-0.97177-1.0567-1.9686-0.25052-2.94 0.79823-0.96182 0.738-2.8516-0.17426-5.4686-1.5532-4.4554-1.1375-5.5349 1.7103-4.4421 2.5978 0.99686 5.0133 10.544 3.2158 12.71-1.6551 1.9942-2.6178 2.0244-4.5013 0.14087zm354.57 16.605c5.9253-1.9885 12.461-3.9766 14.523-4.418 9.0338-1.9333 10.513-3.2322 15.643-13.732 5.1066-10.452 5.9224-13.756 3.7319-15.109-0.6875-0.4249-1.25-1.9182-1.25-3.3184s-0.776-4.0389-1.7245-5.8637c-0.9486-1.8248-3.2127-7.9852-5.0314-13.69-1.8187-5.7045-5.1207-13.125-7.3379-16.491-3.5483-5.386-5.0045-6.4477-12.156-8.8629-9.3403-3.1543-15.417-6.0609-21.977-10.513-5.6615-3.842-7.7944-3.904-13.889-0.40383-11.263 6.4681-13.847 9.3389-14.71 16.343-1.0372 8.4232-5.3892 28.609-7.7981 36.17l-1.8705 5.8708 12.492 12.879c6.8704 7.0836 14.007 14.707 15.858 16.942 1.8516 2.2344 4.0914 4.0625 4.9774 4.0625 0.8859 0 2.3111 0.84375 3.1669 1.875 2.205 2.6569 5.1197 2.3645 17.352-1.7405zm-12.578-39.141c-2.1159-1.6296-2.6947-3.456-2.4221-7.6427 0.224-3.4398 5.6614-2.262 6.1726 1.3369 0.2197 1.5469 1.1708 2.8125 2.1137 2.8125 1.6815 0 3.7884 2.2401 2.9219 3.1066-1.5263 1.5263-6.9941 1.7669-8.7861 0.38668zm-387.15 35.24c0.55662-1.0312 2.9307-8.625 5.2757-16.875s6.0296-20.906 8.1881-28.125c8.3169-27.815 7.8867-25.632 5.9534-30.206-0.96902-2.2928-3.6008-8.6687-5.8484-14.169-2.2476-5.5-4.7028-10.625-5.456-11.389-0.93793-0.95116-7.3003-1.2-20.188-0.78973l-18.819 0.59913-3.2893 6.4148c-1.8091 3.5281-5.0426 10.352-7.1854 15.165-2.1428 4.8125-4.949 11-6.2358 13.75-15.487 33.096-15.185 32.135-13.36 42.5 0.36322 2.0625 0.69917 4.3839 0.74654 5.1586 0.10162 1.661 9.5882 5.9256 17.757 7.9826 3.1694 0.79806 12.724 3.9006 21.233 6.8945 16.193 5.6975 19.555 6.1869 21.227 3.0894zm-25.074-42.455c-2.7326-1.7022-2.5817-13.687 0.1948-15.467 1.1702-0.75016 2.3269-1.1026 2.5705-0.78314 0.24364 0.31944 0.13 4.3611-0.25255 8.9816-0.57423 6.9355-1.0125 8.2033-2.5128 7.2688zm145.95 33.971c11.247-5.4241 37.757-21.709 38.908-23.901 0.57465-1.0943 1.7046-5.3646 2.511-9.4896 0.80638-4.125 1.9659-9.1875 2.5767-11.25s1.467-7.125 1.9026-11.25l0.79208-7.5-6.663-3.3642c-21.037-10.622-30.647-14.294-32.936-12.586-2.0396 1.522-14.352 16.704-14.352 17.697 0 0.49668-5.2887 6.1836-11.753 12.638-13.186 13.165-12.878 12.161-8.3575 27.327 1.359 4.5588 3.4308 11.664 4.604 15.789s3.0327 8.2424 4.1322 9.1499c2.7201 2.245 9.783 1.0098 18.634-3.2589zm8.99-40.26c-2.9068-2.9068-3.2325-5-0.77805-5 1.9036 0 3.7284 1.9704 4.9198 5.3125 1.0444 2.9298-1.0581 2.7712-4.1417-0.3125zm80.163 26.594c5.7539-5.9984 12.761-13.17 15.572-15.938 4.931-4.8546 21.865-29.042 23.401-33.424 0.50638-1.4448-0.35011-2.909-2.6301-4.496-7.2389-5.0387-30.358-17.736-32.294-17.736-1.9332 0-10.371 4.5499-11.712 6.3157-1.674 2.2035-21.818 13.86-25.079 14.513-2.0476 0.40951-3.9599 1.1282-4.2497 1.597-0.57533 0.9309-5.6004 27.925-6.56 35.24-0.57093 4.352-0.23822 4.8259 8.0051 11.403 8.934 7.1283 19.523 13.272 23.047 13.373 1.1211 0.032 6.7461-4.8496 12.5-10.848zm-13.321-32.43c-1.4863-1.4863-1.597-2.3288-0.48273-3.6715 2.3359-2.8146 5.2543-1.6294 6.5964 2.679 0.6063 1.9462 0.20658 2.5907-1.6957 2.734-1.369 0.10313-3.357-0.68052-4.418-1.7414zm342.61 33.966c3.6503-4.7858 3.6099-5.0021-3.0304-16.255-2.3854-4.0423-14.797-12.257-16.722-11.067-0.702 0.43384-0.6269 1.2691 0.1871 2.0831 0.7474 0.7474 1.3589 2.6125 1.3589 4.1446 0 1.5322 0.7269 3.529 1.6153 4.4375 0.8884 0.90849 2.3939 3.5546 3.3455 5.8804 0.9515 2.3257 3.0872 5.8413 4.7458 7.8125s2.6155 3.5839 2.1265 3.5839c-0.4891 0-0.1889 0.84375 0.6669 1.875 2.0431 2.4617 1.8663 2.539 5.7061-2.4952zm-75.453-12.465c13.442-5.8254 37.135-18.716 42.182-22.95l3.9797-3.3391-1.3452-8.75c-1.6075-10.457-9.5673-35.395-12.567-39.371-1.5205-2.0158-4.9606-3.4819-12.005-5.116-5.4303-1.2598-12.949-3.1562-16.708-4.2142-9.2908-2.6149-12.174-2.4342-14.182 0.88884-0.9345 1.5469-3.6194 6.0874-5.9663 10.09s-8.9077 12.005-14.58 17.783c-5.6718 5.778-10.312 11.092-10.312 11.81 0 0.71745 1.4125 3.542 3.1389 6.2767 1.7263 2.7347 3.9125 7.3642 4.8582 10.288 0.9456 2.9235 3.1412 9.8154 4.879 15.315 5.7979 18.35 5.0407 17.322 12.142 16.481 3.4103-0.40389 10.829-2.74 16.486-5.1914zm0.059-37.742c-2.7533-1.111-1.7192-4.1722 1.4094-4.1722 3.1028 0 6.3565 2.7549 4.9339 4.1775-0.9338 0.93384-4.0222 0.93124-6.3433-0.005zm-125.68 41.303c3.1076-0.83318 5.4478-7.4784 8.7133-24.742 5.0225-26.553 5.0219-26.334 0.087-28.289-4.9201-1.9494-16.869-7.4752-40.814-18.874-9.9009-4.7133-18.724-8.5696-19.607-8.5696-1.9136 0-13.718 14.282-23.008 27.836-8.1389 11.875-8.5888 10.589 10.541 30.142 20.345 20.796 25.093 23.142 46.95 23.2 7.9063 0.0207 15.618-0.29547 17.137-0.70281zm-32.968-32.434c-1.0977-2.8604 1.416-4.7287 5.1137-3.8006 3.5747 0.8972 4.3006 3.8262 1.2393 5.0009-3.3267 1.2766-5.5648 0.8537-6.353-1.2003zm-370.19 22.26c11.516-24.729 14.031-30.265 16.04-35.312 4.0245-10.107 11.14-24.162 13.757-27.17l2.5615-2.946-6.7762-14.004c-3.7269-7.7024-7.9788-16.676-9.4486-19.942-2.9278-6.5049-4.7973-7.1896-9.9169-3.6317-1.8249 1.2682-8.943 4.426-15.818 7.0174s-13.766 5.198-15.312 5.7924c-1.5469 0.59442-2.8125 1.9366-2.8125 2.9826s-0.42516 1.9018-0.94481 1.9018c-1.5336 0-10.358 21.867-22.403 55.517l-4.4358 12.392 4.2042 3.7016c7.0564 6.2128 37.548 19.762 46.706 20.754 0.6886 0.0746 2.7582-3.0988 4.5991-7.0519zm-12.47-46.219c-2.9837-3.0067-3.1156-3.4595-1.1238-3.855 2.7132-0.5388 13.368 4.258 13.368 6.0182 0 0.68399-1.9943 1.2436-4.4318 1.2436-3.1648 0-5.3984-0.97401-7.8125-3.4068zm621.25 39.088c17.456-4.7941 17.667-4.9072 21.266-11.419 4.2694-7.7243 8.8844-22.603 7.6351-24.616-0.5194-0.83683-2.1601-4.9964-3.646-9.2434-2.6377-7.5392-12.684-25.082-18.314-31.98-1.5496-1.8985-5.6845-4.9922-9.1887-6.875s-9.024-5.0443-12.266-7.0256c-8.1416-4.9753-10.536-3.6859-16.832 9.0633-2.6922 5.4519-6.159 11.622-7.704 13.712-2.6514 3.5862-2.7016 4.0316-0.8944 7.9382 1.053 2.2764 2.3032 5.5451 2.778 7.2638 0.4749 1.7188 1.7504 5.0827 2.8344 7.4755s2.7613 10.268 3.7273 17.5c0.9661 7.2322 2.0107 14.275 2.3214 15.65 0.471 2.0846 17.645 13.873 20.783 14.265 0.4821 0.0602 3.8571-0.70894 7.5-1.7094zm-8.2872-48.895c-2.6492-2.6492-2.4835-5.5357 0.3178-5.5357 2.1537 0 7.7179 4.7893 7.7179 6.6431 0 1.6688-6.1002 0.82818-8.0357-1.1074zm-438.87 36.122c4.0495-4.0054 11.673-12.725 16.941-19.376l9.5785-12.094 0.0563-13.531c0.0514-12.364-1.422-30.076-2.5998-31.253-1.7541-1.7541-36.999-15.456-51.444-20-3.4375-1.0813-8.9434-2.9982-12.235-4.2599l-5.9854-2.2939-4.3732 4.8406c-5.2383 5.7981-9.2811 10.869-9.2811 11.642 0 0.73486-13.429 20.603-20.747 30.697-5.4729 7.548-5.6593 8.0819-4.1451 11.875 1.6536 4.1424 6.299 14.892 9.3608 21.661 0.97993 2.1664 1.7817 4.776 1.7817 5.799 0 3.8038 4.4609 6.9493 12.5 8.8141 7.8295 1.8161 36.004 11.215 44.982 15.005 5.3025 2.2387 6.1549 1.8278 15.611-7.525zm-25.85-35.47c-1.1746-0.68477-1.8547-1.9769-1.5115-2.8714 0.34325-0.89451 0.0601-3.1097-0.62916-4.9227-1.3608-3.5791-0.23448-5.0881 2.8998-3.8853 2.1448 0.82303 5.0842 9.7963 3.8586 11.779-0.93475 1.5125-1.8875 1.4918-4.6178-0.0999zm-14.933-8.7316c-4.84-5.09-6.18-8.7-3.22-8.7 2.4884 0 7.1531 3.6956 7.1531 5.6671 0 0.97641 1.4014 2.6936 3.1143 3.8158 1.7128 1.1223 2.8046 2.5415 2.4262 3.1538-1.4473 2.3417-4.8558 0.9259-9.484-3.9394zm-173.48 25.68c6.6574-19.393 15.892-42.89 20.491-52.136 1.6136-3.2447 1.4669-3.5629-3.5071-7.6071-9.5634-7.7757-11.953-8.9811-13.676-6.8978-0.8335 1.0081-4.0467 3.7585-7.1405 6.1121-7.4672 5.6807-11.302 9.0137-21.135 18.37-4.5321 4.3125-12.037 10.775-16.678 14.362-13.187 10.192-18.253 23.017-10.655 26.974 1.5634 0.81419 5.655 3.1662 9.0925 5.2267 7.18 4.3039 15.05 8.1366 27.5 13.392l8.75 3.6938 1.1187-3.8697c0.61529-2.1283 3.2428-10.057 5.839-17.62zm-14.201-19.07c-0.80724-4.2022-0.16232-5.0072 2.6164-3.2656 3.186 1.9969 3.5267 6.7031 0.48521 6.7031-1.6697 0-2.6499-1.0863-3.1016-3.4375zm308.22 18.907c3.5865-1.8045 12.487-7.2051 19.778-12.001l13.257-8.7203 1.1116-15.186c2.3214-31.713 0.81603-49.662-4.7014-56.058-1.3655-1.583-5.9572-6.7574-10.204-11.499-4.2464-4.7413-8.0849-9.1811-8.53-9.8662-1.1044-1.7-10.679-3.0304-23.511-3.2669l-10.68-0.19687-2.3142 4.1003c-3.8732 6.8624-16.816 36.354-17.708 40.35-0.46042 2.0625-1.7687 5.7188-2.9074 8.125-2.0926 4.4223-2.109 4.9625-1.1374 37.495l0.31718 10.62 4.375 2.151c5.7817 2.8426 35.526 17.008 35.979 17.135 0.19474 0.0545 3.2885-1.3774 6.875-3.1819zm-8.7916-52.632c-2.2636-0.7896-1.9128-4.1218 0.9238-8.7742 4.5015-7.3831 9.0277-4.5841 5.5036 3.4034-2.242 5.0815-3.7189 6.3156-6.4274 5.3708zm93.137 43.548c3.6157-5.4149 9.6408-13.587 13.389-18.16 8.1088-9.8926 9.1351-13.903 6.5012-25.403-1.0643-4.6463-2.2584-13.229-2.6538-19.073-1.1001-16.261-3.2878-29.779-5.0569-31.247-1.7256-1.432-18.813 0.70075-21.362 2.6664-0.74684 0.57586-8.6218 2.7662-17.5 4.8675s-17.193 4.1365-18.477 4.5227c-2.524 0.75918-2.541 0.1935 0.55838 18.565 1.1561 6.8529 1.123 13.049-0.15244 28.58-1.1133 13.556-1.2267 20.477-0.35848 21.875 1.5114 2.4333 8.2403 7.0413 18.537 12.694 4.125 2.2647 9.4688 5.4025 11.875 6.973s5.2188 2.884 6.25 2.919 4.8333-4.3667 8.449-9.7816zm-20.116-43.468c-1.9268-1.9268-0.72991-4.3258 1.9664-3.9411 3.5389 0.50489 4.6569 4.7744 1.2503 4.7744-1.3108 0-2.7583-0.375-3.2166-0.83334zm180.53 47.489c10.953-8.5902 30.421-36.611 30.244-43.531-0.1218-4.767-21.506-49.166-25.286-52.5-2.5249-2.2272-4.5591-2.493-18.639-2.4362-8.6928 0.035-19.321 0.81504-23.618 1.7333l-7.8125 1.6696 0.01 8.2667c0.01 4.5467 0.6308 13.329 1.3893 19.517 0.7585 6.1875 1.7382 21.094 2.1772 33.125l0.7983 21.875 9.9846 5.9863c9.7258 5.8311 18.585 9.3752 23.877 9.5516 1.4362 0.0479 4.5299-1.4177 6.875-3.2568zm-12.072-45.571c-1.2419-2.4017-1.7376-5.3012-1.2821-7.5 0.4085-1.9716 1.0877-5.2722 1.5095-7.3346 0.6229-3.0458 1.3975-3.75 4.125-3.75 4.599 0 6.3581 2.1442 6.3581 7.75 0 4.2764-0.3225 4.75-3.2348 4.75-3.0815 0-3.1949 0.2371-2.3902 5 0.686 4.0601 0.4777 5-1.108 5-1.074 0-2.8639-1.7619-3.9775-3.9154zm-49.357 40.922c2.4432-1.6461 6.9122-4.5157 9.9311-6.377l5.4888-3.3841-0.8688-21.976c-0.4778-12.087-1.1138-22.373-1.4134-22.858-0.2995-0.48469-1.0638-9.1809-1.6983-19.325-1.2936-20.679-0.9236-19.928-13.62-27.634-5.8228-3.534-7.381-3.5108-20.253 0.3015-3.7812 1.1199-10.333 2.8068-14.56 3.7485-4.2269 0.94175-9.2894 2.3425-11.25 3.1127-4.0535 1.5925-19.98 3.9991-27.012 4.0817l-4.6972 0.0551 0.6719 5.6862c0.3695 3.1274 1.8382 14.686 3.2638 25.686 1.4255 11 2.8741 22.421 3.219 25.38 0.5296 4.5429 1.3358 5.8136 5.1834 8.1695 9.7847 5.9913 57.556 28.24 60.739 28.289 1.3381 0.0204 4.4318-1.3098 6.875-2.9559zm-30.245-48.357c-2.7666-1.6114-2.9242-8.0997-0.2219-9.1367 2.5893-0.9936 6.7844 1.3178 6.7844 3.738 0 2.3745-2.2762 6.7621-3.4814 6.7108-0.4915-0.0209-1.8779-0.61135-3.0811-1.3121zm-330.81 30.1c6.7281 0 7.5382-0.28808 8.5901-3.0546 1.0744-2.8258 5.6433-9.738 16.047-24.277 2.2799-3.1862 6.5573-9.4677 9.5053-13.959s6.1636-8.9913 7.1458-10c6.2455-6.4138 7.7017-10.134 7.5014-19.162-0.10887-4.9069-0.52968-11.806-0.93513-15.33-0.71303-6.1983-1.0268-6.6286-9.571-13.125-4.8586-3.6941-11.786-9.4254-15.395-12.736l-6.5614-6.0195-4.7925 2.9813c-2.6359 1.6397-8.4488 4.7893-12.918 6.999-12.25 6.0572-17.493 9.3899-17.497 11.121-0.001 0.85938-0.76553 1.5625-1.6971 1.5625-1.7082 0-7.3506 11.387-17.034 34.375-2.8959 6.875-5.7731 13.477-6.3939 14.671-2.2891 4.402-1.5774 6.7903 8.2931 27.829 2.2578 4.8125 5.5798 10.719 7.3823 13.125 2.9037 3.8763 4.092 4.457 10.424 5.0944 3.9308 0.39566 7.8959 0.53628 8.8116 0.3125 0.9156-0.22378 5.0076-0.40688 9.0934-0.40688zm-5.4457-56.35c-2.6231-1.5278-2.7821-5.8847-0.3328-9.1192 2.3135-3.0551 4.8719-1.964 7.433 3.1699 1.9311 3.871 1.9247 4.2354-0.1015 5.717-2.58 1.8865-4.0735 1.9361-6.9988 0.23228zm505.62 44.163c1.804-1.8906 5.9712-8.7812 9.2603-15.312 4.9793-9.8874 5.9863-13.046 6.0162-18.873 0.02-3.849-0.6108-8.349-1.4014-10-0.7905-1.651-3.7438-8.5996-6.5627-15.441-6.9501-16.869-12.381-25.628-16.357-26.381-3.8491-0.72891-10.254-2.3228-22.406-5.5753-5.0944-1.3636-10.513-2.4793-12.042-2.4793-3.4721 0-9.1 6.1891-17.92 19.707l-6.7243 10.306 3.0202 4.681c2.7739 4.2994 9.7869 18.293 19.65 39.209 2.147 4.5531 3.9036 9.1606 3.9036 10.239 0 2.6091 1.7226 3.5929 10.625 6.0682 4.125 1.147 11.156 3.2162 15.625 4.5984 10.714 3.3138 11.474 3.2768 15.312-0.74631zm-28.75-44.89c-0.8593-0.34676-1.5625-1.7086-1.5625-3.0263 0-3.006 5.1954-3.2977 7.5791-0.42557 2.4455 2.9466-1.5656 5.2479-6.0166 3.4519zm87.25 20.75c3.0593-4.8551 7.4462-11.032 9.7487-13.726l4.1863-4.8987-2.1238-7.2114c-1.1682-3.9663-2.5732-8.3364-3.1223-9.7114-0.5492-1.375-2.1911-6.2277-3.6489-10.784-5.1637-16.139-10.96-27.913-14.088-28.617-2.8743-0.64681-8.998-3.6824-27.665-13.714-5.3762-2.8891-10.031-4.9966-10.344-4.6834-1.2098 1.2098-9.2505 21.75-9.9721 25.474-0.5857 3.0224 0.1741 5.6118 3.3011 11.25 5.2134 9.4 5.4988 9.9928 8.0401 16.699 1.1724 3.0938 2.5458 6.4688 3.052 7.5s1.8939 5.25 3.0837 9.375c5.661 19.625 4.088 17.163 15.266 23.894 3.9089 2.3538 8.4323 4.6123 10.052 5.0188 1.6197 0.40653 3.2541 1.2393 3.6319 1.8507 1.9011 3.076 5.4119 0.52093 10.602-7.7159zm-16.211-34.175c-2.5836-3.1131-1.1784-7.5699 2.5223-7.9997 3.036-0.35261 3.2301-0.066 2.9629 4.375-0.3096 5.1468-2.8363 6.8165-5.4852 3.6247zm-618.78 36.659c22.172-8.0766 24.311-9.4454 29.018-18.571 2.3293-4.5157 5.5474-11.585 7.1514-15.71 1.6039-4.125 3.3179-8.0625 3.809-8.75 0.49103-0.6875 2.9375-5.9343 5.4367-11.66l4.5439-10.41-2.4248-3.3405c-1.3337-1.8373-6.9095-7.7712-12.391-13.187l-9.9658-9.846-7.3128 5.1636c-8.7243 6.1602-12.366 8.8866-15.231 11.404-1.1741 1.0312-8.5914 7.292-16.483 13.913-18.279 15.335-20.584 17.813-19.268 20.711 0.56208 1.2381 1.3364 8.5457 1.7206 16.239l0.69868 13.988 5.5148 4.7621c6.7374 5.8179 11.548 9.1179 13.308 9.1288 0.72777 0.005 6.0715-1.7214 11.875-3.8354zm0.23925-33.24c-0.85938-0.34375-1.5625-1.7422-1.5625-3.1078 0-1.8598 0.70576-2.3825 2.8125-2.0833 1.7995 0.25556 2.8125 1.2624 2.8125 2.7953 0 2.5425-1.4937 3.4234-4.0625 2.3958zm202.71 29.271c0.95138-2.2344 3.2852-8.2812 5.1863-13.438 1.9011-5.1562 5.8529-14.438 8.7818-20.625 8.3033-17.541 8.2912-18.959-0.24138-28.158-1.6112-1.737-5.3741-7.6927-8.3621-13.235-6.1353-11.38-17.09-26.732-19.074-26.732-0.72297 0-3.8752 2.3906-7.005 5.3125s-9.8507 8.6792-14.936 12.794c-5.0848 4.1149-9.67 8.1486-10.19 8.9639-0.51944 0.8153-6.2452 5.7458-12.724 10.957-17.584 14.143-16.166 11.609-15.333 27.408 0.39632 7.5127 1.247 14.186 1.8903 14.829 0.64332 0.64333 10.663 4.4574 22.265 8.4757 11.603 4.0183 26.439 9.5847 32.971 12.37 6.5312 2.785 12.587 5.081 13.458 5.1021 0.87049 0.0211 2.3611-1.7897 3.3125-4.0241zm-26.458-39.271c-2.8141-1.1256-1.7844-4.372 1.25-3.9411 1.5469 0.21969 2.8125 1.1963 2.8125 2.1703 0 1.9763-1.6982 2.7166-4.0625 1.7708zm132.71 5.0504c19.81-5.1014 24.782-6.2885 34.165-8.158 4.0472-0.80633 6.5625-1.9571 6.5625-3.0023 0-1.8758-12.554-32.067-17.903-43.057-1.0791-2.2169-6.4177-5.5607-18.371-11.507-9.2677-4.61-17.335-8.2453-17.928-8.0783-1.1528 0.32479-10.067 16.932-13.531 25.21-1.151 2.75-4.7117 11.02-7.9127 18.379l-5.82 13.379 3.4667 4.7461c6.0444 8.2752 14.694 16.621 17.225 16.621 1.3444 0 10.366-2.0398 20.047-4.533zm-9.6891-26.3c-0.45834-0.45832-0.83334-1.5833-0.83334-2.5 0-2.0167 5.7449-2.2453 6.9614-0.27691 1.4209 2.2991-4.1028 4.8022-6.128 2.7769zm89.687 16.929c22.078-5.1757 31.244-8.2104 34.001-11.257 2.1168-2.339 2.2889-4.8195 2.0439-29.448-0.2977-29.911-0.1937-29.493-10.242-41.196-5.4276-6.322-19.763-18.27-21.26-17.719-2.2348 0.82251-33.617 28.327-45.053 39.487l-11.874 11.587 2.7127 7.1631c1.492 3.9397 4.5013 11.663 6.6873 17.163 2.1861 5.5 5.3595 13.643 7.0521 18.096 1.6926 4.4528 3.7242 8.8754 4.5147 9.8279 1.8859 2.2723 10.014 1.3142 31.418-3.7038zm-9.5827-37.445c-2.6859-1.5644-2.8736-5.9651-0.2966-6.954 2.6494-1.0166 5.6091 1.797 5.6091 5.3321 0 3.1627-1.7498 3.6969-5.3125 1.6218zm90.938 38.72c5.5-0.73305 14.358-0.96525 19.683-0.516 5.3259 0.44923 10.74 0.48157 12.03 0.0719 1.291-0.40973 4.7567-4.2451 7.7017-8.523 2.945-4.278 7.5665-10.708 10.27-14.29l4.9154-6.5119-2.8844-5.7753c-2.8544-5.7154-4.9247-7.788-19.928-19.951-4.2404-3.4375-10.154-8.3125-13.142-10.833-4.6277-3.9044-6.6637-4.7151-13.746-5.4736-10.215-1.094-41.935 0.42748-43.65 2.0937-0.7571 0.73539-1.2826 12.577-1.3327 30.035l-0.083 28.821 5.0827 3.2217c2.7955 1.772 7.614 4.8471 10.708 6.8336 4.4793 2.8762 6.5161 3.4608 10 2.8704 2.4063-0.40777 8.875-1.3412 14.375-2.0742zm-0.9889-31.901c-2.1768-2.1768-0.7727-4.3724 2.5514-3.9899 2.0465 0.23547 3.4375 1.1543 3.4375 2.2705 0 1.9653-4.4619 3.2464-5.9889 1.7194zm-491.93 18.733c9.9205-9.1819 18.06-16.21 28.868-24.927 1.211-0.97669 2.5491-1.7758 2.9735-1.7758 0.42443 0 2.8611-1.8281 5.4147-4.0625 2.5537-2.2344 5.7907-4.9853 7.1934-6.1131 2.1842-1.7562 2.6777-4.0897 3.4365-16.25 0.98501-15.785 2.1669-26.046 4.5416-39.427l1.5931-8.9773-8.6886-9.1477c-4.7787-5.0312-10.297-11.257-12.263-13.835-1.966-2.5781-4.0148-4.6875-4.5528-4.6875s-2.1558 1.8281-3.595 4.0625c-5.7822 8.9765-7.4304 11.034-18.195 22.714-6.1543 6.6778-14.795 15.057-19.202 18.62-4.4066 3.5631-10.903 8.8441-14.435 11.735-3.5328 2.8913-7.1265 5.2819-7.9859 5.3125-0.85938 0.0306-1.6043 0.47743-1.6554 0.99306-0.0511 0.51562-0.33056 2.3438-0.62105 4.0625-3.0736 18.186-3.132 20.104-0.71628 23.523 1.3029 1.8438 6.1276 11.074 10.722 20.511 4.594 9.437 8.8828 17.486 9.5307 17.886 0.64786 0.4004 1.1779 1.5584 1.1779 2.5732 0 1.6665 3.4966 8.0072 4.4155 8.0072 0.2079 0 5.6276-4.8588 12.044-10.797zm-3.7586-57.387c-2.0071-4.4051-1.8133-8.0055 0.47827-8.8848 2.4138-0.92629 3.3275-0.0408 3.7053 3.5916 0.16319 1.5686 0.36849 3.236 0.45623 3.7053 0.0877 0.4693 1.2927 1.2129 2.6777 1.6525 3.4346 1.0901 1.879 3.1192-2.3913 3.1192-2.5114 0-3.878-0.88325-4.9262-3.1838zm292.96 52.246c7.8663-16.918 9.337-20.205 11.652-26.038 1.3423-3.3825 4.5078-9.9623 7.0344-14.622l4.5939-8.4718-0.88918-15.608-0.88918-15.608-4.9091-3.6102c-2.7-1.9856-8.2006-4.8412-12.224-6.3456l-7.3145-2.7354-9.0684 5.9196c-4.9876 3.2558-14.738 8.8169-21.669 12.358-20.858 10.658-40.41 24.23-40.68 28.239-0.0247 0.36651 3.6104 5.6262 8.078 11.688 4.4676 6.062 10.104 14.762 12.524 19.334 2.4208 4.5715 6.8603 11.124 9.8655 14.562l5.464 6.25 16.699 0.6964c9.1845 0.38301 17.08 0.80489 17.545 0.9375 0.46506 0.1326 2.3494-2.9933 4.1874-6.9464zm-21.65-38.06c-0.825-0.825-1.5-1.95-1.5-2.5 0-1.6421 4.5845-1.1318 6.0861 0.67751 2.4961 3.0076-1.724 4.6846-4.5861 1.8225zm-94.597 22.787c3.4531-3.1139 9.6406-8.4569 13.75-11.873 4.1094-3.4164 10.715-9.3725 14.68-13.236l7.2084-7.0239-4.1874-9.2643c-4.45-9.85-10.17-25.639-11.46-31.636l-0.77948-3.6214-23.368 0.86778c-30.658 1.1385-32.3 1.4145-33.193 5.5767-0.38912 1.814-1.5992 7.4714-2.6891 12.572-1.0899 5.1005-3.698 13.257-5.7957 18.125-3.6794 8.5389-8.5645 26.008-8.5645 30.626 0 2.9198 7.9964 10.644 21.25 20.527l10.625 7.9227 8.125-6.9506c4.4688-3.8228 10.95-9.4983 14.403-12.612zm-15.563-29.58c-3.3751-4.2907-3.2678-5.4564 0.50218-5.4564 2.142 0 3.6639 1.1042 4.9502 3.5915 3.0631 5.9233-1.1314 7.358-5.4523 1.8649zm-72.591 36.549c2.4062-1.5133 7.6471-4.3821 11.646-6.3752 3.9992-1.9931 8.6578-4.9089 10.353-6.4796 1.6948-1.5706 4.071-3.3853 5.2804-4.0326 1.9985-1.0696 4.2431-7.6019 5.7475-16.726 0.31585-1.9158 2.8134-8.9471 5.5501-15.625 4.8342-11.796 9.9397-32.167 8.4382-33.668-0.40888-0.40887-0.15809-1.4486 0.55729-2.3106 0.92829-1.1185 0.56731-2.9356-1.2608-6.3465-1.4088-2.6286-2.5615-5.7944-2.5615-7.0351 0-2.7691-4.1894-11.177-6.5418-13.13-1.7417-1.4455-2.1648-1.3183-24.083 7.2404-3.4375 1.3423-8.0781 2.8016-10.312 3.243-2.2344 0.44139-4.0625 1.2263-4.0625 1.7443 0 0.51798-3.7342 1.8798-8.2982 3.0262-12.418 3.1192-14.863 4.7421-16.534 10.971-2.4542 9.1501-5.1138 30.127-5.9737 47.117-0.96292 19.026-1.3659 18.013 13.114 32.955 10.243 10.571 10.605 10.674 18.942 5.4313zm0.6677-58.186c-2.1235-3.4359-4.1578-11.332-3.0896-11.992 2.8259-1.7465 5.9407 0.93351 7.2837 6.2671 0.76353 3.0322 1.3882 5.8266 1.3882 6.2096 0 1.1839-4.8091 0.76659-5.5823-0.48443zm508.97 56.493c1.4288-2.5781 4.3919-9.9538 6.5848-16.39l3.987-11.703-3.6975-8.2971c-2.0336-4.5634-4.0927-10.119-4.5758-12.345-0.483-2.2265-1.3261-4.325-1.8735-4.6633-0.5474-0.33831-2.5345-3.761-4.4157-7.6061-1.8811-3.845-4.0619-7.21-4.846-7.4779-3.0522-1.0425-40.667-5.9968-49.367-6.5022-13.618-0.79112-14.262-0.45208-20.624 10.86-9.1838 16.331-9.3335 15.57 5.467 27.755 6.9703 5.7381 15.183 12.432 18.251 14.876 3.0678 2.4437 7.3898 7.4608 9.6045 11.149 3.9774 6.6236 4.1327 6.7272 12.673 8.4532 4.7552 0.96105 11.497 2.7598 14.983 3.9972 3.4852 1.2374 8.3425 2.3246 10.794 2.4161 3.9268 0.14655 4.7665-0.39156 7.055-4.5212zm-32.528-37.37c-1.7694-1.7694-0.7682-4.1927 1.7323-4.1927 1.7474 0 2.46 0.67881 2.1875 2.0839-0.4462 2.3006-2.58 3.4486-3.9198 2.1088zm95.913 19.572c7.2025-7.4605 8.3388-9.2385 7.7891-12.188-0.354-1.899-1.2439-7.2496-1.9776-11.89-3.0697-19.415-4.0819-25.422-4.6127-27.375-0.3083-1.1344-3.5849-3.5423-7.2812-5.3507-3.6964-1.8084-10.567-6.1015-15.268-9.5401-11.758-8.6009-12.588-8.69-22.614-2.4295-18.796 11.736-22.957 16.253-18.433 20.008 1.0313 0.85586 1.875 2.0732 1.875 2.7052 0 0.63198 1.5964 4.6412 3.5476 8.9094 1.9511 4.2682 5.4172 12.373 7.7025 18.012 4.104 10.126 4.2482 10.298 11.765 14.047 4.1855 2.0877 11.266 6.0041 15.735 8.7031 4.4688 2.699 9.2984 4.9559 10.732 5.0153 1.6724 0.0692 5.6312-3.0242 11.04-8.6268zm-28.605-33.696c-0.4484-0.72556-0.5003-1.8289-0.1152-2.4519 0.9817-1.5885 5.9026-0.108 5.3325 1.6043-0.633 1.9015-4.207 2.4821-5.2172 0.84756zm-258.77 11.717c8.2391-7.9551 17.511-16.524 20.605-19.041 20.873-16.985 22.861-19.44 20.203-24.949-5.0973-10.565-3.8319-9.708-13.734-9.2976-4.9485 0.20512-11.382 1.2374-14.296 2.294-5.3991 1.9576-18.323 3.651-39.773 5.2118-10.895 0.7927-12.364 1.2096-16.291 4.6213-10.516 9.1373-12.242 14.017-10.548 29.831l0.86853 8.1102 17.723 8.7581c9.7476 4.8169 18.294 8.7958 18.993 8.8419 0.6984 0.0461 8.0109-6.4249 16.25-14.38zm-25.645-22.289c0-2.5018 6.4836-4.5405 9.3458-2.9387 2.1294 1.1917 2.0814 1.3874-0.71972 2.9398-3.9815 2.2064-8.626 2.2059-8.626-0.001zm-123.29 12.615c13.943-10.38 15.606-11.426 30.018-18.883 7.4613-3.8603 15.326-8.2757 17.477-9.8119s5.6006-3.7034 7.6658-4.816c4.0198-2.1654 5.0507-5.4526 5.0207-16.008-0.0144-5.0496-0.33342-5.6163-3.6667-6.5115-4.907-1.3179-59.985-1.8157-66.584-0.60185-5.1028 0.93858-5.2975 1.1584-7.6896 8.6786-5.4999 17.291-5.8595 21.187-2.7548 29.85 3.2163 8.9737 10.268 24.741 11.066 24.741 0.29313 0 4.5449-2.9868 9.4484-6.6373zm16.04-29.863c-2.3302-2.3302-1.787-3.5 1.625-3.5 2.2917 0 3.125 0.66667 3.125 2.5 0 2.7845-2.4498 3.3002-4.75 1zm247.21 30.382 16.84-0.75696 7.5497-13.263c4.1523-7.2944 8.2956-14.161 9.2073-15.26 2.794-3.3665-2.7933-11.295-14.28-20.265-5.5586-4.3405-14.597-12.014-20.085-17.053-5.488-5.0386-14.852-12.472-20.809-16.518l-10.831-7.3567-4.7158 3.5677c-6.3923 4.8362-30.576 29.074-33.216 33.291-1.1686 1.8664-2.1248 4.241-2.1248 5.2769 0 3.3953 5.8953 15.301 7.971 16.098 1.1159 0.42824 2.029 2.1696 2.029 3.8698 0 2.2832 1.8788 4.5492 7.1875 8.6688 7.7881 6.0437 14.684 13.123 18.262 18.747 2.2451 3.5291 2.3231 3.5474 11.218 2.632 4.9266-0.50702 16.535-1.2625 25.797-1.6788zm-24.34-38.507c-3.0994-0.72581-5.625-3.8449-5.625-6.9469 0-2.9479 5.9877-10.928 8.1996-10.928 2.4584 0 3.3285 2.1448 1.93 4.7578-0.9451 1.7659-0.6645 2.7988 1.1922 4.3886 2.7492 2.354 3.153 5.8788 0.9282 8.1036-1.547 1.547-2.3589 1.6236-6.625 0.62455zm-139.72 6.4557c5.2672-4.7206 6.467-6.608 7.1667-11.274 0.88581-5.907 0.42648-6.7968-13.838-26.806-5.9519-8.3489-5.6774-8.3389-13.097-0.47606-3.7181 3.9404-8.0137 8.3847-9.5459 9.8763-2.148 2.091-2.9754 4.753-3.6143 11.627-0.9766 10.508-0.27997 11.756 8.1178 14.545 3.2452 1.0779 7.8425 3.3311 10.216 5.0072 2.3738 1.6761 5.2052 3.075 6.292 3.1087s4.8228-2.4901 8.3023-5.6085zm-14.028-19.33c-0.4249-0.6875 0.10437-1.25 1.1762-1.25s1.9488 0.5625 1.9488 1.25-0.5293 1.25-1.1762 1.25c-0.64692 0-1.5239-0.5625-1.9488-1.25zm296.64 14.53 16.045-10.47-0.5394-7.9679c-0.2967-4.3823-0.9001-8.3387-1.341-8.7919s-3.6141-1.6786-7.0516-2.7231-11.312-3.698-17.5-5.8967c-6.1875-2.1987-15.696-5.3291-21.131-6.9564l-9.881-2.9588-5.5249 4.5272c-3.0387 2.49-8.1547 7.8776-11.369 11.972-3.2142 4.0949-7.9518 10.057-10.528 13.25-6.7288 8.339-10.083 15.916-8.4211 19.022 1.1238 2.0997 2.6471 2.4636 10.336 2.4696 4.9602 0.004 10.987 0.55369 13.394 1.2219 6.064 1.6839 20.354 3.424 29.671 3.613 7.7581 0.15735 7.8737 0.10736 23.841-10.312zm-33.928-7.8637c-1.4262-1.4262-0.9134-6.4251 0.7291-7.1072 1.0825-0.44951 0.6985-1.4071-1.25-3.117-5.85-5.1338-1.8123-7.0959 5.413-2.6304 4.8691 3.0093 6.0605 5.8654 4.3373 10.398-0.9483 2.4942-2.1151 3.2901-4.8235 3.2901-1.9649 0-3.9476-0.375-4.4059-0.83333zm-390.87 7.6268c7.8632-0.34793 14.521-0.85726 14.796-1.1319 0.2746-0.27459 0.58265-1.9416 0.68458-3.7045 0.10187-1.7629 0.4844-3.2057 0.84992-3.2062 0.36554-0.00048 1.4445-2.6728 2.3977-5.9384s2.2446-6.7812 2.8698-7.8125c1.238-2.0421-1.6069-9.0518-7.5382-18.573-4.54-7.2882-7.252-11.759-14.5-23.901-4.4752-7.4976-6.6449-10.057-8.125-9.586-3.5261 1.1231-24.294 7.2646-30.237 8.9416-6.9544 1.9625-22.637 8.072-24.073 9.3779-0.57208 0.52045-0.49329 1.997 0.17506 3.2811 1.728 3.3201 10.24 23.927 10.24 24.79 0 0.39563 1.3498 2.8575 2.9995 5.4708s3.9079 7.4272 5.0182 10.697c1.1103 3.2702 2.9083 7.6663 3.9957 9.769l1.977 3.8232 12.086-0.83241c6.6472-0.45782 18.519-1.1171 26.383-1.465zm-19.647-23.871c-0.85938-0.34677-1.5625-1.294-1.5625-2.1049 0-0.81093-1.2656-2.0297-2.8125-2.7083-4.624-2.0286-4.4504-8.2843 0.34169-12.317 2.1519-1.8107 4.68-3.2923 5.618-3.2923 2.9772 0 3.2811 2.3218 0.64845 4.9544-3.1877 3.1877-3.2857 6.2956-0.19864 6.2956 1.2908 0 3.0448 0.84093 3.8979 1.8687 1.2498 1.5059 1.1526 2.4767-0.50076 5-2.085 3.1821-2.6549 3.4238-5.4316 2.3034zm208.58 16.347c7.9822-1.0142 16.416-2.3897 18.742-3.0567 2.3257-0.66702 6.7636-1.2214 9.8619-1.2319 12.413-0.0422 11.563-4.5991-3.3862-18.155-16.517-14.977-14.525-14.158-20.672-8.5069-2.9199 2.6843-9.2465 7.6552-14.059 11.046-4.8125 3.3912-11.317 8.2964-14.455 10.9-3.138 2.604-6.3724 4.7346-7.1875 4.7346-1.5698 0-2.0697 5.2457-0.6365 6.6789 0.97892 0.97892 11.251 0.20045 31.793-2.4094z"/>
</svg>
